<?xml version="1.0" encoding="utf-8"?>
<!-- Generator: Adobe Illustrator 15.1.0, SVG Export Plug-In . SVG Version: 6.00 Build 0)  -->
<!DOCTYPE svg PUBLIC "-//W3C//DTD SVG 1.1//EN" "http://www.w3.org/Graphics/SVG/1.1/DTD/svg11.dtd">
<svg version="1.1" id="Calque_1" xmlns="http://www.w3.org/2000/svg" xmlns:xlink="http://www.w3.org/1999/xlink" x="0px" y="0px"
	 width="203px" height="139px" viewBox="0 0 203 139" enable-background="new 0 0 203 139" xml:space="preserve">
<path fill-rule="evenodd" clip-rule="evenodd" d="M5.823,4.516v128.25h192V4.516H5.823z M137.29,45.537l1.637-5.036l1.637,5.036
	h5.293l-4.283,3.113l1.637,5.035l-4.283-3.111l-4.283,3.111l1.636-5.035l-4.284-3.113H137.29z M52.218,66.979h5.295l1.636-5.036
	l1.637,5.036h5.294l-4.283,3.112l1.636,5.035l-4.283-3.111l-4.284,3.111l1.636-5.035L52.218,66.979z M69.213,96.465l-4.283-3.111
	l-4.284,3.111l1.636-5.035l-4.284-3.113h5.295l1.636-5.036l1.637,5.036h5.294l-4.283,3.113L69.213,96.465z M67.578,48.754
	l1.636,5.036l-4.283-3.112l-4.284,3.112l1.636-5.036l-4.284-3.111h5.295l1.636-5.037l1.637,5.037h5.294L67.578,48.754z
	 M84.77,111.916l-4.283-3.111l-4.283,3.111l1.636-5.035l-4.284-3.113h5.294l1.637-5.036l1.637,5.036h5.294l-4.283,3.113
	L84.77,111.916z M83.134,33.093l1.636,5.036l-4.283-3.112l-4.283,3.112l1.636-5.036l-4.284-3.111h5.294l1.637-5.037l1.637,5.037
	h5.294L83.134,33.093z M100.293,24.516l1.636-5.037l1.637,5.037h5.294l-4.283,3.111l1.636,5.036l-4.283-3.112l-4.284,3.112
	l1.637-5.036l-4.283-3.111H100.293z M106.317,117.802l-4.284-3.111l-4.283,3.111l1.637-5.035l-4.284-3.113h5.295l1.636-5.036
	l1.638,5.036h5.293l-4.283,3.113L106.317,117.802z M127.339,111.916l-4.283-3.111l-4.283,3.111l1.636-5.035l-4.284-3.113h5.295
	l1.637-5.036l1.637,5.036h5.293l-4.283,3.113L127.339,111.916z M125.912,33.095l1.637,5.035l-4.283-3.111l-4.283,3.111l1.636-5.035
	l-4.284-3.113h5.295l1.637-5.036l1.637,5.036h5.293L125.912,33.095z M143.105,96.465l-4.283-3.111l-4.283,3.111l1.636-5.035
	l-4.284-3.113h5.295l1.637-5.036l1.637,5.036h5.293l-4.283,3.113L143.105,96.465z M148.781,75.338l-4.283-3.111l-4.283,3.111
	l1.636-5.035l-4.284-3.113h5.295l1.637-5.036l1.637,5.036h5.293l-4.283,3.113L148.781,75.338z"/>
</svg>
