<?xml version="1.0" encoding="utf-8"?>
<!-- Generator: Adobe Illustrator 15.1.0, SVG Export Plug-In . SVG Version: 6.00 Build 0)  -->
<!DOCTYPE svg PUBLIC "-//W3C//DTD SVG 1.1//EN" "http://www.w3.org/Graphics/SVG/1.1/DTD/svg11.dtd">
<svg version="1.1" id="Calque_1" xmlns="http://www.w3.org/2000/svg" xmlns:xlink="http://www.w3.org/1999/xlink" x="0px" y="0px"
	 width="595.275px" height="595.275px" viewBox="0 0 595.275 595.275" enable-background="new 0 0 595.275 595.275"
	 xml:space="preserve">
<g>
	<path d="M99.453,500.299c-0.366,6.182-2.793,11.859-9.937,11.859c-9.295,0-10.532-8.746-10.532-16.988s1.511-16.988,10.532-16.988
		c6.686,0,9.479,3.755,9.663,10.165h-4.213c-0.092-3.709-1.283-6.868-5.45-6.868c-5.586,0-6.319,6.136-6.319,13.691
		s0.733,13.692,6.319,13.692c4.9,0,5.586-4.58,5.724-8.563H99.453z"/>
	<polygon points="121.569,511.518 117.539,511.518 117.539,495.766 106.32,495.766 106.32,511.518 102.292,511.518 102.292,478.823 
		106.32,478.823 106.32,492.194 117.539,492.194 117.539,478.823 121.569,478.823 	"/>
	<path d="M132.375,478.823h5.403l8.792,32.695h-4.212l-2.336-8.976h-10.44l-2.427,8.976h-4.213L132.375,478.823z M130.405,499.246
		h8.792l-4.167-15.798h-0.092L130.405,499.246z"/>
	<polygon points="148.034,478.823 154.811,478.823 161.36,504.741 161.451,504.741 168,478.823 174.777,478.823 174.777,511.518 
		170.747,511.518 170.747,482.944 170.655,482.944 163.421,511.518 159.39,511.518 152.156,482.944 152.064,482.944 
		152.064,511.518 148.034,511.518 	"/>
	<path d="M179.263,478.823h10.028c4.259,0,8.38,2.015,8.38,8.38c0,2.977-1.786,5.953-4.763,6.823v0.092
		c4.03,0.961,5.816,4.029,5.816,8.059c0,6.64-3.755,9.342-10.578,9.342h-8.883V478.823z M183.292,492.926h4.625
		c1.694,0,5.541-0.412,5.541-5.449c0-3.388-1.694-5.357-5.633-5.357h-4.533V492.926z M183.292,508.221h5.495
		c4.259,0,5.724-2.885,5.724-6.045c0-4.487-2.885-6.228-6.41-6.228h-4.809V508.221z"/>
	<path d="M202.112,478.823h10.577c5.129,0,8.38,3.023,8.38,8.197c0,3.571-1.237,7.327-5.037,8.243v0.091
		c2.839,0.32,4.442,2.655,4.625,5.45l0.275,5.585c0.183,3.618,0.778,4.533,1.74,5.129h-4.854c-0.687-0.687-1.007-3.114-1.099-4.717
		l-0.275-5.083c-0.321-4.487-2.793-4.762-4.854-4.762h-5.449v14.562h-4.029V478.823z M206.141,493.66h3.984
		c2.381,0,6.731,0,6.731-6.319c0-3.206-2.152-5.221-5.906-5.221h-4.809V493.66z"/>
	<polygon points="224.96,478.823 241.856,478.823 241.856,482.395 228.989,482.395 228.989,492.652 241.124,492.652 
		241.124,496.224 228.989,496.224 228.989,507.947 242.406,507.947 242.406,511.518 224.96,511.518 	"/>
	<path d="M259.689,478.823h8.746c10.165,0,11.447,7.327,11.447,16.348c0,8.242-2.06,16.348-11.035,16.348h-9.158V478.823z
		 M263.718,508.221h4.213c6.96,0,7.739-7.144,7.739-13.005c0-6.319-0.413-13.097-7.739-13.097h-4.213V508.221z"/>
	<rect x="285.147" y="478.823" width="3.022" height="11.631"/>
	<path d="M300.304,478.823h5.403l8.792,32.695h-4.212l-2.336-8.976h-10.44l-2.427,8.976h-4.213L300.304,478.823z M298.335,499.246
		h8.792l-4.167-15.798h-0.092L298.335,499.246z"/>
	<path d="M331.396,487.889c-0.184-3.434-1.466-6.41-5.449-6.41c-5.587,0-6.319,6.136-6.319,13.691s0.732,13.691,6.319,13.691
		c5.586,0,5.998-6.686,5.998-11.034h-6.456v-3.298h10.12v16.988h-3.022v-4.441h-0.092c-0.87,2.793-3.48,5.083-7.052,5.083
		c-8.518,0-10.028-8.197-10.028-16.989c0-8.242,1.511-16.988,10.532-16.988c9.388,0,9.616,8.013,9.662,9.707H331.396z"/>
	<path d="M339.545,478.823h10.577c5.129,0,8.38,3.023,8.38,8.197c0,3.571-1.236,7.327-5.037,8.243v0.091
		c2.839,0.32,4.442,2.655,4.625,5.45l0.275,5.585c0.183,3.618,0.778,4.533,1.74,5.129h-4.854c-0.687-0.687-1.007-3.114-1.099-4.717
		l-0.275-5.083c-0.32-4.487-2.793-4.762-4.854-4.762h-5.449v14.562h-4.029V478.823z M343.574,493.66h3.984
		c2.381,0,6.73,0,6.73-6.319c0-3.206-2.152-5.221-5.906-5.221h-4.809V493.66z"/>
	<rect x="362.394" y="478.823" width="4.029" height="32.695"/>
	<path d="M390.83,500.299c-0.366,6.182-2.793,11.859-9.937,11.859c-9.296,0-10.532-8.746-10.532-16.988s1.511-16.988,10.532-16.988
		c6.686,0,9.479,3.755,9.662,10.165h-4.213c-0.092-3.709-1.282-6.868-5.449-6.868c-5.587,0-6.319,6.136-6.319,13.691
		s0.732,13.692,6.319,13.692c4.899,0,5.586-4.58,5.724-8.563H390.83z"/>
	<path d="M393.302,478.823h4.029v22.987c0,4.809,1.557,7.052,5.541,7.052c4.304,0,5.586-2.473,5.586-7.052v-22.987h4.03v22.987
		c0,6.273-3.206,10.349-9.616,10.349c-6.549,0-9.57-3.617-9.57-10.349V478.823z"/>
	<polygon points="416.517,478.823 420.546,478.823 420.546,507.947 433.825,507.947 433.825,511.518 416.517,511.518 	"/>
	<polygon points="441.563,511.518 437.534,511.518 437.534,482.395 429.337,482.395 429.337,478.823 449.806,478.823 
		449.806,482.395 441.563,482.395 	"/>
	<path d="M451.546,478.823h4.029v22.987c0,4.809,1.557,7.052,5.541,7.052c4.304,0,5.586-2.473,5.586-7.052v-22.987h4.03v22.987
		c0,6.273-3.207,10.349-9.616,10.349c-6.55,0-9.57-3.617-9.57-10.349V478.823z"/>
	<path d="M474.761,478.823h10.577c5.129,0,8.38,3.023,8.38,8.197c0,3.571-1.236,7.327-5.037,8.243v0.091
		c2.839,0.32,4.442,2.655,4.625,5.45l0.275,5.585c0.183,3.618,0.778,4.533,1.74,5.129h-4.854c-0.687-0.687-1.007-3.114-1.099-4.717
		l-0.275-5.083c-0.32-4.487-2.793-4.762-4.854-4.762h-5.449v14.562h-4.029V478.823z M478.79,493.66h3.984c2.381,0,6.73,0,6.73-6.319
		c0-3.206-2.152-5.221-5.906-5.221h-4.809V493.66z"/>
	<polygon points="497.609,478.823 514.506,478.823 514.506,482.395 501.639,482.395 501.639,492.652 513.773,492.652 
		513.773,496.224 501.639,496.224 501.639,507.947 515.056,507.947 515.056,511.518 497.609,511.518 	"/>
	<polygon points="314.865,524.613 320.085,524.613 330.892,551.905 330.983,551.905 330.983,524.613 335.014,524.613 
		335.014,557.308 329.473,557.308 318.986,530.84 318.895,530.84 318.895,557.308 314.865,557.308 	"/>
	<path d="M360.014,540.96c0,8.242-1.511,16.988-10.531,16.988c-9.021,0-10.532-8.746-10.532-16.988s1.511-16.988,10.532-16.988
		C358.503,523.972,360.014,532.718,360.014,540.96 M343.163,540.96c0,7.556,0.732,13.691,6.319,13.691
		c5.586,0,6.318-6.136,6.318-13.691s-0.732-13.691-6.318-13.691C343.896,527.269,343.163,533.405,343.163,540.96"/>
	<path d="M363.951,524.613h10.577c5.129,0,8.38,3.022,8.38,8.197c0,3.571-1.236,7.326-5.037,8.242v0.092
		c2.84,0.32,4.442,2.655,4.625,5.449l0.275,5.585c0.183,3.619,0.778,4.534,1.74,5.13h-4.854c-0.687-0.687-1.007-3.114-1.099-4.717
		l-0.275-5.083c-0.32-4.487-2.793-4.762-4.854-4.762h-5.449v14.562h-4.029V524.613z M367.98,539.45h3.984c2.381,0,6.73,0,6.73-6.319
		c0-3.206-2.151-5.221-5.906-5.221h-4.809V539.45z"/>
	<polygon points="386.892,524.613 393.669,524.613 400.218,550.531 400.309,550.531 406.857,524.613 413.635,524.613 
		413.635,557.308 409.604,557.308 409.604,528.734 409.513,528.734 402.278,557.308 398.248,557.308 391.014,528.734 
		390.922,528.734 390.922,557.308 386.892,557.308 	"/>
	<path d="M424.53,524.613h5.403l8.792,32.694h-4.212l-2.336-8.975h-10.44l-2.427,8.975h-4.213L424.53,524.613z M422.562,545.036
		h8.792l-4.167-15.798h-0.092L422.562,545.036z"/>
	<polygon points="440.099,524.613 445.318,524.613 456.125,551.905 456.217,551.905 456.217,524.613 460.246,524.613 
		460.246,557.308 454.706,557.308 444.22,530.84 444.128,530.84 444.128,557.308 440.099,557.308 	"/>
	<path d="M465.054,524.613h8.746c10.165,0,11.447,7.327,11.447,16.348c0,8.242-2.061,16.348-11.035,16.348h-9.158V524.613z
		 M469.083,554.011h4.213c6.96,0,7.739-7.144,7.739-13.005c0-6.319-0.413-13.097-7.739-13.097h-4.213V554.011z"/>
	<rect x="489.186" y="524.613" width="4.029" height="32.695"/>
	<polygon points="497.61,524.613 514.507,524.613 514.507,528.185 501.64,528.185 501.64,538.442 513.774,538.442 513.774,542.014 
		501.64,542.014 501.64,553.737 515.057,553.737 515.057,557.308 497.61,557.308 	"/>
</g>
<g>
	<path d="M121.292,458.156c-3.841,0.002-6.878-1.08-8.953-3.041c-2.075-1.96-3.154-4.779-3.153-8.145
		c0.004-5.085,3.539-8.02,7.005-10.328c-1.594-1.862-3.582-4.386-3.589-7.724c0.011-4.844,3.685-8.424,9.25-8.432
		c5.323,0.008,8.985,3.642,8.993,8.483c0.005,3.008-1.691,5.127-4.038,6.732c-0.002,0.002-1.394,0.958-2.314,1.6l7.065,8.43
		c1.078-1.711,1.546-3.637,1.597-6.672l0.006-0.369h5.753l-0.012,0.388c-0.149,4.557-1.133,8.252-3.506,11.156l6.383,7.617h-7.66
		l-2.827-3.412c-1.658,1.426-4.691,3.716-9.973,3.716H121.292z M115.087,446.87c0.011,3.409,2.597,5.778,6.204,5.793
		c2.286-0.007,4.179-0.571,6.41-2.47l-8.16-9.705C117.013,442.255,115.087,443.816,115.087,446.87 M121.852,425.774
		c-2.056,0.021-3.169,1.32-3.194,3.196c-0.011,1.241,0.807,2.512,2.5,4.502c0.59-0.39,1.447-0.985,1.452-0.989
		c1.413-0.96,2.494-1.991,2.488-3.462C125.083,427.166,123.799,425.787,121.852,425.774"/>
	<polygon points="168.074,415.661 168.074,457.476 160.731,457.476 160.731,415.661 147.404,415.661 147.404,409.065 
		181.401,409.065 181.401,415.661 	"/>
	<polygon points="185.688,457.476 185.688,409.065 216.625,409.065 216.625,415.661 193.03,415.661 193.03,429.803 213.156,429.803 
		213.156,436.331 193.03,436.331 193.03,450.88 216.625,450.88 216.625,457.476 	"/>
	<path d="M249.333,457.476l-10.2-20.397h-9.179v20.397h-7.343v-48.411h18.766c9.179,0,15.027,5.915,15.027,14.143
		c0,6.936-4.216,11.354-9.655,12.85l11.15,21.419H249.333z M240.833,415.661h-10.879v15.162h10.879c4.896,0,8.227-2.788,8.227-7.547
		C249.061,418.515,245.729,415.661,240.833,415.661"/>
	<path d="M289.793,457.476l-10.2-20.397h-9.179v20.397h-7.343v-48.411h18.766c9.179,0,15.027,5.915,15.027,14.143
		c0,6.936-4.216,11.354-9.655,12.85l11.15,21.419H289.793z M281.293,415.661h-10.879v15.162h10.879c4.896,0,8.227-2.788,8.227-7.547
		C289.521,418.515,286.189,415.661,281.293,415.661"/>
	<rect x="303.531" y="409.065" width="7.343" height="48.411"/>
	<polygon points="335.828,415.661 335.828,457.476 328.484,457.476 328.484,415.661 315.158,415.661 315.158,409.065 
		349.154,409.065 349.154,415.661 	"/>
	<path d="M380.502,452.716c-3.332,3.332-7.615,5.168-12.783,5.168c-5.167,0-9.383-1.836-12.715-5.168
		c-4.76-4.759-4.691-10.131-4.691-19.446c0-9.314-0.068-14.686,4.691-19.445c3.332-3.332,7.548-5.168,12.715-5.168
		c5.168,0,9.451,1.836,12.783,5.168c4.76,4.76,4.623,10.131,4.623,19.445C385.125,442.585,385.262,447.958,380.502,452.716
		 M374.926,418.244c-1.699-1.835-4.352-2.991-7.207-2.991s-5.508,1.156-7.207,2.991c-2.379,2.584-2.855,5.304-2.855,15.026
		c0,9.724,0.477,12.443,2.855,15.027c1.699,1.836,4.352,2.991,7.207,2.991s5.508-1.155,7.207-2.991
		c2.381-2.584,2.856-5.304,2.856-15.027C377.782,423.547,377.307,420.828,374.926,418.244"/>
	<rect x="391.928" y="409.065" width="7.345" height="48.411"/>
	<path d="M434.561,457.476l-10.198-20.397h-9.179v20.397h-7.344v-48.411h18.766c9.18,0,15.027,5.915,15.027,14.143
		c0,6.936-4.217,11.354-9.655,12.85l11.151,21.419H434.561z M426.063,415.661h-10.879v15.162h10.879
		c4.895,0,8.227-2.788,8.227-7.547C434.289,418.515,430.957,415.661,426.063,415.661"/>
	<polygon points="448.3,457.476 448.3,409.065 479.236,409.065 479.236,415.661 455.643,415.661 455.643,429.803 475.77,429.803 
		475.77,436.331 455.643,436.331 455.643,450.88 479.236,450.88 479.236,457.476 	"/>
	<path d="M498.074,457.884c-7.275,0-12.51-1.7-17.135-6.392l4.896-4.827c3.535,3.535,7.411,4.623,12.375,4.623
		c6.322,0,9.994-2.72,9.994-7.411c0-2.107-0.611-3.876-1.903-5.031c-1.224-1.156-2.448-1.632-5.304-2.04l-5.711-0.815
		c-3.943-0.544-7.072-1.904-9.18-3.876c-2.379-2.244-3.535-5.304-3.535-9.247c0-8.432,6.119-14.211,16.182-14.211
		c6.393,0,10.879,1.632,15.027,5.508l-4.691,4.623c-2.992-2.855-6.46-3.739-10.539-3.739c-5.712,0-8.84,3.264-8.84,7.547
		c0,1.769,0.545,3.332,1.836,4.488c1.225,1.088,3.195,1.904,5.439,2.243l5.508,0.816c4.487,0.68,7.004,1.768,9.043,3.604
		c2.652,2.312,3.943,5.779,3.943,9.927C515.48,452.581,508.205,457.884,498.074,457.884"/>
	<path d="M106.145,389.476v-4.185c-3.255,3.255-6.324,4.649-11.904,4.649c-5.487,0-9.486-1.395-12.369-4.277
		c-2.604-2.697-3.999-6.604-3.999-10.882c0-7.72,5.301-14.043,16.554-14.043h11.44v-2.418c0-5.302-2.604-7.626-9.021-7.626
		c-4.651,0-6.79,1.115-9.301,3.999l-7.719-7.533c4.743-5.209,9.393-6.696,17.484-6.696c13.579,0,20.647,5.766,20.647,17.112v31.899
		H106.145z M96.618,376.707c0.161,0.075,0.292,0.173,0.355,0.22c1.872,1.29,5.453,5.647,6.569,6.45c0,0,0.022,0.017,0.037,0.026
		c0.035,0.022,0.075,0.037,0.119,0.039c0.091,0.005,0.173-0.044,0.217-0.118c0.011-0.019,0.02-0.039,0.026-0.061
		c1.258-2.941,2.019-6.536,2.27-10.782c0.225-3.789,0.091-6.872-0.591-9.596c-0.002-0.009-0.02-0.076-0.035-0.143
		c-0.038-0.146-0.167-0.259-0.328-0.268c-0.05-0.003-0.121,0.015-0.15,0.025c-2.746,1.025-5.724,2.499-8.984,4.701
		c-7.671,5.323-14.286,12.937-15.227,14.708c-0.022,0.034-0.039,0.078-0.042,0.126c-0.006,0.115,0.076,0.213,0.192,0.22
		c0.026,0.001,0.051-0.003,0.075-0.011c1.886-0.342,10.818-4.749,14.066-5.575l0.087-0.026h0.001c0.215-0.075,0.447-0.112,0.688-0.1
		C96.197,376.556,96.418,376.614,96.618,376.707"/>
	<path d="M155.29,384.376c-3.672,3.876-8.228,5.508-13.327,5.508c-5.031,0-9.383-1.836-12.715-5.168
		c-4.759-4.759-4.691-10.131-4.691-19.444c0-9.316-0.068-14.688,4.691-19.447c3.332-3.332,7.548-5.168,12.715-5.168
		c10.267,0,16.251,6.731,17.61,15.027h-7.411c-1.224-5.304-4.759-8.432-10.199-8.432c-2.856,0-5.439,1.156-7.139,2.992
		c-2.38,2.583-2.924,5.303-2.924,15.027c0,9.722,0.544,12.51,2.924,15.093c1.7,1.836,4.283,2.924,7.139,2.924
		c3.196,0,5.984-1.224,7.888-3.399c1.767-2.04,2.447-4.487,2.447-7.615v-2.72h-10.335v-6.255h17.679v7.411
		C159.642,376.965,158.485,380.977,155.29,384.376"/>
	<path d="M193.098,389.476l-10.2-20.397h-9.179v20.397h-7.343v-48.411h18.766c9.179,0,15.027,5.916,15.027,14.143
		c0,6.936-4.216,11.355-9.655,12.85l11.15,21.419H193.098z M184.598,347.661h-10.879v15.162h10.879c4.896,0,8.227-2.787,8.227-7.547
		C192.825,350.515,189.494,347.661,184.598,347.661"/>
	<rect x="206.836" y="341.065" width="7.343" height="48.411"/>
	<path d="M238.386,389.884c-5.032,0-9.383-1.836-12.715-5.168c-4.76-4.759-4.691-10.131-4.691-19.445
		c0-9.315-0.069-14.687,4.691-19.446c3.332-3.332,7.683-5.168,12.715-5.168c8.907,0,15.57,5.236,17.27,14.891h-7.479
		c-1.156-4.896-4.42-8.295-9.791-8.295c-2.856,0-5.439,1.088-7.14,2.924c-2.379,2.584-2.923,5.371-2.923,15.095
		c0,9.723,0.544,12.511,2.923,15.094c1.701,1.836,4.284,2.924,7.14,2.924c5.371,0,8.703-3.399,9.859-8.295h7.411
		C254.023,384.649,247.157,389.884,238.386,389.884"/>
	<path d="M277.961,389.884c-9.859,0-17.338-6.73-17.338-16.727v-32.093h7.343v31.753c0,6.459,3.944,10.471,9.995,10.471
		c6.052,0,10.063-4.012,10.063-10.471v-31.753h7.343v32.093C295.367,383.154,287.82,389.884,277.961,389.884"/>
	<polygon points="303.189,389.476 303.189,341.065 310.533,341.065 310.533,382.881 333.854,382.881 333.854,389.476 	"/>
	<polygon points="347.727,347.661 347.727,389.476 340.385,389.476 340.385,347.661 327.057,347.661 327.057,341.065 
		361.055,341.065 361.055,347.661 	"/>
	<path d="M382.611,389.884c-9.859,0-17.338-6.73-17.338-16.727v-32.093h7.342v31.753c0,6.459,3.944,10.471,9.996,10.471
		c6.051,0,10.063-4.012,10.063-10.471v-31.753h7.344v32.093C400.018,383.154,392.471,389.884,382.611,389.884"/>
	<path d="M434.561,389.476l-10.199-20.397h-9.179v20.397h-7.343v-48.411h18.766c9.18,0,15.027,5.916,15.027,14.143
		c0,6.936-4.218,11.355-9.656,12.85l11.151,21.419H434.561z M426.062,347.661h-10.879v15.162h10.879
		c4.896,0,8.228-2.787,8.228-7.547C434.289,350.515,430.957,347.661,426.062,347.661"/>
	<polygon points="448.299,389.476 448.299,341.065 479.235,341.065 479.235,347.661 455.643,347.661 455.643,361.803 
		475.769,361.803 475.769,368.331 455.643,368.331 455.643,382.881 479.235,382.881 479.235,389.476 	"/>
	<path d="M498.074,389.884c-7.275,0-12.512-1.7-17.135-6.392l4.896-4.827c3.535,3.535,7.41,4.623,12.374,4.623
		c6.323,0,9.995-2.72,9.995-7.411c0-2.107-0.611-3.875-1.904-5.031c-1.224-1.156-2.447-1.632-5.303-2.04l-5.712-0.815
		c-3.943-0.543-7.071-1.904-9.179-3.876c-2.38-2.244-3.535-5.304-3.535-9.247c0-8.431,6.119-14.211,16.182-14.211
		c6.391,0,10.879,1.632,15.026,5.508l-4.691,4.624c-2.991-2.856-6.46-3.74-10.539-3.74c-5.712,0-8.839,3.264-8.839,7.548
		c0,1.768,0.544,3.331,1.836,4.487c1.224,1.088,3.195,1.904,5.439,2.243l5.508,0.816c4.486,0.68,7.002,1.768,9.043,3.604
		c2.651,2.312,3.943,5.779,3.943,9.927C515.48,384.581,508.205,389.884,498.074,389.884"/>
</g>
<g>
	<path d="M350.116,307.859c0,0,0.273,0.186,0.456,0.293c0.419,0.247,0.905,0.391,1.427,0.391c1.095,0,2.033-0.626,2.507-1.533
		c0.121-0.239,0.184-0.458,0.273-0.737c13.09-35.682,19.886-78.808,20.23-129.342c0.309-45.107-3.198-81.594-12.982-113.484
		c-0.031-0.105-0.275-0.895-0.5-1.67c-0.542-1.726-2.153-2.977-4.058-2.977c-0.592,0-1.433,0.249-1.765,0.393
		c-31.945,13.875-63.038,31.778-93.448,53.802c8.167-5.249,19.859-10.551,37.887-10.771c37.727-0.461,57.37,16.022,57.37,47.549
		v88.639h-32.818v-11.629c-9.046,9.045-17.573,12.921-33.078,12.921c-9.387,0-17.201-1.475-23.694-4.473
		c0.089,0.061,0.155,0.129,0.244,0.191C291.17,249.559,336.369,299.03,350.116,307.859"/>
	<path d="M298.29,203.278c0.446,0.209,0.813,0.48,0.987,0.612c5.202,3.586,15.158,15.7,18.263,17.932c0,0,0.062,0.046,0.103,0.073
		c0.096,0.064,0.207,0.103,0.329,0.11c0.256,0.013,0.482-0.123,0.604-0.329c0.03-0.052,0.057-0.108,0.073-0.169
		c3.495-8.177,5.612-18.171,6.312-29.976c0.623-10.537,0.251-19.106-1.645-26.678c-0.006-0.025-0.054-0.212-0.097-0.396
		c-0.105-0.41-0.466-0.722-0.911-0.745c-0.139-0.008-0.338,0.04-0.417,0.069c-7.635,2.852-15.915,6.948-24.978,13.072
		c-21.325,14.798-39.719,35.966-42.333,40.892c-0.061,0.095-0.11,0.217-0.118,0.35c-0.016,0.32,0.213,0.592,0.533,0.609
		c0.073,0.004,0.144-0.006,0.21-0.028c5.243-0.952,30.075-13.203,39.106-15.5l0.242-0.074h0.003c0.596-0.21,1.242-0.311,1.913-0.276
		C297.119,202.86,297.732,203.02,298.29,203.278"/>
	<path d="M246.818,233.485l1.01-0.373l0.014,0.002c2.497-1.032,5.231-1.609,8.101-1.609c2.785,0,5.438,0.546,7.872,1.523
		c-2.391-1.485-4.576-3.22-6.567-5.212c-7.237-7.494-11.113-18.348-11.113-30.235c0-21.45,14.73-39.022,45.999-39.022h31.785v-6.72
		c0-14.729-7.235-21.189-25.065-21.189c-12.921,0-18.865,3.1-25.842,11.111l-20.983-21.198
		c-87.697,67.92-161.457,162.373-171.514,183.979c-0.239,0.421-0.424,0.949-0.424,1.522c0,1.37,1.04,2.48,2.41,2.48
		c0.313,0,0.612-0.059,0.888-0.163C105.555,303.143,208.79,245.306,246.818,233.485"/>
</g>
</svg>
