<?xml version="1.0" encoding="utf-8"?>
<!-- Generator: Adobe Illustrator 15.1.0, SVG Export Plug-In . SVG Version: 6.00 Build 0)  -->
<!DOCTYPE svg PUBLIC "-//W3C//DTD SVG 1.1//EN" "http://www.w3.org/Graphics/SVG/1.1/DTD/svg11.dtd">
<svg version="1.1" id="Calque_1" xmlns="http://www.w3.org/2000/svg" xmlns:xlink="http://www.w3.org/1999/xlink" x="0px" y="0px"
	 width="373.376px" height="146.753px" viewBox="0 0 373.376 146.753" enable-background="new 0 0 373.376 146.753"
	 xml:space="preserve">
<path fill="#1E181A" d="M285.721,49.09c0-0.709-0.256-1.308-0.781-1.832c-0.521-0.523-1.121-0.776-1.831-0.776h-15.396
	c-1.499,0-2.567,0.373-3.265,1.14c-1.044,1.151-1.453,1.706-1.612,1.97l-21.491,36.695c-0.174,0.297-0.493,0.48-0.838,0.48
	s-0.663-0.184-0.837-0.48L218.162,49.58c-0.215-0.36-0.757-1.021-1.605-1.958c-0.699-0.765-1.769-1.139-3.263-1.139h-15.396
	c-0.71,0-1.312,0.255-1.841,0.778c-0.518,0.521-0.771,1.121-0.771,1.83v85.604c0,0.711,0.253,1.311,0.775,1.832
	c0.53,0.529,1.114,0.775,1.837,0.775h17.389c0.721,0,1.304-0.246,1.834-0.775c0.521-0.52,0.774-1.117,0.774-1.832V90.831
	c0-0.44,0.296-0.824,0.721-0.937c0.083-0.021,0.167-0.032,0.249-0.032c0.342,0,0.667,0.182,0.843,0.488l12.471,21.852
	c0.402,0.639,0.956,1.311,1.643,1.998c0.566,0.566,1.363,0.842,2.438,0.842h8.49c1.071,0,1.866-0.275,2.433-0.841
	c0.689-0.686,1.243-1.357,1.646-1.999l12.463-21.85c0.176-0.309,0.5-0.49,0.844-0.49c0.082,0,0.165,0.011,0.248,0.032
	c0.426,0.112,0.722,0.496,0.722,0.937v43.864c0,0.711,0.255,1.309,0.779,1.828c0.53,0.533,1.114,0.779,1.841,0.779h17.385
	c0.713,0,1.312-0.252,1.826-0.771c0.531-0.527,0.786-1.125,0.786-1.836V49.09z"/>
<path fill="#1E181A" d="M9.063,134.246c0,0.84,0.288,1.543,0.881,2.148c0.591,0.613,1.274,0.908,2.091,0.908h34.407
	c5.777,0,11.083-0.893,15.768-2.656c4.68-1.761,8.766-4.265,12.143-7.44c3.376-3.173,6.06-7.001,7.978-11.376
	c1.922-4.38,3.023-9.305,3.272-14.636c0.089-1.797,0.132-3.374,0.132-4.823v-8.718c0-1.471-0.044-3.159-0.132-5.021
	c-0.249-5.252-1.371-10.153-3.334-14.568c-1.956-4.412-4.704-8.26-8.169-11.439c-3.466-3.176-7.637-5.681-12.398-7.442
	c-4.764-1.763-10.113-2.658-15.896-2.658H12.035c-0.814,0-1.497,0.297-2.091,0.907c-0.593,0.61-0.881,1.314-0.881,2.152V134.246z
	 M31.705,67.015c0-0.265,0.209-0.479,0.466-0.479h12.994c11.291,0,17.278,5.223,17.795,15.523c0,0,0,0.001,0,0.002
	c0.089,1.901,0.133,3.58,0.133,5.133v9.372c0,1.577-0.045,3.327-0.133,5.199c-0.434,10.301-6.206,15.526-17.154,15.526H32.171
	c-0.257,0-0.466-0.214-0.466-0.479V67.015z"/>
<path fill="#1E181A" d="M367.201,120.352c0-0.836-0.291-1.537-0.889-2.148c-0.596-0.613-1.279-0.911-2.092-0.911h-40.292
	c-0.258,0-0.467-0.215-0.467-0.479v-14.676c0-0.265,0.209-0.479,0.467-0.479h36.47c0.811,0,1.494-0.298,2.094-0.91
	c0.59-0.61,0.879-1.315,0.879-2.152V84.708c0-0.834-0.289-1.538-0.881-2.153c-0.598-0.61-1.281-0.909-2.092-0.909h-36.47
	c-0.258,0-0.467-0.215-0.467-0.479V67.015c0-0.265,0.209-0.479,0.467-0.479h39.273c0.811,0,1.496-0.298,2.094-0.912
	c0.592-0.608,0.881-1.312,0.881-2.149V49.583c0-0.837-0.289-1.541-0.881-2.152c-0.598-0.609-1.283-0.906-2.094-0.906h-59.428
	c-0.812,0-1.495,0.297-2.087,0.906c-0.595,0.611-0.885,1.315-0.885,2.152v84.663c0,0.84,0.29,1.543,0.884,2.146
	c0.591,0.613,1.272,0.91,2.088,0.91h60.447c0.816,0,1.5-0.297,2.09-0.906c0.6-0.611,0.891-1.314,0.891-2.15V120.352z"/>
<path fill="#1E181A" d="M157.586,137.244h22.608l0.002-0.115c0.004-0.275,0.008-0.549,0.008-0.838
	c0-4.277-0.088-16.222-0.258-19.944c-0.253-4.802-1.294-9.394-3.094-13.645c-1.797-4.235-4.383-7.97-7.688-11.101
	c-3.301-3.126-7.401-5.649-12.184-7.5c-4.781-1.846-10.316-2.781-16.453-2.781c-6.22,0-11.777,0.936-16.517,2.781
	c-4.741,1.852-8.819,4.375-12.121,7.5c-3.303,3.126-5.888,6.861-7.684,11.101c-1.802,4.244-2.844,8.836-3.097,13.647
	c-0.175,3.803-0.253,15.963-0.253,19.941c0,0.297,0.004,0.58,0.008,0.863l0.001,0.09h22.588l-0.002-0.17
	c-0.006-0.346-0.011-0.689-0.011-1.043c0-1.887,0.022-12.123,0.067-14.021c0.046-1.965,0.15-3.63,0.318-5.089
	c0.173-2.195,0.636-4.268,1.376-6.145c0.742-1.884,1.81-3.544,3.173-4.938c1.363-1.396,3.072-2.513,5.079-3.317
	c2.005-0.803,4.385-1.21,7.075-1.21s5.07,0.407,7.075,1.21c2.002,0.803,3.713,1.919,5.084,3.316
	c1.359,1.397,2.425,3.057,3.168,4.938c0.737,1.874,1.2,3.947,1.376,6.162c0.085,1.5,0.172,3.183,0.259,5.063
	c0.081,1.905,0.123,12.145,0.123,14.031c0,0.311-0.009,0.613-0.018,0.916C157.591,137.044,157.589,137.144,157.586,137.244"/>
<path fill="#1E181A" d="M176.852,52.376c0.786-1.858,1.439-3.829,1.943-5.869h-24.198c-0.637,1.098-1.281,2.009-1.963,2.778
	c-2.636,2.974-6.709,4.482-12.107,4.482c-5.394,0-9.488-1.507-12.167-4.479c-0.695-0.766-1.331-1.655-1.989-2.781h-24.115
	c0.503,2.031,1.157,4.003,1.949,5.869c1.797,4.246,4.383,8.007,7.686,11.179c3.303,3.171,7.38,5.694,12.116,7.499
	c4.735,1.807,10.293,2.723,16.52,2.723c6.144,0,11.681-0.916,16.456-2.723c4.779-1.804,8.877-4.327,12.179-7.499
	C172.467,60.379,175.055,56.618,176.852,52.376"/>
<path d="M26.247,27.42v2.973c0,0.652-0.217,1.051-1.052,1.051h-15.08c-0.834,0-1.051-0.399-1.051-1.051V8.642
	c0-0.834,0.398-1.051,1.051-1.051h3.589c0.652,0,1.051,0.217,1.051,1.051v17.727h10.44C26.029,26.369,26.247,26.768,26.247,27.42"/>
<path d="M48.223,27.42v2.973c0,0.652-0.216,1.051-1.044,1.051h-16.12c-0.827,0-1.043-0.399-1.043-1.051V8.642
	c0-0.652,0.216-1.051,1.043-1.051h15.509c0.827,0,1.043,0.399,1.043,1.051v3.009c0,0.653-0.216,1.051-1.043,1.051H35.701v3.952
	h9.644c0.827,0,1.043,0.399,1.043,1.051v2.828c0,0.652-0.216,1.051-1.043,1.051h-9.644v4.785h11.478
	C48.007,26.369,48.223,26.768,48.223,27.42"/>
</svg>
