<?xml version="1.0" encoding="utf-8"?>
<!-- Generator: Adobe Illustrator 15.1.0, SVG Export Plug-In . SVG Version: 6.00 Build 0)  -->
<!DOCTYPE svg PUBLIC "-//W3C//DTD SVG 1.1//EN" "http://www.w3.org/Graphics/SVG/1.1/DTD/svg11.dtd">
<svg version="1.1" id="Calque_1" xmlns="http://www.w3.org/2000/svg" xmlns:xlink="http://www.w3.org/1999/xlink" x="0px" y="0px"
	 width="198.557px" height="231.211px" viewBox="0 0 198.557 231.211" enable-background="new 0 0 198.557 231.211"
	 xml:space="preserve">
<path fill="#1D1D1B" d="M172.824,61.005H144.6l-6.355,18.719c0,0,22.348,2.804,37.192-11.229L172.824,61.005"/>
<path fill="#1D1D1B" d="M119.998,50.365c0,7.503,1.501,14.655,4.209,21.167L148.77,2.059
	C131.655,11.244,119.998,29.428,119.998,50.365"/>
<path fill="#1D1D1B" d="M188.37,6.661c-5.938-3.014-13.977-5.295-20.467-6.006h-0.188l17.929,52.631
	C190.951,43.758,196.038,23.362,188.37,6.661"/>
<path fill="#1D1D1B" d="M93.5,42.058c-0.53,1.398-9.03,23.919-11.396,30.175c4.77-1.288,9.729-3.11,14.736-5.477
	C95.656,58.008,93.661,43.27,93.5,42.058z M61.052,73.943c4.79,0.702,10.264,0.465,16.141-0.686
	c-1.375-3.778-10.816-29.706-11.36-31.2C65.082,47.003,64.803,49.11,61.052,73.943z"/>
<path fill="#1D1D1B" d="M57.543,25.917c-2.549,1.738-6.781,5.479-10.011,12.651c-5.927,13.152-0.403,24.437,2.897,29.454
	L57.543,25.917"/>
<path fill="#1D1D1B" d="M68.069,21.639c2.789,6.91,12.014,29.757,12.496,30.945c0.469-1.211,9.546-24.708,12.064-31.234
	C82.538,19.792,73.609,20.045,68.069,21.639"/>
<path fill="#1D1D1B" d="M112.679,36.338c-1.648-6.323-4.757-10.594-10.927-12.526l5.509,36.491
	C114.79,53.093,114.328,42.662,112.679,36.338z"/>
<path fill="#1D1D1B" d="M119.588,94.247c-64.612,0-101.738-17.016-101.738-43.404c0-26.291,34.996-42.899,93.128-44.806
	c1.63-0.054,3.913-0.101,6.85-0.142c1.249-0.018,2.247-1.044,2.229-2.293c-0.005-0.237-0.044-0.473-0.12-0.697
	c-0.602-1.762-2.27-2.936-4.129-2.904c-2.334,0.039-4.17,0.079-5.509,0.121C41.319,2.274,0,23.379,0,50.698
	c0,34.464,56.046,49.605,114.236,49.605c25.563,0,52.7-2.651,81.404-7.953c1.493-0.275,2.48-1.711,2.205-3.205
	c-0.024-0.131-0.059-0.261-0.102-0.387c-0.585-1.719-2.347-2.745-4.131-2.407C165.846,91.616,141.171,94.247,119.588,94.247z"/>
<polyline fill="#1D1D1B" points="148.771,47.672 168.419,47.672 158.648,17.497 148.771,47.672 "/>
<path fill="#1D1D1B" d="M130.544,120.865c0.011-0.059,0.016-0.151,0.016-0.279c0-0.374-0.113-0.673-0.34-0.895
	c-0.228-0.223-0.532-0.332-0.916-0.332c-0.414,0-0.789,0.138-1.124,0.412c-0.335,0.276-0.592,0.642-0.77,1.095L130.544,120.865
	L130.544,120.865z M129.154,117.497c0.788,0,1.476,0.147,2.062,0.442c0.588,0.295,1.037,0.713,1.354,1.25
	c0.314,0.535,0.473,1.164,0.473,1.883c0,0.337-0.049,0.734-0.146,1.197h-5.675c0.049,0.453,0.222,0.803,0.517,1.049
	c0.296,0.248,0.695,0.371,1.197,0.371c0.66,0,1.271-0.223,1.833-0.666l1.314,1.435c-0.887,0.808-1.971,1.212-3.252,1.212
	c-0.848,0-1.586-0.146-2.217-0.443c-0.63-0.295-1.118-0.72-1.463-1.271c-0.345-0.554-0.519-1.192-0.519-1.922
	c0-0.856,0.194-1.632,0.584-2.32c0.391-0.688,0.93-1.231,1.618-1.625C127.523,117.693,128.297,117.497,129.154,117.497z
	 M122.017,118.813c0.719-0.896,1.641-1.346,2.764-1.346l-0.311,2.408c-0.09-0.01-0.218-0.014-0.386-0.014
	c-0.648,0-1.219,0.172-1.707,0.517c-0.486,0.345-0.8,0.788-0.938,1.33l-0.77,3.856h-2.63l1.597-7.994h2.631L122.017,118.813z
	 M113.356,119.506c-0.365,0-0.705,0.105-1.021,0.318c-0.314,0.211-0.563,0.494-0.746,0.85c-0.183,0.354-0.272,0.738-0.272,1.152
	c0,0.502,0.136,0.904,0.406,1.205c0.271,0.3,0.633,0.449,1.087,0.449c0.363,0,0.7-0.104,1.012-0.31
	c0.311-0.208,0.557-0.487,0.739-0.844c0.183-0.354,0.272-0.743,0.272-1.167c0-0.514-0.133-0.916-0.398-1.213
	C114.169,119.654,113.81,119.506,113.356,119.506z M114.376,117.48c0.61,0,1.15,0.148,1.618,0.444s0.832,0.71,1.094,1.241
	s0.393,1.143,0.393,1.832c0,0.867-0.187,1.658-0.556,2.373c-0.368,0.714-0.877,1.277-1.521,1.691
	c-0.646,0.414-1.356,0.621-2.135,0.621c-0.593,0-1.098-0.121-1.517-0.363c-0.418-0.24-0.74-0.594-0.968-1.057l-0.266,1.301h-2.616
	l2.173-10.965h2.631l-0.784,3.932c0.347-0.336,0.729-0.594,1.146-0.776S113.923,117.48,114.376,117.48z M104.312,117.467
	c0.837,0,1.502,0.238,1.995,0.717c0.491,0.479,0.737,1.105,0.737,1.885c0,0.285-0.023,0.541-0.072,0.769l-0.946,4.729h-2.631
	l0.856-4.346c0.03-0.148,0.045-0.281,0.045-0.398c0-0.346-0.104-0.618-0.311-0.82s-0.493-0.303-0.857-0.303
	c-0.434,0-0.824,0.167-1.175,0.503c-0.35,0.334-0.579,0.769-0.688,1.3l-0.813,4.064h-2.63l0.872-4.346
	c0.03-0.139,0.044-0.266,0.044-0.385c0-0.354-0.104-0.633-0.311-0.835c-0.207-0.202-0.493-0.304-0.857-0.304
	c-0.443,0-0.84,0.168-1.19,0.504c-0.35,0.334-0.579,0.768-0.687,1.3l-0.813,4.063h-2.63l1.581-7.994h2.631l-0.207,1.064
	c0.641-0.779,1.469-1.169,2.483-1.169c0.67,0,1.234,0.154,1.692,0.466c0.458,0.311,0.767,0.735,0.924,1.278
	C102.144,118.048,103.129,117.467,104.312,117.467z M86.355,123.645c0.365,0,0.705-0.104,1.02-0.311
	c0.315-0.207,0.564-0.488,0.746-0.844c0.183-0.354,0.273-0.742,0.273-1.166c0-0.504-0.136-0.904-0.406-1.205
	c-0.271-0.301-0.633-0.451-1.086-0.451c-0.365,0-0.702,0.105-1.012,0.318c-0.312,0.211-0.558,0.494-0.739,0.85
	s-0.273,0.738-0.273,1.152c0,0.502,0.137,0.904,0.407,1.205C85.556,123.494,85.912,123.645,86.355,123.645z M85.335,125.669
	c-0.601,0-1.138-0.147-1.61-0.442c-0.474-0.297-0.841-0.711-1.102-1.242s-0.392-1.144-0.392-1.832c0-0.867,0.185-1.655,0.554-2.364
	c0.369-0.71,0.877-1.271,1.522-1.687c0.646-0.412,1.356-0.621,2.136-0.621c1.202,0,2.03,0.475,2.482,1.42l0.267-1.33h2.616
	l-1.582,7.996h-2.63l0.191-0.946C87.089,125.318,86.271,125.669,85.335,125.669z M78.596,117.467c0.837,0,1.505,0.241,2.002,0.725
	c0.498,0.482,0.747,1.117,0.747,1.906c0,0.217-0.025,0.463-0.074,0.738l-0.96,4.729h-2.616l0.857-4.344
	c0.029-0.14,0.044-0.267,0.044-0.386c0-0.354-0.104-0.633-0.312-0.835s-0.492-0.303-0.856-0.303c-0.443,0-0.841,0.166-1.19,0.503
	c-0.35,0.334-0.574,0.769-0.672,1.3l-0.813,4.064h-2.631l2.158-10.966h2.646l-0.798,4.035
	C76.759,117.855,77.582,117.467,78.596,117.467z M67.926,115.043c0.77,0,1.514,0.16,2.232,0.48c0.719,0.32,1.31,0.756,1.773,1.308
	l-1.773,1.892c-0.296-0.424-0.66-0.762-1.094-1.012c-0.435-0.252-0.877-0.377-1.33-0.377c-0.563,0-1.084,0.145-1.566,0.436
	s-0.864,0.688-1.146,1.189c-0.281,0.503-0.421,1.055-0.421,1.654c0,0.514,0.107,0.977,0.324,1.391
	c0.218,0.414,0.518,0.738,0.901,0.975c0.384,0.237,0.818,0.355,1.301,0.355c0.424,0,0.879-0.109,1.367-0.324
	c0.488-0.218,0.934-0.514,1.337-0.889l1.404,1.699c-0.621,0.592-1.335,1.063-2.144,1.412c-0.808,0.35-1.591,0.524-2.35,0.524
	c-0.956,0-1.808-0.213-2.557-0.636c-0.749-0.424-1.33-1.008-1.744-1.751c-0.414-0.744-0.621-1.584-0.621-2.521
	c0-1.084,0.271-2.07,0.813-2.957s1.281-1.582,2.218-2.09C65.788,115.297,66.813,115.043,67.926,115.043z"/>
<path fill="#1D1D1B" d="M48.14,150.07c-0.679,0-1.268,0.205-1.766,0.615s-0.817,0.949-0.961,1.619h4.799
	c0.009-0.693-0.169-1.24-0.533-1.639C49.314,150.268,48.802,150.07,48.14,150.07z M45.339,152.971v0.038
	c0,0.695,0.207,1.253,0.622,1.671s0.971,0.629,1.665,0.629c0.402,0,0.783-0.068,1.144-0.201c0.359-0.135,0.679-0.328,0.955-0.578
	l0.401,0.554c-0.327,0.301-0.708,0.53-1.143,0.69c-0.437,0.158-0.9,0.238-1.396,0.238c-0.61,0-1.148-0.127-1.613-0.377
	c-0.466-0.252-0.825-0.604-1.08-1.056s-0.383-0.976-0.383-1.57c0-0.687,0.158-1.31,0.478-1.866c0.318-0.557,0.755-0.994,1.313-1.313
	c0.558-0.318,1.17-0.477,1.84-0.477c0.871,0,1.56,0.26,2.065,0.778c0.507,0.519,0.76,1.214,0.76,2.084
	c0,0.21-0.021,0.462-0.063,0.755H45.339L45.339,152.971z M39.033,155.309c0.502,0,0.967-0.133,1.396-0.396
	c0.427-0.264,0.764-0.622,1.011-1.074c0.247-0.451,0.371-0.945,0.371-1.482c0-0.67-0.206-1.215-0.616-1.633
	s-0.946-0.629-1.608-0.629c-0.511,0-0.979,0.133-1.406,0.396c-0.428,0.264-0.768,0.621-1.019,1.074
	c-0.251,0.451-0.377,0.945-0.377,1.481c0,0.67,0.207,1.214,0.622,1.634C37.82,155.098,38.363,155.309,39.033,155.309z
	 M38.769,156.023c-0.554,0-1.045-0.123-1.477-0.371c-0.431-0.246-0.767-0.592-1.005-1.034c-0.239-0.444-0.357-0.951-0.357-1.521
	c0-0.695,0.158-1.33,0.478-1.904c0.318-0.572,0.75-1.024,1.294-1.355s1.147-0.496,1.81-0.496c0.661,0,1.221,0.163,1.677,0.489
	c0.457,0.327,0.76,0.778,0.911,1.356l0.917-4.535h0.842l-1.859,9.32h-0.841l0.264-1.268c-0.317,0.418-0.708,0.742-1.168,0.973
	C39.791,155.909,39.296,156.023,38.769,156.023z"/>
<path fill="#1D1D1B" d="M162.229,156.027c-1.537,0-3.021-0.271-4.448-0.813s-2.636-1.285-3.621-2.23l2.188-3.133
	c0.826,0.748,1.742,1.35,2.749,1.803c1.005,0.453,1.939,0.68,2.808,0.68c0.552,0,0.979-0.104,1.286-0.311
	c0.305-0.207,0.458-0.498,0.458-0.873c0-0.314-0.188-0.586-0.563-0.813c-0.375-0.227-0.966-0.497-1.772-0.813
	c-0.946-0.375-1.734-0.729-2.365-1.063c-0.63-0.335-1.172-0.804-1.625-1.403c-0.454-0.602-0.68-1.336-0.68-2.203
	c0-1.023,0.266-1.931,0.798-2.719c0.531-0.789,1.274-1.398,2.23-1.832c0.955-0.435,2.055-0.65,3.297-0.65
	c1.319,0,2.635,0.23,3.944,0.693c1.312,0.465,2.488,1.1,3.532,1.907l-2.306,3.134c-0.906-0.631-1.809-1.134-2.704-1.508
	c-0.896-0.375-1.66-0.563-2.291-0.563c-0.435,0-0.798,0.104-1.095,0.311c-0.295,0.207-0.442,0.469-0.442,0.783
	s0.191,0.592,0.576,0.828s0.979,0.512,1.789,0.826c0.965,0.396,1.769,0.766,2.407,1.108c0.642,0.347,1.192,0.818,1.655,1.419
	c0.463,0.602,0.695,1.346,0.695,2.23c0,1.025-0.276,1.933-0.828,2.721s-1.32,1.398-2.306,1.833
	C164.613,155.811,163.49,156.027,162.229,156.027z M150.199,142.313c1.438-1.793,3.281-2.689,5.527-2.689l-0.62,4.816
	c-0.178-0.02-0.435-0.028-0.77-0.028c-1.301,0-2.438,0.346-3.414,1.034c-0.976,0.689-1.602,1.576-1.877,2.66l-1.537,7.715h-5.261
	l3.191-15.99h5.262L150.199,142.313z M136.189,146.42c0.02-0.117,0.028-0.305,0.028-0.561c0-0.75-0.227-1.346-0.68-1.789
	s-1.063-0.664-1.833-0.664c-0.827,0-1.576,0.275-2.246,0.826c-0.67,0.553-1.183,1.281-1.537,2.188H136.189z M133.411,139.682
	c1.576,0,2.95,0.295,4.123,0.887c1.172,0.592,2.074,1.425,2.704,2.498c0.631,1.074,0.946,2.33,0.946,3.769
	c0,0.67-0.1,1.47-0.296,2.396h-11.351c0.1,0.906,0.443,1.604,1.034,2.098c0.591,0.492,1.389,0.74,2.395,0.74
	c1.319,0,2.542-0.443,3.665-1.33l2.631,2.867c-1.773,1.615-3.94,2.424-6.503,2.424c-1.694,0-3.173-0.297-4.434-0.889
	c-1.262-0.591-2.237-1.438-2.927-2.541c-0.69-1.104-1.034-2.386-1.034-3.843c0-1.715,0.39-3.262,1.167-4.642
	c0.779-1.379,1.857-2.463,3.237-3.252C130.149,140.076,131.696,139.682,133.411,139.682z M122.031,132.469
	c0.709,0,1.271,0.213,1.685,0.637s0.621,0.979,0.621,1.67c0,0.927-0.33,1.709-0.989,2.351c-0.66,0.642-1.465,0.96-2.409,0.96
	c-0.689,0-1.241-0.212-1.655-0.636c-0.414-0.425-0.621-0.979-0.621-1.671c0-0.926,0.33-1.709,0.99-2.35
	S121.104,132.469,122.031,132.469z M123.214,139.83l-3.163,15.99h-5.262l3.192-15.99H123.214z M108.789,150.322
	c-0.039,0.158-0.059,0.365-0.059,0.621c0,0.334,0.073,0.566,0.222,0.693c0.147,0.129,0.379,0.184,0.694,0.163
	c0.591,0,1.33-0.206,2.217-0.62l0.562,3.9c-0.609,0.316-1.306,0.559-2.084,0.725c-0.777,0.168-1.542,0.252-2.29,0.252
	c-1.438,0-2.581-0.369-3.429-1.109c-0.848-0.737-1.271-1.747-1.271-3.028c0-0.414,0.039-0.808,0.117-1.183l1.33-6.649h-2.188
	l0.68-3.487h2.218l0.888-4.435h5.23l-0.887,4.435h4.138l-0.68,3.487h-4.168L108.789,150.322z M94.158,133.031l4.345,1.654
	l-4.286,3.399l-3.605-0.296L94.158,133.031z M95.666,146.42c0.021-0.117,0.03-0.305,0.03-0.561c0-0.75-0.227-1.346-0.68-1.789
	c-0.454-0.443-1.064-0.664-1.833-0.664c-0.827,0-1.576,0.275-2.246,0.826c-0.67,0.553-1.183,1.281-1.537,2.188H95.666z
	 M92.887,139.682c1.576,0,2.95,0.295,4.124,0.887c1.172,0.592,2.073,1.425,2.704,2.498c0.631,1.074,0.946,2.33,0.946,3.769
	c0,0.67-0.099,1.47-0.296,2.396h-11.35c0.099,0.906,0.442,1.604,1.034,2.098c0.592,0.492,1.39,0.74,2.395,0.74
	c1.32,0,2.542-0.443,3.665-1.33l2.631,2.867c-1.773,1.615-3.941,2.424-6.503,2.424c-1.694,0-3.172-0.297-4.434-0.889
	c-1.262-0.591-2.236-1.438-2.927-2.541c-0.688-1.104-1.033-2.386-1.033-3.843c0-1.715,0.389-3.262,1.167-4.642
	c0.777-1.379,1.856-2.463,3.235-3.252C89.626,140.076,91.173,139.682,92.887,139.682z M77.695,135.1h5.852l-4.02,20.721h-4.759
	l2.601-13.301l-7.567,11.23h-3.458l-3.162-11.262l-2.603,13.332h-4.758l4.02-20.721h5.823l3.666,12.266L77.695,135.1z"/>
<path fill="#1D1D1B" d="M48.349,175.471c0.134,0,0.251,0.047,0.352,0.139c0.101,0.093,0.151,0.209,0.151,0.353
	c0,0.101-0.016,0.185-0.044,0.252c-0.029,0.065-0.082,0.166-0.157,0.302l-0.754,1.369h-0.502l0.616-1.357
	c-0.177-0.1-0.265-0.254-0.265-0.465c0-0.158,0.06-0.297,0.176-0.414C48.04,175.529,48.182,175.471,48.349,175.471z M45.962,175.471
	l-1.858,9.321h-0.842l1.858-9.321H45.962z M35.837,178.889c-0.678,0-1.267,0.205-1.765,0.615s-0.818,0.95-0.96,1.62h4.798
	c0.008-0.694-0.169-1.241-0.534-1.64C37.012,179.087,36.499,178.889,35.837,178.889z M33.036,181.79v0.039
	c0,0.694,0.208,1.252,0.622,1.67c0.414,0.419,0.969,0.628,1.664,0.628c0.402,0,0.783-0.066,1.144-0.199
	c0.36-0.136,0.679-0.328,0.955-0.578l0.402,0.553c-0.327,0.301-0.708,0.531-1.143,0.689c-0.436,0.159-0.9,0.239-1.396,0.239
	c-0.611,0-1.148-0.126-1.614-0.377c-0.465-0.252-0.824-0.604-1.08-1.056c-0.255-0.453-0.383-0.977-0.383-1.569
	c0-0.688,0.159-1.31,0.479-1.866c0.318-0.557,0.756-0.994,1.313-1.313c0.558-0.318,1.17-0.479,1.84-0.479
	c0.871,0,1.561,0.26,2.066,0.779c0.507,0.52,0.76,1.214,0.76,2.085c0,0.209-0.021,0.46-0.063,0.753L33.036,181.79L33.036,181.79z
	 M26.73,184.126c0.502,0,0.967-0.132,1.395-0.396c0.429-0.265,0.765-0.621,1.012-1.074c0.246-0.452,0.37-0.946,0.37-1.482
	c0-0.67-0.205-1.214-0.615-1.633c-0.41-0.418-0.946-0.628-1.608-0.628c-0.511,0-0.979,0.132-1.407,0.396
	c-0.428,0.264-0.767,0.623-1.018,1.074c-0.251,0.452-0.377,0.946-0.377,1.482c0,0.67,0.208,1.215,0.622,1.633
	C25.518,183.917,26.06,184.126,26.73,184.126z M26.466,184.842c-0.553,0-1.045-0.123-1.476-0.369
	c-0.431-0.248-0.766-0.594-1.005-1.037c-0.239-0.442-0.358-0.951-0.358-1.52c0-0.695,0.16-1.33,0.479-1.904
	c0.317-0.572,0.75-1.025,1.294-1.355c0.544-0.332,1.146-0.496,1.809-0.496s1.222,0.162,1.677,0.49
	c0.457,0.326,0.761,0.777,0.911,1.355l0.917-4.535h0.842l-1.859,9.321h-0.842l0.264-1.269c-0.318,0.418-0.708,0.742-1.168,0.974
	C27.488,184.727,26.994,184.842,26.466,184.842z M16.806,182.871c-0.034,0.158-0.051,0.313-0.051,0.465
	c0,0.251,0.058,0.434,0.169,0.546c0.113,0.113,0.287,0.171,0.521,0.171c0.377-0.018,0.766-0.144,1.168-0.378l0.176,0.679
	c-0.502,0.303-1.009,0.461-1.52,0.479c-0.428,0-0.763-0.113-1.005-0.34c-0.243-0.227-0.364-0.557-0.364-0.992
	c0-0.15,0.021-0.34,0.063-0.564l0.779-3.883h-0.955l0.125-0.666h0.955l0.339-1.683h0.842l-0.339,1.683h2.123l-0.125,0.666h-2.136
	L16.806,182.871z M11.455,178.889c-0.678,0-1.267,0.205-1.765,0.615c-0.499,0.41-0.819,0.95-0.961,1.62h4.799
	c0.008-0.694-0.169-1.241-0.534-1.64C12.629,179.087,12.116,178.889,11.455,178.889z M8.653,181.79v0.039
	c0,0.694,0.207,1.252,0.622,1.67c0.415,0.419,0.969,0.628,1.664,0.628c0.401,0,0.783-0.066,1.144-0.199
	c0.36-0.136,0.679-0.328,0.955-0.578l0.402,0.553c-0.327,0.301-0.708,0.531-1.144,0.689c-0.435,0.159-0.899,0.239-1.395,0.239
	c-0.611,0-1.149-0.126-1.614-0.377c-0.465-0.252-0.825-0.604-1.08-1.056c-0.255-0.453-0.383-0.977-0.383-1.569
	c0-0.688,0.159-1.31,0.479-1.866c0.318-0.557,0.756-0.994,1.313-1.313s1.17-0.479,1.84-0.479c0.871,0,1.561,0.26,2.066,0.779
	s0.76,1.214,0.76,2.085c0,0.209-0.021,0.46-0.063,0.753L8.653,181.79L8.653,181.79z"/>
<path fill="#1D1D1B" d="M192.467,179.879c-0.038,0.158-0.06,0.365-0.06,0.621c0,0.335,0.074,0.566,0.222,0.695
	c0.148,0.127,0.38,0.182,0.695,0.162c0.591,0,1.33-0.207,2.217-0.621l0.563,3.902c-0.611,0.313-1.307,0.557-2.084,0.723
	c-0.778,0.168-1.542,0.252-2.291,0.252c-1.438,0-2.581-0.369-3.43-1.107c-0.847-0.738-1.271-1.75-1.271-3.029
	c0-0.414,0.039-0.809,0.118-1.184l1.33-6.65h-2.188l0.68-3.486h2.218l0.887-4.436h5.232l-0.888,4.436h4.139l-0.681,3.486h-4.168
	L192.467,179.879z M173.639,181.536c0.729,0,1.408-0.207,2.039-0.621s1.129-0.976,1.492-1.685c0.364-0.711,0.547-1.487,0.547-2.336
	c0-1.006-0.271-1.809-0.813-2.408s-1.266-0.901-2.172-0.901c-0.729,0-1.404,0.211-2.024,0.636c-0.621,0.424-1.113,0.989-1.479,1.699
	s-0.547,1.479-0.547,2.307c0,1.004,0.271,1.808,0.813,2.407C172.038,181.234,172.752,181.536,173.639,181.536z M171.6,185.584
	c-1.202,0-2.276-0.295-3.224-0.887c-0.944-0.592-1.68-1.418-2.202-2.482c-0.521-1.064-0.781-2.285-0.781-3.666
	c0-1.732,0.369-3.311,1.107-4.729c0.738-1.42,1.753-2.543,3.044-3.369c1.291-0.828,2.715-1.242,4.271-1.242
	c2.403,0,4.059,0.945,4.965,2.838l0.532-2.66h5.231l-3.163,15.99h-5.262l0.385-1.891C175.106,184.885,173.471,185.584,171.6,185.584
	z M158.121,169.18c1.675,0,3.005,0.479,3.99,1.434c0.985,0.955,1.478,2.213,1.478,3.77c0,0.571-0.049,1.084-0.146,1.537
	l-1.893,9.458h-5.262l1.744-8.688c0.059-0.275,0.089-0.533,0.089-0.77c0-0.71-0.207-1.268-0.621-1.67
	c-0.414-0.404-0.984-0.605-1.714-0.605c-0.887,0-1.681,0.336-2.38,1.006s-1.157,1.537-1.374,2.601l-1.626,8.128h-5.261l3.162-15.99
	h5.262l-0.414,2.129C154.437,169.958,156.091,169.18,158.121,169.18z M133.352,181.536c0.729,0,1.409-0.207,2.039-0.621
	c0.631-0.414,1.129-0.976,1.492-1.685c0.364-0.711,0.548-1.487,0.548-2.336c0-1.006-0.271-1.809-0.813-2.408
	c-0.542-0.602-1.267-0.901-2.173-0.901c-0.729,0-1.404,0.211-2.024,0.636c-0.621,0.424-1.112,0.989-1.479,1.699
	c-0.364,0.71-0.547,1.479-0.547,2.307c0,1.004,0.271,1.808,0.813,2.407C131.751,181.234,132.465,181.536,133.352,181.536z
	 M131.313,185.584c-1.202,0-2.276-0.295-3.223-0.887c-0.945-0.592-1.681-1.418-2.201-2.482c-0.522-1.064-0.783-2.285-0.783-3.666
	c0-1.732,0.369-3.311,1.107-4.729c0.738-1.42,1.753-2.543,3.044-3.369c1.291-0.828,2.716-1.242,4.271-1.242
	c2.403,0,4.059,0.945,4.966,2.838l0.531-2.66h5.231l-3.162,15.99h-5.263l0.385-1.891
	C134.819,184.885,133.185,185.584,131.313,185.584z M116.444,185.584c-1.537,0-3.021-0.271-4.448-0.813
	c-1.428-0.543-2.636-1.285-3.62-2.231l2.188-3.134c0.828,0.748,1.744,1.35,2.749,1.803s1.94,0.682,2.808,0.682
	c0.552,0,0.98-0.104,1.286-0.312s0.458-0.497,0.458-0.872c0-0.314-0.188-0.586-0.563-0.813c-0.373-0.228-0.966-0.498-1.772-0.813
	c-0.945-0.375-1.734-0.729-2.364-1.063c-0.631-0.336-1.173-0.804-1.626-1.404c-0.453-0.602-0.68-1.336-0.68-2.201
	c0-1.025,0.266-1.932,0.798-2.721c0.532-0.787,1.276-1.398,2.231-1.832c0.956-0.435,2.055-0.65,3.296-0.65
	c1.319,0,2.636,0.232,3.945,0.695c1.311,0.463,2.487,1.098,3.531,1.906l-2.305,3.133c-0.906-0.631-1.81-1.133-2.705-1.508
	c-0.896-0.375-1.66-0.562-2.29-0.562c-0.435,0-0.799,0.104-1.094,0.31c-0.296,0.207-0.443,0.469-0.443,0.783
	s0.191,0.592,0.576,0.827c0.385,0.237,0.979,0.515,1.788,0.828c0.966,0.396,1.769,0.765,2.409,1.108s1.191,0.816,1.654,1.418
	c0.463,0.603,0.694,1.347,0.694,2.231c0,1.024-0.275,1.931-0.827,2.72s-1.32,1.398-2.306,1.832
	C118.827,185.365,117.706,185.584,116.444,185.584z M107.312,162.027c0.709,0,1.271,0.211,1.685,0.636
	c0.414,0.424,0.621,0.979,0.621,1.67c0,0.926-0.33,1.709-0.99,2.351c-0.66,0.641-1.463,0.961-2.408,0.961
	c-0.689,0-1.241-0.211-1.655-0.635c-0.414-0.425-0.621-0.98-0.621-1.671c0-0.927,0.33-1.71,0.99-2.351
	C105.592,162.348,106.385,162.027,107.312,162.027z M108.493,169.387l-3.162,15.99h-5.262l3.192-15.99H108.493z M94.07,179.879
	c-0.04,0.158-0.061,0.365-0.061,0.621c0,0.335,0.074,0.566,0.223,0.695c0.146,0.127,0.379,0.182,0.693,0.162
	c0.592,0,1.33-0.207,2.218-0.621l0.562,3.902c-0.61,0.313-1.305,0.557-2.083,0.723c-0.779,0.168-1.542,0.252-2.291,0.252
	c-1.438,0-2.581-0.369-3.429-1.107c-0.847-0.738-1.271-1.75-1.271-3.029c0-0.414,0.04-0.809,0.118-1.184l1.33-6.65h-2.187
	l0.68-3.486h2.217l0.887-4.436h5.232l-0.887,4.436h4.138l-0.68,3.486h-4.167L94.07,179.879z M82.069,171.87
	c1.438-1.793,3.281-2.688,5.527-2.688l-0.621,4.817c-0.178-0.021-0.434-0.03-0.769-0.03c-1.301,0-2.438,0.346-3.414,1.034
	c-0.976,0.69-1.601,1.577-1.877,2.66l-1.537,7.715h-5.261l3.192-15.989h5.261L82.069,171.87z M58.985,177.575h5.793l-1.626-7.509
	L58.985,177.575z M66.463,185.377l-0.798-3.664H56.68l-2.04,3.664h-5.527l12.326-20.719h5.557l5.261,20.719H66.463z"/>
<g>
	<path fill="#1D1D1B" d="M129.293,210.204h-1.439v11.616h1.439c0.813,0,1.303-0.418,1.303-1.58v-8.456
		C130.595,210.622,130.107,210.204,129.293,210.204z"/>
	<path fill="#1D1D1B" d="M87.797,210.203h-1.23v0.001v4.995h0.999c0.953,0,1.533-0.418,1.533-1.721v-1.603
		C89.098,210.715,88.703,210.203,87.797,210.203z"/>
	<polygon fill="#1D1D1B" points="108.36,218.986 110.823,218.986 109.591,210.762 	"/>
	<path fill="#1D1D1B" d="M78.48,210.018c-0.813,0-1.324,0.441-1.324,1.604v8.78c0,1.162,0.511,1.604,1.324,1.604
		c0.813,0,1.325-0.44,1.325-1.604v-8.78C79.805,210.46,79.294,210.018,78.48,210.018z"/>
	<path fill="#1D1D1B" d="M153.435,200.813H57.591c-3.208,0-5.809,2.602-5.809,5.81v18.78c0,3.207,2.601,5.81,5.809,5.81h95.845
		c3.208,0,5.809-2.603,5.809-5.81v-18.78C159.244,203.414,156.643,200.813,153.435,200.813z M72.974,224.145h-2.626l-3.184-11.781
		v11.781h-2.3V207.88h3.206l2.626,9.735v-9.735h2.277V224.145z M82.36,220.24c0,2.604-1.371,4.09-3.88,4.09s-3.88-1.486-3.88-4.09
		v-8.456c0-2.603,1.371-4.091,3.88-4.091s3.88,1.488,3.88,4.091V220.24z M89.354,224.145c-0.141-0.42-0.232-0.674-0.232-1.998
		v-2.557c0-1.51-0.511-2.068-1.673-2.068h-0.883v6.623H84.01V207.88h3.856c2.649,0,3.787,1.231,3.787,3.741v1.277
		c0,1.672-0.534,2.765-1.673,3.299c1.277,0.535,1.695,1.766,1.695,3.462v2.509c0,0.791,0.023,1.371,0.279,1.977H89.354z
		 M104.061,224.145h-2.416V212.48l-1.767,11.664h-2.416l-1.904-11.502v11.502h-2.231V207.88h3.555l1.883,11.548l1.741-11.548h3.556
		V224.145z M111.613,224.145l-0.442-2.951h-3.136l-0.441,2.951h-2.347l2.603-16.265h3.74l2.602,16.265H111.613z M123.461,224.145
		h-2.625l-3.182-11.781v11.781h-2.301V207.88h3.206l2.626,9.735v-9.735h2.275V224.145z M133.151,220.125
		c0,2.604-1.255,4.02-3.812,4.02h-4.043V207.88h4.043c2.557,0,3.812,1.417,3.812,4.021V220.125z M137.333,224.145h-2.556V207.88
		h2.556V224.145z M146.162,210.204h-4.415v4.53h3.508v2.322h-3.508v4.764h4.415v2.324h-6.971V207.88h6.971V210.204z"/>
</g>
</svg>
