<?xml version="1.0" encoding="utf-8"?>
<!-- Generator: Adobe Illustrator 15.1.0, SVG Export Plug-In . SVG Version: 6.00 Build 0)  -->
<!DOCTYPE svg PUBLIC "-//W3C//DTD SVG 1.1//EN" "http://www.w3.org/Graphics/SVG/1.1/DTD/svg11.dtd">
<svg version="1.1" id="Calque_1" xmlns="http://www.w3.org/2000/svg" xmlns:xlink="http://www.w3.org/1999/xlink" x="0px" y="0px"
	 width="282.204px" height="235.592px" viewBox="0 0 282.204 235.592" enable-background="new 0 0 282.204 235.592"
	 xml:space="preserve">
<g>
	<path d="M62.289,181.703c-0.005-1.706-0.613-5.667-6.147-5.667h-0.03l-6.785,0.019l0.045,17.479l1.459-0.004l-0.015-5.828
		l4.703-0.012c0.468-0.001,0.94-0.021,1.377-0.062l4.346,5.876l1.816-0.005L58.42,187.3
		C60.961,186.529,62.296,184.602,62.289,181.703 M50.812,186.316l-0.023-8.854l5.279-0.015h0.024c1.622,0,2.85,0.435,3.65,1.291
		c0.677,0.726,1.037,1.761,1.041,2.993c0.009,3.769-2.872,4.566-5.292,4.573L50.812,186.316z"/>
	<polygon points="69.271,192.073 69.255,185.687 78.009,185.666 78.005,184.279 69.251,184.301 69.233,177.413 79.475,177.386 
		79.471,175.976 67.771,176.006 67.816,193.487 80.02,193.456 80.016,192.044 	"/>
	<polygon points="78.854,171.12 77.026,170.959 72.742,175.293 74.379,175.289 	"/>
	<path d="M92.859,185.007l0.003,1.387l6.836-0.018l0.01,3.77c-1.709,1.261-3.82,1.93-6.114,1.936h-0.02
		c-4.237,0-7.69-3.302-7.7-7.37c-0.005-1.961,0.792-3.811,2.246-5.208c1.455-1.398,3.385-2.172,5.436-2.177h0.028
		c2.297,0,4.375,0.742,5.853,2.092l0.21,0.192l0.984-1.069l-0.211-0.192c-1.763-1.624-4.125-2.481-6.833-2.481h-0.035
		c-2.441,0.007-4.74,0.931-6.475,2.603c-1.738,1.677-2.692,3.895-2.686,6.245c0.013,4.858,4.129,8.801,9.182,8.801h0.025
		c2.78-0.008,5.501-0.938,7.466-2.555l0.104-0.086l-0.015-5.889L92.859,185.007z"/>
	<rect x="98.902" y="183.914" transform="matrix(-0.0026 -1 1 -0.0026 -76.7233 292.7598)" width="17.481" height="1.459"/>
	<path d="M123.08,175.792h-0.026c-2.45,0.006-4.753,0.931-6.484,2.604c-1.732,1.673-2.683,3.89-2.677,6.245
		c0.013,4.856,4.129,8.8,9.182,8.8h0.025c5.051-0.013,9.15-3.983,9.137-8.848c-0.006-2.355-0.964-4.568-2.697-6.231
		C127.813,176.704,125.519,175.792,123.08,175.792 M123.079,177.226c4.223,0,7.665,3.302,7.675,7.37
		c0.011,4.061-3.425,7.375-7.658,7.385h-0.021c-4.237,0-7.689-3.291-7.699-7.345c-0.005-1.964,0.792-3.817,2.246-5.222
		c1.456-1.405,3.387-2.184,5.436-2.188H123.079z"/>
	<polygon points="152.168,175.788 150.71,175.792 150.749,190.48 138.756,175.823 137.735,175.825 137.78,193.305 139.238,193.302 
		139.201,178.612 151.131,193.167 151.217,193.271 152.213,193.268 	"/>
	<polygon points="26.56,201.893 26.617,223.922 8.631,201.939 5.555,201.947 5.633,232.175 9.925,232.164 9.867,210.129 
		27.893,232.118 30.93,232.11 30.851,201.882 	"/>
	<path d="M53.694,201.707h-0.043c-4.217,0.01-8.182,1.603-11.164,4.484c-2.995,2.893-4.639,6.73-4.628,10.807
		c0.021,8.395,7.118,15.208,15.828,15.208h0.043c4.216-0.01,8.175-1.604,11.148-4.486c2.981-2.89,4.617-6.727,4.606-10.804
		C69.463,208.52,62.384,201.707,53.694,201.707 M53.687,227.915c-3.058,0-5.94-1.14-8.119-3.213
		c-2.171-2.067-3.372-4.807-3.379-7.716c-0.016-6.064,5.131-11.011,11.473-11.027h0.031c6.307,0,11.445,4.914,11.461,10.968
		c0.008,2.917-1.167,5.664-3.309,7.736c-2.159,2.089-5.045,3.244-8.126,3.252H53.687z"/>
	<path d="M99.367,211.869c-0.007-2.849-0.873-5.281-2.504-7.035c-1.913-2.058-4.743-3.101-8.412-3.101h-0.05l-11.95,0.03
		l0.079,30.229l4.291-0.012l-0.024-9.435l6.648-0.017c0.594-0.002,1.193-0.022,1.769-0.062l7.008,9.474l5.349-0.015l-7.884-10.539
		C97.381,219.777,99.379,216.463,99.367,211.869 M80.786,218.371l-0.032-12.404l7.58-0.02h0.037c2.347,0,4.098,0.6,5.202,1.782
		c1.172,1.256,1.422,2.971,1.425,4.188c0.006,2.231-0.636,3.831-1.962,4.893c-1.273,1.018-3.17,1.537-5.64,1.543L80.786,218.371z"/>
	<polygon points="132.523,201.619 121.063,220.454 109.507,201.678 106.308,201.686 106.387,231.915 110.678,231.903 
		110.625,211.523 121.087,228.572 131.417,211.483 131.469,231.849 135.76,231.838 135.682,201.61 	"/>
	<path d="M154.221,201.563l-13.556,30.263l4.692-0.012l3.475-7.931l13.791-0.036l3.554,7.912l4.647-0.013l-13.671-30.192
		L154.221,201.563z M150.625,219.782l5.048-11.527l5.162,11.501L150.625,219.782z"/>
	<polygon points="196.658,201.453 196.715,223.481 178.729,201.499 175.653,201.506 175.731,231.734 180.023,231.723 
		179.965,209.688 197.991,231.677 201.028,231.669 200.949,201.441 	"/>
	<path d="M219.247,201.394h-0.04l-9.853,0.025l0.078,30.228l10.746-0.027l0.093-0.003c7.975-0.538,14.207-7.184,14.186-15.128
		C234.436,208.157,227.616,201.394,219.247,201.394 M213.712,227.422l-0.056-21.8l5.562-0.015h0.028
		c2.896,0,5.619,1.126,7.671,3.172c2.063,2.056,3.202,4.797,3.209,7.72c0.015,5.592-4.434,10.372-10.139,10.907L213.712,227.422z"/>
	<rect x="228.496" y="214.299" transform="matrix(-0.0026 -1 1 -0.0026 27.7949 460.6128)" width="30.228" height="4.292"/>
	<polygon points="275.913,227.261 258.517,227.306 258.497,218.901 272.667,218.865 272.658,214.69 258.486,214.726 
		258.461,205.506 275.041,205.463 275.03,201.25 254.159,201.303 254.238,231.532 275.923,231.475 	"/>
	<g>
		<path d="M128.116,109.949c0.069-0.315,0.264-0.574,0.553-0.802c-0.148,0.036-1.647,0.221-1.79,0.991
			c-0.201,1.083,0.334,2.673,2.101,3.765c-2.181-0.448-3.02,0.516-3.465,1.266c-0.511,0.864-0.42,2.901,0.441,3.863
			c-2.711-0.257-4.957,0.926-5.121,2.499c-0.041,0.399,0.286,0.901,0.546,1.348c0.001-0.094,0.001-0.187,0.014-0.277
			c0.258-1.779,3.585-2.764,6.675-2.478c-1.016-1.538-1.911-3.473-1.174-4.312c0.768-0.874,2.241-1.19,4.691-0.888
			C129.398,113.318,127.85,111.171,128.116,109.949z"/>
		<path d="M121.492,39.345c0.956-0.092,1.408-0.178,2.218-0.93c0.551-0.511,0.662-0.715,0.775-1.017
			c0.023-0.062-1.824-0.455-3.297-0.313c-1.473,0.141-2.081,0.498-2.073,0.598C119.187,38.535,120.019,39.485,121.492,39.345z"/>
		<path d="M114.958,103.849c-0.021,0.084,0.02,0.171,0.098,0.21l2.311,1.222c0.028,0.014,0.058,0.021,0.088,0.021
			c0.034,0,0.068-0.009,0.099-0.026l2.215-1.222c0.074-0.043,0.11-0.129,0.087-0.211c-0.023-0.081-0.099-0.137-0.185-0.137
			c0,0-1.604,0.212-2.24,0.212c-0.635,0-2.287-0.212-2.287-0.212C115.056,103.706,114.979,103.765,114.958,103.849z"/>
		<path d="M121.492,101.855c0.956-0.092,1.408-0.178,2.218-0.93c0.551-0.511,0.662-0.715,0.775-1.017
			c0.023-0.062-1.824-0.455-3.297-0.313c-1.473,0.141-2.081,0.498-2.073,0.598C119.187,101.045,120.019,101.997,121.492,101.855z"/>
		<path d="M225.336,5.477c-54.189,5.419-108.38,10.838-162.569,16.257c-24.962,42.194-30.162,90.227-16.079,131.008
			c64.909,6.491,129.817,12.982,194.727,19.474C211.129,118.708,205.93,57.574,225.336,5.477z M160.313,137.904
			c-0.013,0.007-0.029,0.014-0.047,0.021c-1.739-0.703-3.28-0.753-3.953-0.027c-0.569,0.614-0.419,1.689,0.272,2.89
			c-0.147-0.092-0.278-0.171-0.385-0.239c-1.402-0.892-3.94,0.362-5.918,2.78c-0.479,0.587-0.72,1.193-0.781,1.807
			c-0.324,1.015-0.545,1.469-2.466,2.021c-2.06,0.594-7.241,0.145-7.241,0.145s0.35-4.294,2.006-4.855
			c-0.156-0.027-0.299-0.048-0.426-0.058c-1.913-0.148-3.684,3.771-3.684,4.85c-0.327,0.041-1.284,0.078-1.928,0.034
			c-0.1-0.65,0.272-2.831,1.096-4.425c-1.782,1.434-2.632,3.535-2.716,4.413c-1.244,0.019-1.605-0.135-1.605-0.135
			s-0.069-1.404,0.401-2.329c0.759-1.496,1.871-2.788,3.088-2.703c0.237,0.017,0.755,0.063,1.197,0.135
			c0.498-0.729,1.119-1.219,1.861-1.162c0.958,0.074,1.4,0.262,2.169,0.439c1.004,0.017,1.603-0.955,2.612-1.893
			c0.569-0.526,2.388-1.808,3.805-3.146c1.079-1.212,0.219-2.145-1.651-4.571c-2.008-2.606-2.537-5.166-1.004-7.953
			c0.729-1.328,3.932-1.901,6.915-2.545c1.38-0.21,2.043-0.211,2.345-0.138c1.014,0.246,2.836,1.478,4.635,4.144
			c0.333,0.491,0.313,0.496,0.594,0.961c-2.344,0.566-4.193,1.664-4.193,2.688c0,1.094,2.348,2.334,5.035,2.89
			c0.32,0.095,0.625,0.18,0.907,0.254c-2.183,0.106-3.854,0.904-4.121,2.145C156.852,135.634,158.185,137.033,160.313,137.904z
			 M168.709,115.462c0,0,1.104,0.186,3.012,2.048c1.908,1.862,3.514,4.934,7.329,5.957c1.301,0.351,2.881,0.512,4.4,0.578
			c0.223-0.015,0.478-0.028,0.806-0.035c2.529-0.057,6.33-1.966,6.33-1.966s-0.021,0.041-0.052,0.11
			c-0.962,1.074-1.338,2.213-0.878,3.091c0.589,1.123,2.387,1.509,4.492,1.127c-0.071,0.035-0.141,0.071-0.209,0.108
			c-1.241,0.407-2.05,1.047-2.097,1.769c-0.065,1.008,1.37,1.953,3.465,2.433c-0.082,0.004-0.16,0.01-0.229,0.013
			c-1.698,0.076-2.902,2.498-2.899,5.531c0.002,1.989,0.05,3.732,0.186,5.149c-0.019,0.413-0.059,0.842-0.148,1.302
			c-0.218,1.125-0.934,4.447-3.099,5.04s-8.486,0.138-8.486,0.138s0.394-4.446,2.255-5.027c-0.175-0.029-0.337-0.05-0.48-0.061
			c-2.148-0.153-4.11,3.811-4.136,5.023c-0.368,0.042-1.443,0.08-2.167,0.035c-0.112-0.676,0.31-2.947,1.241-4.601
			c-1.858,1.486-2.744,3.676-2.831,4.588c-1.286,0.02-1.659-0.14-1.659-0.14s-0.072-1.454,0.415-2.412
			c0.785-1.549,1.934-2.888,3.193-2.799c0.252,0.017,0.813,0.069,1.277,0.146c0.561-0.761,1.26-1.271,2.097-1.21
			c1.074,0.076,1.572,0.27,2.435,0.453c1.129,0.019,1.901-1.134,2.39-2.091c1.016-1.989-0.024-5.647-2.368-6.978
			c-0.061-0.034-0.148-0.054-0.221-0.082c-0.68-0.094-9.438-0.79-12.259-1.694c-2.658-0.851-4.816-1.877-6.576-2.979
			c-2.017-1.387-1.618-0.883-2.193-1.889c-0.221-0.385-2.141-3.321-4.133-4.985c-0.004-0.004-0.01-0.009-0.014-0.013
			c-0.662-0.491-1.314-0.841-1.929-1.021c-0.061-0.019-0.123-0.046-0.184-0.062c-1.022-0.251-3.558,0.013-8.089,1.064
			c-2.211,0.387-7.257,1.918-8.413,2.504c-6.426,3.258-7.138,6.462-10.15,8.417c-0.6,0.39-2.061,0.474-3.656,0.538
			c-0.325-0.002-0.659,0.012-0.998,0.047c-2.704,0.28-4.822,1.71-4.865,3.248c-0.674-1.732-1.874-2.875-3.163-2.797
			c-1.833,0.111-3.147,2.647-2.934,5.666c0.005,0.07,0.014,0.138,0.021,0.207c-0.357-2.195-1.518-3.81-2.851-3.777
			c-1.558,0.038-2.759,2.308-2.681,5.069c0.001,0.038,0.004,0.073,0.006,0.109c-0.32-1.729-1.165-2.963-2.209-3.002
			c-1.375-0.05-2.58,1.989-2.741,4.587c-0.273-1.313-0.916-2.232-1.774-2.335c-1.187-0.14-2.396,1.33-2.935,3.423
			c-0.179-0.578-0.501-0.997-0.967-1.163c-0.869-0.309-2.391,0.23-3.606,1.363c-0.762,0.582-1.129,1.141-1.5,1.808
			c-0.683,1.229-0.505,1.788-2.702,2.429c-2.196,0.642-7.727,0.167-7.727,0.167s0.362-4.624,2.127-5.229
			c-0.166-0.03-0.319-0.053-0.455-0.063c-2.041-0.157-3.91,3.786-3.915,5.228c-0.349,0.044-1.37,0.086-2.058,0.039
			c-0.111-0.721,0.306-3.19,1.237-4.919c-1.921,1.548-3.092,3.932-3.175,4.909c-1.22,0.022-1.575-0.143-1.575-0.143
			s-0.072-1.511,0.387-2.508c0.742-1.612,1.83-3.006,3.025-2.915c0.259,0.02,1.09,0.08,1.629,0.169c0.532-0.802,1.199-1.341,2-1.28
			c1.022,0.078,1.495,0.278,2.314,0.469c0.944,0.016,2.305-0.999,3.329-1.438c0.333-0.144,4.69-3.749,8.874-7.015
			c0.858-0.791,5.804-4.815,6.549-5.543c2.86-2.787,4.775-5.509,5.38-7.223c-1.111,1.365-3.428,3.125-5.971,4.76
			c-1.347-0.686-3.684-0.473-5.941,0.694c-0.053,0.028-0.102,0.057-0.154,0.084l-0.001-0.001c1.961-1.239,3.018-2.888,2.418-3.984
			c-0.705-1.289-3.431-1.32-6.089-0.069c-0.036,0.016-0.069,0.034-0.104,0.052c1.549-1.011,2.387-2.247,1.976-3.138
			c-0.54-1.173-3.044-1.307-5.644-0.327c1.163-0.793,1.783-1.725,1.513-2.488c-0.372-1.053-2.319-1.434-4.585-0.99
			c0.483-0.398,0.749-0.848,0.71-1.308c-0.04-0.476-0.42-1.009-1.026-1.481c-0.628-0.533-1.141-0.951-1.331-1.119
			c-1.881-1.65-3.889-1.211-5.29-2.579c-0.56-0.547-0.951-1.261-1.232-1.927c-0.195-1.047,0.389-1.995,0.389-1.995l-0.99,0.893
			c-0.076-0.069-0.146-0.145-0.225-0.206c-0.629-0.481-2.559-0.436-2.559-0.436s2.616-1.903,4.203-0.884
			c0.047,0.031,0.085,0.064,0.13,0.095c1.205-0.688,3.006-1.456,4.626-1.115c-1.643-1.683-7.658,0.066-7.658,0.066l-0.424-0.443
			c0,0-0.072-0.1-0.188-0.246c-0.141-1.006,0.437-1.873,0.437-1.873l-1.238,1.014c-0.069-0.06-0.138-0.119-0.21-0.174
			c-0.627-0.481-2.558-0.435-2.558-0.435s2.616-1.904,4.203-0.884c0.077,0.049,0.141,0.102,0.211,0.153
			c0.766-0.466,1.733-0.965,2.759-1.287c-2.168-0.666-5.141,0.255-5.82,0.427c-0.135-0.191-0.246-0.354-0.347-0.505
			c-0.123-0.995,0.866-1.592,0.866-1.592l-1.561,0.57c-0.377-0.541-2.176-0.302-2.176-0.302s2.412-2.009,3.75-1.029
			c0.247,0.182,0.446,0.383,0.608,0.58c2.015-0.432,4.799-0.782,5.645,0.334c0.149,0.196,0.531,0.719,0.844,1.192
			c1.105-0.034,2.176,0.275,3.03,1.222c0.361,0.4,0.711,1.041,1.053,1.802c1.045,1.648,4.158,4.389,5.596,5.609
			c0.91,0.771,6.474,3.513,6.474,3.513s7.562,3.099,12.087,2.822c0.801-0.916,1.437-1.538,1.27-2.25
			c-0.379-1.619-3.606-1.898-3.606-1.898s3.147-1.092,3.497-3.001c0.276-1.502-3.293-2.324-3.293-2.324
			c0.007,0.001,3.155-0.782,3.298-2.494c0.129-1.527,0.366-2.88,0.835-3.968c-0.145-0.191-0.294-0.419-0.45-0.71
			c-1.062-1.972-0.003-3.963,0.26-4.098c0.235-0.121,2.347-0.046,3.557,1.366c2.087-1.079,4.377-1.249,5.271-1.267l0.002-0.003
			c0.016,0,0.04,0.001,0.058,0.001c0.017,0,0.041-0.001,0.058-0.001l0.002,0.003c0.861,0.017,3.016,0.173,5.04,1.153
			c1.222-1.306,3.234-1.369,3.462-1.252c0.264,0.135,1.322,2.126,0.26,4.098c-0.078,0.147-0.152,0.248-0.227,0.369
			c0.464,1.084,0.777,2.626,0.937,4.204c0.194,1.914,3.387,2.554,3.387,2.554s-3.404,0.634-3.356,2.168
			c0.055,1.782,6.72,3.04,9.214,3.422c2.493,0.381,3.741,0.349,7.482,0.249c3.74-0.1,8.985-0.675,15.095,0.044
			c12.65,1.49,14.509,2.701,23.273,3.075c8.526,0.363,11.271-4.366,10.447-7.488c-1.581-5.992-11.18-9.256-21.63-6.235
			c-10.451,3.021-16.725,6.258-24.073,7.042c-6.196,0.661-11.983-0.57-12.881-5.629c-0.436-2.462,1.442-4.329,3.912-5.538
			c-0.333-0.688-1.949-0.366-1.949-0.366s1.588-1.992,3.936-0.689c0.228,0.093,0.47,0.085,0.66,0.085
			c0.259-0.019,0.534-0.042,0.641-0.2c0.496-1.058-1.769-1.796-1.769-1.796s2.988-1.019,4.893,1.659
			c0.431,0.534,1,0.523,1.463,0.368c0.869-0.291,0.946-1.951-0.954-3.783c3.501,0.407,3.655,2.308,5.341,3.26
			c0.122,0.068,0.344,0.129,0.55,0.142c5.06-0.181,8.465-1.686,8.882-2.088c-0.386,0.794-3.754,6.911-16.021,7.016
			c-6.306,0.055-4.853,2.828-3.89,3.293c0.964,0.464,3.701,1.29,6.764,0.657c10.292-2.126,17.726-5.524,23.588-7.011
			c9.807-2.488,21.303-0.745,25.692,6.754c4.429,7.565-3.021,14.851-13.902,14.198c-6.731-0.405-8.572-0.748-10.881-0.934
			C168.565,115.204,168.709,115.462,168.709,115.462z M146.02,69.383c-2.008-2.607-2.537-5.166-1.004-7.953
			c0.729-1.328,3.932-1.902,6.915-2.545c1.38-0.21,2.043-0.211,2.345-0.138c1.014,0.246,2.836,1.478,4.635,4.144
			c0.333,0.491,0.313,0.496,0.594,0.961c-2.344,0.566-4.193,1.664-4.193,2.688c0,1.094,2.348,2.334,5.035,2.89
			c0.32,0.094,0.625,0.179,0.907,0.254c-2.183,0.106-3.854,0.904-4.121,2.144c-0.28,1.295,1.053,2.693,3.181,3.565
			c-0.013,0.006-0.029,0.013-0.047,0.02c-1.739-0.703-3.28-0.753-3.953-0.027c-0.569,0.614-0.419,1.689,0.272,2.889
			c-0.147-0.091-0.278-0.171-0.385-0.239c-1.402-0.891-3.94,0.362-5.918,2.78c-0.479,0.587-0.72,1.194-0.781,1.807
			c-0.324,1.015-0.545,1.469-2.466,2.022c-2.06,0.593-7.241,0.144-7.241,0.144s0.35-4.294,2.006-4.855
			c-0.156-0.028-0.299-0.048-0.426-0.058c-1.913-0.148-3.684,3.77-3.684,4.85c-0.327,0.041-1.284,0.078-1.928,0.034
			c-0.1-0.651,0.272-2.831,1.096-4.425c-1.782,1.434-2.632,3.535-2.716,4.413c-1.244,0.019-1.605-0.135-1.605-0.135
			s-0.069-1.404,0.401-2.329c0.759-1.496,1.871-2.788,3.088-2.703c0.237,0.017,0.755,0.064,1.197,0.135
			c0.498-0.73,1.119-1.219,1.861-1.162c0.958,0.074,1.4,0.261,2.169,0.439c1.004,0.017,1.603-0.955,2.612-1.892
			c0.569-0.527,2.388-1.808,3.805-3.147C148.75,72.742,147.89,71.81,146.02,69.383z M181.755,53.813
			c-6.731-0.405-8.572-0.748-10.881-0.934c-2.31-0.187-2.165,0.072-2.165,0.072s1.104,0.186,3.012,2.048
			c1.908,1.862,3.514,4.933,7.329,5.957c1.301,0.35,2.881,0.512,4.4,0.578c0.223-0.015,0.478-0.028,0.806-0.035
			c2.529-0.057,6.33-1.966,6.33-1.966s-0.021,0.041-0.052,0.11c-0.962,1.075-1.338,2.213-0.878,3.091
			c0.589,1.123,2.387,1.509,4.492,1.127c-0.071,0.035-0.141,0.071-0.209,0.109c-1.241,0.408-2.05,1.046-2.097,1.768
			c-0.065,1.008,1.37,1.953,3.465,2.433c-0.082,0.004-0.16,0.009-0.229,0.012c-1.698,0.077-2.902,2.498-2.899,5.532
			c0.002,1.989,0.05,3.732,0.186,5.149c-0.019,0.413-0.059,0.842-0.148,1.302c-0.218,1.125-0.934,4.447-3.099,5.04
			s-8.486,0.138-8.486,0.138s0.394-4.447,2.255-5.028c-0.175-0.029-0.337-0.05-0.48-0.06c-2.148-0.154-4.11,3.81-4.136,5.023
			c-0.368,0.042-1.443,0.08-2.167,0.035c-0.112-0.676,0.31-2.947,1.241-4.6c-1.858,1.486-2.744,3.675-2.831,4.588
			c-1.286,0.019-1.659-0.14-1.659-0.14s-0.072-1.454,0.415-2.412c0.785-1.549,1.934-2.888,3.193-2.799
			c0.252,0.017,0.813,0.069,1.277,0.146c0.561-0.76,1.26-1.27,2.097-1.21c1.074,0.077,1.572,0.27,2.435,0.454
			c1.129,0.018,1.901-1.134,2.39-2.091c1.016-1.989-0.024-5.648-2.368-6.978c-0.061-0.034-0.148-0.053-0.221-0.082
			c-0.68-0.094-9.438-0.79-12.259-1.694c-2.658-0.851-4.816-1.877-6.576-2.98c-2.017-1.386-1.618-0.882-2.193-1.888
			c-0.221-0.385-2.141-3.322-4.133-4.986c-0.004-0.004-0.01-0.008-0.014-0.011c-0.662-0.493-1.314-0.842-1.929-1.023
			c-0.061-0.018-0.123-0.046-0.184-0.061c-1.022-0.251-3.558,0.012-8.089,1.064c-2.211,0.387-7.257,1.918-8.413,2.504
			c-6.426,3.258-7.138,6.462-10.15,8.417c-0.6,0.39-2.061,0.474-3.656,0.538c-0.325-0.002-0.659,0.012-0.998,0.047
			c-2.704,0.28-4.822,1.71-4.865,3.248c-0.674-1.732-1.874-2.875-3.163-2.797c-1.833,0.111-3.147,2.648-2.934,5.666
			c0.005,0.07,0.014,0.138,0.021,0.207c-0.357-2.195-1.518-3.809-2.851-3.777c-1.558,0.038-2.759,2.307-2.681,5.069
			c0.001,0.038,0.004,0.073,0.006,0.11c-0.32-1.73-1.165-2.963-2.209-3.002c-1.375-0.05-2.58,1.989-2.741,4.587
			c-0.273-1.314-0.916-2.233-1.774-2.335c-1.187-0.14-2.396,1.33-2.935,3.422c-0.179-0.578-0.501-0.997-0.967-1.163
			c-0.869-0.308-2.391,0.231-3.606,1.364c-0.762,0.582-1.129,1.14-1.5,1.807c-0.683,1.23-0.505,1.788-2.702,2.429
			c-2.196,0.642-7.727,0.167-7.727,0.167s0.362-4.624,2.127-5.23c-0.166-0.03-0.319-0.052-0.455-0.062
			c-2.041-0.157-3.91,3.786-3.915,5.227c-0.349,0.044-1.37,0.086-2.058,0.04c-0.111-0.721,0.306-3.191,1.237-4.918
			c-1.921,1.546-3.092,3.93-3.175,4.908c-1.22,0.022-1.575-0.143-1.575-0.143s-0.072-1.511,0.387-2.508
			c0.742-1.612,1.83-3.005,3.025-2.915c0.259,0.02,1.09,0.08,1.629,0.169c0.532-0.801,1.199-1.341,2-1.28
			c1.022,0.078,1.495,0.278,2.314,0.469c0.944,0.015,2.305-0.999,3.329-1.438c0.333-0.143,4.69-3.749,8.874-7.014
			c0.858-0.791,5.804-4.816,6.549-5.543c2.86-2.787,4.775-5.509,5.38-7.223c-1.111,1.365-3.428,3.125-5.971,4.76
			c-1.347-0.686-3.684-0.473-5.941,0.694c-0.053,0.028-0.102,0.057-0.154,0.084l-0.001-0.001c1.961-1.239,3.018-2.888,2.418-3.984
			c-0.705-1.289-3.431-1.321-6.089-0.07c-0.036,0.016-0.069,0.035-0.104,0.052c1.549-1.011,2.387-2.247,1.976-3.138
			c-0.54-1.173-3.044-1.307-5.644-0.327c1.163-0.793,1.783-1.725,1.513-2.488c-0.372-1.053-2.319-1.434-4.585-0.99
			c0.483-0.398,0.749-0.848,0.71-1.308c-0.04-0.476-0.42-1.009-1.026-1.481c-0.628-0.533-1.141-0.951-1.331-1.119
			c-1.881-1.65-3.889-1.211-5.29-2.579c-0.56-0.547-0.951-1.261-1.232-1.927c-0.195-1.047,0.389-1.995,0.389-1.995l-0.99,0.893
			c-0.076-0.069-0.146-0.145-0.225-0.206c-0.629-0.481-2.559-0.436-2.559-0.436s2.616-1.903,4.203-0.884
			c0.047,0.031,0.085,0.064,0.13,0.095c1.205-0.688,3.006-1.456,4.626-1.115c-1.643-1.683-7.658,0.066-7.658,0.066l-0.424-0.443
			c0,0-0.072-0.1-0.188-0.246c-0.141-1.006,0.437-1.873,0.437-1.873l-1.238,1.014c-0.069-0.06-0.138-0.119-0.21-0.174
			c-0.627-0.481-2.558-0.435-2.558-0.435s2.616-1.904,4.203-0.884c0.077,0.049,0.141,0.102,0.211,0.154
			c0.766-0.467,1.733-0.966,2.759-1.288c-2.168-0.666-5.141,0.255-5.82,0.427c-0.135-0.191-0.246-0.354-0.347-0.505
			c-0.123-0.995,0.866-1.592,0.866-1.592l-1.561,0.57c-0.377-0.541-2.176-0.302-2.176-0.302s2.412-2.009,3.75-1.029
			c0.247,0.182,0.446,0.383,0.608,0.58c2.015-0.432,4.799-0.782,5.645,0.334c0.149,0.196,0.531,0.719,0.844,1.193
			c1.105-0.035,2.176,0.274,3.03,1.221c0.361,0.4,0.711,1.041,1.053,1.802c1.045,1.648,4.158,4.389,5.596,5.609
			c0.91,0.771,6.474,3.513,6.474,3.513s7.562,3.099,12.087,2.822c0.801-0.916,1.437-1.538,1.27-2.25
			c-0.379-1.619-3.606-1.898-3.606-1.898s3.147-1.092,3.497-3.001c0.276-1.502-3.293-2.324-3.293-2.324
			c0.007,0.001,3.155-0.782,3.298-2.494c0.129-1.527,0.366-2.88,0.835-3.968c-0.145-0.191-0.294-0.419-0.45-0.71
			c-1.062-1.972-0.003-3.963,0.26-4.098c0.235-0.121,2.347-0.046,3.557,1.366c2.087-1.079,4.377-1.249,5.271-1.267l0.002-0.003
			c0.016,0,0.04,0.001,0.058,0.001c0.017,0,0.041-0.001,0.058-0.001l0.002,0.003c0.861,0.017,3.016,0.173,5.04,1.153
			c1.222-1.306,3.234-1.369,3.462-1.252c0.264,0.135,1.322,2.126,0.26,4.098c-0.078,0.147-0.152,0.248-0.227,0.369
			c0.464,1.084,0.777,2.626,0.937,4.204c0.194,1.914,3.387,2.554,3.387,2.554s-3.404,0.634-3.356,2.168
			c0.055,1.782,6.72,3.04,9.214,3.422c2.493,0.381,3.741,0.349,7.482,0.249c3.74-0.1,8.985-0.675,15.095,0.044
			c12.65,1.49,14.509,2.701,23.273,3.075c8.526,0.363,11.271-4.366,10.447-7.488c-1.581-5.992-11.18-9.256-21.63-6.235
			c-10.451,3.021-16.725,6.258-24.073,7.042c-6.196,0.661-11.983-0.57-12.881-5.629c-0.436-2.462,1.442-4.329,3.912-5.538
			c-0.333-0.688-1.949-0.366-1.949-0.366s1.588-1.992,3.936-0.689c0.228,0.093,0.47,0.085,0.66,0.085
			c0.259-0.019,0.534-0.042,0.641-0.2c0.496-1.058-1.769-1.796-1.769-1.796s2.988-1.019,4.893,1.659
			c0.431,0.534,1,0.523,1.463,0.368c0.869-0.291,0.946-1.951-0.954-3.783c3.501,0.407,3.655,2.308,5.341,3.26
			c0.122,0.068,0.344,0.129,0.55,0.142c5.06-0.181,8.465-1.686,8.882-2.088c-0.386,0.794-3.754,6.911-16.021,7.016
			c-6.306,0.055-4.853,2.828-3.89,3.293c0.964,0.464,3.701,1.29,6.764,0.657c10.292-2.126,17.726-5.524,23.588-7.011
			c9.807-2.488,21.303-0.745,25.692,6.754C200.086,47.181,192.636,54.468,181.755,53.813z"/>
		<path d="M115.687,100.193c0.008-0.1-0.601-0.457-2.074-0.598c-1.473-0.142-3.319,0.251-3.296,0.313
			c0.113,0.302,0.223,0.506,0.774,1.017c0.81,0.752,1.262,0.838,2.218,0.93C114.782,101.997,115.614,101.045,115.687,100.193z"/>
		<path d="M121.599,106.415c-1.789,1.222-4.174-0.069-4.174-0.069s-2.444,1.291-4.172,0.069c-0.315-0.223,0.129,1.539,0.673,2.529
			c0.759,1.38,1.14,3.331,3.422,3.367v0.003l0.11,0.001c2.379,0.026,2.698-1.969,3.468-3.371
			C121.47,107.954,121.918,106.196,121.599,106.415z"/>
		<path d="M128.116,47.438c0.069-0.315,0.264-0.574,0.553-0.802c-0.148,0.036-1.647,0.221-1.79,0.991
			c-0.201,1.083,0.334,2.673,2.101,3.765c-2.181-0.448-3.02,0.516-3.465,1.266c-0.511,0.864-0.42,2.901,0.441,3.863
			c-2.711-0.257-4.957,0.926-5.121,2.498c-0.041,0.4,0.286,0.902,0.546,1.348c0.001-0.094,0.001-0.187,0.014-0.277
			c0.258-1.78,3.585-2.764,6.675-2.478c-1.016-1.538-1.911-3.473-1.174-4.313c0.768-0.874,2.241-1.19,4.691-0.888
			C129.398,50.808,127.85,48.661,128.116,47.438z"/>
		<path d="M121.599,43.903c-1.789,1.222-4.174-0.069-4.174-0.069s-2.444,1.291-4.172,0.069c-0.315-0.223,0.129,1.539,0.673,2.529
			c0.759,1.38,1.14,3.331,3.422,3.367v0.003l0.11,0.001c2.379,0.026,2.698-1.969,3.468-3.371
			C121.47,45.442,121.918,43.686,121.599,43.903z"/>
		<path d="M115.687,37.683c0.008-0.1-0.601-0.457-2.074-0.598c-1.473-0.142-3.319,0.251-3.296,0.313
			c0.113,0.302,0.223,0.506,0.774,1.017c0.81,0.752,1.262,0.838,2.218,0.93C114.782,39.485,115.614,38.535,115.687,37.683z"/>
		<path d="M114.958,41.337c-0.021,0.084,0.02,0.171,0.098,0.21l2.311,1.222c0.028,0.014,0.058,0.021,0.088,0.021
			c0.034,0,0.068-0.009,0.099-0.026l2.215-1.222c0.074-0.043,0.11-0.129,0.087-0.211c-0.023-0.081-0.099-0.137-0.185-0.137
			c0,0-1.604,0.212-2.24,0.212c-0.635,0-2.287-0.212-2.287-0.212C115.056,41.194,114.979,41.253,114.958,41.337z"/>
	</g>
</g>
</svg>
