<svg id="aide" enable-background="new 0 0 24 24" viewBox="0 0 24 24" width="40" height="40"
    xmlns="http://www.w3.org/2000/svg">
    <title>aide</title>
   <path
     fill="none"
     stroke="#000000"
     stroke-width="0.5"
     stroke-linecap="round"
     stroke-linejoin="round"
     stroke-miterlimit="10"
     d="m 13.002532,2.8075712 c 1.060524,0 1.920205,0.859079 1.920205,1.916983 0,1.059781 -0.859681,1.916984 -1.920205,1.916984 -0.844665,0 -1.561691,-0.546772 -1.816029,-1.3055 0.46175,-0.58241 0.740489,-1.316753 0.740489,-2.116747 0,-0.02626 -0.0028,-0.05252 -0.0028,-0.07878 0.305956,-0.209142 0.678547,-0.33294 1.078355,-0.33294 z m 0.212105,4.321653 c -0.275924,0 -0.542463,0.03282 -0.798678,0.09004 1.106511,0.999757 1.806644,2.332454 1.806644,3.9774578 0,0.18851 -0.01126,0.374206 -0.02909,0.558026 0.402624,-0.01219 0.801493,-0.03001 1.19567,-0.0544 0.70858,-0.04408 1.274505,-0.626489 1.277321,-1.336448 v -0.01594 c 0,-1.7772418 -1.544798,-3.2187308 -3.451863,-3.2187308 z m -4.7141678,-1.16482 c 1.5560598,0 2.8183648,-1.260482 2.8183648,-2.815452 0,-1.55497 -1.262305,-2.8154522 -2.8183648,-2.8154522 -1.55606,0 -2.818364,1.2604822 -2.818364,2.8154522 0,1.55497 1.262304,2.815452 2.818364,2.815452 z m -4.501124,0.677134 c 0.843726,0 1.561691,-0.546772 1.817906,-1.3055 -0.463627,-0.58241 -0.742366,-1.316753 -0.742366,-2.116747 0,-0.02626 0.0038,-0.05252 0.0056,-0.07878 -0.308772,-0.21008 -0.681363,-0.33294 -1.081171,-0.33294 -1.060524,0 -1.919266,0.859079 -1.919266,1.916983 0,1.059781 0.858742,1.916984 1.919266,1.916984 z m 0.585634,0.577721 c -0.255276,-0.05721 -0.522754,-0.09004 -0.797739,-0.09004 -1.908004,0 -3.4537402,1.441489 -3.4537402,3.2196688 v 0.01594 c 0.00282,0.709021 0.5696794,1.292369 1.2782592,1.336448 0.393239,0.02439 0.792108,0.0422 1.19567,0.0544 -0.01971,-0.18382 -0.03003,-0.369516 -0.03003,-0.558026 9.38e-4,-1.6459418 0.702948,-2.9786388 1.807582,-3.9783958 z m 8.9891098,4.0384188 v 0.02157 c -0.0056,0.835632 -0.660716,1.52402 -1.49318,1.583105 -1.166576,0.08253 -2.3613068,0.125673 -3.5804398,0.125673 -1.218194,0 -2.413864,-0.04314 -3.579501,-0.125673 -0.833403,-0.05908 -1.487549,-0.747473 -1.492241,-1.583105 v -0.02157 c 0,-2.6119358 2.270271,-4.7286828 5.072681,-4.7286828 2.8024098,0 5.0726808,2.116747 5.0726808,4.7286828 z M 10.816728,9.0771572 c -0.03942,-0.507382 -0.320035,-0.909723 -0.772399,-1.099171 -0.1792568,-0.07597 -0.3528828,-0.111605 -0.5208768,-0.111605 -0.500229,0 -0.830587,0.316058 -1.022983,0.586162 -0.192396,-0.271041 -0.522753,-0.586162 -1.020167,-0.586162 -0.169872,0 -0.343497,0.03564 -0.521815,0.111605 -0.454242,0.189448 -0.734858,0.591789 -0.773338,1.099171 -0.07696,0.9819378 0.746121,2.1036168 2.199883,3.0011468 l 0.115437,0.0694 0.115438,-0.0694 C 10.06873,11.180774 10.892747,10.060033 10.816728,9.0771572 Z"
     id="path250"
     style="stroke:#000000;stroke-width:0.667;stroke-miterlimit:10;stroke-dasharray:none" />
</svg>