<svg id="archeo" enable-background="new 0 0 24 24" viewBox="0 0 24 24" width="40" height="40"
    xmlns="http://www.w3.org/2000/svg">
    <title>archeo</title>
<path
     fill="none"
     stroke="currentcolor"
     stroke-width="0.5"
     stroke-linecap="round"
     stroke-linejoin="round"
     stroke-miterlimit="10"
     d="M 3.7491484,1.3959476 3.7040041,1.2922654 C 3.5790512,1.0021161 3.7136779,0.66374246 4.0038912,0.53916303 L 4.3763316,0.38002294 c 0.1402698,-0.0602805 0.2966626,-0.0626911 0.4401569,-0.006425 0.1418821,0.0562614 0.2539367,0.16556995 0.3143978,0.30542037 l 0.045145,0.10368242"
     id="path1250"
     style="stroke-width:0.667;stroke-miterlimit:10;stroke-dasharray:none" />
  <path
     fill="none"
     stroke="currentcolor"
     stroke-width="0.5"
     stroke-linecap="round"
     stroke-linejoin="round"
     stroke-miterlimit="10"
     d="m 0.43265495,5.2450477 c -0.17977113,0.346411 -0.0749717,0.4991211 0.00322,0.557794 0.0257971,0.018486 0.0685221,0.042598 0.1273714,0.049832 C 0.66723938,5.8647297 0.82282601,5.8269543 1.0372614,5.630038 1.8434096,4.8825619 2.880116,4.1688428 4.0425817,3.561217 c 0.061267,0.083589 0.146719,0.150299 0.2458752,0.1888784 0.049176,0.018486 0.096738,0.031346 0.146719,0.036972 0.099157,0.012056 0.2007308,-0.00241 0.294244,-0.043402 l 0.026603,-0.011252 3.1318857,7.2416766 c 0.084645,0.195309 0.2644166,0.319888 0.4619229,0.343196 0.096737,0.01126 0.1967002,-0.0016 0.2926327,-0.0434 L 9.014098,11.114742 C 9.3043099,10.989359 9.4389375,10.650986 9.3139837,10.360836 L 6.1821035,3.1183576 6.2095126,3.1063015 C 6.3497823,3.0468249 6.4586125,2.9343016 6.5150429,2.79204 6.5553503,2.6915728 6.565024,2.5854794 6.5472887,2.4817972 7.7879508,2.0582275 9.0181332,1.7962089 10.119331,1.7246763 10.577224,1.6949382 10.648165,1.4931998 10.657838,1.4080036 10.667466,1.3107509 10.629618,1.1299104 10.253958,1.0222095 9.3873486,0.7730507 7.7484496,0.66213492 5.945096,1.1516112 5.891084,1.0977609 5.825786,1.054359 5.7524266,1.0254244 5.608126,0.96916273 5.4525394,0.97157399 5.3130757,1.0318543 L 3.8321816,1.6684146 C 3.6902995,1.728695 3.5814696,1.8412182 3.5250392,1.9826761 3.4960178,2.0558162 3.4823134,2.1337788 3.4847318,2.2109376 1.8877523,3.1834603 0.84459661,4.4493473 0.43265495,5.2450477 Z"
     id="path1252"
     style="stroke-width:0.667;stroke-miterlimit:10;stroke-dasharray:none" />
  <path
     fill="none"
     stroke="currentcolor"
     stroke-width="0.5"
     stroke-linecap="round"
     stroke-linejoin="round"
     stroke-miterlimit="10"
     d="m 12.452325,7.8089713 c 0.07095,0.2314765 0.158005,0.5819064 -0.09916,0.7305971 -0.259579,0.1486917 -0.835975,0.42357 -1.043961,0.3705235 -0.207987,-0.053042 -0.307949,-0.3496258 -0.287796,-0.6349529 0.02015,-0.2861305 0.23862,-0.7305975 0.594937,-0.7522984 0.358736,-0.020897 0.785996,0.1277943 0.835977,0.2861307 z"
     id="path1254"
     style="stroke-width:0.667;stroke-miterlimit:10;stroke-dasharray:none" />
  <path
     fill="none"
     stroke="currentcolor"
     stroke-width="0.5"
     stroke-linecap="round"
     stroke-linejoin="round"
     stroke-miterlimit="10"
     d="m 12.94085,5.6211969 c -1.395443,0 -2.008115,0.4589344 -2.324126,1.2867844 -0.314398,0.8270461 -0.184607,1.8662794 -0.25716,2.1869702 -0.07255,0.3206919 -0.290214,0.7088973 0,1.0295885 0.290213,0.321495 0.568335,0.134224 0.774709,0.257196 0.205567,0.123776 0.576396,0.406691 0.515127,0.90099 0.619123,0.259607 0.989145,0.257196 1.292257,0.257196"
     id="path1256"
     style="stroke-width:0.667;stroke-miterlimit:10;stroke-dasharray:none" />
  <line
     fill="none"
     stroke="currentcolor"
     stroke-width="0.5"
     stroke-linecap="round"
     stroke-linejoin="round"
     stroke-miterlimit="10"
     x1="11.522052"
     y1="10.253149"
     x2="11.134281"
     y2="10.38094"
     id="line1258"
     style="stroke-width:0.667;stroke-miterlimit:10;stroke-dasharray:none" />
  <path
     fill="none"
     stroke="currentcolor"
     stroke-width="0.5"
     stroke-linecap="round"
     stroke-linejoin="round"
     stroke-miterlimit="10"
     d="m 13.430182,7.8089713 c -0.07336,0.2314765 -0.158811,0.5819064 0.09915,0.7305971 0.257161,0.1486917 0.833557,0.42357 1.043962,0.3705235 C 14.781285,8.8570497 14.880442,8.5604661 14.860288,8.275139 14.840136,7.9890085 14.622476,7.5445415 14.26374,7.5228406 13.907422,7.5019435 13.479357,7.6506349 13.430182,7.8089713 Z"
     id="path1260"
     style="stroke-width:0.667;stroke-miterlimit:10;stroke-dasharray:none" />
  <polyline
     fill="none"
     stroke="currentcolor"
     stroke-width="0.5"
     stroke-linecap="round"
     stroke-linejoin="round"
     stroke-miterlimit="10"
     points="   684.35,310.692 683.816,309.891 683.282,310.692  "
     id="polyline1262"
     transform="matrix(0.80614814,0,0,0.80373773,-538.31615,-240.36917)"
     style="stroke-width:0.828631;stroke-miterlimit:10;stroke-dasharray:none" />
  <path
     fill="none"
     stroke="currentcolor"
     stroke-width="0.5"
     stroke-linecap="round"
     stroke-linejoin="round"
     stroke-miterlimit="10"
     d="m 12.94085,5.6211969 c 1.394636,0 2.00731,0.4589344 2.32332,1.2867844 0.315203,0.8270461 0.184607,1.8662794 0.258772,2.1869702 0.07175,0.3206919 0.289408,0.7088973 0,1.0295885 -0.291825,0.321495 -0.569946,0.134224 -0.775514,0.257196 -0.206374,0.123776 -0.577202,0.406691 -0.517547,0.90099 -0.616704,0.259607 -0.987531,0.257196 -1.289837,0.257196"
     id="path1264"
     style="stroke-width:0.667;stroke-miterlimit:10;stroke-dasharray:none" />
  <line
     fill="none"
     stroke="currentcolor"
     stroke-width="0.5"
     stroke-linecap="round"
     stroke-linejoin="round"
     stroke-miterlimit="10"
     x1="14.360497"
     y1="10.253149"
     x2="14.748219"
     y2="10.38094"
     id="line1266"
     style="stroke-width:0.667;stroke-miterlimit:10;stroke-dasharray:none" />
</svg>