<svg id="cocrea" enable-background="new 0 0 24 24" viewBox="0 0 24 24" width="40" height="40"
    xmlns="http://www.w3.org/2000/svg">
    <title>cocrea</title>
  <path
     fill="none"
     stroke="currentcolor"
     stroke-width="0.5"
     stroke-linecap="round"
     stroke-linejoin="round"
     stroke-miterlimit="10"
     d="m 14.839704,3.2954732 0.691,-0.703 c 0.185,-0.188 0.357,-0.202 0.542,-0.014 l 0.181,0.183 c 0.184,0.188 0.312,0.505 0.127,0.693 l -0.693,0.703"
     id="path1012"
     style="stroke-width:0.667;stroke-miterlimit:10;stroke-dasharray:none" />
  <path
     fill="none"
     stroke="currentcolor"
     stroke-width="0.5"
     stroke-linecap="round"
     stroke-linejoin="round"
     stroke-miterlimit="10"
     d="m 16.536704,5.0174732 0.935,-0.949 c 0.185,-0.188 0.059,-0.505 -0.126,-0.692 l -0.181,-0.184 c -0.184,-0.188 -0.358,-0.173 -0.543,0.014 l -0.934,0.949"
     id="path1014"
     style="stroke-width:0.667;stroke-miterlimit:10;stroke-dasharray:none" />
  <path
     fill="none"
     stroke="currentcolor"
     stroke-width="0.5"
     stroke-linecap="round"
     stroke-linejoin="round"
     stroke-miterlimit="10"
     d="m 14.107704,10.420473 0.883,-0.8959998 c 0.273,-0.277 0.72,-0.059 1.104,-0.449 0.079,-0.078 0.885,-0.896 0.885,-0.896"
     id="path1016"
     style="stroke-width:0.667;stroke-miterlimit:10;stroke-dasharray:none" />
  <path
     fill="none"
     stroke="currentcolor"
     stroke-width="0.5"
     stroke-linecap="round"
     stroke-linejoin="round"
     stroke-miterlimit="10"
     d="m 14.570704,7.4534732 c 0.684,-0.694 0.422,-2.28 -0.135,-2.845 0.104,0.105 0.501,0.507 0.771,0.781 0.55,0.558 1.368,0.159 1.503,-0.196 -0.173,-0.176 -1.743,-1.771 -1.743,-1.771 -0.21,-0.213 -0.445,-0.314 -0.779,-0.263 -0.334,0.051 -0.876,0.36 -1.063,0.5 -0.188,0.14 -0.563,0.624 -0.563,1.157 v 2.018 l -1.544,1.793"
     id="path1018"
     style="stroke-width:0.667;stroke-miterlimit:10;stroke-dasharray:none" />
  <path
     fill="none"
     stroke="currentcolor"
     stroke-width="0.5"
     stroke-linecap="round"
     stroke-linejoin="round"
     stroke-miterlimit="10"
     d="m 18.748704,6.2194732 c 0.185,-0.188 0.185,-0.492 0,-0.679 l -0.179,-0.182 c -0.187,-0.188 -0.485,-0.188 -0.671,0 l -0.905,0.92 c -0.187,0.188 -0.187,0.492 0,0.679 l 0.179,0.183 c 0.185,0.188 0.483,0.188 0.668,0 z"
     id="path1020"
     style="stroke-width:0.667;stroke-miterlimit:10;stroke-dasharray:none" />
  <path
     fill="none"
     stroke="currentcolor"
     stroke-width="0.5"
     stroke-linecap="round"
     stroke-linejoin="round"
     stroke-miterlimit="10"
     d="m 16.102704,5.6514732 c 0.009,0.108 0.029,0.187 0.111,0.269 l 0.179,0.183 c 0.185,0.188 0.506,0.271 0.689,0.084 l 0.907,-0.922 c 0.185,-0.188 0.164,-0.575 -0.021,-0.762 l -0.179,-0.182 c -0.185,-0.188 -0.464,-0.104 -0.649,0.083 l -0.604,0.614"
     id="path1022"
     style="stroke-width:0.667;stroke-miterlimit:10;stroke-dasharray:none" />
  <polyline
     fill="none"
     stroke="currentcolor"
     stroke-width="0.5"
     stroke-linecap="round"
     stroke-linejoin="round"
     stroke-miterlimit="10"
     points="   499.076,100.358 497.819,99.083 496.936,96.842 499.145,97.738 501.08,99.702  "
     id="polyline1024"
     transform="translate(-486.1403,-96.508527)"
     style="stroke-width:0.667;stroke-miterlimit:10;stroke-dasharray:none" />
  <path
     fill="none"
     stroke="currentcolor"
     stroke-width="0.5"
     stroke-linecap="round"
     stroke-linejoin="round"
     stroke-miterlimit="10"
     d="m 18.302704,6.6094732 1.857,1.918 c 0.173,0.175 0.173,0.458 0,0.633 l -0.668,0.68 c -0.173,0.1749998 -0.453,0.1749998 -0.624,0 l -3.878,-3.936"
     id="path1026"
     style="stroke-width:0.667;stroke-miterlimit:10;stroke-dasharray:none" />
  <line
     fill="none"
     stroke="currentcolor"
     stroke-width="0.5"
     stroke-linecap="round"
     stroke-linejoin="round"
     stroke-miterlimit="10"
     x1="12.340691"
     y1="1.9014772"
     x2="13.730705"
     y2="3.3134723"
     id="line1028"
     style="stroke-width:0.667;stroke-miterlimit:10;stroke-dasharray:none" />
  <line
     fill="none"
     stroke="currentcolor"
     stroke-width="0.5"
     stroke-linecap="round"
     stroke-linejoin="round"
     stroke-miterlimit="10"
     x1="17.640709"
     y1="7.2824731"
     x2="18.964714"
     y2="8.6274738"
     id="line1030"
     style="stroke-width:0.667;stroke-miterlimit:10;stroke-dasharray:none" />
  <line
     fill="none"
     stroke="currentcolor"
     stroke-width="0.5"
     stroke-linecap="round"
     stroke-linejoin="round"
     stroke-miterlimit="10"
     x1="19.627708"
     y1="7.9544702"
     x2="18.302696"
     y2="9.3004704"
     id="line1032"
     style="stroke-width:0.667;stroke-miterlimit:10;stroke-dasharray:none" />
  <line
     fill="none"
     stroke="currentcolor"
     stroke-width="0.5"
     stroke-linecap="round"
     stroke-linejoin="round"
     stroke-miterlimit="10"
     x1="13.004692"
     y1="1.2294725"
     x2="11.678703"
     y2="2.5744748"
     id="line1034"
     style="stroke-width:0.667;stroke-miterlimit:10;stroke-dasharray:none" />
  <path
     fill="none"
     stroke="currentcolor"
     stroke-width="0.5"
     stroke-linecap="round"
     stroke-linejoin="round"
     stroke-miterlimit="10"
     d="m 5.7837043,3.2954732 -0.693,-0.703 c -0.185,-0.188 -0.357,-0.202 -0.542,-0.014 l -0.179,0.183 c -0.186,0.188 -0.313,0.505 -0.127,0.693 l 0.692,0.703"
     id="path1036"
     style="stroke-width:0.667;stroke-miterlimit:10;stroke-dasharray:none" />
  <path
     fill="none"
     stroke="currentcolor"
     stroke-width="0.5"
     stroke-linecap="round"
     stroke-linejoin="round"
     stroke-miterlimit="10"
     d="m 4.0857043,5.0174732 -0.935,-0.949 c -0.185,-0.188 -0.059,-0.505 0.126,-0.692 l 0.181,-0.184 c 0.184,-0.188 0.358,-0.173 0.543,0.014 l 0.935,0.949"
     id="path1038"
     style="stroke-width:0.667;stroke-miterlimit:10;stroke-dasharray:none" />
  <path
     fill="none"
     stroke="currentcolor"
     stroke-width="0.5"
     stroke-linecap="round"
     stroke-linejoin="round"
     stroke-miterlimit="10"
     d="m 6.5137043,10.420473 -0.882,-0.8959998 c -0.272,-0.277 -0.721,-0.059 -1.104,-0.449 -0.076,-0.078 -0.885,-0.896 -0.885,-0.896"
     id="path1040"
     style="stroke-width:0.667;stroke-miterlimit:10;stroke-dasharray:none" />
  <path
     fill="none"
     stroke="currentcolor"
     stroke-width="0.5"
     stroke-linecap="round"
     stroke-linejoin="round"
     stroke-miterlimit="10"
     d="m 6.0507043,7.4534732 c -0.683,-0.694 -0.422,-2.28 0.135,-2.845 -0.104,0.105 -0.5,0.507 -0.771,0.781 -0.55,0.558 -1.368,0.159 -1.503,-0.196 0.173,-0.176 1.743,-1.771 1.743,-1.771 0.211,-0.213 0.445,-0.314 0.779,-0.263 0.334,0.051 0.876,0.36 1.063,0.5 0.188,0.14 0.563,0.624 0.563,1.157 v 2.018 l 1.545,1.793"
     id="path1042"
     style="stroke-width:0.667;stroke-miterlimit:10;stroke-dasharray:none" />
  <path
     fill="none"
     stroke="currentcolor"
     stroke-width="0.5"
     stroke-linecap="round"
     stroke-linejoin="round"
     stroke-miterlimit="10"
     d="m 1.8737042,6.2194732 c -0.185,-0.188 -0.185,-0.492 0,-0.679 l 0.18,-0.182 c 0.187,-0.188 0.485,-0.188 0.67,0 l 0.9060001,0.92 c 0.186,0.188 0.186,0.492 0,0.679 l -0.18,0.183 c -0.185,0.188 -0.483,0.188 -0.6680001,0 z"
     id="path1044"
     style="stroke-width:0.667;stroke-miterlimit:10;stroke-dasharray:none" />
  <path
     fill="none"
     stroke="currentcolor"
     stroke-width="0.5"
     stroke-linecap="round"
     stroke-linejoin="round"
     stroke-miterlimit="10"
     d="m 4.5187043,5.6514732 c -0.009,0.108 -0.029,0.187 -0.11,0.269 l -0.18,0.183 c -0.185,0.188 -0.504,0.271 -0.689,0.084 l -0.9070001,-0.922 c -0.185,-0.188 -0.164,-0.575 0.021,-0.762 l 0.18,-0.182 c 0.1860001,-0.188 0.4630001,-0.104 0.6480001,0.083 l 0.604,0.614"
     id="path1046"
     style="stroke-width:0.667;stroke-miterlimit:10;stroke-dasharray:none" />
  <polyline
     fill="none"
     stroke="currentcolor"
     stroke-width="0.5"
     stroke-linecap="round"
     stroke-linejoin="round"
     stroke-miterlimit="10"
     points="   493.828,100.358 495.083,99.083 495.968,96.842 493.759,97.738 491.824,99.702  "
     id="polyline1048"
     transform="translate(-486.1403,-96.508527)"
     style="stroke-width:0.667;stroke-miterlimit:10;stroke-dasharray:none" />
  <path
     fill="none"
     stroke="currentcolor"
     stroke-width="0.5"
     stroke-linecap="round"
     stroke-linejoin="round"
     stroke-miterlimit="10"
     d="m 2.3187042,6.6094732 -1.85699999,1.918 c -0.173,0.175 -0.173,0.458 0,0.633 l 0.66799999,0.68 c 0.173,0.1749998 0.453,0.1749998 0.625,0 l 3.8780001,-3.936"
     id="path1050"
     style="stroke-width:0.667;stroke-miterlimit:10;stroke-dasharray:none" />
  <line
     fill="none"
     stroke="currentcolor"
     stroke-width="0.5"
     stroke-linecap="round"
     stroke-linejoin="round"
     stroke-miterlimit="10"
     x1="8.280694"
     y1="1.9014772"
     x2="6.8907104"
     y2="3.3134723"
     id="line1052"
     style="stroke-width:0.667;stroke-miterlimit:10;stroke-dasharray:none" />
  <line
     fill="none"
     stroke="currentcolor"
     stroke-width="0.5"
     stroke-linecap="round"
     stroke-linejoin="round"
     stroke-miterlimit="10"
     x1="2.9807067"
     y1="7.2824731"
     x2="1.6567014"
     y2="8.6274738"
     id="line1054"
     style="stroke-width:0.667;stroke-miterlimit:10;stroke-dasharray:none" />
  <line
     fill="none"
     stroke="currentcolor"
     stroke-width="0.5"
     stroke-linecap="round"
     stroke-linejoin="round"
     stroke-miterlimit="10"
     x1="0.9947142"
     y1="7.9544702"
     x2="2.3187194"
     y2="9.3004704"
     id="line1056"
     style="stroke-width:0.667;stroke-miterlimit:10;stroke-dasharray:none" />
  <line
     fill="none"
     stroke="currentcolor"
     stroke-width="0.5"
     stroke-linecap="round"
     stroke-linejoin="round"
     stroke-miterlimit="10"
     x1="7.6187072"
     y1="1.2294725"
     x2="8.9427109"
     y2="2.5744748"
     id="line1058"
     style="stroke-width:0.667;stroke-miterlimit:10;stroke-dasharray:none" />
</svg>