<svg id="code" enable-background="new 0 0 24 24" viewBox="0 0 24 24" width="40" height="40"
    xmlns="http://www.w3.org/2000/svg">
    <title>code</title>
<path
     fill="none"
     stroke="currentcolor"
     stroke-width="0.5"
     stroke-linecap="round"
     stroke-linejoin="round"
     stroke-miterlimit="10"
     d="m 3.3045,10.9415 h 8.776 c 1.631,0 2.969,-1.336 2.969,-2.97 v -4.668 c 0,-1.634 -1.338,-2.97 -2.969,-2.97 h -8.776 c -1.634,0 -2.971,1.336 -2.971,2.97 v 4.668 c 0,1.633 1.337,2.97 2.971,2.97 z"
     id="path800"
     style="stroke-width:0.667;stroke-miterlimit:10;stroke-dasharray:none" />
  <line
     fill="none"
     stroke="currentcolor"
     stroke-width="0.5"
     stroke-linecap="round"
     stroke-linejoin="round"
     stroke-miterlimit="10"
     x1="0.82950306"
     y1="9.3465033"
     x2="14.555486"
     y2="9.3465033"
     id="line802"
     style="stroke-width:0.667;stroke-miterlimit:10;stroke-dasharray:none" />
  <path
     fill="none"
     stroke="currentcolor"
     stroke-width="0.5"
     stroke-linecap="round"
     stroke-linejoin="round"
     stroke-miterlimit="10"
     d="m 9.2855,10.9415 c 0,0 -0.122,2.572 2.109,2.572 h -3.797"
     id="path804"
     style="stroke-width:0.667;stroke-miterlimit:10;stroke-dasharray:none" />
  <path
     fill="none"
     stroke="currentcolor"
     stroke-width="0.5"
     stroke-linecap="round"
     stroke-linejoin="round"
     stroke-miterlimit="10"
     d="m 6.1325,10.9415 c 0,0 0.12,2.572 -2.11,2.572 h 3.795"
     id="path806"
     style="stroke-width:0.667;stroke-miterlimit:10;stroke-dasharray:none" />
  <polyline
     fill="none"
     stroke="currentcolor"
     stroke-width="0.5"
     stroke-linecap="round"
     stroke-linejoin="round"
     stroke-miterlimit="10"
     points="   399.018,147.151 397.812,148.382 399.049,149.638  "
     id="polyline808"
     transform="translate(-392.7355,-143.2445)"
     style="stroke-width:0.667;stroke-miterlimit:10;stroke-dasharray:none" />
  <polyline
     fill="none"
     stroke="currentcolor"
     stroke-width="0.5"
     stroke-linecap="round"
     stroke-linejoin="round"
     stroke-miterlimit="10"
     points="   402.041,149.638 403.249,148.408 402.012,147.151  "
     id="polyline810"
     transform="translate(-392.7355,-143.2445)"
     style="stroke-width:0.667;stroke-miterlimit:10;stroke-dasharray:none" />
  <line
     fill="none"
     stroke="currentcolor"
     stroke-width="0.5"
     stroke-linecap="round"
     stroke-linejoin="round"
     stroke-miterlimit="10"
     x1="8.308507"
     y1="3.859504"
     x2="7.1434984"
     y2="6.4424968"
     id="line812"
     style="stroke-width:0.667;stroke-miterlimit:10;stroke-dasharray:none" />
</svg>