<svg id="collaborer" enable-background="new 0 0 24 24" viewBox="0 0 24 24" width="40" height="40"
    xmlns="http://www.w3.org/2000/svg">
    <title>collaborer</title>
<path
     fill="none"
     stroke="currentcolor"
     stroke-width="0.5"
     stroke-linecap="round"
     stroke-linejoin="round"
     stroke-miterlimit="10"
     d="M 1.402012,3.077781 C 0.760321,3.077781 0.3335,2.550895 0.3335,1.902494 V 1.509759 c 0,-0.649373 0.425849,-1.176259 1.068512,-1.176259 0.640718,0 1.068511,0.526886 1.068511,1.176259 V 1.902494 C 2.469551,2.550895 2.04273,3.077781 1.402012,3.077781 Z"
     id="path1118"
     style="stroke-width:0.667;stroke-miterlimit:10;stroke-dasharray:none" />
  <path
     fill="none"
     stroke="currentcolor"
     stroke-width="0.5"
     stroke-linecap="round"
     stroke-linejoin="round"
     stroke-miterlimit="10"
     d="M 1.059777,7.386195 0.456005,5.831783 C 0.358775,5.583894 0.326694,5.312674 0.360725,5.047286 0.460868,4.290009 0.834215,3.991569 1.552714,3.991569 h 0.560993 c 0.498768,0 0.828363,0.168176 1.126847,0.466616 l 1.362133,1.668149 1.828818,0.304272 c 0,0 0.137088,0.91476 -0.913923,0.91476 H 3.688763 L 2.164262,5.514874"
     id="path1120"
     style="stroke-width:0.667;stroke-miterlimit:10;stroke-dasharray:none" />
  <path
     fill="none"
     stroke="currentcolor"
     stroke-width="0.5"
     stroke-linecap="round"
     stroke-linejoin="round"
     stroke-miterlimit="10"
     d="m 6.586092,13.140145 -1.515751,-2.4264 C 4.946865,10.526127 4.862278,10.374477 4.699911,10.321983 4.304202,10.193664 3.614871,9.958412 3.079157,9.785375 2.719421,9.669694 2.100093,9.392641 1.874529,9.028098 1.708273,8.759794 1.583824,8.467187 1.455486,8.221242"
     id="path1122"
     style="stroke-width:0.667;stroke-miterlimit:10;stroke-dasharray:none" />
  <path
     fill="none"
     stroke="currentcolor"
     stroke-width="0.5"
     stroke-linecap="round"
     stroke-linejoin="round"
     stroke-miterlimit="10"
     d="m 3.384446,7.041094 0.428766,0.999335 c 0.06125,0.141929 0.172089,0.256638 0.313067,0.319826 0.334457,0.15165 0.981008,0.439396 1.391301,0.598823 0.600856,0.232335 0.808919,0.617293 0.913923,0.880736 l 1.678117,3.299359"
     id="path1124"
     style="stroke-width:0.667;stroke-miterlimit:10;stroke-dasharray:none" />
  <path
     fill="none"
     stroke="currentcolor"
     stroke-width="0.5"
     stroke-linecap="round"
     stroke-linejoin="round"
     stroke-miterlimit="10"
     d="m 4.756302,3.077781 c -0.642663,0 -1.067539,-0.526886 -1.067539,-1.175287 V 1.509759 c 0,-0.649373 0.424876,-1.176259 1.067539,-1.176259 0.64169,0 1.066567,0.526886 1.066567,1.176259 v 0.392735 c 0,0.648401 -0.424877,1.175287 -1.066567,1.175287 z"
     id="path1126"
     style="stroke-width:0.667;stroke-miterlimit:10;stroke-dasharray:none" />
  <path
     fill="none"
     stroke="currentcolor"
     stroke-width="0.5"
     stroke-linecap="round"
     stroke-linejoin="round"
     stroke-miterlimit="10"
     d="M 4.298368,3.992541 H 5.51758 c 0.423905,0 0.800168,0.13318 1.07629,0.466616 l 1.364078,1.667177 1.828817,0.304272 c 0,0 0.137089,0.91476 -0.913922,0.91476 h -1.82979"
     id="path1128"
     style="stroke-width:0.667;stroke-miterlimit:10;stroke-dasharray:none" />
  <path
     fill="none"
     stroke="currentcolor"
     stroke-width="0.5"
     stroke-linecap="round"
     stroke-linejoin="round"
     stroke-miterlimit="10"
     d="m 9.940382,13.140145 -1.514778,-2.4264 C 8.300183,10.526127 8.216568,10.374477 8.055174,10.321983 7.867528,10.260743 7.616685,10.17811 7.34737,10.087703"
     id="path1130"
     style="stroke-width:0.667;stroke-miterlimit:10;stroke-dasharray:none" />
  <path
     fill="none"
     stroke="currentcolor"
     stroke-width="0.5"
     stroke-linecap="round"
     stroke-linejoin="round"
     stroke-miterlimit="10"
     d="m 7.262783,8.261099 c 0,0 1.035455,0.475364 1.61006,0.697979 0.597938,0.232335 0.807946,0.617293 0.913922,0.880736 l 1.678118,3.299359"
     id="path1132"
     style="stroke-width:0.667;stroke-miterlimit:10;stroke-dasharray:none" />
  <path
     fill="none"
     stroke="currentcolor"
     stroke-width="0.5"
     stroke-linecap="round"
     stroke-linejoin="round"
     stroke-miterlimit="10"
     d="M 3.384446,7.042067 H 1.931892 c -0.895449,0 -1.523528,0.9517 -1.523528,1.828548"
     id="path1134"
     style="stroke-width:0.667;stroke-miterlimit:10;stroke-dasharray:none" />
  <line
     fill="none"
     stroke="currentcolor"
     stroke-width="0.5"
     stroke-linecap="round"
     stroke-linejoin="round"
     stroke-miterlimit="10"
     x1="14.666501"
     y1="7.0420656"
     x2="9.7877626"
     y2="7.0420656"
     id="line1136"
     style="stroke-width:0.667;stroke-miterlimit:10;stroke-dasharray:none" />
  <line
     fill="none"
     stroke="currentcolor"
     stroke-width="0.5"
     stroke-linecap="round"
     stroke-linejoin="round"
     stroke-miterlimit="10"
     x1="4.8593569"
     y1="13.140147"
     x2="5.2667398"
     y2="11.027738"
     id="line1138"
     style="stroke-width:0.667;stroke-miterlimit:10;stroke-dasharray:none" />
  <line
     fill="none"
     stroke="currentcolor"
     stroke-width="0.5"
     stroke-linecap="round"
     stroke-linejoin="round"
     stroke-miterlimit="10"
     x1="3.9367092"
     y1="10.055621"
     x2="3.6887786"
     y2="13.140147"
     id="line1140"
     style="stroke-width:0.667;stroke-miterlimit:10;stroke-dasharray:none" />
</svg>