<svg id="construire" enable-background="new 0 0 24 24" viewBox="0 0 24 24" width="40" height="40"
    xmlns="http://www.w3.org/2000/svg">
    <title>construire</title>
   <path
     fill="none"
     stroke="currentcolor"
     stroke-width="0.4938"
     stroke-linecap="round"
     stroke-linejoin="round"
     stroke-miterlimit="10"
     d="m 3.120005,12.560998 c 0.102,-0.104 0.101,-0.27 -0.002,-0.373 l -1.375,-1.336 0.311,-0.401 c 0.053,-0.069 0.132,-0.111 0.218,-0.118 0.086,-0.006 0.171,0.025 0.233,0.085 l 1.509,1.467 c 0.307,0.3 0.479,0.711 0.479,1.141 v 2.5 h -1.996 v -1.373 c 0,-0.066 -0.025,-0.13 -0.07,-0.179 l -1.75999999,-1.926 c -0.269,-0.292 -0.418,-0.676 -0.417,-1.073 v -3.921 c 0.004,-0.159 0.291,-0.284 0.451,-0.28 0.159,-0.004 0.251,0.024 0.51099999,0.28 l -0.013,3.639 z"
     id="path1436"
     style="stroke-width:0.5;stroke-miterlimit:10;stroke-dasharray:none" />
  <path
     fill="none"
     stroke="currentcolor"
     stroke-width="0.4938"
     stroke-linecap="round"
     stroke-linejoin="round"
     stroke-miterlimit="10"
     d="m 12.781005,10.692998 -0.013,-3.639 c 0.261,-0.256 0.352,-0.284 0.511,-0.28 0.16,-0.004 0.447,0.122 0.452,0.28 v 3.921 c 0,0.397 -0.148,0.781 -0.417,1.073 l -1.76,1.926 c -0.044,0.049 -0.069,0.113 -0.069,0.179 v 1.373 h -1.997 v -2.5 c 0,-0.429 0.173,-0.84 0.48,-1.141 l 1.509,-1.467 c 0.062,-0.06 0.147,-0.091 0.232,-0.085 0.086,0.007 0.166,0.049 0.218,0.118 l 0.311,0.401 -1.375,1.336 c -0.103,0.103 -0.104,0.27 -0.003,0.373 z"
     id="path1438"
     style="stroke-width:0.5;stroke-miterlimit:10;stroke-dasharray:none" />
  <path
     fill="none"
     stroke="currentcolor"
     stroke-width="0.4938"
     stroke-linecap="round"
     stroke-linejoin="round"
     stroke-miterlimit="10"
     d="m 11.350006,3.785 v 0 l -0.932,-0.336 -0.01,-0.029 0.413,-0.884 c 0.096,-0.201 0.048,-0.441 -0.106,-0.595 l -0.739,-0.74 c -0.153,-0.154 -0.394,-0.202 -0.595,-0.106 l -0.893,0.423 c -0.01,-0.01 -0.02,-0.01 -0.039,-0.01 l -0.326,-0.913 c -0.077,-0.211 -0.27,-0.345 -0.491,-0.345 h -1.027 c -0.221,0 -0.413,0.134 -0.49,0.345 l -0.336,0.923 c -0.01,0.009 -0.029,0.009 -0.038,0.019 l -0.884,-0.414 c -0.202,-0.096 -0.442,-0.047 -0.596,0.106 l -0.74,0.74 c -0.154,0.154 -0.202,0.394 -0.105,0.596 l 0.413,0.883 c -0.01,0.01 -0.01,0.029 -0.019,0.039 l -0.913,0.327 c -0.211,0.077 -0.346,0.269 -0.346,0.489 v 1.038 c 0,0.222 0.135,0.413 0.346,0.491 l 0.922,0.326 c 0.01,0.009 0.01,0.028 0.019,0.038 l -0.413,0.874 c -0.096,0.202 -0.048,0.442 0.105,0.596 l 0.74,0.74 c 0.154,0.153 0.393,0.202 0.595,0.105 l 0.884,-0.413 c 0.01,0.01 0.029,0.01 0.038,0.019 l 0.327,0.913 c 0.077,0.211 0.269,0.346 0.49,0.346 h 1.037 c 0.221,0 0.414,-0.135 0.49,-0.346 l 0.336,-0.922 c 0.01,0 0.02,-0.01 0.038,-0.01 l 0.884,0.413 c 0.202,0.097 0.441,0.048 0.595,-0.105 l 0.74,-0.74 c 0.153,-0.153 0.201,-0.394 0.105,-0.596 l -0.422,-0.893 0.01,-0.029 0.922,-0.326 c 0.211,-0.078 0.346,-0.27 0.346,-0.49 V 4.275 c 0.011,-0.221 -0.124,-0.422 -0.335,-0.49 z"
     id="path1440"
     style="stroke-width:0.5;stroke-miterlimit:10;stroke-dasharray:none" />
  <path
     fill="none"
     stroke="currentcolor"
     stroke-width="0.4938"
     stroke-linecap="round"
     stroke-linejoin="round"
     stroke-miterlimit="10"
     d="m 7.133006,2.806 c -1.104,0 -1.998,0.893 -1.998,1.998 0,1.104 0.894,1.998 1.998,1.998 1.104,0 1.998,-0.894 1.998,-1.998 0,-1.105 -0.903,-1.998 -1.998,-1.998 z"
     id="path1442"
     style="stroke-width:0.5;stroke-miterlimit:10;stroke-dasharray:none" />
</svg>