<svg id="creatif" enable-background="new 0 0 24 24" viewBox="0 0 24 24" width="40" height="40"
    xmlns="http://www.w3.org/2000/svg">
    <title>creatif</title>
  <path
     fill="none"
     stroke="currentcolor"
     stroke-width="0.5"
     stroke-linecap="round"
     stroke-linejoin="round"
     stroke-miterlimit="10"
     d="m 6.439214,4.8023181 1.044575,-1.059186 c 0.279632,-0.282989 0.53962,-0.30378 0.819252,-0.02079 l 0.271543,0.276058 c 0.277321,0.282989 0.466823,0.762337 0.189502,1.044171 l -1.043419,1.060342"
     id="path766"
     style="stroke-width:0.667;stroke-miterlimit:10;stroke-dasharray:none" />
  <path
     fill="none"
     stroke="currentcolor"
     stroke-width="0.5"
     stroke-linecap="round"
     stroke-linejoin="round"
     stroke-miterlimit="10"
     d="m 9.000965,7.4035051 1.410869,-1.431115 c 0.278476,-0.284144 0.08782,-0.762337 -0.190658,-1.045326 L 9.949633,4.6521611 c -0.277321,-0.282989 -0.53962,-0.262198 -0.819252,0.02079 l -1.409714,1.431115"
     id="path768"
     style="stroke-width:0.667;stroke-miterlimit:10;stroke-dasharray:none" />
  <path
     fill="none"
     stroke="currentcolor"
     stroke-width="0.5"
     stroke-linecap="round"
     stroke-linejoin="round"
     stroke-miterlimit="10"
     d="M 5.334553,15.555891 6.666848,14.20332 c 0.410204,-0.416975 1.087329,-0.08894 1.666236,-0.676863 0.11555,-0.117816 1.33345,-1.353726 1.33345,-1.353726"
     id="path770"
     style="stroke-width:0.667;stroke-miterlimit:10;stroke-dasharray:none" />
  <path
     fill="none"
     stroke="currentcolor"
     stroke-width="0.5"
     stroke-linecap="round"
     stroke-linejoin="round"
     stroke-miterlimit="10"
     d="M 6.034788,11.078893 C 7.065497,10.032412 6.669159,7.6379811 5.829109,6.7855501 5.987413,6.9449471 6.584808,7.5501971 6.9927,7.9648621 7.823507,8.8080531 9.05874,8.2062691 9.262108,7.6680131 9.000965,7.4035051 6.628717,4.9963681 6.628717,4.9963681 6.310953,4.6729521 5.95968,4.5204851 5.454726,4.5990281 c -0.502644,0.07739 -1.324207,0.544032 -1.60615,0.754252 -0.284253,0.21022 -0.848139,0.940216 -0.848139,1.74529 v 3.0447279 l -2.33411595,2.706296"
     id="path772"
     style="stroke-width:0.667;stroke-miterlimit:10;stroke-dasharray:none" />
  <path
     fill="none"
     stroke="currentcolor"
     stroke-width="0.5"
     stroke-linecap="round"
     stroke-linejoin="round"
     stroke-miterlimit="10"
     d="m 12.339212,9.2146331 c 0.279632,-0.281834 0.279632,-0.741546 0,-1.024535 l -0.270388,-0.276059 c -0.278476,-0.282988 -0.731432,-0.282988 -1.008753,0 l -1.371582,1.390688 c -0.277321,0.282989 -0.277321,0.7415459 0,1.0245349 l 0.270388,0.276058 c 0.281942,0.284144 0.731433,0.284144 1.011065,0 z"
     id="path774"
     style="stroke-width:0.667;stroke-miterlimit:10;stroke-dasharray:none" />
  <path
     fill="none"
     stroke="currentcolor"
     stroke-width="0.5"
     stroke-linecap="round"
     stroke-linejoin="round"
     stroke-miterlimit="10"
     d="m 8.34695,8.3587361 c 0.01502,0.162863 0.04391,0.281834 0.167548,0.40658 l 0.270388,0.274903 c 0.278476,0.282989 0.761476,0.40889 1.041108,0.125901 l 1.369271,-1.390687 c 0.279632,-0.282989 0.247278,-0.866292 -0.03004,-1.150436 l -0.271546,-0.274903 c -0.279632,-0.284144 -0.69908,-0.158243 -0.977556,0.125901 L 9.00212,7.4023501"
     id="path776"
     style="stroke-width:0.667;stroke-miterlimit:10;stroke-dasharray:none" />
  <polyline
     fill="none"
     stroke="currentcolor"
     stroke-width="0.5"
     stroke-linecap="round"
     stroke-linejoin="round"
     stroke-miterlimit="10"
     points="   395.865,98.345 394.224,96.679 393.069,93.75 395.953,94.921 398.481,97.488  "
     id="polyline778"
     transform="matrix(1.1555031,0,0,1.1550561,-453.85891,-107.9531)"
     style="stroke-width:0.577349;stroke-miterlimit:10;stroke-dasharray:none" />
  <path
     fill="none"
     stroke="currentcolor"
     stroke-width="0.5"
     stroke-linecap="round"
     stroke-linejoin="round"
     stroke-miterlimit="10"
     d="m 11.667865,9.8048661 2.804406,2.8945709 c 0.261143,0.264508 0.261143,0.691879 0,0.957541 l -1.008755,1.024535 c -0.261143,0.264508 -0.684057,0.264508 -0.944046,0 L 6.669159,8.7422151"
     id="path780"
     style="stroke-width:0.667;stroke-miterlimit:10;stroke-dasharray:none" />
  <line
     fill="none"
     stroke="currentcolor"
     stroke-width="0.5"
     stroke-linecap="round"
     stroke-linejoin="round"
     stroke-miterlimit="10"
     x1="2.6676402"
     y1="2.7012756"
     x2="4.7660432"
     y2="4.8323445"
     id="line782"
     style="stroke-width:0.667;stroke-miterlimit:10;stroke-dasharray:none" />
  <line
     fill="none"
     stroke="currentcolor"
     stroke-width="0.5"
     stroke-linecap="round"
     stroke-linejoin="round"
     stroke-miterlimit="10"
     x1="10.667191"
     y1="10.820163"
     x2="12.667389"
     y2="12.849593"
     id="line784"
     style="stroke-width:0.667;stroke-miterlimit:10;stroke-dasharray:none" />
  <line
     fill="none"
     stroke="currentcolor"
     stroke-width="0.5"
     stroke-linecap="round"
     stroke-linejoin="round"
     stroke-miterlimit="10"
     x1="13.665724"
     y1="11.835454"
     x2="11.667854"
     y2="13.864884"
     id="line786"
     style="stroke-width:0.667;stroke-miterlimit:10;stroke-dasharray:none" />
  <line
     fill="none"
     stroke="currentcolor"
     stroke-width="0.5"
     stroke-linecap="round"
     stroke-linejoin="round"
     stroke-miterlimit="10"
     x1="3.6660104"
     y1="1.6859747"
     x2="1.6681398"
     y2="3.7165668"
     id="line788"
     style="stroke-width:0.667;stroke-miterlimit:10;stroke-dasharray:none" />
</svg>