<svg id="badge" enable-background="new 0 0 24 24" viewBox="0 0 24 24" width="40" height="40"
    xmlns="http://www.w3.org/2000/svg">
    <title>badge</title>
   <path
     fill="none"
     stroke="currentcolor"
     stroke-width="0.5"
     stroke-linecap="round"
     stroke-linejoin="round"
     stroke-miterlimit="10"
     d="m 13.021016,4.9012742 c 0,-0.4535139 -0.433938,-0.8678754 -0.896153,-0.8678754 -0.925516,0 -1.618294,1.1560796 -0.694953,2.0805084 0.37521,0.3741217 0.924429,0.4622143 1.15608,0.4622143 1.385556,0 2.080509,-0.9831571 2.080509,-2.1968776 0,-1.2115454 -1.15608,-2.1957901 -2.542723,-2.1957901 H 2.8762235 c -1.387731,0 -2.5427235,0.9842447 -2.5427235,2.1957901 0,1.2137205 0.692778,2.1968776 2.0815966,2.1968776 0.2305634,0 0.7808705,-0.088093 1.1539048,-0.4622143 0.924429,-0.9255163 0.2338262,-2.0805084 -0.6927779,-2.0805084 -0.4611269,0 -0.8950648,0.4143615 -0.8950648,0.8678754"
     id="path326"
     style="stroke-width:0.667;stroke-miterlimit:10;stroke-dasharray:none" />
  <polyline
     fill="none"
     stroke="currentcolor"
     stroke-width="0.5"
     stroke-linecap="round"
     stroke-linejoin="round"
     stroke-miterlimit="10"
     points="   121.562,249.188 120.499,249.188 120.499,248.337 131.978,248.337 131.978,249.188 130.914,249.188  "
     id="polyline328"
     transform="matrix(1.0875635,0,0,1.0875632,-129.79021,-269.74868)"
     style="stroke-width:0.613298;stroke-miterlimit:10;stroke-dasharray:none" />
  <path
     fill="none"
     stroke="currentcolor"
     stroke-width="0.5"
     stroke-linecap="round"
     stroke-linejoin="round"
     stroke-miterlimit="10"
     d="m 13.049292,1.259025 c 0,0.6938654 -0.924429,0.9244288 -0.924429,0.9244288 H 2.877311 c 0,0 -0.9266041,-0.2305634 -0.9266041,-0.9244288"
     id="path330"
     style="stroke-width:0.667;stroke-miterlimit:10;stroke-dasharray:none" />
  <line
     fill="none"
     stroke="currentcolor"
     stroke-width="0.5"
     stroke-linecap="round"
     stroke-linejoin="round"
     stroke-miterlimit="10"
     x1="4.9578223"
     y1="4.0323181"
     x2="10.044358"
     y2="4.0323181"
     id="line332"
     style="stroke-width:0.667;stroke-miterlimit:10;stroke-dasharray:none" />
  <line
     fill="none"
     stroke="currentcolor"
     stroke-width="0.5"
     stroke-linecap="round"
     stroke-linejoin="round"
     stroke-miterlimit="10"
     x1="2.8773115"
     y1="7.96277"
     x2="2.8773115"
     y2="14.66759"
     id="line334"
     style="stroke-width:0.667;stroke-miterlimit:10;stroke-dasharray:none" />
  <line
     fill="none"
     stroke="currentcolor"
     stroke-width="0.5"
     stroke-linecap="round"
     stroke-linejoin="round"
     stroke-miterlimit="10"
     x1="7.5016308"
     y1="6.8066869"
     x2="7.5016308"
     y2="14.66759"
     id="line336"
     style="stroke-width:0.667;stroke-miterlimit:10;stroke-dasharray:none" />
  <line
     fill="none"
     stroke="currentcolor"
     stroke-width="0.5"
     stroke-linecap="round"
     stroke-linejoin="round"
     stroke-miterlimit="10"
     x1="9.811615"
     y1="6.8066869"
     x2="9.811615"
     y2="14.66759"
     id="line338"
     style="stroke-width:0.667;stroke-miterlimit:10;stroke-dasharray:none" />
  <line
     fill="none"
     stroke="currentcolor"
     stroke-width="0.5"
     stroke-linecap="round"
     stroke-linejoin="round"
     stroke-miterlimit="10"
     x1="12.124861"
     y1="7.96277"
     x2="12.124861"
     y2="14.66759"
     id="line340"
     style="stroke-width:0.667;stroke-miterlimit:10;stroke-dasharray:none" />
  <line
     fill="none"
     stroke="currentcolor"
     stroke-width="0.5"
     stroke-linecap="round"
     stroke-linejoin="round"
     stroke-miterlimit="10"
     x1="5.1883836"
     y1="6.8066869"
     x2="5.1883836"
     y2="14.66759"
     id="line342"
     style="stroke-width:0.667;stroke-miterlimit:10;stroke-dasharray:none" />
  <line
     fill="none"
     stroke="currentcolor"
     stroke-width="0.5"
     stroke-linecap="round"
     stroke-linejoin="round"
     stroke-miterlimit="10"
     x1="5.4200315"
     y1="5.4200501"
     x2="9.5832195"
     y2="5.4200501"
     id="line344"
     style="stroke-width:0.667;stroke-miterlimit:10;stroke-dasharray:none" />
</svg>