<svg id="economie" enable-background="new 0 0 24 24" viewBox="0 0 24 24" width="40" height="40"
    xmlns="http://www.w3.org/2000/svg">
    <title>economie</title>
       <path
     fill="none"
     stroke="currentcolor"
     stroke-width="0.5"
     stroke-linecap="round"
     stroke-linejoin="round"
     stroke-miterlimit="10"
     d="M 5.599369,5.8502285 H 4.6388647 c -0.04606,0 -0.2761682,0.02512 -0.2761682,0.517576 0,0.125497 0.01563,0.220705 0.03821,0.292541 h -0.066 c -0.04689,0 -0.2770322,0.02511 -0.2770322,0.517573 0,0.126367 0.01563,0.220706 0.03821,0.292544 h -0.02258 c -0.04607,0 -0.2735623,0.02511 -0.2735623,0.517574 0,0.49334 0.2284014,0.517575 0.2735623,0.517575 H 5.0661405 M 3.2936364,7.0844435 c 0.361275,-0.360917 0.5262796,-0.727025 0.4906727,-1.087942 -0.03821,-0.386885 -0.3004822,-0.652595 -0.4324868,-0.76338 l 0.2388233,-0.546137 h 0.8423957 c 0.01389,0 0.4498587,-8.65e-4 0.4628837,-8.65e-4 m 0.1632675,-1.267105 h -2.151146 c -0.04516,0 -0.08602,0.02684 -0.1033657,0.06836 l -1.2192986,2.777413 c -0.0065,0.01383 -0.01,0.02939 -0.01,0.04504 v 1.004854 L 0.33349962,9.0223305 M 2.6062303,10.544762 3.6162344,9.2006265 h 0.2926692 c 0.6391792,0 1.0030572,-0.513245 1.1116129,-0.694138 h 1.1376679 c 0.01304,0 0.3030881,-0.0049 0.3030881,-0.517575 0,-0.125497 -0.01825,-0.219837 -0.04342,-0.291675 h 0.0025 c 0.03041,0 0.3039561,-0.01474 0.3039561,-0.51844 0,-0.1255 -0.01825,-0.220706 -0.04516,-0.292542 h 0.04778 c 0.01216,0 0.3022222,-0.0049 0.3022222,-0.517575 0,-0.180026 -0.1363467,-0.500265 -0.1832435,-0.577293 m -1.082036,-2.259846 c 0,-0.06142 -0.0495,-0.112516 -0.1120297,-0.112516 H 4.9293629 L 9.4122974,0.33348702 11.142249,2.8322125 5.9445831,6.4110915 4.7330954,4.6636285 c 1.0186902,-0.159254 1.0308492,-1.120833 1.0308492,-1.132086 z"
     id="path518"
     style="stroke-width:0.667;stroke-miterlimit:10;stroke-dasharray:none" />
  <path
     fill="none"
     stroke="currentcolor"
     stroke-width="0.5"
     stroke-linecap="round"
     stroke-linejoin="round"
     stroke-miterlimit="10"
     d="m 6.9854132,2.3717486 c 0.2058224,-0.1410781 0.4446447,-0.2155118 0.692153,-0.2155118 0.4020919,0 0.7781278,0.1964704 1.0056622,0.5244987 0.3803809,0.552195 0.2431673,1.31038 -0.3109042,1.69207 -0.2058204,0.141078 -0.4455147,0.215513 -0.692153,0.215513 -0.4020919,0 -0.7781318,-0.196472 -1.0047962,-0.524502 C 6.2932581,3.5116245 6.4313437,2.7525735 6.9854132,2.3717486 Z"
     id="path520"
     style="stroke-width:0.667;stroke-miterlimit:10;stroke-dasharray:none" />
  <path
     fill="none"
     stroke="currentcolor"
     stroke-width="0.5"
     stroke-linecap="round"
     stroke-linejoin="round"
     stroke-miterlimit="10"
     d="m 17.666462,6.9745255 h -1.779449 l -1.242751,-0.994471 c -0.02084,-0.01647 -0.04516,-0.02511 -0.07121,-0.02511 H 11.94947 c -0.0074,-8.64e-4 -0.213641,-0.01048 -0.374304,0.141078 -0.11724,0.111651 -0.178032,0.276963 -0.178032,0.491608 0,0.215512 0.06079,0.379095 0.180638,0.486418 0.163268,0.145406 0.369091,0.125498 0.366486,0.125498 h 1.356516 l -0.455068,0.455261 H 10.883881 L 9.0002175,6.1107365 c -0.1467676,-0.144542 -0.5071726,-0.330625 -0.8415247,0 -0.333487,0.332354 -0.1459026,0.695003 0,0.840409 l 2.2640452,2.256381 c 0.01994,0.02074 0.04863,0.03284 0.07906,0.03284 H 17.6665"
     id="path522"
     style="stroke-width:0.667;stroke-miterlimit:10;stroke-dasharray:none" />
</svg>