<svg id="feuille" enable-background="new 0 0 24 24" viewBox="0 0 24 24"
    xmlns="http://www.w3.org/2000/svg">
    <title>feuille</title>
<path
     fill="none"
     stroke="currentColor"
     stroke-width="0.5"
     stroke-linecap="round"
     stroke-linejoin="round"
     stroke-miterlimit="10"
     d="m 3.960615,7.5141495 c 0,0 1.2442771,0.522658 1.5129528,1.4348331"
     id="path728"
     style="stroke-width:0.667;stroke-miterlimit:10;stroke-dasharray:none" />
  <path
     fill="none"
     stroke="currentColor"
     stroke-width="0.5"
     stroke-linecap="round"
     stroke-linejoin="round"
     stroke-miterlimit="10"
     d="M 5.8446495,5.6512887 C 5.2929828,4.2780742 6.0351452,2.2479622 7.6009529,1.3676967 10.025643,0.00438564 12.267545,0.37849844 12.267545,0.37849844 c 0,0 0.264271,2.42072986 -0.946972,4.64780116 -0.962389,1.7715342 -3.4949898,2.3855198 -4.7568852,1.5404651"
     id="path730"
     style="stroke-width:0.667;stroke-miterlimit:10;stroke-dasharray:none" />
  <path
     fill="none"
     stroke="currentColor"
     stroke-width="0.5"
     stroke-linecap="round"
     stroke-linejoin="round"
     stroke-miterlimit="10"
     d="M 3.9121649,7.5372566 C 3.728276,8.1490412 2.5511673,8.2975865 1.7374316,7.8178419 0.68585194,7.1961536 0.33349011,6.3918114 0.33349011,6.3918114 c 0,0 0.85557869,-0.4302296 1.96551789,-0.340002 0.9425687,0.079227 1.7794275,0.941884 1.6131569,1.4854472 z"
     id="path732"
     style="stroke-width:0.667;stroke-miterlimit:10;stroke-dasharray:none" />
  <path
     fill="none"
     stroke="currentColor"
     stroke-width="0.5"
     stroke-linecap="round"
     stroke-linejoin="round"
     stroke-miterlimit="10"
     d="M 9.2317271,14.832456 C 9.2185171,14.3175 8.895882,13.839956 8.3838567,13.649599 7.8806401,13.463642 7.3289734,13.627589 6.9832187,13.996203 l -0.0033,-0.0011 C 6.7607942,13.439435 6.2190381,13.046617 5.5847865,13.045516 4.9604456,13.043316 4.4252962,13.443837 4.196261,13.984099"
     id="path734"
     style="stroke-width:0.667;stroke-miterlimit:10;stroke-dasharray:none" />
  <path
     fill="none"
     stroke="currentColor"
     stroke-width="0.5"
     stroke-linecap="round"
     stroke-linejoin="round"
     stroke-miterlimit="10"
     d="M 9.7415505,12.466742 C 9.6413483,11.878065 9.1931876,11.381815 8.5732515,11.248675 7.9632249,11.118836 7.3565013,11.39832 7.0206572,11.878065 l -0.0011,-0.0011 C 6.6958257,11.115536 5.9404498,10.548864 5.0639496,10.548864 c -0.8963205,0 -1.6616061,0.553467 -1.974327,1.338004 v 0.0022 c -0.3358451,-0.479744 -0.9414668,-0.759229 -1.5514933,-0.62939 -0.6199368,0.13314 -1.06809695,0.63049 -1.16829989,1.218068"
     id="path736"
     style="stroke-width:0.667;stroke-miterlimit:10;stroke-dasharray:none" />
  <path
     fill="none"
     stroke="currentColor"
     stroke-width="0.5"
     stroke-linecap="round"
     stroke-linejoin="round"
     stroke-miterlimit="10"
     d="m 9.9672828,2.5736603 c 0,0 -3.5632588,2.3371047 -4.9583921,7.9399927"
     id="path738"
     style="stroke-width:0.667;stroke-miterlimit:10;stroke-dasharray:none" />
</svg>