<svg id="fiction" enable-background="new 0 0 24 24" viewBox="0 0 24 24" width="40" height="40"
    xmlns="http://www.w3.org/2000/svg">
    <title>fiction</title>
<g
     id="g1358"
     transform="matrix(0.99289927,0,0,0.99278833,-742.70563,-246.47171)"
     style="stroke-width:0.671808;stroke-miterlimit:10;stroke-dasharray:none">
    <path
       fill="none"
       stroke="currentcolor"
       stroke-width="0.503604"
       stroke-miterlimit="10"
       d="m 760.472,251.258 c 0,-1.469 -1.731,-2.66 -3.867,-2.66 -2.136,0 -3.867,1.191 -3.867,2.66 0.023,1.769 7.523,2.074 7.734,0 z"
       id="path1334"
       style="stroke-width:0.671808;stroke-miterlimit:10;stroke-dasharray:none" />
    <ellipse
       fill="none"
       stroke="currentcolor"
       stroke-width="0.503604"
       stroke-miterlimit="10"
       cx="756.67499"
       cy="254.129"
       rx="0.60900003"
       ry="0.375"
       id="ellipse1336"
       style="stroke-width:0.671808;stroke-miterlimit:10;stroke-dasharray:none" />
    <path
       fill="none"
       stroke="currentcolor"
       stroke-width="0.503604"
       stroke-miterlimit="10"
       d="m 751.416,251.754 c -0.076,-0.278 -0.495,-0.401 -0.946,-0.281 -0.445,0.12 -0.748,0.442 -0.674,0.719 0.07,0.275 0.495,0.399 0.943,0.278 0.453,-0.119 0.75,-0.44 0.677,-0.716 z"
       id="path1338"
       style="stroke-width:0.671808;stroke-miterlimit:10;stroke-dasharray:none" />
    <path
       fill="none"
       stroke="currentcolor"
       stroke-width="0.503604"
       stroke-miterlimit="10"
       d="m 761.916,251.737 c 0.076,-0.277 0.495,-0.401 0.946,-0.28 0.445,0.12 0.749,0.442 0.674,0.719 -0.07,0.275 -0.495,0.399 -0.943,0.278 -0.452,-0.12 -0.75,-0.44 -0.677,-0.717 z"
       id="path1340"
       style="stroke-width:0.671808;stroke-miterlimit:10;stroke-dasharray:none" />
    <path
       fill="none"
       stroke="currentcolor"
       stroke-width="0.503604"
       stroke-miterlimit="10"
       d="m 759.981,249.735 c 2.938,0.459 4.99,1.509 4.99,2.729 0,1.644 -3.719,2.977 -8.309,2.977 -4.591,0 -8.309,-1.333 -8.309,-2.977 0,-1.215 2.032,-2.26 4.945,-2.723"
       id="path1342"
       style="stroke-width:0.671808;stroke-miterlimit:10;stroke-dasharray:none" />
    <path
       fill="none"
       stroke="currentcolor"
       stroke-width="0.503604"
       stroke-miterlimit="10"
       d="m 762.757,256.238 c 0.609,-0.28 1.506,-0.832 1.582,-1.031 0.516,-1.102 0.275,-1.793 0.275,-1.793"
       id="path1344"
       style="stroke-width:0.671808;stroke-miterlimit:10;stroke-dasharray:none" />
    <path
       fill="none"
       stroke="currentcolor"
       stroke-width="0.503604"
       stroke-miterlimit="10"
       d="m 757.278,257.316 c 1.544,-0.025 2.994,-0.216 4.325,-0.633"
       id="path1346"
       style="stroke-width:0.671808;stroke-miterlimit:10;stroke-dasharray:none" />
    <path
       fill="none"
       stroke="currentcolor"
       stroke-width="0.503604"
       stroke-miterlimit="10"
       d="m 751.735,256.644 c 1.225,0.349 2.677,0.573 4.23,0.638"
       id="path1348"
       style="stroke-width:0.671808;stroke-miterlimit:10;stroke-dasharray:none" />
    <path
       fill="none"
       stroke="currentcolor"
       stroke-width="0.503604"
       stroke-miterlimit="10"
       d="m 748.653,253.402 c 0,0 -0.041,1.055 0.241,1.547 0.204,0.485 0.808,0.924 1.672,1.29"
       id="path1350"
       style="stroke-width:0.671808;stroke-miterlimit:10;stroke-dasharray:none" />
    <path
       fill="none"
       stroke="currentcolor"
       stroke-width="0.503604"
       stroke-miterlimit="10"
       d="m 755.972,257.105 c 0,-0.246 0.289,-0.445 0.645,-0.445 0.356,0 0.645,0.199 0.645,0.445 0,0.246 -0.246,2.32 -0.601,2.32 -0.358,10e-4 -0.689,-2.073 -0.689,-2.32 z"
       id="path1352"
       style="stroke-width:0.671808;stroke-miterlimit:10;stroke-dasharray:none" />
    <path
       fill="none"
       stroke="currentcolor"
       stroke-width="0.503604"
       stroke-miterlimit="10"
       d="m 761.5,256.511 c -0.12,-0.215 0.029,-0.525 0.328,-0.694 0.301,-0.169 0.642,-0.133 0.762,0.082 0.12,0.215 0.932,2.139 0.63,2.307 -0.302,0.169 -1.597,-1.481 -1.72,-1.695 z"
       id="path1354"
       style="stroke-width:0.671808;stroke-miterlimit:10;stroke-dasharray:none" />
    <path
       fill="none"
       stroke="currentcolor"
       stroke-width="0.503604"
       stroke-miterlimit="10"
       d="m 751.785,256.558 c 0.12,-0.215 -0.029,-0.525 -0.328,-0.694 -0.3,-0.169 -0.642,-0.133 -0.762,0.082 -0.12,0.215 -0.93,2.139 -0.63,2.307 0.302,0.169 1.597,-1.482 1.72,-1.695 z"
       id="path1356"
       style="stroke-width:0.671808;stroke-miterlimit:10;stroke-dasharray:none" />
  </g>
</svg>