<svg id="interrogation" enable-background="new 0 0 24 24" viewBox="0 0 24 24" width="40" height="40"
    xmlns="http://www.w3.org/2000/svg">
    <title>interrogation</title>
  <path
     fill="none"
     stroke="currentcolor"
     stroke-width="0.5"
     stroke-linecap="round"
     stroke-linejoin="round"
     stroke-miterlimit="10"
     d="M 0.33349952,4.963051 C 0.37528852,2.046807 2.1117504,0.3335 4.9919234,0.3335 c 2.719613,0 4.39449,1.264401 4.39449,3.547347 0,3.099538 -3.12871,3.467224 -3.12871,5.914806 h -2.634934 c 0,-3.161003 2.512865,-3.323443 2.512865,-5.342972 0,-0.917569 -0.550961,-1.325865 -1.470329,-1.325865 -1.021642,0 -1.593497,0.59159 -1.613292,1.855991 z m 6.27281588,8.157142 c 0,1.02074 -0.714819,1.713307 -1.715567,1.713307 -1.001847,0 -1.696871,-0.692567 -1.696871,-1.713307 0,-0.998789 0.695024,-1.692454 1.696871,-1.692454 0.999648,0 1.715567,0.693665 1.715567,1.692454 z"
     id="path1404"
     style="stroke-width:0.667;stroke-miterlimit:10;stroke-dasharray:none" />
</svg>