<svg id="lion" enable-background="new 0 0 24 24" viewBox="0 0 24 24" width="40" height="40"
    xmlns="http://www.w3.org/2000/svg">
    <title>lion</title>
 <path
     fill="none"
     stroke="currentcolor"
     stroke-width="0.5"
     stroke-linecap="round"
     stroke-linejoin="round"
     stroke-miterlimit="10"
     d="m 17.148912,5.4663079 c 0.0066,-0.09704 0.116535,-0.183489 0.283952,-0.238128 0.0098,-0.0049 0.01887,-0.0098 0.02872,-0.01468 -0.284772,0.05138 -0.528511,0 -0.608116,-0.151684 -0.06319,-0.118248 -0.01149,-0.271563 0.118997,-0.416723 0.0033,-0.009 0.0074,-0.01468 0.0074,-0.01468 0,0 -0.51538,0.256885 -0.857599,0.26504 -0.04432,0 -0.07878,0.0024 -0.108328,0.0049 -0.205988,-0.009 -0.420183,-0.03099 -0.595806,-0.07829 -0.517022,-0.13782 -0.7345,-0.551282 -0.99219,-0.800827 -0.258511,-0.25036 -0.408693,-0.276456 -0.408693,-0.276456 0,0 -0.01888,-0.03425 0.292979,-0.009 0.311854,0.02528 0.561338,0.07095 1.473922,0.125588 1.472281,0.08807 2.480884,-0.892163 1.881795,-1.91073 -0.594165,-1.00878097 -2.150974,-1.24283197 -3.479638,-0.908474 -0.793588,0.200614 -1.800549,0.657298 -3.193225,0.94354 -0.415259,0.08481 -0.785381,-0.0261 -0.915867,-0.08807 -0.1304865,-0.06279 -0.3266265,-0.435481 0.52687,-0.44282 1.661035,-0.01549 2.117327,-0.83752497 2.16985,-0.94435597 -0.05581,0.05382 -0.517843,0.256884 -1.202281,0.281349 -0.02872,-0.0024 -0.05827,-0.0098 -0.07468,-0.01876 -0.228146,-0.12885 -0.248663,-0.38491903 -0.72301,-0.43955803 0.25687,0.24628303 0.247022,0.46973203 0.129666,0.50887603 -0.06319,0.0212 -0.139514,0.02283 -0.196961,-0.04975 -0.25851,-0.35963803 -0.663921,-0.222633 -0.663921,-0.222633 0,0 0.30693,0.09949 0.239635,0.24139 -0.01477,0.0212 -0.0517,0.02365 -0.08617,0.02691 -0.02626,0 -0.05909,8.16e-4 -0.09027,-0.01142 -0.3175995,-0.176149 -0.5326145,0.09215 -0.5326145,0.09215 0,0 0.218298,-0.04322 0.264256,0.04975 -0.334013,0.16228597 -0.589241,0.41427697 -0.530153,0.74537297 0.12228,0.680947 0.9051985,0.846495 1.7439235,0.757605 0.994651,-0.1052 1.844864,-0.541496 3.260519,-0.947618 1.414834,-0.406938 2.715595,0.03262 2.928149,0.839156 0.112431,0.419985 -0.259332,1.05608 -1.414834,1.006334 -1.185868,-0.04975 -1.438634,-0.212847 -3.152192,-0.413462 -0.827234,-0.09704 -1.537113,-0.01957 -2.043467,-0.0065 -0.505532,0.01386 -0.6754105,0.01794 -1.0127065,-0.03262 -0.338115,-0.05219 -1.240852,-0.221002 -1.247417,-0.460761 -0.0074,-0.205507 0.45383,-0.291135 0.45383,-0.291135 0,0 -0.432493,-0.08563 -0.458754,-0.344144 -0.02052,-0.212847 -0.06319,-0.41917 -0.127204,-0.565961 0.01067,-0.01631 0.02052,-0.02936 0.03119,-0.04975 0.143617,-0.26585497 0.0016,-0.53334097 -0.03447,-0.55128197 -0.03118,-0.01631 -0.303647,-0.0073 -0.468602,0.167994 -0.274924,-0.132112 -0.566262,-0.152499 -0.682797,-0.154946 v 0 c -0.0025,0 -0.0057,0 -0.0082,0 -0.0016,0 -0.0049,0 -0.0082,0 v 0 c -0.120639,0.0024 -0.430852,0.0261 -0.713983,0.171256 -0.162492,-0.190828 -0.449726,-0.200614 -0.480912,-0.184304 -0.03529,0.01713 -0.179726,0.285427 -0.03529,0.55128197 0.02134,0.03914 0.04103,0.06932 0.06073,0.0946 -0.06237,0.147606 -0.0952,0.328649 -0.113252,0.534972 -0.01888,0.230788 -0.445624,0.335988 -0.446445,0.335988 0,0 0.483375,0.110093 0.446445,0.312339 -0.04842,0.256884 -0.473527,0.403675 -0.473527,0.403675 0,0 0.436596,0.03751 0.487478,0.255254 0.02298,0.09541 -0.06319,0.179411 -0.170699,0.303368 -0.61304,0.0367 -1.637236,-0.380026 -1.637236,-0.380026 0,0 -0.753374,-0.369424 -0.876475,-0.472993 -0.194498,-0.163917 -0.615502,-0.533341 -0.756657,-0.755159 -0.04678,-0.102754 -0.0952,-0.188382 -0.143617,-0.242205 -0.115714,-0.127219 -0.260152,-0.169625 -0.410335,-0.164732 -0.04268,-0.06442 -0.09438,-0.133743 -0.114073,-0.160655 -0.115714,-0.150053 -0.493222,-0.102754 -0.76486399,-0.04485 -0.02216,-0.0261 -0.04842,-0.05382 -0.08207,-0.07829 -0.182188,-0.132112 -0.507994,0.138636 -0.507994,0.138636 0,0 0.243739,-0.0318 0.29462,0.04078 l 0.210912,-0.07666 c 0,0 -0.132948,0.08074 -0.117355,0.214478 0.01395,0.01957 0.02872,0.04241 0.0476,0.0685 0.09192,-0.02365 0.49486399,-0.147607 0.78784299,-0.0579 -0.138693,0.04322 -0.27,0.110909 -0.374225,0.173703 -0.009,-0.0073 -0.01723,-0.01468 -0.02872,-0.0212 -0.21419399,-0.137005 -0.56872399,0.119064 -0.56872399,0.119064 0,0 0.260973,-0.0065 0.346323,0.0579 0.01067,0.0082 0.01887,0.01631 0.02872,0.02365 L 1.1278345,1.6913269 c 0,0 -0.07796,0.117432 -0.05909,0.251991 0.01641,0.01957 0.02544,0.03262 0.02544,0.03262 l 0.05745,0.05953 c 0,0 0.814925,-0.234866 1.037327,-0.0082 -0.21994,-0.04648 -0.463679,0.05709 -0.626992,0.150053 -0.0066,-0.0041 -0.01149,-0.009 -0.01723,-0.01305 -0.214195,-0.136189 -0.56872399,0.119064 -0.56872399,0.119064 0,0 0.26097299,-0.0065 0.34632299,0.05872 0.01067,0.0082 0.0197,0.01794 0.03036,0.02773 l 0.133769,-0.11988 c 0,0 -0.0796,0.127219 -0.05252,0.268302 0.03857,0.08889 0.09192,0.185935 0.167416,0.258515 0.188754,0.18512 0.462037,0.125588 0.716445,0.347406 0.02544,0.02202 0.09438,0.0791 0.179726,0.150868 0.08289,0.06279 0.133769,0.135374 0.139514,0.198984 0.0049,0.06198 -0.03036,0.122326 -0.09602,0.176149 0.30693,-0.05953 0.570365,-0.0082 0.621246,0.133743 0.03611,0.102754 -0.0476,0.227526 -0.205167,0.334358 0.352067,-0.132112 0.691004,-0.114171 0.764043,0.04404 0.05581,0.119879 -0.05745,0.286243 -0.267538,0.422432 0.0049,-0.0024 0.009,-0.0049 0.01477,-0.0073 0.359453,-0.16881 0.727934,-0.164733 0.823952,0.009 0.08207,0.148422 -0.06237,0.37024 -0.326626,0.535788 v 8.15e-4 c 0.0057,-0.0033 0.01231,-0.0082 0.02052,-0.01223 0.305289,-0.156577 0.621246,-0.185119 0.804256,-0.09297 0.34386,-0.220187 0.657356,-0.456684 0.808359,-0.640172 -0.08207,0.230788 -0.340578,0.59695 -0.728754,0.972083 -0.100943,0.09786 -0.769788,0.639356 -0.886323,0.745372 -0.566262,0.439558 -1.156324,0.924784 -1.20146,0.943541 -0.138694,0.05872 -0.323344,0.195721 -0.451369,0.193275 -0.11079,-0.02528 -0.175623,-0.05219 -0.312675,-0.06279 -0.108328,-0.009 -0.199422,0.06442 -0.271641,0.172072 -0.07222,-0.01223 -0.185472,-0.01957 -0.22076,-0.02284 -0.161672,-0.01142 -0.308572,0.175334 -0.410335,0.392259 -0.06237,0.134558 -0.0517,0.337619 -0.0517,0.337619 0,0 0.04842,0.02283 0.212553,0.01876 0.01067,-0.131297 0.169879,-0.45179 0.430031,-0.659744 -0.126383,0.232419 -0.183009,0.56433 -0.168237,0.66219 0.09356,0.0065 0.231428,0 0.279027,-0.0057 8.21e-4,-0.194091 0.253587,-0.724985 0.530153,-0.702966 0.01805,0.0016 0.03939,0.0041 0.06155,0.0082 -0.238815,0.08155 -0.288876,0.703781 -0.288876,0.703781 0,0 0.750092,0.06442 1.047174,-0.02202 0.296262,-0.08563 0.272463,-0.16147 0.365198,-0.327018 0.05088,-0.09052 0.0993,-0.164732 0.202706,-0.243021 0.164954,-0.1525 0.370942,-0.22508 0.489119,-0.184304 0.06237,0.02202 0.106687,0.0791 0.130486,0.157392 0.07222,-0.282165 0.236353,-0.479517 0.397204,-0.460761 0.115714,0.01386 0.203526,0.137821 0.240456,0.314786 0.02134,-0.350668 0.185472,-0.624678 0.370943,-0.618154 0.141155,0.0049 0.256049,0.171256 0.299544,0.403676 -8.21e-4,-0.0049 -8.21e-4,-0.009 -8.21e-4,-0.01468 -0.01067,-0.371871 0.152645,-0.67687 0.362736,-0.681763 0.180548,-0.0049 0.337296,0.212847 0.385715,0.507244 -8.21e-4,-0.009 -0.0025,-0.01713 -0.0025,-0.02691 -0.02872,-0.406122 0.149362,-0.747819 0.397204,-0.763314 0.173982,-0.0106 0.337295,0.143529 0.42839,0.375948 0.0066,-0.206323 0.292158,-0.398782 0.658176,-0.437111 0.04596,-0.0049 0.0911,-0.0065 0.136232,-0.0065 0.215016,-0.0082 0.413617,-0.01957 0.494863,-0.07258 0.407873,-0.262593 0.504712,-0.693996 1.374621,-1.132738 0.1559285,-0.0791 0.8395455,-0.284612 1.1390905,-0.336804 0.61386,-0.141083 0.9569,-0.176965 1.095593,-0.143529 0.0082,0.0024 0.01641,0.0057 0.0238,0.009 0.08371,0.02365 0.17152,0.07176 0.260972,0.137005 8.21e-4,8.16e-4 0.0016,0.0016 0.0016,0.0016 0.27,0.224264 0.529332,0.618969 0.559696,0.671161 0.07714,0.135374 0.0238,0.06769 0.297083,0.254438 0.237994,0.148422 0.530152,0.286242 0.890426,0.401229 0.381611,0.12151 1.567479,0.215293 1.659394,0.227526 0.0098,0.0041 0.02216,0.0065 0.03036,0.01142 0.317599,0.178596 0.457934,0.671162 0.320882,0.938648 -0.06647,0.12885 -0.170699,0.283796 -0.324164,0.281349 -0.116535,-0.02528 -0.18383,-0.05138 -0.328268,-0.06198 -0.114073,-0.0073 -0.207629,0.06116 -0.284772,0.163101 -0.06319,-0.0098 -0.138694,-0.01713 -0.173162,-0.01957 -0.170699,-0.01223 -0.325805,0.16881 -0.432492,0.376764 -0.06565,0.128034 -0.05498,0.323755 -0.05498,0.323755 0,0 0.05006,0.0212 0.224863,0.01876 0.01067,-0.123141 0.131307,-0.417539 0.383253,-0.617338 -0.127204,0.222633 -0.183009,0.527632 -0.168237,0.618969 0.09848,0.0065 0.242918,8.16e-4 0.292979,-0.0049 0.0041,-0.162286 0.269179,-0.696442 0.560517,-0.676054 0.0197,0.0024 0.04185,0.0049 0.06565,0.009 -0.251945,0.07829 -0.305289,0.676055 -0.305289,0.676055 0,0 0.855958,0.06116 1.149758,-0.01876 0.292158,-0.0791 0.389818,-0.526817 0.419362,-0.678501 0.01231,-0.06198 0.01806,-0.119879 0.02052,-0.175334 -0.01888,-0.190828 -0.02544,-0.424878 -0.02544,-0.692364 0,-0.408569 0.162493,-0.733956 0.393101,-0.745373 0.009,0 0.0197,-8.15e-4 0.03037,-0.0016 -0.284773,-0.05953 -0.479271,-0.185935 -0.471065,-0.322125 M 7.5339105,4.5628839 c 0.02216,-0.212031 0.326627,-0.371055 0.693466,-0.335988 -0.116535,-0.12885 -0.128845,-0.403676 -0.05909,-0.520293 0.05991,-0.100307 0.173161,-0.230788 0.468602,-0.170441 -0.239635,-0.146791 -0.311854,-0.360453 -0.284772,-0.506429"
     id="path298"
     style="stroke-width:0.667;stroke-miterlimit:10;stroke-dasharray:none" />
  <path
     fill="none"
     stroke="currentcolor"
     stroke-width="0.5"
     stroke-linecap="round"
     stroke-linejoin="round"
     stroke-miterlimit="10"
     d="m 13.006994,5.9972029 c -0.03857,-0.0106 -0.0796,-0.0212 -0.123101,-0.03425 -0.363556,-0.07503 -0.681155,-0.242205 -0.681155,-0.388996 0,-0.137821 0.250304,-0.286243 0.567082,-0.361269 -0.03775,-0.06279 -0.03447,-0.06361 -0.08042,-0.129666 -0.242918,-0.358822 -0.48994,-0.52437 -0.626992,-0.557806 -0.04185,-0.0106 -0.131307,-0.009 -0.318419,0.01876 -0.40377,0.08563 -0.837904,0.163101 -0.936384,0.341697 -0.206809,0.375133 -0.136231,0.719276 0.136231,1.070759 0.253587,0.327018 0.370942,0.451791 0.224043,0.614076 -0.192037,0.181043 -0.437417,0.353114 -0.516201,0.424063 -0.136232,0.125588 -0.217478,0.256885 -0.353709,0.255254 -0.103404,-0.02446 -0.163313,-0.04975 -0.292979,-0.05872 -0.1009425,-0.0082 -0.1846515,0.05709 -0.2519455,0.155762 -0.05909,-0.0098 -0.130487,-0.01631 -0.161672,-0.01794 -0.164955,-0.01142 -0.315137,0.162286 -0.418542,0.363716 -0.06401,0.123957 -0.05416,0.313969 -0.05416,0.313969 0,0 0.04924,0.01957 0.218298,0.01713 0.01067,-0.117433 0.125563,-0.401229 0.36766,-0.592873 -0.111611,0.214478 -0.162492,0.507245 -0.148541,0.59532 0.08699,0.0057 0.216657,0 0.260973,-0.0049 0,-0.145161 0.2396355,-0.672793 0.4989675,-0.652405 0.01723,8.15e-4 0.03611,0.0033 0.05827,0.0073 -0.224042,0.07503 -0.272462,0.653221 -0.272462,0.653221 0,0 0.702493,0.06116 0.9807,-0.01957 0.260152,-0.07421 0.290517,-0.134558 0.334012,-0.271563 0.009,-0.08237 0.04021,-0.163917 0.105046,-0.243021 0.268359,-0.325387 0.61222,-0.494197 0.801794,-0.374317 0.01477,0.009 0.03201,0.01957 0.05252,0.03262 -0.09356,-0.162286 -0.114073,-0.30663 -0.03693,-0.388996 0.09109,-0.09786 0.299544,-0.09052 0.535076,0.0033 0.0025,-8.16e-4 0.0041,-0.0016 0.0066,-0.0033 -0.288876,-0.117433 -0.468603,-0.305 -0.430852,-0.479518 0.03529,-0.166363 0.261794,-0.273194 0.557235,-0.287873"
     id="path300"
     style="stroke-width:0.667;stroke-miterlimit:10;stroke-dasharray:none" />
  <path
     fill="#e9426d"
     d="m 7.0727325,2.1920509 c 0.08699,0 0.303648,-0.02773 0.303648,-0.02773 0.01231,0 0.02216,0.0073 0.02544,0.01794 0.0033,0.0106 -0.0016,0.02283 -0.01231,0.02854 l -0.298724,0.164732 c -0.0057,0.0024 -0.0098,0.0024 -0.01477,0.0024 -0.0041,0 -0.0082,0 -0.01149,-0.0024 l -0.312676,-0.164732 c -0.01149,-0.0049 -0.01641,-0.01713 -0.01395,-0.02854 0.0025,-0.0106 0.01395,-0.01794 0.02544,-0.01794 8.21e-4,0 0.224043,0.02773 0.309392,0.02773"
     id="path304"
     style="fill:none;stroke:#000000;stroke-width:0.667;stroke-miterlimit:10;stroke-dasharray:none" />
</svg>