<svg id="livre" enable-background="new 0 0 24 24" viewBox="0 0 24 24" width="40" height="40"
    xmlns="http://www.w3.org/2000/svg">
    <title>livre</title>
<path
     fill="none"
     stroke="currentcolor"
     stroke-width="0.5"
     stroke-linecap="round"
     stroke-linejoin="round"
     stroke-miterlimit="10"
     d="m 1.0655,1.3128442 h -0.246 c -0.27,0 -0.486,0.218 -0.486,0.488 V 12.293844 c 0,0.27 0.217,0.488 0.486,0.488 h 5.3700001 c 0.193,0 0.234,0.158 0.243,0.244 0.027,0.268 0.22,0.488 0.49,0.488 h 1.95 c 0.27,0 0.46,-0.221 0.489,-0.488 0.008,-0.086 0.05,-0.244 0.243,-0.244 H 14.9715 c 0.27,0 0.489,-0.218 0.489,-0.488 V 1.8008442 c 0,-0.271 -0.22,-0.488 -0.489,-0.488 h -0.243"
     id="path996"
     style="stroke-width:0.667;stroke-miterlimit:10;stroke-dasharray:none" />
  <path
     fill="none"
     stroke="currentcolor"
     stroke-width="0.5"
     stroke-linecap="round"
     stroke-linejoin="round"
     stroke-miterlimit="10"
     d="m 1.7965,11.317844 c 0,0 5.3690001,-0.285 6.1020001,0.732 V 1.2208442 C 7.4295001,0.24384421 1.7965,0.33584421 1.7965,0.33584421 Z"
     id="path998"
     style="stroke-width:0.667;stroke-miterlimit:10;stroke-dasharray:none" />
  <path
     fill="none"
     stroke="currentcolor"
     stroke-width="0.5"
     stroke-linecap="round"
     stroke-linejoin="round"
     stroke-miterlimit="10"
     d="m 13.9975,11.317844 c 0,0 -5.3669999,-0.285 -6.0999999,0.732 V 1.2208442 C 8.3665001,0.24384421 13.9975,0.33584421 13.9975,0.33584421 Z"
     id="path1000"
     style="stroke-width:0.667;stroke-miterlimit:10;stroke-dasharray:none" />
</svg>