<svg id="archeo" enable-background="new 0 0 24 24" viewBox="0 0 24 24" width="40" height="40"
    xmlns="http://www.w3.org/2000/svg">
    <title>archeo</title>
<polyline
     fill="none"
     stroke="currentcolor"
     stroke-width="0.451191"
     stroke-linecap="round"
     stroke-linejoin="round"
     stroke-miterlimit="10"
     points="   753.713,358.457 753.713,359.766 752.016,360.19 752.016,360.614 756.686,360.614 756.686,360.19 754.987,359.766 754.987,358.457     "
     id="polyline1298"
     transform="matrix(1.1086402,0,0,1.1077157,-829.61451,-384.62429)"
     style="stroke-width:0.601889;stroke-miterlimit:10;stroke-dasharray:none" />
  <path
     fill="none"
     stroke="currentcolor"
     stroke-width="0.5"
     stroke-linecap="round"
     stroke-linejoin="round"
     stroke-miterlimit="10"
     d="M 4.098442,0.3335 C 1.880053,1.3249055 0.3335,3.5480909 0.3335,6.1334994 c 0,3.5059209 2.844771,6.3483186 6.354726,6.3483186 1.753868,0 3.343658,-0.711153 4.493318,-1.859855"
     id="path1300"
     style="stroke-width:0.667;stroke-miterlimit:10;stroke-dasharray:none" />
  <ellipse
     fill="none"
     stroke="currentcolor"
     stroke-width="0.5"
     stroke-linecap="round"
     stroke-linejoin="round"
     stroke-miterlimit="10"
     cx="6.6881981"
     cy="6.1345916"
     id="circle1302"
     rx="5.4123816"
     ry="5.4078679"
     style="stroke-width:0.667;stroke-miterlimit:10;stroke-dasharray:none" />
  <path
     fill="none"
     stroke="currentcolor"
     stroke-width="0.5"
     stroke-linecap="round"
     stroke-linejoin="round"
     stroke-miterlimit="10"
     d="m 6.453194,0.7256313 v 2.8224596 c 0,0.2592055 -0.210642,0.4696715 -0.471172,0.4696715 -0.260531,0 -0.471172,0.210466 -0.471172,0.4707792 0,0.2603132 -0.210642,0.4707791 -0.471172,0.4707791 -0.260531,0 -0.471172,0.2093583 -0.471172,0.4696715 v 0.2758212 c 0,0.1251719 0.051,0.2448052 0.139688,0.3334224 l 1.60642,1.6050805 c 0.08869,0.08862 0.208424,0.137357 0.332592,0.137357 h 2.158522 c 0.259422,0 0.471172,0.210466 0.471172,0.470779 v 1.216272 c 0,0.125172 -0.051,0.244805 -0.13858,0.332314 L 8.472028,10.465776 c -0.08758,0.08751 -0.136363,0.20825 -0.136363,0.331207 v 0.490718"
     id="path1304"
     style="stroke-width:0.667;stroke-miterlimit:10;stroke-dasharray:none" />
  <path
     fill="none"
     stroke="currentcolor"
     stroke-width="0.5"
     stroke-linecap="round"
     stroke-linejoin="round"
     stroke-miterlimit="10"
     d="m 1.355666,5.2096645 0.650772,0.5195187 c 0.139689,0.112987 0.299333,0.1971734 0.466738,0.2536669 l 0.815959,0.272498 C 3.51308,6.3284571 3.714853,6.4547369 3.88004,6.6197863 l 0.282703,0.282468 c 0.509975,0.509549 0.590905,1.307105 0.190686,1.905271 -0.165187,0.249236 -0.253878,0.540565 -0.253878,0.838541 v 0.06535 c 0,0.274714 0.07206,0.5427807 0.215076,0.7776167 l 0.411305,0.685676"
     id="path1306"
     style="stroke-width:0.667;stroke-miterlimit:10;stroke-dasharray:none" />
  <path
     fill="none"
     stroke="currentcolor"
     stroke-width="0.5"
     stroke-linecap="round"
     stroke-linejoin="round"
     stroke-miterlimit="10"
     d="M 9.742529,1.6694051 9.001958,2.4115746 c -0.126385,0.1240642 -0.19623,0.2935447 -0.19623,0.4707792 0,0.3677616 0.297116,0.6657371 0.666293,0.6657371 0.177383,0 0.345896,0.069786 0.471172,0.194958 l 1.021058,1.0213139 c 0.125276,0.1240641 0.195121,0.2935446 0.195121,0.4696714 V 6.193316 c 0,0.1152025 0.03104,0.2292972 0.08758,0.3300993 l 0.639685,1.118793"
     id="path1308"
     style="stroke-width:0.667;stroke-miterlimit:10;stroke-dasharray:none" />
</svg>