<svg id="agriculture" enable-background="new 0 0 24 24" viewBox="0 0 24 24"
    xmlns="http://www.w3.org/2000/svg">
    <title>agriculture</title>
<path
     fill="none"
     stroke="currentColor"
     stroke-width="0.5"
     stroke-linecap="round"
     stroke-linejoin="round"
     stroke-miterlimit="10"
     d="M 10.674457,4.5840521 H 4.340684 c -0.474402,0 -0.896317,-0.215001 -1.129481,-0.576364 -0.192789,-0.299789 -0.221051,-0.656105 -0.07671,-0.97911 L 3.52209,2.1716041 C 3.770394,1.6245131 4.199375,1.1612021 4.76361,0.8311311 5.323809,0.5061061 5.975859,0.3335 6.651125,0.3335 H 8.36402 c 0.675266,0 1.329335,0.1726061 1.886505,0.4976311 0.566254,0.330071 0.995235,0.793382 1.24152,1.340473 l 0.388606,0.856974 c 0.145349,0.321996 0.117087,0.678312 -0.07671,0.97911 -0.232155,0.361363 -0.656088,0.576364 -1.129481,0.576364 z"
     id="path534"
     style="stroke-width:0.667;stroke-miterlimit:10;stroke-dasharray:none" />
  <ellipse
     fill="none"
     stroke="currentColor"
     stroke-width="0.5"
     stroke-linecap="round"
     stroke-linejoin="round"
     stroke-miterlimit="10"
     cx="6.1424084"
     cy="2.4592853"
     id="circle536"
     style="stroke-width:0.667;stroke-miterlimit:10;stroke-dasharray:none"
     rx="0.90237337"
     ry="0.9023968" />
  <path
     fill="none"
     stroke="currentColor"
     stroke-width="0.5"
     stroke-linecap="round"
     stroke-linejoin="round"
     stroke-miterlimit="10"
     d="m 8.919169,3.3616771 c -0.497618,0 -0.903383,-0.404766 -0.903383,-0.902396 0,-0.497631 0.404756,-0.902397 0.903383,-0.902397 0.495599,0 0.901364,0.404766 0.901364,0.902397 -10e-4,0.496621 -0.405765,0.902396 -0.901364,0.902396 z"
     id="path538"
     style="stroke-width:0.667;stroke-miterlimit:10;stroke-dasharray:none" />
  <path
     fill="none"
     stroke="currentColor"
     stroke-width="0.5"
     stroke-linecap="round"
     stroke-linejoin="round"
     stroke-miterlimit="10"
     d="m 10.609857,8.0896711 c 0,-0.739884 0.603601,-1.093172 1.342457,-1.093172 h 1.371729 c 0.739865,0 1.342457,0.602608 1.342457,1.342492 v 4.1445649 c 0,0.739885 -0.602592,1.342492 -1.342457,1.342492 h -1.371729 c -0.627825,0 -1.165818,-0.178662 -1.307129,-0.792373"
     id="path540"
     style="stroke-width:0.667;stroke-miterlimit:10;stroke-dasharray:none" />
  <path
     fill="none"
     stroke="currentColor"
     stroke-width="0.5"
     stroke-linecap="round"
     stroke-linejoin="round"
     stroke-miterlimit="10"
     d="M 10.879358,12.974121 H 4.269019 c -0.311894,0 -0.617732,-0.106995 -0.861999,-0.302818 L 2.816541,12.197898 C 2.301764,11.786066 2.154397,11.064351 2.459225,10.482941 L 3.337374,8.8134061 c 0.236192,-0.454227 0.703528,-0.735847 1.218305,-0.735847 h 6.035 c 0.512758,0 0.981104,0.28162 1.219315,0.735847 l 0.877139,1.6695349 c 0.305838,0.582419 0.154433,1.304135 -0.357316,1.714957 l -0.591488,0.473405 c -0.241239,0.194813 -0.548086,0.302818 -0.858971,0.302818 z"
     id="path542"
     style="stroke-width:0.667;stroke-miterlimit:10;stroke-dasharray:none" />
  <line
     fill="none"
     stroke="currentColor"
     stroke-width="0.5"
     stroke-linecap="round"
     stroke-linejoin="round"
     stroke-miterlimit="10"
     x1="5.1027641"
     y1="11.238976"
     x2="9.0130405"
     y2="11.238976"
     id="line544"
     style="stroke-width:0.667;stroke-miterlimit:10;stroke-dasharray:none" />
  <path
     fill="none"
     stroke="currentColor"
     stroke-width="0.5"
     stroke-linecap="round"
     stroke-linejoin="round"
     stroke-miterlimit="10"
     d="m 11.72117,8.4540621 h 1.198117 c 0.136265,0 0.259407,0.08378 0.333091,0.225095 0.03634,0.07369 0.09589,0.07974 0.119105,0.07873 0.02322,-10e-4 0.08277,-0.0111 0.117087,-0.08782 l 0.07469,-0.169578 c 0.06258,-0.137277 0.168564,-0.227113 0.292716,-0.24831 0.125161,-0.0212 0.248304,0.03129 0.33511,0.144343 l 0.389615,0.493593"
     id="path546"
     style="stroke-width:0.667;stroke-miterlimit:10;stroke-dasharray:none" />
  <path
     fill="none"
     stroke="currentColor"
     stroke-width="0.5"
     stroke-linecap="round"
     stroke-linejoin="round"
     stroke-miterlimit="10"
     d="m 12.537747,9.6360611 h 0.38154 c 0.135255,0 0.259407,0.08378 0.331072,0.225094 0.03836,0.07369 0.09791,0.07974 0.121124,0.07873 0.02322,-10e-4 0.08277,-0.0111 0.117087,-0.08782 l 0.07469,-0.169577 c 0.06258,-0.137278 0.168564,-0.227114 0.292716,-0.247302 0.125161,-0.0212 0.248304,0.03129 0.33511,0.143334 l 0.389615,0.4935929"
     id="path548"
     style="stroke-width:0.667;stroke-miterlimit:10;stroke-dasharray:none" />
  <path
     fill="none"
     stroke="currentColor"
     stroke-width="0.5"
     stroke-linecap="round"
     stroke-linejoin="round"
     stroke-miterlimit="10"
     d="m 12.919287,10.819068 c 0.136265,0 0.259407,0.08378 0.333091,0.225095 0.03634,0.07369 0.09589,0.07974 0.119105,0.07873 0.02322,-10e-4 0.08277,-0.01211 0.117087,-0.08782 l 0.07469,-0.168568 c 0.06258,-0.137278 0.168564,-0.228123 0.292716,-0.248311 0.125161,-0.0212 0.248304,0.03129 0.33511,0.143334 l 0.389615,0.493593"
     id="path550"
     style="stroke-width:0.667;stroke-miterlimit:10;stroke-dasharray:none" />
  <path
     fill="none"
     stroke="currentColor"
     stroke-width="0.5"
     stroke-linecap="round"
     stroke-linejoin="round"
     stroke-miterlimit="10"
     d="m 12.685114,12.003086 h 0.233164 c 0.136264,0 0.259407,0.08378 0.333091,0.225094 0.03634,0.07369 0.09589,0.07974 0.119105,0.07873 0.02322,-10e-4 0.08277,-0.0111 0.117086,-0.08782 l 0.07469,-0.168569 c 0.06258,-0.137277 0.168565,-0.228123 0.292717,-0.24831 0.125161,-0.0212 0.248304,0.03129 0.335109,0.142324 l 0.389616,0.494602"
     id="path552"
     style="stroke-width:0.667;stroke-miterlimit:10;stroke-dasharray:none" />
  <path
     fill="none"
     stroke="currentColor"
     stroke-width="0.5"
     stroke-linecap="round"
     stroke-linejoin="round"
     stroke-miterlimit="10"
     d="m 4.390143,8.0896711 c 0,-0.739884 -0.602592,-1.093172 -1.342457,-1.093172 H 1.675957 c -0.738856,0 -1.342457,0.602608 -1.342457,1.342492 v 4.1445649 c 0,0.739885 0.603601,1.342492 1.342457,1.342492 h 1.371729 c 0.627826,0 1.165818,-0.178662 1.307129,-0.792373"
     id="path554"
     style="stroke-width:0.667;stroke-miterlimit:10;stroke-dasharray:none" />
  <path
     fill="none"
     stroke="currentColor"
     stroke-width="0.5"
     stroke-linecap="round"
     stroke-linejoin="round"
     stroke-miterlimit="10"
     d="M 3.592743,8.4540621 H 2.282586 c -0.150395,0 -0.289688,0.08378 -0.372456,0.225095 -0.04441,0.07369 -0.110021,0.07974 -0.136264,0.07873 -0.02624,-10e-4 -0.09185,-0.0111 -0.130209,-0.08782 l -0.0858,-0.169578 c -0.06763,-0.137277 -0.189761,-0.227113 -0.328044,-0.24831 -0.139292,-0.0212 -0.274547,0.03129 -0.375484,0.144343 l -0.435037,0.493593"
     id="path556"
     style="stroke-width:0.667;stroke-miterlimit:10;stroke-dasharray:none" />
  <path
     fill="none"
     stroke="currentColor"
     stroke-width="0.5"
     stroke-linecap="round"
     stroke-linejoin="round"
     stroke-miterlimit="10"
     d="M 2.708539,9.6360611 H 2.282586 c -0.150395,0 -0.289688,0.08378 -0.372456,0.225094 -0.04441,0.07369 -0.110021,0.07974 -0.136264,0.07873 -0.02624,-10e-4 -0.09185,-0.0111 -0.130209,-0.08782 l -0.0858,-0.168568 C 1.490227,9.5452101 1.368096,9.4553741 1.229813,9.4351861 1.09153,9.4149961 0.955266,9.4664761 0.854329,9.5785201 L 0.419292,10.072113"
     id="path558"
     style="stroke-width:0.667;stroke-miterlimit:10;stroke-dasharray:none" />
  <path
     fill="none"
     stroke="currentColor"
     stroke-width="0.5"
     stroke-linecap="round"
     stroke-linejoin="round"
     stroke-miterlimit="10"
     d="m 2.282586,10.819068 c -0.150395,0 -0.289688,0.08378 -0.372456,0.225095 -0.04441,0.07369 -0.110021,0.07974 -0.136264,0.07873 -0.02624,-10e-4 -0.09185,-0.01211 -0.130209,-0.08782 l -0.0858,-0.168568 c -0.06763,-0.137278 -0.189761,-0.227113 -0.328044,-0.248311 -0.139292,-0.0212 -0.274547,0.03129 -0.375484,0.143334 l -0.435037,0.493593"
     id="path560"
     style="stroke-width:0.667;stroke-miterlimit:10;stroke-dasharray:none" />
  <path
     fill="none"
     stroke="currentColor"
     stroke-width="0.5"
     stroke-linecap="round"
     stroke-linejoin="round"
     stroke-miterlimit="10"
     d="M 2.574293,12.003086 H 2.282586 c -0.150395,0 -0.289688,0.08378 -0.372456,0.225094 -0.04441,0.07369 -0.110021,0.07974 -0.136264,0.07873 -0.02624,-10e-4 -0.09185,-0.0111 -0.130209,-0.08782 l -0.0858,-0.168569 c -0.06763,-0.137277 -0.189761,-0.228123 -0.328044,-0.24831 -0.139292,-0.0212 -0.274547,0.03129 -0.375484,0.142324 l -0.435037,0.494602"
     id="path562"
     style="stroke-width:0.667;stroke-miterlimit:10;stroke-dasharray:none" />
  <line
     fill="none"
     stroke="currentColor"
     stroke-width="0.5"
     stroke-linecap="round"
     stroke-linejoin="round"
     stroke-miterlimit="10"
     x1="6.9599934"
     y1="4.6123166"
     x2="6.9599934"
     y2="8.032136"
     id="line564"
     style="stroke-width:0.667;stroke-miterlimit:10;stroke-dasharray:none" />
  <line
     fill="none"
     stroke="currentColor"
     stroke-width="0.5"
     stroke-linecap="round"
     stroke-linejoin="round"
     stroke-miterlimit="10"
     x1="8.0904789"
     y1="4.6123166"
     x2="8.0904789"
     y2="8.032136"
     id="line566"
     style="stroke-width:0.667;stroke-miterlimit:10;stroke-dasharray:none" />
</svg>