<svg id="techno" enable-background="new 0 0 24 24" viewBox="0 0 24 24" width="40" height="40"
    xmlns="http://www.w3.org/2000/svg">
    <title>techno</title>
<path
     fill="none"
     stroke="currentcolor"
     stroke-width="0.5"
     stroke-linecap="round"
     stroke-linejoin="round"
     stroke-miterlimit="10"
     d="M 5.070514,6.716035 V 5.950401 c 0,-0.09444 0.04273,-0.184382 0.115812,-0.245093 L 7.431712,3.835631 6.417521,0.3335 H 6.017242 v 2.709514 c 0,0.116925 -0.06634,0.22598 -0.167532,0.28107 l -1.792262,0.95114 c -0.09557,0.04947 -0.20801,0.04947 -0.300209,0 L 1.966102,3.324084 C 1.859286,3.268994 1.796321,3.159939 1.796321,3.043014 V 0.3335 H 1.394917 l -1.01419,3.502131 2.24651,1.869677 c 0.07196,0.06071 0.114687,0.149529 0.114687,0.245093 v 1.603222"
     id="path568"
     style="stroke-width:0.667;stroke-miterlimit:10;stroke-dasharray:none" />
  <path
     fill="none"
     stroke="currentcolor"
     stroke-width="0.5"
     stroke-linecap="round"
     stroke-linejoin="round"
     stroke-miterlimit="10"
     d="m 14.833503,15.151505 v -0.571134 l -1.326768,-0.433972 c -0.105691,-0.03485 -0.187771,-0.124795 -0.211383,-0.234974 -0.03935,-0.182134 -0.0877,-0.364267 -0.145045,-0.540779 -0.03373,-0.106807 -0.009,-0.224856 0.06634,-0.309177 l 0.932111,-1.038834 -0.57006,-0.989366 -1.36837,0.287815 c -0.11019,0.02361 -0.226001,-0.01349 -0.302459,-0.09781 -0.124806,-0.136038 -0.257483,-0.268703 -0.395781,-0.395746 -0.08208,-0.07533 -0.119184,-0.190004 -0.0967,-0.301307 L 11.703229,9.159097 10.713775,8.587963 9.673724,9.51999 C 9.590524,9.59419 9.473584,9.620051 9.36452,9.58632 9.189116,9.52898 9.008091,9.481762 8.824817,9.441288 8.714628,9.417678 8.623553,9.33673 8.589822,9.228799 L 8.155811,7.901025 H 7.012317 L 6.577182,9.228799 C 6.544572,9.33673 6.454625,9.416554 6.343311,9.441288 6.158913,9.481758 5.977888,9.530108 5.802485,9.58632 5.694544,9.62117 5.576484,9.59532 5.49328,9.51999 L 4.453229,8.587963 3.464899,9.159097 3.751616,10.526221 c 0.02361,0.111303 -0.01349,0.224856 -0.0967,0.301307 -0.137174,0.124795 -0.268726,0.25746 -0.395781,0.395746 -0.07533,0.08432 -0.19002,0.121422 -0.302458,0.09781 l -1.367246,-0.287815 -0.571185,0.989366 0.933235,1.038834 c 0.07533,0.08432 0.09895,0.20237 0.06634,0.309177 -0.05622,0.177636 -0.105692,0.358645 -0.145045,0.540779 -0.02361,0.110179 -0.105692,0.200121 -0.213633,0.234974 L 0.3335,14.580371 v 0.571134"
     id="path570"
     style="stroke-width:0.667;stroke-miterlimit:10;stroke-dasharray:none" />
  <path
     fill="none"
     stroke="currentcolor"
     stroke-width="0.5"
     stroke-linecap="round"
     stroke-linejoin="round"
     stroke-miterlimit="10"
     d="m 5.130107,15.151505 v 0 c 0,-1.354757 1.099643,-2.456551 2.45452,-2.456551 1.354878,0 2.45677,1.101794 2.45677,2.455427"
     id="path572"
     style="stroke-width:0.667;stroke-miterlimit:10;stroke-dasharray:none" />
  <path
     fill="none"
     stroke="currentcolor"
     stroke-width="0.5"
     stroke-linecap="round"
     stroke-linejoin="round"
     stroke-miterlimit="10"
     d="m 2.991536,15.151505 c 0,-2.533002 2.060988,-4.592682 4.594216,-4.592682 2.529854,0 4.591967,2.05968 4.591967,4.592682"
     id="path574"
     style="stroke-width:0.667;stroke-miterlimit:10;stroke-dasharray:none" />
</svg>