<svg id="vr" enable-background="new 0 0 24 24" viewBox="0 0 24 24" width="40" height="40"
    xmlns="http://www.w3.org/2000/svg">
    <title>vr</title>
  <g
     id="g110"
     transform="matrix(1.109317,0,0,1.109399,-646.39389,-214.40155)"
     style="stroke-width:0.601249;stroke-miterlimit:10;stroke-dasharray:none">
    <path
       fill="none"
       stroke="currentcolor"
       stroke-width="0.450711"
       stroke-linecap="round"
       stroke-linejoin="round"
       stroke-miterlimit="10"
       d="m 586.609,197.078 0.199,0.022 c -0.032,0.051 -0.05,0.105 -0.059,0.163 l -0.079,0.709 -0.161,-0.018 c -0.1,-0.011 -0.173,-0.103 -0.161,-0.203 l 0.059,-0.511 c 0.012,-0.1 0.103,-0.173 0.202,-0.162 z m 5.962,0.185 0.103,0.908 c 0.069,0.613 -0.505,1.121 -1.122,1.121 -0.668,0 -1.233,-0.274 -1.767,-0.274 h -0.146 c -0.533,0 -1.097,0.274 -1.767,0.274 -0.615,0 -1.19,-0.508 -1.122,-1.121 l 0.104,-0.908 c 0.132,-1.164 5.585,-1.164 5.717,0 z m 0.243,-0.185 -0.199,0.022 c 0.032,0.051 0.052,0.105 0.059,0.163 l 0.079,0.709 0.161,-0.018 c 0.1,-0.011 0.173,-0.103 0.161,-0.203 l -0.059,-0.511 c -0.011,-0.1 -0.102,-0.173 -0.202,-0.162 z"
       id="path102"
       style="stroke-width:0.601249;stroke-miterlimit:10;stroke-dasharray:none" />
    <path
       fill="none"
       stroke="currentcolor"
       stroke-width="0.450711"
       stroke-linecap="round"
       stroke-linejoin="round"
       stroke-miterlimit="10"
       d="m 596.43,206.626 c -0.168,-1.04 -0.343,-1.608 -0.841,-2.569 -1.562,-0.619 -2.839,-1.457 -4.222,-2.423 l -1.652,4.092 -1.65,-4.092 c -1.383,0.966 -2.659,1.804 -4.224,2.423 -0.508,0.974 -0.675,1.518 -0.845,2.572"
       id="path104"
       style="stroke-width:0.601249;stroke-miterlimit:10;stroke-dasharray:none" />
    <path
       fill="none"
       stroke="currentcolor"
       stroke-width="0.450711"
       stroke-linecap="round"
       stroke-linejoin="round"
       stroke-miterlimit="10"
       d="m 587.617,199.4 v 0 c 0.015,0.123 0.029,0.269 0.044,0.392 0.1,0.802 0.911,1.429 1.488,1.889 0.167,0.132 0.964,0.132 1.131,0 0.58,-0.459 1.389,-1.087 1.491,-1.889 0.015,-0.123 0.029,-0.269 0.044,-0.392"
       id="path106"
       style="stroke-width:0.601249;stroke-miterlimit:10;stroke-dasharray:none" />
    <path
       fill="none"
       stroke="currentcolor"
       stroke-width="0.450711"
       stroke-linecap="round"
       stroke-linejoin="round"
       stroke-miterlimit="10"
       d="m 592.319,196.747 c 0.097,-0.389 0.114,-0.813 0.108,-1.14 -0.214,-0.942 -0.74,-1.438 -1.351,-1.65 l -0.376,0.113 c -0.538,-0.538 -1.178,-0.577 -1.971,-0.46 -1.392,0.664 -2.095,1.885 -1.705,3.201"
       id="path108"
       style="stroke-width:0.601249;stroke-miterlimit:10;stroke-dasharray:none" />
  </g>
</svg>