<?xml version="1.0" encoding="UTF-8" standalone="no"?>
<svg xmlns:dc="http://purl.org/dc/elements/1.1/"
  xmlns:cc="http://creativecommons.org/ns#"
  xmlns:rdf="http://www.w3.org/1999/02/22-rdf-syntax-ns#"
  xmlns:svg="http://www.w3.org/2000/svg"
  xmlns="http://www.w3.org/2000/svg" id="svg235" xml:space="preserve" enable-background="new 0 0 850.394 841.89" viewBox="0 0 1247.2441 1247.2441" height="100%" width="100%" y="0px" x="0px" version="1.1">
  <metadata id="metadata241">
    <rdf:RDF>
      <cc:Work rdf:about="">
        <dc:format>image/svg+xml</dc:format>
        <dc:type rdf:resource="http://purl.org/dc/dcmitype/StillImage" />
        <dc:title></dc:title>
      </cc:Work>
    </rdf:RDF>
  </metadata>
  <defs id="defs239">
    <clipPath clipPathUnits="userSpaceOnUse" id="clipPath9288-1">
      <path d="M 0,6962.785 H 9837.817 V 0 H 0 Z" id="path9286-2" />
    </clipPath>
    <clipPath id="clipPath9288-1-5" clipPathUnits="userSpaceOnUse">
      <path id="path9286-2-9" d="M 0,6962.785 H 9837.817 V 0 H 0 Z" />
    </clipPath>
  </defs>
  <g id="fond_blanc" style="display:inline">
    <path d="m 745.64033,1053.58 -50.2213,-27.3813 c -42.1573,-22.9853 -92.3626,-22.7 -134.256,0.7653 l -49.9066,27.952 c -105.496,59.0881 -229.724,-34.6706 -210.2187,-158.65853 l 9.228,-58.6534 c 7.7453,-49.2359 -8.056,-99.3386 -42.2533,-133.9813 l -40.7387,-41.2693 c -86.11871,-87.24 -39.744,-240.3547 78.4733,-259.1013 v 0 c 81.9547,-12.9974 152.556,-67.556 188.7933,-145.8974 52.272,-113.0053 205.16,-113.8773 258.7187,-1.4746 l 25.336,53.172 c 21.2667,44.6346 62.0613,75.4226 109.088,82.332 l 56.0213,8.2306 c 118.42537,17.3974 166.54137,169.9747 81.42397,258.1894 l -40.26657,41.7306 c -33.8,35.0307 -49.028,85.3107 -40.7227,134.456 l 9.896,58.544 c 20.9187,123.75723 -102.232,218.92533 -208.396,161.04523 z" style="display:inline;fill:#ffffff;stroke:none;stroke-width:8;stroke-linecap:butt;stroke-linejoin:miter;stroke-miterlimit:10;stroke-dasharray:none;stroke-opacity:1" id="path8334-3" />
  </g>
  <g style="display:inline;" id="texte_posture">
    <g id="g12095" style="display:inline" transform="matrix(1.3333333,0,0,-1.3333333,-5188.0985,6268.5125)">
      <text transform="matrix(0.94303505,-0.3326934,-0.3326934,-0.94303505,4249.9058,3804.8503)" style="font-variant:normal;font-weight:bold;font-stretch:normal;font-size:39.9999px;font-family:Montserrat;-inkscape-font-specification:Montserrat-Bold;writing-mode:lr-tb;fill:#122c2f;fill-opacity:1;fill-rule:nonzero;stroke:none" id="text8494">
        <tspan x="0" y="0" id="tspan8492">J</tspan>
      </text>
      <text transform="matrix(0.96064521,-0.27777828,-0.27777828,-0.96064521,4273.0044,3796.9729)" style="font-variant:normal;font-weight:bold;font-stretch:normal;font-size:39.9999px;font-family:Montserrat;-inkscape-font-specification:Montserrat-Bold;writing-mode:lr-tb;fill:#122c2f;fill-opacity:1;fill-rule:nonzero;stroke:none" id="text8498">
        <tspan x="0" y="0" id="tspan8496">’</tspan>
      </text>
      <text transform="matrix(0.97834293,-0.20699062,-0.20699062,-0.97834293,4285.3511,3793.125)" style="font-variant:normal;font-weight:bold;font-stretch:normal;font-size:39.9999px;font-family:Montserrat;-inkscape-font-specification:Montserrat-Bold;writing-mode:lr-tb;fill:#122c2f;fill-opacity:1;fill-rule:nonzero;stroke:none" id="text8502">
        <tspan x="0" y="0" id="tspan8500">A</tspan>
      </text>
      <text transform="matrix(0.99143939,-0.13056775,-0.13056775,-0.99143939,4318.8428,3786.5315)" style="font-variant:normal;font-weight:bold;font-stretch:normal;font-size:39.9999px;font-family:Montserrat;-inkscape-font-specification:Montserrat-Bold;writing-mode:lr-tb;fill:#122c2f;fill-opacity:1;fill-rule:nonzero;stroke:none" id="text8506">
        <tspan x="0" y="0" id="tspan8504">I</tspan>
      </text>
      <text transform="matrix(0.99960251,-0.02819257,-0.02819257,-0.99960251,4346.4209,3783.3799)" style="font-variant:normal;font-weight:bold;font-stretch:normal;font-size:39.9999px;font-family:Montserrat;-inkscape-font-specification:Montserrat-Bold;writing-mode:lr-tb;fill:#122c2f;fill-opacity:1;fill-rule:nonzero;stroke:none" id="text8510">
        <tspan x="0" y="0" id="tspan8508">T</tspan>
      </text>
      <text transform="matrix(0.99805293,0.06237268,0.06237268,-0.99805293,4374.3047,3782.6829)" style="font-variant:normal;font-weight:bold;font-stretch:normal;font-size:39.9999px;font-family:Montserrat;-inkscape-font-specification:Montserrat-Bold;writing-mode:lr-tb;fill:#122c2f;fill-opacity:1;fill-rule:nonzero;stroke:none" id="text8514">
        <tspan x="0" y="0" id="tspan8512">E</tspan>
      </text>
      <text transform="matrix(0.98767357,0.15652767,0.15652767,-0.98767357,4404.8335,3784.792)" style="font-variant:normal;font-weight:bold;font-stretch:normal;font-size:40px;font-family:Montserrat;-inkscape-font-specification:Montserrat-Bold;writing-mode:lr-tb;fill:#122c2f;fill-opacity:1;fill-rule:nonzero;stroke:none" id="text8518">
        <tspan x="0" y="0" id="tspan8516">S</tspan>
      </text>
      <text transform="matrix(0.96937431,0.24558796,0.24558796,-0.96937431,4433.7935,3789.5762)" style="font-variant:normal;font-weight:bold;font-stretch:normal;font-size:39.9999px;font-family:Montserrat;-inkscape-font-specification:Montserrat-Bold;writing-mode:lr-tb;fill:#122c2f;fill-opacity:1;fill-rule:nonzero;stroke:none" id="text8522">
        <tspan x="0" y="0" id="tspan8520">T</tspan>
      </text>
      <text transform="matrix(0.94245595,0.33433034,0.33433034,-0.94245595,4460.9556,3796.5713)" style="font-variant:normal;font-weight:bold;font-stretch:normal;font-size:40px;font-family:Montserrat;-inkscape-font-specification:Montserrat-Bold;writing-mode:lr-tb;fill:#122c2f;fill-opacity:1;fill-rule:nonzero;stroke:none" id="text8526">
        <tspan x="0" y="0" id="tspan8524">É</tspan>
      </text>
    </g>
  </g>
  <g style="display:inline" id="filet_separation_theme">
    <g style="display:inline;stroke:currentColor;stroke-width:2;stroke-miterlimit:4;stroke-dasharray:none" id="g8304" transform="matrix(1.3333333,0,0,-1.3333333,625.15013,863.08644)">
      <path d="M 0,0 -0.238,-58.985" style="fill:none;stroke:currentColor;stroke-width:2;stroke-linecap:butt;stroke-linejoin:miter;stroke-miterlimit:4;stroke-dasharray:none;stroke-opacity:1" id="path8306" />
    </g>
  </g>
  <g style="display:inline" id="picto_theme">
    <g style="display:inline;stroke-width:2;stroke-miterlimit:4;stroke-dasharray:none" id="g9282" transform="matrix(1.3333333,0,0,-1.3333333,-5181.4528,7911.3389)">
      <g style="stroke-width:2;stroke-miterlimit:4;stroke-dasharray:none" clip-path="url(#clipPath9288-1-5)" id="g9284">
        <g style="stroke-width:2;stroke-miterlimit:4;stroke-dasharray:none" transform="translate(4429.9297,5217.0918)" id="g9290">
          <path id="path9292" style="fill:none;stroke:currentColor;stroke-width:2;stroke-linecap:butt;stroke-linejoin:miter;stroke-miterlimit:4;stroke-dasharray:none;stroke-opacity:1" d="M 0,0 H 22.033 L 31.488,15.364 40.858,0 H 63.313 L 43.307,30.306 62.47,59.093 H 40.437 L 31.826,44.994 23.3,59.093 H 0.845 l 19.162,-29.04 z" />
        </g>
      </g>
    </g>
  </g>
  <g style="display:inline" id="texte_picto_theme">
    <text id="text8322" style="font-variant:normal;font-weight:bold;font-stretch:normal;font-size:23.9999px;font-family:Montserrat;-inkscape-font-specification:Montserrat-Bold;writing-mode:lr-tb;display:inline;fill:currentColor;fill-opacity:1;fill-rule:nonzero;stroke:none;stroke-width:1.33333" transform="rotate(0.23141256)" x="727.20667" y="830.86444">
      <tspan id="tspan8320" y="830.86444" x="727.20667 741.87073 760.7345 776.91077 798.75061" style="stroke-width:1.33333">THEME</tspan>
    </text>
  </g>
  <g style="display:inline" id="picto_categorie">
    <g id="g651" style="display:inline" transform="translate(51.92612)">
      <path id="path9156" style="display:inline;fill:none;fill-opacity:1;fill-rule:nonzero;stroke:currentColor;stroke-width:2.66667;stroke-miterlimit:4;stroke-dasharray:none" d="m 441.49941,934.72044 -4.5147,-12.272 c -0.3227,-0.876 -1.1213,-1.2466 -1.9053,-1.1226 l -7.736,1.5186 c -1.336,-1.8306 -3.1654,-3.6453 -4.8867,-5.1693 l 2.0333,-7.548 c 0.1694,-0.892 -0.2453,-1.5693 -0.8453,-1.8467 l -11.9893,-5.54 c -0.7987,-0.3706 -1.676,-0.047 -1.9534,0.552 l -4.4306,6.44 c -2.276,-0.324 -4.644,-0.448 -7.196,-0.172 l -3.856,-6.8746 c -0.4147,-0.6774 -1.2147,-1.0467 -2.0907,-0.724 l -12.272,4.5146 c -0.8773,0.3214 -1.2467,1.12 -1.124,1.9054 l 1.5187,7.7346 c -1.9227,1.536 -3.6454,3.1654 -5.168,4.8867 l -7.5494,-2.0333 c -1.1066,-0.7547 -1.7826,-0.3387 -2.152,0.46 l -5.5426,11.9906 c -0.368,0.7987 -0.047,1.676 0.5533,1.952 l 6.44,4.4334 c -0.324,2.2746 -0.448,4.6426 -0.172,7.1946 l -6.876,3.856 c -0.676,0.4147 -1.0453,1.2147 -0.724,2.0907 l 4.5147,12.272 c 0.3226,0.876 1.1226,1.2467 1.9066,1.124 l 7.7347,-1.5187 c 1.5373,1.9227 3.1653,3.6467 4.7947,5.3694 l -2.0334,7.548 c -0.1693,0.892 0.2454,1.5693 0.844,1.8453 l 11.9907,5.5413 c 0.8,0.3694 1.676,0.047 1.9533,-0.552 l 4.432,-6.44 c 2.4747,0.4147 4.8427,0.54 7.1027,0.372 l 3.856,6.8747 c 0.4147,0.676 1.2133,1.0453 2.0907,0.7227 l 12.272,-4.5147 c 0.876,-0.3213 1.2466,-1.12 1.1226,-1.904 l -1.5173,-7.736 c 1.9227,-1.536 3.8453,-3.0733 5.368,-4.7947 l 7.5493,2.0347 c 0.8907,0.1693 1.568,-0.2467 1.8454,-0.8453 l 5.5413,-11.9907 c 0.3693,-0.8 0.047,-1.676 -0.5533,-1.9533 l -6.44,-4.4307 c 0.324,-2.2747 0.448,-4.644 0.1733,-7.196 l 6.8747,-3.856 c 1.0613,-0.7213 1.2306,-1.6133 1.016,-2.1987" />
      <path id="path9160" style="display:inline;fill:none;fill-opacity:1;fill-rule:nonzero;stroke:currentColor;stroke-width:2.66667;stroke-miterlimit:4;stroke-dasharray:none" d="m 385.99111,936.23134 c -3.6013,7.7934 -0.1613,17.1427 7.632,20.744 7.7934,3.604 17.144,0.1627 20.7454,-7.6293 3.6026,-7.7947 0.1626,-17.1453 -7.6307,-20.7467 -7.7933,-3.6013 -17.144,-0.1626 -20.7467,7.632" />
      <path d="m 481.51631,884.33984 -3.2,4.8266 c -1.584,-0.248 -3.46,-0.3866 -5.228,-0.2333 l -2.9186,-5.2293 c -0.4147,-0.6774 -1.2147,-1.0467 -2.0907,-0.724 l -9.6427,3.5466 c -0.876,0.3227 -1.2466,1.1214 -1.1226,1.9067 l 1.1653,5.8733 c -1.4467,1.0307 -2.692,2.1507 -3.8307,3.5654 l -5.5653,-1.6014 c -0.892,-0.1693 -1.568,0.244 -1.8453,0.8454 l -4.248,9.192 c -0.3694,0.7986 -0.048,1.676 0.552,1.952 l 4.8266,3.2013 c -0.2466,1.584 -0.3866,3.4587 -0.2333,5.2267 l -5.2293,2.92 c -0.676,0.4146 -1.0467,1.2133 -0.724,2.0906 l 3.548,9.6414 c 0.3213,0.8773 1.1213,1.2466 1.9053,1.124 l 5.8747,-1.1654 c 1.0293,1.4454 2.1506,2.692 3.5653,3.8294 l -1.6027,5.5653 c -0.1693,0.892 0.2454,1.5693 0.8454,1.8467 l 9.192,4.2466 c 0.8,0.3707 1.676,0.048 1.9533,-0.552 l 3.2,-4.8266 c 1.784,0.34 3.46,0.3866 5.228,0.2346 l 2.9187,5.2294 c 0.4146,0.676 1.2146,1.0453 2.0906,0.7226 l 9.6427,-3.5466 c 0.876,-0.3214 1.2467,-1.1214 1.1227,-1.9067 l -1.1654,-5.8733 c 1.4467,-1.0294 2.692,-2.1507 3.8307,-3.5654 l 5.5653,1.6014 c 0.892,0.1693 1.5694,-0.244 1.8454,-0.8454 l 4.2493,-9.1906 c 0.368,-0.8 0.047,-1.6774 -0.5533,-1.9534 l -4.8267,-3.2 c 0.2467,-1.5853 0.3867,-3.46 0.2333,-5.228 l 5.2294,-2.92 c 0.676,-0.4133 1.0466,-1.2133 0.724,-2.0906 l -3.548,-9.6427 c -0.3214,-0.876 -1.1214,-1.2453 -1.9054,-1.1227 l -5.8746,1.1667 c -1.0294,-1.4467 -2.1507,-2.6933 -3.564,-3.8307 l 1.6013,-5.5653 c 0.1693,-0.892 -0.2453,-1.5693 -0.8453,-1.8467 l -9.192,-4.248 c -0.8,-0.3693 -1.676,-0.047 -1.9534,0.5534" style="display:inline;fill:none;fill-opacity:1;fill-rule:nonzero;stroke:currentColor;stroke-width:2.66667;stroke-miterlimit:4;stroke-dasharray:none" id="path9164" />
      <path d="m 463.00651,910.22374 c -2.8627,6.1933 -0.068,13.7907 6.1266,16.6547 6.1947,2.8613 13.792,0.068 16.6547,-6.128 2.864,-6.1934 0.068,-13.792 -6.1267,-16.6547 -6.1946,-2.8627 -13.7,-0.268 -16.6546,6.128" style="display:inline;fill:none;fill-opacity:1;fill-rule:nonzero;stroke:currentColor;stroke-width:2.66667;stroke-miterlimit:4;stroke-dasharray:none" id="path9168" />
      <path d="m 433.62131,851.53504 -2.5374,3.9186 c -1.384,-0.1546 -2.568,-0.216 -3.8453,-0.079 l -2.288,-3.968 c -0.4147,-0.6774 -1.2147,-1.0454 -2.0907,-0.724 l -7.8893,2.9026 c -0.876,0.3227 -1.2467,1.1214 -1.124,1.9054 l 0.8293,4.5053 c -1.0626,0.7227 -2.016,1.7373 -2.8773,2.5507 l -4.4733,-1.34 c -0.308,-0.384 -1.184,-0.061 -1.5534,0.7373 l -3.5106,7.5947 c -0.368,0.7986 -0.047,1.676 0.5533,1.952 l 3.9187,2.54 c -0.1534,1.384 -0.216,2.5666 -0.079,3.8426 l -3.968,2.2894 c -0.676,0.416 -1.0453,1.2146 -0.7227,2.092 l 2.9014,7.8893 c 0.3226,0.876 1.1213,1.2453 1.9066,1.1227 l 4.5054,-0.828 c 0.7226,1.0613 1.736,2.0146 2.5506,2.8773 l -1.34,4.4733 c -0.1693,0.892 0.2454,1.568 0.8454,1.8454 l 7.5933,3.5093 c 0.8,0.3693 1.676,0.047 1.9533,-0.552 l 2.5387,-3.92 c 1.384,0.1533 2.568,0.216 3.844,0.079 l 2.2893,3.968 c 0.4147,0.6773 1.2134,1.0453 2.0907,0.724 l 7.8893,-2.9027 c 0.876,-0.3227 1.2454,-1.1213 1.1227,-1.9053 l -0.828,-4.5054 c 1.0613,-0.7226 2.016,-1.7373 2.8773,-2.5506 l 4.4734,1.34 c 0.8906,0.1693 1.568,-0.2467 1.8453,-0.8454 l 3.5093,-7.5933 c 0.3694,-0.8 0.047,-1.676 -0.552,-1.9533 l -3.92,-2.54 c 0.1547,-1.384 0.216,-2.5667 0.079,-3.8427 l 3.968,-2.2893 c 0.6773,-0.416 1.0467,-1.2147 0.724,-2.092 l -2.9027,-7.8894 c -0.3213,-0.876 -1.1213,-1.2453 -1.9053,-1.1213 l -4.5053,0.828 c -0.7227,-1.0627 -1.736,-2.016 -2.5507,-2.8773 l 1.34,-4.4734 c 0.1693,-0.892 -0.2453,-1.5693 -0.8453,-1.8466 l -7.5934,-3.5094 c -0.8,-0.3693 -1.676,-0.047 -2.2466,0.6614" style="display:inline;fill:none;fill-opacity:1;fill-rule:nonzero;stroke:currentColor;stroke-width:2.66667;stroke-miterlimit:4;stroke-dasharray:none" id="path9172" />
      <path d="m 418.80511,872.57614 c -2.4013,5.1947 -0.236,11.5307 5.1587,14.0253 5.396,2.4947 11.532,0.236 14.0253,-5.16 2.4934,-5.3946 0.236,-11.5306 -5.1586,-14.024 -5.396,-2.4933 -11.624,-0.037 -14.0254,5.1587" style="display:inline;fill:none;fill-opacity:1;fill-rule:nonzero;stroke:currentColor;stroke-width:2.66667;stroke-miterlimit:4;stroke-dasharray:none" id="path9176" />
    </g>
  </g>
  <g style="display:inline" id="texte_picto_categorie">
    <g style="font-variant:normal;font-weight:bold;font-stretch:normal;font-size:17.9999px;font-family:Montserrat;-inkscape-font-specification:Montserrat-Bold;writing-mode:lr-tb;display:inline;fill:#231f20;fill-opacity:1;fill-rule:nonzero;stroke:none" id="text8294" transform="matrix(1.3333224,0.0053852,-0.0053852,1.3333224,393.35863,833.62504)" aria-label="COMPÉTENCE">
      <path id="path11546" d="m 7.1639605,-12.70793 q 1.4039923,0 2.7539849,0.575997 1.3679926,0.575997 2.3219876,1.547991 l -1.85399,2.1959882 Q 9.7739461,-9.1439496 8.9099509,-9.5759472 8.0639556,-10.025945 7.2179602,-10.025945 q -1.4939917,0 -2.5019862,1.0619944 -1.0079944,1.0439942 -1.0079944,2.5919857 0,1.5839913 1.0079944,2.6459854 1.0079945,1.0619942 2.5019862,1.0619942 0.7919957,0 1.637991,-0.3959978 0.8639952,-0.3959979 1.5299918,-1.0799941 l 1.871989,1.9799891 q -1.025994,1.0439942 -2.4299862,1.67399078 -1.3859923,0.62999653 -2.7719847,0.62999653 -2.8439843,0 -4.7339739,-1.85398981 -1.88998958,-1.8539898 -1.88998958,-4.6259745 0,-2.717985 1.92598938,-4.5359749 1.9259894,-1.83599 4.8059735,-1.83599 z" />
      <path id="path11548" d="m 19.475924,-12.70793 q 2.933983,0 4.877973,1.83599 1.943989,1.8179899 1.943989,4.5539748 0,2.7539848 -1.961989,4.6079746 -1.943989,1.85398981 -4.859973,1.85398981 -2.915984,0 -4.859974,-1.83598991 -1.943989,-1.8539898 -1.943989,-4.6259745 0,-2.7539848 1.943989,-4.5719748 1.94399,-1.81799 4.859974,-1.81799 z m 0.036,2.681985 q -1.475991,0 -2.519986,1.0799943 -1.043994,1.0619941 -1.043994,2.6459854 0,1.5839913 1.043994,2.6819852 1.061994,1.0799941 2.519986,1.0799941 1.457992,0 2.465987,-1.0799941 1.025994,-1.0979939 1.025994,-2.6819852 0,-1.5839913 -1.025994,-2.6459854 -1.007995,-1.0799943 -2.465987,-1.0799943 z" />
      <path id="path11550" d="m 41.831838,0 h -2.825984 l -0.018,-8.1899549 -3.023984,6.9299618 H 33.875882 L 30.851899,-8.1899549 V 0 h -2.861985 v -12.61793 h 3.509981 l 3.419981,7.5059582 3.419981,-7.5059582 h 3.491981 z" />
      <path id="path11552" d="m 44.369864,-12.599931 h 5.48997 q 2.411986,0 3.743979,1.151994 1.331993,1.133994 1.331993,3.2399822 0,2.2139878 -1.331993,3.4379811 -1.331993,1.2239932 -3.743979,1.2239932 H 47.573846 V 0 h -3.203982 z m 3.203982,2.519987 v 4.0139774 h 2.123989 q 1.061994,0 1.637991,-0.5219971 0.575996,-0.5219971 0.575996,-1.5119917 0,-0.9719946 -0.575996,-1.4759918 -0.575997,-0.5039968 -1.637991,-0.5039968 z" />
      <path id="path11554" d="m 64.745786,-15.731913 -2.339987,2.033988 h -2.375987 l 1.90799,-3.023983 z m 1.727991,5.651969 h -6.659963 v 2.5019858 h 6.011967 v 2.5199861 h -6.011967 v 2.537986 h 6.857962 V 0 H 56.609831 v -12.599931 h 9.863946 z" />
      <path id="path11556" d="M 78.371744,-10.025945 H 74.573765 V 0 h -3.203983 v -10.025945 h -3.761979 v -2.591985 h 10.763941 z" />
      <path id="path11558" d="m 89.603706,-10.079944 h -6.659964 v 2.5019858 h 6.011967 v 2.5199861 h -6.011967 v 2.537986 h 6.857962 V 0 H 79.73976 v -12.599931 h 9.863946 z" />
      <path id="path11560" d="m 103.49966,0 h -2.82598 L 94.877709,-7.7579573 V 0 h -3.005983 v -12.599931 h 2.825984 l 5.81397,7.7759576 v -7.7759576 h 2.98798 z" />
      <path id="path11562" d="m 111.92365,-12.70793 q 1.40399,0 2.75398,0.575997 1.368,0.575997 2.32199,1.547991 l -1.85399,2.1959882 q -0.61199,-0.7559958 -1.47599,-1.1879934 -0.846,-0.4499978 -1.69199,-0.4499978 -1.49399,0 -2.50199,1.0619944 -1.00799,1.0439942 -1.00799,2.5919857 0,1.5839913 1.00799,2.6459854 1.008,1.0619942 2.50199,1.0619942 0.792,0 1.63799,-0.3959978 0.864,-0.3959979 1.52999,-1.0799941 l 1.87199,1.9799891 q -1.02599,1.0439942 -2.42998,1.67399078 -1.386,0.62999653 -2.77199,0.62999653 -2.84398,0 -4.73397,-1.85398981 -1.88999,-1.8539898 -1.88999,-4.6259745 0,-2.717985 1.92599,-4.5359749 1.92599,-1.83599 4.80597,-1.83599 z" />
      <path id="path11564" d="m 128.33959,-10.079944 h -6.65996 v 2.5019858 h 6.01196 v 2.5199861 h -6.01196 v 2.537986 h 6.85796 V 0 h -10.06194 v -12.599931 h 9.86394 z" />
    </g>
  </g>
  <g style="display:inline" id="fond_categorie">
    <path d="m 347.70753,785.68804 c 6.9653,-40.0253 -7.1707,-80.744 -37.8014,-108.8867 l -36.488,-33.528 c -77.132,-70.8706 -35.5026,-195.3519 70.4467,-210.6466 v 0 c 73.4493,-10.604 136.744,-54.9867 169.256,-118.6827 l 14.8693,-29.1333 c 41.896,-82.084 158.9494,-82.7507 201.7787,-1.1507 l 37.88,72.1707 c 19.0373,36.272 55.5813,61.2787 97.72,66.872 l 50.2,6.664 c 106.11597,14.0853 149.16397,138.084 72.844,209.8306 l -36.104,33.9414 c -30.3067,28.4893 -43.9773,69.3666 -36.556,109.3106" style="display:inline;fill:currentColor;fill-opacity:1;fill-rule:nonzero;stroke:none;stroke-width:1.33333" id="path8234" />
  </g>
  <g style="display:inline" id="picto_posture">
    <path id="path8866" style="display:inline;fill:currentColor;fill-opacity:1;fill-rule:nonzero;stroke:none;stroke-width:1.33333" d="m 661.41345,144.49098 c 0.164,-40.4413 0.3253,-80.5626 0.488,-120.8813 -24.78,-0.1 -49.4014,-0.2013 -73.912,-0.3 -0.1627,40.312 -0.3267,80.5547 -0.4894,120.8813 24.7587,0.1013 49.252,0.2 73.9134,0.3 m 9.9413,-67.1533 c -0.081,20.0187 -0.1693,40.0386 -0.228,60.0573 0,1.5707 -0.468,2.836 -1.668,3.8653 -1.7347,1.4894 -3.44,3.0174 -5.1413,4.544 -0.8334,0.748 -1.7587,1.2147 -2.904,1.24 -1.2694,0.028 -2.5374,0.1654 -3.8067,0.16 -21.7987,-0.093 -43.5973,-0.1893 -65.396,-0.3226 -1.708,-0.011 -3.4267,-0.1934 -5.116,-0.452 -1.6973,-0.2587 -2.0133,-0.7107 -2.0747,-2.4014 -0.04,-1.0786 -0.033,-2.1613 -0.028,-3.24 0.1614,-35.0186 0.32,-70.0373 0.4987,-105.0546 0.02,-3.9387 0.1813,-7.8787 0.236,-11.8173 0.025,-1.7347 0.5,-3.164 1.9253,-4.32 1.3774,-1.116 2.616,-2.4134 3.8414,-3.7014 0.8906,-0.9346 1.928,-1.4186 3.1906,-1.464 1.3974,-0.052 2.7947,-0.1213 4.192,-0.1186 22.9427,0.052 45.8854,0.1106 68.828,0.1773 3.668,0.011 3.7347,0.051 3.7227,3.7427 -0.064,19.7013 -0.152,39.4026 -0.232,59.1053 z" />
    <path id="path8870" style="display:inline;fill:currentColor;fill-opacity:1;fill-rule:nonzero;stroke:none;stroke-width:1.33333" d="m 629.72265,73.04958 c -2.428,6.0933 -2.8786,12.1853 -0.075,18.3 0.025,-6.1014 0.049,-12.2014 0.075,-18.3 m -11.46,-11.3694 c 2.72,4.7867 5.3574,9.428 8.1027,14.2587 0.696,-2.036 1.3213,-3.864 1.8707,-5.4693 -2.3107,-4.32 -4.5094,-8.4307 -6.8187,-12.752 -1.1387,1.4293 -2.18,2.7373 -3.1547,3.9626 m 10.6387,33.3934 c -2.66,-4.5187 -3.3933,-9.26 -3.3227,-13.96 -3.1453,-0.013 -6.048,-0.025 -9.0613,-0.036 -0.7227,4.8626 0.2787,9.2066 2.5573,13.292 0.1934,0.3453 0.812,0.6293 1.2387,0.64 2.7173,0.067 5.4373,0.051 8.588,0.064 m -0.5293,-29.7 c 0.2506,1.3293 0.724,2.1226 2.084,2.1493 0.7986,0.017 1.2373,0.5773 1.3026,1.3813 0.036,0.4427 0.065,0.888 0.068,1.332 0.053,8.188 0.1014,16.3774 0.148,24.5667 0,0.3173 0,0.636 -0.037,0.9507 -0.116,0.956 -0.612,1.4706 -1.632,1.472 -3.364,0.01 -6.728,0.036 -10.0947,0.063 -0.8933,0.01 -1.54,-0.3226 -2.048,-1.1146 -0.5293,-0.824 -1.2266,-1.5414 -1.896,-2.36 -0.01,2.1706 -0.017,4.22 -0.025,6.2986 5.9813,0.024 11.788,0.048 17.7493,0.072 0.047,-11.6533 0.093,-23.168 0.1414,-34.7866 -1.92,-0.01 -3.7427,-0.016 -5.76,-0.024 m -3.0814,13.4346 c -3.008,-5.3746 -5.9026,-10.5506 -8.724,-15.5933 -2.98,-0.012 -5.748,-0.024 -8.776,-0.035 0.6827,1.2294 1.28,2.2507 1.8294,3.2974 2.0066,3.8213 4.0053,7.6466 5.9853,11.4813 0.4,0.7747 0.784,1.3907 1.8387,1.308 2.5146,-0.1933 5.0386,-0.3 7.8466,-0.4587 m 1.7374,-15.6053 c 2.2573,0.01 4.4773,0 6.6973,0.031 2.1973,0.027 2.652,0.4906 2.648,2.7253 -0.021,11.0573 -0.048,22.1133 -0.083,33.1707 -0.01,2.5586 -0.5613,3.1386 -3.156,3.1266 -5.4,-0.024 -10.8013,-0.091 -16.2013,-0.1746 -1.984,-0.029 -2.1867,-0.1894 -2.464,-2.1094 -0.2093,-1.4413 -0.3373,-2.9026 -0.3547,-4.3573 -0.045,-4.2573 -0.017,-8.5147 -0.02,-12.7707 0,-0.064 -0.019,-0.136 0,-0.1906 0.8147,-2.2 -0.46,-3.8454 -1.424,-5.6107 -2.2799,-4.1787 -4.4773,-8.4053 -6.7479,-12.5893 -0.5454,-1.0054 -0.596,-1.8614 0.1226,-2.8107 1.188,-1.5667 2.2894,-3.2 3.4467,-4.792 0.5987,-0.8267 1.428,-1.1813 2.4587,-1.212 2.9213,-0.083 5.8426,-0.196 8.7613,-0.34 1.456,-0.073 2.34,0.544 2.988,1.852 1.012,2.0427 2.1893,4.004 3.3267,6.052" />
    <path id="path8874" style="display:inline;fill:currentColor;fill-opacity:1;fill-rule:nonzero;stroke:none;stroke-width:1.33333" d="m 631.20515,35.42328 c -2.7,-1.9334 -5.828,-1.672 -7.88,0.5106 -1.8694,1.988 -2.164,4.7534 -0.636,6.7414 m 0.844,1.5573 c 2.1146,2.5907 5.5306,2.22 7.7933,0.388 2.2907,-1.852 2.8613,-4.78 1.308,-7.3867 -3.0067,2.3134 -5.9973,4.612 -9.1013,6.9987 m -4.26,-4.4213 c 0.053,-4.6227 3.808,-8.2587 8.48,-8.2094 4.5906,0.048 8.3506,3.8814 8.292,8.452 -0.059,4.504 -3.7054,8.3347 -8.108,8.1574 -5.8934,-0.2374 -8.7214,-3.996 -8.664,-8.4" />
    <path id="path8878" style="display:inline;fill:currentColor;fill-opacity:1;fill-rule:nonzero;stroke:none;stroke-width:1.33333" d="m 630.84505,119.91678 c -2.4547,-1.96 -5.484,-1.8107 -7.6493,0.268 -2.056,1.9746 -2.444,4.9173 -0.8587,6.956 2.8307,-2.404 5.6573,-4.804 8.508,-7.224 m 1.508,1.716 c -3.1173,2.408 -6.092,4.7066 -9.0747,7.0106 2.0014,2.2667 4.7854,2.4867 7.356,0.6934 2.5187,-1.7574 3.248,-4.7067 1.7187,-7.704 m -4.6747,11.008 c -5.0293,0.013 -8.7,-3.3867 -8.7466,-8.1027 -0.044,-4.7107 3.724,-8.5307 8.4053,-8.5107 4.564,0.019 8.3747,3.848 8.368,8.4107 -0.01,4.5387 -3.5813,8.1893 -8.0267,8.2027" />
  </g>
  <g style="display:inline" id="filet_1_categorie">
    <g style="display:inline" transform="matrix(1.3333333,0,0,-1.3333333,304.79153,403.90484)" id="g8308">
      <path id="path8310" style="fill:none;fill-opacity:1;fill-rule:nonzero;stroke:currentColor;stroke-width:2;stroke-miterlimit:4;stroke-dasharray:none" d="m 0,0 c -0.342,5.528 -0.499,11.066 -0.453,16.604 0.022,2.675 0.078,5.353 0.206,8.025 0.116,2.41 0.333,4.847 1.175,7.127 1.616,4.376 5.825,6.666 9.834,8.494 4.435,2.02 8.935,3.9 13.405,5.841 9.161,3.977 18.298,8.082 26.916,13.156 8.188,4.821 15.719,10.607 22.48,17.286 13.664,13.499 24.115,29.792 34.046,46.115 10.391,17.079 20.421,34.694 33.815,49.661 6.327,7.07 13.359,13.56 20.991,19.203 7.546,5.581 15.77,10.469 24.638,13.628 2.056,0.732 4.145,1.361 6.263,1.888" />
    </g>
    <g style="display:inline" transform="matrix(1.3333333,0,0,-1.3333333,958.44773,401.24084)" id="g8312">
      <path id="path8314" style="fill:none;fill-opacity:1;fill-rule:nonzero;stroke:currentColor;stroke-width:2;stroke-miterlimit:4;stroke-dasharray:none" d="m -199.096,204.632 c 9.257,-2.174 17.94,-6.361 25.978,-11.377 8.416,-5.252 16.227,-11.49 23.299,-18.444 14.837,-14.592 25.667,-32.697 36.598,-50.241 5.034,-8.08 10.161,-16.102 15.214,-24.171 4.948,-7.902 9.992,-15.767 15.661,-23.177 5.312,-6.945 11.172,-13.58 18.189,-18.852 7.997,-6.007 17.429,-8.919 27.037,-11.202 4.876,-1.158 9.775,-2.233 14.577,-3.677 4.718,-1.419 9.605,-3.103 13.819,-5.704 C -6.772,36.583 -5.02,35.04 -3.919,33 -2.678,30.702 -2.31,28.038 -2.121,25.468 -1.704,19.808 -1.649,14.099 -1.729,8.426 -1.769,5.616 -1.862,2.807 -2,0" />
    </g>
    <g transform="matrix(1.3333333,0,0,-1.3333333,847.36963,1066.3013)" id="g8316" style="display:inline;stroke-width:2;stroke-miterlimit:4;stroke-dasharray:none">
      <path id="path8318" style="fill:none;stroke:currentColor;stroke-width:2;stroke-linecap:butt;stroke-linejoin:miter;stroke-miterlimit:4;stroke-dasharray:none;stroke-opacity:1" d="m 0,0 -21.339,-33.168 c -7.204,-11.198 -25.038,-20.474 -39.754,-20.676 l -182.943,-2.517 c -14.715,-0.202 -32.797,8.579 -40.306,19.575 l -22.017,32.236" />
    </g>
  </g>
  <g style="display:inline;opacity:0.2" id="filet_2_categorie">
    <path d="m 746.77913,1052.6229 -50.7107,-27.3173 c -42.5666,-22.9334 -93.2626,-22.644 -135.5666,0.772 l -50.3947,27.8946 c -106.5307,58.9655 -231.9667,-34.5786 -212.2613,-158.29729 l 9.3213,-58.5253 c 7.824,-49.1294 -8.128,-99.1214 -42.6573,-133.6867 l -41.1334,-41.176 c -86.9533,-87.0426 -40.116,-239.8253 79.2574,-258.54 h 0.001 c 82.756,-12.9746 154.0493,-67.4186 190.6466,-145.5906 v -0.001 c 52.7907,-112.76001 207.172,-113.64141 261.2454,-1.4894 l 25.58,53.0547 c 21.472,44.536 62.6626,75.2547 110.148,82.1453 l 56.568,8.208 c 119.57997,17.352 168.15597,169.5907 82.20127,257.62 l -40.66267,41.6427 c -34.1333,34.956 -49.5133,85.1266 -41.1293,134.1626 l 9.9893,58.4174 c 21.1137,123.48499 -103.2463,218.45439 -210.4423,160.70629 z" style="display:inline;fill:none;stroke:currentColor;stroke-width:36;stroke-linecap:butt;stroke-linejoin:miter;stroke-miterlimit:10;stroke-dasharray:none;stroke-opacity:1" id="path8244" />
  </g>
  <g style="display:inline" id="filet_3_posture">
    <path d="m 745.64033,1053.58 -50.2213,-27.3813 c -42.1573,-22.9853 -92.3626,-22.7 -134.256,0.7653 l -49.9066,27.952 c -105.496,59.0881 -229.724,-34.6706 -210.2187,-158.65853 l 9.228,-58.6534 c 7.7453,-49.2359 -8.056,-99.3386 -42.2533,-133.9813 l -40.7387,-41.2693 c -86.11871,-87.24 -39.744,-240.3547 78.4733,-259.1013 v 0 c 81.9547,-12.9974 152.556,-67.556 188.7933,-145.8974 52.272,-113.0053 205.16,-113.8773 258.7187,-1.4746 l 25.336,53.172 c 21.2667,44.6346 62.0613,75.4226 109.088,82.332 l 56.0213,8.2306 c 118.42537,17.3974 166.54137,169.9747 81.42397,258.1894 l -40.26657,41.7306 c -33.8,35.0307 -49.028,85.3107 -40.7227,134.456 l 9.896,58.544 c 20.9187,123.75723 -102.232,218.92533 -208.396,161.04523 z" style="display:inline;fill:none;stroke:currentColor;stroke-width:8;stroke-linecap:butt;stroke-linejoin:miter;stroke-miterlimit:10;stroke-dasharray:none;stroke-opacity:1" id="path8334-3-0" />
  </g>












  <g style="display:inline" id="picto_titre_badge">
    <g style="font-variant:normal;font-stretch:normal;font-size:200px;font-family:'Gotham Ultra';-inkscape-font-specification:Gotham-Ultra;writing-mode:lr-tb;display:inline;fill:#ffffff;fill-opacity:1;fill-rule:nonzero;stroke:none" id="text9280" transform="matrix(1.3333333,0,0,1.3333333,540.55513,620.51614)" aria-label="X">
      <path id="path11332" d="M -1.8,0 H 50.4 L 72.8,-36.4 95,0 h 53.2 L 100.8,-71.8 146.2,-140 H 94 L 73.6,-106.6 53.4,-140 H 0.2 l 45.4,68.8 z" />
    </g>
  </g>
  <g style="display:inline" id="texte_titre_badge">
    <path d="m 390.76123,736.68554 h 12.48 v -26.7733 h 10.9866 v -10.56 h -34.4533 v 10.56 h 10.9867 z" id="path11353" style="font-variant:normal;font-stretch:normal;font-size:40px;font-family:'Gotham Ultra';-inkscape-font-specification:Gotham-Ultra;writing-mode:lr-tb;display:inline;fill:#ffffff;fill-opacity:1;fill-rule:nonzero;stroke:none;stroke-width:1.33333" />
    <path d="m 419.82783,736.68554 h 12.48 v -37.3333 h -12.48 z" id="path11355" style="font-variant:normal;font-stretch:normal;font-size:40px;font-family:'Gotham Ultra';-inkscape-font-specification:Gotham-Ultra;writing-mode:lr-tb;display:inline;fill:#ffffff;fill-opacity:1;fill-rule:nonzero;stroke:none;stroke-width:1.33333" />
    <path d="m 448.89453,736.68554 h 12.48 v -26.7733 h 10.9867 v -10.56 h -34.4534 v 10.56 h 10.9867 z" id="path11357" style="font-variant:normal;font-stretch:normal;font-size:40px;font-family:'Gotham Ultra';-inkscape-font-specification:Gotham-Ultra;writing-mode:lr-tb;display:inline;fill:#ffffff;fill-opacity:1;fill-rule:nonzero;stroke:none;stroke-width:1.33333" />
    <path d="m 477.85453,736.68554 h 12.48 v -10.6667 h 2.6667 l 7.04,10.6667 h 14.24 l -8.6934,-12.6933 c 4.5334,-2.1867 7.36,-5.9734 7.36,-11.4134 v -0.1066 c 0,-3.84 -1.1733,-6.6134 -3.4133,-8.8534 -2.6133,-2.6133 -6.8267,-4.2666 -13.44,-4.2666 h -18.24 z m 12.48,-19.5733 v -7.3067 h 5.44 c 2.88,0 4.7467,1.1733 4.7467,3.5733 v 0.1067 c 0,2.2933 -1.8134,3.6267 -4.8,3.6267 z" id="path11359" style="font-variant:normal;font-stretch:normal;font-size:40px;font-family:'Gotham Ultra';-inkscape-font-specification:Gotham-Ultra;writing-mode:lr-tb;display:inline;fill:#ffffff;fill-opacity:1;fill-rule:nonzero;stroke:none;stroke-width:1.33333" />
    <path d="m 518.65453,736.68554 h 32.1067 v -10.24 h -19.84 v -4.0533 h 18.24 v -9.0134 h -18.24 v -3.7866 h 19.5733 v -10.24 h -31.84 z" id="path11361" style="font-variant:normal;font-stretch:normal;font-size:40px;font-family:'Gotham Ultra';-inkscape-font-specification:Gotham-Ultra;writing-mode:lr-tb;display:inline;fill:#ffffff;fill-opacity:1;fill-rule:nonzero;stroke:none;stroke-width:1.33333" />
    <path d="m 573.00123,736.68554 h 13.8666 c 15.0934,0 22.6667,-7.84 22.6667,-18.88 v -0.1067 c 0,-11.04 -7.4133,-18.3466 -22.24,-18.3466 h -14.2933 z m 12.48,-10.88 v -15.5733 h 2.08 c 5.7066,0 9.3866,2.3466 9.3866,7.7333 v 0.1067 c 0,5.3866 -3.68,7.7333 -9.3866,7.7333 z" id="path11363" style="font-variant:normal;font-stretch:normal;font-size:40px;font-family:'Gotham Ultra';-inkscape-font-specification:Gotham-Ultra;writing-mode:lr-tb;display:inline;fill:#ffffff;fill-opacity:1;fill-rule:nonzero;stroke:none;stroke-width:1.33333" />
    <path d="m 633.64123,737.43224 c 11.1466,0 18.56,-5.0134 18.56,-17.76 v -20.32 h -12.6934 v 20.6933 c 0,4.5333 -2.4,6.3467 -5.76,6.3467 -3.36,0 -5.76,-1.9734 -5.76,-6.6134 v -20.4266 h -12.6933 v 20.5866 c 0,12.3734 7.2,17.4934 18.3467,17.4934 z" id="path11365" style="font-variant:normal;font-stretch:normal;font-size:40px;font-family:'Gotham Ultra';-inkscape-font-specification:Gotham-Ultra;writing-mode:lr-tb;display:inline;fill:#ffffff;fill-opacity:1;fill-rule:nonzero;stroke:none;stroke-width:1.33333" />
    <path d="m 675.02783,736.68554 h 20.6934 c 9.44,0 14.3466,-4.3733 14.3466,-10.3467 v -0.1066 c 0,-5.12 -3.0933,-7.68 -7.8933,-9.0667 4,-1.3867 6.6667,-4.1067 6.6667,-8.5333 v -0.1067 c 0,-2.56 -0.96,-4.48 -2.2934,-5.8133 -2.1866,-2.1867 -5.44,-3.36 -10.6133,-3.36 h -20.9067 z m 12.16,-22.6667 v -5.2266 h 5.3867 c 2.6667,0 4,0.9066 4,2.56 v 0.1066 c 0,1.6534 -1.28,2.56 -3.9467,2.56 z m 0,13.2267 v -5.5467 h 6.2934 c 2.72,0 4.0533,1.12 4.0533,2.72 v 0.1067 c 0,1.6 -1.3867,2.72 -4.1067,2.72 z" id="path11367" style="font-variant:normal;font-stretch:normal;font-size:40px;font-family:'Gotham Ultra';-inkscape-font-specification:Gotham-Ultra;writing-mode:lr-tb;display:inline;fill:#ffffff;fill-opacity:1;fill-rule:nonzero;stroke:none;stroke-width:1.33333" />
    <path d="m 712.73453,736.68554 h 13.3333 l 1.92,-5.0133 h 13.0667 l 1.9733,5.0133 h 13.5467 l -15.7333,-37.6 h -12.3734 z m 18.4,-13.8667 3.4133,-9.0666 3.4134,9.0666 z" id="path11369" style="font-variant:normal;font-stretch:normal;font-size:40px;font-family:'Gotham Ultra';-inkscape-font-specification:Gotham-Ultra;writing-mode:lr-tb;display:inline;fill:#ffffff;fill-opacity:1;fill-rule:nonzero;stroke:none;stroke-width:1.33333" />
    <path d="m 760.78783,736.68554 h 13.8667 c 15.0933,0 22.6667,-7.84 22.6667,-18.88 v -0.1067 c 0,-11.04 -7.4134,-18.3466 -22.24,-18.3466 h -14.2934 z m 12.48,-10.88 v -15.5733 h 2.08 c 5.7067,0 9.3867,2.3466 9.3867,7.7333 v 0.1067 c 0,5.3866 -3.68,7.7333 -9.3867,7.7333 z" id="path11371" style="font-variant:normal;font-stretch:normal;font-size:40px;font-family:'Gotham Ultra';-inkscape-font-specification:Gotham-Ultra;writing-mode:lr-tb;display:inline;fill:#ffffff;fill-opacity:1;fill-rule:nonzero;stroke:none;stroke-width:1.33333" />
    <path d="m 823.50783,737.48554 c 6.7734,0 12.4267,-2.2933 16.48,-5.6 v -17.28 h -18.08 v 8 h 6.4 v 3.7333 c -0.96,0.5334 -2.1333,0.8534 -4.2666,0.8534 -5.2267,0 -8.9067,-3.6267 -8.9067,-8.9067 v -0.1067 c 0,-5.0666 3.52,-8.8 8.3733,-8.8 3.0934,0 5.8134,1.1734 8.2667,3.2534 l 6.9867,-8.4267 c -4.0534,-3.52 -9.2267,-5.6533 -15.6267,-5.6533 -11.7867,0 -20.5867,8.32 -20.5867,19.4666 v 0.1067 c 0,11.5733 9.3334,19.36 20.96,19.36 z" id="path11373" style="font-variant:normal;font-stretch:normal;font-size:40px;font-family:'Gotham Ultra';-inkscape-font-specification:Gotham-Ultra;writing-mode:lr-tb;display:inline;fill:#ffffff;fill-opacity:1;fill-rule:nonzero;stroke:none;stroke-width:1.33333" />
    <path d="m 846.28123,736.68554 h 32.1066 v -10.24 h -19.84 v -4.0533 h 18.24 v -9.0134 h -18.24 v -3.7866 h 19.5734 v -10.24 h -31.84 z" id="path11375" style="font-variant:normal;font-stretch:normal;font-size:40px;font-family:'Gotham Ultra';-inkscape-font-specification:Gotham-Ultra;writing-mode:lr-tb;display:inline;fill:#ffffff;fill-opacity:1;fill-rule:nonzero;stroke:none;stroke-width:1.33333" />
  </g>
</svg>
