<?xml version="1.0" encoding="UTF-8" standalone="no"?>
<svg xmlns:dc="http://purl.org/dc/elements/1.1/"
  xmlns:cc="http://creativecommons.org/ns#"
  xmlns:rdf="http://www.w3.org/1999/02/22-rdf-syntax-ns#"
  xmlns:svg="http://www.w3.org/2000/svg"
  xmlns="http://www.w3.org/2000/svg"
  xmlns:sodipodi="http://sodipodi.sourceforge.net/DTD/sodipodi-0.dtd"
  xmlns:inkscape="http://www.inkscape.org/namespaces/inkscape" id="svg235" xml:space="preserve" enable-background="new 0 0 850.394 841.89" viewBox="0 0 1247.2441 1247.2441" height="100%" width="100%" y="0px" x="0px" version="1.1" sodipodi:docname="cp3.svg" inkscape:version="1.0.1 (3bc2e813f5, 2020-09-07)">
  <sodipodi:namedview pagecolor="#ffffff" bordercolor="#666666" borderopacity="1" objecttolerance="10" gridtolerance="10" guidetolerance="10" inkscape:pageopacity="0" inkscape:pageshadow="2" inkscape:window-width="1920" inkscape:window-height="1001" id="namedview121" showgrid="false" units="mm" inkscape:zoom="0.47055635" inkscape:cx="524.15053" inkscape:cy="652.2543" inkscape:window-x="-9" inkscape:window-y="-9" inkscape:window-maximized="1" inkscape:current-layer="svg235" />
  <metadata id="metadata241">
    <rdf:RDF>
      <cc:Work rdf:about="">
        <dc:format>image/svg+xml</dc:format>
        <dc:type rdf:resource="http://purl.org/dc/dcmitype/StillImage" />
        <dc:title></dc:title>
      </cc:Work>
    </rdf:RDF>
  </metadata>
  <defs id="defs239">
    <clipPath clipPathUnits="userSpaceOnUse" id="clipPath9288-1">
      <path d="M 0,6962.785 H 9837.817 V 0 H 0 Z" id="path9286-2" />
    </clipPath>
    <clipPath id="clipPath9288-1-5" clipPathUnits="userSpaceOnUse">
      <path id="path9286-2-9" d="M 0,6962.785 H 9837.817 V 0 H 0 Z" />
    </clipPath>
    <clipPath clipPathUnits="userSpaceOnUse" id="clipPath9130-1">
      <path d="m 4390.767,3442.842 c 0,-0.375 -9.505,-10.002 -9.505,-10.002 v 0 l 5.664,-19.623 11.828,-3.585 c 1.949,1.782 5.013,5.444 6.548,8.463 v 0 l 18.718,-21.803 0.958,-1.02 c -2.835,-3.093 -6.363,-5.286 -9.528,-6.562 v 0 l 4.693,-17.243 13.125,-9.75 0.376,10.624 c 0,0 -5.126,47.875 -5.375,48.251 v 0 c -0.252,0.375 -24.334,23.749 -24.334,23.749 v 0 c 0,0 -13.168,-1.126 -13.168,-1.499" id="path9128-5" />
    </clipPath>
  </defs>
  <g id="fond_blanc" transform="translate(45.692908)">
    <path d="m 699.9474,1053.58 -50.2213,-27.3813 c -42.1573,-22.9853 -92.36259,-22.7 -134.25599,0.7653 l -49.9066,27.952 c -105.496,59.0881 -229.72399,-34.6706 -210.21869,-158.65858 l 9.228,-58.6534 c 7.7453,-49.2359 -8.056,-99.3386 -42.2533,-133.9813 l -40.7387,-41.2693 c -86.118698,-87.23999 -39.744,-240.35469 78.4733,-259.10129 v 0 c 81.95469,-12.9974 152.55599,-67.556 188.79329,-145.89739 52.272,-113.00529 205.15999,-113.87729 258.71869,-1.4746 l 25.336,53.172 c 21.2667,44.63459 62.0613,75.42259 109.088,82.33199 l 56.02129,8.2306 c 118.42541,17.3974 166.54141,169.9747 81.424,258.18939 l -40.2666,41.7306 c -33.8,35.0307 -49.02799,85.3107 -40.7227,134.456 l 9.896,58.544 C 929.26079,1016.292 806.1101,1111.4601 699.9461,1053.58 Z" style="display:inline;fill:#ffffff;stroke:none;stroke-width:16;stroke-linecap:butt;stroke-linejoin:miter;stroke-miterlimit:10;stroke-dasharray:none;stroke-opacity:1" id="path8334-3-2" />
  </g>
  <g style="display:inline" id="texte_posture">
    <g transform="matrix(1.3333333,0,0,-1.3333333,-5262.6471,4650.4653)" style="display:inline" id="g12324">
      <text id="text8582" style="font-variant:normal;font-weight:bold;font-stretch:normal;font-size:39.9999px;font-family:Montserrat;-inkscape-font-specification:Montserrat-Bold;writing-mode:lr-tb;fill:#122c2f;fill-opacity:1;fill-rule:nonzero;stroke:none" transform="matrix(0.75945386,-0.65056117,-0.65056117,-0.75945386,4174.7612,2646.3176)">
        <tspan id="tspan8580" y="0" x="0">J</tspan>
      </text>
      <text id="text8586" style="font-variant:normal;font-weight:bold;font-stretch:normal;font-size:39.9999px;font-family:Montserrat;-inkscape-font-specification:Montserrat-Bold;writing-mode:lr-tb;fill:#122c2f;fill-opacity:1;fill-rule:nonzero;stroke:none" transform="matrix(0.8136169,-0.58140136,-0.58140136,-0.8136169,4193.7432,2630.104)">
        <tspan id="tspan8584" y="0" x="0">E</tspan>
      </text>
      <text id="text8590" style="font-variant:normal;font-weight:bold;font-stretch:normal;font-size:40px;font-family:Montserrat;-inkscape-font-specification:Montserrat-Bold;writing-mode:lr-tb;fill:#122c2f;fill-opacity:1;fill-rule:nonzero;stroke:none" transform="matrix(0.88406822,-0.46735788,-0.46735788,-0.88406822,4228.9448,2606.228)">
        <tspan id="tspan8588" y="0" x="0">P</tspan>
      </text>
      <text id="text8594" style="font-variant:normal;font-weight:bold;font-stretch:normal;font-size:39.9999px;font-family:Montserrat;-inkscape-font-specification:Montserrat-Bold;writing-mode:lr-tb;fill:#122c2f;fill-opacity:1;fill-rule:nonzero;stroke:none" transform="matrix(0.9248938,-0.38022553,-0.38022553,-0.9248938,4256.3423,2591.9539)">
        <tspan id="tspan8592" y="0" x="0">E</tspan>
      </text>
      <text id="text8598" style="font-variant:normal;font-weight:bold;font-stretch:normal;font-size:39.9999px;font-family:Montserrat;-inkscape-font-specification:Montserrat-Bold;writing-mode:lr-tb;fill:#122c2f;fill-opacity:1;fill-rule:nonzero;stroke:none" transform="matrix(0.95851175,-0.28505302,-0.28505302,-0.95851175,4284.7861,2580.3735)">
        <tspan id="tspan8596" y="0" x="0">U</tspan>
      </text>
      <text id="text8602" style="font-variant:normal;font-weight:bold;font-stretch:normal;font-size:39.9999px;font-family:Montserrat;-inkscape-font-specification:Montserrat-Bold;writing-mode:lr-tb;fill:#122c2f;fill-opacity:1;fill-rule:nonzero;stroke:none" transform="matrix(0.98300515,-0.18357799,-0.18357799,-0.98300515,4317.5625,2570.8623)">
        <tspan id="tspan8600" y="0" x="0">X</tspan>
      </text>
      <text id="text8606" style="font-variant:normal;font-weight:bold;font-stretch:normal;font-size:39.9999px;font-family:Montserrat;-inkscape-font-specification:Montserrat-Bold;writing-mode:lr-tb;fill:#122c2f;fill-opacity:1;fill-rule:nonzero;stroke:none" transform="matrix(0.99875746,-0.04983512,-0.04983512,-0.99875746,4361.9438,2563.7263)">
        <tspan id="tspan8604" y="0" x="0">P</tspan>
      </text>
      <text id="text8610" style="font-variant:normal;font-weight:bold;font-stretch:normal;font-size:39.9999px;font-family:Montserrat;-inkscape-font-specification:Montserrat-Bold;writing-mode:lr-tb;fill:#122c2f;fill-opacity:1;fill-rule:nonzero;stroke:none" transform="matrix(0.99885393,0.04786257,0.04786257,-0.99885393,4392.7007,2562.311)">
        <tspan id="tspan8608" y="0" x="0">R</tspan>
      </text>
      <text id="text8614" style="font-variant:normal;font-weight:bold;font-stretch:normal;font-size:39.9999px;font-family:Montserrat;-inkscape-font-specification:Montserrat-Bold;writing-mode:lr-tb;fill:#122c2f;fill-opacity:1;fill-rule:nonzero;stroke:none" transform="matrix(0.98810973,0.15375035,0.15375035,-0.98810973,4425.4775,2564.0354)">
        <tspan id="tspan8612" y="0" x="0">A</tspan>
      </text>
      <text id="text8618" style="font-variant:normal;font-weight:bold;font-stretch:normal;font-size:39.9999px;font-family:Montserrat;-inkscape-font-specification:Montserrat-Bold;writing-mode:lr-tb;fill:#122c2f;fill-opacity:1;fill-rule:nonzero;stroke:none" transform="matrix(0.97047219,0.24121304,0.24121304,-0.97047219,4456.4199,2569.019)">
        <tspan id="tspan8616" y="0" x="0">T</tspan>
      </text>
      <text id="text8622" style="font-variant:normal;font-weight:bold;font-stretch:normal;font-size:39.9999px;font-family:Montserrat;-inkscape-font-specification:Montserrat-Bold;writing-mode:lr-tb;fill:#122c2f;fill-opacity:1;fill-rule:nonzero;stroke:none" transform="matrix(0.9515439,0.30751295,0.30751295,-0.9515439,4483.1504,2575.9846)">
        <tspan id="tspan8620" y="0" x="0">I</tspan>
      </text>
      <text id="text8626" style="font-variant:normal;font-weight:bold;font-stretch:normal;font-size:39.9999px;font-family:Montserrat;-inkscape-font-specification:Montserrat-Bold;writing-mode:lr-tb;fill:#122c2f;fill-opacity:1;fill-rule:nonzero;stroke:none" transform="matrix(0.92314229,0.38445846,0.38445846,-0.92314229,4498.5977,2580.7007)">
        <tspan id="tspan8624" y="0" x="0">Q</tspan>
      </text>
      <text id="text8630" style="font-variant:normal;font-weight:bold;font-stretch:normal;font-size:39.9999px;font-family:Montserrat;-inkscape-font-specification:Montserrat-Bold;writing-mode:lr-tb;fill:#122c2f;fill-opacity:1;fill-rule:nonzero;stroke:none" transform="matrix(0.87492646,0.48425581,0.48425581,-0.87492646,4532.0132,2594.917)">
        <tspan id="tspan8628" y="0" x="0">U</tspan>
      </text>
      <text id="text8634" style="font-variant:normal;font-weight:bold;font-stretch:normal;font-size:39.9999px;font-family:Montserrat;-inkscape-font-specification:Montserrat-Bold;writing-mode:lr-tb;fill:#122c2f;fill-opacity:1;fill-rule:nonzero;stroke:none" transform="matrix(0.82134185,0.57043629,0.57043629,-0.82134185,4561.6978,2611.6641)">
        <tspan id="tspan8632" y="0" x="0">E</tspan>
      </text>
      <text id="text8638" style="font-variant:normal;font-weight:bold;font-stretch:normal;font-size:39.9999px;font-family:Montserrat;-inkscape-font-specification:Montserrat-Bold;writing-mode:lr-tb;fill:#122c2f;fill-opacity:1;fill-rule:nonzero;stroke:none" transform="matrix(0.76075934,0.64903407,0.64903407,-0.76075934,4586.8257,2629.2798)">
        <tspan id="tspan8636" y="0" x="0">R</tspan>
      </text>
    </g>
  </g>
  <g style="display:inline" id="filet_separation_theme" transform="translate(45.692908)">
    <g style="display:inline;stroke:currentColor;stroke-width:2;stroke-miterlimit:4;stroke-dasharray:none" id="g8304" transform="matrix(1.3333333,0,0,-1.3333333,579.45722,863.08644)">
      <path d="M 0,0 -0.238,-58.985" style="fill:none;stroke:currentColor;stroke-width:2;stroke-linecap:butt;stroke-linejoin:miter;stroke-miterlimit:4;stroke-dasharray:none;stroke-opacity:1" id="path8306" />
    </g>
  </g>
  <g style="display:inline" id="picto_theme" transform="translate(45.692908)">
    <g style="display:inline;stroke-width:2;stroke-miterlimit:4;stroke-dasharray:none" id="g9282" transform="matrix(1.3333333,0,0,-1.3333333,-5227.1457,7911.3389)">
      <g style="stroke-width:2;stroke-miterlimit:4;stroke-dasharray:none" clip-path="url(#clipPath9288-1-5)" id="g9284">
        <g style="stroke-width:2;stroke-miterlimit:4;stroke-dasharray:none" transform="translate(4429.9297,5217.0918)" id="g9290">
          <path id="path9292" style="fill:none;stroke:currentColor;stroke-width:2;stroke-linecap:butt;stroke-linejoin:miter;stroke-miterlimit:4;stroke-dasharray:none;stroke-opacity:1" d="M 0,0 H 22.033 L 31.488,15.364 40.858,0 H 63.313 L 43.307,30.306 62.47,59.093 H 40.437 L 31.826,44.994 23.3,59.093 H 0.845 l 19.162,-29.04 z" />
        </g>
      </g>
    </g>
  </g>
  <g style="display:inline" id="texte_picto_theme" transform="translate(45.692908)">
    <text id="text8322" style="font-variant:normal;font-weight:bold;font-stretch:normal;font-size:23.9999px;font-family:Montserrat;-inkscape-font-specification:Montserrat-Bold;writing-mode:lr-tb;display:inline;fill:#231f20;fill-opacity:1;fill-rule:nonzero;stroke:none;stroke-width:1.33333" transform="rotate(0.23141256)" x="681.51416" y="821.04901">
      <tspan id="tspan8320" y="831.04901" x="681.51416 696.17822 715.04199 731.21826 753.05811" style="stroke-width:1.33333">THEME</tspan>
    </text>
  </g>
  <g style="display:inline" id="picto_categorie" transform="translate(45.692908)">
    <g id="g651" style="display:inline" transform="translate(6.2332146)">
      <path id="path9156" style="display:inline;fill:none;fill-opacity:1;fill-rule:nonzero;stroke:currentColor;stroke-width:2.66667;stroke-miterlimit:4;stroke-dasharray:none" d="m 441.49941,934.72044 -4.5147,-12.272 c -0.3227,-0.876 -1.1213,-1.2466 -1.9053,-1.1226 l -7.736,1.5186 c -1.336,-1.8306 -3.1654,-3.6453 -4.8867,-5.1693 l 2.0333,-7.548 c 0.1694,-0.892 -0.2453,-1.5693 -0.8453,-1.8467 l -11.9893,-5.54 c -0.7987,-0.3706 -1.676,-0.047 -1.9534,0.552 l -4.4306,6.44 c -2.276,-0.324 -4.644,-0.448 -7.196,-0.172 l -3.856,-6.8746 c -0.4147,-0.6774 -1.2147,-1.0467 -2.0907,-0.724 l -12.272,4.5146 c -0.8773,0.3214 -1.2467,1.12 -1.124,1.9054 l 1.5187,7.7346 c -1.9227,1.536 -3.6454,3.1654 -5.168,4.8867 l -7.5494,-2.0333 c -1.1066,-0.7547 -1.7826,-0.3387 -2.152,0.46 l -5.5426,11.9906 c -0.368,0.7987 -0.047,1.676 0.5533,1.952 l 6.44,4.4334 c -0.324,2.2746 -0.448,4.6426 -0.172,7.1946 l -6.876,3.856 c -0.676,0.4147 -1.0453,1.2147 -0.724,2.0907 l 4.5147,12.272 c 0.3226,0.876 1.1226,1.2467 1.9066,1.124 l 7.7347,-1.5187 c 1.5373,1.9227 3.1653,3.6467 4.7947,5.3694 l -2.0334,7.548 c -0.1693,0.892 0.2454,1.5693 0.844,1.8453 l 11.9907,5.5413 c 0.8,0.3694 1.676,0.047 1.9533,-0.552 l 4.432,-6.44 c 2.4747,0.4147 4.8427,0.54 7.1027,0.372 l 3.856,6.8747 c 0.4147,0.676 1.2133,1.0453 2.0907,0.7227 l 12.272,-4.5147 c 0.876,-0.3213 1.2466,-1.12 1.1226,-1.904 l -1.5173,-7.736 c 1.9227,-1.536 3.8453,-3.0733 5.368,-4.7947 l 7.5493,2.0347 c 0.8907,0.1693 1.568,-0.2467 1.8454,-0.8453 l 5.5413,-11.9907 c 0.3693,-0.8 0.047,-1.676 -0.5533,-1.9533 l -6.44,-4.4307 c 0.324,-2.2747 0.448,-4.644 0.1733,-7.196 l 6.8747,-3.856 c 1.0613,-0.7213 1.2306,-1.6133 1.016,-2.1987" />
      <path id="path9160" style="display:inline;fill:none;fill-opacity:1;fill-rule:nonzero;stroke:currentColor;stroke-width:2.66667;stroke-miterlimit:4;stroke-dasharray:none" d="m 385.99111,936.23134 c -3.6013,7.7934 -0.1613,17.1427 7.632,20.744 7.7934,3.604 17.144,0.1627 20.7454,-7.6293 3.6026,-7.7947 0.1626,-17.1453 -7.6307,-20.7467 -7.7933,-3.6013 -17.144,-0.1626 -20.7467,7.632" />
      <path d="m 481.51631,884.33984 -3.2,4.8266 c -1.584,-0.248 -3.46,-0.3866 -5.228,-0.2333 l -2.9186,-5.2293 c -0.4147,-0.6774 -1.2147,-1.0467 -2.0907,-0.724 l -9.6427,3.5466 c -0.876,0.3227 -1.2466,1.1214 -1.1226,1.9067 l 1.1653,5.8733 c -1.4467,1.0307 -2.692,2.1507 -3.8307,3.5654 l -5.5653,-1.6014 c -0.892,-0.1693 -1.568,0.244 -1.8453,0.8454 l -4.248,9.192 c -0.3694,0.7986 -0.048,1.676 0.552,1.952 l 4.8266,3.2013 c -0.2466,1.584 -0.3866,3.4587 -0.2333,5.2267 l -5.2293,2.92 c -0.676,0.4146 -1.0467,1.2133 -0.724,2.0906 l 3.548,9.6414 c 0.3213,0.8773 1.1213,1.2466 1.9053,1.124 l 5.8747,-1.1654 c 1.0293,1.4454 2.1506,2.692 3.5653,3.8294 l -1.6027,5.5653 c -0.1693,0.892 0.2454,1.5693 0.8454,1.8467 l 9.192,4.2466 c 0.8,0.3707 1.676,0.048 1.9533,-0.552 l 3.2,-4.8266 c 1.784,0.34 3.46,0.3866 5.228,0.2346 l 2.9187,5.2294 c 0.4146,0.676 1.2146,1.0453 2.0906,0.7226 l 9.6427,-3.5466 c 0.876,-0.3214 1.2467,-1.1214 1.1227,-1.9067 l -1.1654,-5.8733 c 1.4467,-1.0294 2.692,-2.1507 3.8307,-3.5654 l 5.5653,1.6014 c 0.892,0.1693 1.5694,-0.244 1.8454,-0.8454 l 4.2493,-9.1906 c 0.368,-0.8 0.047,-1.6774 -0.5533,-1.9534 l -4.8267,-3.2 c 0.2467,-1.5853 0.3867,-3.46 0.2333,-5.228 l 5.2294,-2.92 c 0.676,-0.4133 1.0466,-1.2133 0.724,-2.0906 l -3.548,-9.6427 c -0.3214,-0.876 -1.1214,-1.2453 -1.9054,-1.1227 l -5.8746,1.1667 c -1.0294,-1.4467 -2.1507,-2.6933 -3.564,-3.8307 l 1.6013,-5.5653 c 0.1693,-0.892 -0.2453,-1.5693 -0.8453,-1.8467 l -9.192,-4.248 c -0.8,-0.3693 -1.676,-0.047 -1.9534,0.5534" style="display:inline;fill:none;fill-opacity:1;fill-rule:nonzero;stroke:currentColor;stroke-width:2.66667;stroke-miterlimit:4;stroke-dasharray:none" id="path9164" />
      <path d="m 463.00651,910.22374 c -2.8627,6.1933 -0.068,13.7907 6.1266,16.6547 6.1947,2.8613 13.792,0.068 16.6547,-6.128 2.864,-6.1934 0.068,-13.792 -6.1267,-16.6547 -6.1946,-2.8627 -13.7,-0.268 -16.6546,6.128" style="display:inline;fill:none;fill-opacity:1;fill-rule:nonzero;stroke:currentColor;stroke-width:2.66667;stroke-miterlimit:4;stroke-dasharray:none" id="path9168" />
      <path d="m 433.62131,851.53504 -2.5374,3.9186 c -1.384,-0.1546 -2.568,-0.216 -3.8453,-0.079 l -2.288,-3.968 c -0.4147,-0.6774 -1.2147,-1.0454 -2.0907,-0.724 l -7.8893,2.9026 c -0.876,0.3227 -1.2467,1.1214 -1.124,1.9054 l 0.8293,4.5053 c -1.0626,0.7227 -2.016,1.7373 -2.8773,2.5507 l -4.4733,-1.34 c -0.308,-0.384 -1.184,-0.061 -1.5534,0.7373 l -3.5106,7.5947 c -0.368,0.7986 -0.047,1.676 0.5533,1.952 l 3.9187,2.54 c -0.1534,1.384 -0.216,2.5666 -0.079,3.8426 l -3.968,2.2894 c -0.676,0.416 -1.0453,1.2146 -0.7227,2.092 l 2.9014,7.8893 c 0.3226,0.876 1.1213,1.2453 1.9066,1.1227 l 4.5054,-0.828 c 0.7226,1.0613 1.736,2.0146 2.5506,2.8773 l -1.34,4.4733 c -0.1693,0.892 0.2454,1.568 0.8454,1.8454 l 7.5933,3.5093 c 0.8,0.3693 1.676,0.047 1.9533,-0.552 l 2.5387,-3.92 c 1.384,0.1533 2.568,0.216 3.844,0.079 l 2.2893,3.968 c 0.4147,0.6773 1.2134,1.0453 2.0907,0.724 l 7.8893,-2.9027 c 0.876,-0.3227 1.2454,-1.1213 1.1227,-1.9053 l -0.828,-4.5054 c 1.0613,-0.7226 2.016,-1.7373 2.8773,-2.5506 l 4.4734,1.34 c 0.8906,0.1693 1.568,-0.2467 1.8453,-0.8454 l 3.5093,-7.5933 c 0.3694,-0.8 0.047,-1.676 -0.552,-1.9533 l -3.92,-2.54 c 0.1547,-1.384 0.216,-2.5667 0.079,-3.8427 l 3.968,-2.2893 c 0.6773,-0.416 1.0467,-1.2147 0.724,-2.092 l -2.9027,-7.8894 c -0.3213,-0.876 -1.1213,-1.2453 -1.9053,-1.1213 l -4.5053,0.828 c -0.7227,-1.0627 -1.736,-2.016 -2.5507,-2.8773 l 1.34,-4.4734 c 0.1693,-0.892 -0.2453,-1.5693 -0.8453,-1.8466 l -7.5934,-3.5094 c -0.8,-0.3693 -1.676,-0.047 -2.2466,0.6614" style="display:inline;fill:none;fill-opacity:1;fill-rule:nonzero;stroke:currentColor;stroke-width:2.66667;stroke-miterlimit:4;stroke-dasharray:none" id="path9172" />
      <path d="m 418.80511,872.57614 c -2.4013,5.1947 -0.236,11.5307 5.1587,14.0253 5.396,2.4947 11.532,0.236 14.0253,-5.16 2.4934,-5.3946 0.236,-11.5306 -5.1586,-14.024 -5.396,-2.4933 -11.624,-0.037 -14.0254,5.1587" style="display:inline;fill:none;fill-opacity:1;fill-rule:nonzero;stroke:currentColor;stroke-width:2.66667;stroke-miterlimit:4;stroke-dasharray:none" id="path9176" />
    </g>
  </g>
  <g style="display:inline" id="texte_picto_categorie" transform="translate(45.692908)">
    <g style="font-variant:normal;font-weight:bold;font-stretch:normal;font-size:17.9999px;font-family:Montserrat;-inkscape-font-specification:Montserrat-Bold;writing-mode:lr-tb;display:inline;fill:#231f20;fill-opacity:1;fill-rule:nonzero;stroke:none" id="text8294" transform="matrix(1.3333224,0.0053852,-0.0053852,1.3333224,347.66572,833.62504)" aria-label="COMPÉTENCE">
      <path id="path11546" d="m 7.1639605,-12.70793 q 1.4039923,0 2.7539849,0.575997 1.3679926,0.575997 2.3219876,1.547991 l -1.85399,2.1959882 Q 9.7739461,-9.1439496 8.9099509,-9.5759472 8.0639556,-10.025945 7.2179602,-10.025945 q -1.4939917,0 -2.5019862,1.0619944 -1.0079944,1.0439942 -1.0079944,2.5919857 0,1.5839913 1.0079944,2.6459854 1.0079945,1.0619942 2.5019862,1.0619942 0.7919957,0 1.637991,-0.3959978 0.8639952,-0.3959979 1.5299918,-1.0799941 l 1.871989,1.9799891 q -1.025994,1.0439942 -2.4299862,1.67399078 -1.3859923,0.62999653 -2.7719847,0.62999653 -2.8439843,0 -4.7339739,-1.85398981 -1.88998958,-1.8539898 -1.88998958,-4.6259745 0,-2.717985 1.92598938,-4.5359749 1.9259894,-1.83599 4.8059735,-1.83599 z" />
      <path id="path11548" d="m 19.475924,-12.70793 q 2.933983,0 4.877973,1.83599 1.943989,1.8179899 1.943989,4.5539748 0,2.7539848 -1.961989,4.6079746 -1.943989,1.85398981 -4.859973,1.85398981 -2.915984,0 -4.859974,-1.83598991 -1.943989,-1.8539898 -1.943989,-4.6259745 0,-2.7539848 1.943989,-4.5719748 1.94399,-1.81799 4.859974,-1.81799 z m 0.036,2.681985 q -1.475991,0 -2.519986,1.0799943 -1.043994,1.0619941 -1.043994,2.6459854 0,1.5839913 1.043994,2.6819852 1.061994,1.0799941 2.519986,1.0799941 1.457992,0 2.465987,-1.0799941 1.025994,-1.0979939 1.025994,-2.6819852 0,-1.5839913 -1.025994,-2.6459854 -1.007995,-1.0799943 -2.465987,-1.0799943 z" />
      <path id="path11550" d="m 41.831838,0 h -2.825984 l -0.018,-8.1899549 -3.023984,6.9299618 H 33.875882 L 30.851899,-8.1899549 V 0 h -2.861985 v -12.61793 h 3.509981 l 3.419981,7.5059582 3.419981,-7.5059582 h 3.491981 z" />
      <path id="path11552" d="m 44.369864,-12.599931 h 5.48997 q 2.411986,0 3.743979,1.151994 1.331993,1.133994 1.331993,3.2399822 0,2.2139878 -1.331993,3.4379811 -1.331993,1.2239932 -3.743979,1.2239932 H 47.573846 V 0 h -3.203982 z m 3.203982,2.519987 v 4.0139774 h 2.123989 q 1.061994,0 1.637991,-0.5219971 0.575996,-0.5219971 0.575996,-1.5119917 0,-0.9719946 -0.575996,-1.4759918 -0.575997,-0.5039968 -1.637991,-0.5039968 z" />
      <path id="path11554" d="m 64.745786,-15.731913 -2.339987,2.033988 h -2.375987 l 1.90799,-3.023983 z m 1.727991,5.651969 h -6.659963 v 2.5019858 h 6.011967 v 2.5199861 h -6.011967 v 2.537986 h 6.857962 V 0 H 56.609831 v -12.599931 h 9.863946 z" />
      <path id="path11556" d="M 78.371744,-10.025945 H 74.573765 V 0 h -3.203983 v -10.025945 h -3.761979 v -2.591985 h 10.763941 z" />
      <path id="path11558" d="m 89.603706,-10.079944 h -6.659964 v 2.5019858 h 6.011967 v 2.5199861 h -6.011967 v 2.537986 h 6.857962 V 0 H 79.73976 v -12.599931 h 9.863946 z" />
      <path id="path11560" d="m 103.49966,0 h -2.82598 L 94.877709,-7.7579573 V 0 h -3.005983 v -12.599931 h 2.825984 l 5.81397,7.7759576 v -7.7759576 h 2.98798 z" />
      <path id="path11562" d="m 111.92365,-12.70793 q 1.40399,0 2.75398,0.575997 1.368,0.575997 2.32199,1.547991 l -1.85399,2.1959882 q -0.61199,-0.7559958 -1.47599,-1.1879934 -0.846,-0.4499978 -1.69199,-0.4499978 -1.49399,0 -2.50199,1.0619944 -1.00799,1.0439942 -1.00799,2.5919857 0,1.5839913 1.00799,2.6459854 1.008,1.0619942 2.50199,1.0619942 0.792,0 1.63799,-0.3959978 0.864,-0.3959979 1.52999,-1.0799941 l 1.87199,1.9799891 q -1.02599,1.0439942 -2.42998,1.67399078 -1.386,0.62999653 -2.77199,0.62999653 -2.84398,0 -4.73397,-1.85398981 -1.88999,-1.8539898 -1.88999,-4.6259745 0,-2.717985 1.92599,-4.5359749 1.92599,-1.83599 4.80597,-1.83599 z" />
      <path id="path11564" d="m 128.33959,-10.079944 h -6.65996 v 2.5019858 h 6.01196 v 2.5199861 h -6.01196 v 2.537986 h 6.85796 V 0 h -10.06194 v -12.599931 h 9.86394 z" />
    </g>
  </g>
  <g style="display:inline" id="fond_categorie" transform="translate(45.692908)">
    <path d="m 302.01462,785.68804 c 6.9653,-40.0253 -7.1707,-80.744 -37.8014,-108.8867 l -36.488,-33.528 c -77.132,-70.8706 -35.5026,-195.3519 70.4467,-210.6466 v 0 c 73.4493,-10.604 136.744,-54.9867 169.256,-118.6827 l 14.8693,-29.1333 c 41.896,-82.084 158.9494,-82.7507 201.7787,-1.1507 l 37.88,72.1707 c 19.0373,36.272 55.5813,61.2787 97.72,66.872 l 50.2,6.664 c 106.116,14.0853 149.16398,138.084 72.844,209.8306 l -36.104,33.9414 c -30.3067,28.4893 -43.9773,69.3666 -36.556,109.3106" style="display:inline;fill:currentColor;fill-opacity:1;fill-rule:nonzero;stroke:none;stroke-width:1.33333" id="path8234" />
  </g>
  <g style="display:inline" id="picto_posture" transform="translate(45.692908)">
    <path d="m 523.01454,84.54417 -17.0961,14.4608 c -0.5746,0.484 -0.636,1.18 -0.1666,1.8093 l 3.6386,4.8867 c 0.3147,0.4213 1.1747,0.496 1.5854,0.1507 l 18.6424,-15.7158 m 27.7262,-23.4287 30.2274,-25.3675 -5.46,-6.5627 -28.4331,23.3055" style="display:inline;fill:none;stroke:currentColor;stroke-width:2.66667;stroke-linecap:butt;stroke-linejoin:miter;stroke-miterlimit:10;stroke-dasharray:none;stroke-opacity:1" id="path9122" />
    <path d="m 634.82874,110.83767 c -3.4854,4.092 -9.304,7.2626 -9.304,7.2626 0,0 0.104,3.452 2.528,5.1574 2.4253,1.7053 5.3306,0.2026 5.3306,0.2026 0,0 0.6747,2.828 3.2734,3.9413 2.5986,1.1134 8.0826,-2.3426 10.6666,-3.6826 2.5854,-1.3387 5.3627,-3.9853 6.824,-6.0747 1.46,-2.088 -0.372,-4.168 -1.7586,-5.3613 -1.3867,-1.1933 -0.017,-3.212 0,-5.5467 0.017,-2.336 -2.3787,-3.94 -3.7694,-4.5573 -1.3893,-0.6173 -3.2693,-2.2133 -2.8933,-3.8027 0.3773,-1.5866 0.063,-3.1986 -1.0347,-4.6773 -1.0986,-1.48 -3.9173,-1.896 -5.2853,-2.1053 -1.368,-0.208 -1.8173,-2.7307 -2.2267,-3.8614 -0.408,-1.1306 -1.6813,-2.4866 -5.136,-1.9946 -3.4533,0.492 -6.9426,4.4853 -6.9426,4.4853 -5.0667,9.044 -5.4587,7.5867 -7.8307,10.4453 -2.3733,2.8587 -1.048,4.124 2.9467,8.8294 3.9946,4.7053 1.94,8.0226 -0.1627,9.4386 -2.1013,1.4187 -8.412,-2.3546 -10.54,-7.7306 -2.02,-5.0974 -1.532,-9.4774 2.8347,-13.0707 4.368,-3.5947 7.868,-4.2907 7.868,-4.2907" style="display:inline;fill:none;stroke:currentColor;stroke-width:2.66667;stroke-linecap:butt;stroke-linejoin:miter;stroke-miterlimit:10;stroke-dasharray:none;stroke-opacity:1" id="path9098" />
    <path d="m 630.25584,102.25187 c 0,0 -4.852,5.5453 -10.0414,7.2466" style="display:inline;fill:none;stroke:currentColor;stroke-width:2.66667;stroke-linecap:butt;stroke-linejoin:miter;stroke-miterlimit:10;stroke-dasharray:none;stroke-opacity:1" id="path9106" />
    <g transform="matrix(1.3333333,0,0,-1.3333333,-5246.677,4645.4274)" style="display:inline" id="g9124">
      <g id="g9126" clip-path="url(#clipPath9130-1)">
        <g id="g9132" transform="translate(4432.6689,3368.8311)">
          <path d="m 0,0 -7.442,6.126 -38.29,58.556 c -0.277,0.423 4.488,4.468 4.825,3.954 L -2.152,9.434 0.467,0.292 Z" style="fill:currentColor;fill-opacity:1;fill-rule:evenodd;stroke:none" id="path9134" />
        </g>
      </g>
    </g>
    <path d="m 639.02264,118.04087 c 0,0 -4.4053,3.1519 -5.8133,5.9786" style="display:inline;fill:none;stroke: currentColor;stroke-width:2.66667;stroke-linecap:butt;stroke-linejoin:miter;stroke-miterlimit:10;stroke-dasharray:none;stroke-opacity:1" id="path9102" />
    <path d="m 625.52464,118.10077 c 0,0 -0.4747,0.9586 -3.988,-0.5894" style="display:inline;fill:none;stroke:currentColor;stroke-width:2.66667;stroke-linecap:butt;stroke-linejoin:miter;stroke-miterlimit:10;stroke-dasharray:none;stroke-opacity:1" id="path9110" />
    <path d="m 595.19964,24.936572 4.1907,5.870701 c 0.4707,0.66 0.456,1.4866 -0.032,1.8346 l -2.8013,1.908 c -0.4894,0.349397 -1.2747,0.095 -1.7454,-0.5666 l -4.1906,-5.8707 c -0.4707,-0.66 -0.456,-1.4853 0.032,-1.8347 l 2.8013,-1.906601 c 0.4893,-0.3494 1.2733,-0.095 1.7453,0.5653 z" style="display:inline;fill:none;stroke:currentColor;stroke-width:2.66667;stroke-linecap:butt;stroke-linejoin:miter;stroke-miterlimit:10;stroke-dasharray:none;stroke-opacity:1" id="path9074" />
    <path d="m 565.25114,27.466573 c -2.1506,-4.641301 11.524,-15.044001 15.832,-11.492001 9.652,7.9613 17.5947,19.358698 23.544,32.435998 1.96,4.3067 -11.6213,15.0053 -15.832,11.492 -10.36,-8.6427 -17.824,-20.0907 -23.544,-32.435997" style="display:inline;fill:currentColor;fill-opacity:1;fill-rule:evenodd;stroke:none;stroke-width:1.33333" id="path9078" />
    <path d="m 561.54274,64.41317 c 0,0 3.5534,1.984 5.5427,5.4733 1.9893,3.4894 2.036,6.3494 -1.0587,11.2334 -3.0933,4.884 -9.6866,7.816 -11.5586,6.1053 -1.872,-1.7093 -3.4187,-5.2907 1.2213,-9.3613 4.64,-4.0707 6.136,-5.128 4.208,-8.3027 -1.9293,-3.176 -2.5307,-1.7907 -6.2187,-11.4787 0,0 -2.8666,-4.4613 -6.212,-5.4533 -3.344,-0.992 -4.8026,0.1627 -5.372,1.2214 -0.5706,1.0573 -1.384,3.4879 -2.768,3.4933 -1.384,0.01 -4.2333,0.01 -5.5346,1.3093 -1.304,1.3013 -1.8507,2.8507 -1.7107,4.4773 0.14,1.6267 -1.9533,2.9294 -3.4187,3.3374 -1.4653,0.4066 -4.0706,1.6426 -4.396,3.956 -0.3253,2.312 0.7334,4.5106 -0.8133,5.4866 -1.548,0.976 -3.6627,2.768 -2.524,5.0467 1.14,2.28 3.5,5.3053 5.8613,7.008 2.3614,1.7027 7.28,5.924 10.012,5.2027 2.7334,-0.7214 3.816,-3.4187 3.816,-3.4187 0,0 2.6534,1.912 5.3014,0.58 2.6493,-1.3333 3.2573,-4.7307 3.2573,-4.7307 0,0 -5.292,-3.9906 -8.1413,-8.548" style="display:inline;fill:none;stroke:currentColor;stroke-width:2.66667;stroke-linecap:butt;stroke-linejoin:miter;stroke-miterlimit:10;stroke-dasharray:none;stroke-opacity:1" id="path9082" />
    <path d="m 535.83254,83.56297 c 0,0 3.8973,3.7626 4.876,6.7653" style="display:inline;fill:none;stroke:currentColor;stroke-width:2.66667;stroke-linecap:butt;stroke-linejoin:miter;stroke-miterlimit:10;stroke-dasharray:none;stroke-opacity:1" id="path9086" />
    <path d="m 546.81624,69.22697 c 0,0 3.988,6.1946 8.8733,8.6373" style="display:inline;fill:none;stroke:currentColor;stroke-width:2.66667;stroke-linecap:butt;stroke-linejoin:miter;stroke-miterlimit:10;stroke-dasharray:none;stroke-opacity:1" id="path9090" />
    <path d="m 549.17694,85.59797 c 0,0 0.3293,1.0173 4.0307,0" style="display:inline;fill:none;stroke:currentColor;stroke-width:2.66667;stroke-linecap:butt;stroke-linejoin:miter;stroke-miterlimit:10;stroke-dasharray:none;stroke-opacity:1" id="path9094" />
  </g>
  <g style="display:inline" id="filet_1_categorie" transform="translate(45.692908)">
    <g style="display:inline" transform="matrix(1.3333333,0,0,-1.3333333,259.09862,403.90484)" id="g8308">
      <path id="path8310" style="fill:none;fill-opacity:1;fill-rule:nonzero;stroke:currentColor;stroke-width:2;stroke-miterlimit:4;stroke-dasharray:none" d="m 0,0 c -0.342,5.528 -0.499,11.066 -0.453,16.604 0.022,2.675 0.078,5.353 0.206,8.025 0.116,2.41 0.333,4.847 1.175,7.127 1.616,4.376 5.825,6.666 9.834,8.494 4.435,2.02 8.935,3.9 13.405,5.841 9.161,3.977 18.298,8.082 26.916,13.156 8.188,4.821 15.719,10.607 22.48,17.286 13.664,13.499 24.115,29.792 34.046,46.115 10.391,17.079 20.421,34.694 33.815,49.661 6.327,7.07 13.359,13.56 20.991,19.203 3.98709,2.94884 8.16345,5.70421 12.52409,8.11329" />
    </g>
    <g style="display:inline" transform="matrix(1.3333333,0,0,-1.3333333,912.75482,401.24084)" id="g8312">
      <path id="path8314" style="fill:none;fill-opacity:1;fill-rule:nonzero;stroke:currentColor;stroke-width:2;stroke-miterlimit:4;stroke-dasharray:none" d="m -173.118,193.255 c 8.416,-5.252 16.227,-11.49 23.299,-18.444 14.837,-14.592 25.667,-32.697 36.598,-50.241 5.034,-8.08 10.161,-16.102 15.214,-24.171 4.948,-7.902 9.992,-15.767 15.661,-23.177 5.312,-6.945 11.172,-13.58 18.189,-18.852 7.997,-6.007 17.429,-8.919 27.037,-11.202 4.876,-1.158 9.775,-2.233 14.577,-3.677 4.718,-1.419 9.605,-3.103 13.819,-5.704 C -6.772,36.583 -5.02,35.04 -3.919,33 -2.678,30.702 -2.31,28.038 -2.121,25.468 -1.704,19.808 -1.649,14.099 -1.729,8.426 -1.769,5.616 -1.862,2.807 -2,0" />
    </g>
    <g transform="matrix(1.3333333,0,0,-1.3333333,801.67672,1066.3013)" id="g8316" style="display:inline;stroke-width:2;stroke-miterlimit:4;stroke-dasharray:none">
      <path id="path8318" style="fill:none;stroke:currentColor;stroke-width:2;stroke-linecap:butt;stroke-linejoin:miter;stroke-miterlimit:4;stroke-dasharray:none;stroke-opacity:1" d="m 0,0 -21.339,-33.168 c -7.204,-11.198 -25.038,-20.474 -39.754,-20.676 l -182.943,-2.517 c -14.715,-0.202 -32.797,8.579 -40.306,19.575 l -22.017,32.236" />
    </g>
  </g>
  <g style="display:inline;opacity:0.2" id="filet_2_categorie" transform="translate(45.692908)">
    <path d="m 701.08622,1052.6229 -50.7107,-27.3173 c -42.5666,-22.9334 -93.2626,-22.644 -135.5666,0.772 l -50.3947,27.8946 c -106.5307,58.9655 -231.9667,-34.5786 -212.2613,-158.29729 l 9.3213,-58.5253 c 7.824,-49.1294 -8.128,-99.1214 -42.6573,-133.6867 l -41.1334,-41.176 c -86.953295,-87.0426 -40.116,-239.8253 79.2574,-258.54 h 10e-4 c 82.756,-12.9746 154.0493,-67.4186 190.6466,-145.5906 v -0.001 c 52.7907,-112.76001 207.172,-113.64141 261.2454,-1.4894 l 25.58,53.0547 c 21.472,44.536 62.6626,75.2547 110.148,82.1453 l 56.568,8.208 c 119.57998,17.352 168.15598,169.5907 82.2013,257.62 l -40.6627,41.6427 c -34.1333,34.956 -49.5133,85.1266 -41.1293,134.1626 l 9.9893,58.4174 c 21.1137,123.48499 -103.2463,218.45439 -210.4423,160.70629 z" style="display:inline;fill:none;stroke:currentColor;stroke-width:36;stroke-linecap:butt;stroke-linejoin:miter;stroke-miterlimit:10;stroke-dasharray:none;stroke-opacity:1" id="path8244" />
  </g>
  <g style="display:inline" id="filet_3_posture" transform="translate(45.692908)">
    <path d="m 699.94742,1053.58 -50.2213,-27.3813 c -42.1573,-22.9853 -92.3626,-22.7 -134.256,0.7653 l -49.9066,27.952 c -105.496,59.0881 -229.724,-34.6706 -210.2187,-158.65856 l 9.228,-58.6534 c 7.7453,-49.2359 -8.056,-99.3386 -42.2533,-133.9813 l -40.7387,-41.2693 c -86.118702,-87.24 -39.744,-240.3547 78.4733,-259.1013 v 0 c 81.9547,-12.9974 152.556,-67.556 188.7933,-145.8974 52.272,-113.0053 205.16,-113.8773 258.7187,-1.4746 l 25.336,53.172 c 21.2667,44.6346 62.0613,75.4226 109.088,82.332 l 56.0213,8.2306 c 118.42538,17.3974 166.54138,169.9747 81.424,258.1894 l -40.2666,41.7306 c -33.8,35.0307 -49.028,85.3107 -40.7227,134.456 l 9.896,58.544 c 20.9187,123.75726 -102.232,218.92536 -208.396,161.04526 z" style="display:inline;fill:none;stroke:currentColor;stroke-width:16;stroke-linecap:butt;stroke-linejoin:miter;stroke-miterlimit:10;stroke-dasharray:none;stroke-opacity:1" id="path8334-3" />
  </g>

  <g style="display:inline" id="picto_titre_badge" transform="translate(45.692908)">
    <g style="font-variant:normal;font-stretch:normal;font-size:200px;font-family:'Gotham Ultra';-inkscape-font-specification:Gotham-Ultra;writing-mode:lr-tb;display:inline;fill:#ffffff;fill-opacity:1;fill-rule:nonzero;stroke:none" id="text9280" transform="matrix(1.3333333,0,0,1.3333333,494.86222,620.51614)" aria-label="X">
      <path id="path11332" d="M -1.8,0 H 50.4 L 72.8,-36.4 95,0 h 53.2 L 100.8,-71.8 146.2,-140 H 94 L 73.6,-106.6 53.4,-140 H 0.2 l 45.4,68.8 z" />
    </g>
  </g>
  <g style="display:inline" id="texte_titre_badge" transform="translate(45.692908)">
    <path d="m 345.06832,736.68554 h 12.48 v -26.7733 h 10.9866 v -10.56 h -34.4533 v 10.56 h 10.9867 z" id="path11353" style="font-variant:normal;font-stretch:normal;font-size:40px;font-family:'Gotham Ultra';-inkscape-font-specification:Gotham-Ultra;writing-mode:lr-tb;display:inline;fill:#ffffff;fill-opacity:1;fill-rule:nonzero;stroke:none;stroke-width:1.33333" />
    <path d="m 374.13492,736.68554 h 12.48 v -37.3333 h -12.48 z" id="path11355" style="font-variant:normal;font-stretch:normal;font-size:40px;font-family:'Gotham Ultra';-inkscape-font-specification:Gotham-Ultra;writing-mode:lr-tb;display:inline;fill:#ffffff;fill-opacity:1;fill-rule:nonzero;stroke:none;stroke-width:1.33333" />
    <path d="m 403.20162,736.68554 h 12.48 v -26.7733 h 10.9867 v -10.56 h -34.4534 v 10.56 h 10.9867 z" id="path11357" style="font-variant:normal;font-stretch:normal;font-size:40px;font-family:'Gotham Ultra';-inkscape-font-specification:Gotham-Ultra;writing-mode:lr-tb;display:inline;fill:#ffffff;fill-opacity:1;fill-rule:nonzero;stroke:none;stroke-width:1.33333" />
    <path d="m 432.16162,736.68554 h 12.48 v -10.6667 h 2.6667 l 7.04,10.6667 h 14.24 l -8.6934,-12.6933 c 4.5334,-2.1867 7.36,-5.9734 7.36,-11.4134 v -0.1066 c 0,-3.84 -1.1733,-6.6134 -3.4133,-8.8534 -2.6133,-2.6133 -6.8267,-4.2666 -13.44,-4.2666 h -18.24 z m 12.48,-19.5733 v -7.3067 h 5.44 c 2.88,0 4.7467,1.1733 4.7467,3.5733 v 0.1067 c 0,2.2933 -1.8134,3.6267 -4.8,3.6267 z" id="path11359" style="font-variant:normal;font-stretch:normal;font-size:40px;font-family:'Gotham Ultra';-inkscape-font-specification:Gotham-Ultra;writing-mode:lr-tb;display:inline;fill:#ffffff;fill-opacity:1;fill-rule:nonzero;stroke:none;stroke-width:1.33333" />
    <path d="m 472.96162,736.68554 h 32.1067 v -10.24 h -19.84 v -4.0533 h 18.24 v -9.0134 h -18.24 v -3.7866 h 19.5733 v -10.24 h -31.84 z" id="path11361" style="font-variant:normal;font-stretch:normal;font-size:40px;font-family:'Gotham Ultra';-inkscape-font-specification:Gotham-Ultra;writing-mode:lr-tb;display:inline;fill:#ffffff;fill-opacity:1;fill-rule:nonzero;stroke:none;stroke-width:1.33333" />
    <path d="m 527.30832,736.68554 h 13.8666 c 15.0934,0 22.6667,-7.84 22.6667,-18.88 v -0.1067 c 0,-11.04 -7.4133,-18.3466 -22.24,-18.3466 h -14.2933 z m 12.48,-10.88 v -15.5733 h 2.08 c 5.7066,0 9.3866,2.3466 9.3866,7.7333 v 0.1067 c 0,5.3866 -3.68,7.7333 -9.3866,7.7333 z" id="path11363" style="font-variant:normal;font-stretch:normal;font-size:40px;font-family:'Gotham Ultra';-inkscape-font-specification:Gotham-Ultra;writing-mode:lr-tb;display:inline;fill:#ffffff;fill-opacity:1;fill-rule:nonzero;stroke:none;stroke-width:1.33333" />
    <path d="m 587.94832,737.43224 c 11.1466,0 18.56,-5.0134 18.56,-17.76 v -20.32 h -12.6934 v 20.6933 c 0,4.5333 -2.4,6.3467 -5.76,6.3467 -3.36,0 -5.76,-1.9734 -5.76,-6.6134 v -20.4266 h -12.6933 v 20.5866 c 0,12.3734 7.2,17.4934 18.3467,17.4934 z" id="path11365" style="font-variant:normal;font-stretch:normal;font-size:40px;font-family:'Gotham Ultra';-inkscape-font-specification:Gotham-Ultra;writing-mode:lr-tb;display:inline;fill:#ffffff;fill-opacity:1;fill-rule:nonzero;stroke:none;stroke-width:1.33333" />
    <path d="m 629.33492,736.68554 h 20.6934 c 9.44,0 14.3466,-4.3733 14.3466,-10.3467 v -0.1066 c 0,-5.12 -3.0933,-7.68 -7.8933,-9.0667 4,-1.3867 6.6667,-4.1067 6.6667,-8.5333 v -0.1067 c 0,-2.56 -0.96,-4.48 -2.2934,-5.8133 -2.1866,-2.1867 -5.44,-3.36 -10.6133,-3.36 h -20.9067 z m 12.16,-22.6667 v -5.2266 h 5.3867 c 2.6667,0 4,0.9066 4,2.56 v 0.1066 c 0,1.6534 -1.28,2.56 -3.9467,2.56 z m 0,13.2267 v -5.5467 h 6.2934 c 2.72,0 4.0533,1.12 4.0533,2.72 v 0.1067 c 0,1.6 -1.3867,2.72 -4.1067,2.72 z" id="path11367" style="font-variant:normal;font-stretch:normal;font-size:40px;font-family:'Gotham Ultra';-inkscape-font-specification:Gotham-Ultra;writing-mode:lr-tb;display:inline;fill:#ffffff;fill-opacity:1;fill-rule:nonzero;stroke:none;stroke-width:1.33333" />
    <path d="m 667.04162,736.68554 h 13.3333 l 1.92,-5.0133 h 13.0667 l 1.9733,5.0133 h 13.5467 l -15.7333,-37.6 h -12.3734 z m 18.4,-13.8667 3.4133,-9.0666 3.4134,9.0666 z" id="path11369" style="font-variant:normal;font-stretch:normal;font-size:40px;font-family:'Gotham Ultra';-inkscape-font-specification:Gotham-Ultra;writing-mode:lr-tb;display:inline;fill:#ffffff;fill-opacity:1;fill-rule:nonzero;stroke:none;stroke-width:1.33333" />
    <path d="m 715.09492,736.68554 h 13.8667 c 15.0933,0 22.6667,-7.84 22.6667,-18.88 v -0.1067 c 0,-11.04 -7.4134,-18.3466 -22.24,-18.3466 h -14.2934 z m 12.48,-10.88 v -15.5733 h 2.08 c 5.7067,0 9.3867,2.3466 9.3867,7.7333 v 0.1067 c 0,5.3866 -3.68,7.7333 -9.3867,7.7333 z" id="path11371" style="font-variant:normal;font-stretch:normal;font-size:40px;font-family:'Gotham Ultra';-inkscape-font-specification:Gotham-Ultra;writing-mode:lr-tb;display:inline;fill:#ffffff;fill-opacity:1;fill-rule:nonzero;stroke:none;stroke-width:1.33333" />
    <path d="m 777.81492,737.48554 c 6.7734,0 12.4267,-2.2933 16.48,-5.6 v -17.28 h -18.08 v 8 h 6.4 v 3.7333 c -0.96,0.5334 -2.1333,0.8534 -4.2666,0.8534 -5.2267,0 -8.9067,-3.6267 -8.9067,-8.9067 v -0.1067 c 0,-5.0666 3.52,-8.8 8.3733,-8.8 3.0934,0 5.8134,1.1734 8.2667,3.2534 l 6.9867,-8.4267 c -4.0534,-3.52 -9.2267,-5.6533 -15.6267,-5.6533 -11.7867,0 -20.5867,8.32 -20.5867,19.4666 v 0.1067 c 0,11.5733 9.3334,19.36 20.96,19.36 z" id="path11373" style="font-variant:normal;font-stretch:normal;font-size:40px;font-family:'Gotham Ultra';-inkscape-font-specification:Gotham-Ultra;writing-mode:lr-tb;display:inline;fill:#ffffff;fill-opacity:1;fill-rule:nonzero;stroke:none;stroke-width:1.33333" />
    <path d="m 800.58832,736.68554 h 32.1066 v -10.24 h -19.84 v -4.0533 h 18.24 v -9.0134 h -18.24 v -3.7866 h 19.5734 v -10.24 h -31.84 z" id="path11375" style="font-variant:normal;font-stretch:normal;font-size:40px;font-family:'Gotham Ultra';-inkscape-font-specification:Gotham-Ultra;writing-mode:lr-tb;display:inline;fill:#ffffff;fill-opacity:1;fill-rule:nonzero;stroke:none;stroke-width:1.33333" />
  </g>
</svg>
