<?xml version="1.0" encoding="UTF-8" standalone="no"?>
<svg xmlns:dc="http://purl.org/dc/elements/1.1/"
  xmlns:cc="http://creativecommons.org/ns#"
  xmlns:rdf="http://www.w3.org/1999/02/22-rdf-syntax-ns#"
  xmlns:svg="http://www.w3.org/2000/svg"
  xmlns="http://www.w3.org/2000/svg" version="1.1" x="0px" y="0px" width="100%" height="100%" viewBox="0 0 1247.2441 1247.2441" enable-background="new 0 0 850.394 841.89" xml:space="preserve" id="svg235">
  <metadata id="metadata241">
    <rdf:RDF>
      <cc:Work rdf:about="">
        <dc:format>image/svg+xml</dc:format>
        <dc:type rdf:resource="http://purl.org/dc/dcmitype/StillImage" />
        <dc:title></dc:title>
      </cc:Work>
    </rdf:RDF>
  </metadata>
  <defs id="defs239">
    <clipPath id="clipPath9288-1" clipPathUnits="userSpaceOnUse">
      <path id="path9286-2" d="M 0,6962.785 H 9837.817 V 0 H 0 Z" />
    </clipPath>
    <clipPath clipPathUnits="userSpaceOnUse" id="clipPath9288-1-5">
      <path d="M 0,6962.785 H 9837.817 V 0 H 0 Z" id="path9286-2-9" />
    </clipPath>
    <clipPath id="clipPath9130-1" clipPathUnits="userSpaceOnUse">
      <path id="path9128-5" d="m 4390.767,3442.842 c 0,-0.375 -9.505,-10.002 -9.505,-10.002 v 0 l 5.664,-19.623 11.828,-3.585 c 1.949,1.782 5.013,5.444 6.548,8.463 v 0 l 18.718,-21.803 0.958,-1.02 c -2.835,-3.093 -6.363,-5.286 -9.528,-6.562 v 0 l 4.693,-17.243 13.125,-9.75 0.376,10.624 c 0,0 -5.126,47.875 -5.375,48.251 v 0 c -0.252,0.375 -24.334,23.749 -24.334,23.749 v 0 c 0,0 -13.168,-1.126 -13.168,-1.499" />
    </clipPath>
  </defs>
  <g id="fond_blanc">
    <path id="path8334-3-6" style="display:inline;fill:#ffffff;stroke:none;stroke-width:24;stroke-linecap:butt;stroke-linejoin:miter;stroke-miterlimit:10;stroke-dasharray:none;stroke-opacity:1" d="m 745.64033,1053.58 -50.2213,-27.3813 c -42.1573,-22.9853 -92.3626,-22.7 -134.256,0.7653 l -49.9066,27.952 c -105.496,59.0881 -229.724,-34.6706 -210.2187,-158.65858 l 9.228,-58.6534 c 7.7453,-49.2359 -8.056,-99.3386 -42.25331,-133.9813 l -40.7387,-41.2693 c -86.11871,-87.24 -39.744,-240.3547 78.47331,-259.1013 v 0 c 81.9547,-12.9974 152.556,-67.556 188.7933,-145.8974 52.272,-113.0053 205.16,-113.8773 258.7187,-1.4746 l 25.336,53.172 c 21.2667,44.6346 62.0613,75.4226 109.088,82.332 l 56.0213,8.2306 c 118.42537,17.3974 166.54137,169.9747 81.42397,258.1894 l -40.26657,41.7306 c -33.8,35.0307 -49.028,85.3107 -40.7227,134.456 l 9.896,58.544 c 20.9187,123.75728 -102.232,218.92538 -208.396,161.04528 z" />
  </g>
  <g id="texte_posture" style="display:inline">
    <g id="g12579" style="display:inline" transform="matrix(1.3333333,0,0,-1.3333333,-5188.3589,3013.8052)">
      <text transform="matrix(0.77979057,-0.62604046,-0.62604046,-0.77979057,4163.2051,1410.9993)" style="font-variant:normal;font-weight:bold;font-stretch:normal;font-size:40px;font-family:Montserrat;-inkscape-font-specification:Montserrat-Bold;writing-mode:lr-tb;fill:#122c2f;fill-opacity:1;fill-rule:nonzero;stroke:none" id="text8698">
        <tspan x="0" y="0" id="tspan8696">J</tspan>
      </text>
      <text transform="matrix(0.83154418,-0.55545862,-0.55545862,-0.83154418,4182.6729,1395.4142)" style="font-variant:normal;font-weight:bold;font-stretch:normal;font-size:39.9999px;font-family:Montserrat;-inkscape-font-specification:Montserrat-Bold;writing-mode:lr-tb;fill:#122c2f;fill-opacity:1;fill-rule:nonzero;stroke:none" id="text8702">
        <tspan x="0" y="0" id="tspan8700">E</tspan>
      </text>
      <text transform="matrix(0.89724719,-0.44152858,-0.44152858,-0.89724719,4218.6069,1372.6921)" style="font-variant:normal;font-weight:bold;font-stretch:normal;font-size:39.9999px;font-family:Montserrat;-inkscape-font-specification:Montserrat-Bold;writing-mode:lr-tb;fill:#122c2f;fill-opacity:1;fill-rule:nonzero;stroke:none" id="text8706">
        <tspan x="0" y="0" id="tspan8704">S</tspan>
      </text>
      <text transform="matrix(0.93671481,-0.35009336,-0.35009336,-0.93671481,4244.9858,1359.7734)" style="font-variant:normal;font-weight:bold;font-stretch:normal;font-size:39.9999px;font-family:Montserrat;-inkscape-font-specification:Montserrat-Bold;writing-mode:lr-tb;fill:#122c2f;fill-opacity:1;fill-rule:nonzero;stroke:none" id="text8710">
        <tspan x="0" y="0" id="tspan8708">A</tspan>
      </text>
      <text transform="matrix(0.96121419,-0.27580298,-0.27580298,-0.96121419,4277.126,1348.2782)" style="font-variant:normal;font-weight:bold;font-stretch:normal;font-size:39.9999px;font-family:Montserrat;-inkscape-font-specification:Montserrat-Bold;writing-mode:lr-tb;fill:#122c2f;fill-opacity:1;fill-rule:nonzero;stroke:none" id="text8714">
        <tspan x="0" y="0" id="tspan8712">I</tspan>
      </text>
      <text transform="matrix(0.97808775,-0.20819308,-0.20819308,-0.97808775,4292.4009,1343.7759)" style="font-variant:normal;font-weight:bold;font-stretch:normal;font-size:39.9999px;font-family:Montserrat;-inkscape-font-specification:Montserrat-Bold;writing-mode:lr-tb;fill:#122c2f;fill-opacity:1;fill-rule:nonzero;stroke:none" id="text8718">
        <tspan x="0" y="0" id="tspan8716">S</tspan>
      </text>
      <text transform="matrix(0.99678018,-0.08018272,-0.08018272,-0.99678018,4332.9785,1336.1252)" style="font-variant:normal;font-weight:bold;font-stretch:normal;font-size:39.9999px;font-family:Montserrat;-inkscape-font-specification:Montserrat-Bold;writing-mode:lr-tb;fill:#122c2f;fill-opacity:1;fill-rule:nonzero;stroke:none" id="text8722">
        <tspan x="0" y="0" id="tspan8720">P</tspan>
      </text>
      <text transform="matrix(0.9998637,0.01651002,0.01651002,-0.9998637,4363.6406,1333.783)" style="font-variant:normal;font-weight:bold;font-stretch:normal;font-size:40px;font-family:Montserrat;-inkscape-font-specification:Montserrat-Bold;writing-mode:lr-tb;fill:#122c2f;fill-opacity:1;fill-rule:nonzero;stroke:none" id="text8726">
        <tspan x="0" y="0" id="tspan8724">R</tspan>
      </text>
      <text transform="matrix(0.99248884,0.12233517,0.12233517,-0.99248884,4396.4419,1334.4778)" style="font-variant:normal;font-weight:bold;font-stretch:normal;font-size:39.9999px;font-family:Montserrat;-inkscape-font-specification:Montserrat-Bold;writing-mode:lr-tb;fill:#122c2f;fill-opacity:1;fill-rule:nonzero;stroke:none" id="text8730">
        <tspan x="0" y="0" id="tspan8728">A</tspan>
      </text>
      <text transform="matrix(0.9776529,0.21022562,0.21022562,-0.9776529,4427.5122,1338.4729)" style="font-variant:normal;font-weight:bold;font-stretch:normal;font-size:39.9999px;font-family:Montserrat;-inkscape-font-specification:Montserrat-Bold;writing-mode:lr-tb;fill:#122c2f;fill-opacity:1;fill-rule:nonzero;stroke:none" id="text8734">
        <tspan x="0" y="0" id="tspan8732">T</tspan>
      </text>
      <text transform="matrix(0.9608035,0.27723029,0.27723029,-0.9608035,4454.4795,1344.5928)" style="font-variant:normal;font-weight:bold;font-stretch:normal;font-size:40px;font-family:Montserrat;-inkscape-font-specification:Montserrat-Bold;writing-mode:lr-tb;fill:#122c2f;fill-opacity:1;fill-rule:nonzero;stroke:none" id="text8738">
        <tspan x="0" y="0" id="tspan8736">I</tspan>
      </text>
      <text transform="matrix(0.93481585,0.35513282,0.35513282,-0.93481585,4470.0684,1348.8165)" style="font-variant:normal;font-weight:bold;font-stretch:normal;font-size:40px;font-family:Montserrat;-inkscape-font-specification:Montserrat-Bold;writing-mode:lr-tb;fill:#122c2f;fill-opacity:1;fill-rule:nonzero;stroke:none" id="text8742">
        <tspan x="0" y="0" id="tspan8740">Q</tspan>
      </text>
      <text transform="matrix(0.88968697,0.45657101,0.45657101,-0.88968697,4503.9229,1361.9752)" style="font-variant:normal;font-weight:bold;font-stretch:normal;font-size:39.9999px;font-family:Montserrat;-inkscape-font-specification:Montserrat-Bold;writing-mode:lr-tb;fill:#122c2f;fill-opacity:1;fill-rule:nonzero;stroke:none" id="text8746">
        <tspan x="0" y="0" id="tspan8744">U</tspan>
      </text>
      <text transform="matrix(0.83877457,0.54447885,0.54447885,-0.83877457,4534.1284,1377.7888)" style="font-variant:normal;font-weight:bold;font-stretch:normal;font-size:39.9999px;font-family:Montserrat;-inkscape-font-specification:Montserrat-Bold;writing-mode:lr-tb;fill:#122c2f;fill-opacity:1;fill-rule:nonzero;stroke:none" id="text8750">
        <tspan x="0" y="0" id="tspan8748">E</tspan>
      </text>
      <text transform="matrix(0.78071391,0.62488863,0.62488863,-0.78071391,4559.792,1394.6099)" style="font-variant:normal;font-weight:bold;font-stretch:normal;font-size:39.9999px;font-family:Montserrat;-inkscape-font-specification:Montserrat-Bold;writing-mode:lr-tb;fill:#122c2f;fill-opacity:1;fill-rule:nonzero;stroke:none" id="text8754">
        <tspan x="0" y="0" id="tspan8752">R</tspan>
      </text>
    </g>
  </g>
  <g id="filet_separation_theme" style="display:inline">
    <g transform="matrix(1.3333333,0,0,-1.3333333,625.15013,863.08644)" id="g8304" style="display:inline;stroke:currentColor;stroke-width:2;stroke-miterlimit:4;stroke-dasharray:none">
      <path id="path8306" style="fill:none;stroke:currentColor;stroke-width:2;stroke-linecap:butt;stroke-linejoin:miter;stroke-miterlimit:4;stroke-dasharray:none;stroke-opacity:1" d="M 0,0 -0.238,-58.985" />
    </g>
  </g>
  <g id="picto_theme" style="display:inline">
    <g transform="matrix(1.3333333,0,0,-1.3333333,-5181.4528,7911.3389)" id="g9282" style="display:inline;stroke-width:2;stroke-miterlimit:4;stroke-dasharray:none">
      <g id="g9284" clip-path="url(#clipPath9288-1-5)" style="stroke-width:2;stroke-miterlimit:4;stroke-dasharray:none">
        <g id="g9290" transform="translate(4429.9297,5217.0918)" style="stroke-width:2;stroke-miterlimit:4;stroke-dasharray:none">
          <path d="M 0,0 H 22.033 L 31.488,15.364 40.858,0 H 63.313 L 43.307,30.306 62.47,59.093 H 40.437 L 31.826,44.994 23.3,59.093 H 0.845 l 19.162,-29.04 z" style="fill:none;stroke:currentColor;stroke-width:2;stroke-linecap:butt;stroke-linejoin:miter;stroke-miterlimit:4;stroke-dasharray:none;stroke-opacity:1" id="path9292" />
        </g>
      </g>
    </g>
  </g>
  <g id="texte_picto_theme" style="display:inline">
    <text y="830.62504" x="727.20673" transform="rotate(0.23141256)" style="font-variant:normal;font-weight:bold;font-stretch:normal;font-size:23.9999px;font-family:Montserrat;-inkscape-font-specification:Montserrat-Bold;writing-mode:lr-tb;display:inline;fill:#231f20;fill-opacity:1;fill-rule:nonzero;stroke:none;stroke-width:1.33333" id="text8322">
      <tspan style="stroke-width:1.33333" x="727.20673 741.87079 760.73456 776.91083 798.75067" y="828.62504" id="tspan8320">THEME</tspan>
    </text>
  </g>
  <g id="picto_categorie" style="display:inline">
    <g style="display:inline" id="g651" transform="translate(51.92612)">
      <path d="m 441.49941,934.72044 -4.5147,-12.272 c -0.3227,-0.876 -1.1213,-1.2466 -1.9053,-1.1226 l -7.736,1.5186 c -1.336,-1.8306 -3.1654,-3.6453 -4.8867,-5.1693 l 2.0333,-7.548 c 0.1694,-0.892 -0.2453,-1.5693 -0.8453,-1.8467 l -11.9893,-5.54 c -0.7987,-0.3706 -1.676,-0.047 -1.9534,0.552 l -4.4306,6.44 c -2.276,-0.324 -4.644,-0.448 -7.196,-0.172 l -3.856,-6.8746 c -0.4147,-0.6774 -1.2147,-1.0467 -2.0907,-0.724 l -12.272,4.5146 c -0.8773,0.3214 -1.2467,1.12 -1.124,1.9054 l 1.5187,7.7346 c -1.9227,1.536 -3.6454,3.1654 -5.168,4.8867 l -7.5494,-2.0333 c -1.1066,-0.7547 -1.7826,-0.3387 -2.152,0.46 l -5.5426,11.9906 c -0.368,0.7987 -0.047,1.676 0.5533,1.952 l 6.44,4.4334 c -0.324,2.2746 -0.448,4.6426 -0.172,7.1946 l -6.876,3.856 c -0.676,0.4147 -1.0453,1.2147 -0.724,2.0907 l 4.5147,12.272 c 0.3226,0.876 1.1226,1.2467 1.9066,1.124 l 7.7347,-1.5187 c 1.5373,1.9227 3.1653,3.6467 4.7947,5.3694 l -2.0334,7.548 c -0.1693,0.892 0.2454,1.5693 0.844,1.8453 l 11.9907,5.5413 c 0.8,0.3694 1.676,0.047 1.9533,-0.552 l 4.432,-6.44 c 2.4747,0.4147 4.8427,0.54 7.1027,0.372 l 3.856,6.8747 c 0.4147,0.676 1.2133,1.0453 2.0907,0.7227 l 12.272,-4.5147 c 0.876,-0.3213 1.2466,-1.12 1.1226,-1.904 l -1.5173,-7.736 c 1.9227,-1.536 3.8453,-3.0733 5.368,-4.7947 l 7.5493,2.0347 c 0.8907,0.1693 1.568,-0.2467 1.8454,-0.8453 l 5.5413,-11.9907 c 0.3693,-0.8 0.047,-1.676 -0.5533,-1.9533 l -6.44,-4.4307 c 0.324,-2.2747 0.448,-4.644 0.1733,-7.196 l 6.8747,-3.856 c 1.0613,-0.7213 1.2306,-1.6133 1.016,-2.1987" style="display:inline;fill:none;fill-opacity:1;fill-rule:nonzero;stroke:currentColor;stroke-width:2.66667;stroke-miterlimit:4;stroke-dasharray:none" id="path9156" />
      <path d="m 385.99111,936.23134 c -3.6013,7.7934 -0.1613,17.1427 7.632,20.744 7.7934,3.604 17.144,0.1627 20.7454,-7.6293 3.6026,-7.7947 0.1626,-17.1453 -7.6307,-20.7467 -7.7933,-3.6013 -17.144,-0.1626 -20.7467,7.632" style="display:inline;fill:none;fill-opacity:1;fill-rule:nonzero;stroke:currentColor;stroke-width:2.66667;stroke-miterlimit:4;stroke-dasharray:none" id="path9160" />
      <path id="path9164" style="display:inline;fill:none;fill-opacity:1;fill-rule:nonzero;stroke:currentColor;stroke-width:2.66667;stroke-miterlimit:4;stroke-dasharray:none" d="m 481.51631,884.33984 -3.2,4.8266 c -1.584,-0.248 -3.46,-0.3866 -5.228,-0.2333 l -2.9186,-5.2293 c -0.4147,-0.6774 -1.2147,-1.0467 -2.0907,-0.724 l -9.6427,3.5466 c -0.876,0.3227 -1.2466,1.1214 -1.1226,1.9067 l 1.1653,5.8733 c -1.4467,1.0307 -2.692,2.1507 -3.8307,3.5654 l -5.5653,-1.6014 c -0.892,-0.1693 -1.568,0.244 -1.8453,0.8454 l -4.248,9.192 c -0.3694,0.7986 -0.048,1.676 0.552,1.952 l 4.8266,3.2013 c -0.2466,1.584 -0.3866,3.4587 -0.2333,5.2267 l -5.2293,2.92 c -0.676,0.4146 -1.0467,1.2133 -0.724,2.0906 l 3.548,9.6414 c 0.3213,0.8773 1.1213,1.2466 1.9053,1.124 l 5.8747,-1.1654 c 1.0293,1.4454 2.1506,2.692 3.5653,3.8294 l -1.6027,5.5653 c -0.1693,0.892 0.2454,1.5693 0.8454,1.8467 l 9.192,4.2466 c 0.8,0.3707 1.676,0.048 1.9533,-0.552 l 3.2,-4.8266 c 1.784,0.34 3.46,0.3866 5.228,0.2346 l 2.9187,5.2294 c 0.4146,0.676 1.2146,1.0453 2.0906,0.7226 l 9.6427,-3.5466 c 0.876,-0.3214 1.2467,-1.1214 1.1227,-1.9067 l -1.1654,-5.8733 c 1.4467,-1.0294 2.692,-2.1507 3.8307,-3.5654 l 5.5653,1.6014 c 0.892,0.1693 1.5694,-0.244 1.8454,-0.8454 l 4.2493,-9.1906 c 0.368,-0.8 0.047,-1.6774 -0.5533,-1.9534 l -4.8267,-3.2 c 0.2467,-1.5853 0.3867,-3.46 0.2333,-5.228 l 5.2294,-2.92 c 0.676,-0.4133 1.0466,-1.2133 0.724,-2.0906 l -3.548,-9.6427 c -0.3214,-0.876 -1.1214,-1.2453 -1.9054,-1.1227 l -5.8746,1.1667 c -1.0294,-1.4467 -2.1507,-2.6933 -3.564,-3.8307 l 1.6013,-5.5653 c 0.1693,-0.892 -0.2453,-1.5693 -0.8453,-1.8467 l -9.192,-4.248 c -0.8,-0.3693 -1.676,-0.047 -1.9534,0.5534" />
      <path id="path9168" style="display:inline;fill:none;fill-opacity:1;fill-rule:nonzero;stroke:currentColor;stroke-width:2.66667;stroke-miterlimit:4;stroke-dasharray:none" d="m 463.00651,910.22374 c -2.8627,6.1933 -0.068,13.7907 6.1266,16.6547 6.1947,2.8613 13.792,0.068 16.6547,-6.128 2.864,-6.1934 0.068,-13.792 -6.1267,-16.6547 -6.1946,-2.8627 -13.7,-0.268 -16.6546,6.128" />
      <path id="path9172" style="display:inline;fill:none;fill-opacity:1;fill-rule:nonzero;stroke:currentColor;stroke-width:2.66667;stroke-miterlimit:4;stroke-dasharray:none" d="m 433.62131,851.53504 -2.5374,3.9186 c -1.384,-0.1546 -2.568,-0.216 -3.8453,-0.079 l -2.288,-3.968 c -0.4147,-0.6774 -1.2147,-1.0454 -2.0907,-0.724 l -7.8893,2.9026 c -0.876,0.3227 -1.2467,1.1214 -1.124,1.9054 l 0.8293,4.5053 c -1.0626,0.7227 -2.016,1.7373 -2.8773,2.5507 l -4.4733,-1.34 c -0.308,-0.384 -1.184,-0.061 -1.5534,0.7373 l -3.5106,7.5947 c -0.368,0.7986 -0.047,1.676 0.5533,1.952 l 3.9187,2.54 c -0.1534,1.384 -0.216,2.5666 -0.079,3.8426 l -3.968,2.2894 c -0.676,0.416 -1.0453,1.2146 -0.7227,2.092 l 2.9014,7.8893 c 0.3226,0.876 1.1213,1.2453 1.9066,1.1227 l 4.5054,-0.828 c 0.7226,1.0613 1.736,2.0146 2.5506,2.8773 l -1.34,4.4733 c -0.1693,0.892 0.2454,1.568 0.8454,1.8454 l 7.5933,3.5093 c 0.8,0.3693 1.676,0.047 1.9533,-0.552 l 2.5387,-3.92 c 1.384,0.1533 2.568,0.216 3.844,0.079 l 2.2893,3.968 c 0.4147,0.6773 1.2134,1.0453 2.0907,0.724 l 7.8893,-2.9027 c 0.876,-0.3227 1.2454,-1.1213 1.1227,-1.9053 l -0.828,-4.5054 c 1.0613,-0.7226 2.016,-1.7373 2.8773,-2.5506 l 4.4734,1.34 c 0.8906,0.1693 1.568,-0.2467 1.8453,-0.8454 l 3.5093,-7.5933 c 0.3694,-0.8 0.047,-1.676 -0.552,-1.9533 l -3.92,-2.54 c 0.1547,-1.384 0.216,-2.5667 0.079,-3.8427 l 3.968,-2.2893 c 0.6773,-0.416 1.0467,-1.2147 0.724,-2.092 l -2.9027,-7.8894 c -0.3213,-0.876 -1.1213,-1.2453 -1.9053,-1.1213 l -4.5053,0.828 c -0.7227,-1.0627 -1.736,-2.016 -2.5507,-2.8773 l 1.34,-4.4734 c 0.1693,-0.892 -0.2453,-1.5693 -0.8453,-1.8466 l -7.5934,-3.5094 c -0.8,-0.3693 -1.676,-0.047 -2.2466,0.6614" />
      <path id="path9176" style="display:inline;fill:none;fill-opacity:1;fill-rule:nonzero;stroke:currentColor;stroke-width:2.66667;stroke-miterlimit:4;stroke-dasharray:none" d="m 418.80511,872.57614 c -2.4013,5.1947 -0.236,11.5307 5.1587,14.0253 5.396,2.4947 11.532,0.236 14.0253,-5.16 2.4934,-5.3946 0.236,-11.5306 -5.1586,-14.024 -5.396,-2.4933 -11.624,-0.037 -14.0254,5.1587" />
    </g>
  </g>
  <g id="texte_picto_categorie" style="display:inline">
    <g aria-label="COMPÉTENCE" transform="matrix(1.3333224,0.0053852,-0.0053852,1.3333224,393.35863,833.62504)" id="text8294" style="font-variant:normal;font-weight:bold;font-stretch:normal;font-size:17.9999px;font-family:Montserrat;-inkscape-font-specification:Montserrat-Bold;writing-mode:lr-tb;display:inline;fill:#231f20;fill-opacity:1;fill-rule:nonzero;stroke:none">
      <path d="m 7.1639605,-12.70793 q 1.4039923,0 2.7539849,0.575997 1.3679926,0.575997 2.3219876,1.547991 l -1.85399,2.1959882 Q 9.7739461,-9.1439496 8.9099509,-9.5759472 8.0639556,-10.025945 7.2179602,-10.025945 q -1.4939917,0 -2.5019862,1.0619944 -1.0079944,1.0439942 -1.0079944,2.5919857 0,1.5839913 1.0079944,2.6459854 1.0079945,1.0619942 2.5019862,1.0619942 0.7919957,0 1.637991,-0.3959978 0.8639952,-0.3959979 1.5299918,-1.0799941 l 1.871989,1.9799891 q -1.025994,1.0439942 -2.4299862,1.67399078 -1.3859923,0.62999653 -2.7719847,0.62999653 -2.8439843,0 -4.7339739,-1.85398981 -1.88998958,-1.8539898 -1.88998958,-4.6259745 0,-2.717985 1.92598938,-4.5359749 1.9259894,-1.83599 4.8059735,-1.83599 z" id="path11546" />
      <path d="m 19.475924,-12.70793 q 2.933983,0 4.877973,1.83599 1.943989,1.8179899 1.943989,4.5539748 0,2.7539848 -1.961989,4.6079746 -1.943989,1.85398981 -4.859973,1.85398981 -2.915984,0 -4.859974,-1.83598991 -1.943989,-1.8539898 -1.943989,-4.6259745 0,-2.7539848 1.943989,-4.5719748 1.94399,-1.81799 4.859974,-1.81799 z m 0.036,2.681985 q -1.475991,0 -2.519986,1.0799943 -1.043994,1.0619941 -1.043994,2.6459854 0,1.5839913 1.043994,2.6819852 1.061994,1.0799941 2.519986,1.0799941 1.457992,0 2.465987,-1.0799941 1.025994,-1.0979939 1.025994,-2.6819852 0,-1.5839913 -1.025994,-2.6459854 -1.007995,-1.0799943 -2.465987,-1.0799943 z" id="path11548" />
      <path d="m 41.831838,0 h -2.825984 l -0.018,-8.1899549 -3.023984,6.9299618 H 33.875882 L 30.851899,-8.1899549 V 0 h -2.861985 v -12.61793 h 3.509981 l 3.419981,7.5059582 3.419981,-7.5059582 h 3.491981 z" id="path11550" />
      <path d="m 44.369864,-12.599931 h 5.48997 q 2.411986,0 3.743979,1.151994 1.331993,1.133994 1.331993,3.2399822 0,2.2139878 -1.331993,3.4379811 -1.331993,1.2239932 -3.743979,1.2239932 H 47.573846 V 0 h -3.203982 z m 3.203982,2.519987 v 4.0139774 h 2.123989 q 1.061994,0 1.637991,-0.5219971 0.575996,-0.5219971 0.575996,-1.5119917 0,-0.9719946 -0.575996,-1.4759918 -0.575997,-0.5039968 -1.637991,-0.5039968 z" id="path11552" />
      <path d="m 64.745786,-15.731913 -2.339987,2.033988 h -2.375987 l 1.90799,-3.023983 z m 1.727991,5.651969 h -6.659963 v 2.5019858 h 6.011967 v 2.5199861 h -6.011967 v 2.537986 h 6.857962 V 0 H 56.609831 v -12.599931 h 9.863946 z" id="path11554" />
      <path d="M 78.371744,-10.025945 H 74.573765 V 0 h -3.203983 v -10.025945 h -3.761979 v -2.591985 h 10.763941 z" id="path11556" />
      <path d="m 89.603706,-10.079944 h -6.659964 v 2.5019858 h 6.011967 v 2.5199861 h -6.011967 v 2.537986 h 6.857962 V 0 H 79.73976 v -12.599931 h 9.863946 z" id="path11558" />
      <path d="m 103.49966,0 h -2.82598 L 94.877709,-7.7579573 V 0 h -3.005983 v -12.599931 h 2.825984 l 5.81397,7.7759576 v -7.7759576 h 2.98798 z" id="path11560" />
      <path d="m 111.92365,-12.70793 q 1.40399,0 2.75398,0.575997 1.368,0.575997 2.32199,1.547991 l -1.85399,2.1959882 q -0.61199,-0.7559958 -1.47599,-1.1879934 -0.846,-0.4499978 -1.69199,-0.4499978 -1.49399,0 -2.50199,1.0619944 -1.00799,1.0439942 -1.00799,2.5919857 0,1.5839913 1.00799,2.6459854 1.008,1.0619942 2.50199,1.0619942 0.792,0 1.63799,-0.3959978 0.864,-0.3959979 1.52999,-1.0799941 l 1.87199,1.9799891 q -1.02599,1.0439942 -2.42998,1.67399078 -1.386,0.62999653 -2.77199,0.62999653 -2.84398,0 -4.73397,-1.85398981 -1.88999,-1.8539898 -1.88999,-4.6259745 0,-2.717985 1.92599,-4.5359749 1.92599,-1.83599 4.80597,-1.83599 z" id="path11562" />
      <path d="m 128.33959,-10.079944 h -6.65996 v 2.5019858 h 6.01196 v 2.5199861 h -6.01196 v 2.537986 h 6.85796 V 0 h -10.06194 v -12.599931 h 9.86394 z" id="path11564" />
    </g>
  </g>
  <g id="fond_categorie" style="display:inline">
    <path id="path8234" style="display:inline;fill:currentColor;fill-opacity:1;fill-rule:nonzero;stroke:none;stroke-width:1.33333" d="m 347.70753,785.68804 c 6.9653,-40.0253 -7.1707,-80.744 -37.8014,-108.8867 l -36.488,-33.528 c -77.132,-70.8706 -35.5026,-195.3519 70.4467,-210.6466 v 0 c 73.4493,-10.604 136.744,-54.9867 169.256,-118.6827 l 14.8693,-29.1333 c 41.896,-82.084 158.9494,-82.7507 201.7787,-1.1507 l 37.88,72.1707 c 19.0373,36.272 55.5813,61.2787 97.72,66.872 l 50.2,6.664 c 106.11597,14.0853 149.16397,138.084 72.844,209.8306 l -36.104,33.9414 c -30.3067,28.4893 -43.9773,69.3666 -36.556,109.3106" />
  </g>
  <g id="picto_posture" style="display:inline">
    <g id="g12459" style="display:inline" transform="translate(-5184.1285,-6272.3595)">
      <path id="path8962" style="display:inline;fill:currentColor;fill-opacity:1;fill-rule:nonzero;stroke:none;stroke-width:1.33333" d="m 5814.9784,6309.5234 c -4.3253,-2.3146 -7.144,-6.3466 -8.0653,-10.8053 l 10.5867,-1.66 c 0.392,1.264 1.26,2.38 2.5186,3.052 0.2467,0.1333 0.5,0.2427 0.756,0.3307 l -1.8333,10.5693 c -1.3507,-0.3093 -2.6827,-0.8 -3.9627,-1.4867 m -6.5106,-21.52 c 1.5853,-2.96 3.976,-5.2146 6.756,-6.6386 l 4.3893,9.7826 c -0.704,0.4614 -1.3067,1.1014 -1.732,1.8987 -0.3707,0.6893 -0.568,1.428 -0.6093,2.1627 l -10.628,1.6693 c -0.26,-2.9733 0.312,-6.0493 1.824,-8.8747 m 21.52,-6.508 c 1.3186,0.704 2.496,1.5694 3.5226,2.5574 l -7.852,7.3133 c -0.2213,-0.1693 -0.4573,-0.324 -0.7106,-0.4587 -1.1547,-0.6186 -2.436,-0.7573 -3.6187,-0.4893 l -4.4013,-9.804 c 4.128,-1.5373 8.872,-1.3627 13.06,0.8813 m -9.3814,13.008 c 0.5547,-1.036 1.844,-1.4266 2.8814,-0.8706 1.0373,0.5533 1.428,1.8453 0.872,2.8813 -0.5534,1.036 -1.8454,1.4267 -2.8814,0.8707 -1.0373,-0.5547 -1.428,-1.844 -0.872,-2.8814 m 16.276,7.744 -9.392,-5.0293 -0.4053,0.7547 c 0.9147,-1.7067 0.7813,-3.6947 -0.1747,-5.2294 l 7.8654,-7.3213 c 3.7853,4.6147 4.768,11.1507 2.1066,16.8253 m -16.104,9.072 1.8374,-10.592 c 1.8133,-0.048 3.552,-1.04 4.4693,-2.7546 l -0.4747,0.8866 9.384,5.0254 c -3.2866,5.3146 -9.284,8.0706 -15.216,7.4346 m 0.736,4.3907 0.244,2.8 h 1.5307 l 0.216,-2.7867 c 0.348,-0.015 0.6947,-0.037 1.04,-0.071 l 0.6533,2.7106 1.5147,-0.2306 -0.2013,-2.7574 c 0.5266,-0.1013 1.0506,-0.2213 1.5666,-0.364 l 1.1054,2.5187 1.4506,-0.496 -0.6746,-2.6347 c 0.348,-0.1306 0.6933,-0.2733 1.0346,-0.424 l 1.452,2.2867 1.3587,-0.708 -1.048,-2.4613 c 0.388,-0.2174 0.768,-0.4494 1.14,-0.692 l 1.7667,1.9826 1.2253,-0.9173 -1.3987,-2.2147 c 0.336,-0.268 0.664,-0.5466 0.9854,-0.8386 l 2.0133,1.6426 1.0667,-1.1 -1.696,-1.9226 c 0.248,-0.2747 0.492,-0.556 0.728,-0.8467 l 2.1933,1.2987 0.8893,-1.248 -1.9253,-1.6147 c 0.192,-0.2893 0.3773,-0.58 0.5573,-0.88 l 2.3574,0.844 0.6653,-1.3053 -2.0733,-1.3147 c 0.1613,-0.3413 0.3106,-0.684 0.452,-1.0267 l 2.4093,0.4667 0.46,-1.388 -2.2027,-0.968 c 0.1307,-0.4347 0.244,-0.8707 0.344,-1.308 l 2.3894,0.072 0.2306,-1.4453 -2.272,-0.5867 c 0.055,-0.4347 0.097,-0.8707 0.1254,-1.3067 l 2.3133,-0.3026 v -1.4614 l -2.2853,-0.2133 c -0.013,-0.38 -0.036,-0.7573 -0.069,-1.1347 l 2.1987,-0.6293 -0.2214,-1.448 -2.2466,0.1293 c -0.1067,-0.5707 -0.2347,-1.1347 -0.3894,-1.6907 l 1.996,-0.9813 -0.472,-1.384 -2.1306,0.508 c -0.144,-0.376 -0.2974,-0.7493 -0.4627,-1.1173 l 1.8027,-1.2534 -0.676,-1.3 -2.008,0.816 c -0.236,-0.416 -0.488,-0.8266 -0.7534,-1.228 l 1.5494,-1.5053 -0.8774,-1.1707 -1.82,1.112 c -0.292,-0.3586 -0.596,-0.7093 -0.9133,-1.052 l 1.2747,-1.708 -1.0507,-1.0186 -1.608,1.376 c -0.2987,-0.2654 -0.604,-0.5214 -0.9187,-0.7707 l 0.9987,-1.8693 -1.1907,-0.8494 -1.3813,1.5947 c -0.324,-0.208 -0.6547,-0.412 -0.9947,-0.6053 l 0.7094,-1.984 -1.304,-0.664 -1.1267,1.772 c -0.376,-0.1694 -0.7547,-0.332 -1.1373,-0.4774 l 0.404,-2.0746 -1.3894,-0.46 -0.8493,1.9306 c -0.4707,-0.132 -0.944,-0.244 -1.4173,-0.34 l 0.064,-2.124 -1.4454,-0.2306 -0.532,2.0586 c -0.4613,-0.047 -0.924,-0.081 -1.3853,-0.097 l -0.2773,-2.1293 h -1.4627 l -0.2,2.148 c -0.3947,0.023 -0.7867,0.057 -1.1773,0.1013 l -0.6,-2.092 -1.4467,0.2214 0.124,2.184 c -0.5733,0.124 -1.1427,0.268 -1.704,0.4373 l -0.9787,-1.9893 -1.384,0.472 0.5187,2.1746 c -0.364,0.148 -0.7227,0.3094 -1.0773,0.4787 l -1.292,-1.8547 -1.2987,0.6787 0.8587,2.108 c -0.396,0.2387 -0.7854,0.4907 -1.1654,0.756 l -1.6093,-1.6573 -1.1707,0.8773 1.2134,1.988 c -0.3307,0.284 -0.6534,0.5773 -0.968,0.884 l -1.8934,-1.4133 -1.0173,1.0506 1.552,1.816 c -0.2347,0.2787 -0.4627,0.5614 -0.684,0.8534 l -2.1333,-1.1414 -0.8494,1.192 1.8507,1.6014 c -0.188,0.304 -0.368,0.6146 -0.5413,0.9306 l -2.288,-0.9306 -0.696,1.364 2.1333,1.3093 c -0.1547,0.3573 -0.2987,0.7187 -0.432,1.08 l -2.4453,-0.584 -0.4814,1.4533 2.3454,0.988 c -0.116,0.4414 -0.2174,0.8854 -0.3027,1.332 l -2.5653,-0.188 -0.24,1.5134 2.5306,0.6106 c -0.041,0.428 -0.067,0.8574 -0.079,1.2894 l -2.6187,0.2266 v 1.5307 l 2.652,0.2053 c 0.024,0.3587 0.057,0.7187 0.099,1.076 l -2.604,0.6294 0.2307,1.512 2.6986,-0.196 c 0.1147,0.5306 0.2507,1.0586 0.408,1.58 l -2.512,1.104 0.4947,1.4506 2.6787,-0.6866 c 0.1373,0.3373 0.2853,0.6693 0.4413,0.9986 l -2.3373,1.484 0.708,1.36 2.5613,-1.092 c 0.22,0.3694 0.452,0.732 0.696,1.0867 l -2.0893,1.8613 0.9173,1.2267 2.3747,-1.504 c 0.2626,0.316 0.5346,0.6213 0.8173,0.9187 l -1.7827,2.1853 1.1014,1.0667 2.1213,-1.8734 c 0.2573,0.2254 0.5227,0.444 0.7933,0.656 l -1.444,2.4427 1.248,0.888 1.8254,-2.176 c 0.2733,0.1733 0.5533,0.3413 0.836,0.504 l -1.076,2.648 1.364,0.6947 1.492,-2.432 c 0.328,0.148 0.6586,0.288 0.9893,0.4173 l -0.6613,2.7693 1.4533,0.4814 1.1,-2.6134 c 0.412,0.1147 0.824,0.22 1.2387,0.308 l -0.2054,2.824 1.5134,0.2387 0.6586,-2.736 c 0.4094,0.048 0.816,0.08 1.224,0.104" />
      <path id="path8990" style="display:inline;fill:currentColor;fill-opacity:1;fill-rule:nonzero;stroke:none;stroke-width:1.33333" d="m 5851.7589,6347.849 c -3.0187,-1.6174 -4.9853,-4.4307 -5.628,-7.5414 l 7.3867,-1.1586 c 0.2733,0.8813 0.88,1.6613 1.7586,2.1306 0.172,0.093 0.348,0.168 0.5267,0.2307 l -1.28,7.3747 c -0.9413,-0.2174 -1.8707,-0.56 -2.764,-1.036 m -4.5427,-15.0187 c 1.1054,-2.0653 2.7734,-3.6387 4.7134,-4.632 l 3.0626,6.8253 c -0.4906,0.324 -0.912,0.7694 -1.208,1.3254 -0.2586,0.4813 -0.3973,0.996 -0.4253,1.5093 l -7.4173,1.1627 c -0.18,-2.072 0.2186,-4.2174 1.2746,-6.1907 m 15.016,-4.5427 c 0.92,0.492 1.7414,1.0974 2.4587,1.7867 l -5.48,5.1013 c -0.1533,-0.116 -0.3187,-0.2253 -0.496,-0.32 -0.8053,-0.4306 -1.7,-0.5266 -2.5253,-0.3386 l -3.0694,-6.8427 c 2.8787,-1.0747 6.1894,-0.952 9.112,0.6133 m -6.5466,9.0787 c 0.388,-0.7227 1.288,-0.996 2.0106,-0.608 0.724,0.3867 0.996,1.2867 0.6094,2.0107 -0.388,0.724 -1.288,0.996 -2.012,0.6093 -0.7227,-0.388 -0.9947,-1.2893 -0.608,-2.012 m 11.3573,5.4027 -6.5533,-3.508 -0.2827,0.5253 c 0.6373,-1.1907 0.5453,-2.5773 -0.1213,-3.648 l 5.488,-5.1093 c 2.6413,3.2213 3.3266,7.7813 1.4693,11.74 m -11.2373,6.3293 1.2813,-7.3893 c 1.2653,-0.033 2.48,-0.724 3.12,-1.9227 l -0.3307,0.62 6.548,3.5067 c -2.2946,3.7093 -6.4786,5.6306 -10.6186,5.1853 m 0.5133,3.0653 0.1707,1.9547 h 1.0693 l 0.1493,-1.944 c 0.244,-0.011 0.4854,-0.027 0.7267,-0.049 l 0.4547,1.8906 1.0586,-0.16 -0.1413,-1.924 c 0.368,-0.072 0.732,-0.156 1.092,-0.2546 l 0.772,1.756 1.012,-0.3427 -0.4693,-1.8387 c 0.2413,-0.095 0.4826,-0.1933 0.72,-0.2986 l 1.0146,1.5973 0.948,-0.4947 -0.7306,-1.7186 c 0.2693,-0.152 0.5346,-0.312 0.7946,-0.4814 l 1.232,1.3827 0.856,-0.6387 -0.9773,-1.5466 c 0.2347,-0.1867 0.4653,-0.3814 0.688,-0.584 l 1.4067,1.1453 0.7426,-0.768 -1.184,-1.34 c 0.1747,-0.192 0.344,-0.388 0.508,-0.5907 l 1.5307,0.9054 0.6213,-0.872 -1.344,-1.1254 c 0.1347,-0.2 0.264,-0.4053 0.3894,-0.6146 l 1.6453,0.588 0.464,-0.9094 -1.4467,-0.9186 c 0.112,-0.2374 0.2174,-0.476 0.3147,-0.716 l 1.6827,0.3253 0.3213,-0.9693 -1.5373,-0.6747 c 0.091,-0.3027 0.1693,-0.608 0.2386,-0.912 l 1.668,0.049 0.16,-1.008 -1.5853,-0.408 c 0.039,-0.3053 0.069,-0.608 0.088,-0.9146 l 1.6147,-0.208 v -1.0214 l -1.5946,-0.148 c -0.01,-0.264 -0.025,-0.5307 -0.049,-0.792 l 1.5347,-0.44 -0.1533,-1.0107 -1.568,0.091 c -0.075,-0.3973 -0.164,-0.7907 -0.272,-1.18 l 1.3933,-0.6853 -0.3293,-0.9654 -1.4867,0.356 c -0.1,-0.2626 -0.2093,-0.524 -0.324,-0.78 l 1.2587,-0.876 -0.472,-0.9066 -1.4014,0.5693 c -0.1653,-0.292 -0.34,-0.5787 -0.5253,-0.8573 l 1.0813,-1.0494 -0.612,-0.8173 -1.272,0.776 c -0.2026,-0.2507 -0.4146,-0.4947 -0.636,-0.7333 l 0.8894,-1.192 -0.7334,-0.712 -1.1226,0.9613 c -0.2067,-0.1867 -0.42,-0.364 -0.64,-0.5387 l 0.6973,-1.304 -0.832,-0.5933 -0.9627,1.1147 c -0.2266,-0.1467 -0.4573,-0.288 -0.6946,-0.4227 l 0.4946,-1.3867 -0.9093,-0.4626 -0.7853,1.2373 c -0.2627,-0.12 -0.528,-0.2307 -0.7947,-0.332 l 0.2813,-1.4493 -0.9693,-0.3214 -0.592,1.3467 c -0.3293,-0.089 -0.6573,-0.1693 -0.9893,-0.2373 l 0.044,-1.4814 -1.008,-0.16 -0.3707,1.4374 c -0.3227,-0.033 -0.6453,-0.059 -0.9667,-0.071 l -0.1933,-1.484 h -1.0213 l -0.1387,1.4987 c -0.2747,0.015 -0.5493,0.039 -0.8227,0.071 l -0.4186,-1.4587 -1.0094,0.152 0.088,1.5253 c -0.4013,0.085 -0.7986,0.188 -1.1906,0.3054 l -0.6814,-1.3894 -0.968,0.3307 0.3627,1.516 c -0.2533,0.104 -0.504,0.216 -0.752,0.336 l -0.9013,-1.2947 -0.9054,0.472 0.5987,1.472 c -0.276,0.1654 -0.548,0.3427 -0.8133,0.5267 l -1.1214,-1.156 -0.8186,0.612 0.848,1.388 c -0.232,0.1973 -0.4574,0.4027 -0.676,0.6173 l -1.3214,-0.9866 -0.7106,0.7333 1.084,1.2667 c -0.164,0.1933 -0.324,0.392 -0.4787,0.596 l -1.488,-0.7974 -0.5933,0.832 1.292,1.116 c -0.1307,0.212 -0.256,0.4294 -0.3774,0.6494 l -1.5973,-0.6494 -0.4853,0.9534 1.4893,0.912 c -0.108,0.2506 -0.208,0.5013 -0.3013,0.756 l -1.7067,-0.4094 -0.3373,1.016 1.6373,0.688 c -0.081,0.308 -0.152,0.6187 -0.2107,0.9307 l -1.7893,-0.132 -0.1693,1.056 1.7666,0.4253 c -0.028,0.3 -0.045,0.6014 -0.055,0.9 l -1.8267,0.1574 v 1.0693 l 1.8494,0.144 c 0.016,0.2507 0.04,0.5013 0.068,0.7507 l -1.816,0.4373 0.16,1.056 1.884,-0.136 c 0.08,0.372 0.1746,0.7373 0.284,1.1027 l -1.752,0.7693 0.3453,1.012 1.8693,-0.4787 c 0.095,0.236 0.1974,0.468 0.3067,0.6987 l -1.6307,1.0333 0.4934,0.9494 1.7893,-0.7587 c 0.1533,0.256 0.3147,0.508 0.484,0.756 l -1.4573,1.3 0.64,0.8533 1.6573,-1.0466 c 0.184,0.2186 0.3733,0.4306 0.5707,0.64 l -1.244,1.524 0.768,0.744 1.48,-1.3067 c 0.18,0.1573 0.3653,0.3107 0.5546,0.4573 l -1.008,1.704 0.8707,0.62 1.2733,-1.5186 c 0.1907,0.12 0.3867,0.2386 0.584,0.352 l -0.7506,1.848 0.9506,0.4853 1.0414,-1.6973 c 0.2293,0.104 0.4586,0.2 0.6906,0.292 l -0.4613,1.9306 1.0147,0.3374 0.768,-1.824 c 0.2866,0.081 0.5746,0.152 0.8626,0.2146 l -0.1426,1.968 1.056,0.1694 0.46,-1.908 c 0.2853,0.032 0.5693,0.056 0.8533,0.071" />
      <path id="path8982" style="display:inline;fill:currentColor;fill-opacity:1;fill-rule:nonzero;stroke:none;stroke-width:1.33333" d="m 5757.0754,6341.2174 c 0.388,-9.1574 8.1253,-16.2667 17.2826,-15.8787 9.1574,0.3893 16.2667,8.128 15.8787,17.2853 -0.388,9.156 -8.1267,16.264 -17.284,15.876 -9.1573,-0.388 -16.2653,-8.1253 -15.8773,-17.2826 m 15.104,21.028 0.1813,2.88 1.5467,0.033 0.2893,-2.8653 c 0.364,-0.01 0.724,-0.027 1.0827,-0.055 l 0.612,2.8067 1.5346,-0.1987 -0.1466,-2.86 c 0.4253,-0.075 0.8466,-0.1613 1.2626,-0.26 l 1.0507,2.656 1.4813,-0.444 -0.6,-2.7773 c 0.3907,-0.1374 0.7774,-0.2854 1.1574,-0.444 l 1.4493,2.44 1.3933,-0.672 -1.0266,-2.6294 c 0.3106,-0.1666 0.616,-0.3373 0.9173,-0.5186 l 1.7813,2.18 1.2774,-0.876 -1.3934,-2.4214 c 0.4347,-0.3213 0.8574,-0.6613 1.2654,-1.016 l 2.1106,1.8067 1.1014,-1.0867 -1.768,-2.1013 c 0.2586,-0.2733 0.5093,-0.5533 0.7533,-0.84 l 2.3227,1.4427 0.9266,-1.2387 -2.032,-1.78 c 0.256,-0.368 0.5014,-0.744 0.7334,-1.1293 l 2.4746,1.028 0.7134,-1.372 -2.2427,-1.3987 c 0.188,-0.392 0.364,-0.7893 0.528,-1.1933 l 2.552,0.6093 0.4867,-1.4693 -2.3854,-1.0027 c 0.1067,-0.36 0.204,-0.7227 0.292,-1.0907 l 2.5627,0.2187 0.2613,-1.5253 -2.4586,-0.6227 c 0.049,-0.3467 0.089,-0.696 0.1213,-1.0467 l 2.5133,-0.2666 0.035,-1.476 -2.464,-0.2894 c 0,-0.38 -0.016,-0.756 -0.039,-1.132 l 2.3974,-0.6293 -0.1907,-1.468 -2.428,0.087 c -0.072,-0.4507 -0.16,-0.896 -0.2613,-1.3387 l 2.2053,-0.9853 -0.424,-1.4134 -2.324,0.464 c -0.14,-0.4213 -0.2933,-0.8346 -0.46,-1.244 l 1.9733,-1.2893 -0.6426,-1.328 -2.172,0.808 c -0.1774,-0.3413 -0.3654,-0.6733 -0.56,-1.0027 l 1.7226,-1.536 -0.8346,-1.2213 -1.988,1.1027 c -0.3467,-0.4707 -0.7107,-0.928 -1.0947,-1.3667 l 1.3853,-1.768 -1.0373,-1.052 -1.7147,1.3973 c -0.2946,-0.2786 -0.6,-0.5493 -0.9106,-0.8133 l 1.088,-1.932 -1.184,-0.884 -1.4667,1.6213 c -0.3987,-0.2746 -0.8067,-0.5386 -1.2253,-0.784 l 0.7506,-2.0493 -1.312,-0.6813 -1.168,1.8106 c -0.4226,-0.1986 -0.8533,-0.3853 -1.2906,-0.5546 l 0.4106,-2.116 -1.4026,-0.464 -0.86,1.9573 c -0.3867,-0.1107 -0.7774,-0.2133 -1.1734,-0.3 l 0.089,-2.1387 -1.456,-0.2493 -0.5574,2.056 c -0.3866,-0.048 -0.7773,-0.087 -1.1706,-0.1133 l -0.2254,-2.1174 -1.476,-0.032 -0.2466,2.1067 c -0.4174,0.011 -0.8334,0.029 -1.2454,0.064 l -0.5426,-2.064 -1.4654,0.1907 0.075,2.128 c -0.4853,0.087 -0.964,0.1933 -1.4373,0.312 l -0.8747,-1.96 -1.4147,0.424 0.4214,2.1093 c -0.4427,0.1573 -0.8774,0.328 -1.3054,0.516 l -1.1853,-1.8147 -1.3307,0.644 0.76,2.0387 c -0.348,0.1947 -0.6893,0.3987 -1.0253,0.6093 l -1.4627,-1.64 -1.22,0.836 1.072,1.9334 c -0.4693,0.3613 -0.9226,0.7426 -1.3586,1.1453 l -1.7627,-1.3813 -1.0533,1.0346 1.4266,1.7507 c -0.2653,0.2973 -0.5226,0.5987 -0.7706,0.9107 l -1.988,-1.12 -0.884,1.1826 1.7066,1.544 c -0.256,0.3894 -0.5,0.788 -0.7293,1.196 l -2.1893,-0.8 -0.6814,1.3107 1.9774,1.276 c -0.1774,0.404 -0.3427,0.8107 -0.4947,1.2267 l -2.3413,-0.4534 -0.464,1.4027 2.2066,0.9707 c -0.092,0.3546 -0.1746,0.7133 -0.2493,1.076 l -2.4387,-0.1027 -0.2506,1.456 2.3853,0.6467 c -0.037,0.3573 -0.065,0.7186 -0.084,1.0826 l -2.4893,0.156 -0.035,1.5467 2.5147,0.2533 c 0.016,0.3947 0.044,0.784 0.081,1.1734 l -2.4813,0.54 0.2,1.5333 2.5666,-0.1293 c 0.088,0.452 0.1907,0.9013 0.308,1.344 l -2.4146,0.9533 0.444,1.4813 2.5693,-0.5533 c 0.152,0.408 0.3173,0.8107 0.4933,1.2067 l -2.2813,1.3533 0.6733,1.3933 2.5014,-0.976 c 0.1786,0.3174 0.3666,0.6294 0.5626,0.936 l -2.0946,1.712 0.8733,1.2774 2.3693,-1.364 c 0.3387,0.4346 0.692,0.8533 1.0627,1.2586 l -1.8,2.104 1.0853,1.1027 2.136,-1.7973 c 0.2734,0.2453 0.5534,0.484 0.84,0.716 l -1.476,2.3733 1.24,0.9253 1.8534,-2.1146 c 0.36,0.2386 0.7306,0.4666 1.108,0.6826 l -1.084,2.608 1.372,0.7134 1.5013,-2.408 c 0.376,0.1693 0.7573,0.3306 1.144,0.4786 l -0.6613,2.7694 1.468,0.4866 1.108,-2.6346 c 0.3333,0.092 0.6706,0.1746 1.0106,0.248 l -0.244,2.856 1.5254,0.26 0.7053,-2.7814 c 0.324,0.04 0.6533,0.069 0.9827,0.093" />
      <path id="path8958" style="display:inline;fill:currentColor;fill-opacity:1;fill-rule:nonzero;stroke:none;stroke-width:1.33333" d="m 5795.9843,6401.9894 0.52,0.1747 c 0.296,0.1013 0.6053,0.148 0.9147,0.1253 l 0.5293,-0.027 0.4853,-0.244 c 0.28,-0.1414 0.528,-0.3294 0.7387,-0.5587 l 0.356,-0.3947 0.1693,-0.5133 c 0.099,-0.296 0.14,-0.6053 0.1254,-0.912 l -0.027,-0.536 -0.2427,-0.4827 c -0.14,-0.276 -0.3266,-0.524 -0.5573,-0.7333 l -0.3933,-0.356 -0.5187,-0.1747 c -0.2947,-0.099 -0.592,-0.1293 -0.9107,-0.124 l -0.5386,0.025 -0.4774,0.244 c -0.2813,0.1413 -0.5306,0.3293 -0.7413,0.56 l -0.3547,0.3906 -0.1706,0.516 c -0.097,0.2974 -0.1387,0.6027 -0.124,0.908 l 0.027,0.536 0.2414,0.484 c 0.1386,0.28 0.328,0.5254 0.56,0.74 z m 1.3933,5.092 -0.8666,-1.4733 c -0.01,0 -0.016,0 -0.024,0 l -1.2254,1.188 -3.088,-1.8 0.4294,-1.6533 c -0.01,-0.01 -0.01,-0.013 -0.013,-0.02 l -1.7053,-0.027 -0.9093,-3.4573 1.4733,-0.8654 v -0.01 l -1.188,-1.2333 1.7973,-3.0853 1.656,0.428 c 0.01,0 0.01,-0.01 0.015,-0.01 l 0.028,-1.7147 3.4547,-0.908 0.8693,1.4733 c 0.01,0 0.012,0 0.017,0 l 1.2347,-1.1893 3.0867,1.7986 -0.432,1.6614 c 0,0 0,0.01 0,0.01 l 1.716,0.029 0.916,3.4547 -1.4813,0.8706 v 0.011 l 1.1906,1.236 -1.7986,3.088 -1.66,-0.432 c 0,0 -0.01,0.01 -0.012,0.011 l -0.028,1.712 z" />
      <path id="path8966" style="display:inline;fill:currentColor;fill-opacity:1;fill-rule:nonzero;stroke:none;stroke-width:1.33333" d="m 5798.5877,6323.1536 c 0.144,-3.3933 3.0107,-6.028 6.4053,-5.884 3.392,0.1427 6.0267,3.012 5.8827,6.4054 -0.144,3.3933 -3.0107,6.028 -6.404,5.8853 -3.3933,-0.1467 -6.028,-3.0133 -5.884,-6.4067 m 4.784,8.1507 c 0.7853,0.1373 1.5933,0.156 2.4107,0.047 l 1.392,1.6093 c 0.392,-0.1 0.768,-0.2227 1.1506,-0.3667 0.3774,-0.1493 0.7454,-0.324 1.092,-0.512 l -0.064,-2.1266 c 0.672,-0.4787 1.2534,-1.048 1.7347,-1.6694 l 2.1293,0.1427 c 0.4094,-0.6907 0.7294,-1.4293 0.9654,-2.204 l -1.5574,-1.4587 c 0.1267,-0.7866 0.152,-1.5973 0.048,-2.404 l 1.6067,-1.3986 c -0.1027,-0.3814 -0.22,-0.7667 -0.3653,-1.144 -0.152,-0.3787 -0.324,-0.7414 -0.512,-1.0907 l -2.128,0.068 c -0.4734,-0.6693 -1.0414,-1.2493 -1.6654,-1.7347 l 0.1467,-2.1306 c -0.6947,-0.4027 -1.432,-0.728 -2.2,-0.96 l -1.4693,1.552 c -0.7787,-0.1347 -1.5894,-0.156 -2.4067,-0.048 l -1.4,-1.6054 c -0.376,0.097 -0.768,0.22 -1.1453,0.3654 -0.38,0.1506 -0.7414,0.3226 -1.096,0.5106 l 0.077,2.128 c -0.68,0.4787 -1.256,1.0414 -1.7413,1.6747 l -2.1254,-0.1467 c -0.4106,0.688 -0.7306,1.4334 -0.968,2.1987 l 1.5574,1.4627 c -0.136,0.7853 -0.1507,1.592 -0.044,2.4053 l -1.6107,1.3947 c 0.1013,0.3866 0.2213,0.768 0.3707,1.148 0.1466,0.38 0.3226,0.7426 0.5066,1.0893 l 2.1294,-0.065 c 0.4706,0.664 1.0346,1.248 1.668,1.7333 l -0.1494,2.1253 c 0.692,0.412 1.4347,0.732 2.2054,0.9627 z" />
      <path id="path8970" style="display:inline;fill:currentColor;fill-opacity:1;fill-rule:nonzero;stroke:none;stroke-width:1.33333" d="m 5784.9809,6399.3776 c 0.2853,-6.7173 5.9613,-11.9306 12.6773,-11.644 6.716,0.2827 11.9307,5.9574 11.6454,12.6747 -0.284,6.7187 -5.96,11.932 -12.6774,11.6467 -6.716,-0.284 -11.9293,-5.96 -11.6453,-12.6774 m 8.0787,16.9227 2.1146,0.384 1.2467,-2.68 c 0.6627,0.035 1.328,0.019 1.9867,-0.04 l 1.3493,2.6333 2.0987,-0.468 0.1053,-2.956 c 0.5653,-0.204 1.1173,-0.4453 1.6547,-0.72 l 2.2413,1.9294 1.7667,-1.2227 -1.0134,-2.7773 c 0.488,-0.4387 0.9494,-0.9187 1.3774,-1.4347 l 2.844,0.9253 1.1546,-1.8106 -2.044,-2.184 c 0.2574,-0.552 0.4774,-1.1134 0.66,-1.6827 l 2.9467,-0.22 0.3853,-2.1133 -2.6813,-1.2467 c 0.033,-0.664 0.02,-1.328 -0.04,-1.988 l 2.6333,-1.3493 -0.4666,-2.0974 -2.9574,-0.1066 c -0.204,-0.5654 -0.444,-1.1174 -0.72,-1.6547 l 1.9294,-2.2387 -1.2227,-1.7693 -2.776,1.0133 c -0.4413,-0.4866 -0.92,-0.9493 -1.4347,-1.3786 l 0.9254,-2.844 -1.812,-1.152 -2.184,2.044 c -0.5507,-0.26 -1.1134,-0.4787 -1.6814,-0.6614 l -0.22,-2.9466 -2.1146,-0.3854 -1.2467,2.6814 c -0.664,-0.033 -1.328,-0.02 -1.9867,0.039 l -1.3506,-2.632 -2.0974,0.4667 -0.1066,2.9573 c -0.5654,0.2054 -1.1174,0.4454 -1.6534,0.7214 l -2.2413,-1.9307 -1.768,1.2227 1.0147,2.7773 c -0.488,0.4413 -0.9494,0.9173 -1.3787,1.4347 l -2.844,-0.9294 -1.1533,1.816 2.044,2.1814 c -0.2574,0.5533 -0.4787,1.1133 -0.66,1.6826 l -2.948,0.22 -0.3854,2.1134 2.6814,1.248 c -0.033,0.664 -0.019,1.3293 0.04,1.9866 l -2.6334,1.3507 0.4667,2.096 2.9573,0.1093 c 0.204,0.564 0.4454,1.116 0.7214,1.652 l -1.9294,2.2427 1.2227,1.7653 2.776,-1.0133 c 0.44,0.488 0.9187,0.9493 1.4347,1.3787 l -0.9267,2.844 1.8133,1.1533 2.1827,-2.0453 c 0.552,0.26 1.1133,0.48 1.6827,0.6613 z" />
      <path id="path8974" style="display:inline;fill:currentColor;fill-opacity:1;fill-rule:nonzero;stroke:none;stroke-width:1.33333" d="m 5805.1952,6359.1314 c 1.7627,-8.8293 10.348,-14.556 19.176,-12.7933 8.828,1.764 14.556,10.3493 12.7933,19.1787 -1.7626,8.8266 -10.3493,14.5533 -19.1773,12.792 -8.828,-1.7627 -14.556,-10.3494 -12.792,-19.1774 m 5.3853,28.356 3.2787,1.14 2.656,-3.968 c 1.0507,0.2187 2.1133,0.3627 3.18,0.4307 l 1.4987,4.5373 3.464,-0.2213 0.9053,-4.692 c 0.952,-0.1867 1.8933,-0.432 2.8187,-0.7387 l 3.096,3.636 3.1253,-1.5093 -0.928,-4.684 c 0.888,-0.5813 1.7427,-1.2293 2.5573,-1.9467 l 4.3067,2.1867 2.2933,-2.6067 -2.72,-3.9933 c 0.5507,-0.8147 1.04,-1.656 1.472,-2.5173 l 4.7587,0.3813 1.1413,-3.2773 -3.968,-2.656 c 0.2187,-1.052 0.3614,-2.1134 0.4307,-3.18 l 4.5373,-1.5 -0.2213,-3.464 -4.6933,-0.9067 c -0.1854,-0.9507 -0.432,-1.892 -0.7387,-2.8187 l 3.6373,-3.0946 -1.512,-3.1254 -4.6826,0.9267 c -0.5814,-0.888 -1.2294,-1.7427 -1.9454,-2.556 l 2.1854,-4.3067 -2.6054,-2.2933 -3.992,2.7187 c -0.816,-0.548 -1.6573,-1.0387 -2.52,-1.4707 l 0.3827,-4.7587 -3.2787,-1.1413 -2.656,3.9693 c -1.0506,-0.2186 -2.1146,-0.3626 -3.18,-0.432 l -1.4986,-4.5373 -3.464,0.2227 -0.9054,4.692 c -0.9533,0.1853 -1.8946,0.4333 -2.82,0.7373 l -3.096,-3.6347 -3.124,1.5107 0.9267,4.6827 c -0.8867,0.5813 -1.7427,1.2293 -2.556,1.9453 l -4.3067,-2.1853 -2.292,2.6066 2.7187,3.992 c -0.5507,0.8147 -1.0413,1.656 -1.4733,2.5187 l -4.7587,-0.3827 -1.1413,3.2774 3.9693,2.6573 c -0.2187,1.0533 -0.3627,2.1147 -0.4307,3.18 l -4.5386,1.4987 0.2226,3.464 4.6934,0.9066 c 0.184,0.952 0.432,1.8947 0.7386,2.8187 l -3.6373,3.0947 1.5107,3.1253 4.6826,-0.9267 c 0.5814,0.888 1.2294,1.7427 1.9454,2.5574 l -2.1854,4.3066 2.6054,2.292 3.9946,-2.7186 c 0.8147,0.5493 1.656,1.0386 2.5187,1.4733 z" />
      <path id="path8978" style="display:inline;fill:currentColor;fill-opacity:1;fill-rule:nonzero;stroke:none;stroke-width:1.33333" d="m 5782.5793,6374.8006 c 0.057,-1.3586 1.204,-2.4133 2.5627,-2.356 1.3586,0.057 2.412,1.2067 2.3546,2.564 -0.057,1.36 -1.2053,2.412 -2.5626,2.3547 -1.3574,-0.057 -2.412,-1.2053 -2.3547,-2.5627 m 3.1493,8.5 1.4387,2.264 1.956,-0.584 -0.044,-2.688 c 0.896,-0.492 1.7067,-1.148 2.3787,-1.9413 l 2.6253,0.5867 0.9693,-1.7974 -1.9373,-1.872 c 0.2987,-1.0186 0.3947,-2.052 0.312,-3.0506 l 2.2747,-1.4467 -0.5867,-1.956 -2.6987,0.047 c -0.4893,-0.8974 -1.1426,-1.7027 -1.9306,-2.3747 l 0.5866,-2.6307 -1.7986,-0.9693 -1.8734,1.9387 c -1.0213,-0.3 -2.056,-0.396 -3.0613,-0.3134 l -1.4413,-2.2693 -1.956,0.5853 0.045,2.692 c -0.8987,0.492 -1.7093,1.148 -2.3813,1.9427 l -2.6174,-0.5827 -0.9693,1.796 1.9307,1.868 c -0.2974,1.0134 -0.3934,2.044 -0.312,3.044 l -2.264,1.4374 0.5866,1.956 2.6787,-0.044 c 0.492,0.9 1.1493,1.7146 1.944,2.3906 l -0.584,2.616 1.7987,0.9694 1.8626,-1.9267 c 1.024,0.3 2.0614,0.396 3.068,0.3133" />
      <path id="path8986" style="display:inline;fill:currentColor;fill-opacity:1;fill-rule:nonzero;stroke:none;stroke-width:1.33333" d="m 5766.1984,6341.6054 c 0.1747,-4.1186 3.6533,-7.3133 7.772,-7.1386 4.1173,0.1733 7.3147,3.6533 7.14,7.7706 -0.1747,4.1187 -3.6547,7.3147 -7.772,7.1387 -4.1173,-0.172 -7.3133,-3.652 -7.14,-7.7707 m 4.824,10.8947 1.3627,0.2493 0.804,-1.7293 c 0.428,0.021 0.856,0.012 1.2813,-0.027 l 0.8693,1.6987 1.3534,-0.3 0.068,-1.9067 c 0.364,-0.1333 0.7213,-0.288 1.068,-0.4653 l 1.444,1.2427 1.14,-0.788 -0.6534,-1.7907 c 0.3134,-0.2827 0.6107,-0.592 0.888,-0.924 l 1.8334,0.596 0.7453,-1.168 -1.3187,-1.408 c 0.1667,-0.356 0.308,-0.7173 0.4254,-1.0853 l 1.9,-0.14 0.2493,-1.364 -1.728,-0.804 c 0.021,-0.4267 0.012,-0.856 -0.028,-1.2814 l 1.6987,-0.8693 -0.3014,-1.3533 -1.9066,-0.069 c -0.1307,-0.3626 -0.2867,-0.72 -0.464,-1.0666 l 1.244,-1.444 -0.7894,-1.14 -1.7893,0.6546 c -0.284,-0.316 -0.592,-0.6133 -0.9253,-0.8906 l 0.5973,-1.8334 -1.1693,-0.7426 -1.408,1.3173 c -0.3547,-0.1667 -0.7174,-0.308 -1.084,-0.424 l -0.1427,-1.9013 -1.3627,-0.2494 -0.804,1.7294 c -0.428,-0.023 -0.856,-0.013 -1.2813,0.027 l -0.8693,-1.6986 -1.3534,0.3 -0.068,1.908 c -0.3653,0.132 -0.7213,0.2853 -1.068,0.464 l -1.444,-1.244 -1.14,0.788 0.6547,1.7906 c -0.3147,0.284 -0.612,0.592 -0.8893,0.924 l -1.8334,-0.596 -0.744,1.1694 1.3174,1.408 c -0.1667,0.3546 -0.308,0.7173 -0.4254,1.0826 l -1.9,0.1427 -0.2493,1.3627 1.7293,0.8053 c -0.021,0.4267 -0.012,0.856 0.027,1.2813 l -1.6987,0.8694 0.3014,1.3546 1.9053,0.065 c 0.1333,0.3666 0.288,0.7213 0.4667,1.068 l -1.2454,1.444 0.7894,1.1413 1.7906,-0.6547 c 0.2827,0.3147 0.5907,0.612 0.924,0.888 l -0.5973,1.8347 1.1693,0.744 1.4067,-1.3173 c 0.356,0.1653 0.7187,0.3066 1.0853,0.4253 z" />
      <path id="path8994" style="display:inline;fill:currentColor;fill-opacity:1;fill-rule:nonzero;stroke:none;stroke-width:1.33333" d="m 5819.5715,6402.884 c -2.028,-2.212 -1.876,-5.6493 0.336,-7.676 2.2147,-2.0266 5.6507,-1.876 7.6773,0.3374 2.0267,2.212 1.876,5.6493 -0.3373,7.676 -2.2107,2.028 -5.6493,1.876 -7.676,-0.3374 m 8.0787,2.1174 c 0.576,-0.4067 1.0933,-0.8974 1.5373,-1.476 l 1.8733,0.1386 c 0.184,-0.3066 0.344,-0.6186 0.492,-0.9453 0.1427,-0.3307 0.264,-0.6707 0.364,-1.0027 l -1.3666,-1.2933 c 0.1213,-0.716 0.132,-1.4347 0.044,-2.1267 l 1.4213,-1.2373 c -0.1747,-0.688 -0.436,-1.3493 -0.7707,-1.98 l -1.8853,0.056 c -0.4107,-0.5693 -0.9,-1.092 -1.468,-1.532 l 0.132,-1.876 c -0.3027,-0.176 -0.6173,-0.344 -0.9427,-0.488 -0.332,-0.144 -0.6653,-0.264 -1,-0.364 l -1.2893,1.3707 c -0.7147,-0.124 -1.432,-0.1334 -2.124,-0.048 l -1.2373,-1.4254 c -0.6854,0.1814 -1.3507,0.4374 -1.976,0.7734 l 0.049,1.8866 c -0.572,0.4027 -1.092,0.8947 -1.5347,1.472 l -1.8786,-0.1293 c -0.1747,0.2947 -0.344,0.6147 -0.4894,0.94 -0.144,0.3307 -0.2626,0.6667 -0.3666,1.0053 l 1.376,1.2827 c -0.1267,0.724 -0.1374,1.4347 -0.044,2.132 l -1.4214,1.236 c 0.172,0.688 0.436,1.352 0.764,1.98 l 1.888,-0.055 c 0.4067,0.5747 0.8974,1.088 1.4734,1.5307 l -0.1374,1.876 c 0.304,0.18 0.6174,0.344 0.948,0.4867 0.328,0.1466 0.664,0.264 0.996,0.3653 l 1.2907,-1.3667 c 0.7093,0.1214 1.4267,0.1334 2.124,0.044 l 1.2333,1.4214 c 0.6907,-0.1747 1.3534,-0.4374 1.9827,-0.772 z" />
      <path id="path8998" style="display:inline;fill:currentColor;fill-opacity:1;fill-rule:nonzero;stroke:none;stroke-width:1.33333" d="m 5767.858,6310.0989 c 0.095,-2.24 1.9893,-3.9773 4.2293,-3.884 2.2414,0.095 3.98,1.988 3.8854,4.2294 -0.096,2.24 -1.988,3.98 -4.228,3.8853 -2.2414,-0.095 -3.9814,-1.988 -3.8867,-4.2307 m 2.4147,6.7734 0.8506,0.156 0.5014,-1.0787 c 0.2666,0.012 0.5346,0.01 0.7986,-0.017 l 0.544,1.0613 0.844,-0.1893 0.043,-1.188 c 0.2267,-0.083 0.4493,-0.18 0.6653,-0.292 l 0.9027,0.776 0.7107,-0.4907 -0.4094,-1.1173 c 0.1974,-0.1774 0.3827,-0.3694 0.556,-0.5774 l 1.144,0.3734 0.4627,-0.728 -0.8213,-0.88 c 0.104,-0.2214 0.192,-0.448 0.2653,-0.676 l 1.1867,-0.089 0.1546,-0.8493 -1.0786,-0.5027 c 0.013,-0.2693 0.01,-0.5346 -0.016,-0.8 l 1.0586,-0.5413 -0.188,-0.8467 -1.1893,-0.043 c -0.081,-0.2267 -0.1787,-0.448 -0.2893,-0.664 l 0.776,-0.9014 -0.492,-0.712 -1.1174,0.4067 c -0.1773,-0.1947 -0.3693,-0.3813 -0.5773,-0.5533 l 0.3733,-1.144 -0.7293,-0.4654 -0.8787,0.824 c -0.2213,-0.1053 -0.448,-0.192 -0.676,-0.2653 l -0.089,-1.1853 -0.8507,-0.156 -0.5013,1.08 c -0.2667,-0.016 -0.5347,-0.011 -0.7987,0.015 l -0.544,-1.0586 -0.844,0.1866 -0.043,1.1894 c -0.2267,0.084 -0.4507,0.1813 -0.6654,0.2906 l -0.9013,-0.776 -0.712,0.492 0.4093,1.116 c -0.1973,0.1787 -0.3826,0.3707 -0.556,0.5774 l -1.144,-0.372 -0.464,0.7293 0.8227,0.8787 c -0.104,0.2213 -0.192,0.4466 -0.2653,0.676 l -1.1867,0.088 -0.1547,0.852 1.0787,0.5 c -0.015,0.268 -0.01,0.5346 0.016,0.8 l -1.06,0.5426 0.188,0.8454 1.1907,0.043 c 0.083,0.2267 0.1786,0.4494 0.2893,0.6667 l -0.776,0.9013 0.492,0.7094 1.1173,-0.408 c 0.1774,0.196 0.3694,0.3813 0.5774,0.5546 l -0.3734,1.1454 0.7294,0.4626 0.8786,-0.8213 c 0.2214,0.1027 0.448,0.192 0.676,0.2653 z" />
    </g>
  </g>
  <g id="filet_1_categorie" style="display:inline">
    <g id="g8308" transform="matrix(1.3333333,0,0,-1.3333333,304.79153,403.90484)" style="display:inline">
      <path d="m 0,0 c -0.342,5.528 -0.499,11.066 -0.453,16.604 0.022,2.675 0.078,5.353 0.206,8.025 0.116,2.41 0.333,4.847 1.175,7.127 1.616,4.376 5.825,6.666 9.834,8.494 4.435,2.02 8.935,3.9 13.405,5.841 9.161,3.977 18.298,8.082 26.916,13.156 8.188,4.821 15.719,10.607 22.48,17.286 13.664,13.499 24.115,29.792 34.046,46.115 10.391,17.079 20.421,34.694 33.815,49.661 6.327,7.07 13.359,13.56 20.991,19.203 7.546,5.581 15.77,10.469 24.638,13.628 2.056,0.732 4.145,1.361 6.263,1.888" style="fill:none;fill-opacity:1;fill-rule:nonzero;stroke:currentColor;stroke-width:2;stroke-miterlimit:4;stroke-dasharray:none" id="path8310" />
    </g>
    <g id="g8312" transform="matrix(1.3333333,0,0,-1.3333333,958.44773,401.24084)" style="display:inline">
      <path d="m -199.096,204.632 c 9.257,-2.174 17.94,-6.361 25.978,-11.377 8.416,-5.252 16.227,-11.49 23.299,-18.444 14.837,-14.592 25.667,-32.697 36.598,-50.241 5.034,-8.08 10.161,-16.102 15.214,-24.171 4.948,-7.902 9.992,-15.767 15.661,-23.177 5.312,-6.945 11.172,-13.58 18.189,-18.852 7.997,-6.007 17.429,-8.919 27.037,-11.202 4.876,-1.158 9.775,-2.233 14.577,-3.677 4.718,-1.419 9.605,-3.103 13.819,-5.704 C -6.772,36.583 -5.02,35.04 -3.919,33 -2.678,30.702 -2.31,28.038 -2.121,25.468 -1.704,19.808 -1.649,14.099 -1.729,8.426 -1.769,5.616 -1.862,2.807 -2,0" style="fill:none;fill-opacity:1;fill-rule:nonzero;stroke:currentColor;stroke-width:2;stroke-miterlimit:4;stroke-dasharray:none" id="path8314" />
    </g>
    <g style="display:inline;stroke-width:2;stroke-miterlimit:4;stroke-dasharray:none" id="g8316" transform="matrix(1.3333333,0,0,-1.3333333,847.36963,1066.3013)">
      <path d="m 0,0 -21.339,-33.168 c -7.204,-11.198 -25.038,-20.474 -39.754,-20.676 l -182.943,-2.517 c -14.715,-0.202 -32.797,8.579 -40.306,19.575 l -22.017,32.236" style="fill:none;stroke:currentColor;stroke-width:2;stroke-linecap:butt;stroke-linejoin:miter;stroke-miterlimit:4;stroke-dasharray:none;stroke-opacity:1" id="path8318" />
    </g>
  </g>
  <g id="filet_2_categorie" style="display:inline;opacity:0.2">
    <path id="path8244" style="display:inline;fill:none;stroke:currentColor;stroke-width:36;stroke-linecap:butt;stroke-linejoin:miter;stroke-miterlimit:10;stroke-dasharray:none;stroke-opacity:1" d="m 746.77913,1052.6229 -50.7107,-27.3173 c -42.5666,-22.9334 -93.2626,-22.644 -135.5666,0.772 l -50.3947,27.8946 c -106.5307,58.9655 -231.9667,-34.5786 -212.2613,-158.29729 l 9.3213,-58.5253 c 7.824,-49.1294 -8.128,-99.1214 -42.6573,-133.6867 l -41.1334,-41.176 c -86.9533,-87.0426 -40.116,-239.8253 79.2574,-258.54 h 0.001 c 82.756,-12.9746 154.0493,-67.4186 190.6466,-145.5906 v -0.001 c 52.7907,-112.76001 207.172,-113.64141 261.2454,-1.4894 l 25.58,53.0547 c 21.472,44.536 62.6626,75.2547 110.148,82.1453 l 56.568,8.208 c 119.57997,17.352 168.15597,169.5907 82.20127,257.62 l -40.66267,41.6427 c -34.1333,34.956 -49.5133,85.1266 -41.1293,134.1626 l 9.9893,58.4174 c 21.1137,123.48499 -103.2463,218.45439 -210.4423,160.70629 z" />
  </g>
  <g id="filet_3_posture" style="display:inline">
    <path id="path8334-3" style="display:inline;fill:none;stroke:currentColor;stroke-width:24;stroke-linecap:butt;stroke-linejoin:miter;stroke-miterlimit:10;stroke-dasharray:none;stroke-opacity:1" d="m 745.64033,1053.58 -50.2213,-27.3813 c -42.1573,-22.9853 -92.3626,-22.7 -134.256,0.7653 l -49.9066,27.952 c -105.496,59.0881 -229.724,-34.6706 -210.2187,-158.65856 l 9.228,-58.6534 c 7.7453,-49.2359 -8.056,-99.3386 -42.2533,-133.9813 l -40.7387,-41.2693 c -86.11871,-87.24 -39.744,-240.3547 78.4733,-259.1013 v 0 c 81.9547,-12.9974 152.556,-67.556 188.7933,-145.8974 52.272,-113.0053 205.16,-113.8773 258.7187,-1.4746 l 25.336,53.172 c 21.2667,44.6346 62.0613,75.4226 109.088,82.332 l 56.0213,8.2306 c 118.42537,17.3974 166.54137,169.9747 81.42397,258.1894 l -40.26657,41.7306 c -33.8,35.0307 -49.028,85.3107 -40.7227,134.456 l 9.896,58.544 c 20.9187,123.75726 -102.232,218.92536 -208.396,161.04526 z" />
  </g>


  <g id="picto_titre_badge" style="display:inline">
    <g aria-label="X" transform="matrix(1.3333333,0,0,1.3333333,540.55513,620.51614)" id="text9280" style="font-variant:normal;font-stretch:normal;font-size:200px;font-family:'Gotham Ultra';-inkscape-font-specification:Gotham-Ultra;writing-mode:lr-tb;display:inline;fill:#ffffff;fill-opacity:1;fill-rule:nonzero;stroke:none">
      <path d="M -1.8,0 H 50.4 L 72.8,-36.4 95,0 h 53.2 L 100.8,-71.8 146.2,-140 H 94 L 73.6,-106.6 53.4,-140 H 0.2 l 45.4,68.8 z" id="path11332" />
    </g>
  </g>
  <g id="texte_titre_badge" style="display:inline">
    <path style="font-variant:normal;font-stretch:normal;font-size:40px;font-family:'Gotham Ultra';-inkscape-font-specification:Gotham-Ultra;writing-mode:lr-tb;display:inline;fill:#ffffff;fill-opacity:1;fill-rule:nonzero;stroke:none;stroke-width:1.33333" id="path11353" d="m 390.76123,736.68554 h 12.48 v -26.7733 h 10.9866 v -10.56 h -34.4533 v 10.56 h 10.9867 z" />
    <path style="font-variant:normal;font-stretch:normal;font-size:40px;font-family:'Gotham Ultra';-inkscape-font-specification:Gotham-Ultra;writing-mode:lr-tb;display:inline;fill:#ffffff;fill-opacity:1;fill-rule:nonzero;stroke:none;stroke-width:1.33333" id="path11355" d="m 419.82783,736.68554 h 12.48 v -37.3333 h -12.48 z" />
    <path style="font-variant:normal;font-stretch:normal;font-size:40px;font-family:'Gotham Ultra';-inkscape-font-specification:Gotham-Ultra;writing-mode:lr-tb;display:inline;fill:#ffffff;fill-opacity:1;fill-rule:nonzero;stroke:none;stroke-width:1.33333" id="path11357" d="m 448.89453,736.68554 h 12.48 v -26.7733 h 10.9867 v -10.56 h -34.4534 v 10.56 h 10.9867 z" />
    <path style="font-variant:normal;font-stretch:normal;font-size:40px;font-family:'Gotham Ultra';-inkscape-font-specification:Gotham-Ultra;writing-mode:lr-tb;display:inline;fill:#ffffff;fill-opacity:1;fill-rule:nonzero;stroke:none;stroke-width:1.33333" id="path11359" d="m 477.85453,736.68554 h 12.48 v -10.6667 h 2.6667 l 7.04,10.6667 h 14.24 l -8.6934,-12.6933 c 4.5334,-2.1867 7.36,-5.9734 7.36,-11.4134 v -0.1066 c 0,-3.84 -1.1733,-6.6134 -3.4133,-8.8534 -2.6133,-2.6133 -6.8267,-4.2666 -13.44,-4.2666 h -18.24 z m 12.48,-19.5733 v -7.3067 h 5.44 c 2.88,0 4.7467,1.1733 4.7467,3.5733 v 0.1067 c 0,2.2933 -1.8134,3.6267 -4.8,3.6267 z" />
    <path style="font-variant:normal;font-stretch:normal;font-size:40px;font-family:'Gotham Ultra';-inkscape-font-specification:Gotham-Ultra;writing-mode:lr-tb;display:inline;fill:#ffffff;fill-opacity:1;fill-rule:nonzero;stroke:none;stroke-width:1.33333" id="path11361" d="m 518.65453,736.68554 h 32.1067 v -10.24 h -19.84 v -4.0533 h 18.24 v -9.0134 h -18.24 v -3.7866 h 19.5733 v -10.24 h -31.84 z" />
    <path style="font-variant:normal;font-stretch:normal;font-size:40px;font-family:'Gotham Ultra';-inkscape-font-specification:Gotham-Ultra;writing-mode:lr-tb;display:inline;fill:#ffffff;fill-opacity:1;fill-rule:nonzero;stroke:none;stroke-width:1.33333" id="path11363" d="m 573.00123,736.68554 h 13.8666 c 15.0934,0 22.6667,-7.84 22.6667,-18.88 v -0.1067 c 0,-11.04 -7.4133,-18.3466 -22.24,-18.3466 h -14.2933 z m 12.48,-10.88 v -15.5733 h 2.08 c 5.7066,0 9.3866,2.3466 9.3866,7.7333 v 0.1067 c 0,5.3866 -3.68,7.7333 -9.3866,7.7333 z" />
    <path style="font-variant:normal;font-stretch:normal;font-size:40px;font-family:'Gotham Ultra';-inkscape-font-specification:Gotham-Ultra;writing-mode:lr-tb;display:inline;fill:#ffffff;fill-opacity:1;fill-rule:nonzero;stroke:none;stroke-width:1.33333" id="path11365" d="m 633.64123,737.43224 c 11.1466,0 18.56,-5.0134 18.56,-17.76 v -20.32 h -12.6934 v 20.6933 c 0,4.5333 -2.4,6.3467 -5.76,6.3467 -3.36,0 -5.76,-1.9734 -5.76,-6.6134 v -20.4266 h -12.6933 v 20.5866 c 0,12.3734 7.2,17.4934 18.3467,17.4934 z" />
    <path style="font-variant:normal;font-stretch:normal;font-size:40px;font-family:'Gotham Ultra';-inkscape-font-specification:Gotham-Ultra;writing-mode:lr-tb;display:inline;fill:#ffffff;fill-opacity:1;fill-rule:nonzero;stroke:none;stroke-width:1.33333" id="path11367" d="m 675.02783,736.68554 h 20.6934 c 9.44,0 14.3466,-4.3733 14.3466,-10.3467 v -0.1066 c 0,-5.12 -3.0933,-7.68 -7.8933,-9.0667 4,-1.3867 6.6667,-4.1067 6.6667,-8.5333 v -0.1067 c 0,-2.56 -0.96,-4.48 -2.2934,-5.8133 -2.1866,-2.1867 -5.44,-3.36 -10.6133,-3.36 h -20.9067 z m 12.16,-22.6667 v -5.2266 h 5.3867 c 2.6667,0 4,0.9066 4,2.56 v 0.1066 c 0,1.6534 -1.28,2.56 -3.9467,2.56 z m 0,13.2267 v -5.5467 h 6.2934 c 2.72,0 4.0533,1.12 4.0533,2.72 v 0.1067 c 0,1.6 -1.3867,2.72 -4.1067,2.72 z" />
    <path style="font-variant:normal;font-stretch:normal;font-size:40px;font-family:'Gotham Ultra';-inkscape-font-specification:Gotham-Ultra;writing-mode:lr-tb;display:inline;fill:#ffffff;fill-opacity:1;fill-rule:nonzero;stroke:none;stroke-width:1.33333" id="path11369" d="m 712.73453,736.68554 h 13.3333 l 1.92,-5.0133 h 13.0667 l 1.9733,5.0133 h 13.5467 l -15.7333,-37.6 h -12.3734 z m 18.4,-13.8667 3.4133,-9.0666 3.4134,9.0666 z" />
    <path style="font-variant:normal;font-stretch:normal;font-size:40px;font-family:'Gotham Ultra';-inkscape-font-specification:Gotham-Ultra;writing-mode:lr-tb;display:inline;fill:#ffffff;fill-opacity:1;fill-rule:nonzero;stroke:none;stroke-width:1.33333" id="path11371" d="m 760.78783,736.68554 h 13.8667 c 15.0933,0 22.6667,-7.84 22.6667,-18.88 v -0.1067 c 0,-11.04 -7.4134,-18.3466 -22.24,-18.3466 h -14.2934 z m 12.48,-10.88 v -15.5733 h 2.08 c 5.7067,0 9.3867,2.3466 9.3867,7.7333 v 0.1067 c 0,5.3866 -3.68,7.7333 -9.3867,7.7333 z" />
    <path style="font-variant:normal;font-stretch:normal;font-size:40px;font-family:'Gotham Ultra';-inkscape-font-specification:Gotham-Ultra;writing-mode:lr-tb;display:inline;fill:#ffffff;fill-opacity:1;fill-rule:nonzero;stroke:none;stroke-width:1.33333" id="path11373" d="m 823.50783,737.48554 c 6.7734,0 12.4267,-2.2933 16.48,-5.6 v -17.28 h -18.08 v 8 h 6.4 v 3.7333 c -0.96,0.5334 -2.1333,0.8534 -4.2666,0.8534 -5.2267,0 -8.9067,-3.6267 -8.9067,-8.9067 v -0.1067 c 0,-5.0666 3.52,-8.8 8.3733,-8.8 3.0934,0 5.8134,1.1734 8.2667,3.2534 l 6.9867,-8.4267 c -4.0534,-3.52 -9.2267,-5.6533 -15.6267,-5.6533 -11.7867,0 -20.5867,8.32 -20.5867,19.4666 v 0.1067 c 0,11.5733 9.3334,19.36 20.96,19.36 z" />
    <path style="font-variant:normal;font-stretch:normal;font-size:40px;font-family:'Gotham Ultra';-inkscape-font-specification:Gotham-Ultra;writing-mode:lr-tb;display:inline;fill:#ffffff;fill-opacity:1;fill-rule:nonzero;stroke:none;stroke-width:1.33333" id="path11375" d="m 846.28123,736.68554 h 32.1066 v -10.24 h -19.84 v -4.0533 h 18.24 v -9.0134 h -18.24 v -3.7866 h 19.5734 v -10.24 h -31.84 z" />
  </g>
</svg>
