<?xml version="1.0" encoding="UTF-8" standalone="no"?>
<svg xmlns:dc="http://purl.org/dc/elements/1.1/"
  xmlns:cc="http://creativecommons.org/ns#"
  xmlns:rdf="http://www.w3.org/1999/02/22-rdf-syntax-ns#"
  xmlns:svg="http://www.w3.org/2000/svg"
  xmlns="http://www.w3.org/2000/svg" id="svg2303" xml:space="preserve" enable-background="new 0 0 850.394 841.89" viewBox="0 0 850.39371 850.39371" height="100%" width="100%" y="0px" x="0px" version="1.1">
  <metadata id="metadata2309">
    <rdf:RDF>
      <cc:Work rdf:about="">
        <dc:format>image/svg+xml</dc:format>
        <dc:type rdf:resource="http://purl.org/dc/dcmitype/StillImage" />
        <dc:title></dc:title>
      </cc:Work>
    </rdf:RDF>
  </metadata>
  <defs id="defs2307">
    <linearGradient id="SVGID_1_" gradientUnits="userSpaceOnUse" x1="257.7666" y1="116.8174" x2="420.56351" y2="116.8174">
      <stop offset="0" style="stop-color:#FFFFFF" id="stop2215" />
      <stop offset="0.4515" style="stop-color:#8D7D9F" id="stop2217" />
      <stop offset="1" style="stop-color:#473467" id="stop2219" />
    </linearGradient>
    <linearGradient id="SVGID_2_" gradientUnits="userSpaceOnUse" x1="472.0127" y1="116.8174" x2="634.80957" y2="116.8174" gradientTransform="matrix(-1,0,0,1,1066.5762,0)">
      <stop offset="0" style="stop-color:#FFFFFF" id="stop2224" />
      <stop offset="0.4515" style="stop-color:#8D7D9F" id="stop2226" />
      <stop offset="1" style="stop-color:#473467" id="stop2228" />
    </linearGradient>
  </defs>
  <!-- <g id="layer1">
    <g transform="translate(0.45366005,18.13203)" id="filet_3_posture" style="display:inline;fill:#ffffff;stroke:none">
      <path fill="none" stroke="#009eb9" stroke-width="3" stroke-miterlimit="10" d="m 423.73,681.347 c -19.09126,-14.57011 -37.45193,-29.66081 -57.849,-37.585 -18.42,-7.021 -36.83,-14.072 -55.381,-20.737 -15.076,-5.418 -30.576,-9.717 -45.467,-15.58 -11.408,-4.491 -22.871,-9.568 -33.064,-16.275 -28.578,-18.803 -44.348,-45.673 -46.42,-80.052 -0.592,-9.837 -0.324,-19.73 -0.328,-29.598 -0.021,-69.081 -0.01,-138.162 -0.014,-207.243 -0.002,-9.87 -0.061,-19.738 -0.045,-29.607 0.055,-34.956 -4.541,-68.869 -21.598,-100.176 -3.297,-6.049 -2.027,-12.834 2.666,-16.775 14.16,-11.889 28.412,-23.672 42.855,-35.213 4.063,-3.246 9.256,-3.568 13.971,-1.259 38.408,18.817 79.773,24.294 121.709,28.342 57.98,5.598 115.824,4.556 173.607,-1.464 35.643,-3.713 70.9,-9.78 103.48,-25.971 4.764,-2.368 10.232,-3.719 14.018,-0.69 16.318,13.053 32.131,26.746 47.891,40.477 1.494,1.301 1.561,4.465 1.855,6.819 0.135,1.081 -0.65,2.364 -1.236,3.437 -18.91,34.641 -23.082,72.458 -23.871,110.983 -0.201,9.865 -0.059,19.737 -0.06,29.605 -0.005,66.614 -10e-4,133.229 -0.013,199.842 0,8.635 -0.137,17.271 -0.092,25.905 0.215,39.816 -19.646,67.667 -52.666,87.246 -8.418,4.99 -17.738,8.624 -26.945,12.073 -13.85,5.188 -27.965,9.667 -41.969,14.44 -10.5,3.578 -21.084,6.931 -31.492,10.756 -42.276,15.536 -49.858,19.963 -83.542,48.3 z" id="path835-6" style="fill:#ffffff;stroke:none" />
    </g>
  </g> -->
  <g style="display:inline" id="layer26">
    <g id="texte_posture" transform="translate(0.453657,18.132032)">
      <g id="g661">
        <path id="path635" d="m 281.961,694.253 -12.988,13.813 c -2.028,2.157 -4.234,3.248 -6.62,3.274 -2.386,0.026 -4.677,-0.993 -6.871,-3.058 -2.778,-2.612 -4.097,-5.901 -3.954,-9.867 l 5.65,-1.221 c 0.032,2.886 0.747,4.985 2.146,6.301 1.457,1.37 2.971,1.22 4.542,-0.451 l 8.933,-9.499 -6.994,-6.576 3.946,-4.197 z" fill="#473467" />
        <path id="path637" d="m 283.639,709.846 -4.015,-3.305 6.94,-8.432 4.015,3.305 z" fill="#473467" />
        <path id="path639" d="m 297.748,734.891 -10.098,-6.918 -4.599,3.104 -6.039,-4.137 25.791,-16.271 6.039,4.138 -6.092,29.769 -6.27,-4.296 z m 1.336,-5.63 2.556,-10.808 -9.221,6.24 z" fill="#473467" />
        <path id="path641" d="m 314.672,750.799 -6.243,-3.422 13.46,-24.553 6.243,3.423 z" fill="#473467" />
        <path id="path643" d="m 343.537,733.992 11.333,4.066 c 4.142,1.485 7.074,3.912 8.799,7.278 1.725,3.367 1.884,7.008 0.479,10.924 -1.396,3.891 -3.851,6.587 -7.364,8.089 -3.514,1.501 -7.392,1.49 -11.633,-0.031 l -11.069,-3.971 z m 4.784,7.751 -5.62,15.662 4.782,1.716 c 2.058,0.738 4.005,0.623 5.841,-0.348 1.835,-0.971 3.167,-2.61 3.996,-4.92 0.828,-2.309 0.815,-4.445 -0.038,-6.41 -0.854,-1.963 -2.348,-3.328 -4.48,-4.093 z" fill="#473467" />
        <path id="path645" d="m 393.413,753.766 -14.512,-2.907 -1.093,5.452 13.1,2.624 -1.1,5.491 -13.1,-2.625 -1.107,5.53 14.942,2.993 -1.1,5.491 -21.925,-4.392 5.5,-27.455 21.493,4.306 z m -1.299,-13.071 -5.986,3.411 -5.177,-1.037 5.478,-5.757 z" fill="#473467" />
        <path id="path647" d="m 413.102,749.438 c 2.077,0.113 4.097,0.651 6.061,1.613 1.963,0.963 3.611,2.201 4.943,3.717 l -4.381,4.646 c -0.844,-1.168 -1.881,-2.111 -3.109,-2.834 -1.229,-0.722 -2.47,-1.117 -3.721,-1.186 -2.21,-0.121 -4.104,0.556 -5.68,2.031 -1.577,1.477 -2.428,3.359 -2.554,5.648 -0.128,2.344 0.51,4.342 1.915,5.994 1.404,1.654 3.212,2.54 5.422,2.662 1.172,0.063 2.406,-0.162 3.703,-0.679 1.297,-0.517 2.466,-1.253 3.507,-2.212 l 3.912,4.622 c -1.603,1.461 -3.461,2.601 -5.575,3.419 -2.115,0.82 -4.198,1.172 -6.248,1.061 -4.207,-0.231 -7.633,-1.795 -10.278,-4.691 -2.646,-2.895 -3.855,-6.394 -3.631,-10.494 0.221,-4.02 1.829,-7.304 4.827,-9.85 2.997,-2.546 6.626,-3.702 10.887,-3.467 z" fill="#473467" />
        <path id="path649" d="m 440.739,748.68 c 4.325,-0.426 8.055,0.566 11.187,2.977 3.132,2.411 4.896,5.633 5.294,9.667 0.4,4.06 -0.704,7.6 -3.313,10.616 -2.61,3.018 -6.064,4.738 -10.363,5.162 -4.3,0.424 -8.017,-0.582 -11.15,-3.02 -3.135,-2.438 -4.903,-5.699 -5.307,-9.787 -0.4,-4.061 0.7,-7.571 3.302,-10.535 2.6,-2.963 6.051,-4.656 10.35,-5.08 z m 0.665,5.924 c -2.177,0.215 -3.957,1.188 -5.34,2.918 -1.384,1.73 -1.96,3.764 -1.729,6.1 0.23,2.335 1.201,4.229 2.911,5.682 1.711,1.452 3.642,2.072 5.791,1.859 2.149,-0.211 3.895,-1.193 5.236,-2.947 1.34,-1.754 1.896,-3.798 1.666,-6.133 -0.23,-2.336 -1.174,-4.219 -2.828,-5.65 -1.656,-1.432 -3.557,-2.042 -5.707,-1.829 z" fill="#473467" />
        <path id="path651" d="m 484.187,740.001 4.171,15.695 c 0.951,3.583 0.599,6.718 -1.06,9.407 -1.659,2.69 -4.382,4.538 -8.171,5.545 -3.814,1.014 -7.128,0.77 -9.94,-0.731 -2.814,-1.501 -4.696,-4.043 -5.648,-7.626 l -4.171,-15.695 6.882,-1.828 4.171,15.695 c 0.479,1.805 1.383,3.103 2.711,3.895 1.328,0.793 2.829,0.966 4.505,0.521 1.648,-0.438 2.829,-1.317 3.541,-2.638 0.711,-1.32 0.824,-2.896 0.338,-4.726 l -4.171,-15.695 z" fill="#473467" />
        <path id="path653" d="m 514.637,757.688 -6.757,2.918 -21.089,-21.392 6.977,-3.013 14.741,16.072 -1.595,-21.75 6.72,-2.902 z" fill="#473467" />
        <path id="path655" d="m 538.208,719.375 -12.7,7.6 2.854,4.771 11.465,-6.859 2.875,4.805 -11.465,6.859 2.896,4.84 13.078,-7.824 2.875,4.806 -19.188,11.479 -14.375,-24.027 18.811,-11.254 z" fill="#473467" />
        <path id="path657" d="m 570.598,723.076 -8.119,-3.671 -0.158,0.122 -4.264,3.313 4.834,6.223 -5.623,4.368 -17.178,-22.111 9.888,-7.682 c 2.927,-2.273 5.71,-3.363 8.35,-3.27 2.639,0.094 4.916,1.373 6.83,3.836 2.65,3.412 3.153,6.82 1.51,10.225 l 10.312,3.689 z m -15.978,-4.658 4.265,-3.313 c 1.222,-0.949 1.932,-1.99 2.132,-3.125 0.199,-1.133 -0.151,-2.279 -1.051,-3.438 -0.884,-1.138 -1.892,-1.739 -3.023,-1.806 -1.132,-0.065 -2.309,0.376 -3.529,1.324 l -4.265,3.313 z" fill="#473467" />
        <path id="path659" d="m 582.683,681.914 -6.072,5.861 15.475,16.029 -5.122,4.945 -15.475,-16.029 -6.015,5.807 -4.001,-4.144 17.209,-16.614 z" fill="#473467" />
      </g>
    </g>
  </g>
  <g style="display:inline" id="layer25">
    <g transform="translate(0.45365804,18.132029)" id="filet_separation_theme" style="display:inline">
      <line fill="none" stroke="#000000" stroke-miterlimit="10" x1="423.50601" y1="560.10699" x2="423.50601" y2="597.89099" id="line664" />
    </g>
  </g>
  <g style="display:inline" id="layer24">
    <g transform="translate(0.45366,18.13203)" id="picto_theme" style="display:inline">
      <g id="g671">
        <path fill="none" stroke="#000000" stroke-width="2" stroke-miterlimit="10" d="m 483.031,556.505 c 2.246,2.157 5.02,3.875 8.242,5.102 3.221,1.229 7.002,1.853 11.238,1.853 4.178,0 7.945,-0.623 11.193,-1.853 3.25,-1.227 6.039,-2.943 8.285,-5.102 2.249,-2.159 4.01,-4.719 5.231,-7.604 0.534,-1.265 0.978,-2.605 1.321,-3.992 H 512.08 c -0.434,0.747 -0.871,1.367 -1.334,1.889 -1.795,2.023 -4.565,3.05 -8.236,3.05 -4.46,0 -5.666,-0.149 -8.277,-3.048 -0.473,-0.521 -0.906,-1.125 -1.354,-1.891 h -16.404 c 0.342,1.382 0.787,2.724 1.326,3.991 1.223,2.889 2.982,5.448 5.23,7.605 z" id="path667" />
        <path fill="none" stroke="#000000" stroke-width="2" stroke-miterlimit="10" d="m 529.326,592.746 c -0.172,-3.267 -0.881,-6.391 -2.105,-9.282 -1.221,-2.881 -2.98,-5.422 -5.229,-7.551 -2.245,-2.127 -5.034,-3.843 -8.288,-5.102 -3.252,-1.256 -7.018,-1.894 -11.191,-1.894 -4.231,0 -8.013,0.638 -11.236,1.893 -3.225,1.26 -6,2.977 -8.246,5.103 -2.247,2.127 -4.006,4.668 -5.227,7.551 -1.226,2.889 -1.935,6.011 -2.107,9.284 -0.119,2.587 -0.172,10.858 -0.172,13.566 0,0.202 0.002,0.393 0.006,0.587 l 10e-4,0.061 h 15.365 l -10e-4,-0.116 c -0.004,-0.233 -0.008,-0.467 -0.008,-0.709 0,-1.283 0.014,-8.247 0.045,-9.537 0.031,-1.337 0.103,-2.471 0.217,-3.463 0.117,-1.493 0.433,-2.904 0.936,-4.181 0.506,-1.28 1.231,-2.41 2.16,-3.358 0.926,-0.949 2.09,-1.709 3.453,-2.256 1.365,-0.546 2.984,-0.823 4.814,-0.823 1.828,0 3.448,0.277 4.813,0.823 1.361,0.546 2.525,1.306 3.457,2.255 0.925,0.951 1.65,2.08 2.156,3.358 0.501,1.276 0.816,2.687 0.936,4.194 0.059,1.02 0.117,2.163 0.176,3.441 0.057,1.296 0.084,8.262 0.084,9.546 0,0.212 -0.006,0.418 -0.012,0.624 -0.002,0.066 -0.004,0.133 -0.006,0.201 h 15.379 l 0.002,-0.078 c 0.003,-0.187 0.006,-0.373 0.006,-0.569 -0.002,-2.91 -0.063,-11.035 -0.178,-13.568 z" id="path669" />
      </g>
    </g>
  </g>
  <g style="display:inline" id="layer23">
    <g transform="translate(0.45366,18.13203)" id="texte_picto_theme" style="display:inline">
      <g id="g694">
        <path d="m 449.666,523.979 h -3.799 v 10.025 h -3.203 v -10.025 h -3.763 v -2.593 h 10.765 z" id="path674" />
        <path d="m 460.897,523.924 h -6.66 v 2.502 h 6.013 v 2.52 h -6.013 v 2.539 h 6.858 v 2.52 h -10.063 v -12.6 h 9.864 v 2.519 z" id="path676" />
        <path d="m 470.473,527.416 4.519,6.588 h -3.834 l -2.718,-4.014 -2.719,4.014 h -3.726 l 4.5,-6.443 -4.212,-6.156 h 3.727 l 2.43,3.672 2.43,-3.672 h 3.762 z" id="path678" />
        <path d="m 486.008,523.979 h -3.799 v 10.025 h -3.203 v -10.025 h -3.763 v -2.593 h 10.765 z" id="path680" />
        <path d="m 497.239,523.924 h -6.66 v 2.502 h 6.013 v 2.52 h -6.013 v 2.539 h 6.858 v 2.52 h -10.063 v -12.6 h 9.864 v 2.519 z" id="path682" />
        <path d="m 513.313,523.979 h -3.798 v 10.025 h -3.204 v -10.025 h -3.762 v -2.593 h 10.764 z" id="path684" />
        <path d="m 526.309,534.004 h -3.203 v -4.896 h -5.221 v 4.896 h -3.204 v -12.6 h 3.204 v 5.184 h 5.221 v -5.184 h 3.203 z" id="path686" />
        <path d="m 538.693,523.924 h -6.66 v 2.502 h 6.012 v 2.52 h -6.012 v 2.539 h 6.857 v 2.52 h -10.063 v -12.6 h 9.865 v 2.519 z m -3.312,-3.618 h -2.376 l -2.34,-2.034 2.808,-0.99 z" id="path688" />
        <path d="m 554.803,534.004 h -2.826 l -0.018,-8.189 -3.024,6.93 h -2.088 l -3.024,-6.93 v 8.189 h -2.861 v -12.618 h 3.51 l 3.42,7.507 3.42,-7.507 h 3.492 v 12.618 z" id="path690" />
        <path d="m 567.205,523.924 h -6.66 v 2.502 h 6.012 v 2.52 h -6.012 v 2.539 h 6.857 v 2.52 H 557.34 v -12.6 h 9.865 z" id="path692" />
      </g>
    </g>
  </g>
  <g style="display:inline" id="layer22">
    <g transform="translate(0.45365829,18.132036)" id="picto_categorie" style="display:inline">
      <g id="g707">
        <circle fill="none" stroke="#000000" stroke-width="2" stroke-miterlimit="10" cx="359.233" cy="556.59399" r="8.75" id="circle697" />
        <circle fill="none" stroke="#000000" stroke-width="2" stroke-miterlimit="10" cx="322.358" cy="576.09399" r="8.75" id="circle699" />
        <circle fill="none" stroke="#000000" stroke-width="2" stroke-miterlimit="10" cx="359.233" cy="596.09399" r="8.75" id="circle701" />
        <line fill="none" stroke="#000000" stroke-width="2" stroke-miterlimit="10" x1="351.358" y1="560.84399" x2="329.233" y2="571.34399" id="line703" />
        <line fill="none" stroke="#000000" stroke-width="2" stroke-miterlimit="10" x1="330.108" y1="580.96899" x2="351.733" y2="591.59399" id="line705" />
      </g>
    </g>
  </g>
  <g style="display:inline" id="layer21">
    <g transform="translate(0.45366,18.13203)" id="texte_picto_categorie" style="display:inline">
      <g id="g730">
        <path d="m 280.522,521.296 c 0.936,0 1.857,0.192 2.763,0.576 0.906,0.384 1.677,0.899 2.313,1.548 l -1.854,2.195 c -0.408,-0.504 -0.897,-0.902 -1.467,-1.196 -0.57,-0.294 -1.137,-0.44 -1.701,-0.44 -0.996,0 -1.83,0.351 -2.502,1.053 -0.672,0.701 -1.008,1.568 -1.008,2.601 0,1.056 0.336,1.938 1.008,2.646 0.672,0.709 1.506,1.063 2.502,1.063 0.528,0 1.077,-0.132 1.647,-0.396 0.569,-0.264 1.077,-0.623 1.521,-1.08 l 1.872,1.98 c -0.684,0.696 -1.491,1.254 -2.421,1.674 -0.93,0.42 -1.857,0.631 -2.781,0.631 -1.896,0 -3.474,-0.619 -4.734,-1.854 -1.26,-1.235 -1.89,-2.778 -1.89,-4.626 0,-1.813 0.642,-3.327 1.926,-4.545 1.284,-1.218 2.886,-1.83 4.806,-1.83 z" id="path710" />
        <path d="m 292.833,521.296 c 1.956,0 3.582,0.609 4.878,1.827 1.296,1.218 1.944,2.738 1.944,4.563 0,1.836 -0.651,3.373 -1.953,4.608 -1.302,1.235 -2.925,1.854 -4.869,1.854 -1.944,0 -3.564,-0.615 -4.86,-1.846 -1.296,-1.229 -1.944,-2.769 -1.944,-4.617 0,-1.836 0.648,-3.359 1.944,-4.572 1.297,-1.211 2.917,-1.817 4.86,-1.817 z m 0.037,2.683 c -0.984,0 -1.824,0.356 -2.52,1.07 -0.696,0.715 -1.044,1.6 -1.044,2.655 0,1.055 0.351,1.946 1.053,2.673 0.702,0.727 1.539,1.089 2.511,1.089 0.972,0 1.797,-0.362 2.475,-1.089 0.678,-0.727 1.017,-1.617 1.017,-2.673 0,-1.056 -0.339,-1.94 -1.017,-2.655 -0.678,-0.714 -1.503,-1.07 -2.475,-1.07 z" id="path712" />
        <path d="m 315.189,534.004 h -2.826 l -0.018,-8.189 -3.024,6.93 h -2.088 l -3.024,-6.93 v 8.189 h -2.862 v -12.618 h 3.51 l 3.42,7.507 3.42,-7.507 h 3.492 z" id="path714" />
        <path d="m 331.569,534.004 h -2.826 l -0.018,-8.189 -3.024,6.93 h -2.088 l -3.024,-6.93 v 8.189 h -2.862 v -12.618 h 3.51 l 3.42,7.507 3.42,-7.507 h 3.492 z" id="path716" />
        <path d="m 345.447,521.404 v 7.308 c 0,1.668 -0.516,2.991 -1.548,3.969 -1.032,0.979 -2.43,1.468 -4.194,1.468 -1.776,0 -3.189,-0.489 -4.239,-1.468 -1.05,-0.978 -1.575,-2.301 -1.575,-3.969 v -7.308 h 3.204 v 7.308 c 0,0.84 0.243,1.509 0.729,2.007 0.486,0.498 1.119,0.747 1.899,0.747 0.768,0 1.383,-0.245 1.845,-0.737 0.461,-0.492 0.693,-1.164 0.693,-2.017 v -7.308 z" id="path718" />
        <path d="m 359.379,534.004 h -2.826 l -5.796,-7.758 v 7.758 h -3.006 v -12.6 h 2.826 l 5.814,7.775 v -7.775 h 2.988 z" id="path720" />
        <path d="m 370.269,531.682 h -5.508 l -0.918,2.322 h -3.294 l 5.436,-12.6 h 3.294 l 5.31,12.6 h -3.42 z m -0.936,-2.43 -1.8,-4.662 -1.836,4.662 z" id="path722" />
        <path d="m 386.739,521.404 v 7.308 c 0,1.668 -0.516,2.991 -1.548,3.969 -1.032,0.979 -2.43,1.468 -4.194,1.468 -1.776,0 -3.189,-0.489 -4.239,-1.468 -1.05,-0.978 -1.575,-2.301 -1.575,-3.969 v -7.308 h 3.204 v 7.308 c 0,0.84 0.243,1.509 0.729,2.007 0.486,0.498 1.119,0.747 1.899,0.747 0.768,0 1.383,-0.245 1.845,-0.737 0.461,-0.492 0.693,-1.164 0.693,-2.017 v -7.308 z" id="path724" />
        <path d="m 398.673,523.979 h -3.798 v 10.025 h -3.204 v -10.025 h -3.762 v -2.593 h 10.764 z" id="path726" />
        <path d="m 409.905,523.924 h -6.66 v 2.502 h 6.012 v 2.52 h -6.012 v 2.539 h 6.858 v 2.52 h -10.062 v -12.6 h 9.864 z m -1.728,-5.653 -2.34,2.034 h -2.376 l 1.908,-3.024 z" id="path728" />
      </g>
    </g>
  </g>
  <g style="display:inline" id="layer20">
    <g transform="translate(0.45366,18.13203)" id="fond_categorie" style="display:inline">
      <path fill="#b7d5e2" d="m 215.607,255.033 c 0.012,4.173 0.023,8.348 0.023,12.522 v 62.628 c 0,45.598 -0.002,91.194 0.014,136.789 0.002,2.348 -0.014,4.697 -0.028,7.048 -0.043,6.562 -0.071,12.771 0.255,18.7 H 630.77 c -0.023,-4.816 0.011,-9.621 0.043,-14.272 0.023,-3.468 0.049,-6.936 0.049,-10.404 0.008,-39.985 0.008,-79.972 0.01,-119.957 l 0.002,-72.346 c 0,-2.75 -0.012,-5.502 -0.023,-8.254 -0.028,-6.768 -0.059,-13.766 0.09,-20.823 0.689,-32.352 3.781,-69.55 20.132,-105.506 -7.903,-6.563 -15.765,-13.003 -23.663,-19.27 -35.893,15.455 -73.264,20.889 -105.503,24.12 -33.761,3.384 -67.112,5.1 -99.128,5.1 -27.184,0 -54.258,-1.235 -80.471,-3.669 -39.822,-3.7 -81.889,-8.789 -122.399,-25.799 -7.401,5.764 -15.159,11.897 -23.624,18.677 13.199,27.841 19.367,59.613 19.303,98.796 -0.01,5.307 0.004,10.614 0.019,15.92 z" id="path733" />
    </g>
  </g>
  <g style="display:inline" id="layer19">
    <g transform="translate(0.45366,18.13203)" id="picto_posture" style="display:inline">
      <g id="g816">
        <g id="g814">
          <g id="g812">
            <g id="g810">
              <g id="g808">
                <g id="g738">
                  <polygon fill="#14110d" points="445.135,119.371 443.905,119.371 443.905,119.459 445.176,119.459 " id="polygon736" />
                </g>
                <g id="g742">
                  <polygon fill="#14110d" points="403.588,119.371 403.545,119.459 404.574,119.459 404.574,119.371 " id="polygon740" />
                </g>
                <rect x="455.491" y="36.970001" transform="matrix(0.8663,-0.4995,0.4995,0.8663,42.2313,232.8389)" fill="#473467" width="1.125" height="1.124" id="rect744" />
                <rect x="456.616" y="38.917" transform="matrix(0.5004,0.8658,-0.8658,0.5004,262.5688,-376.0901)" fill="#473467" width="1.124" height="1.123" id="rect746" />
                <rect x="456.20401" y="40.452" transform="matrix(-0.8659,0.5003,-0.5003,-0.8659,872.7764,-151.9941)" fill="#473467" width="1.123" height="1.124" id="rect748" />
                <rect x="457.73901" y="40.862999" transform="matrix(0.866,-0.5,0.5,0.866,40.6821,234.6875)" fill="#473467" width="1.123" height="1.124" id="rect750" />
                <rect x="458.86301" y="42.810001" transform="matrix(0.8661,-0.4999,0.4999,0.8661,39.8484,235.4858)" fill="#473467" width="1.124" height="1.124" id="rect752" />
                <rect x="459.98599" y="44.756001" transform="matrix(0.8659,-0.5003,0.5003,0.8659,39.1088,236.4911)" fill="#473467" width="1.123" height="1.123" id="rect754" />
                <rect x="383.366" y="85.100998" transform="matrix(0.5004,0.8658,-0.8658,0.5004,265.9605,-289.6004)" fill="#473467" width="1.124" height="1.123" id="rect756" />
                <rect x="383.77701" y="83.566002" transform="matrix(0.8661,-0.4999,0.4999,0.8661,9.4173,203.407)" fill="#473467" width="1.124" height="1.124" id="rect758" />
                <rect x="385.311" y="83.976997" transform="matrix(0.5004,0.8658,-0.8658,0.5004,265.9592,-291.8461)" fill="#473467" width="1.124" height="1.123" id="rect760" />
                <rect x="412.711" y="70.752998" transform="matrix(-0.5004,-0.8658,0.8658,-0.5004,558.3486,464.8038)" fill="#473467" width="1.124" height="1.123" id="rect762" />
                <rect x="414.65701" y="69.628998" transform="matrix(-0.5004,-0.8658,0.8658,-0.5004,562.2401,464.8022)" fill="#473467" width="1.124" height="1.123" id="rect764" />
                <rect x="416.604" y="68.505997" transform="matrix(-0.5004,-0.8658,0.8658,-0.5004,566.1348,464.802)" fill="#473467" width="1.124" height="1.123" id="rect766" />
                <rect x="418.552" y="67.380997" transform="matrix(-0.4998,-0.8661,0.8661,-0.4998,569.7307,464.9152)" fill="#473467" width="1.124" height="1.124" id="rect768" />
                <rect x="420.49701" y="66.258003" transform="matrix(-0.5004,-0.8658,0.8658,-0.5004,573.9213,464.7997)" fill="#473467" width="1.124" height="1.123" id="rect770" />
                <rect x="422.444" y="65.133003" transform="matrix(-0.4991,-0.8665,0.8665,-0.4991,577.2148,465.0321)" fill="#473467" width="1.123" height="1.125" id="rect772" />
                <rect x="424.38901" y="64.010002" transform="matrix(-0.5002,-0.8659,0.8659,-0.5002,581.6207,464.8316)" fill="#473467" width="1.124" height="1.123" id="rect774" />
                <rect x="426.33701" y="62.886002" transform="matrix(-0.4991,-0.8665,0.8665,-0.4991,584.9978,465.0357)" fill="#473467" width="1.123" height="1.125" id="rect776" />
                <rect x="428.28201" y="61.763" transform="matrix(-0.5004,-0.8658,0.8658,-0.5004,589.494,464.7957)" fill="#473467" width="1.124" height="1.123" id="rect778" />
                <rect x="430.229" y="60.639" transform="matrix(-0.4991,-0.8665,0.8665,-0.4991,592.7807,465.0397)" fill="#473467" width="1.123" height="1.125" id="rect780" />
                <rect x="432.17401" y="59.515999" transform="matrix(-0.5011,-0.8654,0.8654,-0.5011,597.5846,464.6696)" fill="#473467" width="1.125" height="1.123" id="rect782" />
                <rect x="434.12201" y="58.391998" transform="matrix(-0.5004,-0.8658,0.8658,-0.5004,601.175,464.7932)" fill="#473467" width="1.124" height="1.123" id="rect784" />
                <rect x="436.06699" y="57.268002" transform="matrix(-0.5004,-0.8658,0.8658,-0.5004,605.0668,464.7912)" fill="#473467" width="1.124" height="1.123" id="rect786" />
                <rect x="438.01401" y="56.144001" transform="matrix(-0.5002,-0.8659,0.8659,-0.5002,608.8727,464.8279)" fill="#473467" width="1.124" height="1.123" id="rect788" />
                <rect x="439.96201" y="55.02" transform="matrix(-0.4991,-0.8665,0.8665,-0.4991,612.2398,465.0497)" fill="#473467" width="1.123" height="1.125" id="rect790" />
                <rect x="441.90701" y="53.896999" transform="matrix(-0.5004,-0.8658,0.8658,-0.5004,616.7477,464.789)" fill="#473467" width="1.124" height="1.123" id="rect792" />
                <rect x="443.854" y="52.771999" transform="matrix(-0.4991,-0.8665,0.8665,-0.4991,620.0228,465.0533)" fill="#473467" width="1.123" height="1.125" id="rect794" />
                <rect x="445.79901" y="51.650002" transform="matrix(-0.5011,-0.8654,0.8654,-0.5011,624.8443,464.6527)" fill="#473467" width="1.125" height="1.123" id="rect796" />
                <rect x="447.74701" y="50.525002" transform="matrix(-0.4991,-0.8665,0.8665,-0.4991,627.8057,465.0573)" fill="#473467" width="1.123" height="1.125" id="rect798" />
                <rect x="449.69199" y="49.402" transform="matrix(-0.5004,-0.8658,0.8658,-0.5004,632.3206,464.7846)" fill="#473467" width="1.124" height="1.123" id="rect800" />
                <rect x="451.63901" y="48.278" transform="matrix(-0.5006,-0.8657,0.8657,-0.5006,636.3055,464.7447)" fill="#473467" width="1.124" height="1.123" id="rect802" />
                <polygon fill="#473467" points="427.926,59.611 426.803,57.665 422.91,59.912 422.348,58.938 420.4,60.063 421.525,62.009 422.498,61.447 423.061,62.42 " id="polygon804" />
                <path fill="#473467" d="m 473.145,41.29 0.973,-0.562 -6.742,-11.678 -0.973,0.562 -1.125,-1.946 -14.598,8.428 1.125,1.946 -31.143,17.98 -0.563,-0.973 1.947,-1.124 -0.563,-0.974 4.867,-2.809 0.561,0.973 2.92,-1.686 -2.809,-4.866 -2.92,1.686 0.563,0.973 -5.136,2.965 c -0.673,-0.384 -1.521,-0.42 -2.239,-0.005 -0.718,0.415 -1.111,1.167 -1.115,1.941 l -7.082,4.089 -0.562,-0.973 -3.894,2.248 2.811,4.866 3.893,-2.248 -0.562,-0.973 4.866,-2.809 0.561,0.973 -1.945,1.124 0.562,0.973 4.782,-2.761 -14.514,8.379 1.686,2.92 -23.357,13.485 -1.123,-1.946 -1.947,1.124 -1.123,-1.946 0.974,-0.563 -1.124,-1.946 -4.867,2.81 1.125,1.946 0.973,-0.562 1.123,1.946 1.125,1.946 3.371,5.839 25.303,-14.609 0.563,0.973 2.918,-1.686 1.125,1.946 6.813,-3.933 1.123,1.946 0.973,-0.562 0.563,0.973 0.365,-0.21 c -0.021,0.149 -0.047,0.297 -0.047,0.451 0,0.255 0.037,0.5 0.092,0.739 l -20.592,43.368 h -2.168 v 2.248 h 1.26 l 2.111,-1.567 0.311,-0.769 h 0.951 l 19.701,-41.182 c 0.127,0.071 0.252,0.143 0.389,0.198 v 33.629 h -1.125 v 2.248 h 1.125 2.246 1.125 v -2.248 h -1.125 V 78.446 c 0.108,-0.036 0.215,-0.068 0.316,-0.113 l 18.895,41.038 h 0.869 l 0.283,0.769 2.113,1.567 h 1.123 v -2.248 h -1.951 L 427.96,76.492 c 0.133,-0.356 0.215,-0.737 0.215,-1.14 0,-0.101 -0.021,-0.197 -0.029,-0.295 l 1.66,-0.958 -1.123,-1.947 0.973,-0.562 -0.563,-0.974 3.893,-2.247 -0.561,-0.974 0.973,-0.562 -1.123,-1.946 26.275,-15.171 1.123,1.946 14.598,-8.428 z m -65.846,18.552 -1.125,-1.946 0.975,-0.562 1.123,1.946 z m 19.312,-13.746 1.123,1.946 -0.973,0.562 -1.123,-1.946 z m -7.634,7.003 v 0 0 l -7.785,4.495 -0.563,-0.973 6.813,-3.933 c -0.311,-0.537 -0.127,-1.225 0.412,-1.535 0.537,-0.311 1.225,-0.126 1.535,0.411 l 4.865,-2.81 0.563,0.973 z m -36.229,33.893 -0.563,-0.973 0.975,-0.562 -0.563,-0.974 -0.973,0.562 26.275,-15.17 1.123,1.946 z m 38.969,-13.415 -1.686,-2.919 0.973,-0.562 1.66,2.875 c -0.049,0.046 -0.098,0.092 -0.143,0.142 z m 32.787,-24.12 -0.563,-0.973 -0.973,0.562 0.562,0.973 -0.974,0.562 -0.561,-0.974 -0.975,0.562 0.563,0.973 -0.973,0.562 -0.563,-0.973 -0.973,0.562 0.561,0.973 -0.973,0.562 -0.563,-0.973 -0.973,0.562 0.563,0.973 -0.973,0.562 -0.562,-0.973 -0.974,0.562 0.561,0.974 -0.973,0.562 -0.563,-0.973 -0.973,0.562 0.563,0.973 -0.974,0.562 -0.562,-0.973 -0.973,0.562 0.561,0.974 -0.973,0.562 -0.563,-0.973 -0.973,0.562 0.563,0.973 -0.975,0.562 -0.561,-0.973 -0.975,0.562 0.563,0.973 -0.973,0.562 -0.563,-0.973 -0.973,0.562 0.563,0.973 -0.975,0.562 -0.561,-0.974 -0.975,0.562 0.563,0.973 -0.973,0.562 -0.562,-0.973 -0.974,0.562 0.561,0.973 -0.973,0.562 -0.563,-0.973 -0.973,0.562 0.563,0.973 -0.973,0.562 -0.563,-0.973 -0.973,0.562 0.561,0.974 -0.973,0.562 -0.563,-0.973 -0.973,0.562 0.563,0.973 -0.973,0.562 -0.563,-0.973 -0.973,0.562 0.561,0.973 -0.973,0.562 -0.563,-0.973 -0.973,0.562 0.563,0.973 -0.975,0.562 -0.561,-0.974 -0.973,0.562 0.561,0.973 -0.973,0.562 -0.562,-0.973 -0.974,0.562 0.563,0.973 -0.975,0.562 -0.561,-0.973 -0.975,0.562 0.563,0.973 -0.973,0.562 -0.563,-0.973 -0.973,0.562 0.563,0.974 -0.975,0.562 -0.561,-0.973 -0.975,0.562 0.563,0.973 v 0 l -4.495,-7.786 42.82,-24.722 1.123,1.946 -20.438,11.799 0.563,0.973 20.438,-11.799 1.686,2.92 -0.973,0.562 0.561,0.973 0.973,-0.562 0.563,0.974 z m 7.935,-1.987 -0.563,-0.973 -0.972,0.562 0.562,0.973 -0.975,0.562 -0.561,-0.973 0.974,-0.562 -0.563,-0.973 -0.973,0.562 0.031,0.053 -0.91,-1.577 0.316,0.55 0.975,-0.562 -0.563,-0.973 -0.973,0.562 -0.563,-0.973 0.974,-0.562 -0.562,-0.973 -0.975,0.562 -1.686,-2.919 0.975,-0.562 -0.563,-0.973 -0.973,0.562 -0.563,-0.973 0.973,-0.562 -0.561,-0.973 -0.975,0.562 10.705,-6.181 6.742,11.678 z" id="path806" />
              </g>
            </g>
          </g>
        </g>
      </g>
    </g>
  </g>
  <g style="display:inline" id="layer18">
    <g transform="translate(0.45365538,18.132034)" id="filet_1_categorie" style="display:inline">
      <g id="g823">
        <path fill="none" stroke="#473467" stroke-width="2" stroke-miterlimit="10" d="m 493.969,80.147 c 8.473,-0.599 15.301,-3.708 23.795,-7.385 10.715,-4.64 20.693,-10.77 29.656,-18.22 7.449,-6.191 8.287,-5.781 15.035,0.56 l 0.213,0.199 c 6.082,5.715 12.301,11.491 18.314,17.077 2.801,2.601 5.602,5.202 8.398,7.806 2.49,2.32 4.986,4.635 7.482,6.95 3.805,3.529 7.609,7.058 11.398,10.604 l 3.557,3.053" id="path819" />
        <path fill="none" stroke="#473467" stroke-width="2" stroke-miterlimit="10" d="m 233.939,100.199 5.154,-4.877 c 4.512,-4.226 9.033,-8.44 13.563,-12.649 12.65,-11.761 22.352,-20.735 31.455,-29.099 4.971,-4.567 6.242,-4.608 11.336,-0.374 11.143,9.265 23.902,16.772 39.01,22.951 4.484,1.834 9.539,2.648 14.43,3.436 l 1.668,0.27 c 1.131,0.186 2.266,0.383 3.402,0.581" id="path821" />
      </g>
      <g id="g829">
        <g id="g827">
          <path fill="none" stroke="#473467" stroke-width="2" stroke-miterlimit="10" d="m 185.207,282.063 -5.619,13.771 c -2.564,8.693 -6.162,17.377 -8.76,26.061 -3.854,12.875 -7.836,26.188 -11.637,39.316 -2.338,8.068 -4.029,16.216 -5.241,22.413 -1.101,5.619 -2.056,11.372 -2.981,16.936 -0.668,4.011 -1.355,8.158 -2.094,12.229 -4.352,23.971 -8.172,47.47 -7.166,71.412 0.221,5.262 1.012,10.611 1.777,15.785 0.66,4.467 1.344,9.087 1.666,13.672 1.527,21.61 7.924,42.711 19.557,64.506 14.658,27.467 37.237,50.072 69.027,69.108 25.375,15.196 53.38,25.344 80.463,35.157 4.01,1.453 8.021,2.907 12.025,4.376 8.715,3.199 17.693,6.16 26.375,9.023 12.674,4.18 25.777,8.502 38.336,13.65 11.004,4.512 24.595,11.69 32.814,27.389 0.592,-0.519 1.137,-0.991 1.645,-1.432 1.447,-1.256 2.59,-2.248 3.674,-3.288 1.541,-1.479 3.063,-3.064 4.533,-4.599 3.029,-3.159 6.16,-6.426 9.724,-9.025 12.082,-8.819 26.081,-13.78 39.618,-18.576 3.512,-1.244 7.143,-2.53 10.676,-3.862 12.43,-4.685 24.881,-8.912 37.01,-12.564 23.48,-7.071 46.951,-16.396 69.764,-27.718 26.902,-13.353 48.271,-29.318 65.324,-48.813 17.076,-19.521 29.023,-42.951 35.506,-69.638 7.818,-32.188 8.635,-67.655 2.57,-111.62 -1.182,-8.562 -3.029,-17.193 -4.816,-25.541 -0.615,-2.88 -1.23,-5.76 -1.822,-8.642 -0.365,-1.771 -0.723,-3.544 -1.081,-5.317 -1.565,-7.743 -3.185,-15.75 -5.237,-23.479 -1.689,-6.364 -3.658,-12.774 -5.564,-18.975 -1.627,-5.295 -3.309,-10.771 -4.814,-16.207 -1.869,-6.755 -3.641,-13.657 -5.354,-20.334 -2.82,-10.987 -5.736,-22.35 -9.162,-33.328 l -0.297,-0.952" id="path825" />
        </g>
      </g>
    </g>
  </g>
  <g style="display:inline" id="layer17">
    <g transform="translate(0.45365648,18.132031)" id="filet_2_categorie" style="display:inline">
      <path opacity="0.2" fill="none" stroke="#009eb9" stroke-width="27" stroke-miterlimit="10" d="m 423.73,681.347 c -17.36671,-16.07909 -37.45193,-29.66081 -57.849,-37.585 -18.42,-7.021 -36.83,-14.072 -55.381,-20.737 -15.076,-5.418 -30.576,-9.717 -45.467,-15.58 -11.408,-4.491 -22.871,-9.568 -33.064,-16.275 -28.578,-18.803 -44.348,-45.673 -46.42,-80.052 -0.592,-9.837 -0.324,-19.73 -0.328,-29.598 -0.021,-69.081 -0.01,-138.162 -0.014,-207.243 -0.002,-9.87 -0.061,-19.738 -0.045,-29.607 0.055,-34.956 -4.541,-68.869 -21.598,-100.176 -3.297,-6.049 -2.027,-12.834 2.666,-16.775 14.16,-11.889 28.412,-23.672 42.855,-35.213 4.063,-3.246 9.256,-3.568 13.971,-1.259 38.408,18.817 79.773,24.294 121.709,28.342 57.98,5.598 115.824,4.556 173.607,-1.464 35.643,-3.713 70.9,-9.78 103.48,-25.971 4.764,-2.368 10.232,-3.719 14.018,-0.69 16.318,13.053 32.131,26.746 47.891,40.477 1.494,1.301 1.561,4.465 1.855,6.819 0.135,1.081 -0.65,2.364 -1.236,3.437 -18.91,34.641 -23.082,72.458 -23.871,110.983 -0.201,9.865 -0.059,19.737 -0.06,29.605 -0.005,66.614 -10e-4,133.229 -0.013,199.842 0,8.635 -0.137,17.271 -0.092,25.905 0.215,39.816 -19.646,67.667 -52.666,87.246 -8.418,4.99 -17.738,8.624 -26.945,12.073 -13.85,5.188 -27.965,9.667 -41.969,14.44 -10.5,3.578 -21.084,6.931 -31.492,10.756 -42.276,15.536 -49.858,19.963 -83.542,48.3 z" id="path832" />
    </g>
  </g>

  <g style="display:inline" id="layer16">
    <g transform="translate(0.45366005,18.132028)" id="filet_3_posture" style="display:inline" color="#009eb9">
      <path fill="none" stroke="currentColor" stroke-width="3" stroke-miterlimit="10" d="m 423.73,681.347 c -19.09126,-14.57011 -37.45193,-29.66081 -57.849,-37.585 -18.42,-7.021 -36.83,-14.072 -55.381,-20.737 -15.076,-5.418 -30.576,-9.717 -45.467,-15.58 -11.408,-4.491 -22.871,-9.568 -33.064,-16.275 -28.578,-18.803 -44.348,-45.673 -46.42,-80.052 -0.592,-9.837 -0.324,-19.73 -0.328,-29.598 -0.021,-69.081 -0.01,-138.162 -0.014,-207.243 -0.002,-9.87 -0.061,-19.738 -0.045,-29.607 0.055,-34.956 -4.541,-68.869 -21.598,-100.176 -3.297,-6.049 -2.027,-12.834 2.666,-16.775 14.16,-11.889 28.412,-23.672 42.855,-35.213 4.063,-3.246 9.256,-3.568 13.971,-1.259 38.408,18.817 79.773,24.294 121.709,28.342 57.98,5.598 115.824,4.556 173.607,-1.464 35.643,-3.713 70.9,-9.78 103.48,-25.971 4.764,-2.368 10.232,-3.719 14.018,-0.69 16.318,13.053 32.131,26.746 47.891,40.477 1.494,1.301 1.561,4.465 1.855,6.819 0.135,1.081 -0.65,2.364 -1.236,3.437 -18.91,34.641 -23.082,72.458 -23.871,110.983 -0.201,9.865 -0.059,19.737 -0.06,29.605 -0.005,66.614 -10e-4,133.229 -0.013,199.842 0,8.635 -0.137,17.271 -0.092,25.905 0.215,39.816 -19.646,67.667 -52.666,87.246 -8.418,4.99 -17.738,8.624 -26.945,12.073 -13.85,5.188 -27.965,9.667 -41.969,14.44 -10.5,3.578 -21.084,6.931 -31.492,10.756 -42.276,15.536 -49.858,19.963 -83.542,48.3 z" id="path835" />
    </g>
  </g>
  <g style="display:inline" id="layer15">
    <g transform="translate(0.45366,18.13203)" id="texte_titre_badge" style="display:inline">
      <g id="g868">
        <path fill="#009eb9" d="m 258.891,468.068 2.844,0.36 V 473 h -11.879 v -4.571 l 2.844,-0.36 v -14.722 h -3.636 l -0.539,3.563 h -4.607 l 0.18,-8.675 h 23.396 l 0.181,8.675 h -4.607 l -0.54,-3.563 h -3.636 v 14.721 z" id="path838" />
        <path fill="#009eb9" d="m 269.368,473 v -4.571 l 2.844,-0.36 v -14.866 l -2.844,-0.396 v -4.571 h 11.879 v 4.571 l -2.844,0.396 v 14.866 l 2.844,0.36 V 473 Z" id="path840" />
        <path fill="#009eb9" d="m 297.878,468.068 2.844,0.36 V 473 h -11.879 v -4.571 l 2.844,-0.36 v -14.722 h -3.636 l -0.539,3.563 h -4.607 l 0.18,-8.675 h 23.396 l 0.181,8.675 h -4.607 l -0.54,-3.563 h -3.636 v 14.721 z" id="path842" />
        <path fill="#009eb9" d="m 325.094,473 -4.536,-8.675 h -3.167 v 3.743 l 3.635,0.36 V 473 h -12.67 v -4.571 l 2.844,-0.36 v -14.866 l -2.844,-0.396 v -4.571 h 13.462 c 5.04,0 8.495,2.844 8.495,7.631 0,4.067 -1.691,5.688 -4.067,6.983 v 0.18 c 0,0 0.396,0.288 0.684,0.792 l 2.484,4.247 3.167,0.36 V 473 Z m -4.824,-13.498 c 2.628,0 3.78,-1.044 3.78,-3.275 0,-1.944 -1.404,-2.88 -3.78,-2.88 h -2.879 v 6.155 z" id="path844" />
        <path fill="#009eb9" d="m 334.023,473 v -4.571 l 2.808,-0.36 v -14.902 l -2.808,-0.359 v -4.571 h 20.409 l 0.145,8.675 h -4.607 l -0.54,-3.563 h -6.407 v 4.787 h 5.363 v 4.932 h -5.363 v 4.823 h 6.335 l 0.54,-3.563 h 4.607 L 354.253,473 Z" id="path846" />
        <path fill="#009eb9" d="m 364.154,473 v -4.571 l 2.844,-0.36 v -14.902 l -2.844,-0.359 v -4.571 h 12.131 c 6.119,0 12.13,3.239 12.13,12.202 0,9.827 -5.939,12.563 -11.555,12.563 h -12.706 z m 11.231,-5.111 c 4.212,0 6.768,-1.62 6.768,-7.451 0,-4.968 -2.664,-7.091 -7.235,-7.091 h -1.728 v 14.542 z" id="path848" />
        <path fill="#009eb9" d="m 407.64,453.202 -2.844,-0.396 v -4.571 h 11.519 v 4.571 l -2.844,0.396 v 10.691 c 0,6.263 -3.743,9.358 -10.366,9.358 -6.623,0 -10.511,-3.096 -10.511,-9.358 v -10.691 l -2.844,-0.396 v -4.571 h 11.879 v 4.571 l -2.844,0.396 v 10.295 c 0,1.944 0.792,4.571 4.319,4.571 2.88,0 4.535,-2.052 4.535,-4.392 v -10.474 z" id="path850" />
        <path fill="#009eb9" d="m 425.029,473 v -4.571 l 2.844,-0.36 v -14.902 l -2.844,-0.359 v -4.571 h 10.295 c 7.091,0 10.654,1.728 10.654,6.659 0,4.211 -2.664,5.003 -3.636,5.291 v 0.288 c 1.764,0.216 5.399,1.188 5.399,5.759 0,4.248 -2.483,6.768 -10.043,6.768 h -12.669 z m 12.059,-14.722 c 1.655,0 2.628,-0.973 2.628,-2.448 0,-1.764 -1.404,-2.483 -2.988,-2.483 h -2.663 v 4.932 h 3.023 z m -3.024,4.643 v 4.968 h 3.923 c 2.52,0 3.492,-0.684 3.492,-2.447 0,-1.584 -1.225,-2.521 -2.988,-2.521 z" id="path852" />
        <path fill="#009eb9" d="m 472.727,468.068 2.52,0.36 V 473 h -11.159 v -4.571 l 2.7,-0.36 -0.9,-2.375 H 457.5 l -0.899,2.375 2.699,0.36 V 473 h -10.979 v -4.571 l 2.52,-0.36 5.651,-14.902 -3.168,-0.18 v -4.751 h 11.879 z m -10.152,-11.194 c -0.252,-0.647 -0.792,-2.195 -0.792,-2.195 h -0.18 c 0,0 -0.54,1.548 -0.792,2.195 l -1.548,4.104 h 4.859 z" id="path854" />
        <path fill="#009eb9" d="m 476.581,473 v -4.571 l 2.844,-0.36 v -14.902 l -2.844,-0.359 v -4.571 h 12.131 c 6.119,0 12.13,3.239 12.13,12.202 0,9.827 -5.939,12.563 -11.555,12.563 h -12.706 z m 11.231,-5.111 c 4.212,0 6.768,-1.62 6.768,-7.451 0,-4.968 -2.664,-7.091 -7.235,-7.091 h -1.728 v 14.542 z" id="path856" />
        <path fill="#009eb9" d="m 524.422,464.325 c 0,3.707 -2.052,8.927 -10.402,8.927 -6.804,0 -11.051,-3.924 -11.051,-12.67 0,-8.676 4.283,-12.563 11.051,-12.563 8.351,0 10.402,4.355 10.402,7.486 0,1.116 -0.252,1.872 -0.252,1.872 l -5.867,0.54 c 0,0 0.144,-0.54 0.144,-1.296 0,-1.476 -0.936,-3.456 -4.104,-3.456 -2.844,0 -5.111,1.8 -5.111,7.523 0,5.651 2.484,7.379 5.327,7.379 2.736,0 3.744,-1.188 3.852,-3.203 l -3.491,-0.36 v -4.211 h 9.503 v 4.032 z" id="path858" />
        <path fill="#009eb9" d="m 526.908,473 v -4.571 l 2.808,-0.36 v -14.902 l -2.808,-0.359 v -4.571 h 20.409 l 0.145,8.675 h -4.607 l -0.54,-3.563 h -6.407 v 4.787 h 5.363 v 4.932 h -5.363 v 4.823 h 6.335 l 0.54,-3.563 h 4.607 L 547.138,473 Z" id="path860" />
        <path fill="#009eb9" d="m 557.039,473 v -4.571 l 2.844,-0.36 v -14.866 l -2.844,-0.396 v -4.571 h 11.879 v 4.571 l -2.844,0.396 v 14.866 l 2.844,0.36 V 473 Z" id="path862" />
        <path fill="#009eb9" d="m 586.521,464.253 v -0.684 l 5.976,1.224 v 0.612 c 0,3.275 -2.088,7.847 -10.583,7.847 -6.695,0 -10.87,-3.924 -10.87,-12.67 0,-8.676 4.283,-12.563 11.051,-12.563 8.351,0 10.402,4.787 10.402,8.207 0,1.115 -0.252,1.871 -0.252,1.871 l -5.867,0.72 c 0,0 0.144,-0.611 0.144,-1.476 0,-1.764 -0.936,-4.176 -4.104,-4.176 -2.844,0 -5.111,1.8 -5.111,7.523 0,5.651 2.412,7.379 5.147,7.379 3.096,10e-4 4.067,-1.438 4.067,-3.814 z" id="path864" />
        <path fill="#009eb9" d="m 594.804,473 v -4.571 l 2.844,-0.36 v -14.866 l -2.844,-0.396 v -4.571 h 11.879 v 4.571 l -2.844,0.396 v 14.866 l 2.844,0.36 V 473 Z" id="path866" />
      </g>
    </g>
  </g>
  <g style="display:inline" id="layer14">
    <g transform="translate(0.45366,18.13203)" id="picto_titre_badge" style="display:inline">
      <path fill="#009eb9" d="m 364.309,241.846 c 6.84,6.565 15.277,11.79 25.084,15.524 9.804,3.741 21.309,5.637 34.201,5.637 12.717,0 24.18,-1.896 34.066,-5.637 9.893,-3.734 18.375,-8.957 25.211,-15.524 6.844,-6.574 12.202,-14.362 15.922,-23.143 1.627,-3.847 2.979,-7.928 4.021,-12.148 H 452.72 c -1.32,2.271 -2.652,4.157 -4.063,5.749 -5.457,6.156 -13.89,9.28 -25.063,9.28 -13.572,0 -17.24,-0.455 -25.188,-9.275 -1.44,-1.586 -2.757,-3.425 -4.12,-5.754 h -49.921 c 1.038,4.203 2.392,8.285 4.034,12.146 3.718,8.793 9.072,16.578 15.91,23.145 z" id="path871" />
      <path fill="#009eb9" d="m 505.199,352.138 c -0.523,-9.941 -2.68,-19.448 -6.408,-28.25 -3.717,-8.765 -9.07,-16.496 -15.914,-22.978 -6.832,-6.472 -15.322,-11.697 -25.223,-15.526 -9.898,-3.822 -21.357,-5.762 -34.063,-5.762 -12.875,0 -24.381,1.939 -34.193,5.76 -9.814,3.833 -18.258,9.059 -25.094,15.528 -6.838,6.47 -12.189,14.203 -15.906,22.978 -3.73,8.789 -5.889,18.294 -6.412,28.256 -0.363,7.873 -0.525,33.046 -0.525,41.286 0,0.611 0.008,1.196 0.018,1.784 l 0.004,0.186 h 46.762 l -0.005,-0.352 c -0.011,-0.713 -0.024,-1.425 -0.024,-2.158 0,-3.904 0.047,-25.099 0.141,-29.026 0.096,-4.069 0.311,-7.519 0.658,-10.538 0.357,-4.543 1.316,-8.835 2.848,-12.722 1.539,-3.897 3.748,-7.335 6.568,-10.221 2.822,-2.893 6.363,-5.202 10.517,-6.866 4.151,-1.662 9.077,-2.505 14.646,-2.505 5.569,0 10.498,0.843 14.649,2.505 4.144,1.662 7.685,3.972 10.522,6.864 2.813,2.893 5.02,6.329 6.56,10.221 1.526,3.881 2.483,8.173 2.847,12.761 0.18,3.104 0.355,6.585 0.537,10.478 0.17,3.942 0.254,25.144 0.254,29.05 0,0.643 -0.018,1.27 -0.035,1.894 -0.006,0.207 -0.012,0.409 -0.018,0.616 h 46.805 l 0.002,-0.237 c 0.01,-0.568 0.018,-1.138 0.018,-1.732 -0.003,-8.86 -0.182,-33.589 -0.536,-41.294 z" id="path873" />
    </g>
  </g>
</svg>
