<?xml version="1.0" encoding="UTF-8" standalone="no"?>
<svg xmlns:dc="http://purl.org/dc/elements/1.1/"
  xmlns:cc="http://creativecommons.org/ns#"
  xmlns:rdf="http://www.w3.org/1999/02/22-rdf-syntax-ns#"
  xmlns:svg="http://www.w3.org/2000/svg"
  xmlns="http://www.w3.org/2000/svg" id="svg2303" xml:space="preserve" enable-background="new 0 0 850.394 841.89" viewBox="0 0 850.39371 850.39371" height="100%" width="100%" y="0px" x="0px" version="1.1">
  <metadata id="metadata2309">
    <rdf:RDF>
      <cc:Work rdf:about="">
        <dc:format>image/svg+xml</dc:format>
        <dc:type rdf:resource="http://purl.org/dc/dcmitype/StillImage" />
        <dc:title></dc:title>
      </cc:Work>
    </rdf:RDF>
  </metadata>
  <defs id="defs2307">
    <linearGradient id="SVGID_1_" gradientUnits="userSpaceOnUse" x1="257.7666" y1="116.8174" x2="420.56351" y2="116.8174">
      <stop offset="0" style="stop-color:#FFFFFF" id="stop2215" />
      <stop offset="0.4515" style="stop-color:#8D7D9F" id="stop2217" />
      <stop offset="1" style="stop-color:#473467" id="stop2219" />
    </linearGradient>
    <linearGradient id="SVGID_2_" gradientUnits="userSpaceOnUse" x1="472.0127" y1="116.8174" x2="634.80957" y2="116.8174" gradientTransform="matrix(-1,0,0,1,1066.5762,0)">
      <stop offset="0" style="stop-color:#FFFFFF" id="stop2224" />
      <stop offset="0.4515" style="stop-color:#8D7D9F" id="stop2226" />
      <stop offset="1" style="stop-color:#473467" id="stop2228" />
    </linearGradient>
  </defs>
  <g id="layer1">
      <path transform="translate(2.4373572,17.850173)" id="path126-8" d="m 423.727,682.844 c -3.578,-2.654 -7.801,-5.086 -11.15,-8.398 -13.408,-13.252 -29.236,-22.529 -46.699,-29.186 -18.42,-7.023 -36.83,-14.072 -55.381,-20.738 -15.076,-5.418 -30.576,-9.717 -45.467,-15.58 -11.408,-4.492 -22.871,-9.568 -33.064,-16.275 -28.578,-18.803 -44.348,-45.673 -46.42,-80.051 -0.592,-9.837 -0.324,-19.73 -0.328,-29.598 -0.021,-69.081 -0.01,-138.162 -0.014,-207.243 -0.002,-9.869 -0.061,-19.738 -0.045,-29.606 0.055,-34.956 -4.541,-68.869 -21.598,-100.177 -3.297,-6.049 -2.027,-12.834 2.666,-16.774 14.16,-11.889 28.412,-23.672 42.855,-35.214 4.063,-3.246 9.256,-3.568 13.971,-1.258 38.408,18.816 79.773,24.293 121.709,28.342 57.98,5.598 115.824,4.556 173.607,-1.464 35.643,-3.713 70.9,-9.78 103.48,-25.971 4.764,-2.368 10.232,-3.72 14.018,-0.69 16.318,13.054 32.131,26.746 47.891,40.477 1.494,1.302 1.561,4.466 1.855,6.819 0.135,1.08 -0.65,2.364 -1.236,3.437 -18.91,34.641 -23.082,72.457 -23.871,110.982 -0.201,9.865 -0.059,19.736 -0.061,29.605 -0.004,66.614 0,133.229 -0.012,199.842 0,8.635 -0.137,17.271 -0.092,25.905 0.215,39.816 -19.646,67.666 -52.666,87.244 -8.418,4.992 -17.738,8.625 -26.945,12.074 -13.85,5.188 -27.965,9.668 -41.969,14.439 -10.5,3.578 -21.084,6.932 -31.492,10.758 -42.277,15.535 -49.859,19.963 -83.542,48.299 z" stroke-miterlimit="10" stroke-width="6" stroke="#009eb9" fill="none" style="fill:#ffffff;stroke:none" />
  </g>
  <g style="display:inline" id="layer26">
    <g transform="translate(2.437353,17.85017)" id="texte_posture">
      <g id="g22">
        <path fill="#473467" d="m 312.994,723.271 -10.928,15.493 c -1.706,2.42 -3.738,3.809 -6.097,4.168 -2.359,0.36 -4.77,-0.328 -7.231,-2.064 -3.117,-2.199 -4.882,-5.271 -5.296,-9.218 l 5.424,-1.999 c 0.436,2.852 1.438,4.832 3.007,5.938 1.635,1.152 3.112,0.792 4.435,-1.082 l 7.516,-10.656 -7.845,-5.533 3.319,-4.707 z" id="path2" />
        <path fill="#473467" d="m 334.422,742.088 -12.954,-7.156 -2.688,4.867 11.694,6.459 -2.708,4.902 -11.694,-6.46 -2.728,4.937 13.341,7.369 -2.708,4.902 -19.572,-10.813 13.539,-24.509 19.187,10.599 z" id="path4" />
        <path fill="#473467" d="m 362.447,746.841 c 3.97,1.328 7.129,3.482 9.479,6.462 l -4.306,4.422 c -1.12,-1.273 -2.39,-2.438 -3.81,-3.488 -1.42,-1.052 -2.674,-1.76 -3.761,-2.124 -1.947,-0.651 -3.137,-0.333 -3.568,0.958 -0.279,0.834 -0.023,1.665 0.77,2.492 0.791,0.828 1.814,1.655 3.07,2.482 1.255,0.828 2.485,1.732 3.69,2.711 1.204,0.98 2.093,2.213 2.664,3.697 0.572,1.484 0.562,3.113 -0.03,4.883 -0.855,2.555 -2.521,4.211 -4.996,4.971 -2.477,0.762 -5.257,0.625 -8.342,-0.408 -2.2,-0.736 -4.248,-1.843 -6.144,-3.32 -1.896,-1.479 -3.42,-3.141 -4.573,-4.99 l 4.356,-4.32 c 0.951,1.611 2.212,3.096 3.783,4.451 1.571,1.355 3.064,2.27 4.48,2.743 1.088,0.364 2,0.452 2.738,0.263 0.738,-0.188 1.234,-0.662 1.488,-1.422 0.245,-0.732 0.103,-1.463 -0.428,-2.188 -0.53,-0.727 -1.273,-1.383 -2.229,-1.971 -0.957,-0.586 -1.975,-1.285 -3.053,-2.097 -1.078,-0.81 -2.056,-1.63 -2.932,-2.457 -0.877,-0.827 -1.486,-1.882 -1.83,-3.165 -0.345,-1.281 -0.271,-2.656 0.22,-4.123 0.813,-2.428 2.429,-4.045 4.851,-4.852 2.423,-0.806 5.227,-0.677 8.413,0.39 z" id="path6" />
        <path fill="#473467" d="m 390.14,753.855 c 4.284,0.735 7.616,2.681 9.997,5.835 2.381,3.155 3.229,6.729 2.543,10.725 -0.689,4.021 -2.693,7.142 -6.009,9.358 -3.316,2.219 -7.104,2.961 -11.361,2.23 -4.257,-0.731 -7.574,-2.686 -9.951,-5.867 -2.376,-3.181 -3.217,-6.795 -2.522,-10.842 0.69,-4.021 2.683,-7.115 5.977,-9.283 3.294,-2.168 7.068,-2.886 11.326,-2.156 z m -0.929,5.889 c -2.155,-0.371 -4.13,0.096 -5.922,1.398 -1.793,1.303 -2.888,3.109 -3.284,5.422 -0.397,2.313 0.037,4.396 1.302,6.25 1.265,1.855 2.961,2.965 5.09,3.33 2.129,0.365 4.072,-0.12 5.83,-1.455 1.758,-1.336 2.835,-3.16 3.232,-5.473 0.396,-2.313 -0.014,-4.379 -1.229,-6.197 -1.218,-1.818 -2.89,-2.91 -5.019,-3.275 z" id="path8" />
        <path fill="#473467" d="m 434.012,756.521 0.343,16.236 c 0.079,3.706 -1.006,6.67 -3.253,8.891 -2.247,2.222 -5.33,3.374 -9.249,3.456 -3.946,0.084 -7.108,-0.936 -9.486,-3.061 -2.379,-2.123 -3.607,-5.037 -3.686,-8.744 l -0.343,-16.236 7.118,-0.15 0.343,16.236 c 0.04,1.867 0.611,3.342 1.714,4.426 1.104,1.083 2.521,1.606 4.254,1.57 1.706,-0.037 3.062,-0.611 4.064,-1.727 1.002,-1.116 1.485,-2.618 1.445,-4.512 l -0.343,-16.236 z" id="path10" />
        <path fill="#473467" d="m 461.8,758.655 -8.348,1.241 3.275,22.037 -7.043,1.047 -3.275,-22.037 -8.27,1.229 -0.847,-5.697 23.66,-3.518 z" id="path12" />
        <path fill="#473467" d="m 478.56,777.154 -6.897,1.765 -6.94,-27.126 6.898,-1.766 z" id="path14" />
        <path fill="#473467" d="m 500.412,746.045 -13.87,5.162 1.939,5.211 12.521,-4.66 1.953,5.248 -12.521,4.66 1.968,5.286 14.282,-5.316 1.953,5.248 -20.955,7.8 -9.768,-26.24 20.543,-7.646 z" id="path16" />
        <path fill="#473467" d="m 539.615,750.822 -5.516,3.003 -19.555,-8.985 8.241,15.143 -5.867,3.193 -13.386,-24.593 5.516,-3.003 19.609,9.002 -8.261,-15.178 5.832,-3.175 z" id="path18" />
        <path fill="#473467" d="m 539.944,716.148 c 3.392,-2.454 6.983,-3.768 10.773,-3.943 l 1.088,6.076 c -1.688,0.168 -3.374,0.523 -5.056,1.064 -1.682,0.543 -2.987,1.148 -3.916,1.82 -1.664,1.204 -2.097,2.356 -1.3,3.459 0.516,0.713 1.34,0.988 2.474,0.826 1.134,-0.161 2.402,-0.511 3.807,-1.05 1.404,-0.538 2.855,-1.012 4.354,-1.421 1.498,-0.408 3.017,-0.412 4.557,-0.014 1.54,0.4 2.857,1.357 3.951,2.869 1.579,2.183 1.956,4.502 1.132,6.957 -0.824,2.455 -2.554,4.637 -5.189,6.543 -1.88,1.359 -3.974,2.38 -6.278,3.06 -2.306,0.681 -4.545,0.951 -6.719,0.812 l -0.976,-6.057 c 1.864,0.165 3.805,0.004 5.821,-0.484 2.017,-0.487 3.63,-1.169 4.84,-2.045 0.929,-0.671 1.532,-1.361 1.809,-2.072 0.276,-0.71 0.18,-1.389 -0.289,-2.037 -0.453,-0.627 -1.13,-0.936 -2.028,-0.928 -0.899,0.009 -1.865,0.23 -2.9,0.666 -1.034,0.436 -2.194,0.855 -3.481,1.26 -1.287,0.405 -2.522,0.723 -3.705,0.952 -1.184,0.231 -2.396,0.112 -3.639,-0.354 -1.243,-0.467 -2.317,-1.327 -3.224,-2.58 -1.501,-2.074 -1.873,-4.33 -1.119,-6.769 0.754,-2.439 2.491,-4.641 5.213,-6.61 z" id="path20" />
      </g>
    </g>
  </g>
  <g style="display:inline" id="layer25">
    <g style="display:inline" id="filet_separation_theme" transform="translate(2.4373563,17.85017)">
      <line id="line25" y2="594.54303" x2="426.16" y1="556.76099" x1="426.16" stroke-miterlimit="10" stroke="#1b3761" fill="none" />
    </g>
  </g>
  <g style="display:inline" id="layer24">
    <g style="display:inline" id="picto_theme" transform="translate(2.43735,17.85017)">
      <g id="g32">
        <path id="path28" d="m 485.686,553.158 c 2.246,2.157 5.02,3.875 8.242,5.102 3.221,1.229 7.002,1.853 11.238,1.853 4.178,0 7.945,-0.623 11.193,-1.853 3.25,-1.227 6.039,-2.943 8.285,-5.102 2.25,-2.159 4.01,-4.719 5.232,-7.604 0.533,-1.265 0.977,-2.605 1.32,-3.992 h -16.461 c -0.434,0.747 -0.871,1.367 -1.334,1.889 -1.795,2.023 -4.564,3.05 -8.236,3.05 -4.459,0 -5.666,-0.149 -8.277,-3.048 -0.473,-0.521 -0.906,-1.125 -1.354,-1.891 H 479.13 c 0.342,1.382 0.787,2.724 1.326,3.991 1.224,2.889 2.982,5.448 5.23,7.605 z" stroke-miterlimit="10" stroke-width="2" stroke="#000000" fill="none" />
        <path id="path30" d="m 531.98,589.398 c -0.172,-3.266 -0.881,-6.391 -2.105,-9.281 -1.221,-2.881 -2.98,-5.422 -5.229,-7.551 -2.246,-2.127 -5.035,-3.844 -8.289,-5.102 -3.252,-1.256 -7.018,-1.895 -11.191,-1.895 -4.23,0 -8.012,0.639 -11.236,1.893 -3.225,1.26 -6,2.977 -8.246,5.104 -2.246,2.127 -4.006,4.668 -5.227,7.551 -1.225,2.889 -1.934,6.01 -2.107,9.283 -0.119,2.588 -0.172,10.859 -0.172,13.566 0,0.203 0.002,0.393 0.006,0.588 l 0.002,0.061 h 15.365 l -0.002,-0.117 c -0.004,-0.232 -0.008,-0.467 -0.008,-0.709 0,-1.283 0.014,-8.246 0.045,-9.537 0.031,-1.336 0.104,-2.471 0.217,-3.463 0.117,-1.492 0.434,-2.904 0.936,-4.18 0.506,-1.281 1.232,-2.41 2.16,-3.359 0.926,-0.949 2.09,-1.709 3.453,-2.256 1.365,-0.545 2.984,-0.822 4.814,-0.822 1.828,0 3.449,0.277 4.813,0.822 1.361,0.547 2.525,1.307 3.457,2.256 0.926,0.951 1.65,2.08 2.156,3.357 0.502,1.277 0.816,2.688 0.936,4.195 0.059,1.02 0.117,2.162 0.176,3.441 0.057,1.295 0.084,8.262 0.084,9.545 0,0.213 -0.006,0.418 -0.012,0.625 -0.002,0.066 -0.004,0.133 -0.006,0.201 h 15.379 l 0.002,-0.078 c 0.004,-0.188 0.006,-0.373 0.006,-0.57 -0.001,-2.909 -0.061,-11.034 -0.177,-13.568 z" stroke-miterlimit="10" stroke-width="2" stroke="#000000" fill="none" />
      </g>
    </g>
  </g>
  <g style="display:inline" id="layer23">
    <g style="display:inline" id="texte_picto_theme" transform="translate(2.43735,17.85017)">
      <g id="g55">
        <path id="path35" d="m 452.32,520.631 h -3.799 v 10.026 h -3.203 v -10.026 h -3.762 v -2.592 h 10.764 z" />
        <path id="path37" d="m 463.553,520.577 h -6.66 v 2.502 h 6.012 v 2.521 h -6.012 v 2.537 h 6.857 v 2.521 h -10.063 v -12.601 h 9.865 v 2.52 z" />
        <path id="path39" d="m 473.128,524.069 4.519,6.588 h -3.834 l -2.719,-4.015 -2.718,4.015 h -3.726 l 4.5,-6.444 -4.213,-6.156 h 3.727 l 2.43,3.672 2.43,-3.672 h 3.763 z" />
        <path id="path41" d="m 488.662,520.631 h -3.799 v 10.026 h -3.203 v -10.026 h -3.762 v -2.592 h 10.764 z" />
        <path id="path43" d="m 499.894,520.577 h -6.66 v 2.502 h 6.013 v 2.521 h -6.013 v 2.537 h 6.858 v 2.521 h -10.063 v -12.601 h 9.864 v 2.52 z" />
        <path id="path45" d="m 515.968,520.631 h -3.798 v 10.026 h -3.204 v -10.026 h -3.763 v -2.592 h 10.765 z" />
        <path id="path47" d="m 528.963,530.657 h -3.203 v -4.896 h -5.221 v 4.896 h -3.204 v -12.601 h 3.204 v 5.185 h 5.221 v -5.185 h 3.203 z" />
        <path id="path49" d="m 541.348,520.577 h -6.66 v 2.502 h 6.012 v 2.521 h -6.012 v 2.537 h 6.857 v 2.521 h -10.063 v -12.601 h 9.865 v 2.52 z m -3.313,-3.618 h -2.376 l -2.34,-2.033 2.808,-0.99 z" />
        <path id="path51" d="m 557.457,530.657 h -2.826 l -0.018,-8.19 -3.023,6.931 h -2.088 l -3.024,-6.931 v 8.19 h -2.862 v -12.618 h 3.51 l 3.42,7.506 3.42,-7.506 h 3.492 v 12.618 z" />
        <path id="path53" d="m 569.859,520.577 h -6.66 v 2.502 h 6.012 v 2.521 h -6.012 v 2.537 h 6.857 v 2.521 h -10.063 v -12.601 h 9.865 v 2.52 z" />
      </g>
    </g>
  </g>
  <g style="display:inline" id="layer22">
    <g style="display:inline" id="picto_categorie" transform="translate(2.4373561,17.850171)">
      <g id="g68">
        <circle id="circle58" r="8.75" cy="553.38202" cx="359.30801" stroke-miterlimit="10" stroke-width="2" stroke="#000000" fill="none" />
        <circle id="circle60" r="8.75" cy="572.88202" cx="322.43301" stroke-miterlimit="10" stroke-width="2" stroke="#000000" fill="none" />
        <circle id="circle62" r="8.75" cy="592.88202" cx="359.30801" stroke-miterlimit="10" stroke-width="2" stroke="#000000" fill="none" />
        <line id="line64" y2="568.13202" x2="329.30801" y1="557.63202" x1="351.43301" stroke-miterlimit="10" stroke-width="2" stroke="#000000" fill="none" />
        <line id="line66" y2="588.38202" x2="351.80801" y1="577.75702" x1="330.18301" stroke-miterlimit="10" stroke-width="2" stroke="#000000" fill="none" />
      </g>
    </g>
  </g>
  <g style="display:inline" id="layer21">
    <g style="display:inline" id="texte_picto_categorie" transform="translate(2.43735,17.85017)">
      <g id="g91">
        <path id="path71" d="m 283.177,517.949 c 0.936,0 1.857,0.191 2.763,0.576 0.906,0.384 1.677,0.9 2.313,1.548 l -1.854,2.196 c -0.408,-0.504 -0.897,-0.903 -1.467,-1.197 -0.57,-0.294 -1.137,-0.441 -1.701,-0.441 -0.996,0 -1.83,0.352 -2.502,1.053 -0.672,0.703 -1.008,1.57 -1.008,2.602 0,1.057 0.336,1.938 1.008,2.646 0.672,0.708 1.506,1.062 2.502,1.062 0.528,0 1.077,-0.132 1.647,-0.396 0.569,-0.264 1.077,-0.624 1.521,-1.08 l 1.872,1.979 c -0.684,0.696 -1.491,1.255 -2.421,1.675 -0.93,0.42 -1.857,0.629 -2.781,0.629 -1.896,0 -3.474,-0.617 -4.734,-1.854 -1.26,-1.236 -1.89,-2.777 -1.89,-4.626 0,-1.812 0.642,-3.327 1.926,-4.545 1.284,-1.218 2.886,-1.827 4.806,-1.827 z" />
        <path id="path73" d="m 295.488,517.949 c 1.956,0 3.582,0.609 4.878,1.827 1.296,1.218 1.944,2.739 1.944,4.563 0,1.836 -0.651,3.371 -1.953,4.607 -1.302,1.236 -2.925,1.854 -4.869,1.854 -1.944,0 -3.564,-0.614 -4.86,-1.845 -1.296,-1.229 -1.944,-2.769 -1.944,-4.616 0,-1.836 0.648,-3.36 1.944,-4.572 1.296,-1.212 2.916,-1.818 4.86,-1.818 z m 0.036,2.682 c -0.984,0 -1.824,0.357 -2.52,1.071 -0.696,0.714 -1.044,1.599 -1.044,2.655 0,1.056 0.351,1.947 1.053,2.673 0.702,0.726 1.539,1.089 2.511,1.089 0.972,0 1.797,-0.363 2.475,-1.089 0.678,-0.726 1.017,-1.617 1.017,-2.673 0,-1.057 -0.339,-1.941 -1.017,-2.655 -0.678,-0.714 -1.502,-1.071 -2.475,-1.071 z" />
        <path id="path75" d="m 317.844,530.657 h -2.826 l -0.018,-8.19 -3.024,6.931 h -2.088 l -3.024,-6.931 v 8.19 h -2.862 v -12.618 h 3.51 l 3.42,7.506 3.42,-7.506 h 3.492 z" />
        <path id="path77" d="m 334.224,530.657 h -2.826 l -0.018,-8.19 -3.024,6.931 h -2.088 l -3.024,-6.931 v 8.19 h -2.862 v -12.618 h 3.51 l 3.42,7.506 3.42,-7.506 h 3.492 z" />
        <path id="path79" d="m 348.102,518.057 v 7.309 c 0,1.668 -0.516,2.991 -1.548,3.969 -1.032,0.979 -2.43,1.467 -4.194,1.467 -1.776,0 -3.189,-0.488 -4.239,-1.467 -1.05,-0.978 -1.575,-2.301 -1.575,-3.969 v -7.309 h 3.204 v 7.309 c 0,0.84 0.243,1.51 0.729,2.007 0.486,0.498 1.119,0.747 1.899,0.747 0.768,0 1.383,-0.246 1.845,-0.738 0.461,-0.492 0.693,-1.164 0.693,-2.016 v -7.309 z" />
        <path id="path81" d="m 362.034,530.657 h -2.826 l -5.796,-7.758 v 7.758 h -3.006 v -12.601 h 2.826 l 5.814,7.776 v -7.776 h 2.988 z" />
        <path id="path83" d="m 372.924,528.336 h -5.508 l -0.918,2.321 h -3.294 l 5.436,-12.601 h 3.294 l 5.31,12.601 h -3.42 z m -0.936,-2.431 -1.8,-4.662 -1.836,4.662 z" />
        <path id="path85" d="m 389.394,518.057 v 7.309 c 0,1.668 -0.516,2.991 -1.548,3.969 -1.032,0.979 -2.43,1.467 -4.194,1.467 -1.776,0 -3.189,-0.488 -4.239,-1.467 -1.05,-0.978 -1.575,-2.301 -1.575,-3.969 v -7.309 h 3.204 v 7.309 c 0,0.84 0.243,1.51 0.729,2.007 0.486,0.498 1.119,0.747 1.899,0.747 0.768,0 1.383,-0.246 1.845,-0.738 0.461,-0.492 0.693,-1.164 0.693,-2.016 v -7.309 z" />
        <path id="path87" d="m 401.328,520.631 h -3.798 v 10.026 h -3.204 v -10.026 h -3.762 v -2.592 h 10.764 z" />
        <path id="path89" d="m 412.56,520.577 h -6.66 v 2.502 h 6.012 V 525.6 H 405.9 v 2.537 h 6.858 v 2.521 h -10.062 v -12.601 h 9.864 z m -1.728,-5.651 -2.34,2.033 h -2.376 l 1.908,-3.023 z" />
      </g>
    </g>
  </g>
  <g style="display:inline" id="layer20">
    <g style="display:inline" id="fond_categorie" transform="translate(2.43735,17.85017)">
      <path id="path94" d="m 215.604,256.323 c 0.012,4.137 0.023,8.275 0.023,12.413 v 62.087 c 0,45.203 -0.002,90.406 0.014,135.606 0.002,2.327 -0.014,4.656 -0.029,6.986 -0.043,6.505 -0.07,12.659 0.256,18.538 h 414.898 c -0.023,-4.774 0.01,-9.537 0.043,-14.148 0.023,-3.438 0.049,-6.876 0.049,-10.314 0.008,-39.64 0.008,-79.28 0.01,-118.92 l 0.002,-71.72 c 0,-2.727 -0.012,-5.454 -0.023,-8.182 -0.029,-6.71 -0.059,-13.647 0.09,-20.644 0.689,-32.072 3.781,-68.949 20.131,-104.594 -7.902,-6.507 -15.764,-12.891 -23.662,-19.103 -35.893,15.32 -73.264,20.707 -105.504,23.911 -33.76,3.354 -67.111,5.056 -99.127,5.056 -27.184,0 -54.258,-1.224 -80.471,-3.638 -39.822,-3.668 -81.889,-8.713 -122.4,-25.575 -7.4,5.713 -15.158,11.794 -23.623,18.516 13.199,27.601 19.367,59.097 19.303,97.941 -0.01,5.263 0.004,10.524 0.02,15.784 z" fill="#b7d5e2" />
    </g>
  </g>
  <g style="display:inline" id="layer19">
    <g style="display:inline" id="picto_posture" transform="translate(2.4373534,17.85017)">
      <g id="g107">
        <g id="g105">
          <path id="path97" d="m 455.953,68.204 c 0,15.015 -0.006,30.029 0.012,45.044 0,1.178 -0.344,2.127 -1.24,2.903 -1.297,1.123 -2.57,2.273 -3.842,3.425 -0.623,0.563 -1.314,0.916 -2.174,0.938 -0.953,0.024 -1.904,0.133 -2.855,0.133 -16.35,-0.004 -32.697,-0.012 -49.047,-0.045 -1.281,-0.003 -2.57,-0.134 -3.84,-0.323 -1.271,-0.189 -1.51,-0.527 -1.563,-1.795 -0.033,-0.81 -0.031,-1.621 -0.031,-2.431 0.016,-26.264 0.029,-52.527 0.057,-78.79 0.004,-2.955 0.111,-5.909 0.143,-8.864 0.012,-1.302 0.363,-2.375 1.43,-3.246 1.029,-0.841 1.953,-1.817 2.869,-2.787 0.666,-0.705 1.441,-1.07 2.389,-1.108 1.047,-0.042 2.096,-0.1 3.143,-0.102 17.209,-0.03 34.414,-0.056 51.623,-0.075 2.75,-0.003 2.801,0.026 2.803,2.796 0.012,14.775 0.006,29.552 0.006,44.328 0.037,-0.001 0.076,-0.001 0.117,-0.001 z m -7.252,50.395 c 0,-30.331 0,-60.421 0,-90.662 -18.586,0 -37.053,0 -55.436,0 0,30.233 0,60.416 0,90.662 18.569,0 36.94,0 55.436,0 z" fill="#473467" />
          <path id="path99" d="m 422.666,57.738 c 1.691,0 3.357,-0.011 5.023,0.003 1.648,0.014 1.99,0.359 1.992,2.035 0.02,8.292 0.033,16.584 0.039,24.877 0.002,1.92 -0.41,2.356 -2.357,2.355 -4.051,-0.002 -8.102,-0.035 -12.15,-0.081 -1.488,-0.017 -1.641,-0.137 -1.855,-1.575 -0.162,-1.079 -0.262,-2.177 -0.279,-3.268 -0.047,-3.192 -0.039,-6.385 -0.053,-9.578 0,-0.048 -0.016,-0.101 0,-0.143 0.604,-1.652 -0.357,-2.882 -1.084,-4.203 -1.725,-3.127 -3.385,-6.289 -5.1,-9.421 -0.412,-0.753 -0.453,-1.395 0.082,-2.107 0.887,-1.181 1.709,-2.409 2.572,-3.606 0.447,-0.621 1.066,-0.891 1.84,-0.916 2.191,-0.071 4.381,-0.164 6.568,-0.282 1.092,-0.059 1.758,0.401 2.248,1.381 0.766,1.529 1.655,2.996 2.514,4.529 z m -1.256,11.71 c -2.271,-4.022 -4.459,-7.896 -6.59,-11.669 -2.236,0 -4.313,0 -6.584,0 0.518,0.919 0.967,1.684 1.383,2.467 1.516,2.86 3.027,5.724 4.523,8.594 0.303,0.579 0.594,1.04 1.383,0.976 1.887,-0.155 3.78,-0.242 5.885,-0.368 z m 2.27,-10.087 c 0.191,0.996 0.549,1.59 1.57,1.606 0.6,0.01 0.928,0.429 0.98,1.031 0.027,0.332 0.051,0.666 0.055,0.998 0.064,6.143 0.127,12.283 0.186,18.426 0.004,0.237 0.004,0.478 -0.025,0.713 -0.084,0.717 -0.455,1.104 -1.219,1.108 -2.523,0.015 -5.047,0.048 -7.57,0.077 -0.67,0.008 -1.156,-0.237 -1.539,-0.829 -0.4,-0.617 -0.926,-1.152 -1.43,-1.764 0,1.628 0,3.165 0,4.724 4.486,0 8.842,0 13.313,0 0,-8.74 0,-17.377 0,-26.091 -1.44,10e-4 -2.808,10e-4 -4.321,10e-4 z m 0.486,22.273 c -2.008,-3.38 -2.572,-6.934 -2.533,-10.458 -2.359,0 -4.537,0 -6.797,0 -0.527,3.648 0.238,6.903 1.959,9.961 0.146,0.259 0.609,0.469 0.932,0.476 2.037,0.042 4.078,0.021 6.439,0.021 z m -8.08,-25.012 c 2.055,3.582 4.047,7.055 6.121,10.669 0.516,-1.529 0.98,-2.901 1.387,-4.106 -1.746,-3.232 -3.408,-6.31 -5.152,-9.543 -0.85,1.074 -1.628,2.058 -2.356,2.98 z m 8.631,8.492 c -1.803,4.577 -2.123,9.147 0,13.725 0,-4.574 0,-9.15 0,-13.725 z" fill="#473467" />
          <path id="path101" d="m 416.777,40.218 c 0.027,-3.468 2.832,-6.205 6.336,-6.184 3.443,0.022 6.275,2.887 6.244,6.314 -0.029,3.379 -2.754,6.262 -6.057,6.143 -4.419,-0.159 -6.552,-2.97 -6.523,-6.273 z m 3.209,3.303 c 1.594,1.936 4.156,1.647 5.848,0.267 1.711,-1.396 2.131,-3.594 0.959,-5.544 -2.25,1.744 -4.486,3.478 -6.807,5.277 z m 5.727,-6.629 c -2.031,-1.443 -4.375,-1.237 -5.906,0.405 -1.396,1.498 -1.609,3.572 -0.457,5.059" fill="#473467" />
          <path id="path103" d="m 423.363,109.813 c -3.771,0.026 -6.535,-2.514 -6.584,-6.051 -0.047,-3.533 2.768,-6.407 6.277,-6.407 3.424,-0.001 6.293,2.86 6.301,6.281 0.008,3.405 -2.66,6.154 -5.994,6.177 z m 3.473,-8.269 c -2.33,1.814 -4.555,3.548 -6.785,5.286 1.508,1.692 3.598,1.851 5.52,0.497 1.884,-1.326 2.421,-3.54 1.265,-5.783 z m -1.137,-1.282 c -1.846,-1.463 -4.117,-1.343 -5.736,0.224 -1.535,1.487 -1.816,3.695 -0.621,5.22 2.115,-1.812 4.228,-3.621 6.357,-5.444 z" fill="#473467" />
        </g>
      </g>
    </g>
  </g>
  <g style="display:inline" id="layer18">
    <g style="display:inline" id="filet_1_categorie" transform="translate(2.4373484,17.850174)">
      <g id="g114">
        <path id="path110" d="m 476.07,76.822 c 2.322,-0.016 4.637,-0.055 6.93,-0.119 0.893,-0.025 1.807,-0.234 2.773,-0.456 1.131,-0.259 2.295,-0.529 3.512,-0.504 9.924,0.18 18.764,-3.28 28.471,-7.482 10.715,-4.641 20.693,-10.771 29.656,-18.221 7.449,-6.19 8.285,-5.78 15.035,0.561 l 0.211,0.199 c 6.084,5.715 12.303,11.49 18.316,17.077 2.799,2.601 5.6,5.202 8.396,7.806 2.492,2.32 4.986,4.635 7.482,6.95 3.805,3.528 7.611,7.058 11.4,10.604 l 5.697,4.119" stroke-miterlimit="10" stroke-width="2" stroke="#473467" fill="none" />
        <path id="path112" d="m 231.949,96.845 7.137,-6.024 c 4.51,-4.227 9.033,-8.44 13.563,-12.649 12.65,-11.76 22.352,-20.734 31.453,-29.099 4.971,-4.567 6.242,-4.608 11.336,-0.374 11.143,9.266 23.904,16.772 39.01,22.951 4.484,1.834 9.541,2.648 14.432,3.437 l 1.668,0.271 c 1.131,0.185 2.264,0.382 3.4,0.58 5.254,0.913 10.686,1.859 15.914,1.604" stroke-miterlimit="10" stroke-width="2" stroke="#473467" fill="none" />
      </g>
      <g id="g120">
        <g id="g118">
          <path id="path116" d="m 182.877,279.735 -5.143,13.598 c -2.574,8.693 -5.182,17.377 -7.789,26.061 -3.865,12.875 -7.861,26.188 -11.676,39.316 -2.346,8.068 -4.043,16.216 -5.262,22.413 -1.102,5.618 -2.061,11.372 -2.99,16.935 -0.668,4.012 -1.359,8.158 -2.102,12.229 -4.365,23.97 -8.199,47.47 -7.189,71.412 0.221,5.261 1.014,10.61 1.783,15.784 0.662,4.468 1.348,9.088 1.672,13.673 1.531,21.61 7.951,42.71 19.625,64.506 14.709,27.465 37.365,50.07 69.268,69.107 25.461,15.195 53.564,25.344 80.74,35.158 4.025,1.453 8.051,2.906 12.068,4.375 8.746,3.199 17.756,6.16 26.467,9.023 12.717,4.18 25.867,8.502 38.469,13.65 11.043,4.512 24.682,11.691 32.93,27.389 0.594,-0.518 1.141,-0.99 1.65,-1.432 1.451,-1.256 2.598,-2.248 3.686,-3.289 1.547,-1.479 3.072,-3.064 4.549,-4.598 3.039,-3.158 6.184,-6.426 9.756,-9.025 12.125,-8.82 26.174,-13.781 39.758,-18.576 3.523,-1.244 7.166,-2.531 10.711,-3.863 12.475,-4.684 24.969,-8.912 37.141,-12.564 23.561,-7.07 47.113,-16.396 70.006,-27.717 26.996,-13.352 48.439,-29.318 65.551,-48.813 17.137,-19.521 29.125,-42.95 35.629,-69.638 7.846,-32.187 8.664,-67.654 2.58,-111.619 -1.186,-8.562 -3.039,-17.193 -4.834,-25.541 -0.617,-2.881 -1.234,-5.76 -1.83,-8.642 -0.363,-1.771 -0.723,-3.544 -1.084,-5.317 -1.57,-7.743 -3.195,-15.75 -5.254,-23.479 -1.695,-6.364 -3.672,-12.774 -5.584,-18.975 -1.633,-5.295 -3.32,-10.771 -4.83,-16.207 -1.877,-6.755 -3.654,-13.657 -5.375,-20.334 -2.975,-11.548 -6.91,-22.842 -10.191,-33.328 l -3.447,-8.702" stroke-miterlimit="10" stroke-width="2" stroke="#473467" fill="none" />
        </g>
      </g>
    </g>
  </g>
  <g style="display:inline" id="layer17">
    <g style="display:inline" id="filet_2_categorie" transform="translate(2.4373527,17.850172)">
      <path id="path123" d="m 423.727,682.844 c -3.578,-2.654 -7.801,-5.086 -11.15,-8.398 -13.408,-13.252 -29.236,-22.529 -46.699,-29.186 -18.42,-7.021 -36.83,-14.072 -55.381,-20.738 -15.076,-5.418 -30.576,-9.717 -45.467,-15.58 -11.408,-4.492 -22.871,-9.568 -33.064,-16.275 -28.578,-18.803 -44.348,-45.673 -46.42,-80.051 -0.592,-9.837 -0.324,-19.73 -0.328,-29.599 -0.021,-69.081 -0.01,-138.162 -0.014,-207.243 -0.002,-9.868 -0.061,-19.737 -0.045,-29.605 0.055,-34.957 -4.541,-68.869 -21.598,-100.177 -3.297,-6.05 -2.027,-12.834 2.666,-16.774 14.16,-11.889 28.412,-23.672 42.855,-35.214 4.063,-3.245 9.256,-3.568 13.971,-1.259 38.408,18.816 79.773,24.293 121.709,28.342 57.98,5.599 115.824,4.557 173.607,-1.463 35.643,-3.713 70.9,-9.78 103.48,-25.971 4.764,-2.368 10.232,-3.72 14.018,-0.69 16.318,13.054 32.131,26.745 47.891,40.477 1.494,1.302 1.561,4.465 1.855,6.819 0.135,1.08 -0.65,2.363 -1.236,3.437 -18.91,34.64 -23.082,72.457 -23.871,110.981 -0.201,9.865 -0.059,19.737 -0.061,29.606 -0.004,66.614 0,133.228 -0.012,199.841 0,8.635 -0.137,17.271 -0.092,25.905 0.215,39.817 -19.646,67.667 -52.666,87.245 -8.418,4.992 -17.738,8.625 -26.945,12.074 -13.85,5.188 -27.965,9.668 -41.969,14.439 -10.5,3.58 -21.084,6.932 -31.492,10.758 -42.277,15.535 -49.859,19.963 -83.542,48.299 z" stroke-miterlimit="10" stroke-width="27" stroke="#009eb9" fill="none" opacity="0.2" />
    </g>
  </g>












  <g style="display:inline" id="layer16"  stroke="#009eb9">
    <g style="display:inline" id="filet_3_posture"   stroke="#009eb9" transform="translate(2.4373572,17.850173)">
      <path id="path126" d="m 423.727,682.844 c -3.578,-2.654 -7.801,-5.086 -11.15,-8.398 -13.408,-13.252 -29.236,-22.529 -46.699,-29.186 -18.42,-7.023 -36.83,-14.072 -55.381,-20.738 -15.076,-5.418 -30.576,-9.717 -45.467,-15.58 -11.408,-4.492 -22.871,-9.568 -33.064,-16.275 -28.578,-18.803 -44.348,-45.673 -46.42,-80.051 -0.592,-9.837 -0.324,-19.73 -0.328,-29.598 -0.021,-69.081 -0.01,-138.162 -0.014,-207.243 -0.002,-9.869 -0.061,-19.738 -0.045,-29.606 0.055,-34.956 -4.541,-68.869 -21.598,-100.177 -3.297,-6.049 -2.027,-12.834 2.666,-16.774 14.16,-11.889 28.412,-23.672 42.855,-35.214 4.063,-3.246 9.256,-3.568 13.971,-1.258 38.408,18.816 79.773,24.293 121.709,28.342 57.98,5.598 115.824,4.556 173.607,-1.464 35.643,-3.713 70.9,-9.78 103.48,-25.971 4.764,-2.368 10.232,-3.72 14.018,-0.69 16.318,13.054 32.131,26.746 47.891,40.477 1.494,1.302 1.561,4.466 1.855,6.819 0.135,1.08 -0.65,2.364 -1.236,3.437 -18.91,34.641 -23.082,72.457 -23.871,110.982 -0.201,9.865 -0.059,19.736 -0.061,29.605 -0.004,66.614 0,133.229 -0.012,199.842 0,8.635 -0.137,17.271 -0.092,25.905 0.215,39.816 -19.646,67.666 -52.666,87.244 -8.418,4.992 -17.738,8.625 -26.945,12.074 -13.85,5.188 -27.965,9.668 -41.969,14.439 -10.5,3.578 -21.084,6.932 -31.492,10.758 -42.277,15.535 -49.859,19.963 -83.542,48.299 z" stroke-miterlimit="10" stroke-width="6" stroke="currentColor" fill="none" />
    </g>
  </g>
  <g style="display:inline" id="layer15">
    <g style="display:inline" id="texte_titre_badge" transform="translate(2.43735,17.85017)">
      <g id="g164">
        <path id="path134" d="m 258.891,468.068 2.844,0.36 V 473 h -11.879 v -4.571 l 2.844,-0.36 v -14.722 h -3.636 l -0.539,3.563 h -4.607 l 0.18,-8.675 h 23.396 l 0.181,8.675 h -4.607 l -0.54,-3.563 h -3.636 v 14.721 z" fill="#009eb9" />
        <path id="path136" d="m 269.368,473 v -4.571 l 2.844,-0.36 v -14.866 l -2.844,-0.396 v -4.571 h 11.879 v 4.571 l -2.844,0.396 v 14.866 l 2.844,0.36 V 473 Z" fill="#009eb9" />
        <path id="path138" d="m 297.878,468.068 2.844,0.36 V 473 h -11.879 v -4.571 l 2.844,-0.36 v -14.722 h -3.636 l -0.539,3.563 h -4.607 l 0.18,-8.675 h 23.396 l 0.181,8.675 h -4.607 l -0.54,-3.563 h -3.636 v 14.721 z" fill="#009eb9" />
        <path id="path140" d="m 325.095,473 -4.536,-8.675 h -3.167 v 3.743 l 3.635,0.36 V 473 h -12.67 v -4.571 l 2.844,-0.36 v -14.866 l -2.844,-0.396 v -4.571 h 13.462 c 5.04,0 8.495,2.844 8.495,7.631 0,4.067 -1.691,5.688 -4.067,6.983 v 0.18 c 0,0 0.396,0.288 0.684,0.792 l 2.484,4.247 3.167,0.36 V 473 Z m -4.824,-13.498 c 2.628,0 3.78,-1.044 3.78,-3.275 0,-1.944 -1.404,-2.88 -3.78,-2.88 h -2.879 v 6.155 z" fill="#009eb9" />
        <path id="path142" d="m 334.024,473 v -4.571 l 2.808,-0.36 v -14.902 l -2.808,-0.359 v -4.571 h 20.409 l 0.145,8.675 h -4.607 l -0.54,-3.563 h -6.407 v 4.787 h 5.363 v 4.932 h -5.363 v 4.823 h 6.335 l 0.54,-3.563 h 4.607 L 354.254,473 Z" fill="#009eb9" />
        <path id="path144" d="m 364.155,473 v -4.571 l 2.844,-0.36 v -14.902 l -2.844,-0.359 v -4.571 h 12.131 c 6.119,0 12.13,3.239 12.13,12.202 0,9.827 -5.939,12.563 -11.555,12.563 h -12.706 z m 11.231,-5.111 c 4.212,0 6.768,-1.62 6.768,-7.451 0,-4.968 -2.664,-7.091 -7.235,-7.091 h -1.728 v 14.542 z" fill="#009eb9" />
        <path id="path146" d="m 407.641,453.202 -2.844,-0.396 v -4.571 h 11.519 v 4.571 l -2.843,0.396 v 10.691 c 0,6.263 -3.744,9.358 -10.367,9.358 -6.623,0 -10.511,-3.096 -10.511,-9.358 v -10.691 l -2.844,-0.396 v -4.571 h 11.879 v 4.571 l -2.844,0.396 v 10.295 c 0,1.944 0.792,4.571 4.319,4.571 2.88,0 4.535,-2.052 4.535,-4.392 v -10.474 z" fill="#009eb9" />
        <path id="path148" d="m 425.031,473 v -4.571 l 2.844,-0.36 v -14.902 l -2.844,-0.359 v -4.571 h 10.295 c 7.091,0 10.654,1.728 10.654,6.659 0,4.211 -2.664,5.003 -3.636,5.291 v 0.288 c 1.764,0.216 5.399,1.188 5.399,5.759 0,4.248 -2.483,6.768 -10.043,6.768 h -12.669 z m 12.059,-14.722 c 1.655,0 2.628,-0.973 2.628,-2.448 0,-1.764 -1.404,-2.483 -2.988,-2.483 h -2.663 v 4.932 h 3.023 z m -3.024,4.643 v 4.968 h 3.923 c 2.52,0 3.492,-0.684 3.492,-2.447 0,-1.584 -1.225,-2.521 -2.988,-2.521 z" fill="#009eb9" />
        <path id="path150" d="m 472.729,468.068 2.52,0.36 V 473 H 464.09 v -4.571 l 2.7,-0.36 -0.9,-2.375 h -8.387 l -0.899,2.375 2.699,0.36 V 473 h -10.979 v -4.571 l 2.52,-0.36 5.651,-14.902 -3.168,-0.18 v -4.751 h 11.879 z m -10.152,-11.194 c -0.252,-0.647 -0.792,-2.195 -0.792,-2.195 h -0.18 c 0,0 -0.54,1.548 -0.792,2.195 l -1.548,4.104 h 4.859 z" fill="#009eb9" />
        <path id="path152" d="m 476.583,473 v -4.571 l 2.844,-0.36 v -14.902 l -2.844,-0.359 v -4.571 h 12.131 c 6.119,0 12.13,3.239 12.13,12.202 0,9.827 -5.939,12.563 -11.555,12.563 h -12.706 z m 11.23,-5.111 c 4.212,0 6.768,-1.62 6.768,-7.451 0,-4.968 -2.664,-7.091 -7.235,-7.091 h -1.728 v 14.542 z" fill="#009eb9" />
        <path id="path154" d="m 524.424,464.325 c 0,3.707 -2.052,8.927 -10.402,8.927 -6.804,0 -11.051,-3.924 -11.051,-12.67 0,-8.676 4.283,-12.563 11.051,-12.563 8.351,0 10.402,4.355 10.402,7.486 0,1.116 -0.252,1.872 -0.252,1.872 l -5.867,0.54 c 0,0 0.144,-0.54 0.144,-1.296 0,-1.476 -0.936,-3.456 -4.104,-3.456 -2.844,0 -5.111,1.8 -5.111,7.523 0,5.651 2.484,7.379 5.327,7.379 2.736,0 3.744,-1.188 3.852,-3.203 l -3.491,-0.36 v -4.211 h 9.503 v 4.032 z" fill="#009eb9" />
        <path id="path156" d="m 526.91,473 v -4.571 l 2.808,-0.36 v -14.902 l -2.808,-0.359 v -4.571 h 20.409 l 0.145,8.675 h -4.607 l -0.54,-3.563 h -6.407 v 4.787 h 5.363 v 4.932 h -5.363 v 4.823 h 6.335 l 0.54,-3.563 h 4.607 L 547.14,473 Z" fill="#009eb9" />
        <path id="path158" d="m 557.042,473 v -4.571 l 2.844,-0.36 v -14.866 l -2.844,-0.396 v -4.571 h 11.879 v 4.571 l -2.844,0.396 v 14.866 l 2.844,0.36 V 473 Z" fill="#009eb9" />
        <path id="path160" d="m 586.523,464.253 v -0.684 l 5.976,1.224 v 0.612 c 0,3.275 -2.088,7.847 -10.583,7.847 -6.695,0 -10.87,-3.924 -10.87,-12.67 0,-8.676 4.283,-12.563 11.051,-12.563 8.351,0 10.402,4.787 10.402,8.207 0,1.115 -0.252,1.871 -0.252,1.871 l -5.867,0.72 c 0,0 0.144,-0.611 0.144,-1.476 0,-1.764 -0.936,-4.176 -4.104,-4.176 -2.844,0 -5.111,1.8 -5.111,7.523 0,5.651 2.412,7.379 5.147,7.379 3.096,10e-4 4.067,-1.438 4.067,-3.814 z" fill="#009eb9" />
        <path id="path162" d="m 594.806,473 v -4.571 l 2.844,-0.36 v -14.866 l -2.844,-0.396 v -4.571 h 11.879 v 4.571 l -2.844,0.396 v 14.866 l 2.844,0.36 V 473 Z" fill="#009eb9" />
      </g>
    </g>
  </g>
  <g style="display:inline" id="layer14">
    <g style="display:inline" id="picto_titre_badge" transform="translate(2.43735,17.85017)">
      <path id="path129" d="m 365.373,240.491 c 6.838,6.565 15.277,11.79 25.082,15.524 9.803,3.741 21.309,5.637 34.201,5.637 12.719,0 24.182,-1.896 34.066,-5.637 9.893,-3.734 18.375,-8.957 25.213,-15.524 6.842,-6.574 12.199,-14.362 15.92,-23.143 1.627,-3.847 2.979,-7.928 4.023,-12.148 h -50.096 c -1.32,2.271 -2.652,4.157 -4.064,5.749 -5.455,6.156 -13.889,9.28 -25.063,9.28 -13.572,0 -17.24,-0.455 -25.189,-9.275 -1.439,-1.586 -2.756,-3.424 -4.119,-5.754 h -49.922 c 1.039,4.203 2.395,8.285 4.035,12.146 3.72,8.793 9.073,16.578 15.913,23.145 z" fill="#009eb9" />
      <path id="path131" d="m 506.262,350.782 c -0.523,-9.941 -2.68,-19.448 -6.406,-28.25 -3.719,-8.765 -9.072,-16.496 -15.916,-22.977 -6.832,-6.473 -15.32,-11.698 -25.223,-15.527 -9.898,-3.822 -21.355,-5.762 -34.063,-5.762 -12.875,0 -24.381,1.939 -34.191,5.76 -9.816,3.833 -18.26,9.059 -25.096,15.529 -6.838,6.469 -12.189,14.203 -15.906,22.977 -3.73,8.789 -5.887,18.294 -6.412,28.256 -0.363,7.873 -0.523,33.046 -0.523,41.286 0,0.611 0.006,1.196 0.016,1.784 l 0.004,0.186 h 46.762 l -0.006,-0.352 c -0.01,-0.713 -0.023,-1.425 -0.023,-2.158 0,-3.904 0.047,-25.099 0.141,-29.026 0.096,-4.069 0.313,-7.519 0.658,-10.538 0.357,-4.543 1.316,-8.835 2.848,-12.722 1.539,-3.897 3.748,-7.335 6.568,-10.221 2.822,-2.893 6.363,-5.202 10.518,-6.866 4.15,-1.662 9.076,-2.505 14.645,-2.505 5.569,0 10.498,0.843 14.648,2.505 4.145,1.662 7.686,3.972 10.523,6.864 2.813,2.893 5.02,6.329 6.561,10.221 1.525,3.881 2.484,8.173 2.846,12.761 0.18,3.104 0.357,6.585 0.537,10.478 0.17,3.942 0.254,25.144 0.254,29.05 0,0.644 -0.018,1.27 -0.035,1.894 -0.006,0.207 -0.012,0.409 -0.018,0.616 h 46.805 l 0.002,-0.237 c 0.01,-0.568 0.018,-1.137 0.018,-1.732 -0.003,-8.859 -0.183,-33.589 -0.536,-41.294 z" fill="#009eb9" />
    </g>
  </g>
</svg>
