<?xml version="1.0" encoding="UTF-8" standalone="no"?>
<svg xmlns:dc="http://purl.org/dc/elements/1.1/"
  xmlns:cc="http://creativecommons.org/ns#"
  xmlns:rdf="http://www.w3.org/1999/02/22-rdf-syntax-ns#"
  xmlns:svg="http://www.w3.org/2000/svg"
  xmlns="http://www.w3.org/2000/svg"
  xmlns:xlink="http://www.w3.org/1999/xlink" version="1.1" x="0px" y="0px" width="100%" height="100%" viewBox="0 0 850.39371 850.39371" enable-background="new 0 0 850.394 841.89" xml:space="preserve" id="svg2303">
  <metadata id="metadata2309">
    <rdf:RDF>
      <cc:Work rdf:about="">
        <dc:format>image/svg+xml</dc:format>
        <dc:type rdf:resource="http://purl.org/dc/dcmitype/StillImage" />
        <dc:title></dc:title>
      </cc:Work>
    </rdf:RDF>
  </metadata>
  <defs id="defs2307">
    <linearGradient y2="116.8174" x2="420.56351" y1="116.8174" x1="257.7666" gradientUnits="userSpaceOnUse" id="SVGID_1_">
      <stop id="stop2215" style="stop-color:#FFFFFF" offset="0" />
      <stop id="stop2217" style="stop-color:#8D7D9F" offset="0.4515" />
      <stop id="stop2219" style="stop-color:#473467" offset="1" />
    </linearGradient>
    <linearGradient gradientTransform="matrix(-1,0,0,1,1066.5762,0)" y2="116.8174" x2="634.80957" y1="116.8174" x1="472.0127" gradientUnits="userSpaceOnUse" id="SVGID_2_">
      <stop id="stop2224" style="stop-color:#FFFFFF" offset="0" />
      <stop id="stop2226" style="stop-color:#8D7D9F" offset="0.4515" />
      <stop id="stop2228" style="stop-color:#473467" offset="1" />
    </linearGradient>
    <clipPath id="SVGID_2_-4">
      <use height="100%" width="100%" y="0" x="0" xlink:href="#SVGID_1_-0" overflow="visible" id="use122" />
    </clipPath>
    <clipPath id="SVGID_4_">
      <use height="100%" width="100%" y="0" x="0" xlink:href="#SVGID_3_" overflow="visible" id="use132" />
    </clipPath>
    <path id="SVGID_1_-0" d="m 404.664,50.394 c 1.172,3.438 3.039,6.252 4.836,8.439 l -19.805,17.313 c -3.164,-1.836 -6.135,-4.258 -8.674,-7.969 l -13.156,3.746 c 0,0 -1.5,20.816 0.125,20.816 1.625,0 20.75,-1.5 22,-1.5 1.25,0 37.625,-22.125 37.625,-22.125 l 13.875,-38 c 0,0 -0.625,-12.084 -1,-12.291 -0.375,-0.209 -36.375,17.006 -36.375,17.006 z" />
    <path id="SVGID_3_" d="m 453.475,81.825 c 1.949,-1.783 5.014,-5.445 6.551,-8.467 l 18.717,21.805 0.957,1.021 c -2.836,3.092 -6.361,5.285 -9.527,6.563 l 4.693,17.242 13.125,9.75 0.375,-10.625 c 0,0 -5.125,-47.875 -5.375,-48.25 -0.25,-0.375 -24.334,-23.75 -24.334,-23.75 0,0 -13.166,1.125 -13.166,1.5 0,0.375 -9.506,10 -9.506,10 l 5.662,19.625 z" />
    <clipPath id="SVGID_2_-4-8">
      <use id="use122-9" overflow="visible" xlink:href="#SVGID_1_-0" x="0" y="0" width="100%" height="100%" />
    </clipPath>
    <clipPath id="SVGID_4_-4">
      <use id="use132-1" overflow="visible" xlink:href="#SVGID_3_" x="0" y="0" width="100%" height="100%" />
    </clipPath>
    <path d="m 404.664,50.394 c 1.172,3.438 3.039,6.252 4.836,8.439 l -19.805,17.313 c -3.164,-1.836 -6.135,-4.258 -8.674,-7.969 l -13.156,3.746 c 0,0 -1.5,20.816 0.125,20.816 1.625,0 20.75,-1.5 22,-1.5 1.25,0 37.625,-22.125 37.625,-22.125 l 13.875,-38 c 0,0 -0.625,-12.084 -1,-12.291 -0.375,-0.209 -36.375,17.006 -36.375,17.006 z" id="path300" />
    <path d="m 453.475,81.825 c 1.949,-1.783 5.014,-5.445 6.551,-8.467 l 18.717,21.805 0.957,1.021 c -2.836,3.092 -6.361,5.285 -9.527,6.563 l 4.693,17.242 13.125,9.75 0.375,-10.625 c 0,0 -5.125,-47.875 -5.375,-48.25 -0.25,-0.375 -24.334,-23.75 -24.334,-23.75 0,0 -13.166,1.125 -13.166,1.5 0,0.375 -9.506,10 -9.506,10 l 5.662,19.625 z" id="path307" />
  </defs>
  <g id="layer2">
      <path transform="translate(2.400349,17.028026)" id="path160-0" d="m 425.703,693.159 c -3.578,-2.656 -7.801,-5.086 -11.15,-8.398 -13.408,-13.252 -29.236,-22.529 -46.699,-29.188 -18.42,-7.021 -36.83,-14.072 -55.381,-20.736 -15.076,-5.418 -30.576,-9.717 -45.467,-15.58 -11.408,-4.492 -22.871,-9.568 -33.064,-16.275 -28.578,-18.803 -44.348,-45.674 -46.42,-80.053 -0.592,-9.836 -0.324,-19.73 -0.328,-29.598 -0.021,-69.08 -0.01,-138.162 -0.014,-207.242 -0.002,-9.869 -0.061,-19.738 -0.045,-29.607 0.055,-34.955 -4.541,-68.869 -21.598,-100.175 -3.297,-6.05 -2.027,-12.835 2.666,-16.776 14.16,-11.889 28.412,-23.672 42.855,-35.213 4.063,-3.246 9.256,-3.568 13.971,-1.258 38.408,18.816 79.773,24.293 121.709,28.342 57.98,5.598 115.824,4.555 173.607,-1.465 35.643,-3.713 70.9,-9.779 103.48,-25.971 4.764,-2.367 10.232,-3.719 14.018,-0.689 16.318,13.053 32.131,26.746 47.891,40.477 1.494,1.301 1.561,4.465 1.855,6.818 0.135,1.082 -0.65,2.365 -1.236,3.438 -18.91,34.641 -23.082,72.457 -23.871,110.982 -0.201,9.865 -0.059,19.736 -0.061,29.606 -0.004,66.612 0,133.228 -0.012,199.841 0,8.635 -0.137,17.27 -0.092,25.904 0.215,39.816 -19.646,67.668 -52.666,87.246 -8.418,4.99 -17.738,8.625 -26.945,12.074 -13.85,5.188 -27.965,9.666 -41.969,14.439 -10.5,3.579 -21.084,6.932 -31.492,10.756 -42.276,15.538 -49.858,19.963 -83.542,48.301 z" stroke-miterlimit="10" stroke-width="12" stroke="#009eb9" fill="none" style="fill:#ffffff;stroke:none" />
  </g>
  <g id="layer26" style="display:inline">
    <g style="display:inline" id="texte_posture" transform="translate(2.40035,17.02803)">
      <g id="g24">
        <path id="path2" d="m 301.187,717.42 -11.969,14.705 c -1.868,2.295 -3.991,3.541 -6.369,3.738 -2.378,0.196 -4.735,-0.656 -7.072,-2.559 -2.958,-2.408 -4.507,-5.594 -4.648,-9.561 l 5.549,-1.621 c 0.238,2.876 1.102,4.92 2.591,6.132 1.551,1.263 3.051,1.005 4.498,-0.774 l 8.231,-10.113 -7.445,-6.061 3.637,-4.467 z" fill="#473467" />
        <path id="path4" d="m 321.207,737.794 -12.386,-8.103 -3.044,4.652 11.181,7.314 -3.066,4.686 -11.18,-7.313 -3.088,4.72 12.753,8.344 -3.065,4.686 -18.712,-12.243 15.33,-23.43 18.343,12 z" fill="#473467" />
        <path id="path6" d="m 350.909,745.798 c 1.915,0.813 3.631,2.006 5.151,3.578 1.52,1.573 2.648,3.298 3.387,5.175 l -5.7,2.883 c -0.396,-1.387 -1.051,-2.627 -1.961,-3.723 -0.91,-1.098 -1.942,-1.891 -3.096,-2.381 -2.038,-0.865 -4.049,-0.871 -6.032,-0.019 -1.985,0.853 -3.425,2.334 -4.321,4.444 -0.917,2.16 -0.996,4.256 -0.236,6.288 0.759,2.032 2.157,3.479 4.195,4.345 1.079,0.459 2.317,0.666 3.713,0.621 1.395,-0.045 2.744,-0.34 4.049,-0.888 l 2.109,5.676 c -2.004,0.829 -4.14,1.271 -6.406,1.321 -2.268,0.052 -4.346,-0.324 -6.235,-1.127 -3.879,-1.646 -6.569,-4.281 -8.073,-7.904 -1.503,-3.622 -1.452,-7.324 0.152,-11.104 1.574,-3.706 4.203,-6.248 7.888,-7.624 3.683,-1.375 7.488,-1.228 11.416,0.439 z" fill="#473467" />
        <path id="path8" d="m 377.169,754.543 c 4.211,1.078 7.376,3.287 9.494,6.623 2.118,3.336 2.675,6.969 1.669,10.895 -1.012,3.952 -3.261,6.9 -6.744,8.844 -3.485,1.942 -7.319,2.378 -11.504,1.307 -4.186,-1.072 -7.334,-3.289 -9.445,-6.652 -2.112,-3.361 -2.658,-7.031 -1.64,-11.01 1.013,-3.953 3.247,-6.876 6.706,-8.771 3.458,-1.896 7.279,-2.307 11.464,-1.236 z m -1.4,5.794 c -2.119,-0.542 -4.124,-0.237 -6.016,0.916 -1.893,1.153 -3.129,2.867 -3.711,5.14 -0.583,2.273 -0.318,4.386 0.793,6.336 1.11,1.949 2.713,3.192 4.805,3.729 2.093,0.535 4.068,0.209 5.929,-0.98 1.859,-1.189 3.081,-2.92 3.663,-5.193 0.582,-2.273 0.34,-4.365 -0.726,-6.276 -1.067,-1.912 -2.646,-3.136 -4.737,-3.672 z" fill="#473467" />
        <path id="path10" d="m 419.283,789.012 -6.26,-0.506 -11.451,-18.22 -1.387,17.185 -6.658,-0.537 2.252,-27.91 6.26,0.506 11.488,18.263 1.39,-17.224 6.618,0.533 z" fill="#473467" />
        <path id="path12" d="m 449.284,765.049 -8.419,0.6 1.584,22.225 -7.102,0.506 -1.584,-22.224 -8.339,0.595 -0.409,-5.746 23.859,-1.7 z" fill="#473467" />
        <path id="path14" d="m 474.854,782.541 -5.753,-6.805 -0.195,0.043 -5.274,1.158 1.689,7.696 -6.954,1.526 -6.004,-27.349 12.229,-2.685 c 3.62,-0.795 6.602,-0.582 8.944,0.637 2.343,1.221 3.849,3.354 4.518,6.4 0.927,4.22 -0.085,7.514 -3.032,9.881 l 7.725,7.764 z m -12.423,-11.074 5.274,-1.157 c 1.511,-0.331 2.6,-0.966 3.268,-1.905 0.668,-0.938 0.845,-2.123 0.53,-3.557 -0.309,-1.406 -0.96,-2.383 -1.954,-2.929 -0.993,-0.546 -2.246,-0.653 -3.756,-0.322 l -5.274,1.158 z" fill="#473467" />
        <path id="path16" d="m 496.98,775.852 -6.741,2.294 -9.02,-26.507 6.74,-2.295 z" fill="#473467" />
        <path id="path18" d="m 494.13,747.314 12.013,-5.568 c 2.854,-1.322 5.39,-1.799 7.604,-1.43 2.214,0.37 3.771,1.523 4.667,3.458 0.617,1.331 0.771,2.679 0.462,4.04 -0.31,1.363 -1.051,2.553 -2.227,3.567 1.743,-0.425 3.354,-0.276 4.837,0.448 1.481,0.724 2.604,1.908 3.366,3.553 0.998,2.154 0.914,4.271 -0.251,6.355 -1.166,2.083 -3.248,3.82 -6.248,5.211 l -12.448,5.77 z m 8.712,1.958 2.422,5.226 5.226,-2.422 c 0.944,-0.438 1.584,-1.021 1.922,-1.75 0.338,-0.73 0.316,-1.506 -0.064,-2.329 -0.37,-0.798 -0.94,-1.298 -1.71,-1.5 -0.77,-0.201 -1.626,-0.084 -2.569,0.353 z m 4.575,9.872 2.606,5.626 5.227,-2.423 c 1.209,-0.561 2.041,-1.255 2.495,-2.083 0.454,-0.827 0.474,-1.688 0.059,-2.584 -0.392,-0.846 -1.048,-1.357 -1.968,-1.535 -0.919,-0.176 -1.983,0.017 -3.193,0.577 z" fill="#473467" />
        <path id="path20" d="m 541.6,721.093 8.774,13.665 c 2.002,3.119 2.626,6.213 1.87,9.281 -0.756,3.068 -2.782,5.66 -6.081,7.778 -3.321,2.132 -6.551,2.915 -9.688,2.347 -3.137,-0.568 -5.707,-2.412 -7.71,-5.531 l -8.774,-13.666 5.991,-3.846 8.774,13.665 c 1.009,1.571 2.267,2.53 3.772,2.878 1.507,0.348 2.989,0.053 4.448,-0.883 1.436,-0.922 2.291,-2.121 2.563,-3.596 0.273,-1.475 -0.101,-3.008 -1.124,-4.602 l -8.774,-13.666 z" fill="#473467" />
        <path id="path22" d="m 566.673,707.832 -11.394,9.446 3.549,4.28 10.284,-8.527 3.574,4.311 -10.284,8.527 3.6,4.342 11.731,-9.727 3.575,4.311 -17.214,14.271 -17.871,-21.555 16.874,-13.99 z" fill="#473467" />
      </g>
    </g>
  </g>
  <g id="layer25" style="display:inline">
    <g style="display:inline" id="filet_separation_theme" transform="translate(2.4003505,17.028029)">
      <line id="line27" y2="606.66101" x2="425.65799" y1="568.87799" x1="425.65799" stroke-miterlimit="10" stroke="#000000" fill="none" />
    </g>
  </g>
  <g id="layer24" style="display:inline">
    <g style="display:inline" id="picto_theme" transform="translate(2.40035,17.02803)">
      <g id="g34">
        <path id="path30" d="m 485.184,565.275 c 2.246,2.157 5.02,3.875 8.242,5.102 3.221,1.229 7.002,1.853 11.238,1.853 4.178,0 7.945,-0.623 11.193,-1.853 3.25,-1.227 6.039,-2.943 8.285,-5.102 2.25,-2.159 4.01,-4.719 5.232,-7.604 0.533,-1.265 0.977,-2.605 1.32,-3.992 h -16.461 c -0.434,0.747 -0.871,1.367 -1.334,1.889 -1.795,2.023 -4.564,3.05 -8.236,3.05 -4.459,0 -5.666,-0.149 -8.277,-3.048 -0.473,-0.521 -0.906,-1.125 -1.354,-1.891 h -16.404 c 0.342,1.382 0.787,2.724 1.326,3.991 1.224,2.89 2.982,5.448 5.23,7.605 z" stroke-miterlimit="10" stroke-width="2" stroke="#000000" fill="none" />
        <path id="path32" d="m 531.479,601.517 c -0.172,-3.267 -0.881,-6.391 -2.105,-9.282 -1.221,-2.881 -2.98,-5.422 -5.229,-7.551 -2.246,-2.127 -5.035,-3.843 -8.289,-5.102 -3.252,-1.256 -7.018,-1.894 -11.191,-1.894 -4.23,0 -8.012,0.638 -11.236,1.893 -3.225,1.26 -6,2.977 -8.246,5.103 -2.246,2.127 -4.006,4.668 -5.227,7.551 -1.225,2.889 -1.934,6.011 -2.107,9.284 -0.119,2.587 -0.172,10.858 -0.172,13.566 0,0.202 0.002,0.393 0.006,0.587 l 0.002,0.061 h 15.365 l -0.002,-0.116 c -0.004,-0.233 -0.008,-0.467 -0.008,-0.709 0,-1.283 0.014,-8.247 0.045,-9.537 0.031,-1.337 0.104,-2.471 0.217,-3.463 0.117,-1.493 0.434,-2.904 0.936,-4.181 0.506,-1.28 1.232,-2.41 2.16,-3.358 0.926,-0.949 2.09,-1.709 3.453,-2.256 1.365,-0.546 2.984,-0.823 4.814,-0.823 1.828,0 3.449,0.277 4.813,0.823 1.361,0.546 2.525,1.306 3.457,2.255 0.926,0.951 1.65,2.08 2.156,3.358 0.502,1.276 0.816,2.687 0.936,4.194 0.059,1.02 0.117,2.163 0.176,3.441 0.057,1.296 0.084,8.262 0.084,9.546 0,0.212 -0.006,0.418 -0.012,0.624 -0.002,0.066 -0.004,0.133 -0.006,0.201 h 15.379 l 0.002,-0.078 c 0.004,-0.187 0.006,-0.373 0.006,-0.569 -0.002,-2.91 -0.062,-11.035 -0.177,-13.568 z" stroke-miterlimit="10" stroke-width="2" stroke="#000000" fill="none" />
      </g>
    </g>
  </g>
  <g id="layer23" style="display:inline">
    <g style="display:inline" id="texte_picto_theme" transform="translate(2.40035,17.02803)">
      <g id="g57">
        <path id="path37" d="m 451.818,532.749 h -3.799 v 10.026 h -3.203 v -10.026 h -3.762 v -2.593 h 10.764 z" />
        <path id="path39" d="m 463.051,532.695 h -6.66 v 2.502 h 6.012 v 2.52 h -6.012 v 2.538 h 6.857 v 2.521 h -10.063 v -12.601 h 9.865 v 2.52 z" />
        <path id="path41" d="m 472.626,536.188 4.519,6.588 h -3.834 l -2.719,-4.015 -2.718,4.015 h -3.726 l 4.5,-6.444 -4.213,-6.156 h 3.727 l 2.43,3.672 2.43,-3.672 h 3.763 z" />
        <path id="path43" d="m 488.16,532.749 h -3.799 v 10.026 h -3.203 v -10.026 h -3.762 v -2.593 h 10.764 z" />
        <path id="path45" d="m 499.392,532.695 h -6.66 v 2.502 h 6.013 v 2.52 h -6.013 v 2.538 h 6.858 v 2.521 h -10.063 v -12.601 h 9.864 v 2.52 z" />
        <path id="path47" d="m 515.466,532.749 h -3.798 v 10.026 h -3.204 v -10.026 h -3.763 v -2.593 h 10.765 z" />
        <path id="path49" d="m 528.461,542.775 h -3.203 v -4.896 h -5.221 v 4.896 h -3.204 v -12.601 h 3.204 v 5.185 h 5.221 v -5.185 h 3.203 z" />
        <path id="path51" d="m 540.846,532.695 h -6.66 v 2.502 h 6.012 v 2.52 h -6.012 v 2.538 h 6.857 v 2.521 H 530.98 v -12.601 h 9.865 v 2.52 z m -3.313,-3.619 h -2.376 l -2.34,-2.033 2.808,-0.99 z" />
        <path id="path53" d="m 556.955,542.775 h -2.826 l -0.018,-8.19 -3.023,6.931 H 549 l -3.024,-6.931 v 8.19 h -2.862 v -12.619 h 3.51 l 3.42,7.507 3.42,-7.507 h 3.492 v 12.619 z" />
        <path id="path55" d="m 569.357,532.695 h -6.66 v 2.502 h 6.012 v 2.52 h -6.012 v 2.538 h 6.857 v 2.521 h -10.063 v -12.601 h 9.865 v 2.52 z" />
      </g>
    </g>
  </g>
  <g id="layer22" style="display:inline">
    <g style="display:inline" id="picto_categorie" transform="translate(2.4003458,17.02803)">
      <g id="g70">
        <circle id="circle60" r="8.75" cy="564.22998" cx="359.673" stroke-miterlimit="10" stroke-width="2" stroke="#000000" fill="none" />
        <circle id="circle62" r="8.75" cy="583.72998" cx="322.798" stroke-miterlimit="10" stroke-width="2" stroke="#000000" fill="none" />
        <circle id="circle64" r="8.75" cy="603.72998" cx="359.673" stroke-miterlimit="10" stroke-width="2" stroke="#000000" fill="none" />
        <line id="line66" y2="578.97998" x2="329.673" y1="568.47998" x1="351.798" stroke-miterlimit="10" stroke-width="2" stroke="#000000" fill="none" />
        <line id="line68" y2="599.22998" x2="352.173" y1="588.60498" x1="330.548" stroke-miterlimit="10" stroke-width="2" stroke="#000000" fill="none" />
      </g>
    </g>
  </g>
  <g id="layer21" style="display:inline">
    <g style="display:inline" id="texte_picto_categorie" transform="translate(2.40035,17.02803)">
      <g id="g93">
        <path id="path73" d="m 280.675,530.066 c 0.936,0 1.857,0.192 2.763,0.576 0.906,0.385 1.677,0.9 2.313,1.549 l -1.854,2.195 c -0.408,-0.504 -0.897,-0.902 -1.467,-1.197 -0.57,-0.293 -1.137,-0.44 -1.701,-0.44 -0.996,0 -1.83,0.351 -2.502,1.053 -0.672,0.702 -1.008,1.569 -1.008,2.601 0,1.057 0.336,1.938 1.008,2.646 0.672,0.709 1.506,1.063 2.502,1.063 0.528,0 1.077,-0.133 1.647,-0.396 0.569,-0.264 1.077,-0.623 1.521,-1.08 l 1.872,1.98 c -0.684,0.695 -1.491,1.254 -2.421,1.674 -0.93,0.42 -1.857,0.63 -2.781,0.63 -1.896,0 -3.474,-0.618 -4.734,-1.854 -1.26,-1.235 -1.89,-2.777 -1.89,-4.625 0,-1.813 0.642,-3.328 1.926,-4.545 1.284,-1.22 2.886,-1.83 4.806,-1.83 z" />
        <path id="path75" d="m 292.986,530.066 c 1.956,0 3.582,0.609 4.878,1.828 1.296,1.217 1.944,2.738 1.944,4.563 0,1.836 -0.651,3.372 -1.953,4.607 -1.302,1.236 -2.925,1.854 -4.869,1.854 -1.944,0 -3.564,-0.614 -4.86,-1.845 -1.296,-1.231 -1.944,-2.77 -1.944,-4.617 0,-1.836 0.648,-3.359 1.944,-4.572 1.296,-1.211 2.916,-1.818 4.86,-1.818 z m 0.036,2.683 c -0.984,0 -1.824,0.356 -2.52,1.071 -0.696,0.714 -1.044,1.599 -1.044,2.654 0,1.057 0.351,1.947 1.053,2.674 0.702,0.726 1.539,1.088 2.511,1.088 0.972,0 1.797,-0.362 2.475,-1.088 0.678,-0.727 1.017,-1.617 1.017,-2.674 0,-1.056 -0.339,-1.94 -1.017,-2.654 -0.678,-0.715 -1.502,-1.071 -2.475,-1.071 z" />
        <path id="path77" d="m 315.342,542.775 h -2.826 l -0.018,-8.19 -3.024,6.931 h -2.088 l -3.024,-6.931 v 8.19 H 301.5 v -12.619 h 3.51 l 3.42,7.507 3.42,-7.507 h 3.492 z" />
        <path id="path79" d="m 331.722,542.775 h -2.826 l -0.018,-8.19 -3.024,6.931 h -2.088 l -3.024,-6.931 v 8.19 h -2.862 v -12.619 h 3.51 l 3.42,7.507 3.42,-7.507 h 3.492 z" />
        <path id="path81" d="m 345.6,530.175 v 7.308 c 0,1.668 -0.516,2.992 -1.548,3.969 -1.032,0.979 -2.43,1.468 -4.194,1.468 -1.776,0 -3.189,-0.489 -4.239,-1.468 -1.05,-0.977 -1.575,-2.301 -1.575,-3.969 v -7.308 h 3.204 v 7.308 c 0,0.84 0.243,1.51 0.729,2.008 0.486,0.498 1.119,0.746 1.899,0.746 0.768,0 1.383,-0.245 1.845,-0.737 0.461,-0.492 0.693,-1.164 0.693,-2.017 v -7.308 z" />
        <path id="path83" d="m 359.532,542.775 h -2.826 l -5.796,-7.758 v 7.758 h -3.006 v -12.601 h 2.826 l 5.814,7.776 v -7.776 h 2.988 z" />
        <path id="path85" d="m 370.422,540.453 h -5.508 l -0.918,2.322 h -3.294 l 5.436,-12.601 h 3.294 l 5.31,12.601 h -3.42 z m -0.936,-2.43 -1.8,-4.662 -1.836,4.662 z" />
        <path id="path87" d="m 386.892,530.175 v 7.308 c 0,1.668 -0.516,2.992 -1.548,3.969 -1.032,0.979 -2.43,1.468 -4.194,1.468 -1.776,0 -3.189,-0.489 -4.239,-1.468 -1.05,-0.977 -1.575,-2.301 -1.575,-3.969 v -7.308 h 3.204 v 7.308 c 0,0.84 0.243,1.51 0.729,2.008 0.486,0.498 1.119,0.746 1.899,0.746 0.768,0 1.383,-0.245 1.845,-0.737 0.461,-0.492 0.693,-1.164 0.693,-2.017 v -7.308 z" />
        <path id="path89" d="m 398.826,532.749 h -3.798 v 10.026 h -3.204 v -10.026 h -3.762 v -2.593 h 10.764 z" />
        <path id="path91" d="m 410.058,532.695 h -6.66 v 2.502 h 6.012 v 2.52 h -6.012 v 2.538 h 6.858 v 2.521 h -10.062 v -12.601 h 9.864 z m -1.728,-5.652 -2.34,2.033 h -2.376 l 1.908,-3.023 z" />
      </g>
    </g>
  </g>
  <g id="layer20" style="display:inline">
    <g style="display:inline" id="fond_categorie" transform="translate(2.40035,17.02803)">
      <path id="path96" d="m 217.58,266.364 c 0.012,4.127 0.023,8.254 0.023,12.383 v 61.932 c 0,45.092 -0.002,90.182 0.014,135.27 0.002,2.322 -0.014,4.646 -0.029,6.97 -0.043,6.489 -0.07,12.629 0.256,18.493 h 414.898 c -0.023,-4.764 0.01,-9.515 0.043,-14.115 0.023,-3.429 0.049,-6.857 0.049,-10.287 0.008,-39.542 0.008,-79.084 0.01,-118.625 l 0.002,-71.542 c 0,-2.72 -0.012,-5.441 -0.023,-8.162 -0.029,-6.692 -0.059,-13.613 0.09,-20.592 0.689,-31.993 3.781,-68.778 20.131,-104.335 -7.902,-6.49 -15.764,-12.858 -23.662,-19.055 -35.893,15.283 -73.264,20.656 -105.504,23.852 -33.76,3.347 -67.111,5.043 -99.127,5.043 -27.184,0 -54.258,-1.221 -80.471,-3.629 -39.822,-3.658 -81.889,-8.69 -122.4,-25.512 -7.4,5.699 -15.158,11.766 -23.623,18.471 13.199,27.531 19.367,58.95 19.303,97.697 -0.009,5.247 0.004,10.495 0.02,15.743 z" fill="#b7d5e2" />
    </g>
  </g>
  <g id="layer19" style="display:inline">
    <g style="display:inline" id="picto_posture" transform="translate(2.4003497,17.02803)">
      <g id="g141">
        <g id="g139">
          <path id="path99" d="m 436.129,26.089 3.143,4.402 c 0.354,0.496 0.344,1.115 -0.023,1.377 l -2.1,1.43 c -0.367,0.262 -0.957,0.07 -1.311,-0.424 l -3.143,-4.404 c -0.354,-0.494 -0.342,-1.113 0.023,-1.375 l 2.102,-1.432 c 0.368,-0.262 0.955,-0.07 1.309,0.426 z" stroke-miterlimit="10" stroke-width="2" stroke="#473467" fill="none" clip-rule="evenodd" fill-rule="evenodd" />
          <path id="path101" d="m 413.668,27.985 c -1.613,-3.48 8.643,-11.283 11.873,-8.619 7.24,5.971 13.197,14.52 17.658,24.328 1.471,3.23 -8.715,11.254 -11.873,8.619 -7.769,-6.482 -13.369,-15.068 -17.658,-24.328 z" fill="currentColor" clip-rule="evenodd" fill-rule="evenodd" />
          <path id="path103" d="m 410.887,55.696 c 0,0 2.664,1.488 4.156,4.104 1.492,2.617 1.527,4.764 -0.793,8.426 -2.32,3.664 -7.266,5.861 -8.67,4.58 -1.404,-1.283 -2.564,-3.969 0.916,-7.021 3.48,-3.052 4.604,-3.848 3.156,-6.228 -1.447,-2.382 -1.898,-1.343 -4.664,-8.608 0,0 -2.15,-3.348 -4.658,-4.092 -2.508,-0.744 -3.602,0.123 -4.029,0.916 -0.428,0.795 -1.039,2.617 -2.076,2.621 -1.037,0.006 -3.174,0.006 -4.152,0.982 -0.977,0.977 -1.387,2.137 -1.281,3.357 0.105,1.219 -1.465,2.198 -2.564,2.504 -1.1,0.305 -3.053,1.232 -3.297,2.967 -0.244,1.732 0.549,3.381 -0.611,4.115 -1.158,0.732 -2.746,2.074 -1.893,3.785 0.855,1.709 2.627,3.979 4.396,5.254 1.771,1.277 5.459,4.443 7.51,3.904 2.049,-0.541 2.861,-2.564 2.861,-2.564 0,0 1.99,1.434 3.977,0.434 1.986,-0.998 2.441,-3.549 2.441,-3.549 0,0 -3.969,-2.99 -6.105,-6.41" stroke-miterlimit="10" stroke-width="2" stroke="#473467" fill="none" clip-rule="evenodd" fill-rule="evenodd" />
          <path id="path105" d="m 391.604,70.058 c 0,0 2.924,2.822 3.658,5.074" stroke-miterlimit="10" stroke-width="2" stroke="#473467" fill="none" clip-rule="evenodd" fill-rule="evenodd" />
          <path id="path107" d="m 399.842,59.307 c 0,0 2.992,4.646 6.654,6.478" stroke-miterlimit="10" stroke-width="2" stroke="#473467" fill="none" clip-rule="evenodd" fill-rule="evenodd" />
          <path id="path109" d="m 401.611,71.583 c 0,0 0.248,0.764 3.023,0" stroke-miterlimit="10" stroke="#4e3a6c" fill="none" clip-rule="evenodd" fill-rule="evenodd" />
          <path id="path111" d="m 465.852,90.513 c -2.615,3.07 -6.979,5.449 -6.979,5.449 0,0 0.078,2.588 1.896,3.867 1.818,1.279 3.998,0.152 3.998,0.152 0,0 0.506,2.119 2.455,2.955 1.947,0.834 6.061,-1.758 8,-2.762 1.938,-1.004 4.021,-2.99 5.117,-4.555 1.096,-1.566 -0.277,-3.127 -1.318,-4.021 -1.041,-0.894 -0.014,-2.41 -0.002,-4.16 0.012,-1.752 -1.785,-2.955 -2.826,-3.418 -1.043,-0.463 -2.453,-1.66 -2.172,-2.852 0.283,-1.191 0.047,-2.4 -0.775,-3.51 -0.824,-1.109 -2.938,-1.422 -3.965,-1.578 -1.025,-0.156 -1.363,-2.049 -1.67,-2.896 -0.307,-0.847 -1.26,-1.865 -3.852,-1.496 -2.59,0.369 -5.207,3.365 -5.207,3.365 -3.799,6.781 -4.094,5.689 -5.873,7.834 -1.779,2.143 -0.785,3.092 2.211,6.621 2.996,3.529 1.455,6.018 -0.123,7.08 -1.576,1.063 -6.309,-1.768 -7.904,-5.799 -1.516,-3.822 -1.148,-7.108 2.125,-9.805 3.275,-2.695 5.902,-3.217 5.902,-3.217" stroke-miterlimit="10" stroke-width="2" stroke="#473467" fill="none" clip-rule="evenodd" fill-rule="evenodd" />
          <path id="path113" d="m 468.996,95.917 c 0,0 -3.305,2.363 -4.359,4.484" stroke-miterlimit="10" stroke-width="2" stroke="#473467" fill="none" clip-rule="evenodd" fill-rule="evenodd" />
          <path id="path115" d="m 462.422,84.075 c 0,0 -3.641,4.158 -7.531,5.434" stroke-miterlimit="10" stroke-width="2" stroke="#473467" fill="none" clip-rule="evenodd" fill-rule="evenodd" />
          <path id="path117" d="m 458.873,95.962 c 0,0 -0.355,0.719 -2.99,-0.443" stroke-miterlimit="10" stroke-width="2" stroke="#473467" fill="none" clip-rule="evenodd" fill-rule="evenodd" />
          <g id="g127">
            <defs id="defs120">
              <path d="m 404.664,50.394 c 1.172,3.438 3.039,6.252 4.836,8.439 l -19.805,17.313 c -3.164,-1.836 -6.135,-4.258 -8.674,-7.969 l -13.156,3.746 c 0,0 -1.5,20.816 0.125,20.816 1.625,0 20.75,-1.5 22,-1.5 1.25,0 37.625,-22.125 37.625,-22.125 l 13.875,-38 c 0,0 -0.625,-12.084 -1,-12.291 -0.375,-0.209 -36.375,17.006 -36.375,17.006 z" id="path805" />
            </defs>
            <clipPath id="clipPath287">
              <use id="use285" overflow="visible" xlink:href="#SVGID_1_-0" x="0" y="0" width="100%" height="100%" />
            </clipPath>
            <path id="path125" d="m 371.773,86.661 c 0.234,0.316 0.881,0.373 1.188,0.113 L 430.408,38.389 426.312,33.467 369.17,81.64 c -0.432,0.363 -0.479,0.885 -0.127,1.355 z" stroke-miterlimit="10" stroke-width="2" stroke="#473467" fill="none" clip-rule="evenodd" fill-rule="evenodd" clip-path="url(#SVGID_2_-4-8)" />
          </g>
          <g id="g137">
            <defs id="defs130">
              <path d="m 453.475,81.825 c 1.949,-1.783 5.014,-5.445 6.551,-8.467 l 18.717,21.805 0.957,1.021 c -2.836,3.092 -6.361,5.285 -9.527,6.563 l 4.693,17.242 13.125,9.75 0.375,-10.625 c 0,0 -5.125,-47.875 -5.375,-48.25 -0.25,-0.375 -24.334,-23.75 -24.334,-23.75 0,0 -13.166,1.125 -13.166,1.5 0,0.375 -9.506,10 -9.506,10 l 5.662,19.625 z" id="path812" />
            </defs>
            <clipPath id="clipPath295">
              <use id="use293" overflow="visible" xlink:href="#SVGID_3_" x="0" y="0" width="100%" height="100%" />
            </clipPath>
            <path id="path135" d="m 487.391,122.624 -7.441,-6.125 -38.291,-58.557 c -0.277,-0.422 4.488,-4.469 4.826,-3.953 l 38.754,59.203 2.619,9.141 z" fill="currentColor" clip-rule="evenodd" fill-rule="evenodd" clip-path="url(#SVGID_4_-4)" />
          </g>
        </g>
      </g>
    </g>
  </g>
  <g id="layer18" style="display:inline">
    <g style="display:inline" id="filet_1_categorie" transform="translate(2.4003484,17.028034)">
      <g id="g148">
        <g id="g146">
          <path id="path144" d="m 182.914,293.098 -5.143,13.598 c -2.574,8.693 -5.182,17.377 -7.789,26.061 -3.865,12.875 -7.861,26.188 -11.676,39.316 -2.346,8.068 -4.043,16.216 -5.262,22.413 -1.102,5.618 -2.061,11.372 -2.99,16.935 -0.668,4.012 -1.359,8.158 -2.102,12.229 -4.365,23.97 -8.199,47.47 -7.189,71.412 0.221,5.261 1.014,10.61 1.783,15.784 0.662,4.468 1.348,9.088 1.672,13.673 1.531,21.61 7.951,42.71 19.625,64.506 14.709,27.465 37.365,50.07 69.268,69.107 25.461,15.195 53.564,25.344 80.74,35.158 4.025,1.453 8.051,2.906 12.068,4.375 8.746,3.199 17.756,6.16 26.467,9.023 12.717,4.18 25.867,8.502 38.469,13.65 11.043,4.512 24.682,11.691 32.93,27.389 0.594,-0.518 1.141,-0.99 1.65,-1.432 1.451,-1.256 2.598,-2.248 3.686,-3.289 1.547,-1.479 3.072,-3.064 4.549,-4.598 3.039,-3.158 6.184,-6.426 9.756,-9.025 12.125,-8.82 26.174,-13.781 39.758,-18.576 3.523,-1.244 7.166,-2.531 10.711,-3.863 12.475,-4.684 24.969,-8.912 37.141,-12.564 23.561,-7.07 47.113,-16.396 70.006,-27.717 26.996,-13.352 48.439,-29.318 65.551,-48.813 17.137,-19.521 29.125,-42.95 35.629,-69.638 7.846,-32.187 8.664,-67.654 2.58,-111.619 -1.186,-8.562 -3.039,-17.193 -4.834,-25.541 -0.617,-2.881 -1.234,-5.76 -1.83,-8.642 -0.363,-1.771 -0.723,-3.544 -1.084,-5.317 -1.57,-7.743 -3.195,-15.75 -5.254,-23.479 -1.695,-6.364 -3.672,-12.774 -5.584,-18.975 -1.633,-5.295 -3.32,-10.771 -4.83,-16.207 -1.877,-6.755 -3.654,-13.657 -5.375,-20.334 -2.975,-11.548 -6.91,-22.842 -10.191,-33.328 l -3.447,-8.702" stroke-miterlimit="10" stroke-width="2" stroke="#473467" fill="none" />
        </g>
      </g>
      <g id="g154">
        <path id="path150" d="m 508.242,83.448 c 4.105,-1.314 7.213,-3.021 11.49,-4.873 10.715,-4.641 20.693,-10.771 29.656,-18.221 7.449,-6.191 8.285,-5.781 15.035,0.561 l 0.211,0.199 c 6.084,5.715 12.303,11.49 18.316,17.076 2.799,2.602 5.6,5.203 8.396,7.807 2.492,2.32 4.986,4.635 7.482,6.949 3.805,3.529 7.611,7.059 11.4,10.604 l 0.729,0.684" stroke-miterlimit="10" stroke-width="2" stroke="#473467" fill="none" />
        <path id="path152" d="m 240.332,101.817 0.73,-0.684 c 4.51,-4.227 9.033,-8.439 13.563,-12.648 12.65,-11.76 22.352,-20.734 31.453,-29.1 4.971,-4.566 6.242,-4.607 11.336,-0.373 11.143,9.266 23.904,16.771 39.01,22.951 3.537,1.447 6.428,2.26 10.314,2.924" stroke-miterlimit="10" stroke-width="2" stroke="#473467" fill="none" />
      </g>
    </g>
  </g>
  <g id="layer17" style="display:inline">
    <g style="display:inline" id="filet_2_categorie" transform="translate(2.4003458,17.028025)">
      <path id="path157" d="m 425.703,693.159 c -3.578,-2.656 -7.801,-5.088 -11.15,-8.4 -13.408,-13.25 -29.236,-22.529 -46.699,-29.186 -18.42,-7.021 -36.83,-14.072 -55.381,-20.738 -15.076,-5.418 -30.576,-9.717 -45.467,-15.58 -11.408,-4.49 -22.871,-9.566 -33.064,-16.273 -28.578,-18.803 -44.348,-45.674 -46.42,-80.053 -0.592,-9.836 -0.324,-19.73 -0.328,-29.598 -0.021,-69.082 -0.01,-138.162 -0.014,-207.244 -0.002,-9.867 -0.061,-19.736 -0.045,-29.605 0.055,-34.957 -4.541,-68.869 -21.598,-100.176 -3.297,-6.051 -2.027,-12.834 2.666,-16.775 14.16,-11.889 28.412,-23.672 42.855,-35.213 4.063,-3.246 9.256,-3.568 13.971,-1.26 38.408,18.816 79.773,24.293 121.709,28.342 57.98,5.6 115.824,4.557 173.607,-1.463 35.643,-3.712 70.9,-9.779 103.48,-25.971 4.764,-2.367 10.232,-3.719 14.018,-0.689 16.318,13.053 32.131,26.744 47.891,40.477 1.494,1.301 1.561,4.465 1.855,6.818 0.135,1.08 -0.65,2.363 -1.236,3.438 -18.91,34.639 -23.082,72.457 -23.871,110.98 -0.201,9.865 -0.059,19.738 -0.061,29.607 -0.004,66.613 0,133.227 -0.012,199.84 0,8.635 -0.137,17.271 -0.092,25.906 0.215,39.816 -19.646,67.666 -52.666,87.246 -8.418,4.99 -17.738,8.623 -26.945,12.072 -13.85,5.188 -27.965,9.668 -41.969,14.441 -10.5,3.579 -21.084,6.93 -31.492,10.756 -42.276,15.536 -49.858,19.963 -83.542,48.301 z" stroke-miterlimit="10" stroke-width="27" stroke="#009eb9" fill="none" opacity="0.2" />
    </g>
  </g>












  <g id="layer16" style="display:inline">
    <g style="display:inline" id="filet_3_posture" transform="translate(2.400349,17.028026)">
      <path id="path160" d="m 425.703,693.159 c -3.578,-2.656 -7.801,-5.086 -11.15,-8.398 -13.408,-13.252 -29.236,-22.529 -46.699,-29.188 -18.42,-7.021 -36.83,-14.072 -55.381,-20.736 -15.076,-5.418 -30.576,-9.717 -45.467,-15.58 -11.408,-4.492 -22.871,-9.568 -33.064,-16.275 -28.578,-18.803 -44.348,-45.674 -46.42,-80.053 -0.592,-9.836 -0.324,-19.73 -0.328,-29.598 -0.021,-69.08 -0.01,-138.162 -0.014,-207.242 -0.002,-9.869 -0.061,-19.738 -0.045,-29.607 0.055,-34.955 -4.541,-68.869 -21.598,-100.175 -3.297,-6.05 -2.027,-12.835 2.666,-16.776 14.16,-11.889 28.412,-23.672 42.855,-35.213 4.063,-3.246 9.256,-3.568 13.971,-1.258 38.408,18.816 79.773,24.293 121.709,28.342 57.98,5.598 115.824,4.555 173.607,-1.465 35.643,-3.713 70.9,-9.779 103.48,-25.971 4.764,-2.367 10.232,-3.719 14.018,-0.689 16.318,13.053 32.131,26.746 47.891,40.477 1.494,1.301 1.561,4.465 1.855,6.818 0.135,1.082 -0.65,2.365 -1.236,3.438 -18.91,34.641 -23.082,72.457 -23.871,110.982 -0.201,9.865 -0.059,19.736 -0.061,29.606 -0.004,66.612 0,133.228 -0.012,199.841 0,8.635 -0.137,17.27 -0.092,25.904 0.215,39.816 -19.646,67.668 -52.666,87.246 -8.418,4.99 -17.738,8.625 -26.945,12.074 -13.85,5.188 -27.965,9.666 -41.969,14.439 -10.5,3.579 -21.084,6.932 -31.492,10.756 -42.276,15.538 -49.858,19.963 -83.542,48.301 z" stroke-miterlimit="10" stroke-width="12" stroke="#009eb9" fill="none" />
    </g>
  </g>
  <g id="layer15" style="display:inline">
    <g style="display:inline" id="texte_titre_badge" transform="translate(2.40035,17.02803)">
      <g id="g198">
        <path id="path168" d="m 258.891,468.068 2.844,0.36 V 473 h -11.879 v -4.571 l 2.844,-0.36 v -14.722 h -3.636 l -0.539,3.563 h -4.607 l 0.18,-8.675 h 23.396 l 0.181,8.675 h -4.607 l -0.54,-3.563 h -3.636 v 14.721 z" fill="#009eb9" />
        <path id="path170" d="m 269.368,473 v -4.571 l 2.844,-0.36 v -14.866 l -2.844,-0.396 v -4.571 h 11.879 v 4.571 l -2.844,0.396 v 14.866 l 2.844,0.36 V 473 Z" fill="#009eb9" />
        <path id="path172" d="m 297.878,468.068 2.844,0.36 V 473 h -11.879 v -4.571 l 2.844,-0.36 v -14.722 h -3.636 l -0.539,3.563 h -4.607 l 0.18,-8.675 h 23.396 l 0.181,8.675 h -4.607 l -0.54,-3.563 h -3.636 v 14.721 z" fill="#009eb9" />
        <path id="path174" d="m 325.095,473 -4.536,-8.675 h -3.167 v 3.743 l 3.635,0.36 V 473 h -12.67 v -4.571 l 2.844,-0.36 v -14.866 l -2.844,-0.396 v -4.571 h 13.462 c 5.04,0 8.495,2.844 8.495,7.631 0,4.067 -1.691,5.688 -4.067,6.983 v 0.18 c 0,0 0.396,0.288 0.684,0.792 l 2.484,4.247 3.167,0.36 V 473 Z m -4.824,-13.498 c 2.628,0 3.78,-1.044 3.78,-3.275 0,-1.944 -1.404,-2.88 -3.78,-2.88 h -2.879 v 6.155 z" fill="#009eb9" />
        <path id="path176" d="m 334.024,473 v -4.571 l 2.808,-0.36 v -14.902 l -2.808,-0.359 v -4.571 h 20.409 l 0.145,8.675 h -4.607 l -0.54,-3.563 h -6.407 v 4.787 h 5.363 v 4.932 h -5.363 v 4.823 h 6.335 l 0.54,-3.563 h 4.607 L 354.254,473 Z" fill="#009eb9" />
        <path id="path178" d="m 364.155,473 v -4.571 l 2.844,-0.36 v -14.902 l -2.844,-0.359 v -4.571 h 12.131 c 6.119,0 12.13,3.239 12.13,12.202 0,9.827 -5.939,12.563 -11.555,12.563 h -12.706 z m 11.231,-5.111 c 4.212,0 6.768,-1.62 6.768,-7.451 0,-4.968 -2.664,-7.091 -7.235,-7.091 h -1.728 v 14.542 z" fill="#009eb9" />
        <path id="path180" d="m 407.641,453.202 -2.844,-0.396 v -4.571 h 11.519 v 4.571 l -2.843,0.396 v 10.691 c 0,6.263 -3.744,9.358 -10.367,9.358 -6.623,0 -10.511,-3.096 -10.511,-9.358 v -10.691 l -2.844,-0.396 v -4.571 h 11.879 v 4.571 l -2.844,0.396 v 10.295 c 0,1.944 0.792,4.571 4.319,4.571 2.88,0 4.535,-2.052 4.535,-4.392 v -10.474 z" fill="#009eb9" />
        <path id="path182" d="m 425.031,473 v -4.571 l 2.844,-0.36 v -14.902 l -2.844,-0.359 v -4.571 h 10.295 c 7.091,0 10.654,1.728 10.654,6.659 0,4.211 -2.664,5.003 -3.636,5.291 v 0.288 c 1.764,0.216 5.399,1.188 5.399,5.759 0,4.248 -2.483,6.768 -10.043,6.768 h -12.669 z m 12.059,-14.722 c 1.655,0 2.628,-0.973 2.628,-2.448 0,-1.764 -1.404,-2.483 -2.988,-2.483 h -2.663 v 4.932 h 3.023 z m -3.024,4.643 v 4.968 h 3.923 c 2.52,0 3.492,-0.684 3.492,-2.447 0,-1.584 -1.225,-2.521 -2.988,-2.521 z" fill="#009eb9" />
        <path id="path184" d="m 472.729,468.068 2.52,0.36 V 473 H 464.09 v -4.571 l 2.7,-0.36 -0.9,-2.375 h -8.387 l -0.899,2.375 2.699,0.36 V 473 h -10.979 v -4.571 l 2.52,-0.36 5.651,-14.902 -3.168,-0.18 v -4.751 h 11.879 z m -10.152,-11.194 c -0.252,-0.647 -0.792,-2.195 -0.792,-2.195 h -0.18 c 0,0 -0.54,1.548 -0.792,2.195 l -1.548,4.104 h 4.859 z" fill="#009eb9" />
        <path id="path186" d="m 476.583,473 v -4.571 l 2.844,-0.36 v -14.902 l -2.844,-0.359 v -4.571 h 12.131 c 6.119,0 12.13,3.239 12.13,12.202 0,9.827 -5.939,12.563 -11.555,12.563 h -12.706 z m 11.23,-5.111 c 4.212,0 6.768,-1.62 6.768,-7.451 0,-4.968 -2.664,-7.091 -7.235,-7.091 h -1.728 v 14.542 z" fill="#009eb9" />
        <path id="path188" d="m 524.424,464.325 c 0,3.707 -2.052,8.927 -10.402,8.927 -6.804,0 -11.051,-3.924 -11.051,-12.67 0,-8.676 4.283,-12.563 11.051,-12.563 8.351,0 10.402,4.355 10.402,7.486 0,1.116 -0.252,1.872 -0.252,1.872 l -5.867,0.54 c 0,0 0.144,-0.54 0.144,-1.296 0,-1.476 -0.936,-3.456 -4.104,-3.456 -2.844,0 -5.111,1.8 -5.111,7.523 0,5.651 2.484,7.379 5.327,7.379 2.736,0 3.744,-1.188 3.852,-3.203 l -3.491,-0.36 v -4.211 h 9.503 v 4.032 z" fill="#009eb9" />
        <path id="path190" d="m 526.91,473 v -4.571 l 2.808,-0.36 v -14.902 l -2.808,-0.359 v -4.571 h 20.409 l 0.145,8.675 h -4.607 l -0.54,-3.563 h -6.407 v 4.787 h 5.363 v 4.932 h -5.363 v 4.823 h 6.335 l 0.54,-3.563 h 4.607 L 547.14,473 Z" fill="#009eb9" />
        <path id="path192" d="m 557.042,473 v -4.571 l 2.844,-0.36 v -14.866 l -2.844,-0.396 v -4.571 h 11.879 v 4.571 l -2.844,0.396 v 14.866 l 2.844,0.36 V 473 Z" fill="#009eb9" />
        <path id="path194" d="m 586.523,464.253 v -0.684 l 5.976,1.224 v 0.612 c 0,3.275 -2.088,7.847 -10.583,7.847 -6.695,0 -10.87,-3.924 -10.87,-12.67 0,-8.676 4.283,-12.563 11.051,-12.563 8.351,0 10.402,4.787 10.402,8.207 0,1.115 -0.252,1.871 -0.252,1.871 l -5.867,0.72 c 0,0 0.144,-0.611 0.144,-1.476 0,-1.764 -0.936,-4.176 -4.104,-4.176 -2.844,0 -5.111,1.8 -5.111,7.523 0,5.651 2.412,7.379 5.147,7.379 3.096,10e-4 4.067,-1.438 4.067,-3.814 z" fill="#009eb9" />
        <path id="path196" d="m 594.806,473 v -4.571 l 2.844,-0.36 v -14.866 l -2.844,-0.396 v -4.571 h 11.879 v 4.571 l -2.844,0.396 v 14.866 l 2.844,0.36 V 473 Z" fill="#009eb9" />
      </g>
    </g>
  </g>
  <g id="layer14" style="display:inline">
    <g style="display:inline" id="picto_titre_badge" transform="translate(2.40035,17.02803)">
      <path id="path163" d="m 507.172,360.337 c -0.523,-9.941 -2.68,-19.449 -6.408,-28.25 -3.717,-8.766 -9.07,-16.496 -15.914,-22.977 -6.832,-6.473 -15.322,-11.699 -25.223,-15.527 -9.898,-3.822 -21.357,-5.762 -34.063,-5.762 -12.875,0 -24.381,1.939 -34.193,5.76 -9.814,3.832 -18.258,9.059 -25.094,15.529 -6.838,6.469 -12.189,14.203 -15.906,22.977 -3.73,8.789 -5.889,18.295 -6.412,28.256 -0.363,7.873 -0.525,33.045 -0.525,41.285 0,0.613 0.008,1.197 0.018,1.785 l 0.004,0.186 h 46.762 l -0.006,-0.352 c -0.01,-0.713 -0.023,-1.424 -0.023,-2.158 0,-3.904 0.047,-25.098 0.141,-29.027 0.096,-4.068 0.311,-7.518 0.658,-10.537 0.357,-4.543 1.316,-8.836 2.848,-12.723 1.539,-3.896 3.748,-7.334 6.568,-10.219 2.822,-2.895 6.363,-5.203 10.516,-6.867 4.152,-1.662 9.078,-2.506 14.646,-2.506 5.568,0 10.498,0.844 14.648,2.506 4.145,1.662 7.686,3.971 10.523,6.865 2.813,2.893 5.02,6.328 6.559,10.219 1.527,3.883 2.484,8.174 2.848,12.762 0.18,3.104 0.355,6.586 0.537,10.477 0.17,3.943 0.254,25.145 0.254,29.051 0,0.643 -0.018,1.27 -0.035,1.895 -0.006,0.205 -0.012,0.408 -0.018,0.615 h 46.805 l 0.002,-0.238 c 0.01,-0.568 0.018,-1.137 0.018,-1.732 -0.002,-8.859 -0.182,-33.588 -0.535,-41.293 z" fill="#009eb9" />
      <path id="path165" d="m 366.281,253.345 c 6.84,6.565 15.277,11.789 25.084,15.523 9.803,3.742 21.309,5.638 34.201,5.638 12.717,0 24.18,-1.896 34.066,-5.638 9.893,-3.734 18.375,-8.957 25.211,-15.523 6.844,-6.575 12.201,-14.363 15.922,-23.144 1.627,-3.847 2.979,-7.928 4.021,-12.147 h -50.094 c -1.32,2.271 -2.652,4.156 -4.064,5.748 -5.457,6.157 -13.889,9.281 -25.063,9.281 -13.572,0 -17.24,-0.456 -25.189,-9.275 -1.439,-1.587 -2.756,-3.425 -4.119,-5.754 h -49.922 c 1.039,4.203 2.393,8.285 4.035,12.146 3.72,8.792 9.073,16.576 15.911,23.145 z" fill="#009eb9" />
    </g>
  </g>
</svg>
