<?xml version="1.0" encoding="UTF-8" standalone="no"?>
<svg xmlns:dc="http://purl.org/dc/elements/1.1/"
  xmlns:cc="http://creativecommons.org/ns#"
  xmlns:rdf="http://www.w3.org/1999/02/22-rdf-syntax-ns#"
  xmlns:svg="http://www.w3.org/2000/svg"
  xmlns="http://www.w3.org/2000/svg"
  xmlns:xlink="http://www.w3.org/1999/xlink" version="1.1" x="0px" y="0px" width="100%" height="100%" viewBox="0 0 850.39371 850.39371" enable-background="new 0 0 850.394 841.89" xml:space="preserve" id="svg2303">
  <metadata id="metadata2309">
    <rdf:RDF>
      <cc:Work rdf:about="">
        <dc:format>image/svg+xml</dc:format>
        <dc:type rdf:resource="http://purl.org/dc/dcmitype/StillImage" />
        <dc:title></dc:title>
      </cc:Work>
    </rdf:RDF>
  </metadata>
  <defs id="defs2307">
    <linearGradient y2="116.8174" x2="420.56351" y1="116.8174" x1="257.7666" gradientUnits="userSpaceOnUse" id="SVGID_1_">
      <stop id="stop2215" style="stop-color:#FFFFFF" offset="0" />
      <stop id="stop2217" style="stop-color:#8D7D9F" offset="0.4515" />
      <stop id="stop2219" style="stop-color:#473467" offset="1" />
    </linearGradient>
    <linearGradient gradientTransform="matrix(-1,0,0,1,1066.5762,0)" y2="116.8174" x2="634.80957" y1="116.8174" x1="472.0127" gradientUnits="userSpaceOnUse" id="SVGID_2_">
      <stop id="stop2224" style="stop-color:#FFFFFF" offset="0" />
      <stop id="stop2226" style="stop-color:#8D7D9F" offset="0.4515" />
      <stop id="stop2228" style="stop-color:#473467" offset="1" />
    </linearGradient>
    <clipPath id="SVGID_2_-4">
      <use height="100%" width="100%" y="0" x="0" xlink:href="#SVGID_1_-0" overflow="visible" id="use122" />
    </clipPath>
    <clipPath id="SVGID_4_">
      <use height="100%" width="100%" y="0" x="0" xlink:href="#SVGID_3_" overflow="visible" id="use132" />
    </clipPath>
    <path id="SVGID_1_-0" d="m 404.664,50.394 c 1.172,3.438 3.039,6.252 4.836,8.439 l -19.805,17.313 c -3.164,-1.836 -6.135,-4.258 -8.674,-7.969 l -13.156,3.746 c 0,0 -1.5,20.816 0.125,20.816 1.625,0 20.75,-1.5 22,-1.5 1.25,0 37.625,-22.125 37.625,-22.125 l 13.875,-38 c 0,0 -0.625,-12.084 -1,-12.291 -0.375,-0.209 -36.375,17.006 -36.375,17.006 z" />
    <path id="SVGID_3_" d="m 453.475,81.825 c 1.949,-1.783 5.014,-5.445 6.551,-8.467 l 18.717,21.805 0.957,1.021 c -2.836,3.092 -6.361,5.285 -9.527,6.563 l 4.693,17.242 13.125,9.75 0.375,-10.625 c 0,0 -5.125,-47.875 -5.375,-48.25 -0.25,-0.375 -24.334,-23.75 -24.334,-23.75 0,0 -13.166,1.125 -13.166,1.5 0,0.375 -9.506,10 -9.506,10 l 5.662,19.625 z" />
    <clipPath id="SVGID_2_-4-8">
      <use id="use122-9" overflow="visible" xlink:href="#SVGID_1_-0" x="0" y="0" width="100%" height="100%" />
    </clipPath>
    <clipPath id="SVGID_4_-4">
      <use id="use132-1" overflow="visible" xlink:href="#SVGID_3_" x="0" y="0" width="100%" height="100%" />
    </clipPath>
    <path d="m 404.664,50.394 c 1.172,3.438 3.039,6.252 4.836,8.439 l -19.805,17.313 c -3.164,-1.836 -6.135,-4.258 -8.674,-7.969 l -13.156,3.746 c 0,0 -1.5,20.816 0.125,20.816 1.625,0 20.75,-1.5 22,-1.5 1.25,0 37.625,-22.125 37.625,-22.125 l 13.875,-38 c 0,0 -0.625,-12.084 -1,-12.291 -0.375,-0.209 -36.375,17.006 -36.375,17.006 z" id="path300" />
    <path d="m 453.475,81.825 c 1.949,-1.783 5.014,-5.445 6.551,-8.467 l 18.717,21.805 0.957,1.021 c -2.836,3.092 -6.361,5.285 -9.527,6.563 l 4.693,17.242 13.125,9.75 0.375,-10.625 c 0,0 -5.125,-47.875 -5.375,-48.25 -0.25,-0.375 -24.334,-23.75 -24.334,-23.75 0,0 -13.166,1.125 -13.166,1.5 0,0.375 -9.506,10 -9.506,10 l 5.662,19.625 z" id="path307" />
  </defs>
  <!-- <g id="layer3">
    <g style="display:inline;fill:#ffffff;stroke:none" id="filet_3_posture" transform="translate(8.5159594,17.75001)">
      <path id="path156-3" d="m 423.727,686.071 c -3.578,-2.656 -7.801,-5.088 -11.15,-8.398 -13.408,-13.252 -29.236,-22.53 -46.699,-29.188 -18.42,-7.021 -36.83,-14.072 -55.381,-20.738 -15.076,-5.416 -30.576,-9.715 -45.467,-15.58 -11.408,-4.49 -22.871,-9.566 -33.064,-16.274 -28.578,-18.802 -44.348,-45.673 -46.42,-80.052 -0.592,-9.838 -0.324,-18.73 -0.328,-28.598 -0.021,-69.082 -0.01,-139.162 -0.014,-208.244 -0.002,-9.867 -0.061,-19.736 -0.045,-29.605 0.055,-34.955 -4.541,-68.869 -21.598,-100.176 -3.297,-6.051 -2.027,-12.834 2.666,-16.775 14.16,-11.889 28.412,-23.672 42.855,-35.214 4.063,-3.246 9.256,-3.568 13.971,-1.259 38.408,18.817 79.773,24.294 121.709,28.343 57.98,5.598 115.824,4.556 173.607,-1.464 35.643,-3.713 70.9,-9.78 103.48,-25.971 4.764,-2.368 10.232,-3.719 14.018,-0.69 16.318,13.054 32.131,26.746 47.891,40.478 1.494,1.301 1.561,4.465 1.855,6.818 0.135,1.08 -0.65,2.363 -1.236,3.438 -18.91,34.639 -23.082,72.457 -23.871,110.982 -0.201,9.863 -0.059,19.736 -0.06,29.605 -0.005,66.613 -10e-4,133.227 -0.013,199.84 0,8.636 -0.137,17.271 -0.092,25.906 0.215,39.816 -19.646,67.668 -52.666,87.246 -8.418,4.99 -17.738,8.623 -26.945,12.072 -13.85,5.189 -27.965,9.668 -41.969,14.441 -10.5,3.578 -21.084,6.93 -31.492,10.756 -42.277,15.536 -49.859,19.963 -83.542,48.301 z" stroke-miterlimit="10" stroke-width="18" stroke="#009eb9" fill="none" style="fill:#ffffff;stroke:none" />
    </g>
  </g> -->
  <g id="layer26" style="display:inline">
    <g transform="translate(8.515958,17.75001)" id="texte_posture">
      <g id="g16">
        <path fill="#473467" d="m 354.414,737.749 -6.273,17.892 c -0.979,2.793 -2.555,4.686 -4.725,5.677 -2.171,0.991 -4.678,0.987 -7.521,-0.009 -3.6,-1.263 -6.138,-3.734 -7.615,-7.418 l 4.671,-3.406 c 1.199,2.625 2.704,4.254 4.516,4.89 1.888,0.661 3.211,-0.089 3.97,-2.253 l 4.315,-12.306 -9.06,-3.177 1.906,-5.436 z" id="path2" />
        <path fill="#473467" d="m 362.323,751.198 -5.025,-1.337 2.81,-10.553 5.024,1.338 z" id="path4" />
        <path fill="#473467" d="m 385.682,767.984 -12.075,-2.002 -2.856,4.758 -7.222,-1.197 16.497,-25.647 7.222,1.197 7.061,29.553 -7.497,-1.243 z m -1.169,-5.667 -2.252,-10.874 -5.72,9.553 z" id="path6" />
        <path fill="#473467" d="m 427.097,775.834 -6.277,-0.175 -12.394,-17.593 -0.481,17.232 -6.678,-0.186 0.782,-27.99 6.277,0.176 12.433,17.635 0.482,-17.273 6.637,0.186 z" id="path8" />
        <path fill="#473467" d="m 443.719,774.515 -7.096,0.591 -2.325,-27.902 7.096,-0.592 z" id="path10" />
        <path fill="#473467" d="m 483.635,767.332 -6.14,1.324 -3.877,-17.781 -3.321,16.471 -4.535,0.979 -9.816,-13.637 3.838,17.791 -6.217,1.341 -5.914,-27.409 7.625,-1.646 10.946,14.702 3.912,-17.908 7.585,-1.636 z" id="path12" />
        <path fill="#473467" d="m 505.802,735.115 -13.788,5.376 2.02,5.181 12.447,-4.854 2.034,5.217 -12.447,4.854 2.05,5.255 14.198,-5.536 2.034,5.217 -20.832,8.123 -10.172,-26.086 20.422,-7.965 z" id="path14" />
      </g>
    </g>
  </g>
  <g id="layer25" style="display:inline">
    <g id="filet_separation_theme" transform="translate(8.5159546,17.750014)" style="display:inline;stroke:#000000">
      <line id="line19" y2="598.37299" x2="422.39301" y1="560.59003" x1="422.39301" stroke-miterlimit="10" stroke="#000000" fill="none" style="stroke:#000000" />
    </g>
  </g>
  <g id="layer24" style="display:inline">
    <g style="display:inline" id="picto_theme" transform="translate(8.51596,17.75001)">
      <g id="g26">
        <path id="path22" d="m 481.918,556.987 c 2.246,2.157 5.02,3.875 8.242,5.102 3.221,1.229 7.002,1.853 11.238,1.853 4.178,0 7.945,-0.623 11.193,-1.853 3.25,-1.227 6.039,-2.943 8.285,-5.102 2.249,-2.159 4.01,-4.719 5.231,-7.604 0.534,-1.265 0.978,-2.605 1.321,-3.992 h -16.461 c -0.434,0.747 -0.871,1.367 -1.334,1.889 -1.795,2.023 -4.565,3.051 -8.236,3.051 -4.46,0 -5.666,-0.15 -8.277,-3.049 -0.473,-0.521 -0.906,-1.125 -1.354,-1.891 h -16.404 c 0.342,1.382 0.787,2.724 1.326,3.991 1.223,2.889 2.982,5.449 5.23,7.605 z" stroke-miterlimit="10" stroke-width="2" stroke="#000000" fill="none" />
        <path id="path24" d="m 528.213,593.229 c -0.172,-3.267 -0.881,-6.391 -2.105,-9.282 -1.221,-2.881 -2.98,-5.422 -5.229,-7.551 -2.245,-2.127 -5.034,-3.843 -8.288,-5.102 -3.252,-1.256 -7.018,-1.894 -11.191,-1.894 -4.231,0 -8.013,0.638 -11.236,1.893 -3.225,1.26 -6,2.977 -8.246,5.103 -2.247,2.127 -4.006,4.668 -5.227,7.551 -1.226,2.89 -1.935,6.011 -2.107,9.284 -0.119,2.587 -0.172,10.858 -0.172,13.566 0,0.202 0.002,0.393 0.006,0.587 l 10e-4,0.061 h 15.365 l -10e-4,-0.116 c -0.004,-0.233 -0.008,-0.467 -0.008,-0.709 0,-1.283 0.014,-8.247 0.045,-9.537 0.031,-1.337 0.103,-2.471 0.217,-3.463 0.117,-1.493 0.433,-2.904 0.936,-4.181 0.506,-1.28 1.231,-2.41 2.16,-3.357 0.926,-0.95 2.09,-1.71 3.453,-2.257 1.365,-0.546 2.984,-0.823 4.814,-0.823 1.828,0 3.448,0.277 4.813,0.823 1.361,0.546 2.525,1.306 3.457,2.255 0.925,0.951 1.65,2.08 2.156,3.358 0.501,1.276 0.816,2.687 0.936,4.194 0.059,1.02 0.117,2.163 0.176,3.441 0.057,1.296 0.084,8.263 0.084,9.546 0,0.212 -0.006,0.418 -0.012,0.624 -0.002,0.066 -0.004,0.133 -0.006,0.201 h 15.379 l 0.002,-0.078 c 0.003,-0.187 0.006,-0.373 0.006,-0.569 -0.002,-2.91 -0.063,-11.035 -0.178,-13.568 z" stroke-miterlimit="10" stroke-width="2" stroke="#000000" fill="none" />
      </g>
    </g>
  </g>
  <g id="layer23" style="display:inline">
    <g style="display:inline" id="texte_picto_theme" transform="translate(8.51596,17.75001)">
      <g id="g49">
        <path id="path29" d="m 448.553,524.461 h -3.799 v 10.025 h -3.203 v -10.025 h -3.763 v -2.592 h 10.765 z" />
        <path id="path31" d="m 459.784,524.406 h -6.66 v 2.502 h 6.013 v 2.521 h -6.013 v 2.538 h 6.858 v 2.52 H 449.92 v -12.6 h 9.864 z" />
        <path id="path33" d="m 469.359,527.898 4.519,6.588 h -3.834 l -2.718,-4.014 -2.719,4.014 h -3.726 l 4.5,-6.443 -4.212,-6.156 h 3.727 l 2.43,3.672 2.43,-3.672 h 3.762 z" />
        <path id="path35" d="m 484.895,524.461 h -3.799 v 10.025 h -3.203 v -10.025 h -3.763 v -2.592 h 10.765 z" />
        <path id="path37" d="m 496.126,524.406 h -6.66 v 2.502 h 6.013 v 2.521 h -6.013 v 2.538 h 6.858 v 2.52 h -10.063 v -12.6 h 9.864 v 2.519 z" />
        <path id="path39" d="m 512.199,524.461 h -3.798 v 10.025 h -3.204 v -10.025 h -3.762 v -2.592 h 10.764 z" />
        <path id="path41" d="m 525.195,534.486 h -3.203 v -4.896 h -5.221 v 4.896 h -3.204 v -12.6 h 3.204 v 5.184 h 5.221 v -5.184 h 3.203 z" />
        <path id="path43" d="m 537.58,524.406 h -6.66 v 2.502 h 6.012 v 2.521 h -6.012 v 2.538 h 6.857 v 2.52 h -10.063 v -12.6 h 9.865 v 2.519 z m -3.312,-3.617 h -2.376 l -2.34,-2.034 2.808,-0.99 z" />
        <path id="path45" d="m 553.689,534.486 h -2.826 l -0.018,-8.189 -3.024,6.93 h -2.088 l -3.024,-6.93 v 8.189 h -2.861 v -12.617 h 3.51 l 3.42,7.506 3.42,-7.506 h 3.492 v 12.617 z" />
        <path id="path47" d="m 566.092,524.406 h -6.66 v 2.502 h 6.012 v 2.521 h -6.012 v 2.538 h 6.857 v 2.52 h -10.063 v -12.6 h 9.865 v 2.519 z" />
      </g>
    </g>
  </g>
  <g id="layer22" style="display:inline">
    <g style="display:inline" id="picto_categorie" transform="translate(8.5159598,17.750006)">
      <g id="g62">
        <circle id="circle52" r="8.75" cy="556.979" cx="359.319" stroke-miterlimit="10" stroke-width="2" stroke="#000000" fill="none" />
        <circle id="circle54" r="8.75" cy="576.479" cx="322.444" stroke-miterlimit="10" stroke-width="2" stroke="#000000" fill="none" />
        <circle id="circle56" r="8.75" cy="596.479" cx="359.319" stroke-miterlimit="10" stroke-width="2" stroke="#000000" fill="none" />
        <line id="line58" y2="571.729" x2="329.319" y1="561.229" x1="351.444" stroke-miterlimit="10" stroke-width="2" stroke="#000000" fill="none" />
        <line id="line60" y2="591.979" x2="351.819" y1="581.354" x1="330.194" stroke-miterlimit="10" stroke-width="2" stroke="#000000" fill="none" />
      </g>
    </g>
  </g>
  <g id="layer21" style="display:inline">
    <g style="display:inline" id="texte_picto_categorie" transform="translate(8.51596,17.75001)">
      <g id="g85">
        <path id="path65" d="m 279.409,521.779 c 0.936,0 1.857,0.191 2.763,0.576 0.906,0.383 1.677,0.899 2.313,1.547 l -1.854,2.196 c -0.408,-0.504 -0.897,-0.903 -1.467,-1.196 -0.57,-0.295 -1.137,-0.441 -1.701,-0.441 -0.996,0 -1.83,0.352 -2.502,1.053 -0.672,0.702 -1.008,1.569 -1.008,2.602 0,1.056 0.336,1.938 1.008,2.646 0.672,0.708 1.506,1.062 2.502,1.062 0.528,0 1.077,-0.131 1.647,-0.396 0.569,-0.264 1.077,-0.624 1.521,-1.08 l 1.872,1.979 c -0.684,0.697 -1.491,1.255 -2.421,1.675 -0.93,0.42 -1.857,0.63 -2.781,0.63 -1.896,0 -3.474,-0.618 -4.734,-1.854 -1.26,-1.236 -1.89,-2.778 -1.89,-4.627 0,-1.812 0.642,-3.326 1.926,-4.545 1.284,-1.217 2.886,-1.827 4.806,-1.827 z" />
        <path id="path67" d="m 291.72,521.779 c 1.956,0 3.582,0.609 4.878,1.826 1.296,1.219 1.944,2.739 1.944,4.563 0,1.836 -0.651,3.372 -1.953,4.608 -1.302,1.235 -2.925,1.854 -4.869,1.854 -1.944,0 -3.564,-0.615 -4.86,-1.846 -1.296,-1.229 -1.944,-2.768 -1.944,-4.616 0,-1.836 0.648,-3.36 1.944,-4.572 1.296,-1.212 2.916,-1.817 4.86,-1.817 z m 0.036,2.682 c -0.984,0 -1.824,0.357 -2.52,1.07 -0.696,0.715 -1.044,1.6 -1.044,2.656 0,1.055 0.351,1.946 1.053,2.672 0.702,0.727 1.539,1.09 2.511,1.09 0.972,0 1.797,-0.363 2.475,-1.09 0.678,-0.726 1.017,-1.617 1.017,-2.672 0,-1.057 -0.339,-1.941 -1.017,-2.656 -0.678,-0.713 -1.502,-1.07 -2.475,-1.07 z" />
        <path id="path69" d="m 314.076,534.486 h -2.826 l -0.018,-8.189 -3.024,6.93 h -2.088 l -3.024,-6.93 v 8.189 h -2.862 v -12.617 h 3.51 l 3.42,7.506 3.42,-7.506 h 3.492 z" />
        <path id="path71" d="m 330.456,534.486 h -2.826 l -0.018,-8.189 -3.024,6.93 H 322.5 l -3.024,-6.93 v 8.189 h -2.862 v -12.617 h 3.51 l 3.42,7.506 3.42,-7.506 h 3.492 z" />
        <path id="path73" d="m 344.334,521.887 v 7.309 c 0,1.668 -0.516,2.99 -1.548,3.969 -1.032,0.979 -2.43,1.467 -4.194,1.467 -1.776,0 -3.189,-0.488 -4.239,-1.467 -1.05,-0.979 -1.575,-2.301 -1.575,-3.969 v -7.309 h 3.204 v 7.309 c 0,0.84 0.243,1.509 0.729,2.006 0.486,0.498 1.119,0.748 1.899,0.748 0.768,0 1.383,-0.246 1.845,-0.738 0.461,-0.492 0.693,-1.164 0.693,-2.016 v -7.309 z" />
        <path id="path75" d="m 358.266,534.486 h -2.826 l -5.796,-7.758 v 7.758 h -3.006 v -12.6 h 2.826 l 5.814,7.775 v -7.775 h 2.988 z" />
        <path id="path77" d="m 369.156,532.165 h -5.508 l -0.918,2.321 h -3.294 l 5.436,-12.6 h 3.294 l 5.31,12.6 h -3.42 z m -0.936,-2.431 -1.8,-4.662 -1.836,4.662 z" />
        <path id="path79" d="m 385.626,521.887 v 7.309 c 0,1.668 -0.516,2.99 -1.548,3.969 -1.032,0.979 -2.43,1.467 -4.194,1.467 -1.776,0 -3.189,-0.488 -4.239,-1.467 -1.05,-0.979 -1.575,-2.301 -1.575,-3.969 v -7.309 h 3.204 v 7.309 c 0,0.84 0.243,1.509 0.729,2.006 0.486,0.498 1.119,0.748 1.899,0.748 0.768,0 1.383,-0.246 1.845,-0.738 0.461,-0.492 0.693,-1.164 0.693,-2.016 v -7.309 z" />
        <path id="path81" d="m 397.56,524.461 h -3.798 v 10.025 h -3.204 v -10.025 h -3.762 v -2.592 h 10.764 z" />
        <path id="path83" d="m 408.792,524.406 h -6.66 v 2.502 h 6.012 v 2.521 h -6.012 v 2.538 h 6.858 v 2.52 h -10.062 v -12.6 h 9.864 z m -1.728,-5.651 -2.34,2.034 h -2.376 l 1.908,-3.024 z" />
      </g>
    </g>
  </g>
  <g id="layer20" style="display:inline">
    <g style="display:inline" id="fond_categorie" transform="translate(8.51596,17.75001)">
      <path id="path88" d="m 215.604,259.2 c 0.012,4.125 0.023,8.25 0.023,12.376 v 61.897 c 0,45.065 -0.002,90.13 0.014,135.193 0.002,2.319 -0.014,4.641 -0.028,6.964 -0.043,6.485 -0.071,12.621 0.255,18.481 h 414.898 c -0.023,-4.759 0.011,-9.508 0.043,-14.105 0.023,-3.426 0.049,-6.854 0.049,-10.281 0.008,-39.52 0.008,-79.039 0.01,-118.559 l 0.002,-71.5 c 0,-2.719 -0.012,-5.438 -0.023,-8.158 -0.028,-6.688 -0.059,-13.605 0.09,-20.58 0.689,-31.975 3.781,-68.738 20.132,-104.275 -7.903,-6.486 -15.765,-12.851 -23.663,-19.044 -35.893,15.274 -73.264,20.646 -105.503,23.839 -33.761,3.344 -67.112,5.041 -99.128,5.041 -27.184,0 -54.258,-1.221 -80.471,-3.627 -39.822,-3.657 -81.889,-8.687 -122.399,-25.498 -7.401,5.696 -15.159,11.758 -23.624,18.459 13.199,27.518 19.367,58.918 19.303,97.643 -0.01,5.245 0.004,10.49 0.02,15.734 z" fill="#b7d5e2" />
    </g>
  </g>
  <g id="layer19" style="display:inline">
    <g style="display:inline" id="picto_posture" transform="translate(8.51596,17.75001)">
      <g id="g137">
        <g id="g135">
          <g id="g93">
            <path id="path91" d="m 419.258,110.465 -0.516,-0.874 c -0.004,0 -0.008,0 -0.014,-0.002 l -0.727,0.704 -1.834,-1.069 0.254,-0.982 c -0.002,-0.004 -0.004,-0.006 -0.008,-0.01 l -1.012,-0.017 -0.54,-2.054 0.875,-0.513 0.001,-0.007 -0.707,-0.73 1.068,-1.83 0.984,0.254 c 0.002,-0.002 0.004,-0.004 0.008,-0.006 l 0.016,-1.019 2.053,-0.54 0.516,0.877 c 0.004,0 0.008,10e-4 0.01,10e-4 l 0.732,-0.708 1.834,1.069 -0.256,0.987 c 0,0 0,0.002 0.002,0.004 l 1.02,0.016 0.543,2.053 -0.881,0.518 v 0.007 l 0.707,0.732 -1.068,1.833 -0.986,-0.256 c -0.002,0.002 -0.004,0.004 -0.006,0.006 l -0.018,1.016 z m -0.828,-3.023 0.309,0.104 c 0.176,0.06 0.359,0.086 0.543,0.074 l 0.314,-0.016 0.289,-0.146 c 0.166,-0.082 0.313,-0.193 0.438,-0.33 l 0.213,-0.234 0.1,-0.305 c 0.059,-0.178 0.084,-0.359 0.074,-0.541 l -0.016,-0.32 -0.145,-0.285 c -0.082,-0.165 -0.193,-0.313 -0.33,-0.436 l -0.233,-0.212 -0.308,-0.103 c -0.176,-0.059 -0.352,-0.078 -0.541,-0.074 l -0.319,0.016 -0.284,0.144 c -0.168,0.084 -0.314,0.196 -0.439,0.333 l -0.211,0.232 -0.102,0.307 c -0.059,0.176 -0.082,0.357 -0.074,0.539 l 0.016,0.318 0.145,0.287 c 0.082,0.164 0.193,0.313 0.332,0.438 z" fill="#473467" />
          </g>
          <g id="g97">
            <path id="path95" d="m 433.59,56.212 0.143,1.663 0.91,-10e-4 0.129,-1.654 c 0.205,-0.009 0.412,-0.022 0.617,-0.042 l 0.388,1.609 0.899,-0.137 -0.119,-1.638 c 0.313,-0.061 0.623,-0.131 0.93,-0.215 l 0.656,1.494 0.861,-0.293 -0.4,-1.565 c 0.207,-0.078 0.412,-0.162 0.613,-0.252 l 0.863,1.357 0.807,-0.42 -0.621,-1.462 c 0.229,-0.129 0.455,-0.266 0.677,-0.41 l 1.048,1.178 0.729,-0.546 -0.832,-1.314 c 0.199,-0.159 0.395,-0.325 0.586,-0.497 l 1.195,0.975 0.633,-0.653 -1.008,-1.142 c 0.149,-0.162 0.293,-0.33 0.434,-0.502 l 1.303,0.77 0.527,-0.74 -1.143,-0.959 c 0.114,-0.17 0.223,-0.345 0.33,-0.522 l 1.4,0.501 0.395,-0.774 -1.23,-0.782 c 0.096,-0.201 0.184,-0.404 0.268,-0.608 l 1.432,0.277 0.273,-0.824 -1.309,-0.575 c 0.078,-0.258 0.145,-0.517 0.203,-0.776 l 1.42,0.042 0.137,-0.857 -1.35,-0.348 c 0.033,-0.259 0.059,-0.518 0.074,-0.776 l 1.375,-0.179 -0.002,-0.869 -1.355,-0.127 c -0.008,-0.225 -0.023,-0.449 -0.043,-0.673 l 1.307,-0.374 -0.131,-0.859 -1.336,0.076 c -0.063,-0.338 -0.139,-0.673 -0.23,-1.004 l 1.186,-0.582 -0.28,-0.822 -1.265,0.303 c -0.086,-0.225 -0.178,-0.445 -0.275,-0.664 l 1.07,-0.746 -0.402,-0.771 -1.191,0.485 c -0.141,-0.248 -0.289,-0.491 -0.447,-0.729 l 0.92,-0.895 -0.52,-0.695 -1.082,0.66 c -0.174,-0.213 -0.354,-0.421 -0.543,-0.623 l 0.758,-1.016 -0.625,-0.604 -0.953,0.816 c -0.178,-0.157 -0.359,-0.31 -0.547,-0.458 l 0.594,-1.109 -0.707,-0.504 -0.82,0.947 c -0.191,-0.125 -0.389,-0.245 -0.59,-0.36 l 0.42,-1.178 -0.773,-0.396 -0.668,1.053 c -0.225,-0.101 -0.449,-0.195 -0.676,-0.283 l 0.239,-1.232 -0.825,-0.273 -0.504,1.147 c -0.279,-0.077 -0.561,-0.145 -0.841,-0.202 l 0.036,-1.262 -0.857,-0.137 -0.314,1.225 c -0.275,-0.029 -0.549,-0.049 -0.824,-0.06 l -0.163,-1.264 -0.87,10e-4 -0.119,1.274 c -0.232,0.014 -0.467,0.034 -0.697,0.061 l -0.356,-1.242 -0.86,0.131 0.074,1.298 c -0.34,0.072 -0.678,0.158 -1.012,0.26 l -0.58,-1.182 -0.822,0.28 0.307,1.291 c -0.215,0.088 -0.428,0.184 -0.639,0.284 l -0.768,-1.101 -0.77,0.401 0.508,1.253 c -0.234,0.142 -0.465,0.291 -0.691,0.448 l -0.954,-0.983 -0.696,0.521 0.721,1.181 c -0.195,0.168 -0.389,0.343 -0.574,0.524 l -1.125,-0.839 -0.604,0.624 0.922,1.078 c -0.141,0.164 -0.275,0.333 -0.408,0.507 l -1.266,-0.678 -0.504,0.707 1.098,0.951 c -0.111,0.181 -0.217,0.364 -0.32,0.553 l -1.359,-0.553 -0.412,0.81 1.266,0.777 c -0.092,0.213 -0.176,0.427 -0.256,0.643 l -1.451,-0.348 -0.287,0.863 1.393,0.586 c -0.068,0.263 -0.129,0.527 -0.179,0.791 l -1.522,-0.111 -0.144,0.898 1.503,0.362 c -0.025,0.255 -0.039,0.511 -0.047,0.765 l -1.555,0.136 v 0.909 l 1.574,0.121 c 0.014,0.215 0.033,0.428 0.059,0.64 l -1.552,0.372 0.137,0.899 1.602,-0.117 c 0.068,0.315 0.15,0.629 0.242,0.938 l -1.49,0.655 0.293,0.86 1.59,-0.406 c 0.082,0.2 0.17,0.398 0.263,0.594 l -1.388,0.881 0.42,0.807 1.521,-0.646 c 0.131,0.219 0.268,0.434 0.412,0.645 l -1.24,1.104 0.545,0.729 1.41,-0.892 c 0.156,0.186 0.318,0.367 0.485,0.544 l -1.058,1.298 0.652,0.633 1.26,-1.111 c 0.154,0.133 0.312,0.263 0.473,0.389 l -0.857,1.45 0.74,0.528 1.084,-1.293 c 0.162,0.104 0.328,0.203 0.497,0.3 l -0.64,1.571 0.811,0.414 0.885,-1.445 c 0.195,0.088 0.391,0.171 0.588,0.248 l -0.393,1.644 0.863,0.286 0.652,-1.553 c 0.244,0.07 0.49,0.131 0.736,0.185 l -0.123,1.677 0.898,0.142 0.392,-1.625 c 0.242,0.026 0.486,0.045 0.728,0.059 z m -0.439,-2.608 1.091,-6.288 c 1.078,-0.028 2.109,-0.617 2.654,-1.636 l -0.281,0.527 5.572,2.983 c -1.952,3.157 -5.513,4.793 -9.036,4.414 z m 9.564,-5.385 -5.578,-2.986 -0.24,0.448 c 0.543,-1.014 0.465,-2.193 -0.104,-3.104 l 4.67,-4.348 c 2.248,2.741 2.832,6.621 1.252,9.99 z m -9.666,-4.598 c 0.33,-0.616 1.096,-0.848 1.713,-0.518 0.615,0.329 0.846,1.096 0.518,1.711 -0.33,0.616 -1.096,0.848 -1.712,0.519 -0.617,-0.33 -0.847,-1.097 -0.519,-1.712 z m 5.57,-7.725 c 0.784,0.42 1.482,0.934 2.094,1.52 l -4.664,4.344 c -0.131,-0.102 -0.271,-0.193 -0.422,-0.273 -0.685,-0.367 -1.445,-0.449 -2.148,-0.289 l -2.613,-5.822 c 2.451,-0.915 5.267,-0.812 7.753,0.52 z m -12.777,3.866 c 0.941,-1.758 2.361,-3.097 4.012,-3.942 l 2.607,5.809 c -0.42,0.274 -0.777,0.654 -1.029,1.127 -0.221,0.41 -0.338,0.849 -0.361,1.285 l -6.311,0.99 c -0.155,-1.764 0.183,-3.592 1.082,-5.269 z m 3.867,12.778 c -2.568,-1.376 -4.242,-3.77 -4.789,-6.416 l 6.285,-0.986 c 0.232,0.75 0.748,1.412 1.496,1.813 0.146,0.078 0.295,0.144 0.447,0.196 l -1.088,6.276 c -0.8,-0.185 -1.591,-0.477 -2.351,-0.883 z" fill="#473467" />
          </g>
          <g id="g101">
            <path id="path99" d="m 422.817,65.472 c 0.466,0.081 0.944,0.093 1.431,0.027 l 0.826,0.955 c 0.232,-0.059 0.457,-0.131 0.684,-0.217 0.225,-0.09 0.443,-0.192 0.648,-0.304 l -0.037,-1.264 c 0.398,-0.283 0.743,-0.62 1.029,-0.991 l 1.264,0.085 c 0.244,-0.411 0.434,-0.849 0.574,-1.308 l -0.926,-0.867 c 0.076,-0.467 0.091,-0.948 0.029,-1.426 l 0.953,-0.831 c -0.061,-0.228 -0.131,-0.456 -0.217,-0.68 -0.09,-0.226 -0.193,-0.44 -0.303,-0.647 l -1.266,0.04 c -0.279,-0.397 -0.617,-0.742 -0.988,-1.03 l 0.088,-1.265 c -0.411,-0.239 -0.85,-0.433 -1.307,-0.569 l -0.873,0.92 c -0.463,-0.079 -0.942,-0.092 -1.428,-0.027 l -0.832,-0.953 c -0.223,0.058 -0.455,0.13 -0.68,0.216 -0.225,0.089 -0.439,0.192 -0.65,0.304 l 0.045,1.264 c -0.404,0.285 -0.746,0.617 -1.033,0.994 l -1.262,-0.086 c -0.244,0.408 -0.434,0.85 -0.574,1.305 l 0.924,0.868 c -0.08,0.468 -0.09,0.944 -0.025,1.429 l -0.957,0.828 c 0.061,0.229 0.131,0.456 0.221,0.682 0.086,0.225 0.191,0.439 0.301,0.646 l 1.264,-0.039 c 0.279,0.395 0.613,0.74 0.99,1.029 l -0.088,1.262 c 0.41,0.245 0.85,0.436 1.309,0.572 z m -2.84,-4.84 c 0.084,-2.015 1.787,-3.578 3.803,-3.493 2.014,0.085 3.578,1.788 3.492,3.803 -0.084,2.015 -1.786,3.579 -3.803,3.493 -2.014,-0.085 -3.578,-1.788 -3.492,-3.803 z" fill="#473467" />
          </g>
          <g id="g105">
            <path id="path103" d="m 416.693,115.938 1.256,0.229 0.74,-1.592 c 0.395,0.02 0.789,0.012 1.18,-0.023 l 0.801,1.563 1.246,-0.276 0.063,-1.757 c 0.336,-0.121 0.664,-0.265 0.982,-0.429 l 1.332,1.146 1.049,-0.727 -0.602,-1.648 c 0.289,-0.262 0.563,-0.545 0.818,-0.852 l 1.688,0.551 0.686,-1.076 -1.215,-1.297 c 0.154,-0.328 0.285,-0.66 0.394,-0.999 l 1.75,-0.131 0.228,-1.255 -1.592,-0.74 c 0.02,-0.395 0.012,-0.789 -0.023,-1.18 l 1.563,-0.802 -0.275,-1.245 -1.756,-0.063 c -0.123,-0.335 -0.266,-0.663 -0.43,-0.982 l 1.146,-1.331 -0.727,-1.049 -1.648,0.602 c -0.262,-0.289 -0.545,-0.563 -0.852,-0.818 l 0.551,-1.688 -1.076,-0.685 -1.297,1.214 c -0.328,-0.153 -0.66,-0.284 -0.998,-0.393 l -0.131,-1.75 -1.256,-0.229 -0.74,1.592 c -0.394,-0.019 -0.789,-0.012 -1.18,0.024 l -0.801,-1.564 -1.246,0.277 -0.063,1.756 c -0.336,0.121 -0.664,0.265 -0.982,0.428 l -1.332,-1.146 -1.049,0.727 0.602,1.648 c -0.289,0.262 -0.563,0.545 -0.818,0.852 l -1.688,-0.55 -0.686,1.076 1.215,1.297 c -0.154,0.327 -0.284,0.66 -0.393,0.998 l -1.75,0.131 -0.229,1.256 1.592,0.74 c -0.02,0.394 -0.012,0.788 0.023,1.179 l -1.564,0.802 0.277,1.246 1.756,0.063 c 0.121,0.336 0.264,0.664 0.428,0.982 l -1.145,1.331 0.725,1.05 1.65,-0.603 c 0.261,0.289 0.545,0.563 0.852,0.818 l -0.55,1.688 1.075,0.685 1.297,-1.214 c 0.328,0.154 0.66,0.284 0.998,0.393 z m -4.797,-10.047 c 0.17,-3.988 3.539,-7.084 7.527,-6.915 3.988,0.17 7.084,3.539 6.916,7.527 -0.17,3.988 -3.539,7.084 -7.527,6.915 -3.988,-0.169 -7.083,-3.539 -6.916,-7.527 z" fill="#473467" />
          </g>
          <g id="g109">
            <path id="path107" d="m 427.096,98.83 1.947,0.679 1.578,-2.356 c 0.623,0.13 1.254,0.214 1.887,0.255 l 0.891,2.694 2.057,-0.132 0.537,-2.786 c 0.566,-0.11 1.125,-0.257 1.676,-0.438 l 1.838,2.16 1.855,-0.898 -0.551,-2.779 c 0.527,-0.346 1.033,-0.73 1.518,-1.156 l 2.557,1.299 1.361,-1.548 -1.615,-2.37 c 0.328,-0.484 0.619,-0.984 0.875,-1.496 l 2.826,0.227 0.678,-1.945 -2.356,-1.578 c 0.13,-0.624 0.214,-1.256 0.255,-1.889 l 2.695,-0.889 -0.133,-2.058 -2.787,-0.538 c -0.109,-0.564 -0.256,-1.124 -0.438,-1.674 l 2.158,-1.838 -0.896,-1.855 -2.779,0.551 c -0.346,-0.527 -0.73,-1.035 -1.156,-1.518 l 1.299,-2.558 -1.549,-1.361 -2.369,1.614 c -0.484,-0.326 -0.984,-0.617 -1.496,-0.874 l 0.227,-2.825 -1.946,-0.678 -1.577,2.356 c -0.625,-0.13 -1.256,-0.215 -1.889,-0.256 l -0.889,-2.694 -2.059,0.132 -0.537,2.786 c -0.564,0.11 -1.125,0.257 -1.674,0.439 l -1.837,-2.16 -1.856,0.897 0.551,2.78 c -0.527,0.346 -1.035,0.73 -1.518,1.155 l -2.559,-1.298 -1.361,1.548 1.615,2.37 c -0.326,0.484 -0.617,0.984 -0.875,1.496 l -2.824,-0.228 -0.678,1.946 2.355,1.578 c -0.129,0.624 -0.215,1.255 -0.256,1.889 l -2.693,0.889 0.133,2.057 2.785,0.538 c 0.109,0.565 0.256,1.124 0.439,1.674 l -2.16,1.838 0.896,1.855 2.781,-0.55 c 0.346,0.526 0.73,1.034 1.156,1.518 l -1.299,2.558 1.547,1.36 2.371,-1.613 c 0.484,0.326 0.984,0.617 1.496,0.873 z m -3.198,-16.836 c 1.048,-5.242 6.145,-8.643 11.387,-7.596 5.243,1.047 8.643,6.145 7.596,11.386 -1.047,5.242 -6.144,8.643 -11.387,7.596 -5.24,-1.046 -8.642,-6.145 -7.596,-11.386 z" fill="#473467" />
          </g>
          <g id="g113">
            <path id="path111" d="m 412.342,96.345 0.854,1.346 1.162,-0.348 -0.027,-1.597 c 0.533,-0.292 1.014,-0.681 1.412,-1.152 l 1.561,0.349 0.574,-1.067 -1.15,-1.112 c 0.178,-0.604 0.234,-1.217 0.186,-1.812 l 1.35,-0.858 -0.348,-1.161 -1.602,0.026 c -0.291,-0.531 -0.678,-1.01 -1.146,-1.408 l 0.348,-1.563 -1.066,-0.575 -1.113,1.15 c -0.607,-0.178 -1.221,-0.235 -1.818,-0.186 l -0.855,-1.348 -1.16,0.348 0.026,1.599 c -0.534,0.293 -1.015,0.682 -1.414,1.153 l -1.556,-0.347 -0.574,1.067 1.146,1.108 c -0.178,0.604 -0.234,1.215 -0.186,1.808 l -1.344,0.854 0.348,1.161 1.59,-0.026 c 0.293,0.536 0.682,1.019 1.155,1.421 l -0.347,1.553 1.066,0.575 1.107,-1.145 c 0.606,0.179 1.221,0.237 1.821,0.187 z m -1.871,-5.047 c 0.035,-0.807 0.715,-1.432 1.521,-1.398 0.807,0.034 1.434,0.716 1.398,1.523 -0.033,0.805 -0.715,1.431 -1.521,1.396 -0.806,-0.035 -1.431,-0.715 -1.398,-1.521 z" fill="#473467" />
          </g>
          <g id="g117">
            <path id="path115" d="m 404.297,83.844 0.107,1.709 0.918,0.021 0.172,-1.702 c 0.215,-0.005 0.43,-0.016 0.643,-0.032 l 0.363,1.668 0.91,-0.119 -0.086,-1.697 c 0.252,-0.045 0.502,-0.096 0.75,-0.155 l 0.623,1.577 0.881,-0.264 -0.357,-1.65 c 0.232,-0.08 0.461,-0.168 0.688,-0.263 l 0.861,1.45 0.826,-0.4 -0.608,-1.561 c 0.185,-0.099 0.364,-0.201 0.544,-0.309 l 1.057,1.293 0.76,-0.519 -0.828,-1.438 c 0.259,-0.191 0.51,-0.393 0.752,-0.603 l 1.252,1.072 0.654,-0.646 -1.049,-1.247 c 0.152,-0.163 0.303,-0.329 0.447,-0.499 l 1.379,0.856 0.551,-0.736 -1.207,-1.057 c 0.152,-0.218 0.297,-0.441 0.437,-0.67 l 1.468,0.61 0.424,-0.814 -1.332,-0.831 c 0.111,-0.232 0.217,-0.469 0.314,-0.709 l 1.516,0.362 0.289,-0.872 -1.418,-0.596 c 0.064,-0.213 0.121,-0.43 0.174,-0.646 l 1.522,0.129 0.155,-0.905 -1.461,-0.37 c 0.029,-0.205 0.053,-0.412 0.072,-0.621 l 1.492,-0.158 0.02,-0.877 -1.461,-0.172 c -0.002,-0.225 -0.01,-0.449 -0.022,-0.672 l 1.423,-0.375 -0.113,-0.869 -1.441,0.051 c -0.043,-0.269 -0.096,-0.533 -0.156,-0.796 l 1.309,-0.583 -0.252,-0.841 -1.379,0.275 c -0.082,-0.249 -0.174,-0.496 -0.273,-0.738 l 1.173,-0.766 -0.382,-0.79 -1.289,0.48 c -0.105,-0.201 -0.219,-0.399 -0.334,-0.594 l 1.023,-0.913 -0.496,-0.725 -1.18,0.655 c -0.205,-0.28 -0.422,-0.551 -0.65,-0.813 l 0.822,-1.049 -0.615,-0.625 -1.018,0.829 c -0.176,-0.166 -0.357,-0.327 -0.541,-0.482 l 0.646,-1.147 -0.703,-0.525 -0.871,0.963 c -0.236,-0.163 -0.479,-0.319 -0.729,-0.467 l 0.445,-1.215 -0.777,-0.405 -0.695,1.075 c -0.25,-0.118 -0.506,-0.229 -0.766,-0.33 l 0.244,-1.255 -0.834,-0.276 -0.509,1.162 c -0.229,-0.065 -0.462,-0.125 -0.698,-0.178 l 0.055,-1.27 -0.865,-0.148 -0.33,1.221 c -0.23,-0.028 -0.463,-0.052 -0.695,-0.067 l -0.134,-1.257 -0.878,-0.02 -0.146,1.251 c -0.248,0.006 -0.494,0.019 -0.738,0.038 l -0.321,-1.226 -0.871,0.113 0.044,1.265 c -0.287,0.051 -0.572,0.113 -0.854,0.185 l -0.52,-1.163 -0.839,0.252 0.25,1.25 c -0.263,0.095 -0.522,0.197 -0.774,0.308 l -0.705,-1.077 -0.789,0.382 0.451,1.211 c -0.207,0.115 -0.41,0.236 -0.609,0.362 l -0.869,-0.975 -0.725,0.496 0.637,1.148 c -0.277,0.215 -0.547,0.441 -0.807,0.68 l -1.047,-0.82 -0.625,0.615 0.848,1.039 c -0.158,0.176 -0.311,0.355 -0.457,0.54 l -1.182,-0.665 -0.523,0.703 1.012,0.916 c -0.152,0.231 -0.296,0.469 -0.432,0.711 l -1.301,-0.476 -0.404,0.778 1.175,0.758 c -0.106,0.239 -0.204,0.482 -0.294,0.729 l -1.391,-0.27 -0.275,0.833 1.311,0.576 c -0.055,0.21 -0.104,0.423 -0.148,0.639 l -1.449,-0.062 -0.148,0.865 1.416,0.383 c -0.021,0.213 -0.037,0.428 -0.049,0.644 l -1.479,0.093 -0.02,0.918 1.492,0.151 c 0.01,0.233 0.025,0.466 0.049,0.696 l -1.474,0.322 0.118,0.909 1.523,-0.077 c 0.053,0.269 0.113,0.535 0.184,0.798 l -1.434,0.566 0.264,0.88 1.525,-0.33 c 0.09,0.243 0.189,0.482 0.293,0.717 l -1.354,0.805 0.398,0.827 1.486,-0.58 c 0.105,0.188 0.217,0.374 0.332,0.556 l -1.242,1.018 0.52,0.758 1.406,-0.81 c 0.201,0.257 0.41,0.507 0.631,0.747 l -1.068,1.25 0.645,0.654 1.268,-1.066 c 0.162,0.145 0.328,0.286 0.498,0.424 l -0.875,1.41 0.734,0.549 1.102,-1.256 c 0.215,0.143 0.434,0.277 0.658,0.406 l -0.645,1.549 0.814,0.423 0.893,-1.429 c 0.223,0.1 0.45,0.194 0.68,0.281 l -0.394,1.646 0.872,0.287 0.658,-1.563 c 0.197,0.054 0.396,0.103 0.6,0.146 l -0.145,1.695 0.904,0.155 0.42,-1.651 c 0.191,0.029 0.385,0.046 0.582,0.061 z m -8.969,-12.487 c 0.23,-5.437 4.825,-9.657 10.262,-9.427 5.438,0.23 9.658,4.824 9.428,10.262 -0.23,5.438 -4.825,9.658 -10.262,9.428 -5.438,-0.23 -9.658,-4.825 -9.428,-10.263 z" fill="#473467" />
          </g>
          <g id="g121">
            <path id="path119" d="m 403.607,78.057 0.811,0.147 0.477,-1.026 c 0.256,0.013 0.51,0.008 0.762,-0.015 l 0.516,1.008 0.805,-0.179 0.041,-1.132 c 0.215,-0.079 0.428,-0.171 0.633,-0.276 l 0.857,0.738 0.678,-0.468 -0.389,-1.063 c 0.186,-0.169 0.363,-0.353 0.527,-0.55 l 1.088,0.354 0.441,-0.693 -0.781,-0.836 c 0.098,-0.211 0.184,-0.427 0.252,-0.645 l 1.129,-0.084 0.148,-0.81 -1.027,-0.478 c 0.014,-0.254 0.008,-0.508 -0.016,-0.76 l 1.009,-0.518 -0.179,-0.803 -1.133,-0.041 c -0.078,-0.217 -0.17,-0.428 -0.275,-0.633 l 0.738,-0.858 -0.469,-0.677 -1.063,0.389 c -0.168,-0.188 -0.352,-0.363 -0.549,-0.528 l 0.355,-1.089 -0.695,-0.441 -0.836,0.783 c -0.211,-0.1 -0.426,-0.184 -0.643,-0.254 l -0.085,-1.128 -0.81,-0.147 -0.477,1.026 c -0.256,-0.013 -0.51,-0.007 -0.762,0.016 l -0.516,-1.009 -0.805,0.18 -0.041,1.132 c -0.215,0.078 -0.428,0.171 -0.633,0.276 l -0.857,-0.739 -0.678,0.468 0.389,1.063 c -0.186,0.169 -0.363,0.352 -0.527,0.549 l -1.09,-0.354 -0.441,0.694 0.783,0.836 c -0.1,0.211 -0.184,0.426 -0.252,0.644 l -1.129,0.084 -0.148,0.81 1.027,0.478 c -0.014,0.254 -0.008,0.508 0.016,0.761 l -1.008,0.517 0.178,0.803 1.133,0.041 c 0.078,0.217 0.17,0.428 0.275,0.634 l -0.738,0.858 0.467,0.677 1.064,-0.389 c 0.168,0.187 0.352,0.363 0.549,0.527 l -0.355,1.089 0.695,0.441 0.836,-0.782 c 0.211,0.099 0.426,0.183 0.643,0.253 z m -2.863,-6.468 c 0.104,-2.446 2.17,-4.344 4.616,-4.24 2.444,0.104 4.343,2.17 4.239,4.615 -0.105,2.444 -2.17,4.342 -4.615,4.238 -2.445,-0.104 -4.343,-2.17 -4.24,-4.613 z" fill="#473467" />
          </g>
          <g id="g125">
            <path id="path123" d="m 454.254,77.856 0.102,1.161 0.635,-10e-4 0.09,-1.154 c 0.143,-0.006 0.287,-0.016 0.43,-0.029 l 0.271,1.123 0.627,-0.096 -0.082,-1.143 c 0.217,-0.042 0.434,-0.092 0.648,-0.15 l 0.457,1.043 0.602,-0.204 -0.279,-1.093 c 0.145,-0.055 0.287,-0.113 0.428,-0.176 l 0.602,0.947 0.564,-0.293 -0.436,-1.02 c 0.162,-0.091 0.318,-0.186 0.473,-0.287 l 0.732,0.821 0.508,-0.38 -0.58,-0.917 c 0.139,-0.111 0.276,-0.228 0.408,-0.348 l 0.834,0.681 0.443,-0.456 -0.703,-0.796 c 0.104,-0.114 0.203,-0.23 0.301,-0.352 l 0.909,0.538 0.368,-0.517 -0.797,-0.668 c 0.078,-0.12 0.156,-0.242 0.23,-0.366 l 0.977,0.35 0.275,-0.54 -0.859,-0.546 c 0.068,-0.141 0.129,-0.282 0.188,-0.425 l 0.998,0.193 0.191,-0.575 -0.912,-0.401 c 0.053,-0.18 0.1,-0.359 0.143,-0.541 l 0.989,0.029 0.095,-0.598 -0.941,-0.244 c 0.023,-0.18 0.041,-0.36 0.053,-0.541 l 0.959,-0.125 -10e-4,-0.606 -0.946,-0.088 c -0.006,-0.157 -0.016,-0.313 -0.029,-0.47 l 0.91,-0.262 -0.09,-0.6 -0.932,0.054 c -0.045,-0.235 -0.098,-0.47 -0.162,-0.7 l 0.828,-0.406 -0.195,-0.574 -0.883,0.211 c -0.061,-0.156 -0.124,-0.311 -0.193,-0.463 l 0.748,-0.52 -0.281,-0.539 -0.83,0.338 c -0.1,-0.173 -0.203,-0.342 -0.313,-0.508 l 0.641,-0.623 -0.363,-0.486 -0.754,0.461 c -0.121,-0.148 -0.246,-0.294 -0.379,-0.436 l 0.529,-0.707 -0.436,-0.423 -0.666,0.57 c -0.123,-0.11 -0.25,-0.217 -0.381,-0.319 l 0.414,-0.775 -0.494,-0.352 -0.572,0.661 c -0.135,-0.087 -0.271,-0.171 -0.412,-0.251 l 0.295,-0.822 -0.541,-0.275 -0.467,0.734 c -0.156,-0.07 -0.313,-0.137 -0.471,-0.197 l 0.166,-0.859 -0.574,-0.191 -0.352,0.801 c -0.195,-0.055 -0.393,-0.102 -0.588,-0.142 l 0.026,-0.88 -0.599,-0.096 -0.221,0.854 c -0.191,-0.02 -0.383,-0.033 -0.574,-0.041 l -0.115,-0.881 h -0.605 l -0.084,0.889 c -0.162,0.01 -0.324,0.024 -0.486,0.043 l -0.248,-0.867 -0.6,0.092 0.051,0.905 c -0.238,0.051 -0.473,0.111 -0.705,0.182 l -0.406,-0.825 -0.574,0.195 0.215,0.901 c -0.15,0.062 -0.298,0.128 -0.445,0.198 l -0.535,-0.768 -0.539,0.28 0.355,0.874 c -0.164,0.099 -0.324,0.203 -0.482,0.313 l -0.666,-0.686 -0.485,0.363 0.503,0.823 c -0.137,0.117 -0.271,0.239 -0.4,0.366 l -0.785,-0.586 -0.422,0.437 0.644,0.752 c -0.099,0.114 -0.192,0.232 -0.284,0.353 l -0.883,-0.473 -0.354,0.494 0.768,0.664 c -0.078,0.125 -0.152,0.254 -0.225,0.385 l -0.947,-0.386 -0.289,0.565 0.885,0.542 c -0.064,0.148 -0.125,0.298 -0.18,0.448 l -1.014,-0.242 -0.199,0.603 0.973,0.409 c -0.049,0.184 -0.09,0.367 -0.125,0.551 l -1.063,-0.076 -0.102,0.627 1.049,0.252 c -0.016,0.178 -0.027,0.355 -0.031,0.534 l -1.086,0.094 0.002,0.635 1.098,0.085 c 0.01,0.15 0.023,0.298 0.041,0.446 l -1.08,0.26 0.096,0.628 1.119,-0.082 c 0.047,0.221 0.104,0.439 0.168,0.654 l -1.039,0.457 0.205,0.602 1.109,-0.284 c 0.057,0.14 0.117,0.277 0.182,0.414 l -0.969,0.614 0.295,0.564 1.061,-0.453 c 0.092,0.153 0.188,0.303 0.289,0.45 l -0.867,0.771 0.381,0.508 0.984,-0.622 c 0.109,0.13 0.221,0.256 0.338,0.38 l -0.738,0.905 0.457,0.441 0.879,-0.775 c 0.105,0.093 0.217,0.184 0.328,0.271 l -0.598,1.012 0.516,0.369 0.758,-0.902 c 0.113,0.072 0.229,0.142 0.346,0.209 l -0.445,1.097 0.564,0.288 0.619,-1.008 c 0.136,0.062 0.271,0.119 0.408,0.173 l -0.272,1.147 0.603,0.199 0.455,-1.083 c 0.17,0.048 0.342,0.091 0.514,0.128 l -0.086,1.17 0.627,0.1 0.273,-1.134 c 0.163,0.023 0.333,0.037 0.501,0.045 z m -0.305,-1.818 0.762,-4.389 c 0.752,-0.02 1.471,-0.431 1.852,-1.141 l -0.197,0.367 3.889,2.082 c -1.362,2.202 -3.847,3.345 -6.306,3.081 z m 6.674,-3.759 -3.893,-2.083 -0.168,0.313 c 0.38,-0.708 0.324,-1.531 -0.072,-2.166 l 3.26,-3.035 c 1.567,1.913 1.975,4.621 0.873,6.971 z m -6.744,-3.208 c 0.229,-0.43 0.764,-0.592 1.193,-0.361 0.43,0.229 0.592,0.765 0.361,1.193 -0.23,0.431 -0.764,0.592 -1.193,0.361 -0.429,-0.229 -0.592,-0.763 -0.361,-1.193 z m 3.887,-5.39 c 0.547,0.292 1.033,0.651 1.459,1.061 l -3.252,3.029 c -0.092,-0.07 -0.191,-0.134 -0.295,-0.189 -0.479,-0.256 -1.01,-0.314 -1.5,-0.202 l -1.824,-4.063 c 1.71,-0.638 3.675,-0.566 5.412,0.364 z m -8.916,2.697 c 0.656,-1.227 1.646,-2.16 2.799,-2.751 l 1.818,4.054 c -0.291,0.191 -0.541,0.456 -0.717,0.787 -0.154,0.285 -0.236,0.591 -0.254,0.896 l -4.402,0.69 c -0.108,-1.231 0.129,-2.504 0.756,-3.676 z m 2.697,8.916 c -1.793,-0.959 -2.959,-2.63 -3.342,-4.477 l 4.387,-0.688 c 0.162,0.523 0.521,0.985 1.043,1.265 0.103,0.055 0.207,0.1 0.313,0.137 l -0.76,4.379 c -0.559,-0.128 -1.11,-0.332 -1.641,-0.616 z" fill="#473467" />
          </g>
          <g id="g129">
            <path id="path127" d="m 437.232,109.229 c 0.342,-0.24 0.648,-0.532 0.912,-0.876 l 1.113,0.082 c 0.109,-0.182 0.203,-0.366 0.291,-0.562 0.086,-0.196 0.158,-0.397 0.217,-0.595 l -0.813,-0.768 c 0.073,-0.426 0.078,-0.853 0.027,-1.263 l 0.844,-0.735 c -0.104,-0.408 -0.26,-0.8 -0.457,-1.175 l -1.121,0.033 c -0.242,-0.338 -0.533,-0.649 -0.871,-0.91 l 0.078,-1.114 c -0.18,-0.104 -0.365,-0.204 -0.559,-0.29 -0.197,-0.085 -0.396,-0.156 -0.594,-0.215 l -0.768,0.813 c -0.422,-0.073 -0.848,-0.078 -1.26,-0.027 l -0.734,-0.847 c -0.408,0.108 -0.802,0.261 -1.174,0.459 l 0.029,1.12 c -0.34,0.239 -0.648,0.531 -0.91,0.874 l -1.117,-0.077 c -0.104,0.176 -0.203,0.365 -0.289,0.559 -0.086,0.197 -0.156,0.396 -0.218,0.597 l 0.817,0.762 c -0.076,0.431 -0.082,0.852 -0.026,1.267 l -0.845,0.733 c 0.102,0.407 0.258,0.803 0.455,1.175 l 1.119,-0.033 c 0.242,0.343 0.533,0.647 0.875,0.91 l -0.082,1.115 c 0.182,0.105 0.367,0.203 0.564,0.289 0.193,0.086 0.395,0.155 0.59,0.216 l 0.768,-0.813 c 0.422,0.073 0.847,0.08 1.262,0.026 l 0.732,0.845 c 0.41,-0.104 0.803,-0.259 1.176,-0.459 z m -4.796,-1.255 c -1.203,-1.314 -1.113,-3.355 0.199,-4.559 1.314,-1.203 3.355,-1.114 4.559,0.2 1.203,1.313 1.113,3.354 -0.199,4.558 -1.315,1.204 -3.356,1.114 -4.559,-0.199 z" fill="#473467" />
          </g>
          <g id="g133">
            <path id="path131" d="m 403.164,56.903 0.504,0.092 0.299,-0.641 c 0.158,0.008 0.316,0.005 0.476,-0.01 l 0.321,0.629 0.502,-0.111 0.025,-0.706 c 0.135,-0.049 0.266,-0.106 0.395,-0.173 l 0.535,0.461 0.422,-0.292 -0.241,-0.663 c 0.116,-0.105 0.226,-0.219 0.329,-0.343 l 0.68,0.222 0.275,-0.434 -0.488,-0.521 c 0.061,-0.132 0.113,-0.266 0.156,-0.401 l 0.705,-0.053 0.093,-0.505 -0.642,-0.298 c 0.008,-0.158 0.006,-0.317 -0.01,-0.475 l 0.629,-0.322 -0.111,-0.501 -0.705,-0.025 c -0.051,-0.135 -0.107,-0.268 -0.174,-0.396 l 0.461,-0.536 -0.291,-0.422 -0.664,0.242 c -0.105,-0.116 -0.219,-0.227 -0.342,-0.329 l 0.221,-0.679 -0.434,-0.276 -0.521,0.489 c -0.132,-0.063 -0.267,-0.115 -0.401,-0.158 l -0.053,-0.704 -0.505,-0.093 -0.298,0.641 c -0.159,-0.008 -0.318,-0.004 -0.475,0.01 l -0.322,-0.629 -0.502,0.111 -0.025,0.707 c -0.135,0.049 -0.268,0.106 -0.395,0.172 l -0.537,-0.461 -0.422,0.292 0.242,0.663 c -0.115,0.105 -0.226,0.22 -0.328,0.343 l -0.68,-0.222 -0.275,0.434 0.488,0.521 c -0.063,0.132 -0.115,0.266 -0.158,0.402 l -0.703,0.053 -0.094,0.504 0.641,0.299 c -0.008,0.158 -0.004,0.316 0.011,0.475 l -0.63,0.322 0.111,0.501 0.707,0.025 c 0.049,0.135 0.105,0.267 0.172,0.396 l -0.461,0.535 0.293,0.422 0.662,-0.242 c 0.105,0.117 0.221,0.227 0.344,0.329 l -0.223,0.68 0.434,0.275 0.521,-0.488 c 0.133,0.062 0.266,0.114 0.402,0.157 z m -1.434,-4.021 c 0.057,-1.331 1.18,-2.363 2.512,-2.307 1.33,0.057 2.361,1.18 2.307,2.511 -0.057,1.33 -1.182,2.363 -2.512,2.307 -1.33,-0.056 -2.363,-1.181 -2.307,-2.511 z" fill="#473467" />
          </g>
        </g>
      </g>
    </g>
  </g>
  <g id="layer18" style="display:inline">
    <g style="display:inline" id="filet_1_categorie" transform="translate(8.5159617,17.75001)">
      <g id="g144">
        <path id="path140" d="m 485.031,79.829 c 0.564,-0.087 1.145,-0.219 1.742,-0.356 1.131,-0.259 2.296,-0.53 3.512,-0.505 9.924,0.181 18.764,-3.279 28.471,-7.482 10.715,-4.64 20.693,-10.77 29.656,-18.22 7.45,-6.19 8.285,-5.78 15.035,0.561 l 0.211,0.198 c 6.084,5.715 12.303,11.491 18.316,17.078 2.799,2.601 5.6,5.201 8.396,7.807 2.492,2.318 4.986,4.634 7.482,6.949 3.805,3.528 7.611,7.058 11.4,10.604 l 0.729,0.684" stroke-miterlimit="10" stroke-width="2" stroke="#473467" fill="none" />
        <path id="path142" d="m 239.355,94.729 0.73,-0.684 c 4.51,-4.227 9.033,-8.441 13.563,-12.649 12.65,-11.761 22.352,-20.735 31.453,-29.099 4.971,-4.567 6.242,-4.609 11.336,-0.373 11.143,9.264 23.904,16.771 39.01,22.95 4.484,1.834 9.541,2.648 14.432,3.437 l 1.668,0.27 c 1.131,0.186 2.264,0.383 3.4,0.58 5.254,0.914 10.686,1.859 15.915,1.604" stroke-miterlimit="10" stroke-width="2" stroke="#473467" fill="none" />
      </g>
      <g id="g150">
        <g id="g148">
          <path id="path146" d="m 176.74,288.601 -3.291,7.958 c -2.627,8.694 -6.291,17.376 -8.953,26.06 -3.949,12.877 -8.031,26.189 -11.927,39.318 -2.396,8.066 -4.13,16.215 -5.373,22.412 -1.125,5.619 -2.106,11.371 -3.056,16.936 -0.682,4.01 -1.389,8.158 -2.146,12.229 -4.459,23.971 -8.375,47.469 -7.343,71.412 0.226,5.262 1.036,10.611 1.821,15.785 0.676,4.467 -1.821,-15.785 1.707,13.672 2.578,21.514 8.121,42.711 20.045,64.506 15.025,27.467 38.166,50.072 70.75,69.108 26.006,15.196 54.709,25.343 82.469,35.157 4.111,1.453 8.223,2.906 12.324,4.377 8.934,3.197 18.137,6.158 27.035,9.023 12.988,4.18 26.42,8.501 39.291,13.65 11.279,4.51 25.209,11.689 33.635,27.387 0.607,-0.518 1.164,-0.99 1.686,-1.432 1.482,-1.256 2.653,-2.246 3.764,-3.287 1.58,-1.479 3.14,-3.064 4.646,-4.598 3.105,-3.16 6.314,-6.428 9.967,-9.025 12.383,-8.82 26.73,-13.781 40.607,-18.578 3.598,-1.244 7.318,-2.529 10.939,-3.861 12.74,-4.686 25.504,-8.912 37.934,-12.564 24.066,-7.07 48.123,-16.396 71.505,-27.719 27.573,-13.352 49.476,-29.318 66.954,-48.812 17.502,-19.522 29.746,-42.952 36.391,-69.638 8.014,-32.188 8.85,-67.656 2.635,-111.619 -1.211,-8.563 -3.103,-17.195 -4.935,-25.543 -0.632,-2.879 -1.265,-5.758 -1.87,-8.641 -0.373,-1.771 -0.74,-3.545 -1.107,-5.316 -1.605,-7.744 -3.264,-15.75 -5.367,-23.48 -1.732,-6.365 -3.752,-12.775 -5.703,-18.975 -1.668,-5.295 -3.393,-10.771 -4.936,-16.207 -1.916,-6.754 -3.732,-13.658 -5.488,-20.334 -2.889,-10.988 -7.879,-24.35 -11.389,-35.328 l -1.463,-4.184" stroke-miterlimit="10" stroke-width="2" stroke="#473467" fill="none" />
        </g>
      </g>
    </g>
  </g>
  <g id="layer17" style="display:inline">
    <g style="display:inline" id="filet_2_categorie" transform="translate(8.5159558,17.75001)">
      <path id="path153" d="m 423.727,686.071 c -3.578,-2.656 -7.801,-5.088 -11.15,-8.398 -13.408,-13.252 -29.236,-22.53 -46.699,-29.188 -18.42,-7.021 -36.83,-14.072 -55.381,-20.738 -15.076,-5.416 -30.576,-9.715 -45.467,-15.58 -11.408,-4.49 -22.871,-9.566 -33.064,-16.274 -28.578,-18.802 -44.348,-45.673 -46.42,-80.052 -0.592,-9.838 -0.324,-18.73 -0.328,-28.598 -0.021,-69.082 -0.01,-139.162 -0.014,-208.244 -0.002,-9.867 -0.061,-19.736 -0.045,-29.605 0.055,-34.955 -4.541,-68.869 -21.598,-100.176 -3.297,-6.051 -2.027,-12.834 2.666,-16.775 14.16,-11.889 28.412,-23.672 42.855,-35.214 4.063,-3.246 9.256,-3.568 13.971,-1.259 38.408,18.817 79.773,24.294 121.709,28.343 57.98,5.598 115.824,4.556 173.607,-1.464 35.643,-3.713 70.9,-9.78 103.48,-25.971 4.764,-2.368 10.232,-3.719 14.018,-0.69 16.318,13.054 32.131,26.746 47.891,40.478 1.494,1.301 1.561,4.465 1.855,6.818 0.135,1.08 -0.65,2.363 -1.236,3.438 -18.91,34.639 -23.082,72.457 -23.871,110.982 -0.201,9.863 -0.059,19.736 -0.06,29.605 -0.005,66.613 -10e-4,133.227 -0.013,199.84 0,8.636 -0.137,17.271 -0.092,25.906 0.215,39.816 -19.646,67.668 -52.666,87.246 -8.418,4.99 -17.738,8.623 -26.945,12.072 -13.85,5.189 -27.965,9.668 -41.969,14.441 -10.5,3.578 -21.084,6.93 -31.492,10.756 -42.277,15.536 -49.859,19.963 -83.542,48.301 z" stroke-miterlimit="10" stroke-width="27" stroke="#009eb9" fill="none" opacity="0.2" />
    </g>
  </g>












  <g id="layer16" style="display:inline">
    <g style="display:inline" id="filet_3_posture" transform="translate(8.5159594,17.75001)">
      <path id="path156" d="m 423.727,686.071 c -3.578,-2.656 -7.801,-5.088 -11.15,-8.398 -13.408,-13.252 -29.236,-22.53 -46.699,-29.188 -18.42,-7.021 -36.83,-14.072 -55.381,-20.738 -15.076,-5.416 -30.576,-9.715 -45.467,-15.58 -11.408,-4.49 -22.871,-9.566 -33.064,-16.274 -28.578,-18.802 -44.348,-45.673 -46.42,-80.052 -0.592,-9.838 -0.324,-18.73 -0.328,-28.598 -0.021,-69.082 -0.01,-139.162 -0.014,-208.244 -0.002,-9.867 -0.061,-19.736 -0.045,-29.605 0.055,-34.955 -4.541,-68.869 -21.598,-100.176 -3.297,-6.051 -2.027,-12.834 2.666,-16.775 14.16,-11.889 28.412,-23.672 42.855,-35.214 4.063,-3.246 9.256,-3.568 13.971,-1.259 38.408,18.817 79.773,24.294 121.709,28.343 57.98,5.598 115.824,4.556 173.607,-1.464 35.643,-3.713 70.9,-9.78 103.48,-25.971 4.764,-2.368 10.232,-3.719 14.018,-0.69 16.318,13.054 32.131,26.746 47.891,40.478 1.494,1.301 1.561,4.465 1.855,6.818 0.135,1.08 -0.65,2.363 -1.236,3.438 -18.91,34.639 -23.082,72.457 -23.871,110.982 -0.201,9.863 -0.059,19.736 -0.06,29.605 -0.005,66.613 -10e-4,133.227 -0.013,199.84 0,8.636 -0.137,17.271 -0.092,25.906 0.215,39.816 -19.646,67.668 -52.666,87.246 -8.418,4.99 -17.738,8.623 -26.945,12.072 -13.85,5.189 -27.965,9.668 -41.969,14.441 -10.5,3.578 -21.084,6.93 -31.492,10.756 -42.277,15.536 -49.859,19.963 -83.542,48.301 z" stroke-miterlimit="10" stroke-width="18" stroke="#009eb9" fill="none" />
    </g>
  </g>
  <g id="layer15" style="display:inline">
    <g style="display:inline" id="texte_titre_badge" transform="translate(8.51596,17.75001)">
      <g id="g196">
        <path id="path166" d="m 258.891,468.068 2.844,0.36 V 473 h -11.879 v -4.571 l 2.844,-0.36 v -14.722 h -3.636 l -0.539,3.563 h -4.607 l 0.18,-8.675 h 23.396 l 0.181,8.675 h -4.607 l -0.54,-3.563 h -3.636 v 14.721 z" fill="#009eb9" />
        <path id="path168" d="m 269.368,473 v -4.571 l 2.844,-0.36 v -14.866 l -2.844,-0.396 v -4.571 h 11.879 v 4.571 l -2.844,0.396 v 14.866 l 2.844,0.36 V 473 Z" fill="#009eb9" />
        <path id="path170" d="m 297.878,468.068 2.844,0.36 V 473 h -11.879 v -4.571 l 2.844,-0.36 v -14.722 h -3.636 l -0.539,3.563 h -4.607 l 0.18,-8.675 h 23.396 l 0.181,8.675 h -4.607 l -0.54,-3.563 h -3.636 v 14.721 z" fill="#009eb9" />
        <path id="path172" d="m 325.094,473 -4.536,-8.675 h -3.167 v 3.743 l 3.635,0.36 V 473 h -12.67 v -4.571 l 2.844,-0.36 v -14.866 l -2.844,-0.396 v -4.571 h 13.462 c 5.04,0 8.495,2.844 8.495,7.631 0,4.067 -1.691,5.688 -4.067,6.983 v 0.18 c 0,0 0.396,0.288 0.684,0.792 l 2.484,4.247 3.167,0.36 V 473 Z m -4.824,-13.498 c 2.628,0 3.78,-1.044 3.78,-3.275 0,-1.944 -1.404,-2.88 -3.78,-2.88 h -2.879 v 6.155 z" fill="#009eb9" />
        <path id="path174" d="m 334.023,473 v -4.571 l 2.808,-0.36 v -14.902 l -2.808,-0.359 v -4.571 h 20.409 l 0.145,8.675 h -4.607 l -0.54,-3.563 h -6.407 v 4.787 h 5.363 v 4.932 h -5.363 v 4.823 h 6.335 l 0.54,-3.563 h 4.607 L 354.253,473 Z" fill="#009eb9" />
        <path id="path176" d="m 364.154,473 v -4.571 l 2.844,-0.36 v -14.902 l -2.844,-0.359 v -4.571 h 12.131 c 6.119,0 12.13,3.239 12.13,12.202 0,9.827 -5.939,12.563 -11.555,12.563 h -12.706 z m 11.231,-5.111 c 4.212,0 6.768,-1.62 6.768,-7.451 0,-4.968 -2.664,-7.091 -7.235,-7.091 h -1.728 v 14.542 z" fill="#009eb9" />
        <path id="path178" d="m 407.64,453.202 -2.844,-0.396 v -4.571 h 11.519 v 4.571 l -2.844,0.396 v 10.691 c 0,6.263 -3.743,9.358 -10.366,9.358 -6.623,0 -10.511,-3.096 -10.511,-9.358 v -10.691 l -2.844,-0.396 v -4.571 h 11.879 v 4.571 l -2.844,0.396 v 10.295 c 0,1.944 0.792,4.571 4.319,4.571 2.88,0 4.535,-2.052 4.535,-4.392 v -10.474 z" fill="#009eb9" />
        <path id="path180" d="m 425.029,473 v -4.571 l 2.844,-0.36 v -14.902 l -2.844,-0.359 v -4.571 h 10.295 c 7.091,0 10.654,1.728 10.654,6.659 0,4.211 -2.664,5.003 -3.636,5.291 v 0.288 c 1.764,0.216 5.399,1.188 5.399,5.759 0,4.248 -2.483,6.768 -10.043,6.768 h -12.669 z m 12.059,-14.722 c 1.655,0 2.628,-0.973 2.628,-2.448 0,-1.764 -1.404,-2.483 -2.988,-2.483 h -2.663 v 4.932 h 3.023 z m -3.024,4.643 v 4.968 h 3.923 c 2.52,0 3.492,-0.684 3.492,-2.447 0,-1.584 -1.225,-2.521 -2.988,-2.521 z" fill="#009eb9" />
        <path id="path182" d="m 472.727,468.068 2.52,0.36 V 473 h -11.159 v -4.571 l 2.7,-0.36 -0.9,-2.375 H 457.5 l -0.899,2.375 2.699,0.36 V 473 h -10.979 v -4.571 l 2.52,-0.36 5.651,-14.902 -3.168,-0.18 v -4.751 h 11.879 z m -10.152,-11.194 c -0.252,-0.647 -0.792,-2.195 -0.792,-2.195 h -0.18 c 0,0 -0.54,1.548 -0.792,2.195 l -1.548,4.104 h 4.859 z" fill="#009eb9" />
        <path id="path184" d="m 476.581,473 v -4.571 l 2.844,-0.36 v -14.902 l -2.844,-0.359 v -4.571 h 12.131 c 6.119,0 12.13,3.239 12.13,12.202 0,9.827 -5.939,12.563 -11.555,12.563 h -12.706 z m 11.231,-5.111 c 4.212,0 6.768,-1.62 6.768,-7.451 0,-4.968 -2.664,-7.091 -7.235,-7.091 h -1.728 v 14.542 z" fill="#009eb9" />
        <path id="path186" d="m 524.422,464.325 c 0,3.707 -2.052,8.927 -10.402,8.927 -6.804,0 -11.051,-3.924 -11.051,-12.67 0,-8.676 4.283,-12.563 11.051,-12.563 8.351,0 10.402,4.355 10.402,7.486 0,1.116 -0.252,1.872 -0.252,1.872 l -5.867,0.54 c 0,0 0.144,-0.54 0.144,-1.296 0,-1.476 -0.936,-3.456 -4.104,-3.456 -2.844,0 -5.111,1.8 -5.111,7.523 0,5.651 2.484,7.379 5.327,7.379 2.736,0 3.744,-1.188 3.852,-3.203 l -3.491,-0.36 v -4.211 h 9.503 v 4.032 z" fill="#009eb9" />
        <path id="path188" d="m 526.908,473 v -4.571 l 2.808,-0.36 v -14.902 l -2.808,-0.359 v -4.571 h 20.409 l 0.145,8.675 h -4.607 l -0.54,-3.563 h -6.407 v 4.787 h 5.363 v 4.932 h -5.363 v 4.823 h 6.335 l 0.54,-3.563 h 4.607 L 547.138,473 Z" fill="#009eb9" />
        <path id="path190" d="m 557.039,473 v -4.571 l 2.844,-0.36 v -14.866 l -2.844,-0.396 v -4.571 h 11.879 v 4.571 l -2.844,0.396 v 14.866 l 2.844,0.36 V 473 Z" fill="#009eb9" />
        <path id="path192" d="m 586.521,464.253 v -0.684 l 5.976,1.224 v 0.612 c 0,3.275 -2.088,7.847 -10.583,7.847 -6.695,0 -10.87,-3.924 -10.87,-12.67 0,-8.676 4.283,-12.563 11.051,-12.563 8.351,0 10.402,4.787 10.402,8.207 0,1.115 -0.252,1.871 -0.252,1.871 l -5.867,0.72 c 0,0 0.144,-0.611 0.144,-1.476 0,-1.764 -0.936,-4.176 -4.104,-4.176 -2.844,0 -5.111,1.8 -5.111,7.523 0,5.651 2.412,7.379 5.147,7.379 3.096,10e-4 4.067,-1.438 4.067,-3.814 z" fill="#009eb9" />
        <path id="path194" d="m 594.804,473 v -4.571 l 2.844,-0.36 v -14.866 l -2.844,-0.396 v -4.571 h 11.879 v 4.571 l -2.844,0.396 v 14.866 l 2.844,0.36 V 473 Z" fill="#009eb9" />
      </g>
    </g>
  </g>
  <g id="layer14" style="display:inline">
    <g style="display:inline" id="picto_titre_badge" transform="translate(8.51596,17.75001)">
      <g id="g163">
        <path id="path159" d="m 364.273,243.979 c 6.838,6.566 15.277,11.791 25.082,15.525 9.803,3.74 21.309,5.637 34.201,5.637 12.717,0 24.182,-1.896 34.066,-5.637 9.893,-3.734 18.375,-8.957 25.213,-15.525 6.842,-6.574 12.199,-14.361 15.92,-23.143 1.627,-3.846 2.979,-7.928 4.022,-12.148 h -50.095 c -1.32,2.273 -2.652,4.158 -4.064,5.75 -5.457,6.156 -13.889,9.279 -25.063,9.279 -13.571,0 -17.239,-0.455 -25.189,-9.273 -1.439,-1.588 -2.755,-3.426 -4.119,-5.756 h -49.922 c 1.039,4.203 2.393,8.285 4.035,12.146 3.72,8.794 9.074,16.579 15.913,23.145 z" fill="#009eb9" />
        <path id="path161" d="m 505.162,354.271 c -0.523,-9.942 -2.68,-19.448 -6.406,-28.25 -3.719,-8.765 -9.072,-16.497 -15.916,-22.978 -6.834,-6.471 -15.32,-11.697 -25.223,-15.527 -9.898,-3.822 -21.357,-5.76 -34.063,-5.76 -12.875,0 -24.381,1.938 -34.192,5.758 -9.815,3.834 -18.259,9.061 -25.095,15.529 -6.838,6.471 -12.189,14.203 -15.906,22.978 -3.73,8.788 -5.887,18.294 -6.412,28.255 -0.363,7.873 -0.525,33.047 -0.525,41.287 0,0.611 0.008,1.195 0.018,1.785 l 0.004,0.184 h 46.762 l -0.006,-0.352 c -0.01,-0.713 -0.023,-1.424 -0.023,-2.156 0,-3.906 0.047,-25.1 0.142,-29.027 0.095,-4.07 0.312,-7.518 0.657,-10.538 0.357,-4.544 1.316,-8.835 2.848,-12.722 1.539,-3.898 3.748,-7.336 6.568,-10.221 2.822,-2.893 6.363,-5.203 10.516,-6.866 4.152,-1.662 9.079,-2.505 14.646,-2.505 5.568,0 10.498,0.843 14.648,2.505 4.145,1.661 7.686,3.972 10.523,6.864 2.813,2.893 5.02,6.328 6.559,10.221 1.527,3.881 2.486,8.174 2.848,12.76 0.18,3.105 0.357,6.586 0.537,10.479 0.17,3.941 0.254,25.144 0.254,29.051 0,0.643 -0.018,1.268 -0.035,1.893 -0.006,0.207 -0.012,0.41 -0.018,0.615 h 46.805 l 0.002,-0.236 c 0.01,-0.568 0.019,-1.137 0.019,-1.732 -0.002,-8.859 -0.182,-33.589 -0.536,-41.294 z" fill="#009eb9" />
      </g>
    </g>
  </g>
</svg>
