<?xml version="1.0" encoding="UTF-8" standalone="no"?>
<svg xmlns:dc="http://purl.org/dc/elements/1.1/"
  xmlns:cc="http://creativecommons.org/ns#"
  xmlns:rdf="http://www.w3.org/1999/02/22-rdf-syntax-ns#"
  xmlns:svg="http://www.w3.org/2000/svg"
  xmlns="http://www.w3.org/2000/svg"
  xmlns:xlink="http://www.w3.org/1999/xlink" id="svg2303" xml:space="preserve" enable-background="new 0 0 850.394 841.89" viewBox="0 0 850.39371 850.39371" height="100%" width="100%" y="0px" x="0px" version="1.1">
  <metadata id="metadata2309">
    <rdf:RDF>
      <cc:Work rdf:about="">
        <dc:format>image/svg+xml</dc:format>
        <dc:type rdf:resource="http://purl.org/dc/dcmitype/StillImage" />
        <dc:title></dc:title>
      </cc:Work>
    </rdf:RDF>
  </metadata>
  <defs id="defs2307">

    <clipPath id="SVGID_2_-4">
      <use id="use122" overflow="visible" xlink:href="#SVGID_1_-0" x="0" y="0" width="100%" height="100%" />
    </clipPath>
    <clipPath id="SVGID_4_">
      <use id="use132" overflow="visible" xlink:href="#SVGID_3_" x="0" y="0" width="100%" height="100%" />
    </clipPath>
    <path d="m 404.664,50.394 c 1.172,3.438 3.039,6.252 4.836,8.439 l -19.805,17.313 c -3.164,-1.836 -6.135,-4.258 -8.674,-7.969 l -13.156,3.746 c 0,0 -1.5,20.816 0.125,20.816 1.625,0 20.75,-1.5 22,-1.5 1.25,0 37.625,-22.125 37.625,-22.125 l 13.875,-38 c 0,0 -0.625,-12.084 -1,-12.291 -0.375,-0.209 -36.375,17.006 -36.375,17.006 z" id="SVGID_1_-0" />
    <path d="m 453.475,81.825 c 1.949,-1.783 5.014,-5.445 6.551,-8.467 l 18.717,21.805 0.957,1.021 c -2.836,3.092 -6.361,5.285 -9.527,6.563 l 4.693,17.242 13.125,9.75 0.375,-10.625 c 0,0 -5.125,-47.875 -5.375,-48.25 -0.25,-0.375 -24.334,-23.75 -24.334,-23.75 0,0 -13.166,1.125 -13.166,1.5 0,0.375 -9.506,10 -9.506,10 l 5.662,19.625 z" id="SVGID_3_" />
    <clipPath id="SVGID_2_-4-8">
      <use height="100%" width="100%" y="0" x="0" xlink:href="#SVGID_1_-0" overflow="visible" id="use122-9" />
    </clipPath>
    <clipPath id="SVGID_4_-4">
      <use height="100%" width="100%" y="0" x="0" xlink:href="#SVGID_3_" overflow="visible" id="use132-1" />
    </clipPath>
    <path id="path300" d="m 404.664,50.394 c 1.172,3.438 3.039,6.252 4.836,8.439 l -19.805,17.313 c -3.164,-1.836 -6.135,-4.258 -8.674,-7.969 l -13.156,3.746 c 0,0 -1.5,20.816 0.125,20.816 1.625,0 20.75,-1.5 22,-1.5 1.25,0 37.625,-22.125 37.625,-22.125 l 13.875,-38 c 0,0 -0.625,-12.084 -1,-12.291 -0.375,-0.209 -36.375,17.006 -36.375,17.006 z" />
    <path id="path307" d="m 453.475,81.825 c 1.949,-1.783 5.014,-5.445 6.551,-8.467 l 18.717,21.805 0.957,1.021 c -2.836,3.092 -6.361,5.285 -9.527,6.563 l 4.693,17.242 13.125,9.75 0.375,-10.625 c 0,0 -5.125,-47.875 -5.375,-48.25 -0.25,-0.375 -24.334,-23.75 -24.334,-23.75 0,0 -13.166,1.125 -13.166,1.5 0,0.375 -9.506,10 -9.506,10 l 5.662,19.625 z" />

  </defs>
  <g id="layer4">
      <path transform="translate(8.5166731,24.950395)" id="path132-8" d="m 424.73,689.307 c -3.578,-2.656 -7.801,-5.088 -11.15,-8.4 -13.408,-13.25 -29.236,-22.529 -46.699,-29.186 -18.42,-7.021 -36.83,-14.072 -55.381,-20.738 -15.076,-5.418 -30.576,-9.717 -45.467,-15.58 -11.408,-4.49 -22.871,-9.566 -33.064,-16.273 -28.578,-18.803 -44.348,-45.674 -46.42,-80.053 -0.592,-9.836 -0.324,-19.73 -0.328,-29.598 -0.021,-69.082 -0.01,-138.162 -0.014,-207.244 -0.002,-9.867 -0.06,-19.736 -0.045,-29.605 0.055,-34.957 -4.541,-68.869 -21.597,-100.176 -3.298,-6.051 -2.028,-12.834 2.666,-16.775 14.159,-11.889 28.411,-23.672 42.854,-35.213 4.063,-3.246 9.256,-3.568 13.971,-1.26 38.408,18.816 79.773,24.293 121.709,28.342 57.98,5.6 115.824,4.557 173.607,-1.463 35.643,-3.713 70.9,-9.779 103.48,-25.971 4.764,-2.367 10.232,-3.719 14.018,-0.689 16.318,13.053 32.131,26.744 47.891,40.477 1.494,1.301 1.561,4.465 1.855,6.818 0.135,1.08 -0.65,2.363 -1.236,3.438 -18.91,34.639 -23.082,72.457 -23.871,110.98 -0.201,9.865 -0.059,19.738 -0.061,29.607 -0.004,66.613 0,133.227 -0.011,199.84 -10e-4,8.635 -0.138,17.271 -0.093,25.906 0.215,39.816 -19.646,67.666 -52.666,87.246 -8.418,4.99 -17.738,8.623 -26.945,12.072 -13.85,5.188 -27.965,9.668 -41.969,14.441 -10.5,3.578 -21.084,6.93 -31.492,10.756 -42.276,15.535 -49.858,19.963 -83.542,48.301 z" stroke-miterlimit="10" stroke-width="27" stroke="#009eb9" fill="none" style="fill:#ffffff;stroke:none" />
  </g>
  <g style="display:inline" id="layer26">
    <g transform="translate(8.51667,24.9504)" id="texte_posture">
      <g id="g20">
        <path fill="#473467" d="m 325.398,745.707 -7.258,17.516 c -1.133,2.734 -2.811,4.537 -5.032,5.406 -2.223,0.869 -4.726,0.727 -7.509,-0.428 -3.523,-1.459 -5.92,-4.068 -7.191,-7.828 l 4.853,-3.143 c 1.052,2.688 2.464,4.398 4.238,5.133 1.848,0.766 3.21,0.09 4.088,-2.029 l 4.991,-12.047 -8.868,-3.674 2.205,-5.322 z" id="path2" />
        <path fill="#473467" d="m 333.453,748.451 c 0.857,0.293 1.495,0.82 1.911,1.582 0.417,0.762 0.461,1.623 0.135,2.582 -0.293,0.857 -0.855,1.596 -1.686,2.214 l -4.132,3.071 -3.104,-1.059 3.072,-3.433 c -0.636,-0.864 -0.772,-1.827 -0.41,-2.887 0.318,-0.934 0.872,-1.59 1.664,-1.968 0.79,-0.377 1.641,-0.411 2.55,-0.102 z" id="path4" />
        <path fill="#473467" d="m 354.026,778.184 -11.857,-3.033 -3.256,4.492 -7.091,-1.814 18.643,-24.131 7.092,1.814 4.491,30.051 -7.362,-1.885 z m -0.675,-5.747 -1.308,-11.028 -6.521,9.025 z" id="path6" />
        <path fill="#473467" d="m 375.02,787.545 -7.017,-1.209 4.755,-27.594 7.017,1.209 z" id="path8" />
        <path fill="#473467" d="m 417.698,769.381 -13.607,-0.948 -0.45,6.464 12.53,0.873 -0.39,5.587 -12.529,-0.873 -0.717,10.296 -7.104,-0.496 1.946,-27.932 20.709,1.442 z" id="path10" />
        <path fill="#473467" d="m 435.77,763.431 c 4.345,-0.108 7.991,1.154 10.938,3.788 2.946,2.634 4.471,5.977 4.571,10.029 0.103,4.078 -1.259,7.527 -4.082,10.345 -2.824,2.818 -6.396,4.281 -10.714,4.39 -4.318,0.107 -7.952,-1.168 -10.899,-3.829 -2.947,-2.661 -4.473,-6.044 -4.575,-10.149 -0.102,-4.078 1.253,-7.5 4.065,-10.264 2.812,-2.766 6.377,-4.202 10.696,-4.31 z m 0.228,5.956 c -2.186,0.055 -4.032,0.895 -5.538,2.52 -1.507,1.625 -2.23,3.611 -2.172,5.956 0.059,2.347 0.888,4.306 2.487,5.88 1.599,1.574 3.479,2.334 5.639,2.279 2.159,-0.054 3.972,-0.906 5.438,-2.557 1.465,-1.65 2.169,-3.648 2.11,-5.994 -0.059,-2.346 -0.861,-4.293 -2.406,-5.842 -1.546,-1.549 -3.398,-2.296 -5.558,-2.242 z" id="path12" />
        <path fill="#473467" d="m 485.013,786.786 -6.214,0.904 -15.229,-15.204 2.483,17.06 -6.61,0.962 -4.033,-27.707 6.215,-0.905 15.274,15.239 -2.489,-17.1 6.57,-0.957 z" id="path14" />
        <path fill="#473467" d="m 487.121,757.786 11.606,-3.2 c 4.241,-1.17 8.036,-0.875 11.385,0.885 3.349,1.76 5.575,4.645 6.682,8.654 1.099,3.986 0.645,7.604 -1.364,10.854 -2.008,3.251 -5.185,5.476 -9.528,6.674 l -11.337,3.127 z m 8.373,3.583 4.424,16.041 4.897,-1.351 c 2.107,-0.581 3.633,-1.797 4.575,-3.647 0.941,-1.85 1.087,-3.957 0.435,-6.323 -0.652,-2.364 -1.894,-4.104 -3.722,-5.218 -1.828,-1.115 -3.836,-1.37 -6.021,-0.768 z" id="path16" />
        <path fill="#473467" d="m 539.614,745.797 -13.681,5.648 2.122,5.139 12.349,-5.098 2.137,5.176 -12.349,5.098 2.151,5.214 14.088,-5.815 2.137,5.177 -20.669,8.532 -10.684,-25.883 20.262,-8.363 z m -8.342,-10.145 -3.082,6.162 -4.881,2.016 1.355,-7.83 z" id="path18" />
      </g>
    </g>
  </g>
  <g style="display:inline" id="layer25">
    <g id="filet_separation_theme" transform="translate(8.5166727,24.950397)" style="display:inline;stroke:#000000">
      <line id="line23" y2="597.55499" x2="422.78699" y1="559.771" x1="422.78699" stroke-miterlimit="10" stroke="#000000" fill="none" style="stroke:#000000" />
    </g>
  </g>
  <g style="display:inline" id="layer24">
    <g style="display:inline" id="picto_theme" transform="translate(8.51667,24.9504)">
      <g id="g30">
        <path id="path26" d="m 482.313,556.168 c 2.246,2.158 5.02,3.875 8.242,5.102 3.221,1.23 7.002,1.854 11.238,1.854 4.178,0 7.945,-0.623 11.193,-1.854 3.25,-1.227 6.039,-2.943 8.285,-5.102 2.249,-2.158 4.01,-4.719 5.231,-7.604 0.534,-1.264 0.978,-2.605 1.321,-3.992 h -16.461 c -0.434,0.748 -0.871,1.367 -1.334,1.889 -1.795,2.023 -4.565,3.051 -8.236,3.051 -4.46,0 -5.666,-0.15 -8.277,-3.049 -0.473,-0.521 -0.906,-1.125 -1.354,-1.891 h -16.404 c 0.342,1.383 0.787,2.725 1.326,3.992 1.223,2.889 2.981,5.448 5.23,7.604 z" stroke-miterlimit="10" stroke-width="2" stroke="#000000" fill="none" />
        <path id="path28" d="m 528.607,592.41 c -0.172,-3.268 -0.881,-6.391 -2.105,-9.283 -1.221,-2.881 -2.98,-5.422 -5.229,-7.551 -2.245,-2.127 -5.034,-3.842 -8.288,-5.102 -3.252,-1.256 -7.018,-1.893 -11.191,-1.893 -4.231,0 -8.013,0.637 -11.236,1.893 -3.225,1.26 -6,2.977 -8.246,5.102 -2.247,2.127 -4.006,4.668 -5.227,7.551 -1.226,2.889 -1.935,6.012 -2.107,9.285 -0.119,2.586 -0.172,10.857 -0.172,13.566 0,0.201 0.002,0.393 0.006,0.586 l 10e-4,0.061 h 15.365 l -10e-4,-0.115 c -0.004,-0.234 -0.008,-0.467 -0.008,-0.709 0,-1.283 0.014,-8.248 0.045,-9.537 0.031,-1.338 0.103,-2.471 0.217,-3.463 0.117,-1.494 0.433,-2.904 0.936,-4.182 0.506,-1.279 1.231,-2.41 2.16,-3.357 0.926,-0.949 2.09,-1.709 3.453,-2.256 1.365,-0.547 2.984,-0.824 4.814,-0.824 1.828,0 3.448,0.277 4.813,0.824 1.361,0.545 2.525,1.305 3.457,2.254 0.925,0.951 1.65,2.08 2.156,3.359 0.501,1.275 0.816,2.686 0.936,4.193 0.059,1.02 0.117,2.164 0.176,3.441 0.057,1.297 0.084,8.262 0.084,9.547 0,0.211 -0.006,0.418 -0.012,0.623 -0.002,0.066 -0.004,0.133 -0.006,0.201 h 15.379 l 0.002,-0.078 c 0.003,-0.186 0.006,-0.373 0.006,-0.568 -0.002,-2.91 -0.062,-11.035 -0.178,-13.568 z" stroke-miterlimit="10" stroke-width="2" stroke="#000000" fill="none" />
      </g>
    </g>
  </g>
  <g style="display:inline" id="layer23">
    <g style="display:inline" id="texte_picto_theme" transform="translate(8.51667,24.9504)">
      <g id="g53">
        <path id="path33" d="m 448.947,523.643 h -3.799 v 10.025 h -3.203 v -10.025 h -3.763 v -2.592 h 10.765 z" />
        <path id="path35" d="m 460.179,523.588 h -6.66 v 2.502 h 6.013 v 2.521 h -6.013 v 2.538 h 6.858 v 2.52 h -10.063 v -12.6 h 9.864 v 2.519 z" />
        <path id="path37" d="m 469.754,527.08 4.519,6.588 h -3.834 l -2.718,-4.014 -2.719,4.014 h -3.726 l 4.5,-6.443 -4.212,-6.156 h 3.727 l 2.43,3.672 2.43,-3.672 h 3.762 z" />
        <path id="path39" d="m 485.289,523.643 h -3.799 v 10.025 h -3.203 v -10.025 h -3.763 v -2.592 h 10.765 z" />
        <path id="path41" d="m 496.521,523.588 h -6.66 v 2.502 h 6.013 v 2.521 h -6.013 v 2.538 h 6.858 v 2.52 h -10.063 v -12.6 h 9.864 v 2.519 z" />
        <path id="path43" d="m 512.594,523.643 h -3.798 v 10.025 h -3.204 v -10.025 h -3.762 v -2.592 h 10.764 z" />
        <path id="path45" d="m 525.59,533.668 h -3.203 v -4.896 h -5.221 v 4.896 h -3.204 v -12.6 h 3.204 v 5.184 h 5.221 v -5.184 h 3.203 z" />
        <path id="path47" d="m 537.975,523.588 h -6.66 v 2.502 h 6.012 v 2.521 h -6.012 v 2.538 h 6.857 v 2.52 h -10.063 v -12.6 h 9.865 v 2.519 z m -3.313,-3.617 h -2.376 l -2.34,-2.034 2.808,-0.99 z" />
        <path id="path49" d="m 554.084,533.668 h -2.826 l -0.018,-8.189 -3.024,6.93 h -2.088 l -3.024,-6.93 v 8.189 h -2.861 v -12.617 h 3.51 l 3.42,7.506 3.42,-7.506 h 3.492 v 12.617 z" />
        <path id="path51" d="m 566.486,523.588 h -6.66 v 2.502 h 6.012 v 2.521 h -6.012 v 2.538 h 6.857 v 2.52 H 556.62 v -12.6 h 9.865 v 2.519 z" />
      </g>
    </g>
  </g>
  <g style="display:inline" id="layer22">
    <g style="display:inline" id="picto_categorie" transform="translate(8.5166683,24.950399)">
      <g id="g66">
        <circle id="circle56" r="8.75" cy="556.05902" cx="359.733" stroke-miterlimit="10" stroke-width="2" stroke="#000000" fill="none" />
        <circle id="circle58" r="8.75" cy="575.55902" cx="322.858" stroke-miterlimit="10" stroke-width="2" stroke="#000000" fill="none" />
        <circle id="circle60" r="8.75" cy="595.55902" cx="359.733" stroke-miterlimit="10" stroke-width="2" stroke="#000000" fill="none" />
        <line id="line62" y2="570.80902" x2="329.733" y1="560.30902" x1="351.858" stroke-miterlimit="10" stroke-width="2" stroke="#000000" fill="none" />
        <line id="line64" y2="591.05902" x2="352.233" y1="580.43402" x1="330.608" stroke-miterlimit="10" stroke-width="2" stroke="#000000" fill="none" />
      </g>
    </g>
  </g>
  <g style="display:inline" id="layer21">
    <g style="display:inline" id="texte_picto_categorie" transform="translate(8.51667,24.9504)">
      <g id="g89">
        <path id="path69" d="m 278.803,520.961 c 0.936,0 1.857,0.191 2.763,0.576 0.906,0.383 1.677,0.899 2.313,1.547 l -1.854,2.196 c -0.408,-0.504 -0.897,-0.903 -1.467,-1.196 -0.57,-0.295 -1.137,-0.441 -1.701,-0.441 -0.996,0 -1.83,0.352 -2.502,1.053 -0.672,0.702 -1.008,1.569 -1.008,2.602 0,1.056 0.336,1.938 1.008,2.646 0.672,0.708 1.506,1.062 2.502,1.062 0.528,0 1.077,-0.131 1.647,-0.396 0.569,-0.264 1.077,-0.624 1.521,-1.08 l 1.872,1.979 c -0.684,0.697 -1.491,1.255 -2.421,1.675 -0.93,0.42 -1.857,0.63 -2.781,0.63 -1.896,0 -3.474,-0.618 -4.734,-1.854 -1.26,-1.236 -1.89,-2.778 -1.89,-4.627 0,-1.812 0.642,-3.326 1.926,-4.545 1.284,-1.218 2.886,-1.827 4.806,-1.827 z" />
        <path id="path71" d="m 291.115,520.961 c 1.956,0 3.582,0.609 4.878,1.826 1.296,1.219 1.944,2.739 1.944,4.563 0,1.836 -0.651,3.372 -1.953,4.608 -1.302,1.235 -2.925,1.854 -4.869,1.854 -1.944,0 -3.564,-0.615 -4.86,-1.846 -1.296,-1.229 -1.944,-2.768 -1.944,-4.616 0,-1.836 0.648,-3.36 1.944,-4.572 1.296,-1.212 2.916,-1.817 4.86,-1.817 z m 0.036,2.682 c -0.984,0 -1.824,0.357 -2.52,1.07 -0.696,0.715 -1.044,1.6 -1.044,2.656 0,1.055 0.351,1.946 1.053,2.672 0.702,0.727 1.539,1.09 2.511,1.09 0.972,0 1.797,-0.363 2.475,-1.09 0.678,-0.726 1.017,-1.617 1.017,-2.672 0,-1.057 -0.339,-1.941 -1.017,-2.656 -0.678,-0.713 -1.503,-1.07 -2.475,-1.07 z" />
        <path id="path73" d="m 313.471,533.668 h -2.826 l -0.018,-8.189 -3.024,6.93 h -2.088 l -3.024,-6.93 v 8.189 h -2.862 v -12.617 h 3.51 l 3.42,7.506 3.42,-7.506 h 3.492 z" />
        <path id="path75" d="m 329.851,533.668 h -2.826 l -0.018,-8.189 -3.024,6.93 h -2.088 l -3.024,-6.93 v 8.189 h -2.862 v -12.617 h 3.51 l 3.42,7.506 3.42,-7.506 h 3.492 z" />
        <path id="path77" d="m 343.729,521.068 v 7.309 c 0,1.668 -0.516,2.99 -1.548,3.969 -1.032,0.979 -2.43,1.467 -4.194,1.467 -1.776,0 -3.189,-0.488 -4.239,-1.467 -1.05,-0.979 -1.575,-2.301 -1.575,-3.969 v -7.309 h 3.204 v 7.309 c 0,0.84 0.243,1.509 0.729,2.006 0.486,0.498 1.119,0.748 1.899,0.748 0.768,0 1.383,-0.246 1.845,-0.738 0.461,-0.492 0.693,-1.164 0.693,-2.016 v -7.309 z" />
        <path id="path79" d="m 357.661,533.668 h -2.826 l -5.796,-7.758 v 7.758 h -3.006 v -12.6 h 2.826 l 5.814,7.775 v -7.775 h 2.988 z" />
        <path id="path81" d="m 368.55,531.347 h -5.508 l -0.918,2.321 h -3.294 l 5.436,-12.6 h 3.294 l 5.31,12.6 h -3.42 z m -0.936,-2.431 -1.8,-4.662 -1.836,4.662 z" />
        <path id="path83" d="m 385.021,521.068 v 7.309 c 0,1.668 -0.516,2.99 -1.548,3.969 -1.032,0.979 -2.43,1.467 -4.194,1.467 -1.776,0 -3.189,-0.488 -4.239,-1.467 -1.05,-0.979 -1.575,-2.301 -1.575,-3.969 v -7.309 h 3.204 v 7.309 c 0,0.84 0.243,1.509 0.729,2.006 0.486,0.498 1.119,0.748 1.899,0.748 0.768,0 1.383,-0.246 1.845,-0.738 0.461,-0.492 0.693,-1.164 0.693,-2.016 v -7.309 z" />
        <path id="path85" d="m 396.955,523.643 h -3.798 v 10.025 h -3.204 v -10.025 h -3.762 v -2.592 h 10.764 z" />
        <path id="path87" d="m 408.187,523.588 h -6.66 v 2.502 h 6.012 v 2.521 h -6.012 v 2.538 h 6.858 v 2.52 h -10.062 v -12.6 h 9.864 z m -1.729,-5.651 -2.34,2.034 h -2.376 l 1.908,-3.024 z" />
      </g>
    </g>
  </g>
  <g style="display:inline" id="layer20">
    <g style="display:inline" id="fond_categorie" transform="translate(8.51667,24.9504)">
      <path id="path92" d="m 216.607,261.117 c 0.012,4.084 0.023,8.17 0.023,12.256 v 61.305 c 0,44.633 -0.002,89.264 0.014,133.895 0.002,2.299 -0.014,4.598 -0.029,6.898 -0.043,6.424 -0.07,12.5 0.256,18.305 H 631.77 c -0.023,-4.713 0.01,-9.418 0.043,-13.971 0.023,-3.395 0.049,-6.789 0.049,-10.184 0.008,-39.139 0.008,-78.281 0.01,-117.42 l 0.002,-70.814 c 0,-2.693 -0.012,-5.387 -0.023,-8.08 -0.029,-6.625 -0.059,-13.475 0.091,-20.383 0.688,-31.668 3.78,-68.08 20.13,-103.275 -7.902,-6.424 -15.764,-12.727 -23.662,-18.861 -35.893,15.129 -73.264,20.447 -105.504,23.609 -33.76,3.314 -67.111,4.994 -99.127,4.994 -27.184,0 -54.258,-1.209 -80.471,-3.594 -39.822,-3.621 -81.889,-8.602 -122.4,-25.252 -7.4,5.641 -15.158,11.646 -23.623,18.281 13.199,27.254 19.367,58.352 19.303,96.707 -0.01,5.196 0.004,10.389 0.019,15.584 z" fill="#b7d5e2" />
    </g>
  </g>
  <g style="display:inline" id="layer19">
    <g style="display:inline" id="picto_posture" transform="translate(8.51667,24.9504)">
      <polygon id="polygon102" points="256.428,68.166 419.225,42.162 419.225,32.787 256.428,0 " fill="currentColor" opacity="0.2" />
      <polygon id="polygon111" points="593.225,68.166 430.428,42.162 430.428,32.787 593.225,0 " fill="currentColor" opacity="0.2" />
      <path id="path113" d="m 439.785,113.148 h -2.137 v -2.137 h -1.068 l -3.207,-60.902 c 1.182,0 2.139,-0.957 2.139,-2.137 v -4.273 c 0,-1.18 -0.957,-2.137 -2.139,-2.137 h -2.137 v -8.547 h 2.137 1.068 v -2.139 h -1.068 -1.068 v -1.068 h -2.137 V 28.74 h -2.137 v -1.068 h -2.137 v -1.068 h -2.137 v 1.068 h -2.137 v 1.068 h -2.137 v 1.068 h -2.137 v 1.068 h -1.068 -1.068 v 2.139 h 1.068 2.137 v 8.547 h -2.137 c -1.182,0 -2.137,0.957 -2.137,2.137 v 4.273 c 0,1.18 0.955,2.137 2.137,2.137 l -3.205,60.902 h -1.07 v 2.137 h -2.137 l -4.273,4.273 h 38.465 z M 420.553,34.084 h 8.547 v 5.342 h -3.205 v -1.068 h 1.068 v -2.137 h -2.137 v 2.137 1.068 h -4.273 z m -5.002,70.518 h 18.551 l 0.225,4.273 h -19 z m 2.474,-47.012 h 13.602 l 0.395,7.479 h -14.391 z m 0.225,-4.276 0.057,-1.068 h 13.039 l 0.057,1.068 z m -0.844,16.028 h 14.84 l 0.393,7.479 h -15.627 z m 15.459,11.754 0.393,7.479 h -16.863 l 0.393,-7.479 z m 0.618,11.752 0.394,7.479 h -18.102 l 0.395,-7.479 z m 0.958,24.041 h -3.205 v -2.137 c 0,-0.885 0.719,-1.604 1.604,-1.604 0.885,0 1.602,0.719 1.602,1.604 v 2.137 z" fill="#473467" />
    </g>
  </g>
  <g style="display:inline" id="layer18">
    <g style="display:inline" id="filet_1_categorie" transform="translate(8.5166674,24.950395)">
      <g id="g120">
        <path id="path116" d="m 455.512,81.096 c 0.768,0.25 10.08,2.092 10.758,2.107 5.596,0.129 -0.508,0.146 5.005,-0.008 0.894,-0.025 14.541,-0.266 15.509,-0.488 1.453,-0.332 1.453,-0.332 3.512,-0.504 9.891,-0.824 18.762,-3.279 28.469,-7.482 10.715,-4.639 20.693,-10.77 29.656,-18.219 7.449,-6.191 8.287,-5.781 15.035,0.561 l 0.213,0.197 c 6.082,5.715 12.301,11.492 18.315,17.078 2.8,2.602 5.601,5.201 8.397,7.807 2.49,2.318 4.986,4.635 7.482,6.949 3.805,3.529 7.609,7.059 11.398,10.604 l 0.729,0.684" stroke-miterlimit="10" stroke-width="2" stroke="#473467" fill="none" />
        <path id="path118" d="m 239.363,97.965 0.73,-0.684 c 4.512,-4.227 9.033,-8.441 13.563,-12.648 12.65,-11.762 22.352,-20.736 31.455,-29.1 4.971,-4.566 6.242,-4.609 11.336,-0.373 11.143,9.264 23.902,16.771 39.01,22.951 4.484,1.834 9.539,2.648 14.43,3.436 l 1.668,0.27 c 1.131,0.186 2.266,0.383 3.402,0.58 5.254,0.914 10.686,1.859 15.914,1.605 8.213,-0.4 16.061,-1.6 23.492,-3.59" stroke-miterlimit="10" stroke-width="2" stroke="#473467" fill="none" />
      </g>
      <g id="g126">
        <g id="g124">
          <path id="path122" d="m 172.74,298.836 0.709,0.957 c -2.627,8.693 -6.291,17.377 -8.953,26.061 -3.949,12.875 -8.031,26.189 -11.928,39.316 -2.395,8.068 -4.129,16.217 -5.373,22.414 -1.125,5.619 -2.105,11.371 -3.055,16.936 -0.684,4.01 -1.389,8.158 -2.146,12.229 -4.459,23.971 -8.375,47.469 -7.344,71.412 0.227,5.262 1.037,10.611 1.822,15.785 0.676,4.467 1.377,9.086 1.707,13.672 1.564,21.609 8.121,42.711 20.045,64.506 15.023,27.467 38.166,50.072 70.75,69.107 26.007,15.197 54.709,25.344 82.469,35.158 4.111,1.453 8.221,2.906 12.324,4.375 8.934,3.199 18.137,6.16 27.035,9.023 12.988,4.18 26.42,8.502 39.291,13.65 11.279,4.512 25.209,11.691 33.635,27.389 0.605,-0.518 1.164,-0.99 1.686,-1.432 1.482,-1.256 2.652,-2.248 3.764,-3.287 1.58,-1.479 3.139,-3.064 4.646,-4.6 3.105,-3.158 6.314,-6.426 9.965,-9.025 12.385,-8.818 26.733,-13.779 40.609,-18.576 3.598,-1.244 7.318,-2.529 10.939,-3.861 12.74,-4.686 25.504,-8.912 37.935,-12.564 24.065,-7.07 48.122,-16.396 71.503,-27.719 27.574,-13.352 49.477,-29.318 66.955,-48.813 17.503,-19.521 29.746,-42.951 36.391,-69.637 8.014,-32.188 8.85,-67.656 2.635,-111.621 -1.211,-8.561 -3.104,-17.193 -4.936,-25.541 -0.631,-2.879 -1.264,-5.76 -1.869,-8.641 -0.373,-1.771 -0.74,-3.545 -1.107,-5.318 -1.605,-7.742 -3.264,-15.75 -5.367,-23.479 -1.732,-6.365 -3.752,-12.775 -5.703,-18.975 -1.668,-5.295 -3.393,-10.771 -4.936,-16.207 -1.916,-6.756 -3.731,-13.658 -5.488,-20.334 -2.891,-10.988 -5.879,-22.35 -9.389,-33.328 l -0.305,-0.953" stroke-miterlimit="10" stroke-width="2" stroke="#473467" fill="none" />
        </g>
      </g>
    </g>
  </g>
  <g style="display:inline" id="layer17">
    <g style="display:inline" id="filet_2_categorie" transform="translate(8.5166658,24.9504)">
      <path id="path129" d="m 423.727,688.071 c -3.578,-2.656 -7.801,-5.088 -11.15,-8.398 -13.408,-13.252 -29.236,-22.53 -46.699,-29.188 -18.42,-7.021 -36.83,-14.072 -55.381,-20.738 -15.076,-5.416 -30.576,-9.715 -45.467,-15.58 -11.408,-4.49 -22.871,-9.566 -33.064,-16.274 -28.578,-18.802 -44.348,-45.673 -46.42,-80.052 -0.592,-9.838 -0.324,-18.73 -0.328,-28.598 -0.021,-69.082 -0.01,-139.162 -0.014,-208.244 -0.002,-9.867 -0.061,-19.736 -0.045,-29.605 0.055,-34.955 -4.541,-68.869 -21.598,-100.176 -3.297,-6.051 -2.027,-12.834 2.666,-16.775 14.16,-11.889 28.412,-23.672 42.855,-35.214 4.063,-3.246 9.256,-3.568 13.971,-1.259 38.408,18.817 79.773,24.294 121.709,28.343 57.98,5.598 115.824,4.556 173.607,-1.464 35.643,-3.713 70.9,-9.78 103.48,-25.971 4.764,-2.368 10.232,-3.719 14.018,-0.69 16.318,13.054 32.131,26.746 47.891,40.478 1.494,1.301 1.561,4.465 1.855,6.818 0.135,1.08 -0.65,2.363 -1.236,3.438 -18.91,34.639 -23.082,72.457 -23.871,110.982 -0.201,9.863 -0.059,19.736 -0.06,29.605 -0.005,66.613 -10e-4,133.227 -0.013,199.84 0,8.636 -0.137,17.271 -0.092,25.906 0.215,39.816 -19.646,67.668 -52.666,87.246 -8.418,4.99 -17.738,8.623 -26.945,12.072 -13.85,5.189 -27.965,9.668 -41.969,14.441 -10.5,3.578 -21.084,6.93 -31.492,10.756 -42.277,15.536 -49.859,19.963 -83.542,48.301 z" stroke-miterlimit="10" stroke-width="27" stroke="#009eb9" fill="none" opacity="0.2" />
    </g>
  </g>

  <g style="display:inline" id="layer16">
    <g style="display:inline" id="filet_3_posture" transform="translate(8.5166731,24.950395)">
      <path id="path132" d="m 424.73,689.307 c -3.578,-2.656 -7.801,-5.088 -11.15,-8.4 -13.408,-13.25 -29.236,-22.529 -46.699,-29.186 -18.42,-7.021 -36.83,-14.072 -55.381,-20.738 -15.076,-5.418 -30.576,-9.717 -45.467,-15.58 -11.408,-4.49 -22.871,-9.566 -33.064,-16.273 -28.578,-18.803 -44.348,-45.674 -46.42,-80.053 -0.592,-9.836 -0.324,-19.73 -0.328,-29.598 -0.021,-69.082 -0.01,-138.162 -0.014,-207.244 -0.002,-9.867 -0.06,-19.736 -0.045,-29.605 0.055,-34.957 -4.541,-68.869 -21.597,-100.176 -3.298,-6.051 -2.028,-12.834 2.666,-16.775 14.159,-11.889 28.411,-23.672 42.854,-35.213 4.063,-3.246 9.256,-3.568 13.971,-1.26 38.408,18.816 79.773,24.293 121.709,28.342 57.98,5.6 115.824,4.557 173.607,-1.463 35.643,-3.713 70.9,-9.779 103.48,-25.971 4.764,-2.367 10.232,-3.719 14.018,-0.689 16.318,13.053 32.131,26.744 47.891,40.477 1.494,1.301 1.561,4.465 1.855,6.818 0.135,1.08 -0.65,2.363 -1.236,3.438 -18.91,34.639 -23.082,72.457 -23.871,110.98 -0.201,9.865 -0.059,19.738 -0.061,29.607 -0.004,66.613 0,133.227 -0.011,199.84 -10e-4,8.635 -0.138,17.271 -0.093,25.906 0.215,39.816 -19.646,67.666 -52.666,87.246 -8.418,4.99 -17.738,8.623 -26.945,12.072 -13.85,5.188 -27.965,9.668 -41.969,14.441 -10.5,3.578 -21.084,6.93 -31.492,10.756 -42.276,15.535 -49.858,19.963 -83.542,48.301 z" stroke-miterlimit="10" stroke-width="27" stroke="#009eb9" fill="none" />
    </g>
  </g>
  <g style="display:inline" id="layer15">
    <g style="display:inline" id="texte_titre_badge" transform="translate(8.51667,24.9504)">
      <g id="g170">
        <path id="path140" d="m 258.891,461.033 2.844,0.36 v 4.571 h -11.879 v -4.571 l 2.844,-0.36 v -14.722 h -3.636 l -0.539,3.563 h -4.607 l 0.18,-8.675 h 23.396 l 0.181,8.675 h -4.607 l -0.54,-3.563 h -3.636 v 14.722 z" fill="#009eb9" />
        <path id="path142" d="m 269.368,465.965 v -4.571 l 2.844,-0.36 v -14.866 l -2.844,-0.396 V 441.2 h 11.879 v 4.571 l -2.844,0.396 v 14.866 l 2.844,0.36 v 4.571 h -11.879 z" fill="#009eb9" />
        <path id="path144" d="m 297.878,461.033 2.844,0.36 v 4.571 h -11.879 v -4.571 l 2.844,-0.36 v -14.722 h -3.636 l -0.539,3.563 h -4.607 l 0.18,-8.675 h 23.396 l 0.181,8.675 h -4.607 l -0.54,-3.563 h -3.636 v 14.722 z" fill="#009eb9" />
        <path id="path146" d="m 325.094,465.965 -4.536,-8.675 h -3.167 v 3.743 l 3.635,0.36 v 4.571 h -12.67 v -4.571 l 2.844,-0.36 v -14.866 l -2.844,-0.396 V 441.2 h 13.462 c 5.04,0 8.495,2.844 8.495,7.631 0,4.067 -1.691,5.688 -4.067,6.983 v 0.18 c 0,0 0.396,0.288 0.684,0.792 l 2.484,4.247 3.167,0.36 v 4.571 h -7.487 z m -4.824,-13.498 c 2.628,0 3.78,-1.044 3.78,-3.275 0,-1.944 -1.404,-2.88 -3.78,-2.88 h -2.879 v 6.155 z" fill="#009eb9" />
        <path id="path148" d="m 334.023,465.965 v -4.571 l 2.808,-0.36 v -14.902 l -2.808,-0.359 V 441.2 h 20.409 l 0.145,8.675 h -4.607 l -0.54,-3.563 h -6.407 v 4.787 h 5.363 v 4.932 h -5.363 v 4.823 h 6.335 l 0.54,-3.563 h 4.607 l -0.252,8.675 h -20.23 z" fill="#009eb9" />
        <path id="path150" d="m 364.154,465.965 v -4.571 l 2.844,-0.36 v -14.902 l -2.844,-0.359 V 441.2 h 12.131 c 6.119,0 12.13,3.239 12.13,12.202 0,9.827 -5.939,12.563 -11.555,12.563 z m 11.231,-5.111 c 4.212,0 6.768,-1.62 6.768,-7.451 0,-4.968 -2.664,-7.091 -7.235,-7.091 h -1.728 v 14.542 z" fill="#009eb9" />
        <path id="path152" d="m 407.64,446.167 -2.844,-0.396 V 441.2 h 11.519 v 4.571 l -2.844,0.396 v 10.691 c 0,6.263 -3.743,9.358 -10.366,9.358 -6.623,0 -10.511,-3.096 -10.511,-9.358 v -10.691 l -2.844,-0.396 V 441.2 h 11.879 v 4.571 l -2.844,0.396 v 10.295 c 0,1.944 0.792,4.571 4.319,4.571 2.88,0 4.535,-2.052 4.535,-4.392 v -10.474 z" fill="#009eb9" />
        <path id="path154" d="m 425.029,465.965 v -4.571 l 2.844,-0.36 v -14.902 l -2.844,-0.359 V 441.2 h 10.295 c 7.091,0 10.654,1.728 10.654,6.659 0,4.211 -2.664,5.003 -3.636,5.291 v 0.288 c 1.764,0.216 5.399,1.188 5.399,5.759 0,4.248 -2.483,6.768 -10.043,6.768 z m 12.059,-14.722 c 1.655,0 2.628,-0.973 2.628,-2.448 0,-1.764 -1.404,-2.483 -2.988,-2.483 h -2.663 v 4.932 h 3.023 z m -3.024,4.643 v 4.968 h 3.923 c 2.52,0 3.492,-0.684 3.492,-2.447 0,-1.584 -1.225,-2.521 -2.988,-2.521 z" fill="#009eb9" />
        <path id="path156" d="m 472.727,461.033 2.52,0.36 v 4.571 h -11.159 v -4.571 l 2.7,-0.36 -0.9,-2.375 H 457.5 l -0.899,2.375 2.699,0.36 v 4.571 h -10.979 v -4.571 l 2.52,-0.36 5.651,-14.902 -3.168,-0.18 V 441.2 h 11.879 z m -10.152,-11.194 c -0.252,-0.647 -0.792,-2.195 -0.792,-2.195 h -0.18 c 0,0 -0.54,1.548 -0.792,2.195 l -1.548,4.104 h 4.859 z" fill="#009eb9" />
        <path id="path158" d="m 476.581,465.965 v -4.571 l 2.844,-0.36 v -14.902 l -2.844,-0.359 V 441.2 h 12.131 c 6.119,0 12.13,3.239 12.13,12.202 0,9.827 -5.939,12.563 -11.555,12.563 z m 11.231,-5.111 c 4.212,0 6.768,-1.62 6.768,-7.451 0,-4.968 -2.664,-7.091 -7.235,-7.091 h -1.728 v 14.542 z" fill="#009eb9" />
        <path id="path160" d="m 524.422,457.29 c 0,3.707 -2.052,8.927 -10.402,8.927 -6.804,0 -11.051,-3.924 -11.051,-12.67 0,-8.676 4.283,-12.563 11.051,-12.563 8.351,0 10.402,4.355 10.402,7.486 0,1.116 -0.252,1.872 -0.252,1.872 l -5.867,0.54 c 0,0 0.144,-0.54 0.144,-1.296 0,-1.476 -0.936,-3.456 -4.104,-3.456 -2.844,0 -5.111,1.8 -5.111,7.523 0,5.651 2.484,7.379 5.327,7.379 2.736,0 3.744,-1.188 3.852,-3.203 l -3.491,-0.36 v -4.211 h 9.503 v 4.032 z" fill="#009eb9" />
        <path id="path162" d="m 526.908,465.965 v -4.571 l 2.808,-0.36 v -14.902 l -2.808,-0.359 V 441.2 h 20.409 l 0.145,8.675 h -4.607 l -0.54,-3.563 h -6.407 v 4.787 h 5.363 v 4.932 h -5.363 v 4.823 h 6.335 l 0.54,-3.563 h 4.607 l -0.252,8.675 h -20.23 z" fill="#009eb9" />
        <path id="path164" d="m 557.039,465.965 v -4.571 l 2.844,-0.36 v -14.866 l -2.844,-0.396 V 441.2 h 11.879 v 4.571 l -2.844,0.396 v 14.866 l 2.844,0.36 v 4.571 h -11.879 z" fill="#009eb9" />
        <path id="path166" d="m 586.521,457.218 v -0.684 l 5.976,1.224 v 0.612 c 0,3.275 -2.088,7.847 -10.583,7.847 -6.695,0 -10.87,-3.924 -10.87,-12.67 0,-8.676 4.283,-12.563 11.051,-12.563 8.351,0 10.402,4.787 10.402,8.207 0,1.115 -0.252,1.871 -0.252,1.871 l -5.867,0.72 c 0,0 0.144,-0.611 0.144,-1.476 0,-1.764 -0.936,-4.176 -4.104,-4.176 -2.844,0 -5.111,1.8 -5.111,7.523 0,5.651 2.412,7.379 5.147,7.379 3.096,0.001 4.067,-1.438 4.067,-3.814 z" fill="#009eb9" />
        <path id="path168" d="m 594.804,465.965 v -4.571 l 2.844,-0.36 v -14.866 l -2.844,-0.396 V 441.2 h 11.879 v 4.571 l -2.844,0.396 v 14.866 l 2.844,0.36 v 4.571 h -11.879 z" fill="#009eb9" />
      </g>
    </g>
  </g>
  <g style="display:inline" id="layer14">
    <g style="display:inline" id="picto_titre_badge" transform="translate(8.51667,24.9504)">
      <path id="path135" d="m 363.805,244.391 c 6.838,6.564 15.277,11.789 25.084,15.523 9.803,3.742 21.309,5.637 34.201,5.637 12.717,0 24.18,-1.895 34.066,-5.637 9.893,-3.734 18.375,-8.957 25.211,-15.523 6.844,-6.576 12.201,-14.363 15.922,-23.143 1.627,-3.848 2.979,-7.93 4.021,-12.148 h -50.096 c -1.318,2.271 -2.649,4.156 -4.063,5.748 -5.457,6.156 -13.891,9.281 -25.063,9.281 -13.572,0 -17.242,-0.455 -25.189,-9.275 -1.439,-1.586 -2.756,-3.426 -4.119,-5.754 h -49.922 c 1.038,4.203 2.393,8.285 4.033,12.146 3.722,8.791 9.076,16.576 15.914,23.145 z" fill="#009eb9" />
      <path id="path137" d="m 504.693,354.682 c -0.523,-9.941 -2.678,-19.449 -6.406,-28.25 -3.719,-8.766 -9.072,-16.496 -15.916,-22.977 -6.832,-6.473 -15.32,-11.699 -25.223,-15.529 -9.896,-3.822 -21.355,-5.76 -34.061,-5.76 -12.875,0 -24.383,1.938 -34.193,5.76 -9.814,3.832 -18.258,9.059 -25.096,15.529 -6.838,6.469 -12.188,14.203 -15.906,22.977 -3.729,8.789 -5.887,18.293 -6.411,28.256 -0.362,7.871 -0.524,33.045 -0.524,41.285 0,0.611 0.008,1.197 0.016,1.785 l 0.004,0.184 h 46.764 l -0.006,-0.35 c -0.012,-0.713 -0.025,-1.426 -0.025,-2.158 0,-3.904 0.049,-25.1 0.143,-29.027 0.094,-4.068 0.311,-7.518 0.658,-10.537 0.357,-4.543 1.314,-8.836 2.848,-12.723 1.537,-3.896 3.748,-7.334 6.568,-10.221 2.822,-2.893 6.361,-5.201 10.516,-6.865 4.15,-1.662 9.078,-2.506 14.646,-2.506 5.568,0 10.496,0.844 14.648,2.506 4.143,1.662 7.686,3.971 10.521,6.863 2.814,2.893 5.02,6.33 6.561,10.221 1.525,3.881 2.484,8.174 2.848,12.762 0.178,3.104 0.356,6.584 0.535,10.477 0.17,3.943 0.256,25.145 0.256,29.051 0,0.643 -0.018,1.268 -0.035,1.893 -0.008,0.207 -0.014,0.41 -0.018,0.615 h 46.805 l 0.002,-0.236 c 0.008,-0.568 0.018,-1.137 0.018,-1.732 -0.001,-8.86 -0.181,-33.588 -0.537,-41.293 z" fill="#009eb9" />
    </g>
  </g>
</svg>
