<?xml version="1.0" encoding="UTF-8" standalone="no"?>
<svg xmlns:dc="http://purl.org/dc/elements/1.1/"
  xmlns:cc="http://creativecommons.org/ns#"
  xmlns:rdf="http://www.w3.org/1999/02/22-rdf-syntax-ns#"
  xmlns:svg="http://www.w3.org/2000/svg"
  xmlns="http://www.w3.org/2000/svg"
  xmlns:xlink="http://www.w3.org/1999/xlink" version="1.1" x="0px" y="0px" width="100%" height="100%" viewBox="0 0 850.39371 850.39371" enable-background="new 0 0 850.394 841.89" xml:space="preserve" id="svg2303">
  <metadata id="metadata2309">
    <rdf:RDF>
      <cc:Work rdf:about="">
        <dc:format>image/svg+xml</dc:format>
        <dc:type rdf:resource="http://purl.org/dc/dcmitype/StillImage" />
        <dc:title></dc:title>
      </cc:Work>
    </rdf:RDF>
  </metadata>
  <defs id="defs2307">
    <linearGradient y2="116.8174" x2="420.56351" y1="116.8174" x1="257.7666" gradientUnits="userSpaceOnUse" id="SVGID_1_">
      <stop id="stop2215" style="stop-color:#FFFFFF" offset="0" />
      <stop id="stop2217" style="stop-color:#8D7D9F" offset="0.4515" />
      <stop id="stop2219" style="stop-color:#473467" offset="1" />
    </linearGradient>
    <linearGradient gradientTransform="matrix(-1,0,0,1,1066.5762,0)" y2="116.8174" x2="634.80957" y1="116.8174" x1="472.0127" gradientUnits="userSpaceOnUse" id="SVGID_2_">
      <stop id="stop2224" style="stop-color:#FFFFFF" offset="0" />
      <stop id="stop2226" style="stop-color:#8D7D9F" offset="0.4515" />
      <stop id="stop2228" style="stop-color:#473467" offset="1" />
    </linearGradient>
    <clipPath id="SVGID_2_-4">
      <use height="100%" width="100%" y="0" x="0" xlink:href="#SVGID_1_-0" overflow="visible" id="use122" />
    </clipPath>
    <clipPath id="SVGID_4_">
      <use height="100%" width="100%" y="0" x="0" xlink:href="#SVGID_3_" overflow="visible" id="use132" />
    </clipPath>
    <path id="SVGID_1_-0" d="m 404.664,50.394 c 1.172,3.438 3.039,6.252 4.836,8.439 l -19.805,17.313 c -3.164,-1.836 -6.135,-4.258 -8.674,-7.969 l -13.156,3.746 c 0,0 -1.5,20.816 0.125,20.816 1.625,0 20.75,-1.5 22,-1.5 1.25,0 37.625,-22.125 37.625,-22.125 l 13.875,-38 c 0,0 -0.625,-12.084 -1,-12.291 -0.375,-0.209 -36.375,17.006 -36.375,17.006 z" />
    <path id="SVGID_3_" d="m 453.475,81.825 c 1.949,-1.783 5.014,-5.445 6.551,-8.467 l 18.717,21.805 0.957,1.021 c -2.836,3.092 -6.361,5.285 -9.527,6.563 l 4.693,17.242 13.125,9.75 0.375,-10.625 c 0,0 -5.125,-47.875 -5.375,-48.25 -0.25,-0.375 -24.334,-23.75 -24.334,-23.75 0,0 -13.166,1.125 -13.166,1.5 0,0.375 -9.506,10 -9.506,10 l 5.662,19.625 z" />
    <clipPath id="SVGID_2_-4-8">
      <use id="use122-9" overflow="visible" xlink:href="#SVGID_1_-0" x="0" y="0" width="100%" height="100%" />
    </clipPath>
    <clipPath id="SVGID_4_-4">
      <use id="use132-1" overflow="visible" xlink:href="#SVGID_3_" x="0" y="0" width="100%" height="100%" />
    </clipPath>
    <path d="m 404.664,50.394 c 1.172,3.438 3.039,6.252 4.836,8.439 l -19.805,17.313 c -3.164,-1.836 -6.135,-4.258 -8.674,-7.969 l -13.156,3.746 c 0,0 -1.5,20.816 0.125,20.816 1.625,0 20.75,-1.5 22,-1.5 1.25,0 37.625,-22.125 37.625,-22.125 l 13.875,-38 c 0,0 -0.625,-12.084 -1,-12.291 -0.375,-0.209 -36.375,17.006 -36.375,17.006 z" id="path300" />
    <path d="m 453.475,81.825 c 1.949,-1.783 5.014,-5.445 6.551,-8.467 l 18.717,21.805 0.957,1.021 c -2.836,3.092 -6.361,5.285 -9.527,6.563 l 4.693,17.242 13.125,9.75 0.375,-10.625 c 0,0 -5.125,-47.875 -5.375,-48.25 -0.25,-0.375 -24.334,-23.75 -24.334,-23.75 0,0 -13.166,1.125 -13.166,1.5 0,0.375 -9.506,10 -9.506,10 l 5.662,19.625 z" id="path307" />
    <linearGradient y2="34.083" x2="419.22461" y1="34.083" x1="256.4277" gradientUnits="userSpaceOnUse" id="SVGID_1_-1" gradientTransform="translate(-0.52877063,-24.950401)">
      <stop id="stop95" style="stop-color:#FFFFFF" offset="0" />
      <stop id="stop97" style="stop-color:#8D7D9F" offset="0.4515" />
      <stop id="stop99" style="stop-color:#473467" offset="1" />
    </linearGradient>
    <linearGradient gradientTransform="matrix(-1,0,0,1,1066.0474,-24.950401)" y2="34.083" x2="636.14838" y1="34.083" x1="473.35159" gradientUnits="userSpaceOnUse" id="SVGID_2_-1">
      <stop id="stop104" style="stop-color:#FFFFFF" offset="0" />
      <stop id="stop106" style="stop-color:#8D7D9F" offset="0.4515" />
      <stop id="stop108" style="stop-color:#473467" offset="1" />
    </linearGradient>
    <linearGradient gradientTransform="translate(-0.52877,-24.9504)" id="SVGID_1_-1-5" gradientUnits="userSpaceOnUse" x1="256.4277" y1="34.083" x2="419.22461" y2="34.083">
      <stop offset="0" style="stop-color:#FFFFFF" id="stop95-6" />
      <stop offset="0.4515" style="stop-color:#8D7D9F" id="stop97-9" />
      <stop offset="1" style="stop-color:#473467" id="stop99-4" />
    </linearGradient>
    <linearGradient id="SVGID_2_-1-0" gradientUnits="userSpaceOnUse" x1="473.35159" y1="34.083" x2="636.14838" y2="34.083" gradientTransform="matrix(-1,0,0,1,1066.0474,-24.950401)">
      <stop offset="0" style="stop-color:#FFFFFF" id="stop104-4" />
      <stop offset="0.4515" style="stop-color:#8D7D9F" id="stop106-9" />
      <stop offset="1" style="stop-color:#473467" id="stop108-8" />
    </linearGradient>
  </defs>
  <g id="layer26" style="display:inline">
    <g id="texte_posture" transform="translate(0.261)">
      <g id="g22">
        <path fill="#473467" d="m 312.85,762.874 -11.038,15.416 c -1.724,2.407 -3.766,3.782 -6.126,4.124 -2.361,0.344 -4.768,-0.363 -7.217,-2.117 -3.101,-2.22 -4.845,-5.305 -5.23,-9.254 l 5.438,-1.961 c 0.415,2.855 1.403,4.842 2.965,5.96 1.626,1.164 3.106,0.814 4.441,-1.05 l 7.592,-10.604 -7.806,-5.588 3.354,-4.684 z" id="path2" />
        <path fill="#473467" d="m 334.13,781.867 -12.895,-7.265 -2.729,4.845 11.641,6.557 -2.749,4.879 -11.64,-6.557 -2.769,4.914 13.277,7.479 -2.748,4.879 -19.481,-10.975 13.743,-24.396 19.098,10.76 z" id="path4" />
        <path fill="#473467" d="m 372.283,819.988 -5.979,-1.918 5.521,-17.343 -11.103,12.611 -4.418,-1.417 -1.695,-16.717 -5.559,17.33 -6.057,-1.942 8.564,-26.7 7.427,2.383 2.143,18.204 12.332,-13.562 7.389,2.37 z" id="path6" />
        <path fill="#473467" d="m 389.229,794.489 c 0.89,0.172 1.594,0.606 2.111,1.304 0.517,0.698 0.68,1.543 0.487,2.539 -0.172,0.89 -0.627,1.698 -1.364,2.425 l -3.67,3.61 -3.221,-0.622 2.57,-3.822 c -0.747,-0.769 -1.016,-1.703 -0.803,-2.804 0.187,-0.968 0.646,-1.693 1.378,-2.178 0.732,-0.483 1.57,-0.634 2.512,-0.452 z" id="path8" />
        <path fill="#473467" d="m 418.885,803.83 -14.737,-1.355 -0.509,5.537 13.304,1.223 -0.513,5.576 -13.304,-1.223 -0.517,5.617 15.177,1.395 -0.513,5.576 -22.267,-2.047 2.563,-27.882 21.828,2.006 z" id="path10" />
        <path fill="#473467" d="m 452.276,824.923 -6.271,0.358 -13.841,-16.479 0.982,17.212 -6.669,0.38 -1.596,-27.954 6.27,-0.357 13.884,16.516 -0.984,-17.252 6.629,-0.378 z" id="path12" />
        <path fill="#473467" d="m 477.666,805.72 6.026,-1.276 2.263,10.684 c -1.267,1.358 -2.879,2.593 -4.838,3.703 -1.96,1.109 -3.892,1.866 -5.796,2.27 -4.174,0.884 -7.939,0.285 -11.298,-1.799 -3.357,-2.082 -5.459,-5.12 -6.304,-9.111 -0.84,-3.965 -0.107,-7.582 2.199,-10.852 2.306,-3.269 5.624,-5.361 9.955,-6.278 2.035,-0.431 4.134,-0.493 6.298,-0.188 2.163,0.305 4.082,0.934 5.756,1.889 l -2.91,5.563 c -1.186,-0.702 -2.486,-1.184 -3.903,-1.441 -1.418,-0.259 -2.767,-0.253 -4.044,0.018 -2.244,0.475 -3.965,1.65 -5.162,3.525 -1.197,1.876 -1.553,3.962 -1.066,6.258 0.491,2.322 1.672,4.102 3.543,5.342 1.871,1.238 3.941,1.618 6.211,1.138 1.461,-0.31 2.984,-1.095 4.57,-2.358 z" id="path14" />
        <path fill="#473467" d="m 511.437,804.348 -11.467,4.282 -0.106,5.548 -6.857,2.561 1.522,-30.457 6.857,-2.561 20.85,22.104 -7.12,2.658 z m -3.838,-4.33 -7.371,-8.307 -0.198,11.133 z" id="path16" />
        <path fill="#473467" d="m 537.404,781.595 5.415,-2.937 5.206,9.6 c -0.827,1.662 -2.023,3.304 -3.586,4.924 -1.563,1.622 -3.2,2.896 -4.91,3.824 -3.751,2.035 -7.532,2.531 -11.344,1.488 -3.812,-1.043 -6.689,-3.357 -8.634,-6.943 -1.933,-3.563 -2.259,-7.24 -0.977,-11.029 1.282,-3.789 3.868,-6.739 7.76,-8.85 1.829,-0.992 3.823,-1.648 5.984,-1.971 2.161,-0.323 4.18,-0.266 6.056,0.174 l -1.209,6.161 c -1.336,-0.337 -2.72,-0.429 -4.152,-0.273 -1.434,0.155 -2.724,0.544 -3.872,1.167 -2.017,1.094 -3.331,2.71 -3.946,4.848 -0.615,2.139 -0.363,4.24 0.756,6.303 1.132,2.086 2.77,3.457 4.916,4.113 2.146,0.656 4.238,0.432 6.277,-0.674 1.313,-0.713 2.55,-1.898 3.712,-3.561 z" id="path18" />
        <path fill="#473467" d="m 561.998,755.193 -12.012,8.646 3.247,4.513 10.844,-7.805 3.271,4.545 -10.844,7.805 3.295,4.578 12.369,-8.902 3.271,4.545 -18.148,13.062 -16.356,-22.726 17.791,-12.805 z" id="path20" />
      </g>
    </g>
  </g>
  <g id="layer25" style="display:inline">
    <g id="filet_separation_theme" style="display:inline;stroke:#000000" transform="translate(0.246)">
      <line id="line25" y2="621.797" x2="430.18201" y1="584.01398" x1="430.18201" stroke-miterlimit="10" stroke="#000000" fill="none" style="stroke:#000000" />
    </g>
  </g>
  <g id="layer24" style="display:inline">
    <g style="display:inline" id="picto_theme" transform="translate(0.246)">
      <g id="g32">
        <path id="path28" d="m 486.268,585.982 c 2.644,2.538 5.906,4.559 9.697,6.002 3.789,1.446 8.237,2.179 13.221,2.179 4.916,0 9.348,-0.732 13.17,-2.179 3.824,-1.443 7.104,-3.463 9.746,-6.002 2.646,-2.541 4.717,-5.552 6.155,-8.945 0.629,-1.488 1.151,-3.065 1.555,-4.697 h -19.366 c -0.51,0.879 -1.024,1.608 -1.57,2.223 -2.11,2.38 -5.369,3.588 -9.689,3.588 -5.246,0 -6.664,-0.176 -9.737,-3.586 -0.556,-0.613 -1.065,-1.323 -1.593,-2.225 h -19.299 c 0.402,1.626 0.926,3.204 1.56,4.696 1.437,3.399 3.506,6.408 6.15,8.946 z" stroke-miterlimit="10" stroke-width="2" stroke="#000000" fill="none" />
        <path id="path30" d="m 540.732,628.619 c -0.202,-3.843 -1.036,-7.519 -2.477,-10.921 -1.438,-3.389 -3.506,-6.378 -6.152,-8.883 -2.641,-2.502 -5.922,-4.521 -9.75,-6.002 -3.826,-1.478 -8.256,-2.228 -13.168,-2.228 -4.978,0 -9.426,0.75 -13.219,2.227 -3.794,1.482 -7.059,3.502 -9.701,6.003 -2.643,2.502 -4.712,5.491 -6.149,8.883 -1.44,3.398 -2.275,7.072 -2.478,10.923 -0.141,3.044 -0.203,12.774 -0.203,15.961 0,0.237 0.002,0.462 0.006,0.69 l 0.002,0.071 h 18.077 l -0.002,-0.137 c -0.005,-0.274 -0.009,-0.55 -0.009,-0.834 0,-1.51 0.018,-9.703 0.054,-11.221 0.036,-1.573 0.12,-2.906 0.255,-4.074 0.139,-1.756 0.508,-3.416 1.1,-4.918 0.596,-1.506 1.449,-2.836 2.541,-3.951 1.09,-1.117 2.459,-2.011 4.064,-2.654 1.604,-0.642 3.51,-0.968 5.662,-0.968 2.152,0 4.058,0.326 5.662,0.968 1.603,0.643 2.972,1.536 4.068,2.653 1.088,1.119 1.94,2.447 2.535,3.951 0.59,1.501 0.961,3.16 1.102,4.935 0.068,1.199 0.138,2.545 0.207,4.049 0.066,1.524 0.099,9.72 0.099,11.23 0,0.249 -0.007,0.491 -0.015,0.733 -0.002,0.078 -0.004,0.156 -0.006,0.237 h 18.094 v -0.092 c 0.004,-0.22 0.008,-0.439 0.008,-0.67 0,-3.422 -0.07,-12.981 -0.207,-15.961 z" stroke-miterlimit="10" stroke-width="2" stroke="#000000" fill="none" />
      </g>
    </g>
  </g>
  <g id="layer23" style="display:inline">
    <g style="display:inline" id="texte_picto_theme" transform="translate(0.246)">
      <g id="g55">
        <path id="path35" d="m 456.34,547.885 h -3.798 v 10.025 h -3.204 v -10.025 h -3.762 v -2.593 h 10.764 z" />
        <path id="path37" d="m 467.572,547.83 h -6.66 v 2.502 h 6.012 v 2.52 h -6.012 v 2.539 h 6.857 v 2.52 h -10.062 v -12.6 h 9.864 v 2.519 z" />
        <path id="path39" d="m 477.148,551.322 4.518,6.588 h -3.834 l -2.718,-4.014 -2.718,4.014 h -3.727 l 4.5,-6.443 -4.212,-6.156 h 3.726 l 2.431,3.672 2.43,-3.672 h 3.763 z" />
        <path id="path41" d="m 492.682,547.885 h -3.798 v 10.025 h -3.204 v -10.025 h -3.762 v -2.593 h 10.764 z" />
        <path id="path43" d="m 503.914,547.83 h -6.66 v 2.502 h 6.012 v 2.52 h -6.012 v 2.539 h 6.857 v 2.52 h -10.063 v -12.6 h 9.865 v 2.519 z" />
        <path id="path45" d="m 519.988,547.885 h -3.799 v 10.025 h -3.203 v -10.025 h -3.763 v -2.593 h 10.765 z" />
        <path id="path47" d="m 532.983,557.91 h -3.204 v -4.896 h -5.221 v 4.896 h -3.203 v -12.6 h 3.203 v 5.184 h 5.221 v -5.184 h 3.204 z" />
        <path id="path49" d="m 545.367,547.83 h -6.66 v 2.502 h 6.012 v 2.52 h -6.012 v 2.539 h 6.857 v 2.52 h -10.062 v -12.6 h 9.864 v 2.519 z m -3.312,-3.618 h -2.375 l -2.34,-2.034 2.807,-0.99 z" />
        <path id="path51" d="m 561.478,557.91 h -2.826 l -0.019,-8.189 -3.023,6.93 h -2.088 l -3.023,-6.93 v 8.189 h -2.863 v -12.618 h 3.511 l 3.42,7.507 3.42,-7.507 h 3.492 v 12.618 z" />
        <path id="path53" d="m 573.879,547.83 h -6.66 v 2.502 h 6.012 v 2.52 h -6.012 v 2.539 h 6.857 v 2.52 h -10.062 v -12.6 h 9.864 v 2.519 z" />
      </g>
    </g>
  </g>
  <g id="layer22" style="display:inline">
    <g id="picto_categorie" style="display:inline" transform="translate(0.246)">
      <g id="g78">
        <polygon fill="none" stroke="#000000" stroke-width="2" stroke-miterlimit="10" points="306.013,576.509 334.013,578.759 362.513,576.634 390.013,576.634 390.013,635.259 362.638,635.259 333.849,638.488 306.388,635.384 " id="polygon58" />
        <path fill="none" stroke="#000000" stroke-width="2" stroke-miterlimit="10" d="m 334.013,578.759 c -0.125,0.25 0,59.729 0,59.729" id="path60" />
        <line fill="none" stroke="#000000" stroke-width="2" stroke-miterlimit="10" x1="362.513" y1="576.63397" x2="362.513" y2="635.25897" id="line62" />
        <line fill="none" stroke="#000000" stroke-width="2" stroke-linecap="round" stroke-miterlimit="10" x1="374.013" y1="587.25897" x2="385.388" y2="595.38397" id="line64" />
        <line fill="none" stroke="#000000" stroke-width="2" stroke-linecap="round" stroke-miterlimit="10" x1="374.013" y1="595.25897" x2="385.763" y2="587.13397" id="line66" />
        <g id="g76">
          <g id="g74">
            <path fill="none" stroke="#000000" stroke-width="2" stroke-linecap="round" stroke-miterlimit="10" d="m 311.638,636.009 c 0,-0.417 -0.116,-0.914 -0.097,-1.493" id="path68" />
            <path fill="none" stroke="#000000" stroke-width="2" stroke-linecap="round" stroke-miterlimit="10" stroke-dasharray="3.029, 4.0386" d="m 313.593,631.193 c 2.993,-2.349 10.204,-5.333 27.295,-8.935 29.125,-6.138 36.234,-12.972 38.403,-22.283" id="path70" />
            <path fill="none" stroke="#000000" stroke-width="2" stroke-linecap="round" stroke-miterlimit="10" d="m 379.678,597.991 c 0.079,-0.487 0.148,-0.981 0.21,-1.482" id="path72" />
          </g>
        </g>
      </g>
    </g>
  </g>
  <g id="layer21" style="display:inline">
    <g style="display:inline" id="texte_picto_categorie" transform="translate(0.246)">
      <g id="g97">
        <path id="path81" d="m 298.473,545.311 h 5.49 c 1.608,0 2.856,0.381 3.744,1.143 0.888,0.762 1.332,1.846 1.332,3.249 0,1.476 -0.444,2.622 -1.332,3.438 -0.888,0.816 -2.136,1.224 -3.744,1.224 h -2.286 v 3.546 h -3.204 z m 3.204,2.519 v 4.014 h 2.124 c 0.708,0 1.254,-0.174 1.638,-0.521 0.384,-0.348 0.576,-0.852 0.576,-1.512 0,-0.648 -0.192,-1.141 -0.576,-1.477 -0.384,-0.336 -0.93,-0.504 -1.638,-0.504 z" />
        <path id="path83" d="m 318.147,555.588 h -5.508 l -0.918,2.322 h -3.294 l 5.436,-12.6 h 3.294 l 5.31,12.6 h -3.42 z m -0.936,-2.43 -1.8,-4.662 -1.836,4.662 z" />
        <path id="path85" d="m 331.233,557.91 -1.872,-3.546 h -0.09 -2.43 v 3.546 h -3.204 v -12.6 h 5.634 c 1.668,0 2.958,0.381 3.87,1.143 0.912,0.762 1.368,1.846 1.368,3.249 0,1.944 -0.762,3.294 -2.286,4.05 l 2.646,4.158 z m -4.392,-6.066 h 2.43 c 0.696,0 1.236,-0.174 1.62,-0.521 0.384,-0.348 0.576,-0.852 0.576,-1.512 0,-0.648 -0.192,-1.141 -0.576,-1.477 -0.384,-0.336 -0.924,-0.504 -1.62,-0.504 h -2.43 z" />
        <path id="path87" d="m 342.573,545.202 c 0.936,0 1.857,0.192 2.763,0.576 0.906,0.384 1.677,0.899 2.313,1.548 l -1.854,2.195 c -0.408,-0.504 -0.897,-0.902 -1.467,-1.196 -0.57,-0.294 -1.137,-0.44 -1.701,-0.44 -0.996,0 -1.83,0.351 -2.502,1.053 -0.672,0.701 -1.008,1.568 -1.008,2.601 0,1.056 0.336,1.938 1.008,2.646 0.672,0.709 1.506,1.063 2.502,1.063 0.528,0 1.077,-0.132 1.647,-0.396 0.569,-0.264 1.077,-0.623 1.521,-1.08 l 1.872,1.98 c -0.684,0.696 -1.491,1.254 -2.421,1.674 -0.93,0.42 -1.857,0.631 -2.781,0.631 -1.896,0 -3.474,-0.619 -4.734,-1.854 -1.26,-1.235 -1.89,-2.778 -1.89,-4.626 0,-1.813 0.642,-3.327 1.926,-4.545 1.284,-1.218 2.886,-1.83 4.806,-1.83 z" />
        <path id="path89" d="m 354.885,545.202 c 1.956,0 3.582,0.609 4.878,1.827 1.296,1.218 1.944,2.738 1.944,4.563 0,1.836 -0.651,3.373 -1.953,4.608 -1.302,1.235 -2.925,1.854 -4.869,1.854 -1.944,0 -3.564,-0.615 -4.86,-1.846 -1.296,-1.229 -1.944,-2.769 -1.944,-4.617 0,-1.836 0.648,-3.359 1.944,-4.572 1.296,-1.21 2.916,-1.817 4.86,-1.817 z m 0.036,2.683 c -0.984,0 -1.824,0.356 -2.52,1.07 -0.696,0.715 -1.044,1.6 -1.044,2.655 0,1.055 0.351,1.946 1.053,2.673 0.702,0.727 1.539,1.089 2.511,1.089 0.972,0 1.797,-0.362 2.475,-1.089 0.678,-0.727 1.017,-1.617 1.017,-2.673 0,-1.056 -0.339,-1.94 -1.017,-2.655 -0.678,-0.714 -1.503,-1.07 -2.475,-1.07 z" />
        <path id="path91" d="m 374.739,545.311 v 7.308 c 0,1.668 -0.516,2.991 -1.548,3.969 -1.032,0.979 -2.43,1.468 -4.194,1.468 -1.776,0 -3.189,-0.489 -4.239,-1.468 -1.05,-0.978 -1.575,-2.301 -1.575,-3.969 v -7.308 h 3.204 v 7.308 c 0,0.84 0.243,1.509 0.729,2.007 0.486,0.498 1.119,0.747 1.899,0.747 0.768,0 1.383,-0.245 1.845,-0.737 0.461,-0.492 0.693,-1.164 0.693,-2.017 v -7.308 z" />
        <path id="path93" d="m 384.639,557.91 -1.872,-3.546 h -0.09 -2.43 v 3.546 h -3.204 v -12.6 h 5.634 c 1.668,0 2.958,0.381 3.87,1.143 0.912,0.762 1.368,1.846 1.368,3.249 0,1.944 -0.762,3.294 -2.286,4.05 l 2.646,4.158 z m -4.392,-6.066 h 2.43 c 0.696,0 1.236,-0.174 1.62,-0.521 0.384,-0.348 0.576,-0.852 0.576,-1.512 0,-0.648 -0.192,-1.141 -0.576,-1.477 -0.384,-0.336 -0.924,-0.504 -1.62,-0.504 h -2.43 z" />
        <path id="path95" d="m 394.917,545.166 c 1.884,0 3.54,0.469 4.968,1.404 l -1.206,2.502 c -0.66,-0.384 -1.368,-0.699 -2.124,-0.945 -0.756,-0.246 -1.393,-0.369 -1.908,-0.369 -0.924,0 -1.386,0.307 -1.386,0.918 0,0.396 0.228,0.715 0.684,0.955 0.456,0.239 1.011,0.446 1.665,0.62 0.654,0.175 1.308,0.384 1.962,0.63 0.654,0.246 1.209,0.646 1.665,1.197 0.456,0.553 0.684,1.248 0.684,2.088 0,1.213 -0.474,2.157 -1.422,2.835 -0.948,0.679 -2.154,1.017 -3.618,1.017 -1.044,0 -2.076,-0.18 -3.096,-0.539 -1.021,-0.36 -1.908,-0.852 -2.664,-1.477 l 1.242,-2.466 c 0.636,0.552 1.386,1.005 2.25,1.358 0.864,0.354 1.632,0.531 2.304,0.531 0.516,0 0.918,-0.092 1.206,-0.279 0.288,-0.186 0.432,-0.459 0.432,-0.818 0,-0.348 -0.166,-0.639 -0.495,-0.873 -0.33,-0.234 -0.741,-0.408 -1.233,-0.521 -0.492,-0.114 -1.026,-0.268 -1.602,-0.459 -0.576,-0.192 -1.11,-0.402 -1.602,-0.631 -0.492,-0.228 -0.903,-0.59 -1.233,-1.088 -0.331,-0.498 -0.495,-1.096 -0.495,-1.791 0,-1.152 0.459,-2.074 1.377,-2.764 0.918,-0.69 2.133,-1.035 3.645,-1.035 z" />
      </g>
    </g>
  </g>
  <g id="layer20" style="display:inline">
    <g style="display:inline" id="fond_categorie" transform="translate(0.246)">
      <path id="path100" d="M 627.5,515.949 V 195.625 l -74.286,-35.637 c -4.98,2.846 -10.489,5.549 -15.154,7.097 l -7.147,2.349 -7.457,-0.765 c -15.543,-1.541 -32.663,-7.972 -49.22,-14.192 l -0.166,-0.062 c -15.997,-6.01 -32.54,-12.225 -44.627,-12.449 h -0.171 c -12.081,0.224 -28.632,6.439 -44.637,12.45 l -0.289,0.109 c -16.494,6.195 -33.55,12.601 -49.066,14.143 l -7.48,0.766 -7.249,-2.38 c -4.613,-1.534 -10.096,-4.229 -15.056,-7.064 l -74.277,35.637 V 515.952 H 627.5 Z" fill="#b7d5e2" />
    </g>
  </g>
  <g id="layer19" style="display:inline">
    <g style="display:inline" id="picto_posture" transform="translate(0.246)">
      <g id="g179">
        <g id="g177">
          <g id="g175">
            <g id="g173">
              <g id="g171">
                <polygon id="polygon103" points="447.742,107.644 449.014,107.644 448.973,107.555 447.742,107.555 " fill="#473467" />
                <polygon id="polygon105" points="408.411,107.644 408.411,107.555 407.425,107.555 407.383,107.644 " fill="#473467" />
                <rect id="rect107" height="1.124" width="1.124" fill="#473467" transform="matrix(0.8661,-0.4999,0.4999,0.8661,48.7368,233.3542)" y="25.155001" x="459.32901" />
                <rect id="rect109" height="1.123" width="1.124" fill="#473467" transform="matrix(0.5004,0.8658,-0.8658,0.5004,254.2561,-385.3145)" y="27.101999" x="460.453" />
                <rect id="rect111" height="1.124" width="1.123" fill="#473467" transform="matrix(-0.8659,0.5003,-0.5003,-0.8659,874.0251,-175.9598)" y="28.636" x="460.04099" />
                <rect id="rect113" height="1.124" width="1.124" fill="#473467" transform="matrix(0.8663,-0.4996,0.4996,0.8663,47.0143,234.843)" y="29.048" x="461.57599" />
                <rect id="rect115" height="1.124" width="1.124" fill="#473467" transform="matrix(0.8661,-0.4999,0.4999,0.8661,46.2691,235.8217)" y="30.993999" x="462.70001" />
                <rect id="rect117" height="1.124" width="1.123" fill="#473467" transform="matrix(0.8659,-0.5003,0.5003,0.8659,45.5349,236.8259)" y="32.941002" x="463.82401" />
                <rect id="rect119" height="1.123" width="1.124" fill="#473467" transform="matrix(0.5004,0.8658,-0.8658,0.5004,257.6478,-298.8249)" y="73.285004" x="387.203" />
                <rect id="rect121" height="1.124" width="1.124" fill="#473467" transform="matrix(0.8661,-0.4999,0.4999,0.8661,15.838,203.7428)" y="71.75" x="387.61401" />
                <rect id="rect123" height="1.123" width="1.124" fill="#473467" transform="matrix(0.5004,0.8658,-0.8658,0.5004,257.647,-301.0714)" y="72.161003" x="389.14899" />
                <rect id="rect125" height="1.123" width="1.125" fill="#473467" transform="matrix(-0.5011,-0.8654,0.8654,-0.5011,574.6289,450.2791)" y="58.938" x="416.548" />
                <rect id="rect127" height="1.123" width="1.124" fill="#473467" transform="matrix(-0.5004,-0.8658,0.8658,-0.5004,578.2281,450.3967)" y="57.813999" x="418.495" />
                <rect id="rect129" height="1.123" width="1.124" fill="#473467" transform="matrix(-0.5004,-0.8658,0.8658,-0.5004,582.1213,450.3956)" y="56.689999" x="420.44101" />
                <rect id="rect131" height="1.123" width="1.124" fill="#473467" transform="matrix(-0.4998,-0.8661,0.8661,-0.4998,585.7185,450.5175)" y="55.566002" x="422.388" />
                <rect id="rect133" height="1.124" width="1.124" fill="#473467" transform="matrix(-0.5004,-0.8658,0.8658,-0.5004,589.9085,450.3937)" y="54.442001" x="424.33401" />
                <rect id="rect135" height="1.124" width="1.124" fill="#473467" transform="matrix(-0.4998,-0.8661,0.8661,-0.4998,593.504,450.5186)" y="53.318001" x="426.28101" />
                <rect id="rect137" height="1.124" width="1.124" fill="#473467" transform="matrix(-0.4996,-0.8663,0.8663,-0.4996,597.3101,450.5555)" y="52.194" x="428.22699" />
                <rect id="rect139" height="1.124" width="1.124" fill="#473467" transform="matrix(-0.4998,-0.8661,0.8661,-0.4998,601.2887,450.5193)" y="51.070999" x="430.17401" />
                <rect id="rect141" height="1.124" width="1.124" fill="#473467" transform="matrix(-0.4998,-0.8661,0.8661,-0.4998,605.1809,450.52)" y="49.946999" x="432.12" />
                <rect id="rect143" height="1.124" width="1.124" fill="#473467" transform="matrix(-0.4998,-0.8661,0.8661,-0.4998,609.0732,450.5204)" y="48.824001" x="434.06601" />
                <rect id="rect145" height="1.123" width="1.124" fill="#473467" transform="matrix(-0.5004,-0.8658,0.8658,-0.5004,613.2684,450.3878)" y="47.700001" x="436.01199" />
                <rect id="rect147" height="1.123" width="1.124" fill="#473467" transform="matrix(-0.5004,-0.8658,0.8658,-0.5004,617.1616,450.3867)" y="46.576" x="437.95801" />
                <rect id="rect149" height="1.123" width="1.124" fill="#473467" transform="matrix(-0.5004,-0.8658,0.8658,-0.5004,621.0548,450.3856)" y="45.452" x="439.905" />
                <rect id="rect151" height="1.123" width="1.124" fill="#473467" transform="matrix(-0.5002,-0.8659,0.8659,-0.5002,624.8599,450.4242)" y="44.328999" x="441.85101" />
                <rect id="rect153" height="1.124" width="1.124" fill="#473467" transform="matrix(-0.4998,-0.8661,0.8661,-0.4998,628.5366,450.5229)" y="43.205002" x="443.79901" />
                <rect id="rect155" height="1.124" width="1.124" fill="#473467" transform="matrix(-0.4998,-0.8661,0.8661,-0.4998,632.4288,450.5237)" y="42.081001" x="445.745" />
                <rect id="rect157" height="1.124" width="1.124" fill="#473467" transform="matrix(-0.4998,-0.8661,0.8661,-0.4998,636.3214,450.5237)" y="40.957001" x="447.69101" />
                <rect id="rect159" height="1.124" width="1.124" fill="#473467" transform="matrix(-0.4998,-0.8661,0.8661,-0.4998,640.2135,450.5244)" y="39.833" x="449.63699" />
                <rect id="rect161" height="1.124" width="1.124" fill="#473467" transform="matrix(-0.4998,-0.8661,0.8661,-0.4998,644.1059,450.5247)" y="38.709999" x="451.58401" />
                <rect id="rect163" height="1.124" width="1.124" fill="#473467" transform="matrix(-0.4998,-0.8661,0.8661,-0.4998,647.9983,450.5251)" y="37.585999" x="453.53" />
                <rect id="rect165" height="1.123" width="1.124" fill="#473467" transform="matrix(-0.5006,-0.8657,0.8657,-0.5006,652.2915,450.3356)" y="36.463001" x="455.47601" />
                <polygon id="polygon167" points="426.747,48.096 426.186,47.123 424.238,48.247 425.363,50.193 426.336,49.631 426.897,50.604 431.764,47.795 430.64,45.849 " fill="#473467" />
                <path id="path169" d="m 476.981,29.474 0.974,-0.562 -6.742,-11.678 -0.973,0.562 -1.125,-1.946 -14.598,8.428 1.124,1.946 -31.143,17.98 -0.562,-0.973 1.946,-1.124 -0.562,-0.974 4.866,-2.809 0.562,0.973 2.919,-1.686 -2.809,-4.866 -2.92,1.686 0.563,0.973 -5.137,2.965 c -0.672,-0.384 -1.52,-0.42 -2.238,-0.005 -0.718,0.415 -1.111,1.167 -1.114,1.941 l -7.082,4.089 -0.563,-0.973 -3.893,2.248 2.81,4.866 3.893,-2.248 -0.562,-0.973 4.866,-2.809 0.562,0.973 -1.946,1.124 0.562,0.973 4.782,-2.761 -14.514,8.379 1.687,2.92 -23.357,13.485 -1.124,-1.946 -1.946,1.124 -1.124,-1.946 0.974,-0.562 -1.124,-1.946 -4.866,2.81 1.124,1.946 0.973,-0.562 1.124,1.946 1.124,1.946 3.371,5.839 25.303,-14.609 0.563,0.973 2.919,-1.686 1.124,1.946 6.813,-3.933 1.123,1.946 0.974,-0.562 0.562,0.973 0.365,-0.21 c -0.021,0.149 -0.046,0.297 -0.046,0.451 0,0.255 0.036,0.5 0.091,0.739 l -20.592,43.368 h -2.168 v 2.248 h 1.26 l 2.111,-1.567 0.311,-0.769 h 0.951 l 19.702,-41.182 c 0.126,0.071 0.252,0.143 0.388,0.198 V 100.2 h -1.124 v 2.248 h 1.124 2.247 1.124 V 100.2 h -1.124 V 66.631 c 0.106,-0.036 0.214,-0.068 0.315,-0.113 l 18.896,41.038 h 0.869 l 0.283,0.769 2.113,1.567 h 1.122 v -2.248 h -1.951 L 431.796,64.677 c 0.133,-0.356 0.216,-0.737 0.216,-1.14 0,-0.101 -0.021,-0.197 -0.03,-0.295 l 1.66,-0.958 -1.123,-1.947 0.974,-0.562 -0.563,-0.974 3.893,-2.247 -0.562,-0.974 0.973,-0.562 -1.123,-1.946 26.275,-15.171 1.124,1.946 14.598,-8.428 z m -65.845,18.552 -1.124,-1.946 0.974,-0.562 1.123,1.946 z m 19.313,-13.745 1.123,1.946 -0.973,0.562 -1.124,-1.946 z m -7.635,7.003 v 0 0 l -7.785,4.495 -0.563,-0.973 6.813,-3.933 c -0.311,-0.537 -0.127,-1.225 0.411,-1.535 0.537,-0.311 1.225,-0.126 1.535,0.411 l 4.865,-2.81 0.563,0.973 z m -36.229,33.892 -0.562,-0.973 0.974,-0.562 -0.563,-0.974 -0.973,0.562 26.276,-15.17 1.123,1.946 z m 38.969,-13.415 -1.686,-2.919 0.973,-0.562 1.66,2.875 c -0.049,0.046 -0.097,0.092 -0.143,0.142 z m 32.787,-24.12 -0.562,-0.973 -0.974,0.562 0.562,0.973 -0.973,0.562 -0.562,-0.974 -0.974,0.562 0.562,0.973 -0.972,0.562 -0.563,-0.973 -0.973,0.562 0.562,0.973 -0.973,0.562 -0.563,-0.973 -0.973,0.562 0.563,0.973 -0.974,0.562 -0.563,-0.973 -0.973,0.562 0.562,0.974 -0.974,0.562 -0.562,-0.973 -0.973,0.562 0.562,0.973 -0.974,0.562 -0.562,-0.973 -0.973,0.562 0.562,0.974 -0.974,0.562 -0.562,-0.973 -0.974,0.562 0.563,0.973 -0.974,0.562 -0.562,-0.973 -0.974,0.562 0.562,0.973 -0.972,0.562 -0.563,-0.973 -0.974,0.562 0.563,0.973 -0.974,0.562 -0.562,-0.974 -0.974,0.562 0.563,0.973 -0.974,0.562 -0.562,-0.973 -0.974,0.562 0.562,0.973 -0.973,0.562 -0.563,-0.973 -0.973,0.562 0.562,0.973 -0.973,0.562 -0.563,-0.973 -0.973,0.562 0.562,0.974 -0.974,0.562 -0.562,-0.973 -0.973,0.562 0.562,0.973 -0.973,0.562 -0.563,-0.973 -0.973,0.562 0.562,0.973 -0.973,0.562 -0.563,-0.973 -0.973,0.562 0.562,0.973 -0.974,0.562 -0.562,-0.974 -0.974,0.562 0.563,0.973 -0.974,0.562 -0.562,-0.973 -0.974,0.562 0.563,0.973 -0.974,0.562 -0.562,-0.973 -0.974,0.562 0.562,0.973 -0.973,0.562 -0.562,-0.973 -0.974,0.562 0.563,0.974 -0.974,0.562 -0.561,-0.973 -0.975,0.562 0.562,0.973 v 0 l -4.494,-7.786 42.82,-24.722 1.123,1.946 -20.422,11.794 0.562,0.973 20.438,-11.799 1.686,2.92 -0.974,0.562 0.563,0.973 0.973,-0.562 0.562,0.974 z m 7.935,-1.987 -0.562,-0.973 -0.974,0.562 0.563,0.973 -0.974,0.562 -0.562,-0.973 0.973,-0.562 -0.562,-0.973 -0.974,0.562 0.032,0.053 -0.911,-1.577 0.317,0.55 0.974,-0.562 -0.562,-0.973 -0.974,0.562 -0.563,-0.973 0.974,-0.562 -0.562,-0.973 -0.974,0.562 -1.686,-2.919 0.974,-0.562 -0.563,-0.973 -0.973,0.562 -0.563,-0.973 0.974,-0.562 -0.562,-0.973 -0.974,0.562 10.705,-6.181 6.742,11.678 z" fill="#473467" />
              </g>
            </g>
          </g>
        </g>
      </g>
    </g>
  </g>
  <g id="layer18" style="display:inline">
    <g style="display:inline" id="filet_1_categorie" transform="translate(0.246)">
      <g id="g188">
        <g id="g186">
          <path id="path182" d="m 497.604,76.483 c 54.905,12.429 93.385,37.66 119.189,54.58 5.349,3.507 9.969,6.536 14.092,9.025 5.224,3.153 7.781,6.478 7.599,9.88 -0.28,5.229 -6.96,13.398 -7.243,13.531" stroke-miterlimit="10" stroke-width="2" stroke="#473467" fill="none" />
          <path id="path184" d="m 227.474,163.499 c -0.284,-0.132 -6.962,-8.302 -7.241,-13.53 -0.183,-3.403 2.375,-6.728 7.601,-9.881 4.112,-2.482 8.719,-5.501 14.053,-8.997 25.15,-16.482 62.328,-40.847 114.981,-53.596" stroke-miterlimit="10" stroke-width="2" stroke="#473467" fill="none" />
        </g>
      </g>
      <g id="g192">
        <path id="path190" d="m 590.287,674.593 v 39.894 l -0.888,0.101 c -0.467,0.053 -47.208,5.516 -89.857,23.837 -30.47,13.092 -59.517,35.693 -68.811,43.26 l 0.024,0.032 -0.684,0.514 -0.547,0.679 -0.149,-0.115 -0.049,0.04 -0.044,-0.04 -0.158,0.111 -0.514,-0.709 c -8.543,-7 -38.237,-30.365 -69.438,-43.771 -42.649,-18.321 -89.389,-23.784 -89.855,-23.837 l -0.888,-0.101 v -39.894" stroke-miterlimit="10" stroke-width="2" stroke="#473467" fill="none" />
      </g>
    </g>
  </g>
  <g id="layer17" style="display:inline">
    <g style="display:inline" id="filet_2_categorie" transform="translate(0.246)">
      <path id="path195" d="m 429.828,111.939 c -0.019,0 -0.051,0 -0.076,0 v 0.032 c -17.186,0.317 -36.207,7.442 -54.628,14.36 -14.804,5.559 -30.104,11.326 -41.793,12.484 l -1.201,0.123 -1.079,-0.354 c -3.614,-1.203 -10.563,-4.916 -15.483,-8.284 l -6.813,-4.655 -106.501,51.098 v 464.374 l 106.501,51.104 6.813,-4.66 c 4.921,-3.368 11.869,-7.078 15.483,-8.271 l 1.079,-0.357 1.201,0.116 c 11.689,1.166 26.989,6.923 41.793,12.477 18.427,6.924 37.442,14.048 54.628,14.368 l 1,0.034 c 0.025,0 -0.942,0 -0.924,0 0.192,0 0.375,-0.021 0.56,-0.021 0.195,0 0.384,0.021 0.563,0.021 0.032,0 -0.942,0 -0.917,0 l 1,-0.034 c 17.192,-0.32 36.207,-7.446 54.622,-14.368 14.799,-5.554 30.119,-11.311 41.794,-12.477 l 1.202,-0.116 1.077,0.357 c 3.622,1.193 10.568,4.903 15.489,8.271 l 6.807,4.66 106.512,-51.104 V 176.744 l -106.512,-51.098 -6.807,4.655 c -4.921,3.368 -11.867,7.081 -15.489,8.284 l -1.077,0.354 -1.202,-0.123 c -11.675,-1.158 -26.995,-6.926 -41.794,-12.484 -18.415,-6.918 -37.43,-14.043 -54.622,-14.36 v -0.032 c -0.025,0 -0.051,0 -0.083,0 -0.18,0 -0.368,0.011 -0.563,0.011 -0.185,-10e-4 -0.367,-0.012 -0.56,-0.012 z" stroke-miterlimit="10" stroke-width="27" stroke="#009eb9" fill="none" opacity="0.2" />
    </g>
  </g>












  <g id="layer16" style="display:inline">
    <g style="display:inline" id="filet_3_posture" transform="translate(0.246)">
      <path id="path198" d="m 428.791,111.939 c -0.019,0 -0.051,0 -0.076,0 v 0.032 c -17.186,0.318 -36.207,7.442 -54.628,14.36 -14.804,5.56 -30.104,11.327 -41.793,12.484 l -1.201,0.123 -1.079,-0.354 c -3.614,-1.202 -10.563,-4.915 -15.482,-8.283 l -6.813,-4.655 -105.501,51.097 v 464.374 l 105.501,51.104 6.813,-4.66 c 4.919,-3.368 11.868,-7.078 15.482,-8.271 l 1.079,-0.357 1.201,0.116 c 11.689,1.166 26.989,6.923 41.793,12.476 18.421,6.923 37.442,14.049 54.628,14.369 v 0.034 c 0.025,0 0.058,0 0.076,0 0.192,0 0.375,-0.021 0.56,-0.021 0.195,0 0.384,0.021 0.563,0.021 0.032,0 0.058,0 0.083,0 v -0.034 c 17.192,-0.32 36.207,-7.446 54.622,-14.369 14.799,-5.553 30.119,-11.31 41.794,-12.476 l 1.202,-0.116 1.077,0.357 c 3.622,1.193 10.568,4.903 15.489,8.271 l 6.807,4.66 L 657.5,641.117 V 176.744 l -106.512,-51.097 -6.807,4.655 c -4.921,3.368 -11.867,7.082 -15.489,8.283 l -1.077,0.354 -1.202,-0.123 c -11.675,-1.157 -26.995,-6.925 -41.794,-12.484 -18.415,-6.918 -37.43,-14.042 -54.622,-14.36 v -0.032 c -0.025,0 -0.051,0 -0.083,0 -0.18,0 -0.368,0.011 -0.563,0.011 -0.185,-10e-4 -0.368,-0.012 -0.56,-0.012 z" stroke-miterlimit="10" stroke-width="3" stroke="#009eb9" fill="none" />
    </g>
  </g>
  <g id="layer15" style="display:inline">
    <g style="display:inline" id="texte_titre_badge" transform="translate(0.246)">
      <g id="g236">
        <path id="path206" d="m 263.891,494.068 2.844,0.36 V 499 h -11.879 v -4.571 l 2.844,-0.36 v -14.722 h -3.636 l -0.539,3.563 h -4.607 l 0.18,-8.675 h 23.396 l 0.181,8.675 h -4.607 l -0.54,-3.563 h -3.636 v 14.721 z" fill="#009eb9" />
        <path id="path208" d="m 274.368,499 v -4.571 l 2.844,-0.36 v -14.866 l -2.844,-0.396 v -4.571 h 11.879 v 4.571 l -2.844,0.396 v 14.866 l 2.844,0.36 V 499 Z" fill="#009eb9" />
        <path id="path210" d="m 302.878,494.068 2.844,0.36 V 499 h -11.879 v -4.571 l 2.844,-0.36 v -14.722 h -3.636 l -0.539,3.563 h -4.607 l 0.18,-8.675 h 23.396 l 0.181,8.675 h -4.607 l -0.54,-3.563 h -3.636 v 14.721 z" fill="#009eb9" />
        <path id="path212" d="m 330.095,499 -4.536,-8.675 h -3.167 v 3.743 l 3.635,0.36 V 499 h -12.67 v -4.571 l 2.844,-0.36 v -14.866 l -2.844,-0.396 v -4.571 h 13.462 c 5.04,0 8.495,2.844 8.495,7.631 0,4.067 -1.691,5.688 -4.067,6.983 v 0.18 c 0,0 0.396,0.288 0.684,0.792 l 2.484,4.247 3.167,0.36 V 499 Z m -4.824,-13.498 c 2.628,0 3.78,-1.044 3.78,-3.275 0,-1.944 -1.404,-2.88 -3.78,-2.88 h -2.879 v 6.155 z" fill="#009eb9" />
        <path id="path214" d="m 339.024,499 v -4.571 l 2.808,-0.36 v -14.902 l -2.808,-0.359 v -4.571 h 20.409 l 0.145,8.675 h -4.607 l -0.54,-3.563 h -6.407 v 4.787 h 5.363 v 4.932 h -5.363 v 4.823 h 6.335 l 0.54,-3.563 h 4.607 L 359.254,499 Z" fill="#009eb9" />
        <path id="path216" d="m 369.155,499 v -4.571 l 2.844,-0.36 v -14.902 l -2.844,-0.359 v -4.571 h 12.131 c 6.119,0 12.13,3.239 12.13,12.202 0,9.827 -5.939,12.563 -11.555,12.563 h -12.706 z m 11.231,-5.111 c 4.212,0 6.768,-1.62 6.768,-7.451 0,-4.968 -2.664,-7.091 -7.235,-7.091 h -1.728 v 14.542 z" fill="#009eb9" />
        <path id="path218" d="m 412.641,479.202 -2.844,-0.396 v -4.571 h 11.519 v 4.571 l -2.843,0.396 v 10.691 c 0,6.263 -3.744,9.358 -10.367,9.358 -6.623,0 -10.511,-3.096 -10.511,-9.358 v -10.691 l -2.844,-0.396 v -4.571 h 11.879 v 4.571 l -2.844,0.396 v 10.295 c 0,1.944 0.792,4.571 4.319,4.571 2.88,0 4.535,-2.052 4.535,-4.392 v -10.474 z" fill="#009eb9" />
        <path id="path220" d="m 430.031,499 v -4.571 l 2.844,-0.36 v -14.902 l -2.844,-0.359 v -4.571 h 10.295 c 7.091,0 10.654,1.728 10.654,6.659 0,4.211 -2.664,5.003 -3.636,5.291 v 0.288 c 1.764,0.216 5.399,1.188 5.399,5.759 0,4.248 -2.483,6.768 -10.043,6.768 h -12.669 z m 12.059,-14.722 c 1.655,0 2.628,-0.973 2.628,-2.448 0,-1.764 -1.404,-2.483 -2.988,-2.483 h -2.663 v 4.932 h 3.023 z m -3.024,4.643 v 4.968 h 3.923 c 2.52,0 3.492,-0.684 3.492,-2.447 0,-1.584 -1.225,-2.521 -2.988,-2.521 z" fill="#009eb9" />
        <path id="path222" d="m 477.729,494.068 2.52,0.36 V 499 H 469.09 v -4.571 l 2.7,-0.36 -0.9,-2.375 h -8.387 l -0.899,2.375 2.699,0.36 V 499 h -10.979 v -4.571 l 2.52,-0.36 5.651,-14.902 -3.168,-0.18 v -4.751 h 11.879 z m -10.152,-11.194 c -0.252,-0.647 -0.792,-2.195 -0.792,-2.195 h -0.18 c 0,0 -0.54,1.548 -0.792,2.195 l -1.548,4.104 h 4.859 z" fill="#009eb9" />
        <path id="path224" d="m 481.583,499 v -4.571 l 2.844,-0.36 v -14.902 l -2.844,-0.359 v -4.571 h 12.131 c 6.119,0 12.13,3.239 12.13,12.202 0,9.827 -5.939,12.563 -11.555,12.563 h -12.706 z m 11.23,-5.111 c 4.212,0 6.768,-1.62 6.768,-7.451 0,-4.968 -2.664,-7.091 -7.235,-7.091 h -1.728 v 14.542 z" fill="#009eb9" />
        <path id="path226" d="m 529.424,490.325 c 0,3.707 -2.052,8.927 -10.402,8.927 -6.804,0 -11.051,-3.924 -11.051,-12.67 0,-8.676 4.283,-12.563 11.051,-12.563 8.351,0 10.402,4.355 10.402,7.486 0,1.116 -0.252,1.872 -0.252,1.872 l -5.867,0.54 c 0,0 0.144,-0.54 0.144,-1.296 0,-1.476 -0.936,-3.456 -4.104,-3.456 -2.844,0 -5.111,1.8 -5.111,7.523 0,5.651 2.484,7.379 5.327,7.379 2.736,0 3.744,-1.188 3.852,-3.203 l -3.491,-0.36 v -4.211 h 9.503 v 4.032 z" fill="#009eb9" />
        <path id="path228" d="m 531.91,499 v -4.571 l 2.808,-0.36 v -14.902 l -2.808,-0.359 v -4.571 h 20.409 l 0.145,8.675 h -4.607 l -0.54,-3.563 h -6.407 v 4.787 h 5.363 v 4.932 h -5.363 v 4.823 h 6.335 l 0.54,-3.563 h 4.607 L 552.14,499 Z" fill="#009eb9" />
        <path id="path230" d="m 562.042,499 v -4.571 l 2.844,-0.36 v -14.866 l -2.844,-0.396 v -4.571 h 11.879 v 4.571 l -2.844,0.396 v 14.866 l 2.844,0.36 V 499 Z" fill="#009eb9" />
        <path id="path232" d="m 591.523,490.253 v -0.684 l 5.976,1.224 v 0.612 c 0,3.275 -2.088,7.847 -10.583,7.847 -6.695,0 -10.87,-3.924 -10.87,-12.67 0,-8.676 4.283,-12.563 11.051,-12.563 8.351,0 10.402,4.787 10.402,8.207 0,1.115 -0.252,1.871 -0.252,1.871 l -5.867,0.72 c 0,0 0.144,-0.611 0.144,-1.476 0,-1.764 -0.936,-4.176 -4.104,-4.176 -2.844,0 -5.111,1.8 -5.111,7.523 0,5.651 2.412,7.379 5.147,7.379 3.096,10e-4 4.067,-1.438 4.067,-3.814 z" fill="#009eb9" />
        <path id="path234" d="m 599.806,499 v -4.571 l 2.844,-0.36 v -14.866 l -2.844,-0.396 v -4.571 h 11.879 v 4.571 l -2.844,0.396 v 14.866 l 2.844,0.36 V 499 Z" fill="#009eb9" />
      </g>
    </g>
  </g>
  <g id="layer14" style="display:inline">
    <g style="display:inline" id="picto_titre_badge" transform="translate(0.246)">
      <path id="path201" d="m 369.508,276.682 c 6.838,6.565 15.277,11.791 25.083,15.525 9.803,3.74 21.309,5.637 34.201,5.637 12.718,0 24.181,-1.896 34.066,-5.637 9.893,-3.734 18.375,-8.958 25.212,-15.525 6.844,-6.575 12.201,-14.362 15.921,-23.143 1.627,-3.847 2.979,-7.928 4.022,-12.148 h -50.096 c -1.319,2.271 -2.651,4.157 -4.063,5.749 -5.457,6.157 -13.89,9.28 -25.063,9.28 -13.572,0 -17.24,-0.455 -25.189,-9.275 -1.439,-1.586 -2.755,-3.425 -4.119,-5.754 h -49.922 c 1.039,4.203 2.394,8.285 4.034,12.146 3.72,8.793 9.075,16.578 15.913,23.145 z" fill="#009eb9" />
      <path id="path203" d="m 510.396,386.974 c -0.522,-9.941 -2.679,-19.449 -6.406,-28.25 -3.718,-8.766 -9.071,-16.497 -15.915,-22.978 -6.833,-6.472 -15.321,-11.697 -25.223,-15.527 -9.897,-3.822 -21.356,-5.761 -34.062,-5.761 -12.876,0 -24.382,1.938 -34.193,5.759 -9.815,3.834 -18.259,9.06 -25.096,15.529 -6.838,6.47 -12.188,14.203 -15.906,22.978 -3.729,8.788 -5.887,18.294 -6.411,28.256 -0.362,7.872 -0.524,33.045 -0.524,41.285 0,0.612 0.007,1.197 0.017,1.785 l 0.003,0.185 h 46.763 l -0.005,-0.352 c -0.011,-0.713 -0.024,-1.424 -0.024,-2.157 0,-3.904 0.047,-25.099 0.141,-29.027 0.096,-4.069 0.312,-7.518 0.658,-10.537 0.357,-4.544 1.317,-8.836 2.848,-12.723 1.538,-3.897 3.748,-7.335 6.569,-10.22 2.821,-2.893 6.362,-5.203 10.516,-6.866 4.15,-1.662 9.077,-2.506 14.646,-2.506 5.568,0 10.496,0.844 14.647,2.506 4.145,1.661 7.686,3.972 10.522,6.864 2.814,2.893 5.021,6.328 6.561,10.221 1.526,3.881 2.484,8.173 2.848,12.76 0.178,3.104 0.355,6.586 0.535,10.478 0.171,3.943 0.256,25.145 0.256,29.051 0,0.643 -0.019,1.269 -0.036,1.894 -0.007,0.206 -0.011,0.409 -0.018,0.615 h 46.806 l 0.002,-0.237 c 0.009,-0.568 0.017,-1.137 0.017,-1.732 -0.001,-8.86 -0.181,-33.589 -0.536,-41.293 z" fill="#009eb9" />
    </g>
  </g>
</svg>
