<?xml version="1.0" encoding="UTF-8" standalone="no"?>
<svg xmlns:dc="http://purl.org/dc/elements/1.1/"
  xmlns:cc="http://creativecommons.org/ns#"
  xmlns:rdf="http://www.w3.org/1999/02/22-rdf-syntax-ns#"
  xmlns:svg="http://www.w3.org/2000/svg"
  xmlns="http://www.w3.org/2000/svg"
  xmlns:xlink="http://www.w3.org/1999/xlink" version="1.1" x="0px" y="0px" width="100%" height="100%" viewBox="0 0 850.39371 850.39371" enable-background="new 0 0 850.394 841.89" xml:space="preserve" id="svg2303">
  <metadata id="metadata2309">
    <rdf:RDF>
      <cc:Work rdf:about="">
        <dc:format>image/svg+xml</dc:format>
        <dc:type rdf:resource="http://purl.org/dc/dcmitype/StillImage" />
        <dc:title></dc:title>
      </cc:Work>
    </rdf:RDF>
  </metadata>
  <defs id="defs2307">
    <linearGradient y2="116.8174" x2="420.56351" y1="116.8174" x1="257.7666" gradientUnits="userSpaceOnUse" id="SVGID_1_">
      <stop id="stop2215" style="stop-color:#FFFFFF" offset="0" />
      <stop id="stop2217" style="stop-color:#8D7D9F" offset="0.4515" />
      <stop id="stop2219" style="stop-color:#473467" offset="1" />
    </linearGradient>
    <linearGradient gradientTransform="matrix(-1,0,0,1,1066.5762,0)" y2="116.8174" x2="634.80957" y1="116.8174" x1="472.0127" gradientUnits="userSpaceOnUse" id="SVGID_2_">
      <stop id="stop2224" style="stop-color:#FFFFFF" offset="0" />
      <stop id="stop2226" style="stop-color:#8D7D9F" offset="0.4515" />
      <stop id="stop2228" style="stop-color:#473467" offset="1" />
    </linearGradient>
    <clipPath id="SVGID_2_-4">
      <use height="100%" width="100%" y="0" x="0" xlink:href="#SVGID_1_-0" overflow="visible" id="use122" />
    </clipPath>
    <clipPath id="SVGID_4_">
      <use height="100%" width="100%" y="0" x="0" xlink:href="#SVGID_3_" overflow="visible" id="use132" />
    </clipPath>
    <path id="SVGID_1_-0" d="m 404.664,50.394 c 1.172,3.438 3.039,6.252 4.836,8.439 l -19.805,17.313 c -3.164,-1.836 -6.135,-4.258 -8.674,-7.969 l -13.156,3.746 c 0,0 -1.5,20.816 0.125,20.816 1.625,0 20.75,-1.5 22,-1.5 1.25,0 37.625,-22.125 37.625,-22.125 l 13.875,-38 c 0,0 -0.625,-12.084 -1,-12.291 -0.375,-0.209 -36.375,17.006 -36.375,17.006 z" />
    <path id="SVGID_3_" d="m 453.475,81.825 c 1.949,-1.783 5.014,-5.445 6.551,-8.467 l 18.717,21.805 0.957,1.021 c -2.836,3.092 -6.361,5.285 -9.527,6.563 l 4.693,17.242 13.125,9.75 0.375,-10.625 c 0,0 -5.125,-47.875 -5.375,-48.25 -0.25,-0.375 -24.334,-23.75 -24.334,-23.75 0,0 -13.166,1.125 -13.166,1.5 0,0.375 -9.506,10 -9.506,10 l 5.662,19.625 z" />
    <clipPath id="SVGID_2_-4-8">
      <use id="use122-9" overflow="visible" xlink:href="#SVGID_1_-0" x="0" y="0" width="100%" height="100%" />
    </clipPath>
    <clipPath id="SVGID_4_-4">
      <use id="use132-1" overflow="visible" xlink:href="#SVGID_3_" x="0" y="0" width="100%" height="100%" />
    </clipPath>
    <path d="m 404.664,50.394 c 1.172,3.438 3.039,6.252 4.836,8.439 l -19.805,17.313 c -3.164,-1.836 -6.135,-4.258 -8.674,-7.969 l -13.156,3.746 c 0,0 -1.5,20.816 0.125,20.816 1.625,0 20.75,-1.5 22,-1.5 1.25,0 37.625,-22.125 37.625,-22.125 l 13.875,-38 c 0,0 -0.625,-12.084 -1,-12.291 -0.375,-0.209 -36.375,17.006 -36.375,17.006 z" id="path300" />
    <path d="m 453.475,81.825 c 1.949,-1.783 5.014,-5.445 6.551,-8.467 l 18.717,21.805 0.957,1.021 c -2.836,3.092 -6.361,5.285 -9.527,6.563 l 4.693,17.242 13.125,9.75 0.375,-10.625 c 0,0 -5.125,-47.875 -5.375,-48.25 -0.25,-0.375 -24.334,-23.75 -24.334,-23.75 0,0 -13.166,1.125 -13.166,1.5 0,0.375 -9.506,10 -9.506,10 l 5.662,19.625 z" id="path307" />
    <linearGradient y2="34.083" x2="419.22461" y1="34.083" x1="256.4277" gradientUnits="userSpaceOnUse" id="SVGID_1_-1" gradientTransform="translate(-0.52877063,-24.950401)">
      <stop id="stop95" style="stop-color:#FFFFFF" offset="0" />
      <stop id="stop97" style="stop-color:#8D7D9F" offset="0.4515" />
      <stop id="stop99" style="stop-color:#473467" offset="1" />
    </linearGradient>
    <linearGradient gradientTransform="matrix(-1,0,0,1,1066.0474,-24.950401)" y2="34.083" x2="636.14838" y1="34.083" x1="473.35159" gradientUnits="userSpaceOnUse" id="SVGID_2_-1">
      <stop id="stop104" style="stop-color:#FFFFFF" offset="0" />
      <stop id="stop106" style="stop-color:#8D7D9F" offset="0.4515" />
      <stop id="stop108" style="stop-color:#473467" offset="1" />
    </linearGradient>
    <linearGradient gradientTransform="translate(-0.52877,-24.9504)" id="SVGID_1_-1-5" gradientUnits="userSpaceOnUse" x1="256.4277" y1="34.083" x2="419.22461" y2="34.083">
      <stop offset="0" style="stop-color:#FFFFFF" id="stop95-6" />
      <stop offset="0.4515" style="stop-color:#8D7D9F" id="stop97-9" />
      <stop offset="1" style="stop-color:#473467" id="stop99-4" />
    </linearGradient>
    <linearGradient id="SVGID_2_-1-0" gradientUnits="userSpaceOnUse" x1="473.35159" y1="34.083" x2="636.14838" y2="34.083" gradientTransform="matrix(-1,0,0,1,1066.0474,-24.950401)">
      <stop offset="0" style="stop-color:#FFFFFF" id="stop104-4" />
      <stop offset="0.4515" style="stop-color:#8D7D9F" id="stop106-9" />
      <stop offset="1" style="stop-color:#473467" id="stop108-8" />
    </linearGradient>
  </defs>
  <!-- <g id="layer1">
    <g style="display:inline;fill:#ffffff;stroke:none" id="filet_3_posture" transform="translate(-0.465)">
      <path id="path142-2" d="m 430.791,112.505 c -0.019,0 -0.051,0 -0.076,0 v 0.031 c -17.186,0.318 -36.207,7.442 -54.628,14.36 -14.804,5.56 -30.104,11.327 -41.793,12.484 l -1.201,0.123 -1.079,-0.354 c -3.614,-1.201 -10.563,-4.915 -15.482,-8.283 l -6.813,-4.654 -106.502,51.098 v 464.373 l 106.501,51.104 6.813,-4.66 c 4.919,-3.369 11.868,-7.078 15.482,-8.271 l 1.079,-0.357 1.201,0.115 c 11.689,1.166 26.989,6.924 41.793,12.477 18.421,6.924 37.442,14.049 54.628,14.369 v 0.033 c 0.025,0 0.058,0 0.076,0 0.192,0 0.375,-0.021 0.56,-0.021 0.195,0 0.384,0.021 0.563,0.021 0.032,0 0.058,0 0.083,0 v -0.033 c 17.192,-0.32 36.207,-7.445 54.622,-14.369 14.799,-5.553 30.119,-11.311 41.794,-12.477 l 1.202,-0.115 1.077,0.357 c 3.622,1.193 10.568,4.902 15.489,8.271 l 6.807,4.66 L 659.5,641.683 V 177.31 l -106.512,-51.098 -6.807,4.654 c -4.921,3.368 -11.867,7.082 -15.489,8.283 l -1.077,0.354 -1.202,-0.123 c -11.675,-1.157 -26.995,-6.925 -41.794,-12.484 -18.415,-6.918 -37.43,-14.042 -54.622,-14.36 v -0.031 c -0.025,0 -0.051,0 -0.083,0 -0.18,0 -0.368,0.01 -0.563,0.01 -0.185,0 -0.368,-0.01 -0.56,-0.01 z" stroke-miterlimit="10" stroke-width="6" stroke="#009eb9" fill="none" style="fill:#ffffff;stroke:none" />
    </g>
  </g> -->
  <g id="layer26" style="display:inline">
    <g id="texte_posture" transform="translate(-0.465)">
      <g id="g30">
        <path fill="#473467" d="m 273.716,733.752 -13.842,12.957 c -2.161,2.023 -4.434,2.971 -6.815,2.846 -2.383,-0.126 -4.604,-1.289 -6.662,-3.489 -2.606,-2.784 -3.712,-6.15 -3.317,-10.099 l 5.717,-0.859 c -0.152,2.883 0.428,5.023 1.74,6.426 1.367,1.46 2.887,1.406 4.562,-0.16 l 9.521,-8.912 -6.561,-7.008 4.205,-3.938 z" id="path2" />
        <path fill="#473467" d="m 290.689,756.85 -11.084,-9.809 -3.684,4.164 10.005,8.854 -3.711,4.193 -10.005,-8.853 -3.737,4.224 11.413,10.1 -3.711,4.193 -16.745,-14.816 18.555,-20.971 16.416,14.525 z" id="path4" />
        <path fill="#473467" d="m 316.954,768.191 c 3.526,2.256 6.066,5.114 7.62,8.576 l -5.254,3.24 c -0.776,-1.509 -1.725,-2.946 -2.845,-4.313 -1.121,-1.365 -2.165,-2.357 -3.131,-2.975 -1.729,-1.106 -2.961,-1.086 -3.693,0.059 -0.474,0.742 -0.429,1.61 0.139,2.605 0.565,0.996 1.356,2.047 2.373,3.156 1.016,1.109 1.988,2.285 2.919,3.528 0.93,1.243 1.491,2.655 1.685,4.234 0.192,1.579 -0.214,3.155 -1.22,4.728 -1.451,2.27 -3.471,3.471 -6.057,3.605 -2.587,0.135 -5.25,-0.676 -7.991,-2.428 -1.954,-1.25 -3.671,-2.822 -5.149,-4.718 -1.478,-1.896 -2.552,-3.88 -3.22,-5.952 l 5.277,-3.131 c 0.529,1.795 1.392,3.542 2.585,5.238 1.194,1.697 2.42,2.948 3.678,3.753 0.966,0.618 1.83,0.925 2.592,0.921 0.762,-0.002 1.358,-0.342 1.79,-1.016 0.416,-0.65 0.455,-1.394 0.118,-2.227 -0.338,-0.834 -0.899,-1.65 -1.684,-2.453 -0.785,-0.803 -1.602,-1.729 -2.449,-2.777 -0.849,-1.049 -1.598,-2.082 -2.245,-3.098 -0.648,-1.016 -0.983,-2.188 -1.005,-3.516 -0.021,-1.327 0.385,-2.643 1.218,-3.945 1.379,-2.156 3.341,-3.331 5.886,-3.523 2.545,-0.19 5.232,0.619 8.063,2.429 z" id="path6" />
        <path fill="#473467" d="m 352.88,787.422 -6.916,14.693 c -1.578,3.354 -3.868,5.525 -6.868,6.516 -3.001,0.99 -6.274,0.65 -9.821,-1.02 -3.57,-1.681 -5.949,-4 -7.135,-6.961 -1.186,-2.96 -0.989,-6.117 0.59,-9.471 l 6.916,-14.693 6.441,3.031 -6.916,14.694 c -0.795,1.688 -0.939,3.265 -0.433,4.726 0.505,1.461 1.542,2.561 3.11,3.299 1.544,0.727 3.014,0.814 4.408,0.262 1.395,-0.552 2.495,-1.684 3.302,-3.397 l 6.916,-14.694 z" id="path8" />
        <path fill="#473467" d="m 356.2,818.014 -6.73,-2.324 9.139,-26.467 6.729,2.324 z" id="path10" />
        <path fill="#473467" d="m 382.063,795.844 c 4.074,0.96 7.418,2.816 10.029,5.569 l -3.885,4.797 c -1.231,-1.167 -2.603,-2.21 -4.111,-3.128 -1.511,-0.916 -2.823,-1.508 -3.939,-1.771 -1.999,-0.472 -3.153,-0.045 -3.466,1.278 -0.202,0.857 0.129,1.661 0.993,2.412 0.863,0.752 1.958,1.483 3.284,2.193 1.326,0.709 2.633,1.498 3.923,2.363 1.289,0.865 2.285,2.012 2.99,3.438 0.705,1.427 0.844,3.049 0.415,4.865 -0.618,2.621 -2.126,4.424 -4.521,5.406 -2.396,0.983 -5.178,1.102 -8.344,0.355 -2.259,-0.533 -4.399,-1.449 -6.421,-2.748 -2.023,-1.299 -3.692,-2.814 -5.01,-4.551 l 3.944,-4.7 c 1.094,1.519 2.485,2.882 4.173,4.087 1.688,1.207 3.259,1.98 4.713,2.324 1.115,0.262 2.033,0.267 2.751,0.011 0.718,-0.255 1.168,-0.772 1.352,-1.551 0.178,-0.753 -0.031,-1.466 -0.625,-2.141 -0.595,-0.675 -1.396,-1.261 -2.4,-1.758 -1.007,-0.497 -2.083,-1.101 -3.231,-1.81 -1.147,-0.709 -2.196,-1.436 -3.144,-2.18 -0.948,-0.744 -1.652,-1.738 -2.111,-2.984 -0.461,-1.245 -0.513,-2.621 -0.157,-4.127 0.587,-2.491 2.05,-4.248 4.387,-5.273 2.337,-1.021 5.141,-1.148 8.411,-0.376 z" id="path12" />
        <path fill="#473467" d="m 429.502,807.084 -14.789,-0.57 -0.214,5.556 13.35,0.515 -0.216,5.596 -13.351,-0.515 -0.217,5.636 15.229,0.588 -0.216,5.596 -22.344,-0.862 1.08,-27.979 21.903,0.846 z" id="path14" />
        <path fill="#473467" d="m 464.007,826.314 -6.239,0.709 -14.748,-15.672 1.95,17.129 -6.637,0.756 -3.167,-27.82 6.239,-0.71 14.792,15.708 -1.955,-17.17 6.598,-0.75 z" id="path16" />
        <path fill="#473467" d="m 488.258,805.56 5.935,-1.649 2.925,10.521 c -1.18,1.435 -2.712,2.768 -4.598,3.996 -1.887,1.23 -3.768,2.106 -5.643,2.627 -4.111,1.143 -7.907,0.779 -11.389,-1.09 -3.482,-1.869 -5.768,-4.77 -6.86,-8.701 -1.085,-3.904 -0.579,-7.561 1.52,-10.967 2.098,-3.406 5.279,-5.701 9.544,-6.887 2.004,-0.558 4.095,-0.75 6.273,-0.582 2.179,0.17 4.133,0.679 5.863,1.526 l -2.559,5.734 c -1.227,-0.628 -2.555,-1.026 -3.985,-1.196 -1.432,-0.17 -2.776,-0.08 -4.035,0.27 -2.21,0.615 -3.854,1.896 -4.932,3.842 -1.078,1.946 -1.303,4.051 -0.675,6.311 0.636,2.287 1.925,3.99 3.87,5.111 1.943,1.119 4.033,1.369 6.269,0.748 1.439,-0.4 2.91,-1.279 4.415,-2.639 z" id="path18" />
        <path fill="#473467" d="m 521.887,802.041 -11.172,5 0.246,5.543 -6.682,2.99 -0.413,-30.491 6.682,-2.991 22.209,20.736 -6.937,3.105 z m -4.105,-4.079 -7.884,-7.822 0.509,11.123 z" id="path20" />
        <path fill="#473467" d="m 546.364,777.753 5.229,-3.258 5.775,9.269 c -0.727,1.709 -1.82,3.42 -3.282,5.132 -1.463,1.712 -3.021,3.083 -4.672,4.112 -3.621,2.257 -7.365,2.98 -11.232,2.169 -3.867,-0.81 -6.88,-2.947 -9.038,-6.41 -2.144,-3.44 -2.689,-7.09 -1.639,-10.95 1.051,-3.859 3.455,-6.96 7.212,-9.301 1.766,-1.1 3.717,-1.876 5.854,-2.328 2.138,-0.453 4.156,-0.517 6.055,-0.191 l -0.835,6.223 c -1.354,-0.256 -2.741,-0.264 -4.161,-0.022 -1.421,0.242 -2.687,0.708 -3.795,1.398 -1.946,1.214 -3.162,2.905 -3.646,5.077 -0.485,2.172 -0.106,4.254 1.134,6.244 1.256,2.016 2.974,3.285 5.155,3.811 2.181,0.526 4.257,0.176 6.226,-1.052 1.268,-0.79 2.431,-2.048 3.49,-3.777 z" id="path22" />
        <path fill="#473467" d="m 569.441,750 -11.52,9.291 3.49,4.328 10.399,-8.387 3.516,4.359 -10.399,8.387 3.54,4.391 11.863,-9.568 3.516,4.359 -17.405,14.037 -17.578,-21.795 17.063,-13.761 z m -10.873,-7.365 -1.211,6.782 -4.109,3.315 -0.918,-7.893 z" id="path24" />
        <path fill="#473467" d="m 585.578,757.967 c 0.026,-0.867 0.399,-1.639 1.118,-2.314 0.719,-0.675 1.517,-1.005 2.394,-0.988 0.876,0.019 1.653,0.387 2.329,1.105 0.676,0.718 1,1.521 0.973,2.406 -0.027,0.886 -0.4,1.667 -1.119,2.343 -0.719,0.677 -1.517,0.995 -2.393,0.96 -0.876,-0.037 -1.651,-0.414 -2.328,-1.133 -0.675,-0.719 -1,-1.512 -0.974,-2.379 z" id="path26" />
        <path fill="#473467" d="m 597.374,721.486 -10.024,10.889 4.091,3.766 9.049,-9.828 4.12,3.793 -9.05,9.828 4.149,3.82 10.322,-11.212 4.12,3.793 -15.145,16.45 -20.6,-18.965 14.847,-16.127 z" id="path28" />
      </g>
    </g>
    <!-- <g id="picto_titre_badge" transform="translate(-0.465)">
        <path fill="#009eb9" d="m 263.891,494.068 2.844,0.36 V 499 h -11.879 v -4.571 l 2.844,-0.36 v -14.722 h -3.636 l -0.539,3.563 h -4.607 l 0.18,-8.675 h 23.396 l 0.181,8.675 h -4.607 l -0.54,-3.563 h -3.636 v 14.721 z" id="path150" />
        <path fill="#009eb9" d="m 274.368,499 v -4.571 l 2.844,-0.36 v -14.866 l -2.844,-0.396 v -4.571 h 11.879 v 4.571 l -2.844,0.396 v 14.866 l 2.844,0.36 V 499 Z" id="path152" />
        <path fill="#009eb9" d="m 302.878,494.068 2.844,0.36 V 499 h -11.879 v -4.571 l 2.844,-0.36 v -14.722 h -3.636 l -0.539,3.563 h -4.607 l 0.18,-8.675 h 23.396 l 0.181,8.675 h -4.607 l -0.54,-3.563 h -3.636 v 14.721 z" id="path154" />
        <path fill="#009eb9" d="m 330.095,499 -4.536,-8.675 h -3.167 v 3.743 l 3.635,0.36 V 499 h -12.67 v -4.571 l 2.844,-0.36 v -14.866 l -2.844,-0.396 v -4.571 h 13.462 c 5.04,0 8.495,2.844 8.495,7.631 0,4.067 -1.691,5.688 -4.067,6.983 v 0.18 c 0,0 0.396,0.288 0.684,0.792 l 2.484,4.247 3.167,0.36 V 499 Z m -4.824,-13.498 c 2.628,0 3.78,-1.044 3.78,-3.275 0,-1.944 -1.404,-2.88 -3.78,-2.88 h -2.879 v 6.155 z" id="path156" />
        <path fill="#009eb9" d="m 339.024,499 v -4.571 l 2.808,-0.36 v -14.902 l -2.808,-0.359 v -4.571 h 20.409 l 0.145,8.675 h -4.607 l -0.54,-3.563 h -6.407 v 4.787 h 5.363 v 4.932 h -5.363 v 4.823 h 6.335 l 0.54,-3.563 h 4.607 L 359.254,499 Z" id="path158" />
        <path fill="#009eb9" d="m 369.155,499 v -4.571 l 2.844,-0.36 v -14.902 l -2.844,-0.359 v -4.571 h 12.131 c 6.119,0 12.13,3.239 12.13,12.202 0,9.827 -5.939,12.563 -11.555,12.563 h -12.706 z m 11.231,-5.111 c 4.212,0 6.768,-1.62 6.768,-7.451 0,-4.968 -2.664,-7.091 -7.235,-7.091 h -1.728 v 14.542 z" id="path160" />
        <path fill="#009eb9" d="m 412.641,479.202 -2.844,-0.396 v -4.571 h 11.519 v 4.571 l -2.843,0.396 v 10.691 c 0,6.263 -3.744,9.358 -10.367,9.358 -6.623,0 -10.511,-3.096 -10.511,-9.358 v -10.691 l -2.844,-0.396 v -4.571 h 11.879 v 4.571 l -2.844,0.396 v 10.295 c 0,1.944 0.792,4.571 4.319,4.571 2.88,0 4.535,-2.052 4.535,-4.392 v -10.474 z" id="path162" />
        <path fill="#009eb9" d="m 430.031,499 v -4.571 l 2.844,-0.36 v -14.902 l -2.844,-0.359 v -4.571 h 10.295 c 7.091,0 10.654,1.728 10.654,6.659 0,4.211 -2.664,5.003 -3.636,5.291 v 0.288 c 1.764,0.216 5.399,1.188 5.399,5.759 0,4.248 -2.483,6.768 -10.043,6.768 h -12.669 z m 12.059,-14.722 c 1.655,0 2.628,-0.973 2.628,-2.448 0,-1.764 -1.404,-2.483 -2.988,-2.483 h -2.663 v 4.932 h 3.023 z m -3.024,4.643 v 4.968 h 3.923 c 2.52,0 3.492,-0.684 3.492,-2.447 0,-1.584 -1.225,-2.521 -2.988,-2.521 z" id="path164" />
        <path fill="#009eb9" d="m 477.729,494.068 2.52,0.36 V 499 H 469.09 v -4.571 l 2.7,-0.36 -0.9,-2.375 h -8.387 l -0.899,2.375 2.699,0.36 V 499 h -10.979 v -4.571 l 2.52,-0.36 5.651,-14.902 -3.168,-0.18 v -4.751 h 11.879 z m -10.152,-11.194 c -0.252,-0.647 -0.792,-2.195 -0.792,-2.195 h -0.18 c 0,0 -0.54,1.548 -0.792,2.195 l -1.548,4.104 h 4.859 z" id="path166" />
        <path fill="#009eb9" d="m 481.583,499 v -4.571 l 2.844,-0.36 v -14.902 l -2.844,-0.359 v -4.571 h 12.131 c 6.119,0 12.13,3.239 12.13,12.202 0,9.827 -5.939,12.563 -11.555,12.563 h -12.706 z m 11.23,-5.111 c 4.212,0 6.768,-1.62 6.768,-7.451 0,-4.968 -2.664,-7.091 -7.235,-7.091 h -1.728 v 14.542 z" id="path168" />
        <path fill="#009eb9" d="m 529.424,490.325 c 0,3.707 -2.052,8.927 -10.402,8.927 -6.804,0 -11.051,-3.924 -11.051,-12.67 0,-8.676 4.283,-12.563 11.051,-12.563 8.351,0 10.402,4.355 10.402,7.486 0,1.116 -0.252,1.872 -0.252,1.872 l -5.867,0.54 c 0,0 0.144,-0.54 0.144,-1.296 0,-1.476 -0.936,-3.456 -4.104,-3.456 -2.844,0 -5.111,1.8 -5.111,7.523 0,5.651 2.484,7.379 5.327,7.379 2.736,0 3.744,-1.188 3.852,-3.203 l -3.491,-0.36 v -4.211 h 9.503 v 4.032 z" id="path170" />
        <path fill="#009eb9" d="m 531.91,499 v -4.571 l 2.808,-0.36 v -14.902 l -2.808,-0.359 v -4.571 h 20.409 l 0.145,8.675 h -4.607 l -0.54,-3.563 h -6.407 v 4.787 h 5.363 v 4.932 h -5.363 v 4.823 h 6.335 l 0.54,-3.563 h 4.607 L 552.14,499 Z" id="path172" />
        <path fill="#009eb9" d="m 562.042,499 v -4.571 l 2.844,-0.36 v -14.866 l -2.844,-0.396 v -4.571 h 11.879 v 4.571 l -2.844,0.396 v 14.866 l 2.844,0.36 V 499 Z" id="path174" />
        <path fill="#009eb9" d="m 591.523,490.253 v -0.684 l 5.976,1.224 v 0.612 c 0,3.275 -2.088,7.847 -10.583,7.847 -6.695,0 -10.87,-3.924 -10.87,-12.67 0,-8.676 4.283,-12.563 11.051,-12.563 8.351,0 10.402,4.787 10.402,8.207 0,1.115 -0.252,1.871 -0.252,1.871 l -5.867,0.72 c 0,0 0.144,-0.611 0.144,-1.476 0,-1.764 -0.936,-4.176 -4.104,-4.176 -2.844,0 -5.111,1.8 -5.111,7.523 0,5.651 2.412,7.379 5.147,7.379 3.096,10e-4 4.067,-1.438 4.067,-3.814 z" id="path176" />
        <path fill="#009eb9" d="m 599.806,499 v -4.571 l 2.844,-0.36 v -14.866 l -2.844,-0.396 v -4.571 h 11.879 v 4.571 l -2.844,0.396 v 14.866 l 2.844,0.36 V 499 Z" id="path178" />
    </g> -->
  </g>
  <g id="layer25" style="display:inline">
    <g id="filet_separation_theme" style="display:inline;stroke:#000000" transform="translate(-0.465)">
      <line id="line33" y2="622.29797" x2="428.89099" y1="584.51501" x1="428.89099" stroke-miterlimit="10" stroke-width="2" stroke="#000000" fill="none" style="stroke:#000000" />
    </g>
  </g>
  <g id="layer24" style="display:inline">
    <g style="display:inline" id="picto_theme" transform="translate(-0.465)">
      <g id="g40">
        <path id="path36" d="m 484.977,586.483 c 2.644,2.539 5.906,4.559 9.697,6.002 3.789,1.447 8.237,2.18 13.221,2.18 4.916,0 9.348,-0.732 13.17,-2.18 3.824,-1.443 7.104,-3.463 9.746,-6.002 2.646,-2.541 4.717,-5.551 6.155,-8.944 0.629,-1.488 1.151,-3.065 1.555,-4.697 h -19.366 c -0.51,0.879 -1.024,1.608 -1.57,2.223 -2.11,2.38 -5.369,3.588 -9.689,3.588 -5.246,0 -6.664,-0.176 -9.737,-3.586 -0.556,-0.613 -1.065,-1.323 -1.593,-2.225 h -19.299 c 0.402,1.626 0.926,3.204 1.56,4.696 1.437,3.399 3.506,6.408 6.15,8.945 z" stroke-miterlimit="10" stroke-width="2" stroke="#000000" fill="none" />
        <path id="path38" d="m 539.441,629.12 c -0.202,-3.842 -1.036,-7.518 -2.477,-10.92 -1.438,-3.389 -3.506,-6.379 -6.152,-8.883 -2.641,-2.502 -5.922,-4.521 -9.75,-6.002 -3.826,-1.479 -8.256,-2.229 -13.168,-2.229 -4.978,0 -9.426,0.75 -13.219,2.227 -3.794,1.482 -7.059,3.502 -9.701,6.004 -2.642,2.502 -4.712,5.49 -6.149,8.883 -1.44,3.398 -2.275,7.072 -2.478,10.922 -0.141,3.045 -0.203,12.775 -0.203,15.961 0,0.238 0.002,0.463 0.006,0.691 l 0.002,0.07 h 18.077 l -0.002,-0.137 c -0.005,-0.273 -0.009,-0.549 -0.009,-0.834 0,-1.51 0.018,-9.703 0.054,-11.221 0.036,-1.572 0.12,-2.906 0.255,-4.074 0.139,-1.756 0.508,-3.416 1.1,-4.918 0.596,-1.506 1.449,-2.836 2.541,-3.951 1.09,-1.117 2.459,-2.01 4.064,-2.654 1.604,-0.641 3.51,-0.967 5.662,-0.967 2.152,0 4.058,0.326 5.662,0.967 1.603,0.643 2.972,1.537 4.068,2.654 1.088,1.119 1.94,2.447 2.535,3.951 0.59,1.5 0.961,3.16 1.102,4.934 0.068,1.199 0.138,2.545 0.207,4.049 0.066,1.525 0.099,9.721 0.099,11.23 0,0.25 -0.007,0.492 -0.015,0.734 -0.002,0.078 -0.004,0.156 -0.006,0.236 h 18.094 v -0.092 c 0.004,-0.219 0.008,-0.439 0.008,-0.67 0,-3.422 -0.07,-12.98 -0.207,-15.961 z" stroke-miterlimit="10" stroke-width="2" stroke="#000000" fill="none" />
      </g>
    </g>
  </g>
  <g id="layer23" style="display:inline">
    <g style="display:inline" id="texte_picto_theme" transform="translate(-0.465)">
      <g id="g63">
        <path id="path43" d="m 455.049,548.386 h -3.798 v 10.026 h -3.204 v -10.026 h -3.762 v -2.593 h 10.764 z" />
        <path id="path45" d="m 466.281,548.332 h -6.66 v 2.502 h 6.012 v 2.52 h -6.012 v 2.538 h 6.857 v 2.521 h -10.062 v -12.601 h 9.864 v 2.52 z" />
        <path id="path47" d="m 475.857,551.824 4.518,6.588 h -3.834 l -2.718,-4.015 -2.718,4.015 h -3.727 l 4.5,-6.444 -4.212,-6.156 h 3.726 l 2.431,3.672 2.43,-3.672 h 3.763 z" />
        <path id="path49" d="m 491.391,548.386 h -3.798 v 10.026 h -3.204 v -10.026 h -3.762 v -2.593 h 10.764 z" />
        <path id="path51" d="m 502.623,548.332 h -6.66 v 2.502 h 6.012 v 2.52 h -6.012 v 2.538 h 6.857 v 2.521 h -10.063 v -12.601 h 9.865 v 2.52 z" />
        <path id="path53" d="m 518.697,548.386 h -3.799 v 10.026 h -3.203 v -10.026 h -3.763 v -2.593 h 10.765 z" />
        <path id="path55" d="m 531.692,558.412 h -3.204 v -4.896 h -5.221 v 4.896 h -3.203 v -12.601 h 3.203 v 5.185 h 5.221 v -5.185 h 3.204 z" />
        <path id="path57" d="m 544.076,548.332 h -6.66 v 2.502 h 6.012 v 2.52 h -6.012 v 2.538 h 6.857 v 2.521 h -10.062 v -12.601 h 9.864 v 2.52 z m -3.312,-3.619 h -2.375 l -2.34,-2.033 2.807,-0.99 z" />
        <path id="path59" d="m 560.187,558.412 h -2.826 l -0.019,-8.19 -3.023,6.931 h -2.088 l -3.023,-6.931 v 8.19 h -2.863 v -12.619 h 3.511 l 3.42,7.507 3.42,-7.507 h 3.492 v 12.619 z" />
        <path id="path61" d="m 572.588,548.332 h -6.66 v 2.502 h 6.012 v 2.52 h -6.012 v 2.538 h 6.857 v 2.521 h -10.062 v -12.601 h 9.864 v 2.52 z" />
      </g>
    </g>
  </g>
  <g id="layer22" style="display:inline">
    <g style="display:inline" id="picto_categorie" transform="translate(-0.465)">
      <g id="g86">
        <polygon id="polygon66" points="361.888,637.919 333.099,641.148 305.638,638.044 305.263,579.169 333.263,581.419 361.763,579.294 389.263,579.294 389.263,637.919 " stroke-miterlimit="10" stroke-width="2" stroke="#000000" fill="none" />
        <path id="path68" d="m 333.263,581.419 c -0.125,0.25 0,59.729 0,59.729" stroke-miterlimit="10" stroke-width="2" stroke="#000000" fill="none" />
        <line id="line70" y2="637.91901" x2="361.763" y1="579.29401" x1="361.763" stroke-miterlimit="10" stroke-width="2" stroke="#000000" fill="none" />
        <line id="line72" y2="598.04401" x2="384.638" y1="589.91901" x1="373.263" stroke-miterlimit="10" stroke-linecap="round" stroke-width="2" stroke="#000000" fill="none" />
        <line id="line74" y2="589.79401" x2="385.013" y1="597.91901" x1="373.263" stroke-miterlimit="10" stroke-linecap="round" stroke-width="2" stroke="#000000" fill="none" />
        <g id="g84">
          <g id="g82">
            <path id="path76" d="m 310.888,638.669 c 0,-0.417 -0.116,-0.914 -0.097,-1.493" stroke-miterlimit="10" stroke-linecap="round" stroke-width="2" stroke="#000000" fill="none" />
            <path id="path78" d="m 312.843,633.854 c 2.993,-2.349 10.204,-5.333 27.295,-8.935 29.125,-6.138 36.234,-12.972 38.403,-22.283" stroke-dasharray="3.029, 4.0386" stroke-miterlimit="10" stroke-linecap="round" stroke-width="2" stroke="#000000" fill="none" />
            <path id="path80" d="m 378.928,600.651 c 0.079,-0.487 0.148,-0.981 0.21,-1.482" stroke-miterlimit="10" stroke-linecap="round" stroke-width="2" stroke="#000000" fill="none" />
          </g>
        </g>
      </g>
    </g>
  </g>
  <g id="layer21" style="display:inline">
    <g style="display:inline" id="texte_picto_categorie" transform="translate(-0.465)">
      <g id="g105">
        <path id="path89" d="m 297.182,545.812 h 5.49 c 1.608,0 2.856,0.382 3.744,1.144 0.888,0.762 1.332,1.845 1.332,3.248 0,1.477 -0.444,2.623 -1.332,3.438 -0.888,0.816 -2.136,1.224 -3.744,1.224 h -2.286 v 3.547 h -3.204 z m 3.204,2.52 v 4.014 h 2.124 c 0.708,0 1.254,-0.174 1.638,-0.521 0.384,-0.349 0.576,-0.853 0.576,-1.513 0,-0.647 -0.192,-1.14 -0.576,-1.476 -0.384,-0.336 -0.93,-0.504 -1.638,-0.504 z" />
        <path id="path91" d="m 316.856,556.09 h -5.508 l -0.918,2.322 h -3.294 l 5.436,-12.601 h 3.294 l 5.31,12.601 h -3.42 z m -0.936,-2.43 -1.8,-4.662 -1.836,4.662 z" />
        <path id="path93" d="m 329.942,558.412 -1.872,-3.547 h -0.09 -2.43 v 3.547 h -3.204 v -12.601 h 5.634 c 1.668,0 2.958,0.382 3.87,1.144 0.912,0.762 1.368,1.845 1.368,3.248 0,1.944 -0.762,3.295 -2.286,4.051 l 2.646,4.158 z m -4.392,-6.066 h 2.43 c 0.696,0 1.236,-0.174 1.62,-0.521 0.384,-0.349 0.576,-0.853 0.576,-1.513 0,-0.647 -0.192,-1.14 -0.576,-1.476 -0.384,-0.336 -0.924,-0.504 -1.62,-0.504 h -2.43 z" />
        <path id="path95" d="m 341.282,545.703 c 0.936,0 1.857,0.192 2.763,0.576 0.906,0.385 1.677,0.9 2.313,1.549 l -1.854,2.195 c -0.408,-0.504 -0.897,-0.902 -1.467,-1.197 -0.57,-0.293 -1.137,-0.44 -1.701,-0.44 -0.996,0 -1.83,0.351 -2.502,1.053 -0.672,0.702 -1.008,1.569 -1.008,2.601 0,1.057 0.336,1.938 1.008,2.646 0.672,0.709 1.506,1.063 2.502,1.063 0.528,0 1.077,-0.133 1.647,-0.396 0.569,-0.264 1.077,-0.623 1.521,-1.08 l 1.872,1.98 c -0.684,0.695 -1.491,1.254 -2.421,1.674 -0.93,0.42 -1.857,0.63 -2.781,0.63 -1.896,0 -3.474,-0.618 -4.734,-1.854 -1.26,-1.235 -1.89,-2.777 -1.89,-4.625 0,-1.813 0.642,-3.328 1.926,-4.545 1.284,-1.22 2.886,-1.83 4.806,-1.83 z" />
        <path id="path97" d="m 353.594,545.703 c 1.956,0 3.582,0.609 4.878,1.828 1.296,1.217 1.944,2.738 1.944,4.563 0,1.836 -0.651,3.372 -1.953,4.607 -1.302,1.236 -2.925,1.854 -4.869,1.854 -1.944,0 -3.564,-0.614 -4.86,-1.845 -1.296,-1.231 -1.944,-2.77 -1.944,-4.617 0,-1.836 0.648,-3.359 1.944,-4.572 1.296,-1.211 2.916,-1.818 4.86,-1.818 z m 0.036,2.683 c -0.984,0 -1.824,0.356 -2.52,1.071 -0.696,0.714 -1.044,1.599 -1.044,2.654 0,1.057 0.351,1.947 1.053,2.674 0.702,0.726 1.539,1.088 2.511,1.088 0.972,0 1.797,-0.362 2.475,-1.088 0.678,-0.727 1.017,-1.617 1.017,-2.674 0,-1.056 -0.339,-1.94 -1.017,-2.654 -0.678,-0.715 -1.503,-1.071 -2.475,-1.071 z" />
        <path id="path99" d="m 373.448,545.812 v 7.308 c 0,1.668 -0.516,2.992 -1.548,3.969 -1.032,0.979 -2.43,1.468 -4.194,1.468 -1.776,0 -3.189,-0.489 -4.239,-1.468 -1.05,-0.977 -1.575,-2.301 -1.575,-3.969 v -7.308 h 3.204 v 7.308 c 0,0.84 0.243,1.51 0.729,2.008 0.486,0.498 1.119,0.746 1.899,0.746 0.768,0 1.383,-0.245 1.845,-0.737 0.461,-0.492 0.693,-1.164 0.693,-2.017 v -7.308 z" />
        <path id="path101" d="m 383.348,558.412 -1.872,-3.547 h -0.09 -2.43 v 3.547 h -3.204 v -12.601 h 5.634 c 1.668,0 2.958,0.382 3.87,1.144 0.912,0.762 1.368,1.845 1.368,3.248 0,1.944 -0.762,3.295 -2.286,4.051 l 2.646,4.158 z m -4.392,-6.066 h 2.43 c 0.696,0 1.236,-0.174 1.62,-0.521 0.384,-0.349 0.576,-0.853 0.576,-1.513 0,-0.647 -0.192,-1.14 -0.576,-1.476 -0.384,-0.336 -0.924,-0.504 -1.62,-0.504 h -2.43 z" />
        <path id="path103" d="m 393.626,545.668 c 1.884,0 3.54,0.468 4.968,1.404 l -1.206,2.502 c -0.66,-0.385 -1.368,-0.699 -2.124,-0.945 -0.756,-0.246 -1.393,-0.369 -1.908,-0.369 -0.924,0 -1.386,0.306 -1.386,0.918 0,0.396 0.228,0.714 0.684,0.954 0.456,0.239 1.011,0.446 1.665,0.62 0.654,0.175 1.308,0.385 1.962,0.631 0.654,0.246 1.209,0.645 1.665,1.197 0.456,0.552 0.684,1.248 0.684,2.088 0,1.212 -0.474,2.156 -1.422,2.834 -0.948,0.679 -2.154,1.018 -3.618,1.018 -1.044,0 -2.076,-0.18 -3.096,-0.54 -1.021,-0.36 -1.908,-0.852 -2.664,-1.476 l 1.242,-2.467 c 0.636,0.553 1.386,1.006 2.25,1.359 0.864,0.354 1.632,0.531 2.304,0.531 0.516,0 0.918,-0.093 1.206,-0.279 0.288,-0.186 0.432,-0.459 0.432,-0.818 0,-0.348 -0.166,-0.64 -0.495,-0.873 -0.33,-0.234 -0.741,-0.408 -1.233,-0.522 -0.492,-0.114 -1.026,-0.267 -1.602,-0.459 -0.576,-0.192 -1.11,-0.401 -1.602,-0.63 -0.492,-0.229 -0.903,-0.591 -1.233,-1.089 -0.331,-0.498 -0.495,-1.095 -0.495,-1.791 0,-1.152 0.459,-2.073 1.377,-2.763 0.918,-0.69 2.133,-1.035 3.645,-1.035 z" />
      </g>
    </g>
  </g>
  <g id="layer20" style="display:inline">
    <g style="display:inline" id="fond_categorie" transform="translate(-0.465)">
      <path id="path108" d="M 629.5,516.622 V 196.298 l -74.286,-35.637 c -4.98,2.846 -10.489,5.549 -15.154,7.097 l -7.147,2.349 -7.457,-0.765 c -15.543,-1.54 -32.663,-7.972 -49.22,-14.192 l -0.166,-0.063 c -15.997,-6.01 -32.54,-12.225 -44.627,-12.448 h -0.171 c -12.081,0.224 -28.632,6.438 -44.637,12.45 l -0.289,0.108 c -16.494,6.194 -33.55,12.601 -49.066,14.143 l -7.48,0.766 -7.249,-2.38 c -4.613,-1.534 -10.096,-4.229 -15.056,-7.064 l -74.277,35.637 V 516.623 H 629.5 Z" fill="#b7d5e2" />
    </g>
  </g>
  <g id="layer19" style="display:inline">
    <g style="display:inline" id="picto_posture" transform="translate(-0.465)">
      <g id="g123">
        <g id="g121">
          <g id="g119">
            <path id="path111" d="m 461.701,59.814 c 0,15.015 -0.006,30.029 0.012,45.044 10e-4,1.178 -0.343,2.128 -1.239,2.903 -1.298,1.123 -2.571,2.273 -3.844,3.425 -0.622,0.563 -1.313,0.916 -2.173,0.938 -0.952,0.024 -1.903,0.133 -2.854,0.133 -16.35,-0.004 -32.698,-0.012 -49.048,-0.045 -1.28,-0.003 -2.57,-0.134 -3.839,-0.323 -1.272,-0.189 -1.512,-0.527 -1.562,-1.795 -0.034,-0.81 -0.032,-1.62 -0.032,-2.431 0.016,-26.264 0.027,-52.527 0.056,-78.79 0.003,-2.955 0.112,-5.909 0.142,-8.864 0.014,-1.302 0.365,-2.375 1.431,-3.245 1.029,-0.842 1.954,-1.818 2.869,-2.788 0.665,-0.705 1.442,-1.07 2.389,-1.108 1.048,-0.042 2.096,-0.099 3.144,-0.101 17.207,-0.031 34.414,-0.057 51.621,-0.076 2.751,-0.003 2.802,0.026 2.804,2.796 0.012,14.776 0.006,29.553 0.006,44.328 0.038,-10e-4 0.077,-10e-4 0.117,-10e-4 z m -7.252,50.394 c 0,-30.331 0,-60.421 0,-90.662 -18.586,0 -37.052,0 -55.436,0 0,30.233 0,60.416 0,90.662 18.57,0 36.94,0 55.436,0 z" fill="#473467" />
            <path id="path113" d="m 428.414,49.348 c 1.692,0 3.358,-0.011 5.023,0.003 1.647,0.014 1.989,0.359 1.993,2.035 0.019,8.292 0.031,16.584 0.039,24.877 0.001,1.92 -0.412,2.356 -2.356,2.355 -4.052,-10e-4 -8.103,-0.035 -12.152,-0.081 -1.488,-0.017 -1.641,-0.137 -1.855,-1.575 -0.161,-1.079 -0.262,-2.177 -0.278,-3.268 -0.048,-3.192 -0.039,-6.385 -0.054,-9.578 0,-0.048 -0.015,-0.101 0,-0.143 0.604,-1.652 -0.356,-2.882 -1.084,-4.202 -1.724,-3.128 -3.384,-6.29 -5.1,-9.422 -0.412,-0.753 -0.453,-1.394 0.083,-2.107 0.886,-1.181 1.708,-2.408 2.57,-3.606 0.447,-0.621 1.067,-0.891 1.841,-0.916 2.19,-0.071 4.381,-0.164 6.57,-0.281 1.091,-0.059 1.756,0.4 2.246,1.38 0.766,1.529 1.656,2.996 2.514,4.529 z m -1.256,11.71 c -2.271,-4.022 -4.459,-7.896 -6.59,-11.669 -2.235,0 -4.312,0 -6.583,0 0.517,0.919 0.967,1.684 1.383,2.467 1.516,2.86 3.026,5.724 4.523,8.594 0.303,0.579 0.593,1.04 1.383,0.976 1.886,-0.155 3.779,-0.242 5.884,-0.368 z m 2.27,-10.087 c 0.192,0.996 0.55,1.59 1.57,1.606 0.599,0.01 0.929,0.43 0.98,1.031 0.028,0.332 0.053,0.666 0.056,0.998 0.064,6.143 0.126,12.284 0.186,18.426 0.002,0.237 0.003,0.478 -0.025,0.713 -0.084,0.717 -0.454,1.104 -1.219,1.109 -2.523,0.014 -5.047,0.047 -7.571,0.076 -0.67,0.008 -1.156,-0.237 -1.539,-0.829 -0.399,-0.617 -0.926,-1.151 -1.431,-1.763 0,1.627 0,3.164 0,4.723 4.487,0 8.843,0 13.313,0 0,-8.74 0,-17.377 0,-26.091 -1.44,10e-4 -2.807,10e-4 -4.32,10e-4 z m 0.487,22.273 c -2.008,-3.38 -2.572,-6.934 -2.534,-10.458 -2.358,0 -4.536,0 -6.796,0 -0.527,3.648 0.237,6.904 1.959,9.961 0.146,0.259 0.61,0.469 0.931,0.476 2.038,0.042 4.078,0.021 6.44,0.021 z m -8.08,-25.012 c 2.055,3.582 4.047,7.055 6.12,10.669 0.517,-1.529 0.979,-2.901 1.387,-4.106 -1.746,-3.232 -3.407,-6.31 -5.153,-9.543 -0.849,1.074 -1.626,2.058 -2.354,2.98 z m 8.629,8.492 c -1.802,4.577 -2.121,9.147 0,13.725 0,-4.574 0,-9.15 0,-13.725 z" fill="#473467" />
            <path id="path115" d="m 422.526,31.828 c 0.026,-3.468 2.831,-6.205 6.335,-6.183 3.442,0.021 6.275,2.886 6.245,6.313 -0.03,3.379 -2.754,6.262 -6.057,6.143 -4.42,-0.159 -6.552,-2.97 -6.523,-6.273 z m 3.209,3.303 c 1.593,1.936 4.154,1.647 5.846,0.268 1.712,-1.397 2.132,-3.595 0.959,-5.545 -2.248,1.744 -4.484,3.478 -6.805,5.277 z m 5.727,-6.63 c -2.031,-1.443 -4.376,-1.237 -5.907,0.405 -1.396,1.498 -1.609,3.572 -0.457,5.059" fill="#473467" />
            <path id="path117" d="m 429.111,101.423 c -3.771,0.026 -6.535,-2.514 -6.582,-6.05 -0.05,-3.534 2.766,-6.408 6.276,-6.408 3.424,-0.001 6.293,2.86 6.301,6.281 0.009,3.405 -2.66,6.154 -5.995,6.177 z m 3.474,-8.269 c -2.33,1.814 -4.554,3.548 -6.785,5.286 1.507,1.692 3.597,1.851 5.52,0.497 1.882,-1.326 2.421,-3.54 1.265,-5.783 z m -1.136,-1.282 c -1.848,-1.463 -4.12,-1.343 -5.737,0.224 -1.535,1.487 -1.818,3.695 -0.623,5.22 2.116,-1.813 4.229,-3.621 6.36,-5.444 z" fill="#473467" />
          </g>
        </g>
      </g>
    </g>
  </g>
  <g id="layer18" style="display:inline">
    <g style="display:inline" id="filet_1_categorie" transform="translate(-0.465)">
      <g id="g132">
        <g id="g130">
          <path id="path126" d="m 481.699,70.572 c 64.561,10.497 108.57,39.354 137.094,58.057 5.349,3.507 9.969,6.536 14.092,9.025 5.224,3.153 7.781,6.478 7.599,9.88 -0.28,5.229 -6.96,13.398 -7.243,13.531" stroke-miterlimit="10" stroke-width="2" stroke="#473467" fill="none" />
          <path id="path128" d="m 229.474,161.065 c -0.284,-0.133 -6.962,-8.303 -7.241,-13.53 -0.183,-3.402 2.375,-6.728 7.601,-9.881 4.112,-2.482 8.719,-5.502 14.053,-8.997 28.066,-18.394 71.111,-46.603 133.925,-57.531" stroke-miterlimit="10" stroke-width="2" stroke="#473467" fill="none" />
        </g>
      </g>
      <g id="g136">
        <path id="path134" d="m 592.287,673.935 v 43.117 l -0.888,0.1 c -0.467,0.055 -47.208,5.516 -89.857,23.838 -30.47,13.092 -59.517,35.693 -68.811,43.26 l 0.024,0.033 -0.684,0.512 -0.547,0.68 -0.149,-0.115 -0.049,0.039 -0.044,-0.039 -0.158,0.111 -0.514,-0.709 c -8.543,-7 -38.237,-30.365 -69.438,-43.771 -42.649,-18.322 -89.389,-23.783 -89.855,-23.838 l -0.888,-0.1 v -43.117" stroke-miterlimit="10" stroke-width="2" stroke="#473467" fill="none" />
      </g>
    </g>
  </g>
  <g id="layer17" style="display:inline">
    <g style="display:inline" id="filet_2_categorie" transform="translate(-0.465)">
      <path id="path139" d="m 430.54,112.505 c -0.019,0 -0.052,0 -0.077,0 v 0.031 c -17.186,0.318 -36.207,7.443 -54.627,14.36 -14.805,5.56 -30.104,11.327 -41.793,12.485 l -1.201,0.123 -1.08,-0.354 c -3.613,-1.203 -10.563,-4.916 -15.482,-8.285 l -6.813,-4.654 -106.502,51.099 v 464.373 l 106.502,51.104 6.813,-4.66 c 4.92,-3.369 11.869,-7.078 15.482,-8.271 l 1.08,-0.357 1.201,0.115 c 11.689,1.166 26.988,6.924 41.793,12.477 18.426,6.924 37.441,14.049 54.627,14.369 l 1,0.033 c 0.025,0 -0.941,0 -0.923,0 0.192,0 0.375,-0.021 0.56,-0.021 0.195,0 0.383,0.021 0.563,0.021 0.033,0 -0.941,0 -0.916,0 l 1,-0.033 c 17.191,-0.32 36.207,-7.447 54.621,-14.369 14.799,-5.553 30.119,-11.311 41.795,-12.477 l 1.201,-0.115 1.078,0.357 c 3.621,1.193 10.568,4.902 15.488,8.271 l 6.807,4.66 106.513,-51.104 V 177.31 l -106.513,-51.098 -6.807,4.654 c -4.92,3.369 -11.867,7.082 -15.488,8.285 l -1.078,0.354 -1.201,-0.123 c -11.676,-1.158 -26.996,-6.926 -41.795,-12.485 -18.414,-6.917 -37.43,-14.042 -54.621,-14.36 v -0.031 c -0.025,0 -0.051,0 -0.084,0 -0.18,0 -0.367,0.01 -0.563,0.01 -0.185,-0.001 -0.368,-0.011 -0.56,-0.011 z" stroke-miterlimit="10" stroke-width="27" stroke="#009eb9" fill="none" opacity="0.2" />
    </g>
  </g>












  <g id="layer16" style="display:inline">
    <g style="display:inline" id="filet_3_posture" transform="translate(-0.465)">
      <path id="path142" d="m 430.791,112.505 c -0.019,0 -0.051,0 -0.076,0 v 0.031 c -17.186,0.318 -36.207,7.442 -54.628,14.36 -14.804,5.56 -30.104,11.327 -41.793,12.484 l -1.201,0.123 -1.079,-0.354 c -3.614,-1.201 -10.563,-4.915 -15.482,-8.283 l -6.813,-4.654 -106.502,51.098 v 464.373 l 106.501,51.104 6.813,-4.66 c 4.919,-3.369 11.868,-7.078 15.482,-8.271 l 1.079,-0.357 1.201,0.115 c 11.689,1.166 26.989,6.924 41.793,12.477 18.421,6.924 37.442,14.049 54.628,14.369 v 0.033 c 0.025,0 0.058,0 0.076,0 0.192,0 0.375,-0.021 0.56,-0.021 0.195,0 0.384,0.021 0.563,0.021 0.032,0 0.058,0 0.083,0 v -0.033 c 17.192,-0.32 36.207,-7.445 54.622,-14.369 14.799,-5.553 30.119,-11.311 41.794,-12.477 l 1.202,-0.115 1.077,0.357 c 3.622,1.193 10.568,4.902 15.489,8.271 l 6.807,4.66 L 659.5,641.683 V 177.31 l -106.512,-51.098 -6.807,4.654 c -4.921,3.368 -11.867,7.082 -15.489,8.283 l -1.077,0.354 -1.202,-0.123 c -11.675,-1.157 -26.995,-6.925 -41.794,-12.484 -18.415,-6.918 -37.43,-14.042 -54.622,-14.36 v -0.031 c -0.025,0 -0.051,0 -0.083,0 -0.18,0 -0.368,0.01 -0.563,0.01 -0.185,0 -0.368,-0.01 -0.56,-0.01 z" stroke-miterlimit="10" stroke-width="6" stroke="#009eb9" fill="none" />
    </g>
  </g>
  <g id="layer15" style="display:inline">
    <g style="display:inline" id="texte_titre_badge-5" transform="translate(-0.465)">
      <path id="path145-8" d="m 370.135,277.963 c 6.838,6.565 15.277,11.79 25.083,15.524 9.803,3.741 21.309,5.637 34.201,5.637 12.718,0 24.181,-1.896 34.066,-5.637 9.893,-3.734 18.376,-8.957 25.212,-15.524 6.844,-6.574 12.201,-14.362 15.921,-23.143 1.627,-3.847 2.979,-7.928 4.022,-12.148 h -50.096 c -1.319,2.271 -2.65,4.157 -4.063,5.749 -5.457,6.156 -13.891,9.28 -25.063,9.28 -13.572,0 -17.24,-0.455 -25.189,-9.274 -1.439,-1.587 -2.755,-3.425 -4.119,-5.755 h -49.922 c 1.038,4.203 2.394,8.285 4.034,12.146 3.72,8.793 9.075,16.578 15.913,23.145 z" fill="#009eb9" />
      <path id="path147-1" d="m 511.016,388.255 c -0.523,-9.942 -2.679,-19.449 -6.406,-28.251 -3.719,-8.765 -9.072,-16.496 -15.915,-22.977 -6.833,-6.472 -15.321,-11.698 -25.224,-15.527 -9.896,-3.822 -21.355,-5.761 -34.061,-5.761 -12.876,0 -24.382,1.938 -34.193,5.759 -9.815,3.833 -18.259,9.06 -25.096,15.529 -6.838,6.47 -12.188,14.203 -15.906,22.977 -3.729,8.789 -5.887,18.294 -6.412,28.256 -0.362,7.873 -0.523,33.046 -0.523,41.287 0,0.611 0.007,1.196 0.016,1.785 l 0.004,0.185 h 46.763 l -0.005,-0.352 c -0.012,-0.713 -0.024,-1.425 -0.024,-2.157 0,-3.905 0.047,-25.1 0.141,-29.028 0.095,-4.069 0.312,-7.518 0.658,-10.537 0.357,-4.544 1.316,-8.836 2.848,-12.723 1.538,-3.897 3.748,-7.335 6.569,-10.221 2.821,-2.893 6.361,-5.202 10.516,-6.866 4.15,-1.661 9.077,-2.505 14.646,-2.505 5.568,0 10.496,0.844 14.647,2.505 4.145,1.662 7.686,3.972 10.522,6.864 2.814,2.893 5.02,6.329 6.561,10.221 1.525,3.881 2.484,8.174 2.848,12.761 0.178,3.104 0.355,6.585 0.535,10.478 0.171,3.942 0.256,25.145 0.256,29.051 0,0.643 -0.019,1.269 -0.036,1.894 -0.007,0.206 -0.012,0.409 -0.018,0.615 h 46.806 l 0.002,-0.237 c 0.009,-0.568 0.017,-1.137 0.017,-1.732 -0.002,-8.859 -0.182,-33.589 -0.536,-41.293 z" fill="#009eb9" />
    </g>
    <g id="layer15-7" style="display:inline">
      <g style="display:inline" id="texte_titre_badge" transform="translate(0.246)">
        <g id="g236">
          <path id="path206" d="m 263.891,494.068 2.844,0.36 V 499 h -11.879 v -4.571 l 2.844,-0.36 v -14.722 h -3.636 l -0.539,3.563 h -4.607 l 0.18,-8.675 h 23.396 l 0.181,8.675 h -4.607 l -0.54,-3.563 h -3.636 v 14.721 z" fill="#009eb9" />
          <path id="path208" d="m 274.368,499 v -4.571 l 2.844,-0.36 v -14.866 l -2.844,-0.396 v -4.571 h 11.879 v 4.571 l -2.844,0.396 v 14.866 l 2.844,0.36 V 499 Z" fill="#009eb9" />
          <path id="path210" d="m 302.878,494.068 2.844,0.36 V 499 h -11.879 v -4.571 l 2.844,-0.36 v -14.722 h -3.636 l -0.539,3.563 h -4.607 l 0.18,-8.675 h 23.396 l 0.181,8.675 h -4.607 l -0.54,-3.563 h -3.636 v 14.721 z" fill="#009eb9" />
          <path id="path212" d="m 330.095,499 -4.536,-8.675 h -3.167 v 3.743 l 3.635,0.36 V 499 h -12.67 v -4.571 l 2.844,-0.36 v -14.866 l -2.844,-0.396 v -4.571 h 13.462 c 5.04,0 8.495,2.844 8.495,7.631 0,4.067 -1.691,5.688 -4.067,6.983 v 0.18 c 0,0 0.396,0.288 0.684,0.792 l 2.484,4.247 3.167,0.36 V 499 Z m -4.824,-13.498 c 2.628,0 3.78,-1.044 3.78,-3.275 0,-1.944 -1.404,-2.88 -3.78,-2.88 h -2.879 v 6.155 z" fill="#009eb9" />
          <path id="path214" d="m 339.024,499 v -4.571 l 2.808,-0.36 v -14.902 l -2.808,-0.359 v -4.571 h 20.409 l 0.145,8.675 h -4.607 l -0.54,-3.563 h -6.407 v 4.787 h 5.363 v 4.932 h -5.363 v 4.823 h 6.335 l 0.54,-3.563 h 4.607 L 359.254,499 Z" fill="#009eb9" />
          <path id="path216" d="m 369.155,499 v -4.571 l 2.844,-0.36 v -14.902 l -2.844,-0.359 v -4.571 h 12.131 c 6.119,0 12.13,3.239 12.13,12.202 0,9.827 -5.939,12.563 -11.555,12.563 h -12.706 z m 11.231,-5.111 c 4.212,0 6.768,-1.62 6.768,-7.451 0,-4.968 -2.664,-7.091 -7.235,-7.091 h -1.728 v 14.542 z" fill="#009eb9" />
          <path id="path218" d="m 412.641,479.202 -2.844,-0.396 v -4.571 h 11.519 v 4.571 l -2.843,0.396 v 10.691 c 0,6.263 -3.744,9.358 -10.367,9.358 -6.623,0 -10.511,-3.096 -10.511,-9.358 v -10.691 l -2.844,-0.396 v -4.571 h 11.879 v 4.571 l -2.844,0.396 v 10.295 c 0,1.944 0.792,4.571 4.319,4.571 2.88,0 4.535,-2.052 4.535,-4.392 v -10.474 z" fill="#009eb9" />
          <path id="path220" d="m 430.031,499 v -4.571 l 2.844,-0.36 v -14.902 l -2.844,-0.359 v -4.571 h 10.295 c 7.091,0 10.654,1.728 10.654,6.659 0,4.211 -2.664,5.003 -3.636,5.291 v 0.288 c 1.764,0.216 5.399,1.188 5.399,5.759 0,4.248 -2.483,6.768 -10.043,6.768 h -12.669 z m 12.059,-14.722 c 1.655,0 2.628,-0.973 2.628,-2.448 0,-1.764 -1.404,-2.483 -2.988,-2.483 h -2.663 v 4.932 h 3.023 z m -3.024,4.643 v 4.968 h 3.923 c 2.52,0 3.492,-0.684 3.492,-2.447 0,-1.584 -1.225,-2.521 -2.988,-2.521 z" fill="#009eb9" />
          <path id="path222" d="m 477.729,494.068 2.52,0.36 V 499 H 469.09 v -4.571 l 2.7,-0.36 -0.9,-2.375 h -8.387 l -0.899,2.375 2.699,0.36 V 499 h -10.979 v -4.571 l 2.52,-0.36 5.651,-14.902 -3.168,-0.18 v -4.751 h 11.879 z m -10.152,-11.194 c -0.252,-0.647 -0.792,-2.195 -0.792,-2.195 h -0.18 c 0,0 -0.54,1.548 -0.792,2.195 l -1.548,4.104 h 4.859 z" fill="#009eb9" />
          <path id="path224" d="m 481.583,499 v -4.571 l 2.844,-0.36 v -14.902 l -2.844,-0.359 v -4.571 h 12.131 c 6.119,0 12.13,3.239 12.13,12.202 0,9.827 -5.939,12.563 -11.555,12.563 h -12.706 z m 11.23,-5.111 c 4.212,0 6.768,-1.62 6.768,-7.451 0,-4.968 -2.664,-7.091 -7.235,-7.091 h -1.728 v 14.542 z" fill="#009eb9" />
          <path id="path226" d="m 529.424,490.325 c 0,3.707 -2.052,8.927 -10.402,8.927 -6.804,0 -11.051,-3.924 -11.051,-12.67 0,-8.676 4.283,-12.563 11.051,-12.563 8.351,0 10.402,4.355 10.402,7.486 0,1.116 -0.252,1.872 -0.252,1.872 l -5.867,0.54 c 0,0 0.144,-0.54 0.144,-1.296 0,-1.476 -0.936,-3.456 -4.104,-3.456 -2.844,0 -5.111,1.8 -5.111,7.523 0,5.651 2.484,7.379 5.327,7.379 2.736,0 3.744,-1.188 3.852,-3.203 l -3.491,-0.36 v -4.211 h 9.503 v 4.032 z" fill="#009eb9" />
          <path id="path228" d="m 531.91,499 v -4.571 l 2.808,-0.36 v -14.902 l -2.808,-0.359 v -4.571 h 20.409 l 0.145,8.675 h -4.607 l -0.54,-3.563 h -6.407 v 4.787 h 5.363 v 4.932 h -5.363 v 4.823 h 6.335 l 0.54,-3.563 h 4.607 L 552.14,499 Z" fill="#009eb9" />
          <path id="path230" d="m 562.042,499 v -4.571 l 2.844,-0.36 v -14.866 l -2.844,-0.396 v -4.571 h 11.879 v 4.571 l -2.844,0.396 v 14.866 l 2.844,0.36 V 499 Z" fill="#009eb9" />
          <path id="path232" d="m 591.523,490.253 v -0.684 l 5.976,1.224 v 0.612 c 0,3.275 -2.088,7.847 -10.583,7.847 -6.695,0 -10.87,-3.924 -10.87,-12.67 0,-8.676 4.283,-12.563 11.051,-12.563 8.351,0 10.402,4.787 10.402,8.207 0,1.115 -0.252,1.871 -0.252,1.871 l -5.867,0.72 c 0,0 0.144,-0.611 0.144,-1.476 0,-1.764 -0.936,-4.176 -4.104,-4.176 -2.844,0 -5.111,1.8 -5.111,7.523 0,5.651 2.412,7.379 5.147,7.379 3.096,10e-4 4.067,-1.438 4.067,-3.814 z" fill="#009eb9" />
          <path id="path234" d="m 599.806,499 v -4.571 l 2.844,-0.36 v -14.866 l -2.844,-0.396 v -4.571 h 11.879 v 4.571 l -2.844,0.396 v 14.866 l 2.844,0.36 V 499 Z" fill="#009eb9" />
        </g>
      </g>
    </g>
  </g>
  <g id="layer14" style="display:inline">
    <g style="display:inline" id="picto_titre_badge" transform="translate(-0.465)">
      <path id="path145" d="m 370.135,277.963 c 6.838,6.565 15.277,11.79 25.083,15.524 9.803,3.741 21.309,5.637 34.201,5.637 12.718,0 24.181,-1.896 34.066,-5.637 9.893,-3.734 18.376,-8.957 25.212,-15.524 6.844,-6.574 12.201,-14.362 15.921,-23.143 1.627,-3.847 2.979,-7.928 4.022,-12.148 h -50.096 c -1.319,2.271 -2.65,4.157 -4.063,5.749 -5.457,6.156 -13.891,9.28 -25.063,9.28 -13.572,0 -17.24,-0.455 -25.189,-9.274 -1.439,-1.587 -2.755,-3.425 -4.119,-5.755 h -49.922 c 1.038,4.203 2.394,8.285 4.034,12.146 3.72,8.793 9.075,16.578 15.913,23.145 z" fill="#009eb9" />
      <path id="path147" d="m 511.016,388.255 c -0.523,-9.942 -2.679,-19.449 -6.406,-28.251 -3.719,-8.765 -9.072,-16.496 -15.915,-22.977 -6.833,-6.472 -15.321,-11.698 -25.224,-15.527 -9.896,-3.822 -21.355,-5.761 -34.061,-5.761 -12.876,0 -24.382,1.938 -34.193,5.759 -9.815,3.833 -18.259,9.06 -25.096,15.529 -6.838,6.47 -12.188,14.203 -15.906,22.977 -3.729,8.789 -5.887,18.294 -6.412,28.256 -0.362,7.873 -0.523,33.046 -0.523,41.287 0,0.611 0.007,1.196 0.016,1.785 l 0.004,0.185 h 46.763 l -0.005,-0.352 c -0.012,-0.713 -0.024,-1.425 -0.024,-2.157 0,-3.905 0.047,-25.1 0.141,-29.028 0.095,-4.069 0.312,-7.518 0.658,-10.537 0.357,-4.544 1.316,-8.836 2.848,-12.723 1.538,-3.897 3.748,-7.335 6.569,-10.221 2.821,-2.893 6.361,-5.202 10.516,-6.866 4.15,-1.661 9.077,-2.505 14.646,-2.505 5.568,0 10.496,0.844 14.647,2.505 4.145,1.662 7.686,3.972 10.522,6.864 2.814,2.893 5.02,6.329 6.561,10.221 1.525,3.881 2.484,8.174 2.848,12.761 0.178,3.104 0.355,6.585 0.535,10.478 0.171,3.942 0.256,25.145 0.256,29.051 0,0.643 -0.019,1.269 -0.036,1.894 -0.007,0.206 -0.012,0.409 -0.018,0.615 h 46.806 l 0.002,-0.237 c 0.009,-0.568 0.017,-1.137 0.017,-1.732 -0.002,-8.859 -0.182,-33.589 -0.536,-41.293 z" fill="#009eb9" />
    </g>
  </g>
</svg>
