<?xml version="1.0" encoding="UTF-8" standalone="no"?>
<svg xmlns:dc="http://purl.org/dc/elements/1.1/"
  xmlns:cc="http://creativecommons.org/ns#"
  xmlns:rdf="http://www.w3.org/1999/02/22-rdf-syntax-ns#"
  xmlns:svg="http://www.w3.org/2000/svg"
  xmlns="http://www.w3.org/2000/svg"
  xmlns:xlink="http://www.w3.org/1999/xlink" version="1.1" x="0px" y="0px" width="100%" height="100%" viewBox="0 0 850.39371 850.39371" enable-background="new 0 0 850.394 841.89" xml:space="preserve" id="svg2303">
  <metadata id="metadata2309">
    <rdf:RDF>
      <cc:Work rdf:about="">
        <dc:format>image/svg+xml</dc:format>
        <dc:type rdf:resource="http://purl.org/dc/dcmitype/StillImage" />
        <dc:title></dc:title>
      </cc:Work>
    </rdf:RDF>
  </metadata>
  <defs id="defs2307">
    <linearGradient y2="116.8174" x2="420.56351" y1="116.8174" x1="257.7666" gradientUnits="userSpaceOnUse" id="SVGID_1_">
      <stop id="stop2215" style="stop-color:#FFFFFF" offset="0" />
      <stop id="stop2217" style="stop-color:#8D7D9F" offset="0.4515" />
      <stop id="stop2219" style="stop-color:#473467" offset="1" />
    </linearGradient>
    <linearGradient gradientTransform="matrix(-1,0,0,1,1066.5762,0)" y2="116.8174" x2="634.80957" y1="116.8174" x1="472.0127" gradientUnits="userSpaceOnUse" id="SVGID_2_">
      <stop id="stop2224" style="stop-color:#FFFFFF" offset="0" />
      <stop id="stop2226" style="stop-color:#8D7D9F" offset="0.4515" />
      <stop id="stop2228" style="stop-color:#473467" offset="1" />
    </linearGradient>
    <clipPath id="SVGID_2_-4">
      <use height="100%" width="100%" y="0" x="0" xlink:href="#SVGID_1_-0" overflow="visible" id="use122" />
    </clipPath>
    <clipPath id="SVGID_4_">
      <use height="100%" width="100%" y="0" x="0" xlink:href="#SVGID_3_" overflow="visible" id="use132" />
    </clipPath>
    <path id="SVGID_1_-0" d="m 404.664,50.394 c 1.172,3.438 3.039,6.252 4.836,8.439 l -19.805,17.313 c -3.164,-1.836 -6.135,-4.258 -8.674,-7.969 l -13.156,3.746 c 0,0 -1.5,20.816 0.125,20.816 1.625,0 20.75,-1.5 22,-1.5 1.25,0 37.625,-22.125 37.625,-22.125 l 13.875,-38 c 0,0 -0.625,-12.084 -1,-12.291 -0.375,-0.209 -36.375,17.006 -36.375,17.006 z" />
    <path id="SVGID_3_" d="m 453.475,81.825 c 1.949,-1.783 5.014,-5.445 6.551,-8.467 l 18.717,21.805 0.957,1.021 c -2.836,3.092 -6.361,5.285 -9.527,6.563 l 4.693,17.242 13.125,9.75 0.375,-10.625 c 0,0 -5.125,-47.875 -5.375,-48.25 -0.25,-0.375 -24.334,-23.75 -24.334,-23.75 0,0 -13.166,1.125 -13.166,1.5 0,0.375 -9.506,10 -9.506,10 l 5.662,19.625 z" />
    <clipPath id="SVGID_2_-4-8">
      <use id="use122-9" overflow="visible" xlink:href="#SVGID_1_-0" x="0" y="0" width="100%" height="100%" />
    </clipPath>
    <clipPath id="SVGID_4_-4">
      <use id="use132-1" overflow="visible" xlink:href="#SVGID_3_" x="0" y="0" width="100%" height="100%" />
    </clipPath>
    <path d="m 404.664,50.394 c 1.172,3.438 3.039,6.252 4.836,8.439 l -19.805,17.313 c -3.164,-1.836 -6.135,-4.258 -8.674,-7.969 l -13.156,3.746 c 0,0 -1.5,20.816 0.125,20.816 1.625,0 20.75,-1.5 22,-1.5 1.25,0 37.625,-22.125 37.625,-22.125 l 13.875,-38 c 0,0 -0.625,-12.084 -1,-12.291 -0.375,-0.209 -36.375,17.006 -36.375,17.006 z" id="path300" />
    <path d="m 453.475,81.825 c 1.949,-1.783 5.014,-5.445 6.551,-8.467 l 18.717,21.805 0.957,1.021 c -2.836,3.092 -6.361,5.285 -9.527,6.563 l 4.693,17.242 13.125,9.75 0.375,-10.625 c 0,0 -5.125,-47.875 -5.375,-48.25 -0.25,-0.375 -24.334,-23.75 -24.334,-23.75 0,0 -13.166,1.125 -13.166,1.5 0,0.375 -9.506,10 -9.506,10 l 5.662,19.625 z" id="path307" />
    <linearGradient y2="34.083" x2="419.22461" y1="34.083" x1="256.4277" gradientUnits="userSpaceOnUse" id="SVGID_1_-1" gradientTransform="translate(-0.52877063,-24.950401)">
      <stop id="stop95" style="stop-color:#FFFFFF" offset="0" />
      <stop id="stop97" style="stop-color:#8D7D9F" offset="0.4515" />
      <stop id="stop99" style="stop-color:#473467" offset="1" />
    </linearGradient>
    <linearGradient gradientTransform="matrix(-1,0,0,1,1066.0474,-24.950401)" y2="34.083" x2="636.14838" y1="34.083" x1="473.35159" gradientUnits="userSpaceOnUse" id="SVGID_2_-1">
      <stop id="stop104" style="stop-color:#FFFFFF" offset="0" />
      <stop id="stop106" style="stop-color:#8D7D9F" offset="0.4515" />
      <stop id="stop108" style="stop-color:#473467" offset="1" />
    </linearGradient>
    <linearGradient gradientTransform="translate(-0.52877,-24.9504)" id="SVGID_1_-1-5" gradientUnits="userSpaceOnUse" x1="256.4277" y1="34.083" x2="419.22461" y2="34.083">
      <stop offset="0" style="stop-color:#FFFFFF" id="stop95-6" />
      <stop offset="0.4515" style="stop-color:#8D7D9F" id="stop97-9" />
      <stop offset="1" style="stop-color:#473467" id="stop99-4" />
    </linearGradient>
    <linearGradient id="SVGID_2_-1-0" gradientUnits="userSpaceOnUse" x1="473.35159" y1="34.083" x2="636.14838" y2="34.083" gradientTransform="matrix(-1,0,0,1,1066.0474,-24.950401)">
      <stop offset="0" style="stop-color:#FFFFFF" id="stop104-4" />
      <stop offset="0.4515" style="stop-color:#8D7D9F" id="stop106-9" />
      <stop offset="1" style="stop-color:#473467" id="stop108-8" />
    </linearGradient>
    <clipPath id="SVGID_2_-6">
      <use height="100%" width="100%" y="0" x="0" xlink:href="#SVGID_1_-8" overflow="visible" id="use124" />
    </clipPath>
    <clipPath id="SVGID_4_-2">
      <use height="100%" width="100%" y="0" x="0" xlink:href="#SVGID_3_-8" overflow="visible" id="use134" />
    </clipPath>
    <path id="SVGID_1_-8" d="m 406.3,41.5 c 1.173,3.438 3.038,6.25 4.835,8.438 L 391.33,67.251 c -3.164,-1.836 -6.133,-4.258 -8.672,-7.971 L 369.5,63.027 c 0,0 -1.5,20.818 0.125,20.818 1.625,0 20.75,-1.5 22,-1.5 1.25,0 37.625,-22.125 37.625,-22.125 l 13.875,-38 c 0,0 -0.625,-12.086 -1,-12.293 C 441.75,9.72 405.75,26.933 405.75,26.933 Z" />
    <path id="SVGID_3_-8" d="m 455.111,72.929 c 1.949,-1.781 5.012,-5.445 6.549,-8.465 l 18.717,21.805 0.958,1.02 c -2.836,3.094 -6.362,5.285 -9.528,6.563 l 4.693,17.244 13.125,9.75 L 490,110.22 c 0,0 -5.125,-47.875 -5.375,-48.25 -0.25,-0.375 -24.334,-23.75 -24.334,-23.75 0,0 -13.166,1.125 -13.166,1.5 0,0.375 -9.506,10 -9.506,10 l 5.663,19.625 z" />
    <clipPath id="SVGID_2_-6-1">
      <use id="use124-7" overflow="visible" xlink:href="#SVGID_1_-8" x="0" y="0" width="100%" height="100%" />
    </clipPath>
    <clipPath id="SVGID_4_-2-1">
      <use id="use134-2" overflow="visible" xlink:href="#SVGID_3_-8" x="0" y="0" width="100%" height="100%" />
    </clipPath>
    <path d="m 406.3,41.5 c 1.173,3.438 3.038,6.25 4.835,8.438 L 391.33,67.251 c -3.164,-1.836 -6.133,-4.258 -8.672,-7.971 L 369.5,63.027 c 0,0 -1.5,20.818 0.125,20.818 1.625,0 20.75,-1.5 22,-1.5 1.25,0 37.625,-22.125 37.625,-22.125 l 13.875,-38 c 0,0 -0.625,-12.086 -1,-12.293 C 441.75,9.72 405.75,26.933 405.75,26.933 Z" id="path335" />
    <path d="m 455.111,72.929 c 1.949,-1.781 5.012,-5.445 6.549,-8.465 l 18.717,21.805 0.958,1.02 c -2.836,3.094 -6.362,5.285 -9.528,6.563 l 4.693,17.244 13.125,9.75 L 490,110.22 c 0,0 -5.125,-47.875 -5.375,-48.25 -0.25,-0.375 -24.334,-23.75 -24.334,-23.75 0,0 -13.166,1.125 -13.166,1.5 0,0.375 -9.506,10 -9.506,10 l 5.663,19.625 z" id="path342" />
  </defs>
  <g id="layer2">
      <path transform="translate(1.283)" id="path164-4" d="m 428.791,116.755 c -0.019,0 -0.051,0 -0.076,0 v 0.033 c -17.186,0.316 -36.207,7.441 -54.628,14.359 -14.804,5.561 -30.104,11.328 -41.793,12.484 l -1.201,0.123 -1.079,-0.354 c -3.614,-1.203 -10.563,-4.916 -15.482,-8.283 l -6.813,-4.654 -106.502,51.097 v 464.375 l 106.501,51.104 6.813,-4.662 c 4.919,-3.367 11.868,-7.078 15.482,-8.27 l 1.079,-0.359 1.201,0.117 c 11.689,1.166 26.989,6.922 41.793,12.477 18.421,6.922 37.442,14.047 54.628,14.367 v 0.035 c 0.025,0 0.058,0 0.076,0 0.192,0 0.375,-0.021 0.56,-0.021 0.195,0 0.384,0.021 0.563,0.021 0.032,0 0.058,0 0.083,0 v -0.035 c 17.192,-0.32 36.207,-7.445 54.622,-14.367 14.799,-5.555 30.119,-11.311 41.794,-12.477 l 1.202,-0.117 1.077,0.359 c 3.622,1.191 10.568,4.902 15.489,8.27 l 6.807,4.662 L 657.5,645.935 V 181.56 l -106.512,-51.096 -6.807,4.654 c -4.921,3.367 -11.867,7.08 -15.489,8.283 l -1.077,0.354 -1.202,-0.123 c -11.675,-1.156 -26.995,-6.924 -41.794,-12.484 -18.415,-6.918 -37.43,-14.043 -54.622,-14.359 v -0.033 c -0.025,0 -0.051,0 -0.083,0 -0.18,0 -0.368,0.012 -0.563,0.012 -0.185,-0.001 -0.368,-0.013 -0.56,-0.013 z" stroke-miterlimit="10" stroke-width="12" stroke="#009eb9" fill="none" style="fill:#ffffff;stroke:none" />
  </g>
  <g id="layer26" style="display:inline">
    <g id="texte_posture" transform="translate(1.283)">
      <g id="g12">
        <path fill="#473467" d="m 370.148,809.727 5.407,16.908 -8.16,-2.449 -3.221,-10.279 -8.35,6.807 -7.931,-2.381 13.695,-10.84 -5.032,-15.793 7.931,2.38 2.826,9.368 7.518,-6.264 8.007,2.404 z" id="path2" />
        <path fill="#473467" d="m 401.269,815.893 7.893,15.901 -8.437,-1.192 -4.732,-9.678 -7.229,7.988 -8.198,-1.159 11.905,-12.78 -7.354,-14.854 8.199,1.158 4.205,8.835 6.488,-7.324 8.278,1.17 z" id="path4" />
        <path fill="#473467" d="m 432.986,817.219 10.336,14.434 -8.519,0.173 -6.22,-8.796 -5.857,9.041 -8.278,0.169 9.707,-14.521 -9.637,-13.486 8.278,-0.169 5.564,8.049 5.233,-8.269 8.358,-0.17 z" id="path6" />
        <path fill="#473467" d="m 464.523,813.771 12.314,12.786 -8.403,1.403 -7.427,-7.804 -4.488,9.794 -8.167,1.363 7.505,-15.771 -11.485,-11.951 8.167,-1.364 6.67,7.159 3.982,-8.938 8.246,-1.377 z" id="path8" />
        <path fill="#473467" d="m 495.172,805.561 14.092,10.795 -8.098,2.648 -8.513,-6.603 -2.97,10.354 -7.87,2.573 5.056,-16.718 -13.147,-10.096 7.871,-2.572 7.668,6.078 2.597,-9.434 7.946,-2.598 z" id="path10" />
      </g>
    </g>
  </g>
  <g id="layer25" style="display:inline">
    <g style="display:inline" id="filet_separation_theme" transform="translate(1.283)">
      <line id="line15" y2="627.50897" x2="428.84698" y1="589.72601" x1="428.84698" stroke-miterlimit="10" stroke-width="2" stroke="#000000" fill="none" />
    </g>
  </g>
  <g id="layer24" style="display:inline">
    <g style="display:inline" id="picto_theme" transform="translate(1.283)">
      <g id="g22">
        <path id="path18" d="m 484.933,591.694 c 2.644,2.538 5.906,4.559 9.697,6.002 3.789,1.446 8.237,2.179 13.221,2.179 4.916,0 9.348,-0.732 13.17,-2.179 3.824,-1.443 7.104,-3.463 9.746,-6.002 2.646,-2.541 4.717,-5.552 6.155,-8.945 0.629,-1.488 1.151,-3.065 1.555,-4.697 H 519.11 c -0.51,0.879 -1.024,1.608 -1.57,2.223 -2.11,2.38 -5.369,3.588 -9.689,3.588 -5.246,0 -6.664,-0.176 -9.737,-3.586 -0.556,-0.613 -1.065,-1.323 -1.593,-2.225 h -19.299 c 0.402,1.626 0.926,3.204 1.56,4.696 1.438,3.398 3.507,6.408 6.151,8.946 z" stroke-miterlimit="10" stroke-width="2" stroke="#000000" fill="none" />
        <path id="path20" d="m 539.397,634.331 c -0.202,-3.843 -1.036,-7.519 -2.477,-10.921 -1.438,-3.389 -3.506,-6.378 -6.152,-8.883 -2.641,-2.502 -5.922,-4.521 -9.75,-6.002 -3.826,-1.478 -8.256,-2.228 -13.168,-2.228 -4.978,0 -9.426,0.75 -13.219,2.227 -3.794,1.482 -7.059,3.502 -9.701,6.003 -2.643,2.502 -4.712,5.491 -6.149,8.883 -1.44,3.398 -2.275,7.072 -2.478,10.923 -0.141,3.044 -0.203,12.774 -0.203,15.961 0,0.237 0.002,0.462 0.006,0.69 l 0.002,0.071 h 18.077 l -0.002,-0.137 c -0.005,-0.274 -0.009,-0.55 -0.009,-0.834 0,-1.51 0.018,-9.703 0.054,-11.221 0.036,-1.573 0.12,-2.906 0.255,-4.074 0.139,-1.756 0.508,-3.416 1.1,-4.918 0.596,-1.506 1.449,-2.836 2.541,-3.951 1.09,-1.117 2.459,-2.011 4.064,-2.654 1.604,-0.642 3.51,-0.968 5.662,-0.968 2.152,0 4.058,0.326 5.662,0.968 1.603,0.643 2.972,1.536 4.068,2.653 1.088,1.119 1.94,2.447 2.535,3.951 0.59,1.501 0.961,3.16 1.102,4.935 0.068,1.199 0.138,2.545 0.207,4.049 0.066,1.524 0.099,9.72 0.099,11.23 0,0.249 -0.007,0.491 -0.015,0.733 -0.002,0.078 -0.004,0.156 -0.006,0.237 h 18.094 v -0.092 c 0.004,-0.22 0.008,-0.439 0.008,-0.67 0,-3.422 -0.07,-12.981 -0.207,-15.961 z" stroke-miterlimit="10" stroke-width="2" stroke="#000000" fill="none" />
      </g>
    </g>
  </g>
  <g id="layer23" style="display:inline">
    <g style="display:inline" id="texte_picto_theme" transform="translate(1.283)">
      <g id="g45">
        <path id="path25" d="m 455.006,553.598 h -3.799 v 10.025 h -3.203 v -10.025 h -3.763 v -2.593 h 10.765 z" />
        <path id="path27" d="m 466.237,553.543 h -6.66 v 2.502 h 6.013 v 2.52 h -6.013 v 2.539 h 6.858 v 2.52 h -10.063 v -12.6 h 9.864 v 2.519 z" />
        <path id="path29" d="m 475.813,557.035 4.519,6.588 h -3.834 l -2.718,-4.014 -2.719,4.014 h -3.726 l 4.5,-6.443 -4.212,-6.156 h 3.727 l 2.43,3.672 2.43,-3.672 h 3.762 z" />
        <path id="path31" d="m 491.348,553.598 h -3.799 v 10.025 h -3.203 v -10.025 h -3.763 v -2.593 h 10.765 z" />
        <path id="path33" d="m 502.578,553.543 h -6.66 v 2.502 h 6.013 v 2.52 h -6.013 v 2.539 h 6.858 v 2.52 h -10.062 v -12.6 h 9.863 v 2.519 z" />
        <path id="path35" d="m 518.652,553.598 h -3.798 v 10.025 h -3.204 v -10.025 h -3.762 v -2.593 h 10.764 z" />
        <path id="path37" d="m 531.648,563.623 h -3.204 v -4.896 h -5.22 v 4.896 h -3.205 v -12.6 h 3.205 v 5.184 h 5.22 v -5.184 h 3.204 z" />
        <path id="path39" d="m 544.032,553.543 h -6.66 v 2.502 h 6.013 v 2.52 h -6.013 v 2.539 h 6.858 v 2.52 h -10.063 v -12.6 h 9.864 v 2.519 z m -3.311,-3.618 h -2.377 l -2.34,-2.034 2.809,-0.99 z" />
        <path id="path41" d="m 560.143,563.623 h -2.826 l -0.018,-8.189 -3.024,6.93 h -2.088 l -3.024,-6.93 v 8.189 h -2.861 v -12.618 h 3.51 l 3.42,7.507 3.42,-7.507 h 3.492 v 12.618 z" />
        <path id="path43" d="m 572.544,553.543 h -6.66 v 2.502 h 6.013 v 2.52 h -6.013 v 2.539 h 6.858 v 2.52 H 562.68 v -12.6 h 9.864 z" />
      </g>
    </g>
  </g>
  <g id="layer22" style="display:inline">
    <g style="display:inline" id="picto_categorie" transform="translate(1.283)">
      <g id="g68">
        <polygon id="polygon48" points="390.307,642.617 362.932,642.617 334.143,645.847 306.682,642.742 306.307,583.867 334.307,586.117 362.807,583.992 390.307,583.992 " stroke-miterlimit="10" stroke-width="2" stroke="#000000" fill="none" />
        <path id="path50" d="m 334.307,586.117 c -0.125,0.25 0,59.729 0,59.729" stroke-miterlimit="10" stroke-width="2" stroke="#000000" fill="none" />
        <line id="line52" y2="642.617" x2="362.80701" y1="583.992" x1="362.80701" stroke-miterlimit="10" stroke-width="2" stroke="#000000" fill="none" />
        <line id="line54" y2="602.742" x2="385.68201" y1="594.617" x1="374.30701" stroke-miterlimit="10" stroke-linecap="round" stroke-width="2" stroke="#000000" fill="none" />
        <line id="line56" y2="594.492" x2="386.05701" y1="602.617" x1="374.30701" stroke-miterlimit="10" stroke-linecap="round" stroke-width="2" stroke="#000000" fill="none" />
        <g id="g66">
          <g id="g64">
            <path id="path58" d="m 311.932,643.367 c 0,-0.416 -0.116,-0.914 -0.097,-1.493" stroke-miterlimit="10" stroke-linecap="round" stroke-width="2" stroke="#000000" fill="none" />
            <path id="path60" d="m 313.887,638.552 c 2.993,-2.349 10.204,-5.333 27.295,-8.935 29.125,-6.138 36.234,-12.972 38.403,-22.283" stroke-dasharray="3.029, 4.0386" stroke-miterlimit="10" stroke-linecap="round" stroke-width="2" stroke="#000000" fill="none" />
            <path id="path62" d="m 379.972,605.35 c 0.079,-0.487 0.148,-0.981 0.21,-1.482" stroke-miterlimit="10" stroke-linecap="round" stroke-width="2" stroke="#000000" fill="none" />
          </g>
        </g>
      </g>
    </g>
  </g>
  <g id="layer21" style="display:inline">
    <g style="display:inline" id="texte_picto_categorie" transform="translate(1.283)">
      <g id="g87">
        <path id="path71" d="m 297.138,551.023 h 5.49 c 1.608,0 2.856,0.381 3.744,1.143 0.888,0.762 1.332,1.846 1.332,3.249 0,1.476 -0.444,2.622 -1.332,3.438 -0.888,0.816 -2.136,1.224 -3.744,1.224 h -2.286 v 3.546 h -3.204 z m 3.204,2.52 v 4.014 h 2.124 c 0.708,0 1.254,-0.174 1.638,-0.521 0.384,-0.348 0.576,-0.852 0.576,-1.512 0,-0.648 -0.192,-1.141 -0.576,-1.477 -0.384,-0.336 -0.93,-0.504 -1.638,-0.504 z" />
        <path id="path73" d="m 316.813,561.301 h -5.508 l -0.918,2.322 h -3.294 l 5.436,-12.6 h 3.294 l 5.31,12.6 h -3.42 z m -0.937,-2.43 -1.8,-4.662 -1.836,4.662 z" />
        <path id="path75" d="m 329.898,563.623 -1.872,-3.546 h -0.09 -2.43 v 3.546 h -3.204 v -12.6 h 5.634 c 1.668,0 2.958,0.381 3.87,1.143 0.912,0.762 1.368,1.846 1.368,3.249 0,1.944 -0.762,3.294 -2.286,4.05 l 2.646,4.158 z m -4.392,-6.066 h 2.43 c 0.696,0 1.236,-0.174 1.62,-0.521 0.384,-0.348 0.576,-0.852 0.576,-1.512 0,-0.648 -0.192,-1.141 -0.576,-1.477 -0.384,-0.336 -0.924,-0.504 -1.62,-0.504 h -2.43 z" />
        <path id="path77" d="m 341.238,550.915 c 0.936,0 1.857,0.192 2.763,0.576 0.906,0.384 1.677,0.899 2.313,1.548 l -1.854,2.195 c -0.408,-0.504 -0.897,-0.902 -1.467,-1.196 -0.57,-0.294 -1.137,-0.44 -1.701,-0.44 -0.996,0 -1.83,0.351 -2.502,1.053 -0.672,0.701 -1.008,1.568 -1.008,2.601 0,1.056 0.336,1.938 1.008,2.646 0.672,0.709 1.506,1.063 2.502,1.063 0.528,0 1.077,-0.132 1.647,-0.396 0.569,-0.264 1.077,-0.623 1.521,-1.08 l 1.872,1.98 c -0.684,0.696 -1.491,1.254 -2.421,1.674 -0.93,0.42 -1.857,0.631 -2.781,0.631 -1.896,0 -3.474,-0.619 -4.734,-1.854 -1.26,-1.235 -1.89,-2.778 -1.89,-4.626 0,-1.813 0.642,-3.327 1.926,-4.545 1.284,-1.218 2.886,-1.83 4.806,-1.83 z" />
        <path id="path79" d="m 353.55,550.915 c 1.956,0 3.582,0.609 4.878,1.827 1.296,1.218 1.944,2.738 1.944,4.563 0,1.836 -0.651,3.373 -1.953,4.608 -1.302,1.235 -2.925,1.854 -4.869,1.854 -1.944,0 -3.564,-0.615 -4.86,-1.846 -1.296,-1.229 -1.944,-2.769 -1.944,-4.617 0,-1.836 0.648,-3.359 1.944,-4.572 1.296,-1.211 2.916,-1.817 4.86,-1.817 z m 0.036,2.683 c -0.984,0 -1.824,0.356 -2.52,1.07 -0.696,0.715 -1.044,1.6 -1.044,2.655 0,1.055 0.351,1.946 1.053,2.673 0.702,0.727 1.539,1.089 2.511,1.089 0.972,0 1.797,-0.362 2.475,-1.089 0.678,-0.727 1.017,-1.617 1.017,-2.673 0,-1.056 -0.339,-1.94 -1.017,-2.655 -0.678,-0.714 -1.503,-1.07 -2.475,-1.07 z" />
        <path id="path81" d="m 373.404,551.023 v 7.308 c 0,1.668 -0.516,2.991 -1.548,3.969 -1.032,0.979 -2.43,1.468 -4.194,1.468 -1.776,0 -3.189,-0.489 -4.239,-1.468 -1.05,-0.978 -1.575,-2.301 -1.575,-3.969 v -7.308 h 3.204 v 7.308 c 0,0.84 0.243,1.509 0.729,2.007 0.486,0.498 1.119,0.747 1.899,0.747 0.768,0 1.383,-0.245 1.845,-0.737 0.461,-0.492 0.693,-1.164 0.693,-2.017 v -7.308 z" />
        <path id="path83" d="m 383.304,563.623 -1.872,-3.546 h -0.09 -2.43 v 3.546 h -3.204 v -12.6 h 5.634 c 1.668,0 2.958,0.381 3.87,1.143 0.912,0.762 1.368,1.846 1.368,3.249 0,1.944 -0.762,3.294 -2.286,4.05 l 2.646,4.158 z m -4.392,-6.066 h 2.43 c 0.696,0 1.236,-0.174 1.62,-0.521 0.384,-0.348 0.576,-0.852 0.576,-1.512 0,-0.648 -0.192,-1.141 -0.576,-1.477 -0.384,-0.336 -0.924,-0.504 -1.62,-0.504 h -2.43 z" />
        <path id="path85" d="m 393.582,550.879 c 1.884,0 3.54,0.469 4.968,1.404 l -1.206,2.502 c -0.66,-0.384 -1.368,-0.699 -2.124,-0.945 -0.756,-0.246 -1.393,-0.369 -1.908,-0.369 -0.924,0 -1.386,0.307 -1.386,0.918 0,0.396 0.228,0.715 0.684,0.955 0.456,0.239 1.011,0.446 1.665,0.62 0.654,0.175 1.308,0.384 1.962,0.63 0.654,0.246 1.209,0.646 1.665,1.197 0.456,0.553 0.684,1.248 0.684,2.088 0,1.213 -0.474,2.157 -1.422,2.835 -0.948,0.679 -2.154,1.017 -3.618,1.017 -1.044,0 -2.076,-0.18 -3.096,-0.539 -1.021,-0.36 -1.908,-0.852 -2.664,-1.477 l 1.242,-2.466 c 0.636,0.552 1.386,1.005 2.25,1.358 0.864,0.354 1.632,0.531 2.304,0.531 0.516,0 0.918,-0.092 1.206,-0.279 0.288,-0.186 0.432,-0.459 0.432,-0.818 0,-0.348 -0.166,-0.639 -0.495,-0.873 -0.33,-0.234 -0.741,-0.408 -1.233,-0.521 -0.492,-0.114 -1.026,-0.268 -1.602,-0.459 -0.576,-0.192 -1.11,-0.402 -1.602,-0.631 -0.492,-0.228 -0.903,-0.59 -1.233,-1.088 -0.331,-0.498 -0.495,-1.096 -0.495,-1.791 0,-1.152 0.459,-2.074 1.377,-2.764 0.918,-0.69 2.133,-1.035 3.645,-1.035 z" />
      </g>
    </g>
  </g>
  <g id="layer20" style="display:inline">
    <g style="display:inline" id="fond_categorie" transform="translate(1.283)">
      <path id="path90" d="M 627.5,520.872 V 200.55 l -74.286,-35.639 c -4.98,2.846 -10.489,5.549 -15.154,7.098 l -7.147,2.35 -7.457,-0.766 c -15.543,-1.541 -32.663,-7.973 -49.22,-14.191 l -0.166,-0.063 c -15.997,-6.01 -32.54,-12.225 -44.627,-12.449 h -0.171 c -12.081,0.225 -28.632,6.439 -44.637,12.449 l -0.289,0.109 c -16.494,6.195 -33.55,12.602 -49.066,14.143 l -7.48,0.766 -7.249,-2.381 c -4.613,-1.533 -10.096,-4.229 -15.056,-7.064 l -74.277,35.637 V 520.873 H 627.5 Z" fill="#b7d5e2" />
    </g>
  </g>
  <g id="layer19" style="display:inline">
    <g style="display:inline" id="picto_posture" transform="translate(1.283)">
      <g id="g145">
        <g id="g99">
          <g id="g97">
            <g id="g95">
              <path id="path93" d="m 461.605,60.111 c 0,0 0,2.137 -2.137,2.137 2.137,0 2.137,2.137 2.137,2.137 0,0 0,-2.137 2.137,-2.137 -2.137,0 -2.137,-2.137 -2.137,-2.137 z" fill="#473467" />
            </g>
          </g>
        </g>
        <g id="g143">
          <g id="g141">
            <path id="path101" d="m 437.765,17.193 3.143,4.404 c 0.354,0.494 0.343,1.113 -0.023,1.375 l -2.101,1.432 c -0.367,0.262 -0.956,0.07 -1.31,-0.426 l -3.143,-4.402 c -0.354,-0.496 -0.343,-1.115 0.024,-1.377 l 2.101,-1.43 c 0.366,-0.262 0.955,-0.07 1.309,0.424 z" stroke-miterlimit="10" stroke-width="2" stroke="#473467" fill="none" clip-rule="evenodd" fill-rule="evenodd" />
            <path id="path103" d="m 415.303,19.089 c -1.612,-3.48 8.644,-11.283 11.874,-8.617 7.24,5.969 13.196,14.518 17.659,24.326 1.47,3.23 -8.716,11.254 -11.874,8.619 -7.771,-6.482 -13.369,-15.068 -17.659,-24.328 z" fill="currentColor" clip-rule="evenodd" fill-rule="evenodd" />
            <path id="path105" d="m 412.522,46.8 c 0,0 2.664,1.488 4.157,4.105 1.492,2.615 1.526,4.762 -0.794,8.426 -2.32,3.662 -7.266,5.859 -8.67,4.578 -1.404,-1.281 -2.563,-3.969 0.916,-7.021 3.481,-3.053 4.603,-3.846 3.156,-6.227 -1.447,-2.381 -1.897,-1.344 -4.664,-8.609 0,0 -2.15,-3.346 -4.658,-4.09 -2.509,-0.744 -3.603,0.121 -4.03,0.916 -0.427,0.793 -1.037,2.615 -2.075,2.621 -1.038,0.004 -3.175,0.004 -4.152,0.98 -0.977,0.977 -1.386,2.139 -1.281,3.357 0.104,1.221 -1.466,2.199 -2.563,2.504 -1.1,0.305 -3.054,1.232 -3.298,2.967 -0.243,1.734 0.55,3.383 -0.61,4.115 -1.16,0.732 -2.748,2.076 -1.893,3.785 0.854,1.709 2.625,3.979 4.396,5.256 1.771,1.277 5.46,4.443 7.51,3.902 2.05,-0.541 2.86,-2.564 2.86,-2.564 0,0 1.991,1.434 3.978,0.434 1.986,-0.998 2.442,-3.547 2.442,-3.547 0,0 -3.969,-2.992 -6.105,-6.41" stroke-miterlimit="10" stroke-width="2" stroke="#473467" fill="none" clip-rule="evenodd" fill-rule="evenodd" />
            <path id="path107" d="m 393.24,61.162 c 0,0 2.922,2.824 3.656,5.074" stroke-miterlimit="10" stroke-width="2" stroke="#473467" fill="none" clip-rule="evenodd" fill-rule="evenodd" />
            <path id="path109" d="m 401.478,50.41 c 0,0 2.991,4.646 6.654,6.479" stroke-miterlimit="10" stroke-width="2" stroke="#473467" fill="none" clip-rule="evenodd" fill-rule="evenodd" />
            <path id="path111" d="m 403.248,62.689 c 0,0 0.247,0.764 3.023,0" stroke-miterlimit="10" stroke-width="2" stroke="#473467" fill="none" clip-rule="evenodd" fill-rule="evenodd" />
            <path id="path113" d="m 467.486,81.619 c -2.614,3.068 -6.978,5.447 -6.978,5.447 0,0 0.077,2.588 1.897,3.867 1.817,1.279 3.996,0.152 3.996,0.152 0,0 0.507,2.121 2.455,2.955 1.949,0.836 6.062,-1.756 8,-2.76 1.938,-1.006 4.022,-2.99 5.118,-4.557 1.097,-1.566 -0.278,-3.127 -1.318,-4.021 -1.041,-0.895 -0.014,-2.408 -0.001,-4.16 0.012,-1.752 -1.786,-2.955 -2.828,-3.418 -1.042,-0.463 -2.453,-1.66 -2.17,-2.852 0.282,-1.191 0.046,-2.4 -0.777,-3.51 -0.823,-1.11 -2.938,-1.422 -3.963,-1.578 -1.026,-0.156 -1.363,-2.049 -1.67,-2.896 -0.307,-0.847 -1.262,-1.863 -3.853,-1.494 -2.59,0.367 -5.207,3.363 -5.207,3.363 -3.8,6.783 -4.094,5.689 -5.873,7.834 -1.779,2.143 -0.784,3.094 2.21,6.621 2.996,3.529 1.456,6.018 -0.121,7.08 -1.577,1.062 -6.31,-1.768 -7.906,-5.799 -1.515,-3.822 -1.148,-7.107 2.127,-9.803 3.274,-2.695 5.9,-3.219 5.9,-3.219" stroke-miterlimit="10" stroke-width="2" stroke="#473467" fill="none" clip-rule="evenodd" fill-rule="evenodd" />
            <path id="path115" d="m 470.632,87.021 c 0,0 -3.304,2.365 -4.359,4.484" stroke-miterlimit="10" stroke-width="2" stroke="#473467" fill="none" clip-rule="evenodd" fill-rule="evenodd" />
            <path id="path117" d="m 464.057,75.179 c 0,0 -3.639,4.158 -7.531,5.434" stroke-miterlimit="10" stroke-width="2" stroke="#473467" fill="none" clip-rule="evenodd" fill-rule="evenodd" />
            <path id="path119" d="m 460.509,87.066 c 0,0 -0.356,0.719 -2.991,-0.441" stroke-miterlimit="10" stroke-width="2" stroke="#473467" fill="none" clip-rule="evenodd" fill-rule="evenodd" />
            <g id="g129">
              <defs id="defs122">
                <path d="m 406.3,41.5 c 1.173,3.438 3.038,6.25 4.835,8.438 L 391.33,67.251 c -3.164,-1.836 -6.133,-4.258 -8.672,-7.971 L 369.5,63.027 c 0,0 -1.5,20.818 0.125,20.818 1.625,0 20.75,-1.5 22,-1.5 1.25,0 37.625,-22.125 37.625,-22.125 l 13.875,-38 c 0,0 -0.625,-12.086 -1,-12.293 C 441.75,9.72 405.75,26.933 405.75,26.933 Z" id="path637" />
              </defs>
              <clipPath id="clipPath292">
                <use id="use290" overflow="visible" xlink:href="#SVGID_1_-8" x="0" y="0" width="100%" height="100%" />
              </clipPath>
              <path id="path127" d="m 373.408,77.765 c 0.236,0.318 0.881,0.373 1.188,0.113 l 57.447,-48.383 -4.095,-4.924 -57.145,48.172 c -0.432,0.363 -0.478,0.885 -0.126,1.357 z" stroke-miterlimit="10" stroke-width="2" stroke="#473467" fill="none" clip-rule="evenodd" fill-rule="evenodd" clip-path="url(#SVGID_2_-6-1)" />
            </g>
            <g id="g139">
              <defs id="defs132">
                <path d="m 455.111,72.929 c 1.949,-1.781 5.012,-5.445 6.549,-8.465 l 18.717,21.805 0.958,1.02 c -2.836,3.094 -6.362,5.285 -9.528,6.563 l 4.693,17.244 13.125,9.75 L 490,110.22 c 0,0 -5.125,-47.875 -5.375,-48.25 -0.25,-0.375 -24.334,-23.75 -24.334,-23.75 0,0 -13.166,1.125 -13.166,1.5 0,0.375 -9.506,10 -9.506,10 l 5.663,19.625 z" id="path644" />
              </defs>
              <clipPath id="clipPath300">
                <use id="use298" overflow="visible" xlink:href="#SVGID_3_-8" x="0" y="0" width="100%" height="100%" />
              </clipPath>
              <path id="path137" d="m 489.026,113.73 -7.442,-6.127 -38.29,-58.555 c -0.276,-0.424 4.488,-4.469 4.825,-3.953 l 38.755,59.201 2.619,9.141 z" fill="currentColor" clip-rule="evenodd" fill-rule="evenodd" clip-path="url(#SVGID_4_-2-1)" />
            </g>
          </g>
        </g>
      </g>
    </g>
  </g>
  <g id="layer18" style="display:inline">
    <g style="display:inline" id="filet_1_categorie" transform="translate(1.283)">
      <g id="g154">
        <g id="g152">
          <path id="path148" d="m 511.142,81.703 c 47.765,13.221 82.022,35.684 105.651,51.178 5.349,3.506 9.969,6.535 14.092,9.023 5.224,3.154 7.781,6.479 7.599,9.881 -0.28,5.229 -6.96,10.398 -7.243,10.531" stroke-miterlimit="10" stroke-width="2" stroke="#473467" fill="none" />
          <path id="path150" d="m 227.474,162.316 c -0.284,-0.133 -6.962,-5.303 -7.241,-10.529 -0.183,-3.404 2.375,-6.729 7.601,-9.883 4.112,-2.482 8.719,-5.5 14.053,-8.996 23.821,-15.611 58.435,-38.295 106.767,-51.48" stroke-miterlimit="10" stroke-width="2" stroke="#473467" fill="none" />
        </g>
      </g>
      <g id="g158">
        <path id="path156" d="m 590.287,682.177 v 42.125 l -0.888,0.102 c -0.467,0.053 -47.208,5.516 -89.857,23.836 -30.47,13.092 -59.517,35.693 -68.811,43.26 l 0.024,0.033 -0.684,0.514 -0.547,0.678 -0.149,-0.115 -0.049,0.041 -0.044,-0.041 -0.158,0.111 -0.514,-0.709 c -8.543,-7 -38.237,-30.365 -69.438,-43.771 -42.649,-18.32 -89.389,-23.783 -89.855,-23.836 l -0.888,-0.102 v -42.125" stroke-miterlimit="10" stroke-width="2" stroke="#473467" fill="none" />
      </g>
    </g>
  </g>
  <g id="layer17" style="display:inline">
    <g style="display:inline" id="filet_2_categorie" transform="translate(1.283)">
      <path id="path161" d="m 428.791,116.755 c -0.019,0 -0.051,0 -0.076,0 v 0.033 c -17.186,0.316 -36.207,7.441 -54.628,14.359 -14.804,5.561 -30.104,11.328 -41.793,12.484 l -1.201,0.123 -1.079,-0.354 c -3.614,-1.203 -10.563,-4.916 -15.482,-8.283 l -6.813,-4.654 -106.502,51.097 v 464.375 l 106.501,51.104 6.813,-4.662 c 4.919,-3.367 11.868,-7.078 15.482,-8.27 l 1.079,-0.359 1.201,0.117 c 11.689,1.166 26.989,6.922 41.793,12.477 18.421,6.922 37.442,14.047 54.628,14.367 v 0.035 c 0.025,0 0.058,0 0.076,0 0.192,0 0.375,-0.021 0.56,-0.021 0.195,0 0.384,0.021 0.563,0.021 0.032,0 0.058,0 0.083,0 v -0.035 c 17.192,-0.32 36.207,-7.445 54.622,-14.367 14.799,-5.555 30.119,-11.311 41.794,-12.477 l 1.202,-0.117 1.077,0.359 c 3.622,1.191 10.568,4.902 15.489,8.27 l 6.807,4.662 L 657.5,645.935 V 181.56 l -106.512,-51.096 -6.807,4.654 c -4.921,3.367 -11.867,7.08 -15.489,8.283 l -1.077,0.354 -1.202,-0.123 c -11.675,-1.156 -26.995,-6.924 -41.794,-12.484 -18.415,-6.918 -37.43,-14.043 -54.622,-14.359 v -0.033 c -0.025,0 -0.051,0 -0.083,0 -0.18,0 -0.368,0.012 -0.563,0.012 -0.185,-0.001 -0.368,-0.013 -0.56,-0.013 z" stroke-miterlimit="10" stroke-width="27" stroke="#009eb9" fill="none" opacity="0.2" />
    </g>
  </g>

  <g id="layer16" style="display:inline">
    <g style="display:inline" id="filet_3_posture" transform="translate(1.283)">
      <path id="path164" d="m 428.791,116.755 c -0.019,0 -0.051,0 -0.076,0 v 0.033 c -17.186,0.316 -36.207,7.441 -54.628,14.359 -14.804,5.561 -30.104,11.328 -41.793,12.484 l -1.201,0.123 -1.079,-0.354 c -3.614,-1.203 -10.563,-4.916 -15.482,-8.283 l -6.813,-4.654 -106.502,51.097 v 464.375 l 106.501,51.104 6.813,-4.662 c 4.919,-3.367 11.868,-7.078 15.482,-8.27 l 1.079,-0.359 1.201,0.117 c 11.689,1.166 26.989,6.922 41.793,12.477 18.421,6.922 37.442,14.047 54.628,14.367 v 0.035 c 0.025,0 0.058,0 0.076,0 0.192,0 0.375,-0.021 0.56,-0.021 0.195,0 0.384,0.021 0.563,0.021 0.032,0 0.058,0 0.083,0 v -0.035 c 17.192,-0.32 36.207,-7.445 54.622,-14.367 14.799,-5.555 30.119,-11.311 41.794,-12.477 l 1.202,-0.117 1.077,0.359 c 3.622,1.191 10.568,4.902 15.489,8.27 l 6.807,4.662 L 657.5,645.935 V 181.56 l -106.512,-51.096 -6.807,4.654 c -4.921,3.367 -11.867,7.08 -15.489,8.283 l -1.077,0.354 -1.202,-0.123 c -11.675,-1.156 -26.995,-6.924 -41.794,-12.484 -18.415,-6.918 -37.43,-14.043 -54.622,-14.359 v -0.033 c -0.025,0 -0.051,0 -0.083,0 -0.18,0 -0.368,0.012 -0.563,0.012 -0.185,-0.001 -0.368,-0.013 -0.56,-0.013 z" stroke-miterlimit="10" stroke-width="12" stroke="#009eb9" fill="none" />
    </g>
  </g>
  <g id="layer15" style="display:inline">
    <g style="display:inline" id="texte_titre_badge" transform="translate(1.283)">
      <g id="g202">
        <path id="path172" d="m 263.891,494.068 2.844,0.36 V 499 h -11.879 v -4.571 l 2.844,-0.36 v -14.722 h -3.636 l -0.539,3.563 h -4.607 l 0.18,-8.675 h 23.396 l 0.181,8.675 h -4.607 l -0.54,-3.563 h -3.636 v 14.721 z" fill="#009eb9" />
        <path id="path174" d="m 274.368,499 v -4.571 l 2.844,-0.36 v -14.866 l -2.844,-0.396 v -4.571 h 11.879 v 4.571 l -2.844,0.396 v 14.866 l 2.844,0.36 V 499 Z" fill="#009eb9" />
        <path id="path176" d="m 302.878,494.068 2.844,0.36 V 499 h -11.879 v -4.571 l 2.844,-0.36 v -14.722 h -3.636 l -0.539,3.563 h -4.607 l 0.18,-8.675 h 23.396 l 0.181,8.675 h -4.607 l -0.54,-3.563 h -3.636 v 14.721 z" fill="#009eb9" />
        <path id="path178" d="m 330.095,499 -4.536,-8.675 h -3.167 v 3.743 l 3.635,0.36 V 499 h -12.67 v -4.571 l 2.844,-0.36 v -14.866 l -2.844,-0.396 v -4.571 h 13.462 c 5.04,0 8.495,2.844 8.495,7.631 0,4.067 -1.691,5.688 -4.067,6.983 v 0.18 c 0,0 0.396,0.288 0.684,0.792 l 2.484,4.247 3.167,0.36 V 499 Z m -4.824,-13.498 c 2.628,0 3.78,-1.044 3.78,-3.275 0,-1.944 -1.404,-2.88 -3.78,-2.88 h -2.879 v 6.155 z" fill="#009eb9" />
        <path id="path180" d="m 339.024,499 v -4.571 l 2.808,-0.36 v -14.902 l -2.808,-0.359 v -4.571 h 20.409 l 0.145,8.675 h -4.607 l -0.54,-3.563 h -6.407 v 4.787 h 5.363 v 4.932 h -5.363 v 4.823 h 6.335 l 0.54,-3.563 h 4.607 L 359.254,499 Z" fill="#009eb9" />
        <path id="path182" d="m 369.155,499 v -4.571 l 2.844,-0.36 v -14.902 l -2.844,-0.359 v -4.571 h 12.131 c 6.119,0 12.13,3.239 12.13,12.202 0,9.827 -5.939,12.563 -11.555,12.563 h -12.706 z m 11.231,-5.111 c 4.212,0 6.768,-1.62 6.768,-7.451 0,-4.968 -2.664,-7.091 -7.235,-7.091 h -1.728 v 14.542 z" fill="#009eb9" />
        <path id="path184" d="m 412.641,479.202 -2.844,-0.396 v -4.571 h 11.519 v 4.571 l -2.843,0.396 v 10.691 c 0,6.263 -3.744,9.358 -10.367,9.358 -6.623,0 -10.511,-3.096 -10.511,-9.358 v -10.691 l -2.844,-0.396 v -4.571 h 11.879 v 4.571 l -2.844,0.396 v 10.295 c 0,1.944 0.792,4.571 4.319,4.571 2.88,0 4.535,-2.052 4.535,-4.392 v -10.474 z" fill="#009eb9" />
        <path id="path186" d="m 430.031,499 v -4.571 l 2.844,-0.36 v -14.902 l -2.844,-0.359 v -4.571 h 10.295 c 7.091,0 10.654,1.728 10.654,6.659 0,4.211 -2.664,5.003 -3.636,5.291 v 0.288 c 1.764,0.216 5.399,1.188 5.399,5.759 0,4.248 -2.483,6.768 -10.043,6.768 h -12.669 z m 12.059,-14.722 c 1.655,0 2.628,-0.973 2.628,-2.448 0,-1.764 -1.404,-2.483 -2.988,-2.483 h -2.663 v 4.932 h 3.023 z m -3.024,4.643 v 4.968 h 3.923 c 2.52,0 3.492,-0.684 3.492,-2.447 0,-1.584 -1.225,-2.521 -2.988,-2.521 z" fill="#009eb9" />
        <path id="path188" d="m 477.729,494.068 2.52,0.36 V 499 H 469.09 v -4.571 l 2.7,-0.36 -0.9,-2.375 h -8.387 l -0.899,2.375 2.699,0.36 V 499 h -10.979 v -4.571 l 2.52,-0.36 5.651,-14.902 -3.168,-0.18 v -4.751 h 11.879 z m -10.152,-11.194 c -0.252,-0.647 -0.792,-2.195 -0.792,-2.195 h -0.18 c 0,0 -0.54,1.548 -0.792,2.195 l -1.548,4.104 h 4.859 z" fill="#009eb9" />
        <path id="path190" d="m 481.583,499 v -4.571 l 2.844,-0.36 v -14.902 l -2.844,-0.359 v -4.571 h 12.131 c 6.119,0 12.13,3.239 12.13,12.202 0,9.827 -5.939,12.563 -11.555,12.563 h -12.706 z m 11.23,-5.111 c 4.212,0 6.768,-1.62 6.768,-7.451 0,-4.968 -2.664,-7.091 -7.235,-7.091 h -1.728 v 14.542 z" fill="#009eb9" />
        <path id="path192" d="m 529.424,490.325 c 0,3.707 -2.052,8.927 -10.402,8.927 -6.804,0 -11.051,-3.924 -11.051,-12.67 0,-8.676 4.283,-12.563 11.051,-12.563 8.351,0 10.402,4.355 10.402,7.486 0,1.116 -0.252,1.872 -0.252,1.872 l -5.867,0.54 c 0,0 0.144,-0.54 0.144,-1.296 0,-1.476 -0.936,-3.456 -4.104,-3.456 -2.844,0 -5.111,1.8 -5.111,7.523 0,5.651 2.484,7.379 5.327,7.379 2.736,0 3.744,-1.188 3.852,-3.203 l -3.491,-0.36 v -4.211 h 9.503 v 4.032 z" fill="#009eb9" />
        <path id="path194" d="m 531.91,499 v -4.571 l 2.808,-0.36 v -14.902 l -2.808,-0.359 v -4.571 h 20.409 l 0.145,8.675 h -4.607 l -0.54,-3.563 h -6.407 v 4.787 h 5.363 v 4.932 h -5.363 v 4.823 h 6.335 l 0.54,-3.563 h 4.607 L 552.14,499 Z" fill="#009eb9" />
        <path id="path196" d="m 562.042,499 v -4.571 l 2.844,-0.36 v -14.866 l -2.844,-0.396 v -4.571 h 11.879 v 4.571 l -2.844,0.396 v 14.866 l 2.844,0.36 V 499 Z" fill="#009eb9" />
        <path id="path198" d="m 591.523,490.253 v -0.684 l 5.976,1.224 v 0.612 c 0,3.275 -2.088,7.847 -10.583,7.847 -6.695,0 -10.87,-3.924 -10.87,-12.67 0,-8.676 4.283,-12.563 11.051,-12.563 8.351,0 10.402,4.787 10.402,8.207 0,1.115 -0.252,1.871 -0.252,1.871 l -5.867,0.72 c 0,0 0.144,-0.611 0.144,-1.476 0,-1.764 -0.936,-4.176 -4.104,-4.176 -2.844,0 -5.111,1.8 -5.111,7.523 0,5.651 2.412,7.379 5.147,7.379 3.096,10e-4 4.067,-1.438 4.067,-3.814 z" fill="#009eb9" />
        <path id="path200" d="m 599.806,499 v -4.571 l 2.844,-0.36 v -14.866 l -2.844,-0.396 v -4.571 h 11.879 v 4.571 l -2.844,0.396 v 14.866 l 2.844,0.36 V 499 Z" fill="#009eb9" />
      </g>
    </g>
  </g>
  <g id="layer14" style="display:inline">
    <g style="display:inline" id="picto_titre_badge" transform="translate(1.283)">
      <path id="path167" d="m 368.785,281.824 c 6.838,6.564 15.277,11.789 25.083,15.523 9.803,3.742 21.308,5.637 34.2,5.637 12.72,0 24.182,-1.895 34.067,-5.637 9.893,-3.734 18.375,-8.957 25.212,-15.523 6.843,-6.574 12.2,-14.363 15.921,-23.143 1.627,-3.848 2.979,-7.928 4.022,-12.148 h -50.096 c -1.319,2.271 -2.651,4.156 -4.063,5.748 -5.456,6.156 -13.89,9.281 -25.063,9.281 -13.571,0 -17.239,-0.455 -25.189,-9.275 -1.438,-1.586 -2.755,-3.426 -4.118,-5.754 h -49.922 c 1.038,4.203 2.394,8.285 4.034,12.146 3.72,8.791 9.073,16.576 15.912,23.145 z" fill="#009eb9" />
      <path id="path169" d="m 509.665,392.115 c -0.523,-9.941 -2.679,-19.449 -6.406,-28.25 -3.719,-8.766 -9.072,-16.496 -15.916,-22.977 -6.832,-6.473 -15.32,-11.699 -25.223,-15.527 -9.896,-3.824 -21.355,-5.762 -34.061,-5.762 -12.877,0 -24.383,1.938 -34.193,5.76 -9.814,3.832 -18.26,9.059 -25.096,15.529 -6.838,6.469 -12.189,14.201 -15.906,22.977 -3.729,8.789 -5.887,18.293 -6.412,28.256 -0.363,7.873 -0.523,33.044 -0.523,41.285 0,0.611 0.008,1.197 0.017,1.785 l 0.003,0.184 h 46.764 l -0.006,-0.35 c -0.011,-0.713 -0.025,-1.426 -0.025,-2.158 0,-3.904 0.047,-25.099 0.143,-29.027 0.094,-4.068 0.311,-7.518 0.658,-10.537 0.357,-4.543 1.314,-8.836 2.848,-12.723 1.537,-3.896 3.746,-7.334 6.568,-10.221 2.82,-2.893 6.361,-5.201 10.516,-6.865 4.15,-1.662 9.078,-2.506 14.646,-2.506 5.568,0 10.496,0.844 14.646,2.506 4.145,1.662 7.686,3.971 10.523,6.863 2.814,2.893 5.02,6.33 6.561,10.221 1.525,3.881 2.484,8.174 2.848,12.762 0.178,3.104 0.355,6.584 0.535,10.477 0.17,3.943 0.256,25.144 0.256,29.05 0,0.643 -0.018,1.27 -0.037,1.893 -0.006,0.207 -0.012,0.41 -0.016,0.615 h 46.805 l 0.002,-0.236 c 0.008,-0.568 0.018,-1.137 0.018,-1.732 -0.002,-8.859 -0.183,-33.587 -0.537,-41.292 z" fill="#009eb9" />
    </g>
  </g>
</svg>
