<?xml version="1.0" encoding="UTF-8" standalone="no"?>
<svg xmlns:dc="http://purl.org/dc/elements/1.1/"
  xmlns:cc="http://creativecommons.org/ns#"
  xmlns:rdf="http://www.w3.org/1999/02/22-rdf-syntax-ns#"
  xmlns:svg="http://www.w3.org/2000/svg"
  xmlns="http://www.w3.org/2000/svg"
  xmlns:xlink="http://www.w3.org/1999/xlink" version="1.1" x="0px" y="0px" width="100%" height="100%" viewBox="0 0 850.39371 850.39371" enable-background="new 0 0 850.394 841.89" xml:space="preserve" id="svg2303">
  <metadata id="metadata2309">
    <rdf:RDF>
      <cc:Work rdf:about="">
        <dc:format>image/svg+xml</dc:format>
        <dc:type rdf:resource="http://purl.org/dc/dcmitype/StillImage" />
        <dc:title></dc:title>
      </cc:Work>
    </rdf:RDF>
  </metadata>
  <defs id="defs2307">
    <linearGradient y2="116.8174" x2="420.56351" y1="116.8174" x1="257.7666" gradientUnits="userSpaceOnUse" id="SVGID_1_">
      <stop id="stop2215" style="stop-color:#FFFFFF" offset="0" />
      <stop id="stop2217" style="stop-color:#8D7D9F" offset="0.4515" />
      <stop id="stop2219" style="stop-color:#473467" offset="1" />
    </linearGradient>
    <linearGradient gradientTransform="matrix(-1,0,0,1,1066.5762,0)" y2="116.8174" x2="634.80957" y1="116.8174" x1="472.0127" gradientUnits="userSpaceOnUse" id="SVGID_2_">
      <stop id="stop2224" style="stop-color:#FFFFFF" offset="0" />
      <stop id="stop2226" style="stop-color:#8D7D9F" offset="0.4515" />
      <stop id="stop2228" style="stop-color:#473467" offset="1" />
    </linearGradient>
    <clipPath id="SVGID_2_-4">
      <use height="100%" width="100%" y="0" x="0" xlink:href="#SVGID_1_-0" overflow="visible" id="use122" />
    </clipPath>
    <clipPath id="SVGID_4_">
      <use height="100%" width="100%" y="0" x="0" xlink:href="#SVGID_3_" overflow="visible" id="use132" />
    </clipPath>
    <path id="SVGID_1_-0" d="m 404.664,50.394 c 1.172,3.438 3.039,6.252 4.836,8.439 l -19.805,17.313 c -3.164,-1.836 -6.135,-4.258 -8.674,-7.969 l -13.156,3.746 c 0,0 -1.5,20.816 0.125,20.816 1.625,0 20.75,-1.5 22,-1.5 1.25,0 37.625,-22.125 37.625,-22.125 l 13.875,-38 c 0,0 -0.625,-12.084 -1,-12.291 -0.375,-0.209 -36.375,17.006 -36.375,17.006 z" />
    <path id="SVGID_3_" d="m 453.475,81.825 c 1.949,-1.783 5.014,-5.445 6.551,-8.467 l 18.717,21.805 0.957,1.021 c -2.836,3.092 -6.361,5.285 -9.527,6.563 l 4.693,17.242 13.125,9.75 0.375,-10.625 c 0,0 -5.125,-47.875 -5.375,-48.25 -0.25,-0.375 -24.334,-23.75 -24.334,-23.75 0,0 -13.166,1.125 -13.166,1.5 0,0.375 -9.506,10 -9.506,10 l 5.662,19.625 z" />
    <clipPath id="SVGID_2_-4-8">
      <use id="use122-9" overflow="visible" xlink:href="#SVGID_1_-0" x="0" y="0" width="100%" height="100%" />
    </clipPath>
    <clipPath id="SVGID_4_-4">
      <use id="use132-1" overflow="visible" xlink:href="#SVGID_3_" x="0" y="0" width="100%" height="100%" />
    </clipPath>
    <path d="m 404.664,50.394 c 1.172,3.438 3.039,6.252 4.836,8.439 l -19.805,17.313 c -3.164,-1.836 -6.135,-4.258 -8.674,-7.969 l -13.156,3.746 c 0,0 -1.5,20.816 0.125,20.816 1.625,0 20.75,-1.5 22,-1.5 1.25,0 37.625,-22.125 37.625,-22.125 l 13.875,-38 c 0,0 -0.625,-12.084 -1,-12.291 -0.375,-0.209 -36.375,17.006 -36.375,17.006 z" id="path300" />
    <path d="m 453.475,81.825 c 1.949,-1.783 5.014,-5.445 6.551,-8.467 l 18.717,21.805 0.957,1.021 c -2.836,3.092 -6.361,5.285 -9.527,6.563 l 4.693,17.242 13.125,9.75 0.375,-10.625 c 0,0 -5.125,-47.875 -5.375,-48.25 -0.25,-0.375 -24.334,-23.75 -24.334,-23.75 0,0 -13.166,1.125 -13.166,1.5 0,0.375 -9.506,10 -9.506,10 l 5.662,19.625 z" id="path307" />
    <linearGradient y2="34.083" x2="419.22461" y1="34.083" x1="256.4277" gradientUnits="userSpaceOnUse" id="SVGID_1_-1" gradientTransform="translate(-0.52877063,-24.950401)">
      <stop id="stop95" style="stop-color:#FFFFFF" offset="0" />
      <stop id="stop97" style="stop-color:#8D7D9F" offset="0.4515" />
      <stop id="stop99" style="stop-color:#473467" offset="1" />
    </linearGradient>
    <linearGradient gradientTransform="matrix(-1,0,0,1,1066.0474,-24.950401)" y2="34.083" x2="636.14838" y1="34.083" x1="473.35159" gradientUnits="userSpaceOnUse" id="SVGID_2_-1">
      <stop id="stop104" style="stop-color:#FFFFFF" offset="0" />
      <stop id="stop106" style="stop-color:#8D7D9F" offset="0.4515" />
      <stop id="stop108" style="stop-color:#473467" offset="1" />
    </linearGradient>
    <linearGradient gradientTransform="translate(-0.52877,-24.9504)" id="SVGID_1_-1-5" gradientUnits="userSpaceOnUse" x1="256.4277" y1="34.083" x2="419.22461" y2="34.083">
      <stop offset="0" style="stop-color:#FFFFFF" id="stop95-6" />
      <stop offset="0.4515" style="stop-color:#8D7D9F" id="stop97-9" />
      <stop offset="1" style="stop-color:#473467" id="stop99-4" />
    </linearGradient>
    <linearGradient id="SVGID_2_-1-0" gradientUnits="userSpaceOnUse" x1="473.35159" y1="34.083" x2="636.14838" y2="34.083" gradientTransform="matrix(-1,0,0,1,1066.0474,-24.950401)">
      <stop offset="0" style="stop-color:#FFFFFF" id="stop104-4" />
      <stop offset="0.4515" style="stop-color:#8D7D9F" id="stop106-9" />
      <stop offset="1" style="stop-color:#473467" id="stop108-8" />
    </linearGradient>
  </defs>
  <g id="layer3">
      <path transform="translate(1.282)" id="path178-8" d="m 428.791,112.317 c -0.019,0 -0.051,0 -0.076,0 v 0.032 c -17.186,0.317 -36.207,7.441 -54.628,14.359 -14.804,5.56 -30.104,11.327 -41.793,12.484 l -1.201,0.123 -1.079,-0.354 c -3.614,-1.202 -10.563,-4.916 -15.482,-8.283 l -6.813,-4.655 -106.501,51.098 v 464.374 l 106.5,51.105 6.813,-4.662 c 4.919,-3.367 11.868,-7.077 15.482,-8.271 l 1.079,-0.358 1.201,0.117 c 11.689,1.166 26.989,6.922 41.793,12.476 18.421,6.923 37.442,14.049 54.628,14.369 v 0.034 c 0.025,0 -0.942,0 -0.924,0 0.192,0 1.375,-0.021 1.56,-0.021 0.195,0 0.384,0.021 0.563,0.021 0.032,0 -1.942,0 -1.917,0 l 10,-0.034 c 17.192,-0.32 28.207,-7.446 46.622,-14.369 14.799,-5.554 30.119,-11.31 41.794,-12.476 l 1.202,-0.117 1.077,0.358 c 3.622,1.193 10.568,4.903 15.489,8.271 L 550.987,692.6 657.5,641.496 V 177.122 l -106.512,-51.098 -6.807,4.655 c -4.921,3.367 -11.867,7.081 -15.489,8.283 l -1.077,0.354 -1.202,-0.123 c -11.675,-1.157 -26.995,-6.925 -41.794,-12.484 -18.415,-6.918 -37.43,-14.042 -54.622,-14.359 v -0.032 c -0.025,0 -0.051,0 -0.083,0 -0.18,0 -0.368,0.011 -0.563,0.011 -0.185,-10e-4 -0.368,-0.012 -0.56,-0.012 z" stroke-miterlimit="10" stroke-width="18" stroke="#009eb9" fill="none" style="fill:#ffffff;stroke:none" />
  </g>
  <g id="layer26" style="display:inline">
    <g style="display:inline" id="texte_posture" transform="translate(1.282)">
      <g id="g24">
        <path id="path2" d="m 319.6,769.677 -10.51,15.78 c -1.642,2.464 -3.636,3.907 -5.983,4.33 -2.349,0.422 -4.776,-0.202 -7.284,-1.872 -3.175,-2.114 -5.021,-5.138 -5.54,-9.073 l 5.368,-2.143 c 0.512,2.84 1.566,4.791 3.165,5.855 1.664,1.109 3.132,0.709 4.403,-1.199 l 7.229,-10.854 -7.99,-5.322 3.193,-4.793 z" fill="#473467" />
        <path id="path4" d="m 326.926,773.819 c 0.789,0.446 1.318,1.082 1.587,1.907 0.269,0.826 0.154,1.68 -0.345,2.563 -0.446,0.789 -1.135,1.41 -2.064,1.865 l -4.628,2.256 -2.855,-1.613 3.652,-2.807 c -0.465,-0.967 -0.421,-1.938 0.13,-2.913 0.485,-0.858 1.151,-1.401 1.999,-1.628 0.846,-0.224 1.688,-0.101 2.524,0.37 z" fill="#473467" />
        <path id="path6" d="m 341.999,806.644 -11.192,-4.954 -3.954,3.894 -6.693,-2.962 22.378,-20.717 6.693,2.963 -0.541,30.381 -6.949,-3.076 z m 0.283,-5.781 0.535,-11.092 -7.924,7.822 z" fill="#473467" />
        <path id="path8" d="m 361.771,819.088 -6.787,-2.152 8.464,-26.689 6.787,2.152 z" fill="#473467" />
        <path id="path10" d="m 399.511,827.004 -2.996,-8.393 -0.197,-0.028 -5.346,-0.769 -1.121,7.8 -7.048,-1.014 3.985,-27.715 12.393,1.782 c 3.669,0.527 6.386,1.773 8.151,3.738 1.765,1.965 2.425,4.491 1.981,7.579 -0.615,4.276 -2.719,7.005 -6.31,8.186 l 4.505,9.983 z m -7.742,-14.733 5.346,0.769 c 1.53,0.22 2.773,0.009 3.729,-0.636 0.954,-0.644 1.536,-1.691 1.745,-3.144 0.205,-1.425 -0.063,-2.567 -0.8,-3.429 -0.739,-0.86 -1.874,-1.4 -3.404,-1.621 l -5.345,-0.769 z" fill="#473467" />
        <path id="path12" d="m 437.823,805.898 -14.797,0.301 0.112,5.559 13.357,-0.271 0.114,5.599 -13.357,0.271 0.114,5.64 15.237,-0.311 0.114,5.6 -22.355,0.453 -0.569,-27.994 21.915,-0.445 z m -4.094,-12.48 -5.107,4.625 -5.278,0.107 4.103,-6.805 z" fill="#473467" />
        <path id="path14" d="m 465.224,819.883 -12.096,1.875 -1.225,5.412 -7.233,1.121 7.646,-29.52 7.233,-1.122 15.951,25.86 -7.51,1.165 z m -2.883,-5.018 -5.54,-9.625 -2.444,10.863 z" fill="#473467" />
        <path id="path16" d="m 487.323,813.715 11.378,-3.414 1.714,5.707 -18.198,5.463 -8.05,-26.818 6.819,-2.047 z" fill="#473467" />
        <path id="path18" d="m 513.49,810.736 -6.604,2.659 -10.458,-25.974 6.605,-2.659 z" fill="#473467" />
        <path id="path20" d="m 518.558,777.055 c 3.718,-1.925 7.464,-2.693 11.238,-2.307 l 0.177,6.17 c -1.694,-0.082 -3.413,0.02 -5.157,0.307 -1.742,0.287 -3.124,0.693 -4.142,1.221 -1.824,0.945 -2.423,2.021 -1.797,3.229 0.404,0.781 1.179,1.176 2.324,1.184 1.145,0.008 2.452,-0.15 3.92,-0.477 1.469,-0.324 2.974,-0.578 4.516,-0.762 1.542,-0.182 3.045,0.038 4.509,0.661 1.464,0.624 2.625,1.765 3.483,3.421 1.239,2.393 1.269,4.742 0.091,7.048 -1.178,2.307 -3.211,4.208 -6.1,5.704 -2.061,1.066 -4.281,1.766 -6.662,2.098 -2.381,0.332 -4.635,0.27 -6.765,-0.189 l -0.069,-6.137 c 1.819,0.44 3.763,0.568 5.829,0.383 2.066,-0.184 3.763,-0.619 5.089,-1.307 1.018,-0.526 1.717,-1.121 2.095,-1.782 0.379,-0.661 0.384,-1.348 0.016,-2.058 -0.355,-0.687 -0.979,-1.092 -1.869,-1.217 -0.89,-0.125 -1.879,-0.048 -2.966,0.229 -1.088,0.278 -2.298,0.522 -3.631,0.731 -1.333,0.21 -2.602,0.342 -3.805,0.394 -1.204,0.054 -2.386,-0.243 -3.546,-0.889 -1.16,-0.646 -2.096,-1.655 -2.808,-3.028 -1.177,-2.273 -1.212,-4.56 -0.105,-6.859 1.107,-2.299 3.151,-4.223 6.135,-5.768 z" fill="#473467" />
        <path id="path22" d="m 553.764,762.097 -12.238,8.323 3.127,4.598 11.048,-7.514 3.148,4.631 -11.047,7.513 3.172,4.664 12.602,-8.571 3.149,4.631 -18.489,12.574 -15.746,-23.152 18.125,-12.327 z m -10.239,-8.227 -1.758,6.662 -4.366,2.97 -0.273,-7.941 z" fill="#473467" />
      </g>
    </g>
  </g>
  <g id="layer25" style="display:inline">
    <g style="display:inline" id="filet_separation_theme" transform="translate(1.282)">
      <line id="line27" y2="624.67401" x2="429.18701" y1="586.89099" x1="429.18701" stroke-miterlimit="10" stroke-width="2" stroke="#000000" fill="none" />
    </g>
  </g>
  <g id="layer24" style="display:inline">
    <g style="display:inline" id="picto_theme" transform="translate(1.282)">
      <g id="g34">
        <path id="path30" d="m 485.272,588.859 c 2.644,2.538 5.906,4.559 9.697,6.002 3.789,1.446 8.237,2.179 13.221,2.179 4.916,0 9.348,-0.732 13.17,-2.179 3.824,-1.443 7.104,-3.463 9.746,-6.002 2.646,-2.541 4.717,-5.552 6.155,-8.945 0.629,-1.488 1.151,-3.065 1.555,-4.697 H 519.45 c -0.51,0.879 -1.024,1.608 -1.57,2.223 -2.11,2.38 -5.369,3.588 -9.689,3.588 -5.246,0 -6.664,-0.176 -9.737,-3.586 -0.556,-0.613 -1.065,-1.323 -1.593,-2.225 h -19.299 c 0.402,1.626 0.926,3.204 1.56,4.696 1.438,3.399 3.507,6.408 6.15,8.946 z" stroke-miterlimit="10" stroke-width="2" stroke="#000000" fill="none" />
        <path id="path32" d="m 539.737,631.496 c -0.202,-3.843 -1.036,-7.519 -2.477,-10.921 -1.438,-3.389 -3.506,-6.378 -6.152,-8.883 -2.641,-2.502 -5.922,-4.521 -9.75,-6.002 -3.826,-1.477 -8.256,-2.227 -13.168,-2.227 -4.978,0 -9.426,0.75 -13.219,2.226 -3.794,1.482 -7.059,3.502 -9.701,6.003 -2.643,2.502 -4.712,5.491 -6.149,8.883 -1.44,3.398 -2.275,7.072 -2.478,10.923 -0.141,3.044 -0.203,12.774 -0.203,15.961 0,0.237 0.002,0.462 0.006,0.69 l 0.002,0.071 h 18.077 l -0.002,-0.137 c -0.005,-0.274 -0.009,-0.55 -0.009,-0.834 0,-1.51 0.018,-9.703 0.054,-11.221 0.036,-1.573 0.12,-2.906 0.255,-4.074 0.139,-1.756 0.508,-3.416 1.1,-4.918 0.596,-1.506 1.449,-2.836 2.541,-3.951 1.09,-1.117 2.459,-2.011 4.064,-2.654 1.604,-0.642 3.51,-0.968 5.662,-0.968 2.152,0 4.058,0.326 5.662,0.968 1.603,0.643 2.972,1.536 4.068,2.653 1.088,1.119 1.94,2.447 2.535,3.951 0.59,1.501 0.961,3.16 1.102,4.935 0.068,1.199 0.138,2.545 0.207,4.049 0.066,1.524 0.099,9.72 0.099,11.23 0,0.249 -0.007,0.491 -0.015,0.733 -0.002,0.078 -0.004,0.156 -0.006,0.237 h 18.094 v -0.092 c 0.004,-0.22 0.008,-0.439 0.008,-0.67 0,-3.422 -0.07,-12.981 -0.207,-15.961 z" stroke-miterlimit="10" stroke-width="2" stroke="#000000" fill="none" />
      </g>
    </g>
  </g>
  <g id="layer23" style="display:inline">
    <g style="display:inline" id="texte_picto_theme" transform="translate(1.282)">
      <g id="g57">
        <path id="path37" d="m 455.346,550.762 h -3.799 v 10.025 h -3.203 v -10.025 h -3.763 v -2.592 h 10.765 z" />
        <path id="path39" d="m 466.577,550.707 h -6.66 v 2.502 h 6.013 v 2.521 h -6.013 v 2.538 h 6.858 v 2.52 h -10.063 v -12.6 h 9.864 v 2.519 z" />
        <path id="path41" d="m 476.152,554.199 4.519,6.588 h -3.834 l -2.718,-4.014 -2.719,4.014 h -3.726 l 4.5,-6.443 -4.212,-6.156 h 3.727 l 2.43,3.672 2.43,-3.672 h 3.762 z" />
        <path id="path43" d="m 491.688,550.762 h -3.799 v 10.025 h -3.203 v -10.025 h -3.763 v -2.592 h 10.765 z" />
        <path id="path45" d="m 502.919,550.707 h -6.66 v 2.502 h 6.013 v 2.521 h -6.013 v 2.538 h 6.858 v 2.52 h -10.063 v -12.6 h 9.864 v 2.519 z" />
        <path id="path47" d="m 518.992,550.762 h -3.798 v 10.025 h -3.204 v -10.025 h -3.762 v -2.592 h 10.764 z" />
        <path id="path49" d="m 531.988,560.787 h -3.203 v -4.896 h -5.221 v 4.896 h -3.204 v -12.6 h 3.204 v 5.184 h 5.221 v -5.184 h 3.203 z" />
        <path id="path51" d="m 544.373,550.707 h -6.66 v 2.502 h 6.012 v 2.521 h -6.012 v 2.538 h 6.857 v 2.52 h -10.063 v -12.6 h 9.865 v 2.519 z m -3.312,-3.617 h -2.376 l -2.34,-2.034 2.808,-0.99 z" />
        <path id="path53" d="m 560.482,560.787 h -2.826 l -0.018,-8.189 -3.024,6.93 h -2.088 l -3.024,-6.93 v 8.189 h -2.861 V 548.17 h 3.51 l 3.42,7.506 3.42,-7.506 h 3.492 v 12.617 z" />
        <path id="path55" d="m 572.885,550.707 h -6.66 v 2.502 h 6.012 v 2.521 h -6.012 v 2.538 h 6.857 v 2.52 H 563.02 v -12.6 h 9.865 z" />
      </g>
    </g>
  </g>
  <g id="layer22" style="display:inline">
    <g style="display:inline" id="picto_categorie" transform="translate(1.282)">
      <g id="g80">
        <polygon id="polygon60" points="360.932,639.961 332.143,643.19 304.682,640.086 304.307,581.211 332.307,583.461 360.807,581.336 388.307,581.336 388.307,639.961 " stroke-miterlimit="10" stroke-width="2" stroke="#000000" fill="none" />
        <path id="path62" d="m 332.307,583.461 c -0.125,0.25 0,59.729 0,59.729" stroke-miterlimit="10" stroke-width="2" stroke="#000000" fill="none" />
        <line id="line64" y2="639.961" x2="360.80701" y1="581.336" x1="360.80701" stroke-miterlimit="10" stroke-width="2" stroke="#000000" fill="none" />
        <line id="line66" y2="600.086" x2="383.68201" y1="591.961" x1="372.30701" stroke-miterlimit="10" stroke-linecap="round" stroke-width="2" stroke="#000000" fill="none" />
        <line id="line68" y2="591.836" x2="384.05701" y1="599.961" x1="372.30701" stroke-miterlimit="10" stroke-linecap="round" stroke-width="2" stroke="#000000" fill="none" />
        <g id="g78">
          <g id="g76">
            <path id="path70" d="m 309.932,640.711 c 0,-0.416 -0.116,-0.914 -0.097,-1.493" stroke-miterlimit="10" stroke-linecap="round" stroke-width="2" stroke="#000000" fill="none" />
            <path id="path72" d="m 311.887,635.896 c 2.993,-2.349 10.204,-5.333 27.295,-8.935 29.125,-6.138 36.234,-12.972 38.403,-22.283" stroke-dasharray="3.029, 4.0386" stroke-miterlimit="10" stroke-linecap="round" stroke-width="2" stroke="#000000" fill="none" />
            <path id="path74" d="m 377.972,602.693 c 0.079,-0.487 0.148,-0.981 0.21,-1.482" stroke-miterlimit="10" stroke-linecap="round" stroke-width="2" stroke="#000000" fill="none" />
          </g>
        </g>
      </g>
    </g>
  </g>
  <g id="layer21" style="display:inline">
    <g style="display:inline" id="texte_picto_categorie" transform="translate(1.282)">
      <g id="g99">
        <path id="path83" d="m 297.478,548.188 h 5.49 c 1.608,0 2.856,0.381 3.744,1.143 0.888,0.763 1.332,1.846 1.332,3.25 0,1.476 -0.444,2.621 -1.332,3.438 -0.888,0.816 -2.136,1.225 -3.744,1.225 h -2.286 v 3.545 h -3.204 z m 3.204,2.519 v 4.015 h 2.124 c 0.708,0 1.254,-0.174 1.638,-0.522 0.384,-0.348 0.576,-0.852 0.576,-1.512 0,-0.648 -0.192,-1.14 -0.576,-1.477 -0.384,-0.335 -0.93,-0.504 -1.638,-0.504 z" />
        <path id="path85" d="m 317.152,558.466 h -5.508 l -0.918,2.321 h -3.294 l 5.436,-12.6 h 3.294 l 5.31,12.6 h -3.42 z m -0.936,-2.431 -1.8,-4.662 -1.836,4.662 z" />
        <path id="path87" d="m 330.238,560.787 -1.872,-3.545 h -0.09 -2.43 v 3.545 h -3.204 v -12.6 h 5.634 c 1.668,0 2.958,0.381 3.87,1.143 0.912,0.763 1.368,1.846 1.368,3.25 0,1.943 -0.762,3.293 -2.286,4.049 l 2.646,4.158 z m -4.392,-6.065 h 2.43 c 0.696,0 1.236,-0.174 1.62,-0.522 0.384,-0.348 0.576,-0.852 0.576,-1.512 0,-0.648 -0.192,-1.14 -0.576,-1.477 -0.384,-0.335 -0.924,-0.504 -1.62,-0.504 h -2.43 z" />
        <path id="path89" d="m 341.579,548.08 c 0.936,0 1.857,0.191 2.763,0.576 0.906,0.383 1.677,0.899 2.313,1.547 l -1.854,2.196 c -0.408,-0.504 -0.897,-0.903 -1.467,-1.196 -0.57,-0.295 -1.137,-0.441 -1.701,-0.441 -0.996,0 -1.83,0.352 -2.502,1.053 -0.672,0.702 -1.008,1.569 -1.008,2.602 0,1.056 0.336,1.938 1.008,2.646 0.672,0.708 1.506,1.062 2.502,1.062 0.528,0 1.077,-0.131 1.647,-0.396 0.569,-0.264 1.077,-0.624 1.521,-1.08 l 1.872,1.979 c -0.684,0.697 -1.491,1.255 -2.421,1.675 -0.93,0.42 -1.857,0.63 -2.781,0.63 -1.896,0 -3.474,-0.618 -4.734,-1.854 -1.26,-1.236 -1.89,-2.778 -1.89,-4.627 0,-1.812 0.642,-3.326 1.926,-4.545 1.284,-1.218 2.886,-1.827 4.806,-1.827 z" />
        <path id="path91" d="m 353.89,548.08 c 1.956,0 3.582,0.609 4.878,1.826 1.296,1.219 1.944,2.739 1.944,4.563 0,1.836 -0.651,3.372 -1.953,4.608 -1.302,1.235 -2.925,1.854 -4.869,1.854 -1.944,0 -3.564,-0.615 -4.86,-1.846 -1.296,-1.229 -1.944,-2.768 -1.944,-4.616 0,-1.836 0.648,-3.36 1.944,-4.572 1.296,-1.212 2.916,-1.817 4.86,-1.817 z m 0.036,2.682 c -0.984,0 -1.824,0.357 -2.52,1.07 -0.696,0.715 -1.044,1.6 -1.044,2.656 0,1.055 0.351,1.946 1.053,2.672 0.702,0.727 1.539,1.09 2.511,1.09 0.972,0 1.797,-0.363 2.475,-1.09 0.678,-0.726 1.017,-1.617 1.017,-2.672 0,-1.057 -0.339,-1.941 -1.017,-2.656 -0.678,-0.713 -1.503,-1.07 -2.475,-1.07 z" />
        <path id="path93" d="m 373.744,548.188 v 7.309 c 0,1.668 -0.516,2.99 -1.548,3.969 -1.032,0.979 -2.43,1.467 -4.194,1.467 -1.776,0 -3.189,-0.488 -4.239,-1.467 -1.05,-0.979 -1.575,-2.301 -1.575,-3.969 v -7.309 h 3.204 v 7.309 c 0,0.84 0.243,1.509 0.729,2.006 0.486,0.498 1.119,0.748 1.899,0.748 0.768,0 1.383,-0.246 1.845,-0.738 0.461,-0.492 0.693,-1.164 0.693,-2.016 v -7.309 z" />
        <path id="path95" d="m 383.644,560.787 -1.872,-3.545 h -0.09 -2.43 v 3.545 h -3.204 v -12.6 h 5.634 c 1.668,0 2.958,0.381 3.87,1.143 0.912,0.763 1.368,1.846 1.368,3.25 0,1.943 -0.762,3.293 -2.286,4.049 l 2.646,4.158 z m -4.393,-6.065 h 2.43 c 0.696,0 1.236,-0.174 1.62,-0.522 0.384,-0.348 0.576,-0.852 0.576,-1.512 0,-0.648 -0.192,-1.14 -0.576,-1.477 -0.384,-0.335 -0.924,-0.504 -1.62,-0.504 h -2.43 z" />
        <path id="path97" d="m 393.921,548.043 c 1.884,0 3.54,0.469 4.968,1.404 l -1.206,2.502 c -0.66,-0.383 -1.368,-0.699 -2.124,-0.945 -0.756,-0.245 -1.393,-0.368 -1.908,-0.368 -0.924,0 -1.386,0.306 -1.386,0.918 0,0.396 0.228,0.714 0.684,0.954 0.456,0.24 1.011,0.447 1.665,0.621 0.654,0.174 1.308,0.384 1.962,0.63 0.654,0.246 1.209,0.646 1.665,1.196 0.456,0.553 0.684,1.248 0.684,2.088 0,1.213 -0.474,2.158 -1.422,2.836 -0.948,0.678 -2.154,1.017 -3.618,1.017 -1.044,0 -2.076,-0.18 -3.096,-0.54 -1.021,-0.359 -1.908,-0.852 -2.664,-1.477 l 1.242,-2.465 c 0.636,0.552 1.386,1.005 2.25,1.358 0.864,0.354 1.632,0.531 2.304,0.531 0.516,0 0.918,-0.093 1.206,-0.279 0.288,-0.186 0.432,-0.459 0.432,-0.819 0,-0.348 -0.166,-0.639 -0.495,-0.873 -0.33,-0.233 -0.741,-0.407 -1.233,-0.521 -0.492,-0.113 -1.026,-0.268 -1.602,-0.459 -0.576,-0.191 -1.11,-0.402 -1.602,-0.63 -0.492,-0.228 -0.903,-0.591 -1.233,-1.089 -0.331,-0.498 -0.495,-1.096 -0.495,-1.791 0,-1.152 0.459,-2.073 1.377,-2.764 0.918,-0.689 2.133,-1.035 3.645,-1.035 z" />
      </g>
    </g>
  </g>
  <g id="layer20" style="display:inline">
    <g style="display:inline" id="fond_categorie" transform="translate(1.282)">
      <path id="path102" d="M 627.5,516.434 V 196.11 l -74.286,-35.638 c -4.98,2.846 -10.489,5.549 -15.154,7.098 l -7.147,2.349 -7.457,-0.765 c -15.543,-1.54 -32.663,-7.973 -49.22,-14.192 L 474.07,154.9 c -15.997,-6.011 -32.54,-12.226 -44.627,-12.449 h -0.171 c -12.081,0.224 -28.632,6.439 -44.637,12.449 l -0.289,0.109 c -16.494,6.195 -33.55,12.601 -49.066,14.143 l -7.48,0.766 -7.249,-2.381 c -4.613,-1.533 -10.096,-4.229 -15.056,-7.064 l -74.277,35.637 v 320.324 z" fill="#b7d5e2" />
    </g>
  </g>
  <g id="layer19" style="display:inline">
    <g style="display:inline" id="picto_posture" transform="translate(1.282)">
      <g id="g159">
        <g id="g111">
          <g id="g109">
            <g id="g107">
              <path id="path105" d="m 453.474,58.217 c 0,0 0,2.137 -2.137,2.137 2.137,0 2.137,2.137 2.137,2.137 0,0 0,-2.137 2.137,-2.137 -2.137,0 -2.137,-2.137 -2.137,-2.137 z" fill="#473467" />
            </g>
          </g>
        </g>
        <g id="g157">
          <g id="g115">
            <path id="path113" d="M 420.669,93.275 420.156,92.4 c -0.007,0 -0.011,0 -0.016,-0.002 l -0.728,0.705 -1.834,-1.068 0.256,-0.982 c -0.004,-0.004 -0.006,-0.008 -0.008,-0.012 l -1.014,-0.016 -0.539,-2.053 0.875,-0.514 v -0.006 l -0.705,-0.73 1.067,-1.832 0.983,0.254 c 0.002,-0.002 0.006,-0.004 0.008,-0.006 l 0.017,-1.018 2.053,-0.539 0.517,0.875 0.01,0.002 0.732,-0.707 1.832,1.068 -0.256,0.986 0.002,0.004 1.02,0.018 0.543,2.051 -0.879,0.518 -0.002,0.008 0.707,0.732 -1.068,1.832 -0.985,-0.256 -0.006,0.006 -0.017,1.018 z m -0.826,-3.023 0.309,0.104 c 0.176,0.061 0.359,0.088 0.543,0.074 l 0.314,-0.016 0.289,-0.145 c 0.166,-0.084 0.313,-0.195 0.438,-0.332 l 0.211,-0.234 0.102,-0.305 c 0.059,-0.176 0.082,-0.359 0.074,-0.541 l -0.016,-0.318 -0.146,-0.287 c -0.083,-0.164 -0.194,-0.311 -0.329,-0.436 l -0.234,-0.211 -0.309,-0.104 c -0.176,-0.058 -0.351,-0.078 -0.541,-0.074 l -0.318,0.017 -0.285,0.144 c -0.167,0.084 -0.314,0.195 -0.439,0.332 l -0.211,0.233 -0.101,0.306 c -0.058,0.176 -0.082,0.357 -0.074,0.539 l 0.017,0.318 0.144,0.287 c 0.082,0.166 0.194,0.313 0.332,0.439 z" fill="#473467" />
          </g>
          <g id="g119">
            <path id="path117" d="m 435.001,39.022 0.145,1.663 0.909,-0.002 0.128,-1.653 c 0.207,-0.009 0.413,-0.022 0.618,-0.042 l 0.388,1.609 0.899,-0.137 -0.119,-1.638 c 0.313,-0.06 0.622,-0.132 0.93,-0.216 l 0.656,1.495 0.861,-0.294 -0.4,-1.564 c 0.207,-0.078 0.411,-0.162 0.614,-0.252 l 0.861,1.357 0.808,-0.42 -0.622,-1.462 c 0.229,-0.13 0.455,-0.267 0.677,-0.41 l 1.049,1.177 0.728,-0.545 -0.831,-1.314 c 0.2,-0.159 0.395,-0.325 0.585,-0.498 l 1.196,0.976 0.633,-0.653 -1.007,-1.142 c 0.148,-0.163 0.292,-0.33 0.433,-0.503 l 1.302,0.771 0.528,-0.74 -1.144,-0.959 c 0.114,-0.171 0.225,-0.345 0.331,-0.522 l 1.4,0.5 0.395,-0.773 -1.231,-0.782 c 0.096,-0.201 0.187,-0.404 0.269,-0.608 l 1.431,0.277 0.273,-0.824 -1.308,-0.575 c 0.077,-0.258 0.145,-0.517 0.204,-0.776 l 1.418,0.042 0.137,-0.857 -1.349,-0.348 c 0.033,-0.259 0.058,-0.518 0.074,-0.776 l 1.374,-0.18 -0.001,-0.868 -1.356,-0.126 c -0.008,-0.226 -0.021,-0.449 -0.042,-0.674 l 1.306,-0.374 -0.131,-0.859 -1.334,0.076 c -0.063,-0.338 -0.14,-0.673 -0.231,-1.004 l 1.186,-0.582 -0.28,-0.822 -1.266,0.302 c -0.085,-0.224 -0.177,-0.444 -0.274,-0.663 l 1.07,-0.746 -0.4,-0.771 -1.192,0.484 c -0.14,-0.247 -0.29,-0.49 -0.448,-0.729 l 0.92,-0.894 -0.521,-0.695 -1.081,0.66 c -0.173,-0.214 -0.354,-0.421 -0.542,-0.624 l 0.757,-1.015 -0.624,-0.604 -0.955,0.816 c -0.177,-0.157 -0.358,-0.311 -0.545,-0.458 l 0.594,-1.109 -0.708,-0.505 -0.82,0.947 c -0.192,-0.124 -0.389,-0.244 -0.591,-0.359 l 0.423,-1.178 -0.775,-0.395 -0.669,1.052 c -0.224,-0.101 -0.448,-0.196 -0.676,-0.283 l 0.24,-1.231 -0.825,-0.273 -0.504,1.146 c -0.279,-0.078 -0.561,-0.145 -0.842,-0.202 l 0.038,-1.261 -0.858,-0.137 -0.315,1.223 c -0.274,-0.028 -0.549,-0.049 -0.823,-0.059 l -0.164,-1.264 -0.869,0.001 -0.118,1.274 c -0.234,0.014 -0.467,0.034 -0.699,0.061 l -0.356,-1.242 -0.858,0.131 0.073,1.298 c -0.341,0.072 -0.679,0.159 -1.012,0.26 l -0.581,-1.183 -0.821,0.281 0.308,1.291 c -0.216,0.088 -0.43,0.184 -0.64,0.284 l -0.768,-1.101 -0.771,0.401 0.51,1.253 c -0.235,0.142 -0.467,0.291 -0.692,0.448 l -0.954,-0.983 -0.696,0.521 0.722,1.181 c -0.197,0.168 -0.389,0.343 -0.576,0.524 l -1.124,-0.839 -0.604,0.625 0.922,1.077 c -0.139,0.164 -0.274,0.333 -0.406,0.506 l -1.267,-0.677 -0.504,0.707 1.099,0.951 c -0.111,0.181 -0.219,0.364 -0.321,0.553 l -1.358,-0.553 -0.414,0.811 1.268,0.776 c -0.092,0.213 -0.178,0.427 -0.256,0.642 l -1.453,-0.347 -0.286,0.863 1.394,0.586 c -0.069,0.263 -0.13,0.526 -0.18,0.791 l -1.523,-0.111 -0.143,0.898 1.502,0.362 c -0.023,0.255 -0.039,0.51 -0.047,0.765 l -1.555,0.136 0.002,0.909 1.574,0.122 c 0.014,0.213 0.033,0.427 0.059,0.639 l -1.547,0.373 0.137,0.899 1.604,-0.117 c 0.068,0.315 0.148,0.628 0.241,0.938 l -1.491,0.655 0.294,0.861 1.591,-0.407 c 0.081,0.2 0.169,0.397 0.262,0.593 l -1.388,0.881 0.42,0.808 1.521,-0.647 c 0.131,0.219 0.269,0.435 0.414,0.646 l -1.242,1.104 0.545,0.729 1.41,-0.893 c 0.156,0.187 0.317,0.367 0.485,0.545 l -1.059,1.298 0.654,0.633 1.259,-1.112 c 0.154,0.134 0.311,0.264 0.472,0.39 l -0.857,1.45 0.74,0.527 1.084,-1.292 c 0.163,0.103 0.328,0.203 0.497,0.3 l -0.639,1.571 0.81,0.413 0.886,-1.444 c 0.194,0.088 0.391,0.171 0.588,0.248 l -0.394,1.644 0.863,0.286 0.653,-1.552 c 0.244,0.068 0.489,0.13 0.735,0.184 l -0.122,1.676 0.898,0.143 0.392,-1.625 c 0.235,0.025 0.477,0.045 0.719,0.058 z m -0.438,-2.607 1.091,-6.288 c 1.077,-0.028 2.109,-0.617 2.654,-1.636 l -0.281,0.526 5.571,2.984 c -1.951,3.156 -5.511,4.793 -9.035,4.414 z m 9.563,-5.386 -5.577,-2.986 -0.24,0.448 c 0.543,-1.014 0.464,-2.193 -0.104,-3.104 l 4.67,-4.348 c 2.247,2.74 2.831,6.621 1.251,9.99 z m -9.664,-4.597 c 0.329,-0.615 1.096,-0.848 1.711,-0.518 0.616,0.329 0.848,1.096 0.518,1.711 -0.329,0.615 -1.096,0.848 -1.711,0.518 -0.615,-0.33 -0.848,-1.096 -0.518,-1.711 z m 5.57,-7.726 c 0.782,0.419 1.482,0.934 2.092,1.521 l -4.662,4.342 c -0.132,-0.101 -0.272,-0.192 -0.423,-0.272 -0.685,-0.367 -1.446,-0.449 -2.148,-0.29 l -2.613,-5.822 c 2.451,-0.914 5.267,-0.81 7.754,0.521 z m -12.777,3.866 c 0.941,-1.758 2.36,-3.097 4.011,-3.942 l 2.606,5.809 c -0.418,0.274 -0.775,0.654 -1.028,1.127 -0.22,0.41 -0.337,0.849 -0.362,1.284 l -6.311,0.99 c -0.154,-1.764 0.185,-3.59 1.084,-5.268 z m 3.865,12.778 c -2.568,-1.375 -4.241,-3.769 -4.789,-6.415 l 6.285,-0.986 c 0.233,0.75 0.75,1.413 1.497,1.813 0.146,0.078 0.296,0.144 0.448,0.196 l -1.089,6.275 c -0.801,-0.184 -1.592,-0.476 -2.352,-0.883 z" fill="#473467" />
          </g>
          <g id="g123">
            <path id="path121" d="m 424.229,48.282 c 0.467,0.081 0.946,0.093 1.432,0.027 l 0.826,0.956 c 0.233,-0.06 0.456,-0.132 0.684,-0.218 0.224,-0.089 0.443,-0.192 0.648,-0.304 l -0.037,-1.264 c 0.397,-0.283 0.743,-0.621 1.029,-0.991 l 1.264,0.085 c 0.243,-0.41 0.433,-0.848 0.573,-1.309 l -0.925,-0.866 c 0.075,-0.466 0.091,-0.948 0.028,-1.427 l 0.954,-0.83 c -0.061,-0.228 -0.131,-0.456 -0.217,-0.68 -0.09,-0.226 -0.192,-0.44 -0.304,-0.648 l -1.264,0.041 c -0.281,-0.398 -0.618,-0.742 -0.988,-1.03 l 0.087,-1.265 c -0.412,-0.239 -0.851,-0.433 -1.307,-0.57 l -0.872,0.922 c -0.463,-0.08 -0.943,-0.093 -1.429,-0.028 l -0.832,-0.953 c -0.224,0.058 -0.456,0.13 -0.68,0.216 -0.226,0.089 -0.44,0.192 -0.65,0.304 l 0.046,1.264 c -0.404,0.284 -0.746,0.617 -1.034,0.994 L 420,40.621 c -0.244,0.409 -0.435,0.851 -0.575,1.305 l 0.924,0.869 c -0.079,0.467 -0.089,0.944 -0.024,1.429 l -0.957,0.828 c 0.06,0.229 0.131,0.456 0.22,0.681 0.088,0.226 0.192,0.441 0.302,0.646 l 1.264,-0.039 c 0.279,0.396 0.614,0.741 0.99,1.03 l -0.089,1.262 c 0.411,0.245 0.853,0.435 1.31,0.572 z m -2.841,-4.84 c 0.086,-2.015 1.788,-3.579 3.803,-3.493 2.016,0.085 3.579,1.788 3.494,3.803 -0.086,2.015 -1.788,3.579 -3.803,3.493 -2.016,-0.085 -3.579,-1.788 -3.494,-3.803 z" fill="#473467" />
          </g>
          <g id="g127">
            <path id="path125" d="m 418.105,98.749 1.256,0.229 0.74,-1.593 c 0.394,0.02 0.788,0.012 1.18,-0.024 l 0.801,1.564 1.246,-0.277 0.063,-1.756 c 0.335,-0.121 0.663,-0.265 0.981,-0.428 l 1.331,1.146 1.05,-0.726 -0.603,-1.649 c 0.289,-0.261 0.563,-0.545 0.818,-0.852 l 1.688,0.55 0.686,-1.076 -1.214,-1.297 c 0.153,-0.327 0.283,-0.66 0.392,-0.998 l 1.75,-0.131 0.229,-1.255 -1.593,-0.74 c 0.021,-0.395 0.012,-0.789 -0.023,-1.18 l 1.564,-0.802 -0.278,-1.246 -1.756,-0.063 c -0.121,-0.336 -0.264,-0.664 -0.427,-0.982 l 1.145,-1.331 -0.726,-1.049 -1.648,0.602 c -0.262,-0.289 -0.546,-0.563 -0.852,-0.818 l 0.55,-1.688 -1.077,-0.685 -1.296,1.214 c -0.327,-0.154 -0.661,-0.284 -0.999,-0.393 l -0.131,-1.75 -1.255,-0.229 -0.74,1.592 c -0.395,-0.02 -0.788,-0.012 -1.18,0.023 l -0.802,-1.563 -1.245,0.277 -0.063,1.756 c -0.335,0.121 -0.663,0.265 -0.982,0.429 l -1.33,-1.146 -1.05,0.727 0.603,1.648 c -0.29,0.262 -0.563,0.545 -0.818,0.852 l -1.688,-0.551 -0.686,1.077 1.214,1.296 c -0.153,0.328 -0.283,0.661 -0.392,0.999 l -1.751,0.131 -0.229,1.255 1.592,0.74 c -0.02,0.395 -0.012,0.789 0.024,1.18 l -1.563,0.802 0.275,1.245 1.756,0.063 c 0.122,0.336 0.265,0.664 0.43,0.982 l -1.146,1.331 0.727,1.049 1.647,-0.602 c 0.262,0.289 0.546,0.563 0.853,0.818 l -0.551,1.688 1.077,0.685 1.296,-1.214 c 0.327,0.153 0.661,0.284 0.998,0.393 z M 413.31,88.701 c 0.169,-3.988 3.539,-7.084 7.526,-6.915 3.988,0.169 7.084,3.539 6.915,7.527 -0.169,3.988 -3.539,7.084 -7.527,6.915 -3.988,-0.169 -7.084,-3.539 -6.914,-7.527 z" fill="#473467" />
          </g>
          <g id="g131">
            <path id="path129" d="m 428.509,81.641 1.946,0.678 1.577,-2.355 c 0.625,0.129 1.256,0.214 1.889,0.255 l 0.89,2.694 2.057,-0.132 0.539,-2.786 c 0.564,-0.11 1.123,-0.256 1.673,-0.438 l 1.838,2.159 1.855,-0.896 -0.551,-2.781 c 0.527,-0.345 1.035,-0.729 1.519,-1.155 l 2.557,1.298 1.361,-1.547 -1.614,-2.371 c 0.326,-0.483 0.617,-0.983 0.874,-1.496 l 2.825,0.228 0.678,-1.946 -2.356,-1.577 c 0.13,-0.624 0.215,-1.256 0.256,-1.889 l 2.694,-0.89 -0.132,-2.057 -2.786,-0.538 c -0.11,-0.565 -0.257,-1.124 -0.438,-1.674 l 2.159,-1.838 -0.897,-1.855 -2.78,0.551 c -0.346,-0.527 -0.73,-1.035 -1.155,-1.519 l 1.298,-2.557 -1.547,-1.361 -2.37,1.614 c -0.485,-0.326 -0.984,-0.617 -1.497,-0.874 l 0.228,-2.825 -1.946,-0.678 -1.577,2.356 c -0.625,-0.13 -1.256,-0.215 -1.889,-0.256 l -0.89,-2.694 -2.056,0.132 -0.539,2.786 c -0.565,0.11 -1.124,0.257 -1.674,0.438 l -1.838,-2.159 -1.855,0.897 0.551,2.78 c -0.527,0.345 -1.035,0.729 -1.518,1.155 l -2.558,-1.298 -1.361,1.548 1.614,2.37 c -0.326,0.484 -0.617,0.983 -0.874,1.495 l -2.825,-0.227 -0.678,1.946 2.356,1.577 c -0.13,0.625 -0.215,1.256 -0.256,1.889 l -2.694,0.89 0.132,2.057 2.786,0.538 c 0.11,0.565 0.257,1.125 0.438,1.674 l -2.159,1.838 0.897,1.855 2.78,-0.551 c 0.345,0.527 0.729,1.035 1.155,1.518 l -1.298,2.559 1.547,1.36 2.371,-1.614 c 0.484,0.326 0.983,0.617 1.496,0.874 z m -3.197,-16.836 c 1.047,-5.242 6.145,-8.643 11.386,-7.596 5.242,1.047 8.643,6.145 7.596,11.387 -1.046,5.241 -6.145,8.642 -11.386,7.596 -5.243,-1.047 -8.643,-6.145 -7.596,-11.387 z" fill="#473467" />
          </g>
          <g id="g135">
            <path id="path133" d="m 413.753,79.155 0.854,1.345 1.161,-0.348 -0.027,-1.596 c 0.533,-0.292 1.015,-0.682 1.415,-1.152 l 1.558,0.348 0.575,-1.066 -1.15,-1.112 c 0.177,-0.604 0.234,-1.218 0.186,-1.812 l 1.351,-0.858 -0.348,-1.161 -1.603,0.027 c -0.291,-0.532 -0.679,-1.012 -1.147,-1.41 l 0.349,-1.563 -1.067,-0.574 -1.113,1.15 c -0.605,-0.178 -1.221,-0.235 -1.817,-0.186 l -0.855,-1.348 -1.161,0.348 0.026,1.599 c -0.533,0.292 -1.015,0.682 -1.414,1.153 l -1.554,-0.348 -0.575,1.068 1.146,1.108 c -0.176,0.603 -0.234,1.214 -0.186,1.808 l -1.344,0.854 0.348,1.161 1.591,-0.026 c 0.291,0.535 0.682,1.019 1.154,1.42 l -0.347,1.554 1.067,0.575 1.106,-1.145 c 0.607,0.179 1.224,0.237 1.821,0.187 z m -1.87,-5.047 c 0.034,-0.807 0.716,-1.433 1.523,-1.398 0.805,0.034 1.431,0.716 1.396,1.522 -0.034,0.806 -0.716,1.432 -1.521,1.397 -0.806,-0.033 -1.432,-0.715 -1.398,-1.521 z" fill="#473467" />
          </g>
          <g id="g139">
            <path id="path137" d="m 405.708,66.654 0.107,1.709 0.919,0.021 0.172,-1.702 c 0.216,-0.005 0.43,-0.016 0.643,-0.032 l 0.363,1.667 0.912,-0.118 -0.088,-1.698 c 0.254,-0.044 0.504,-0.096 0.75,-0.154 l 0.623,1.577 0.881,-0.264 -0.357,-1.649 c 0.232,-0.081 0.462,-0.17 0.688,-0.264 l 0.86,1.449 0.827,-0.399 -0.609,-1.561 c 0.185,-0.099 0.366,-0.201 0.544,-0.309 l 1.059,1.293 0.758,-0.519 -0.826,-1.438 c 0.258,-0.191 0.508,-0.393 0.751,-0.604 l 1.253,1.072 0.654,-0.645 -1.051,-1.248 c 0.154,-0.162 0.304,-0.328 0.448,-0.498 l 1.379,0.856 0.55,-0.736 -1.206,-1.057 c 0.152,-0.218 0.297,-0.441 0.436,-0.67 l 1.469,0.61 0.424,-0.814 -1.332,-0.831 c 0.112,-0.232 0.217,-0.469 0.313,-0.709 l 1.516,0.362 0.289,-0.872 -1.416,-0.596 c 0.063,-0.214 0.122,-0.429 0.173,-0.647 l 1.522,0.13 0.155,-0.905 -1.46,-0.371 c 0.028,-0.205 0.053,-0.412 0.071,-0.62 l 1.494,-0.158 0.019,-0.878 -1.463,-0.171 c -0.001,-0.226 -0.009,-0.449 -0.022,-0.672 l 1.424,-0.374 -0.114,-0.871 -1.441,0.051 c -0.043,-0.268 -0.095,-0.532 -0.155,-0.795 l 1.31,-0.584 -0.252,-0.84 -1.38,0.275 c -0.083,-0.25 -0.174,-0.496 -0.272,-0.738 l 1.171,-0.766 -0.382,-0.79 -1.289,0.479 c -0.105,-0.201 -0.217,-0.398 -0.333,-0.594 l 1.023,-0.912 -0.495,-0.725 -1.181,0.654 c -0.206,-0.279 -0.423,-0.551 -0.65,-0.812 l 0.822,-1.05 -0.615,-0.625 -1.019,0.83 c -0.175,-0.166 -0.355,-0.327 -0.54,-0.482 l 0.646,-1.148 -0.703,-0.524 -0.871,0.963 c -0.235,-0.163 -0.479,-0.319 -0.727,-0.466 l 0.445,-1.217 -0.779,-0.404 -0.693,1.075 c -0.251,-0.118 -0.507,-0.228 -0.767,-0.33 l 0.244,-1.255 -0.833,-0.276 -0.511,1.161 c -0.229,-0.064 -0.462,-0.125 -0.696,-0.177 l 0.053,-1.27 -0.864,-0.148 -0.331,1.221 c -0.229,-0.028 -0.461,-0.052 -0.695,-0.067 l -0.133,-1.257 -0.877,-0.02 -0.146,1.251 c -0.248,0.006 -0.495,0.018 -0.739,0.038 l -0.322,-1.226 -0.87,0.113 0.044,1.264 c -0.287,0.052 -0.572,0.114 -0.854,0.186 l -0.518,-1.164 -0.842,0.252 0.25,1.251 c -0.263,0.095 -0.521,0.196 -0.774,0.308 l -0.704,-1.077 -0.79,0.382 0.451,1.211 c -0.207,0.115 -0.409,0.235 -0.608,0.361 l -0.869,-0.974 -0.724,0.496 0.636,1.148 c -0.277,0.215 -0.547,0.441 -0.806,0.68 l -1.047,-0.82 -0.625,0.615 0.846,1.039 c -0.157,0.175 -0.31,0.355 -0.457,0.54 l -1.18,-0.665 -0.525,0.703 1.013,0.916 c -0.151,0.231 -0.296,0.469 -0.433,0.711 l -1.3,-0.476 -0.404,0.778 1.174,0.758 c -0.105,0.239 -0.203,0.481 -0.294,0.729 l -1.39,-0.27 -0.276,0.833 1.312,0.576 c -0.055,0.21 -0.104,0.423 -0.148,0.639 l -1.448,-0.062 -0.148,0.865 1.416,0.383 c -0.021,0.213 -0.039,0.428 -0.05,0.644 l -1.479,0.093 -0.021,0.919 1.493,0.15 c 0.01,0.233 0.026,0.466 0.049,0.696 l -1.474,0.321 0.118,0.91 1.524,-0.077 c 0.053,0.269 0.113,0.535 0.183,0.798 l -1.434,0.566 0.264,0.88 1.525,-0.329 c 0.091,0.242 0.188,0.48 0.293,0.716 l -1.354,0.805 0.4,0.827 1.484,-0.58 c 0.106,0.188 0.218,0.374 0.334,0.556 l -1.243,1.017 0.519,0.758 1.407,-0.809 c 0.2,0.257 0.41,0.507 0.631,0.747 l -1.069,1.249 0.645,0.654 1.269,-1.066 c 0.162,0.146 0.328,0.287 0.498,0.425 l -0.876,1.409 0.736,0.55 1.1,-1.256 c 0.215,0.142 0.435,0.277 0.658,0.405 l -0.644,1.549 0.815,0.424 0.892,-1.43 c 0.223,0.101 0.449,0.195 0.679,0.282 l -0.393,1.646 0.871,0.289 0.658,-1.564 c 0.198,0.055 0.398,0.104 0.6,0.147 l -0.144,1.694 0.905,0.156 0.418,-1.651 c 0.189,0.026 0.385,0.045 0.58,0.059 z M 396.74,54.168 c 0.229,-5.438 4.824,-9.658 10.262,-9.428 5.438,0.23 9.658,4.825 9.428,10.263 -0.23,5.437 -4.825,9.657 -10.263,9.427 -5.437,-0.231 -9.657,-4.825 -9.427,-10.262 z" fill="#473467" />
          </g>
          <g id="g143">
            <path id="path141" d="m 405.021,60.867 0.81,0.147 0.478,-1.026 c 0.254,0.013 0.508,0.008 0.761,-0.016 l 0.517,1.009 0.803,-0.179 0.041,-1.133 c 0.216,-0.078 0.428,-0.17 0.633,-0.275 l 0.858,0.738 0.677,-0.468 -0.389,-1.063 c 0.188,-0.168 0.364,-0.352 0.528,-0.549 l 1.089,0.354 0.441,-0.694 -0.782,-0.836 c 0.099,-0.211 0.183,-0.426 0.252,-0.644 l 1.129,-0.084 0.147,-0.81 -1.026,-0.478 c 0.013,-0.254 0.007,-0.509 -0.016,-0.761 l 1.009,-0.517 -0.18,-0.803 -1.132,-0.041 c -0.078,-0.216 -0.17,-0.428 -0.276,-0.634 l 0.739,-0.857 -0.468,-0.677 -1.063,0.388 c -0.169,-0.187 -0.352,-0.363 -0.549,-0.527 l 0.355,-1.089 -0.695,-0.441 -0.836,0.782 c -0.211,-0.099 -0.426,-0.183 -0.644,-0.252 l -0.084,-1.129 -0.81,-0.147 -0.478,1.026 c -0.254,-0.013 -0.509,-0.008 -0.761,0.016 l -0.517,-1.008 -0.802,0.178 -0.041,1.133 c -0.218,0.078 -0.429,0.17 -0.635,0.275 l -0.857,-0.738 -0.676,0.468 0.387,1.063 c -0.187,0.168 -0.363,0.352 -0.527,0.549 l -1.089,-0.354 -0.441,0.694 0.782,0.836 c -0.099,0.211 -0.183,0.426 -0.253,0.644 l -1.128,0.084 -0.146,0.81 1.025,0.478 c -0.013,0.254 -0.008,0.509 0.015,0.761 l -1.008,0.517 0.179,0.804 1.132,0.04 c 0.079,0.217 0.171,0.428 0.276,0.634 l -0.738,0.857 0.468,0.677 1.063,-0.388 c 0.169,0.187 0.352,0.363 0.55,0.527 l -0.354,1.089 0.693,0.441 0.836,-0.782 c 0.211,0.099 0.427,0.183 0.645,0.253 z m -2.864,-6.469 c 0.104,-2.445 2.169,-4.343 4.614,-4.239 2.445,0.104 4.344,2.169 4.239,4.614 -0.104,2.445 -2.17,4.343 -4.614,4.239 -2.445,-0.103 -4.342,-2.168 -4.239,-4.614 z" fill="#473467" />
          </g>
          <g id="g147">
            <path id="path145" d="m 455.667,60.667 0.101,1.161 0.635,-0.001 0.089,-1.154 c 0.145,-0.006 0.288,-0.016 0.432,-0.029 l 0.271,1.123 0.629,-0.096 -0.084,-1.143 c 0.218,-0.042 0.434,-0.092 0.647,-0.15 l 0.459,1.043 0.601,-0.204 -0.279,-1.092 c 0.145,-0.056 0.287,-0.114 0.429,-0.177 l 0.602,0.948 0.563,-0.294 -0.434,-1.021 c 0.16,-0.09 0.317,-0.186 0.473,-0.286 l 0.731,0.821 0.508,-0.38 -0.58,-0.917 c 0.14,-0.111 0.275,-0.227 0.408,-0.348 l 0.835,0.681 0.441,-0.456 -0.703,-0.797 c 0.104,-0.113 0.204,-0.23 0.302,-0.35 l 0.909,0.537 0.368,-0.518 -0.798,-0.668 c 0.08,-0.119 0.157,-0.241 0.23,-0.365 l 0.978,0.35 0.275,-0.54 -0.858,-0.546 c 0.066,-0.141 0.129,-0.282 0.187,-0.425 l 1,0.193 0.189,-0.575 -0.912,-0.401 c 0.055,-0.18 0.101,-0.36 0.142,-0.541 l 0.99,0.029 0.096,-0.599 -0.941,-0.243 c 0.022,-0.181 0.04,-0.36 0.051,-0.541 l 0.959,-0.125 v -0.606 l -0.947,-0.088 c -0.005,-0.157 -0.015,-0.314 -0.029,-0.47 l 0.912,-0.262 -0.091,-0.6 -0.933,0.054 c -0.043,-0.236 -0.097,-0.47 -0.16,-0.701 l 0.826,-0.406 -0.194,-0.574 -0.884,0.212 c -0.06,-0.156 -0.123,-0.311 -0.191,-0.464 l 0.746,-0.52 -0.279,-0.538 -0.832,0.338 c -0.098,-0.173 -0.202,-0.343 -0.313,-0.509 l 0.643,-0.623 -0.363,-0.485 -0.755,0.461 c -0.121,-0.149 -0.247,-0.294 -0.378,-0.436 l 0.528,-0.708 -0.436,-0.422 -0.667,0.57 c -0.123,-0.11 -0.25,-0.217 -0.38,-0.32 l 0.414,-0.774 -0.494,-0.352 -0.571,0.661 c -0.135,-0.087 -0.272,-0.171 -0.413,-0.251 l 0.294,-0.822 -0.54,-0.275 -0.467,0.734 c -0.155,-0.071 -0.313,-0.137 -0.472,-0.197 l 0.168,-0.86 -0.576,-0.19 -0.352,0.8 c -0.195,-0.054 -0.39,-0.101 -0.587,-0.141 l 0.026,-0.88 -0.6,-0.096 -0.22,0.854 c -0.191,-0.021 -0.383,-0.033 -0.574,-0.041 l -0.114,-0.882 -0.606,10e-4 -0.083,0.89 c -0.163,0.009 -0.326,0.023 -0.487,0.042 l -0.249,-0.867 -0.6,0.091 0.052,0.906 c -0.237,0.051 -0.473,0.111 -0.706,0.182 l -0.405,-0.825 -0.574,0.196 0.216,0.9 c -0.151,0.062 -0.3,0.128 -0.447,0.198 l -0.535,-0.768 -0.537,0.28 0.355,0.874 c -0.164,0.099 -0.325,0.202 -0.483,0.313 l -0.666,-0.687 -0.485,0.363 0.503,0.824 c -0.138,0.117 -0.271,0.239 -0.401,0.365 l -0.784,-0.585 -0.422,0.436 0.644,0.753 c -0.098,0.114 -0.192,0.232 -0.284,0.353 l -0.884,-0.473 -0.352,0.494 0.767,0.663 c -0.077,0.127 -0.152,0.255 -0.225,0.386 l -0.947,-0.386 -0.289,0.565 0.884,0.542 c -0.063,0.148 -0.123,0.298 -0.178,0.448 l -1.014,-0.242 -0.2,0.603 0.973,0.408 c -0.048,0.184 -0.091,0.367 -0.126,0.553 l -1.063,-0.078 -0.1,0.627 1.049,0.253 c -0.018,0.178 -0.027,0.356 -0.033,0.534 l -1.085,0.094 0.001,0.635 1.099,0.085 c 0.01,0.149 0.023,0.298 0.041,0.446 l -1.079,0.26 0.097,0.627 1.117,-0.081 c 0.049,0.22 0.104,0.438 0.169,0.654 l -1.041,0.457 0.205,0.601 1.109,-0.283 c 0.058,0.139 0.118,0.277 0.184,0.414 l -0.969,0.614 0.293,0.563 1.063,-0.452 c 0.091,0.153 0.187,0.303 0.287,0.45 l -0.865,0.771 0.38,0.508 0.984,-0.622 c 0.108,0.129 0.222,0.256 0.338,0.38 l -0.738,0.905 0.456,0.441 0.879,-0.775 c 0.107,0.093 0.217,0.184 0.329,0.271 l -0.598,1.012 0.517,0.368 0.756,-0.902 c 0.113,0.072 0.229,0.143 0.347,0.21 l -0.446,1.097 0.565,0.288 0.618,-1.008 c 0.136,0.062 0.272,0.119 0.41,0.173 l -0.274,1.146 0.603,0.2 0.456,-1.083 c 0.17,0.048 0.341,0.091 0.513,0.128 l -0.085,1.169 0.627,0.101 0.273,-1.134 c 0.162,0.023 0.331,0.036 0.5,0.045 z m -0.306,-1.819 0.762,-4.388 c 0.751,-0.02 1.472,-0.431 1.853,-1.142 l -0.196,0.368 3.888,2.082 c -1.363,2.203 -3.848,3.344 -6.307,3.08 z m 6.673,-3.758 -3.892,-2.084 -0.167,0.313 c 0.379,-0.708 0.323,-1.531 -0.073,-2.167 l 3.259,-3.034 c 1.568,1.913 1.976,4.621 0.873,6.972 z m -6.744,-3.209 c 0.23,-0.429 0.765,-0.591 1.194,-0.361 0.43,0.23 0.592,0.766 0.361,1.195 -0.229,0.429 -0.765,0.591 -1.194,0.361 -0.429,-0.23 -0.59,-0.765 -0.361,-1.195 z m 3.888,-5.39 c 0.546,0.292 1.034,0.651 1.46,1.06 l -3.254,3.03 c -0.092,-0.07 -0.189,-0.134 -0.295,-0.19 -0.478,-0.256 -1.009,-0.313 -1.499,-0.201 l -1.823,-4.063 c 1.71,-0.638 3.675,-0.565 5.411,0.364 z m -8.917,2.697 c 0.657,-1.228 1.647,-2.161 2.8,-2.751 l 1.818,4.053 c -0.292,0.191 -0.541,0.457 -0.718,0.787 -0.153,0.286 -0.235,0.592 -0.252,0.896 l -4.404,0.69 c -0.108,-1.229 0.13,-2.504 0.756,-3.675 z m 2.698,8.917 c -1.792,-0.961 -2.96,-2.631 -3.342,-4.478 l 4.386,-0.688 c 0.163,0.523 0.523,0.986 1.044,1.266 0.103,0.055 0.207,0.1 0.313,0.137 l -0.76,4.379 c -0.559,-0.129 -1.11,-0.332 -1.641,-0.616 z" fill="#473467" />
          </g>
          <g id="g151">
            <path id="path149" d="m 438.644,92.04 c 0.343,-0.241 0.65,-0.532 0.913,-0.876 l 1.113,0.082 c 0.109,-0.182 0.203,-0.367 0.292,-0.563 0.084,-0.195 0.156,-0.396 0.216,-0.594 l -0.812,-0.768 c 0.072,-0.426 0.078,-0.853 0.025,-1.264 l 0.845,-0.734 c -0.104,-0.408 -0.259,-0.801 -0.457,-1.176 l -1.12,0.034 c -0.244,-0.339 -0.535,-0.649 -0.872,-0.91 l 0.079,-1.114 c -0.18,-0.104 -0.366,-0.204 -0.56,-0.29 -0.197,-0.085 -0.396,-0.156 -0.595,-0.216 l -0.766,0.813 c -0.424,-0.073 -0.85,-0.079 -1.261,-0.028 L 434.95,83.59 c -0.407,0.107 -0.802,0.26 -1.172,0.459 l 0.027,1.12 c -0.339,0.239 -0.647,0.531 -0.911,0.874 l -1.114,-0.078 c -0.104,0.176 -0.205,0.366 -0.291,0.56 -0.086,0.196 -0.156,0.396 -0.218,0.597 l 0.816,0.762 c -0.075,0.43 -0.081,0.852 -0.026,1.267 l -0.844,0.733 c 0.104,0.407 0.259,0.803 0.454,1.175 l 1.121,-0.033 c 0.241,0.343 0.533,0.647 0.875,0.91 l -0.082,1.114 c 0.181,0.106 0.366,0.204 0.563,0.289 0.195,0.087 0.395,0.156 0.592,0.217 l 0.767,-0.813 c 0.421,0.072 0.847,0.08 1.262,0.026 l 0.731,0.845 c 0.41,-0.104 0.804,-0.26 1.177,-0.459 z m -4.796,-1.257 c -1.204,-1.313 -1.114,-3.354 0.2,-4.558 1.313,-1.204 3.354,-1.114 4.558,0.2 1.203,1.313 1.114,3.354 -0.199,4.558 -1.315,1.205 -3.356,1.115 -4.559,-0.2 z" fill="#473467" />
          </g>
          <g id="g155">
            <path id="path153" d="m 404.576,39.713 0.505,0.093 0.298,-0.641 c 0.158,0.008 0.317,0.005 0.475,-0.01 l 0.322,0.629 0.501,-0.111 0.025,-0.706 c 0.135,-0.049 0.268,-0.106 0.396,-0.173 l 0.535,0.461 0.423,-0.292 -0.242,-0.663 c 0.116,-0.105 0.226,-0.22 0.328,-0.343 l 0.681,0.222 0.274,-0.434 -0.488,-0.521 c 0.062,-0.132 0.114,-0.266 0.158,-0.401 l 0.704,-0.053 0.092,-0.505 -0.641,-0.298 c 0.008,-0.159 0.005,-0.317 -0.01,-0.475 l 0.63,-0.322 -0.112,-0.502 -0.706,-0.025 c -0.049,-0.135 -0.106,-0.267 -0.172,-0.395 l 0.461,-0.535 -0.293,-0.423 -0.663,0.242 c -0.104,-0.116 -0.219,-0.227 -0.343,-0.329 l 0.222,-0.68 -0.433,-0.275 -0.521,0.488 c -0.132,-0.062 -0.267,-0.114 -0.402,-0.157 l -0.053,-0.704 -0.505,-0.092 -0.298,0.64 c -0.158,-0.008 -0.317,-0.005 -0.475,0.01 l -0.322,-0.629 -0.501,0.111 -0.025,0.706 c -0.136,0.049 -0.268,0.106 -0.396,0.173 l -0.535,-0.461 -0.422,0.292 0.242,0.663 c -0.117,0.105 -0.227,0.22 -0.33,0.343 l -0.679,-0.222 -0.275,0.434 0.488,0.521 c -0.063,0.132 -0.114,0.266 -0.158,0.401 l -0.704,0.053 -0.092,0.505 0.641,0.298 c -0.008,0.159 -0.005,0.317 0.01,0.475 l -0.63,0.322 0.112,0.502 0.706,0.025 c 0.049,0.135 0.106,0.267 0.172,0.395 l -0.461,0.535 0.292,0.423 0.663,-0.242 c 0.105,0.116 0.22,0.227 0.343,0.329 l -0.221,0.68 0.433,0.275 0.521,-0.488 c 0.132,0.062 0.267,0.114 0.402,0.158 z m -1.433,-4.022 c 0.057,-1.33 1.182,-2.363 2.512,-2.307 1.329,0.057 2.362,1.181 2.306,2.512 -0.056,1.33 -1.181,2.363 -2.511,2.307 -1.332,-0.057 -2.364,-1.181 -2.307,-2.512 z" fill="#473467" />
          </g>
        </g>
      </g>
    </g>
  </g>
  <g id="layer18" style="display:inline">
    <g style="display:inline" id="filet_1_categorie" transform="translate(1.282)">
      <g id="g168">
        <g id="g166">
          <path id="path162" d="m 485.186,71.328 c 61.579,11.194 103.9,38.945 131.607,57.113 4.939,3.238 9.467,6.232 14.092,9.024 5.224,3.153 7.781,6.478 7.599,9.88 -0.28,5.229 -4.96,8.398 -5.243,8.531" stroke-miterlimit="10" stroke-width="2" stroke="#473467" fill="none" />
          <path id="path164" d="m 226.474,155.877 c -0.284,-0.133 -5.962,-3.303 -6.241,-8.529 -0.183,-3.403 2.375,-6.729 7.601,-9.882 4.112,-2.482 8.719,-5.501 14.053,-8.997 27.737,-18.177 70.104,-45.942 131.726,-57.141" stroke-miterlimit="10" stroke-width="2" stroke="#473467" fill="none" />
        </g>
      </g>
      <g id="g172">
        <path id="path170" d="m 590.287,680.971 v 38.894 l -0.888,0.101 c -0.467,0.053 -47.208,5.516 -89.857,23.838 -30.47,13.09 -59.517,35.691 -68.811,43.258 l 0.024,0.033 -0.684,0.514 -0.547,0.678 -0.149,-0.115 -0.049,0.041 -0.044,-0.041 -0.158,0.112 -0.514,-0.709 c -8.543,-7 -38.237,-30.366 -69.438,-43.771 -42.649,-18.322 -89.389,-23.785 -89.855,-23.838 l -0.888,-0.101 v -38.894" stroke-miterlimit="10" stroke-width="2" stroke="#473467" fill="none" />
      </g>
    </g>
  </g>
  <g id="layer17" style="display:inline">
    <g style="display:inline" id="filet_2_categorie" transform="translate(1.282)">
      <path id="path175" d="m 428.791,112.317 c -0.019,0 -0.051,0 -0.076,0 v 0.032 c -17.186,0.317 -36.207,7.441 -54.628,14.359 -14.804,5.56 -30.104,11.327 -41.793,12.484 l -1.201,0.123 -1.079,-0.354 c -3.614,-1.202 -10.563,-4.916 -15.482,-8.283 l -6.813,-4.655 -106.501,51.098 v 464.374 l 106.5,51.105 6.813,-4.662 c 4.919,-3.367 11.868,-7.077 15.482,-8.271 l 1.079,-0.358 1.201,0.117 c 11.689,1.166 26.989,6.922 41.793,12.476 18.421,6.923 37.442,14.049 54.628,14.369 v 0.034 c 0.025,0 -0.942,0 -0.924,0 0.192,0 1.375,-0.021 1.56,-0.021 0.195,0 0.384,0.021 0.563,0.021 0.032,0 -1.942,0 -1.917,0 l 10,-0.034 c 17.192,-0.32 28.207,-7.446 46.622,-14.369 14.799,-5.554 30.119,-11.31 41.794,-12.476 l 1.202,-0.117 1.077,0.358 c 3.622,1.193 10.568,4.903 15.489,8.271 L 550.987,692.6 657.5,641.496 V 177.122 l -106.512,-51.098 -6.807,4.655 c -4.921,3.367 -11.867,7.081 -15.489,8.283 l -1.077,0.354 -1.202,-0.123 c -11.675,-1.157 -26.995,-6.925 -41.794,-12.484 -18.415,-6.918 -37.43,-14.042 -54.622,-14.359 v -0.032 c -0.025,0 -0.051,0 -0.083,0 -0.18,0 -0.368,0.011 -0.563,0.011 -0.185,-10e-4 -0.368,-0.012 -0.56,-0.012 z" stroke-miterlimit="10" stroke-width="27" stroke="#009eb9" fill="none" opacity="0.2" />
    </g>
  </g>












  <g id="layer16" style="display:inline" />
  <g id="layer15" style="display:inline">
    <g style="display:inline" id="texte_titre_badge" transform="translate(1.282)">
      <g id="g216">
        <path id="path186" d="m 263.891,494.068 2.844,0.36 V 499 h -11.879 v -4.571 l 2.844,-0.36 v -14.722 h -3.636 l -0.539,3.563 h -4.607 l 0.18,-8.675 h 23.396 l 0.181,8.675 h -4.607 l -0.54,-3.563 h -3.636 v 14.721 z" fill="#009eb9" />
        <path id="path188" d="m 274.368,499 v -4.571 l 2.844,-0.36 v -14.866 l -2.844,-0.396 v -4.571 h 11.879 v 4.571 l -2.844,0.396 v 14.866 l 2.844,0.36 V 499 Z" fill="#009eb9" />
        <path id="path190" d="m 302.878,494.068 2.844,0.36 V 499 h -11.879 v -4.571 l 2.844,-0.36 v -14.722 h -3.636 l -0.539,3.563 h -4.607 l 0.18,-8.675 h 23.396 l 0.181,8.675 h -4.607 l -0.54,-3.563 h -3.636 v 14.721 z" fill="#009eb9" />
        <path id="path192" d="m 330.094,499 -4.536,-8.675 h -3.167 v 3.743 l 3.635,0.36 V 499 h -12.67 v -4.571 l 2.844,-0.36 v -14.866 l -2.844,-0.396 v -4.571 h 13.462 c 5.04,0 8.495,2.844 8.495,7.631 0,4.067 -1.691,5.688 -4.067,6.983 v 0.18 c 0,0 0.396,0.288 0.684,0.792 l 2.484,4.247 3.167,0.36 V 499 Z m -4.824,-13.498 c 2.628,0 3.78,-1.044 3.78,-3.275 0,-1.944 -1.404,-2.88 -3.78,-2.88 h -2.879 v 6.155 z" fill="#009eb9" />
        <path id="path194" d="m 339.023,499 v -4.571 l 2.808,-0.36 v -14.902 l -2.808,-0.359 v -4.571 h 20.409 l 0.145,8.675 h -4.607 l -0.54,-3.563 h -6.407 v 4.787 h 5.363 v 4.932 h -5.363 v 4.823 h 6.335 l 0.54,-3.563 h 4.607 L 359.253,499 Z" fill="#009eb9" />
        <path id="path196" d="m 369.154,499 v -4.571 l 2.844,-0.36 v -14.902 l -2.844,-0.359 v -4.571 h 12.131 c 6.119,0 12.13,3.239 12.13,12.202 0,9.827 -5.939,12.563 -11.555,12.563 h -12.706 z m 11.231,-5.111 c 4.212,0 6.768,-1.62 6.768,-7.451 0,-4.968 -2.664,-7.091 -7.235,-7.091 h -1.728 v 14.542 z" fill="#009eb9" />
        <path id="path198" d="m 412.64,479.202 -2.844,-0.396 v -4.571 h 11.519 v 4.571 l -2.844,0.396 v 10.691 c 0,6.263 -3.743,9.358 -10.366,9.358 -6.623,0 -10.511,-3.096 -10.511,-9.358 v -10.691 l -2.844,-0.396 v -4.571 h 11.879 v 4.571 l -2.844,0.396 v 10.295 c 0,1.944 0.792,4.571 4.319,4.571 2.88,0 4.535,-2.052 4.535,-4.392 v -10.474 z" fill="#009eb9" />
        <path id="path200" d="m 430.029,499 v -4.571 l 2.844,-0.36 v -14.902 l -2.844,-0.359 v -4.571 h 10.295 c 7.091,0 10.654,1.728 10.654,6.659 0,4.211 -2.664,5.003 -3.636,5.291 v 0.288 c 1.764,0.216 5.399,1.188 5.399,5.759 0,4.248 -2.483,6.768 -10.043,6.768 h -12.669 z m 12.059,-14.722 c 1.655,0 2.628,-0.973 2.628,-2.448 0,-1.764 -1.404,-2.483 -2.988,-2.483 h -2.663 v 4.932 h 3.023 z m -3.024,4.643 v 4.968 h 3.923 c 2.52,0 3.492,-0.684 3.492,-2.447 0,-1.584 -1.225,-2.521 -2.988,-2.521 z" fill="#009eb9" />
        <path id="path202" d="m 477.727,494.068 2.52,0.36 V 499 h -11.159 v -4.571 l 2.7,-0.36 -0.9,-2.375 H 462.5 l -0.899,2.375 2.699,0.36 V 499 h -10.979 v -4.571 l 2.52,-0.36 5.651,-14.902 -3.168,-0.18 v -4.751 h 11.879 z m -10.152,-11.194 c -0.252,-0.647 -0.792,-2.195 -0.792,-2.195 h -0.18 c 0,0 -0.54,1.548 -0.792,2.195 l -1.548,4.104 h 4.859 z" fill="#009eb9" />
        <path id="path204" d="m 481.581,499 v -4.571 l 2.844,-0.36 v -14.902 l -2.844,-0.359 v -4.571 h 12.131 c 6.119,0 12.13,3.239 12.13,12.202 0,9.827 -5.939,12.563 -11.555,12.563 h -12.706 z m 11.231,-5.111 c 4.212,0 6.768,-1.62 6.768,-7.451 0,-4.968 -2.664,-7.091 -7.235,-7.091 h -1.728 v 14.542 z" fill="#009eb9" />
        <path id="path206" d="m 529.422,490.325 c 0,3.707 -2.052,8.927 -10.402,8.927 -6.804,0 -11.051,-3.924 -11.051,-12.67 0,-8.676 4.283,-12.563 11.051,-12.563 8.351,0 10.402,4.355 10.402,7.486 0,1.116 -0.252,1.872 -0.252,1.872 l -5.867,0.54 c 0,0 0.144,-0.54 0.144,-1.296 0,-1.476 -0.936,-3.456 -4.104,-3.456 -2.844,0 -5.111,1.8 -5.111,7.523 0,5.651 2.484,7.379 5.327,7.379 2.736,0 3.744,-1.188 3.852,-3.203 l -3.491,-0.36 v -4.211 h 9.503 v 4.032 z" fill="#009eb9" />
        <path id="path208" d="m 531.908,499 v -4.571 l 2.808,-0.36 v -14.902 l -2.808,-0.359 v -4.571 h 20.409 l 0.145,8.675 h -4.607 l -0.54,-3.563 h -6.407 v 4.787 h 5.363 v 4.932 h -5.363 v 4.823 h 6.335 l 0.54,-3.563 h 4.607 L 552.138,499 Z" fill="#009eb9" />
        <path id="path210" d="m 562.039,499 v -4.571 l 2.844,-0.36 v -14.866 l -2.844,-0.396 v -4.571 h 11.879 v 4.571 l -2.844,0.396 v 14.866 l 2.844,0.36 V 499 Z" fill="#009eb9" />
        <path id="path212" d="m 591.521,490.253 v -0.684 l 5.976,1.224 v 0.612 c 0,3.275 -2.088,7.847 -10.583,7.847 -6.695,0 -10.87,-3.924 -10.87,-12.67 0,-8.676 4.283,-12.563 11.051,-12.563 8.351,0 10.402,4.787 10.402,8.207 0,1.115 -0.252,1.871 -0.252,1.871 l -5.867,0.72 c 0,0 0.144,-0.611 0.144,-1.476 0,-1.764 -0.936,-4.176 -4.104,-4.176 -2.844,0 -5.111,1.8 -5.111,7.523 0,5.651 2.412,7.379 5.147,7.379 3.096,10e-4 4.067,-1.438 4.067,-3.814 z" fill="#009eb9" />
        <path id="path214" d="m 599.804,499 v -4.571 l 2.844,-0.36 v -14.866 l -2.844,-0.396 v -4.571 h 11.879 v 4.571 l -2.844,0.396 v 14.866 l 2.844,0.36 V 499 Z" fill="#009eb9" />
      </g>
    </g>
  </g>
  <g id="layer14" style="display:inline">
    <g style="display:inline" id="picto_titre_badge" transform="translate(1.282)">
      <path id="path181" d="m 369.589,276.633 c 6.838,6.564 15.278,11.789 25.084,15.523 9.802,3.741 21.308,5.637 34.2,5.637 12.718,0 24.181,-1.896 34.066,-5.637 9.894,-3.734 18.376,-8.957 25.212,-15.523 6.844,-6.575 12.201,-14.363 15.921,-23.144 1.628,-3.847 2.979,-7.928 4.022,-12.147 h -50.096 c -1.319,2.271 -2.65,4.156 -4.063,5.748 -5.457,6.156 -13.89,9.281 -25.063,9.281 -13.571,0 -17.24,-0.455 -25.189,-9.275 -1.438,-1.587 -2.755,-3.425 -4.119,-5.754 h -49.922 c 1.039,4.203 2.394,8.285 4.034,12.146 3.721,8.791 9.075,16.576 15.913,23.145 z" fill="#009eb9" />
      <path id="path183" d="m 510.47,386.924 c -0.522,-9.941 -2.679,-19.449 -6.406,-28.25 -3.718,-8.766 -9.071,-16.497 -15.915,-22.978 -6.833,-6.472 -15.321,-11.698 -25.223,-15.527 -9.897,-3.822 -21.355,-5.761 -34.062,-5.761 -12.876,0 -24.382,1.938 -34.193,5.759 -9.815,3.833 -18.259,9.06 -25.096,15.529 -6.838,6.47 -12.188,14.203 -15.906,22.978 -3.729,8.788 -5.887,18.293 -6.411,28.256 -0.363,7.873 -0.523,33.045 -0.523,41.285 0,0.611 0.006,1.197 0.016,1.785 l 0.003,0.185 h 46.763 l -0.005,-0.351 c -0.011,-0.714 -0.024,-1.426 -0.024,-2.158 0,-3.904 0.047,-25.1 0.141,-29.027 0.096,-4.069 0.312,-7.518 0.658,-10.537 0.357,-4.544 1.316,-8.836 2.848,-12.723 1.539,-3.896 3.748,-7.335 6.569,-10.221 2.821,-2.893 6.362,-5.202 10.516,-6.865 4.15,-1.662 9.077,-2.506 14.646,-2.506 5.568,0 10.497,0.844 14.647,2.506 4.145,1.661 7.686,3.971 10.522,6.863 2.814,2.893 5.02,6.329 6.561,10.221 1.526,3.881 2.484,8.174 2.848,12.761 0.178,3.104 0.355,6.585 0.536,10.478 0.17,3.943 0.256,25.145 0.256,29.051 0,0.643 -0.02,1.269 -0.037,1.894 -0.007,0.206 -0.012,0.409 -0.018,0.615 h 46.807 l 10e-4,-0.237 c 0.009,-0.568 0.017,-1.137 0.017,-1.732 -0.002,-8.86 -0.182,-33.589 -0.536,-41.293 z" fill="#009eb9" />
    </g>
  </g>
  <g style="display:inline" id="filet_3_posture" transform="translate(1.282)">
    <path id="path178" d="m 428.791,112.317 c -0.019,0 -0.051,0 -0.076,0 v 0.032 c -17.186,0.317 -36.207,7.441 -54.628,14.359 -14.804,5.56 -30.104,11.327 -41.793,12.484 l -1.201,0.123 -1.079,-0.354 c -3.614,-1.202 -10.563,-4.916 -15.482,-8.283 l -6.813,-4.655 -106.501,51.098 v 464.374 l 106.5,51.105 6.813,-4.662 c 4.919,-3.367 11.868,-7.077 15.482,-8.271 l 1.079,-0.358 1.201,0.117 c 11.689,1.166 26.989,6.922 41.793,12.476 18.421,6.923 37.442,14.049 54.628,14.369 v 0.034 c 0.025,0 -0.942,0 -0.924,0 0.192,0 1.375,-0.021 1.56,-0.021 0.195,0 0.384,0.021 0.563,0.021 0.032,0 -1.942,0 -1.917,0 l 10,-0.034 c 17.192,-0.32 28.207,-7.446 46.622,-14.369 14.799,-5.554 30.119,-11.31 41.794,-12.476 l 1.202,-0.117 1.077,0.358 c 3.622,1.193 10.568,4.903 15.489,8.271 L 550.987,692.6 657.5,641.496 V 177.122 l -106.512,-51.098 -6.807,4.655 c -4.921,3.367 -11.867,7.081 -15.489,8.283 l -1.077,0.354 -1.202,-0.123 c -11.675,-1.157 -26.995,-6.925 -41.794,-12.484 -18.415,-6.918 -37.43,-14.042 -54.622,-14.359 v -0.032 c -0.025,0 -0.051,0 -0.083,0 -0.18,0 -0.368,0.011 -0.563,0.011 -0.185,-10e-4 -0.368,-0.012 -0.56,-0.012 z" stroke-miterlimit="10" stroke-width="18" stroke="#009eb9" fill="none" />
  </g>
</svg>
