<?xml version="1.0" encoding="UTF-8" standalone="no"?>
<svg xmlns:dc="http://purl.org/dc/elements/1.1/"
  xmlns:cc="http://creativecommons.org/ns#"
  xmlns:rdf="http://www.w3.org/1999/02/22-rdf-syntax-ns#"
  xmlns:svg="http://www.w3.org/2000/svg"
  xmlns="http://www.w3.org/2000/svg"
  xmlns:xlink="http://www.w3.org/1999/xlink" version="1.1" x="0px" y="0px" width="100%" height="100%" viewBox="0 0 888.18899 888.18898" enable-background="new 0 0 850.394 841.89" xml:space="preserve" id="svg2303">
  <metadata id="metadata2309">
    <rdf:RDF>
      <cc:Work rdf:about="">
        <dc:format>image/svg+xml</dc:format>
        <dc:type rdf:resource="http://purl.org/dc/dcmitype/StillImage" />
        <dc:title></dc:title>
      </cc:Work>
    </rdf:RDF>
  </metadata>
  <defs id="defs2307">

    <clipPath id="SVGID_2_-4">
      <use height="100%" width="100%" y="0" x="0" xlink:href="#SVGID_1_-0" overflow="visible" id="use122" />
    </clipPath>
    <clipPath id="SVGID_4_">
      <use height="100%" width="100%" y="0" x="0" xlink:href="#SVGID_3_" overflow="visible" id="use132" />
    </clipPath>
    <path id="SVGID_1_-0" d="m 404.664,50.394 c 1.172,3.438 3.039,6.252 4.836,8.439 l -19.805,17.313 c -3.164,-1.836 -6.135,-4.258 -8.674,-7.969 l -13.156,3.746 c 0,0 -1.5,20.816 0.125,20.816 1.625,0 20.75,-1.5 22,-1.5 1.25,0 37.625,-22.125 37.625,-22.125 l 13.875,-38 c 0,0 -0.625,-12.084 -1,-12.291 -0.375,-0.209 -36.375,17.006 -36.375,17.006 z" />
    <path id="SVGID_3_" d="m 453.475,81.825 c 1.949,-1.783 5.014,-5.445 6.551,-8.467 l 18.717,21.805 0.957,1.021 c -2.836,3.092 -6.361,5.285 -9.527,6.563 l 4.693,17.242 13.125,9.75 0.375,-10.625 c 0,0 -5.125,-47.875 -5.375,-48.25 -0.25,-0.375 -24.334,-23.75 -24.334,-23.75 0,0 -13.166,1.125 -13.166,1.5 0,0.375 -9.506,10 -9.506,10 l 5.662,19.625 z" />
    <clipPath id="SVGID_2_-4-8">
      <use id="use122-9" overflow="visible" xlink:href="#SVGID_1_-0" x="0" y="0" width="100%" height="100%" />
    </clipPath>
    <clipPath id="SVGID_4_-4">
      <use id="use132-1" overflow="visible" xlink:href="#SVGID_3_" x="0" y="0" width="100%" height="100%" />
    </clipPath>
    <path d="m 404.664,50.394 c 1.172,3.438 3.039,6.252 4.836,8.439 l -19.805,17.313 c -3.164,-1.836 -6.135,-4.258 -8.674,-7.969 l -13.156,3.746 c 0,0 -1.5,20.816 0.125,20.816 1.625,0 20.75,-1.5 22,-1.5 1.25,0 37.625,-22.125 37.625,-22.125 l 13.875,-38 c 0,0 -0.625,-12.084 -1,-12.291 -0.375,-0.209 -36.375,17.006 -36.375,17.006 z" id="path300" />
    <path d="m 453.475,81.825 c 1.949,-1.783 5.014,-5.445 6.551,-8.467 l 18.717,21.805 0.957,1.021 c -2.836,3.092 -6.361,5.285 -9.527,6.563 l 4.693,17.242 13.125,9.75 0.375,-10.625 c 0,0 -5.125,-47.875 -5.375,-48.25 -0.25,-0.375 -24.334,-23.75 -24.334,-23.75 0,0 -13.166,1.125 -13.166,1.5 0,0.375 -9.506,10 -9.506,10 l 5.662,19.625 z" id="path307" />

  </defs>
  <g id="layer4">
      <path transform="translate(0.11,-8)" id="path148-2" d="m 442.964,137.394 c -0.019,0 -0.051,0 -0.076,0 v 0.033 c -17.186,0.316 -36.207,7.441 -54.628,14.359 -14.804,5.559 -30.104,11.326 -41.793,12.484 l -1.201,0.123 -1.079,-0.354 c -3.614,-1.203 -10.563,-4.916 -15.482,-8.283 L 321.892,151.1 215.39,202.198 v 464.374 l 106.501,51.104 6.813,-4.66 c 4.919,-3.367 11.868,-7.078 15.482,-8.271 l 1.079,-0.357 1.201,0.117 c 11.689,1.166 26.989,6.922 41.793,12.477 18.427,6.924 37.442,14.047 54.628,14.367 l 1,0.035 c 0.025,0 -0.942,0 -0.924,0 0.192,0 0.375,-0.021 0.56,-0.021 0.195,0 0.384,0.021 0.563,0.021 0.032,0 -0.942,0 -0.917,0 l 1,-0.035 c 17.192,-0.32 36.207,-7.445 54.622,-14.367 14.799,-5.555 30.119,-11.311 41.794,-12.477 l 1.202,-0.117 1.077,0.357 c 3.622,1.193 10.568,4.904 15.489,8.271 l 6.807,4.66 106.512,-51.104 V 202.198 L 565.16,151.1 l -6.807,4.656 c -4.921,3.367 -11.867,7.08 -15.489,8.283 l -1.077,0.354 -1.202,-0.123 c -11.675,-1.158 -26.995,-6.926 -41.794,-12.484 -18.415,-6.918 -37.43,-14.043 -54.622,-14.359 v -0.033 c -0.025,0 -0.051,0 -0.083,0 -0.18,0 -0.368,0.012 -0.563,0.012 -0.184,-0.001 -0.366,-0.012 -0.559,-0.012 z" stroke-miterlimit="10" stroke-width="27" stroke="#009eb9" fill="none" style="fill:#ffffff;stroke:none" />
  </g>
  <g id="layer26" style="display:inline">
    <g transform="translate(11,30)" id="texte_posture">
      <g id="g30">
        <path fill="#473467" d="m 286.824,773.482 -13.913,12.881 c -2.172,2.012 -4.448,2.947 -6.83,2.809 -2.382,-0.138 -4.597,-1.314 -6.644,-3.525 -2.591,-2.799 -3.679,-6.17 -3.262,-10.117 l 5.721,-0.827 c -0.167,2.881 0.401,5.025 1.705,6.435 1.359,1.467 2.88,1.422 4.563,-0.136 l 9.568,-8.859 -6.521,-7.044 4.227,-3.914 z" id="path2" />
        <path fill="#473467" d="m 291.595,778.033 c 0.651,0.63 1.003,1.379 1.055,2.246 0.052,0.866 -0.274,1.664 -0.979,2.392 -0.631,0.651 -1.454,1.079 -2.469,1.284 l -5.047,1.016 -2.356,-2.281 4.242,-1.794 c -0.206,-1.053 0.081,-1.981 0.86,-2.786 0.686,-0.709 1.467,-1.066 2.345,-1.07 0.876,-0.007 1.66,0.325 2.349,0.993 z" id="path4" />
        <path fill="#473467" d="m 297.596,813.683 -9.465,-7.762 -4.85,2.697 -5.66,-4.643 27.095,-13.991 5.66,4.642 -8.629,29.133 -5.877,-4.818 z m 1.816,-5.495 3.476,-10.548 -9.724,5.425 z" id="path6" />
        <path fill="#473467" d="m 312.975,831.015 -5.904,-3.98 15.651,-23.217 5.904,3.98 z" id="path8" />
        <path fill="#473467" d="m 350.287,845.603 -11.054,-5.256 -4.059,3.783 -6.61,-3.143 22.933,-20.101 6.611,3.144 -1.367,30.354 -6.863,-3.264 z m 0.44,-5.77 0.836,-11.073 -8.133,7.604 z" id="path10" />
        <path fill="#473467" d="m 383.661,833.382 c 1.985,0.622 3.81,1.643 5.476,3.059 1.665,1.418 2.957,3.024 3.874,4.821 l -5.392,3.423 c -0.53,-1.34 -1.302,-2.512 -2.314,-3.514 -1.012,-1.002 -2.117,-1.691 -3.313,-2.066 -2.112,-0.663 -4.114,-0.474 -6.006,0.568 -1.893,1.041 -3.182,2.656 -3.868,4.844 -0.702,2.239 -0.577,4.333 0.378,6.281 0.953,1.948 2.486,3.254 4.598,3.916 1.12,0.352 2.371,0.437 3.756,0.256 1.384,-0.18 2.698,-0.605 3.943,-1.277 l 2.652,5.443 c -1.913,1.021 -3.996,1.666 -6.247,1.938 -2.252,0.272 -4.356,0.101 -6.315,-0.515 -4.021,-1.262 -6.955,-3.621 -8.805,-7.08 -1.849,-3.459 -2.159,-7.147 -0.93,-11.066 1.205,-3.841 3.574,-6.627 7.107,-8.355 3.533,-1.727 7.334,-1.953 11.406,-0.676 z" id="path12" />
        <path fill="#473467" d="m 410.619,839.513 c 2.052,0.34 4.002,1.094 5.85,2.264 1.847,1.17 3.351,2.58 4.511,4.231 l -4.859,4.144 c -0.713,-1.253 -1.641,-2.305 -2.783,-3.155 -1.144,-0.851 -2.334,-1.379 -3.57,-1.583 -2.185,-0.36 -4.14,0.107 -5.867,1.403 -1.727,1.296 -2.777,3.075 -3.151,5.338 -0.382,2.315 0.035,4.37 1.252,6.166 1.217,1.796 2.917,2.874 5.102,3.234 1.157,0.19 2.409,0.101 3.755,-0.272 1.345,-0.371 2.587,-0.978 3.726,-1.816 l 3.388,5.019 c -1.752,1.278 -3.724,2.21 -5.914,2.794 -2.191,0.584 -4.3,0.709 -6.326,0.375 -4.157,-0.688 -7.393,-2.613 -9.708,-5.779 -2.315,-3.166 -3.138,-6.775 -2.469,-10.826 0.655,-3.973 2.611,-7.063 5.867,-9.269 3.256,-2.206 6.986,-2.962 11.196,-2.268 z" id="path14" />
        <path fill="#473467" d="m 438.52,841.759 c 4.346,0.088 7.932,1.516 10.756,4.279 2.824,2.766 4.195,6.174 4.112,10.227 -0.083,4.078 -1.599,7.462 -4.547,10.148 -2.949,2.688 -6.582,3.988 -10.901,3.9 -4.319,-0.088 -7.891,-1.527 -10.715,-4.319 -2.823,-2.791 -4.193,-6.239 -4.11,-10.346 0.083,-4.079 1.592,-7.436 4.525,-10.07 2.935,-2.633 6.562,-3.907 10.88,-3.819 z m -0.041,5.961 c -2.187,-0.045 -4.069,0.711 -5.647,2.266 -1.578,1.555 -2.392,3.506 -2.439,5.852 -0.047,2.346 0.692,4.342 2.219,5.986 1.527,1.645 3.37,2.488 5.53,2.532 2.159,0.044 4.009,-0.725 5.548,-2.308 1.539,-1.582 2.333,-3.547 2.38,-5.893 0.048,-2.346 -0.665,-4.328 -2.14,-5.945 -1.474,-1.616 -3.291,-2.447 -5.451,-2.49 z" id="path16" />
        <path fill="#473467" d="m 492.223,864.377 -6.192,1.042 -3.06,-17.941 -4.071,16.302 -4.576,0.77 -9.182,-14.071 3.02,17.947 -6.272,1.056 -4.651,-27.651 7.691,-1.295 10.263,15.188 4.727,-17.71 7.652,-1.287 z" id="path18" />
        <path fill="#473467" d="m 493.261,834.929 11.548,-3.937 c 3.382,-1.153 6.279,-1.246 8.694,-0.28 2.414,0.966 4.125,2.926 5.132,5.879 1.058,3.104 0.946,5.833 -0.337,8.186 -1.282,2.354 -3.615,4.106 -6.997,5.26 l -4.808,1.639 2.543,7.459 -6.739,2.297 z m 8.547,3.004 2.878,8.442 4.468,-1.523 c 1.489,-0.507 2.513,-1.265 3.07,-2.272 0.559,-1.007 0.601,-2.205 0.128,-3.594 -0.465,-1.362 -1.222,-2.26 -2.271,-2.691 -1.049,-0.43 -2.317,-0.393 -3.807,0.115 z" id="path20" />
        <path fill="#473467" d="m 544.375,838.664 -10.967,5.437 0.463,5.528 -6.558,3.252 -1.611,-30.453 6.559,-3.25 23.007,19.847 -6.81,3.376 z m -4.262,-3.914 -8.186,-7.506 0.945,11.094 z" id="path22" />
        <path fill="#473467" d="m 567.918,813.486 5.106,-3.446 6.108,9.052 c -0.663,1.734 -1.695,3.484 -3.094,5.248 -1.398,1.765 -2.905,3.191 -4.519,4.28 -3.537,2.388 -7.252,3.246 -11.146,2.576 -3.894,-0.669 -6.982,-2.695 -9.265,-6.077 -2.268,-3.359 -2.946,-6.987 -2.036,-10.883 0.909,-3.896 3.199,-7.082 6.868,-9.558 1.725,-1.163 3.646,-2.01 5.767,-2.54 2.119,-0.529 4.134,-0.667 6.044,-0.412 l -0.608,6.25 c -1.362,-0.207 -2.749,-0.164 -4.16,0.129 -1.41,0.293 -2.658,0.805 -3.74,1.535 -1.901,1.283 -3.055,3.02 -3.46,5.207 -0.405,2.187 0.048,4.254 1.36,6.199 1.328,1.967 3.091,3.174 5.291,3.619 2.198,0.447 4.26,0.021 6.183,-1.277 1.238,-0.835 2.354,-2.135 3.351,-3.901 z" id="path24" />
        <path fill="#473467" d="m 607.653,799.184 -4.719,4.144 -21.054,-4.457 11.375,12.955 -5.02,4.407 -18.475,-21.041 4.72,-4.144 21.109,4.461 -11.4,-12.985 4.989,-4.381 z" id="path26" />
        <path fill="#473467" d="m 612.546,761.111 -9.965,10.941 4.11,3.744 8.996,-9.878 4.14,3.771 -8.995,9.878 4.17,3.798 10.262,-11.268 4.14,3.77 -15.055,16.532 -20.702,-18.853 14.759,-16.207 z m -11.872,-5.619 -0.159,6.889 -3.555,3.904 -2.114,-7.66 z" id="path28" />
      </g>
    </g>
  </g>
  <g id="layer25" style="display:inline">
    <g style="display:inline" id="filet_separation_theme" transform="translate(0.1099963,-8)">
      <line id="line33" y2="645.30603" x2="444.33099" y1="607.52301" x1="444.33099" stroke-miterlimit="10" stroke-width="2" stroke="#000000" fill="none" />
    </g>
  </g>
  <g id="layer24" style="display:inline">
    <g transform="translate(0.11,-8)" id="picto_theme" style="display:inline">
      <g id="g40">
        <path fill="none" stroke="#000000" stroke-width="2" stroke-miterlimit="10" d="m 500.417,609.492 c 2.644,2.539 5.906,4.559 9.697,6.002 3.789,1.447 8.237,2.18 13.221,2.18 4.916,0 9.348,-0.732 13.17,-2.18 3.824,-1.443 7.104,-3.463 9.746,-6.002 2.646,-2.541 4.717,-5.551 6.155,-8.945 0.629,-1.488 1.151,-3.064 1.555,-4.697 h -19.366 c -0.51,0.879 -1.024,1.609 -1.57,2.223 -2.11,2.381 -5.369,3.588 -9.689,3.588 -5.246,0 -6.664,-0.176 -9.737,-3.586 -0.556,-0.613 -1.065,-1.322 -1.593,-2.225 h -19.299 c 0.402,1.627 0.926,3.205 1.56,4.697 1.437,3.398 3.506,6.408 6.15,8.945 z" id="path36" />
        <path fill="none" stroke="#000000" stroke-width="2" stroke-miterlimit="10" d="m 554.881,652.128 c -0.202,-3.842 -1.036,-7.518 -2.477,-10.92 -1.438,-3.389 -3.506,-6.379 -6.152,-8.883 -2.641,-2.502 -5.922,-4.521 -9.75,-6.002 -3.826,-1.479 -8.256,-2.229 -13.168,-2.229 -4.978,0 -9.426,0.75 -13.219,2.227 -3.794,1.482 -7.059,3.502 -9.701,6.004 -2.642,2.502 -4.712,5.49 -6.149,8.883 -1.44,3.398 -2.275,7.072 -2.478,10.922 -0.141,3.045 -0.203,12.775 -0.203,15.961 0,0.238 0.002,0.463 0.006,0.691 l 0.002,0.07 h 18.077 l -0.002,-0.137 c -0.005,-0.273 -0.009,-0.549 -0.009,-0.834 0,-1.51 0.018,-9.703 0.054,-11.221 0.036,-1.572 0.12,-2.906 0.255,-4.074 0.139,-1.756 0.508,-3.416 1.1,-4.918 0.596,-1.506 1.449,-2.836 2.541,-3.951 1.09,-1.117 2.459,-2.01 4.064,-2.654 1.604,-0.641 3.51,-0.967 5.662,-0.967 2.152,0 4.058,0.326 5.662,0.967 1.603,0.643 2.972,1.537 4.068,2.654 1.088,1.119 1.94,2.447 2.535,3.951 0.59,1.5 0.961,3.16 1.102,4.934 0.068,1.199 0.138,2.545 0.207,4.049 0.066,1.525 0.099,9.721 0.099,11.23 0,0.25 -0.007,0.492 -0.015,0.734 -0.002,0.078 -0.004,0.156 -0.006,0.236 h 18.094 v -0.092 c 0.004,-0.219 0.008,-0.439 0.008,-0.67 0,-3.422 -0.07,-12.98 -0.207,-15.961 z" id="path38" />
      </g>
    </g>
  </g>
  <g id="layer23" style="display:inline">
    <g style="display:inline" id="texte_picto_theme" transform="translate(0.11,-8)">
      <g id="g63">
        <path id="path43" d="m 470.49,571.394 h -3.799 v 10.025 h -3.203 v -10.025 h -3.763 v -2.593 h 10.765 z" />
        <path id="path45" d="m 481.721,571.339 h -6.66 v 2.502 h 6.013 v 2.52 h -6.013 v 2.539 h 6.858 v 2.52 h -10.063 v -12.6 h 9.864 v 2.519 z" />
        <path id="path47" d="m 491.296,574.832 4.519,6.588 h -3.834 l -2.718,-4.014 -2.719,4.014 h -3.726 l 4.5,-6.443 -4.212,-6.156 h 3.727 l 2.43,3.672 2.43,-3.672 h 3.762 z" />
        <path id="path49" d="m 506.832,571.394 h -3.799 v 10.025 h -3.203 v -10.025 h -3.763 v -2.593 h 10.765 z" />
        <path id="path51" d="m 518.063,571.339 h -6.66 v 2.502 h 6.013 v 2.52 h -6.013 v 2.539 h 6.858 v 2.52 h -10.063 v -12.6 h 9.864 v 2.519 z" />
        <path id="path53" d="m 534.136,571.394 h -3.798 v 10.025 h -3.204 v -10.025 h -3.762 v -2.593 h 10.764 z" />
        <path id="path55" d="m 547.132,581.419 h -3.203 v -4.896 h -5.221 v 4.896 h -3.204 v -12.6 h 3.204 v 5.184 h 5.221 v -5.184 h 3.203 z" />
        <path id="path57" d="m 559.517,571.339 h -6.66 v 2.502 h 6.012 v 2.52 h -6.012 v 2.539 h 6.857 v 2.52 h -10.063 v -12.6 h 9.865 v 2.519 z m -3.312,-3.618 h -2.376 l -2.34,-2.034 2.808,-0.99 z" />
        <path id="path59" d="M 575.626,581.419 H 572.8 l -0.018,-8.189 -3.024,6.93 h -2.088 l -3.024,-6.93 v 8.189 h -2.861 v -12.618 h 3.51 l 3.42,7.507 3.42,-7.507 h 3.492 v 12.618 z" />
        <path id="path61" d="m 588.029,571.339 h -6.66 v 2.502 h 6.012 v 2.52 h -6.012 v 2.539 h 6.857 v 2.52 h -10.063 v -12.6 h 9.865 v 2.519 z" />
      </g>
    </g>
  </g>
  <g id="layer22" style="display:inline">
    <g style="display:inline" id="picto_categorie" transform="translate(0.1099956,-8)">
      <g id="g86">
        <polygon id="polygon66" points="403.813,601.916 403.813,660.541 376.438,660.541 347.649,663.769 320.188,660.666 319.813,601.791 347.813,604.041 376.313,601.916 " stroke-miterlimit="10" stroke-width="2" stroke="#000000" fill="none" />
        <path id="path68" d="m 347.813,604.041 c -0.125,0.25 0,59.729 0,59.729" stroke-miterlimit="10" stroke-width="2" stroke="#000000" fill="none" />
        <line id="line70" y2="660.54102" x2="376.31299" y1="601.91602" x1="376.31299" stroke-miterlimit="10" stroke-width="2" stroke="#000000" fill="none" />
        <line id="line72" y2="620.66602" x2="399.18799" y1="612.54102" x1="387.81299" stroke-miterlimit="10" stroke-linecap="round" stroke-width="2" stroke="#000000" fill="none" />
        <line id="line74" y2="612.41602" x2="399.56299" y1="620.54102" x1="387.81299" stroke-miterlimit="10" stroke-linecap="round" stroke-width="2" stroke="#000000" fill="none" />
        <g id="g84">
          <g id="g82">
            <path id="path76" d="m 325.438,661.291 c 0,-0.416 -0.116,-0.914 -0.097,-1.493" stroke-miterlimit="10" stroke-linecap="round" stroke-width="2" stroke="#000000" fill="none" />
            <path id="path78" d="m 327.393,656.475 c 2.993,-2.349 10.204,-5.333 27.295,-8.935 29.125,-6.138 36.234,-12.972 38.403,-22.283" stroke-dasharray="3.029, 4.0386" stroke-miterlimit="10" stroke-linecap="round" stroke-width="2" stroke="#000000" fill="none" />
            <path id="path80" d="m 393.478,623.273 c 0.079,-0.487 0.148,-0.981 0.21,-1.482" stroke-miterlimit="10" stroke-linecap="round" stroke-width="2" stroke="#000000" fill="none" />
          </g>
        </g>
      </g>
    </g>
  </g>
  <g id="layer21" style="display:inline">
    <g style="display:inline" id="texte_picto_categorie" transform="translate(0.11,-8)">
      <g id="g105">
        <path id="path89" d="m 312.622,568.82 h 5.49 c 1.608,0 2.856,0.381 3.744,1.143 0.888,0.762 1.332,1.846 1.332,3.249 0,1.476 -0.444,2.622 -1.332,3.438 -0.888,0.816 -2.136,1.224 -3.744,1.224 h -2.286 v 3.546 h -3.204 z m 3.204,2.519 v 4.014 h 2.124 c 0.708,0 1.254,-0.174 1.638,-0.521 0.384,-0.348 0.576,-0.852 0.576,-1.512 0,-0.648 -0.192,-1.141 -0.576,-1.477 -0.384,-0.336 -0.93,-0.504 -1.638,-0.504 z" />
        <path id="path91" d="m 332.296,579.097 h -5.508 l -0.918,2.322 h -3.294 l 5.436,-12.6 h 3.294 l 5.31,12.6 h -3.42 z m -0.936,-2.43 -1.8,-4.662 -1.836,4.662 z" />
        <path id="path93" d="m 345.382,581.419 -1.872,-3.546 h -0.09 -2.43 v 3.546 h -3.204 v -12.6 h 5.634 c 1.668,0 2.958,0.381 3.87,1.143 0.912,0.762 1.368,1.846 1.368,3.249 0,1.944 -0.762,3.294 -2.286,4.05 l 2.646,4.158 z m -4.392,-6.066 h 2.43 c 0.696,0 1.236,-0.174 1.62,-0.521 0.384,-0.348 0.576,-0.852 0.576,-1.512 0,-0.648 -0.192,-1.141 -0.576,-1.477 -0.384,-0.336 -0.924,-0.504 -1.62,-0.504 h -2.43 z" />
        <path id="path95" d="m 356.723,568.711 c 0.936,0 1.857,0.192 2.763,0.576 0.906,0.384 1.677,0.899 2.313,1.548 l -1.854,2.195 c -0.408,-0.504 -0.897,-0.902 -1.467,-1.196 -0.57,-0.294 -1.137,-0.44 -1.701,-0.44 -0.996,0 -1.83,0.351 -2.502,1.053 -0.672,0.701 -1.008,1.568 -1.008,2.601 0,1.056 0.336,1.938 1.008,2.646 0.672,0.709 1.506,1.063 2.502,1.063 0.528,0 1.077,-0.132 1.647,-0.396 0.569,-0.264 1.077,-0.623 1.521,-1.08 l 1.872,1.98 c -0.684,0.696 -1.491,1.254 -2.421,1.674 -0.93,0.42 -1.857,0.631 -2.781,0.631 -1.896,0 -3.474,-0.619 -4.734,-1.854 -1.26,-1.235 -1.89,-2.778 -1.89,-4.626 0,-1.813 0.642,-3.327 1.926,-4.545 1.284,-1.218 2.886,-1.83 4.806,-1.83 z" />
        <path id="path97" d="m 369.034,568.711 c 1.956,0 3.582,0.609 4.878,1.827 1.296,1.218 1.944,2.738 1.944,4.563 0,1.836 -0.651,3.373 -1.953,4.608 -1.302,1.235 -2.925,1.854 -4.869,1.854 -1.944,0 -3.564,-0.615 -4.86,-1.846 -1.296,-1.229 -1.944,-2.769 -1.944,-4.617 0,-1.836 0.648,-3.359 1.944,-4.572 1.296,-1.21 2.916,-1.817 4.86,-1.817 z m 0.036,2.683 c -0.984,0 -1.824,0.356 -2.52,1.07 -0.696,0.715 -1.044,1.6 -1.044,2.655 0,1.055 0.351,1.946 1.053,2.673 0.702,0.727 1.539,1.089 2.511,1.089 0.972,0 1.797,-0.362 2.475,-1.089 0.678,-0.727 1.017,-1.617 1.017,-2.673 0,-1.056 -0.339,-1.94 -1.017,-2.655 -0.678,-0.714 -1.503,-1.07 -2.475,-1.07 z" />
        <path id="path99" d="m 388.888,568.82 v 7.308 c 0,1.668 -0.516,2.991 -1.548,3.969 -1.032,0.979 -2.43,1.468 -4.194,1.468 -1.776,0 -3.189,-0.489 -4.239,-1.468 -1.05,-0.978 -1.575,-2.301 -1.575,-3.969 v -7.308 h 3.204 v 7.308 c 0,0.84 0.243,1.509 0.729,2.007 0.486,0.498 1.119,0.747 1.899,0.747 0.768,0 1.383,-0.245 1.845,-0.737 0.461,-0.492 0.693,-1.164 0.693,-2.017 v -7.308 z" />
        <path id="path101" d="m 398.788,581.419 -1.872,-3.546 h -0.09 -2.43 v 3.546 h -3.204 v -12.6 h 5.634 c 1.668,0 2.958,0.381 3.87,1.143 0.912,0.762 1.368,1.846 1.368,3.249 0,1.944 -0.762,3.294 -2.286,4.05 l 2.646,4.158 z m -4.392,-6.066 h 2.43 c 0.696,0 1.236,-0.174 1.62,-0.521 0.384,-0.348 0.576,-0.852 0.576,-1.512 0,-0.648 -0.192,-1.141 -0.576,-1.477 -0.384,-0.336 -0.924,-0.504 -1.62,-0.504 h -2.43 z" />
        <path id="path103" d="m 409.065,568.675 c 1.884,0 3.54,0.469 4.968,1.404 l -1.206,2.502 c -0.66,-0.384 -1.368,-0.699 -2.124,-0.945 -0.756,-0.246 -1.393,-0.369 -1.908,-0.369 -0.924,0 -1.386,0.307 -1.386,0.918 0,0.396 0.228,0.715 0.684,0.955 0.456,0.239 1.011,0.446 1.665,0.62 0.654,0.175 1.308,0.384 1.962,0.63 0.654,0.246 1.209,0.646 1.665,1.197 0.456,0.553 0.684,1.248 0.684,2.088 0,1.213 -0.474,2.157 -1.422,2.835 -0.948,0.679 -2.154,1.017 -3.618,1.017 -1.044,0 -2.076,-0.18 -3.096,-0.539 -1.021,-0.36 -1.908,-0.852 -2.664,-1.477 l 1.242,-2.466 c 0.636,0.552 1.386,1.005 2.25,1.358 0.864,0.354 1.632,0.531 2.304,0.531 0.516,0 0.918,-0.092 1.206,-0.279 0.288,-0.186 0.432,-0.459 0.432,-0.818 0,-0.348 -0.166,-0.639 -0.495,-0.873 -0.33,-0.234 -0.741,-0.408 -1.233,-0.521 -0.492,-0.114 -1.026,-0.268 -1.602,-0.459 -0.576,-0.192 -1.11,-0.402 -1.602,-0.631 -0.492,-0.228 -0.903,-0.59 -1.233,-1.088 -0.331,-0.498 -0.495,-1.096 -0.495,-1.791 0,-1.152 0.459,-2.074 1.377,-2.764 0.918,-0.69 2.133,-1.035 3.645,-1.035 z" />
      </g>
    </g>
  </g>
  <g id="layer20" style="display:inline">
    <g style="display:inline" id="fond_categorie" transform="translate(0.11,-8)">
      <path id="path108" d="M 641.673,541.404 V 221.079 l -74.286,-35.637 c -4.98,2.846 -10.489,5.549 -15.154,7.098 l -7.147,2.348 -7.457,-0.764 c -15.543,-1.541 -32.663,-7.973 -49.22,-14.193 l -0.166,-0.061 c -15.997,-6.012 -32.54,-12.225 -44.627,-12.449 h -0.171 c -12.081,0.225 -28.632,6.439 -44.637,12.449 l -0.289,0.109 c -16.494,6.195 -33.55,12.6 -49.066,14.143 l -7.48,0.766 -7.249,-2.381 c -4.613,-1.533 -10.096,-4.229 -15.056,-7.064 l -74.277,35.637 v 320.325 h 396.282 z" fill="#b7d5e2" />
    </g>
  </g>
  <g id="layer19" style="display:inline">
    <g style="display:inline" id="picto_posture" transform="translate(0.11,-8)">
      <linearGradient y2="42.818401" x2="438.29739" y1="42.818401" x1="275.50049" gradientUnits="userSpaceOnUse" id="linearGradient402">
        <stop id="stop396" style="stop-color:#FFFFFF" offset="0" />
        <stop id="stop398" style="stop-color:#8D7D9F" offset="0.4515" />
        <stop id="stop400" style="stop-color:#473467" offset="1" />
      </linearGradient>
      <polygon id="polygon118" points="438.297,50.897 438.297,41.522 275.5,8.735 275.5,76.901 " fill="currentColor" opacity="0.2" />
      <linearGradient gradientTransform="matrix(-1,0,0,1,1094.9229,0)" y2="42.818401" x2="645.42242" y1="42.818401" x1="482.62549" gradientUnits="userSpaceOnUse" id="linearGradient411">
        <stop id="stop405" style="stop-color:#FFFFFF" offset="0" />
        <stop id="stop407" style="stop-color:#8D7D9F" offset="0.4515" />
        <stop id="stop409" style="stop-color:#473467" offset="1" />
      </linearGradient>
      <polygon id="polygon127" points="449.5,50.897 449.5,41.522 612.297,8.735 612.297,76.901 " fill="currentColor" opacity="0.2" />
      <path id="path129" d="m 458.857,121.884 h -2.137 v -2.137 h -1.068 l -3.205,-60.902 c 1.18,0 2.137,-0.957 2.137,-2.137 v -4.273 c 0,-1.18 -0.957,-2.137 -2.137,-2.137 h -2.138 v -8.547 h 2.138 1.068 v -2.139 h -1.068 -1.069 v -1.068 h -2.137 v -1.068 h -2.137 v -1.068 h -2.137 V 35.34 h -2.137 v 1.068 h -2.137 v 1.068 h -2.138 v 1.068 h -2.137 v 1.068 h -1.068 -1.068 v 2.139 h 1.068 2.137 v 8.547 h -2.137 c -1.181,0 -2.137,0.957 -2.137,2.137 v 4.273 c 0,1.18 0.956,2.137 2.137,2.137 l -3.205,60.902 h -1.068 v 2.137 h -2.138 l -4.273,4.273 h 38.465 z M 439.625,42.819 h 8.548 v 5.342 h -3.205 v -1.068 h 1.069 v -2.137 h -2.138 v 2.137 1.068 h -4.274 z m -5.002,70.518 h 18.552 l 0.226,4.273 h -19.002 z m 2.474,-47.012 H 450.7 l 0.394,7.479 h -14.389 z m 0.226,-4.275 0.056,-1.068 h 13.04 l 0.057,1.068 z m -0.844,16.027 h 14.84 l 0.394,7.479 h -15.628 z m 15.458,11.754 0.394,7.479 h -16.864 l 0.394,-7.479 z m 0.619,11.752 0.394,7.479 h -18.102 l 0.394,-7.479 z m 0.959,24.041 h -3.206 v -2.137 c 0,-0.885 0.718,-1.604 1.604,-1.604 0.884,0 1.602,0.719 1.602,1.604 z" fill="#473467" />
    </g>
  </g>
  <g id="layer18" style="display:inline">
    <g style="display:inline" id="filet_1_categorie" transform="translate(0.1100005,-8)">
      <g id="g138">
        <g id="g136">
          <path id="path132" d="m 475.531,93.052 c 74.676,7.512 124.289,40.043 155.436,60.467 5.349,3.506 9.969,6.535 14.092,9.023 5.224,3.154 7.781,6.479 7.599,9.881 -0.28,5.229 -6.96,8.398 -7.243,8.531" stroke-miterlimit="10" stroke-width="2" stroke="#473467" fill="none" />
          <path id="path134" d="m 241.647,180.954 c -0.284,-0.133 -6.962,-3.303 -7.241,-8.529 -0.183,-3.404 2.375,-6.729 7.601,-9.883 4.112,-2.482 8.719,-5.5 14.053,-8.996 31.262,-20.486 81.107,-53.152 156.156,-60.553" stroke-miterlimit="10" stroke-width="2" stroke="#473467" fill="none" />
        </g>
      </g>
      <g id="g142">
        <path id="path140" d="m 604.46,711.048 v 33.893 l -0.888,0.102 c -0.467,0.053 -47.208,5.516 -89.857,23.836 -30.47,13.092 -59.517,35.693 -68.811,43.26 l 0.024,0.033 -0.684,0.514 -0.547,0.678 -0.149,-0.115 -0.049,0.041 -0.044,-0.041 -0.158,0.111 -0.514,-0.709 c -8.543,-7 -38.237,-30.365 -69.438,-43.771 -42.649,-18.32 -89.389,-23.783 -89.855,-23.836 l -0.888,-0.102 v -35.893" stroke-miterlimit="10" stroke-width="2" stroke="#473467" fill="none" />
      </g>
    </g>
  </g>
  <g id="layer17" style="display:inline">
    <g style="display:inline" id="filet_2_categorie" transform="translate(0.11,-8)">
      <path id="path145" d="m 442.964,137.394 c -0.019,0 -0.051,0 -0.076,0 v 0.033 c -17.186,0.316 -36.207,7.441 -54.628,14.359 -14.804,5.559 -30.104,11.326 -41.793,12.484 l -1.201,0.123 -1.079,-0.354 c -3.614,-1.203 -10.563,-4.916 -15.482,-8.283 L 321.892,151.1 215.39,202.198 v 464.374 l 106.501,51.104 6.813,-4.66 c 4.919,-3.367 11.868,-7.078 15.482,-8.271 l 1.079,-0.357 1.201,0.117 c 11.689,1.166 26.989,6.922 41.793,12.477 18.427,6.924 37.442,14.047 54.628,14.367 l 1,0.035 c 0.025,0 -0.942,0 -0.924,0 0.192,0 0.375,-0.021 0.56,-0.021 0.195,0 0.384,0.021 0.563,0.021 0.032,0 -0.942,0 -0.917,0 l 1,-0.035 c 17.192,-0.32 36.207,-7.445 54.622,-14.367 14.799,-5.555 30.119,-11.311 41.794,-12.477 l 1.202,-0.117 1.077,0.357 c 3.622,1.193 10.568,4.904 15.489,8.271 l 6.807,4.66 106.512,-51.104 V 202.198 L 565.16,151.1 l -6.807,4.656 c -4.921,3.367 -11.867,7.08 -15.489,8.283 l -1.077,0.354 -1.202,-0.123 c -11.675,-1.158 -26.995,-6.926 -41.794,-12.484 -18.415,-6.918 -37.43,-14.043 -54.622,-14.359 v -0.033 c -0.025,0 -0.051,0 -0.083,0 -0.18,0 -0.368,0.012 -0.563,0.012 -0.184,-0.001 -0.366,-0.012 -0.559,-0.012 z" stroke-miterlimit="10" stroke-width="27" stroke="#009eb9" fill="none" opacity="0.2" />
    </g>
  </g>

  <g id="layer16" style="display:inline">
    <g style="display:inline" id="filet_3_posture" transform="translate(0.11,-8)">
      <path id="path148" d="m 442.964,137.394 c -0.019,0 -0.051,0 -0.076,0 v 0.033 c -17.186,0.316 -36.207,7.441 -54.628,14.359 -14.804,5.559 -30.104,11.326 -41.793,12.484 l -1.201,0.123 -1.079,-0.354 c -3.614,-1.203 -10.563,-4.916 -15.482,-8.283 L 321.892,151.1 215.39,202.198 v 464.374 l 106.501,51.104 6.813,-4.66 c 4.919,-3.367 11.868,-7.078 15.482,-8.271 l 1.079,-0.357 1.201,0.117 c 11.689,1.166 26.989,6.922 41.793,12.477 18.427,6.924 37.442,14.047 54.628,14.367 l 1,0.035 c 0.025,0 -0.942,0 -0.924,0 0.192,0 0.375,-0.021 0.56,-0.021 0.195,0 0.384,0.021 0.563,0.021 0.032,0 -0.942,0 -0.917,0 l 1,-0.035 c 17.192,-0.32 36.207,-7.445 54.622,-14.367 14.799,-5.555 30.119,-11.311 41.794,-12.477 l 1.202,-0.117 1.077,0.357 c 3.622,1.193 10.568,4.904 15.489,8.271 l 6.807,4.66 106.512,-51.104 V 202.198 L 565.16,151.1 l -6.807,4.656 c -4.921,3.367 -11.867,7.08 -15.489,8.283 l -1.077,0.354 -1.202,-0.123 c -11.675,-1.158 -26.995,-6.926 -41.794,-12.484 -18.415,-6.918 -37.43,-14.043 -54.622,-14.359 v -0.033 c -0.025,0 -0.051,0 -0.083,0 -0.18,0 -0.368,0.012 -0.563,0.012 -0.184,-0.001 -0.366,-0.012 -0.559,-0.012 z" stroke-miterlimit="10" stroke-width="27" stroke="#009eb9" fill="none" />
    </g>
  </g>
  <g id="layer15" style="display:inline">
    <g style="display:inline" id="texte_titre_badge" transform="translate(0.11,-8)">
      <g id="g186">
        <path id="path156" d="m 277.891,512.068 2.844,0.361 V 517 h -11.879 v -4.57 l 2.844,-0.361 v -14.721 h -3.636 l -0.539,3.563 h -4.607 l 0.18,-8.674 h 23.396 l 0.181,8.674 h -4.607 l -0.54,-3.563 h -3.636 v 14.72 z" fill="#009eb9" />
        <path id="path158" d="m 288.368,517 v -4.57 l 2.844,-0.361 v -14.865 l -2.844,-0.396 v -4.57 h 11.879 v 4.57 l -2.844,0.396 v 14.865 l 2.844,0.361 V 517 Z" fill="#009eb9" />
        <path id="path160" d="m 316.878,512.068 2.844,0.361 V 517 h -11.879 v -4.57 l 2.844,-0.361 v -14.721 h -3.636 l -0.539,3.563 h -4.607 l 0.18,-8.674 h 23.396 l 0.181,8.674 h -4.607 l -0.54,-3.563 h -3.636 v 14.72 z" fill="#009eb9" />
        <path id="path162" d="m 344.094,517 -4.536,-8.674 h -3.167 v 3.742 l 3.635,0.361 V 517 h -12.67 v -4.57 l 2.844,-0.361 v -14.865 l -2.844,-0.396 v -4.57 h 13.462 c 5.04,0 8.495,2.844 8.495,7.631 0,4.066 -1.691,5.688 -4.067,6.982 v 0.18 c 0,0 0.396,0.289 0.684,0.793 l 2.484,4.246 3.167,0.361 V 517 Z m -4.824,-13.499 c 2.628,0 3.78,-1.043 3.78,-3.275 0,-1.943 -1.404,-2.879 -3.78,-2.879 h -2.879 v 6.154 z" fill="#009eb9" />
        <path id="path164" d="m 353.023,517 v -4.57 l 2.808,-0.361 v -14.902 l -2.808,-0.359 v -4.57 h 20.409 l 0.145,8.674 h -4.607 l -0.54,-3.563 h -6.407 v 4.787 h 5.363 v 4.932 h -5.363 v 4.822 h 6.335 l 0.54,-3.563 h 4.607 L 373.253,517 Z" fill="#009eb9" />
        <path id="path166" d="m 383.154,517 v -4.57 l 2.844,-0.361 v -14.902 l -2.844,-0.359 v -4.57 h 12.131 c 6.119,0 12.13,3.238 12.13,12.201 0,9.828 -5.939,12.563 -11.555,12.563 h -12.706 z m 11.231,-5.112 c 4.212,0 6.768,-1.619 6.768,-7.451 0,-4.967 -2.664,-7.09 -7.235,-7.09 h -1.728 v 14.541 z" fill="#009eb9" />
        <path id="path168" d="m 426.64,497.203 -2.844,-0.396 v -4.57 h 11.519 v 4.57 l -2.844,0.396 v 10.691 c 0,6.262 -3.743,9.357 -10.366,9.357 -6.623,0 -10.511,-3.096 -10.511,-9.357 v -10.691 l -2.844,-0.396 v -4.57 h 11.879 v 4.57 l -2.844,0.396 v 10.295 c 0,1.943 0.792,4.57 4.319,4.57 2.88,0 4.535,-2.051 4.535,-4.391 v -10.474 z" fill="#009eb9" />
        <path id="path170" d="m 444.029,517 v -4.57 l 2.844,-0.361 v -14.902 l -2.844,-0.359 v -4.57 h 10.295 c 7.092,0 10.654,1.727 10.654,6.658 0,4.211 -2.664,5.004 -3.635,5.291 v 0.289 c 1.764,0.215 5.398,1.188 5.398,5.758 0,4.248 -2.482,6.768 -10.043,6.768 h -12.669 z m 12.058,-14.721 c 1.656,0 2.629,-0.973 2.629,-2.449 0,-1.764 -1.404,-2.482 -2.988,-2.482 h -2.664 v 4.932 h 3.023 z m -3.023,4.642 v 4.967 h 3.924 c 2.52,0 3.492,-0.684 3.492,-2.447 0,-1.584 -1.225,-2.52 -2.988,-2.52 z" fill="#009eb9" />
        <path id="path172" d="m 491.726,512.068 2.52,0.361 V 517 h -11.158 v -4.57 l 2.699,-0.361 -0.9,-2.375 H 476.5 l -0.898,2.375 2.699,0.361 V 517 h -10.979 v -4.57 l 2.52,-0.361 5.65,-14.902 -3.168,-0.18 v -4.75 h 11.879 z m -10.15,-11.193 c -0.252,-0.648 -0.793,-2.195 -0.793,-2.195 h -0.18 c 0,0 -0.539,1.547 -0.791,2.195 l -1.549,4.104 h 4.859 z" fill="#009eb9" />
        <path id="path174" d="m 495.582,517 v -4.57 l 2.844,-0.361 v -14.902 l -2.844,-0.359 v -4.57 h 12.131 c 6.119,0 12.129,3.238 12.129,12.201 0,9.828 -5.939,12.563 -11.555,12.563 h -12.705 z m 11.23,-5.112 c 4.211,0 6.768,-1.619 6.768,-7.451 0,-4.967 -2.664,-7.09 -7.236,-7.09 h -1.727 v 14.541 z" fill="#009eb9" />
        <path id="path176" d="m 543.421,508.326 c 0,3.707 -2.051,8.926 -10.402,8.926 -6.803,0 -11.051,-3.924 -11.051,-12.67 0,-8.676 4.283,-12.563 11.051,-12.563 8.352,0 10.402,4.355 10.402,7.486 0,1.117 -0.252,1.873 -0.252,1.873 l -5.867,0.539 c 0,0 0.145,-0.539 0.145,-1.295 0,-1.477 -0.936,-3.457 -4.104,-3.457 -2.844,0 -5.111,1.801 -5.111,7.523 0,5.652 2.484,7.379 5.326,7.379 2.736,0 3.744,-1.188 3.852,-3.203 l -3.49,-0.359 v -4.211 h 9.502 v 4.032 z" fill="#009eb9" />
        <path id="path178" d="m 545.908,517 v -4.57 l 2.809,-0.361 v -14.902 l -2.809,-0.359 v -4.57 h 20.41 l 0.145,8.674 h -4.607 l -0.541,-3.563 h -6.406 v 4.787 h 5.363 v 4.932 h -5.363 v 4.822 h 6.334 l 0.541,-3.563 h 4.607 L 566.138,517 Z" fill="#009eb9" />
        <path id="path180" d="m 576.039,517 v -4.57 l 2.844,-0.361 v -14.865 l -2.844,-0.396 v -4.57 h 11.879 v 4.57 l -2.844,0.396 v 14.865 l 2.844,0.361 V 517 Z" fill="#009eb9" />
        <path id="path182" d="m 605.521,508.253 v -0.684 l 5.977,1.223 v 0.613 c 0,3.275 -2.088,7.846 -10.584,7.846 -6.695,0 -10.869,-3.924 -10.869,-12.67 0,-8.676 4.283,-12.563 11.051,-12.563 8.35,0 10.402,4.787 10.402,8.207 0,1.115 -0.252,1.871 -0.252,1.871 l -5.867,0.721 c 0,0 0.143,-0.611 0.143,-1.477 0,-1.764 -0.936,-4.176 -4.104,-4.176 -2.844,0 -5.111,1.801 -5.111,7.523 0,5.652 2.412,7.379 5.148,7.379 3.095,0.002 4.066,-1.438 4.066,-3.813 z" fill="#009eb9" />
        <path id="path184" d="m 613.804,517 v -4.57 l 2.844,-0.361 v -14.865 l -2.844,-0.396 v -4.57 h 11.879 v 4.57 l -2.844,0.396 v 14.865 l 2.844,0.361 V 517 Z" fill="#009eb9" />
      </g>
    </g>
  </g>
  <g id="layer14" style="display:inline">
    <g style="display:inline" id="picto_titre_badge" transform="translate(0.11,-8)">
      <path id="path151" d="m 389.097,297.118 c 6.838,6.566 15.277,11.791 25.083,15.525 9.803,3.74 21.309,5.637 34.201,5.637 12.718,0 24.181,-1.896 34.066,-5.637 9.893,-3.734 18.375,-8.957 25.212,-15.525 6.844,-6.574 12.201,-14.361 15.921,-23.143 1.627,-3.846 2.979,-7.928 4.022,-12.148 h -50.096 c -1.319,2.271 -2.651,4.158 -4.063,5.75 -5.457,6.156 -13.89,9.279 -25.063,9.279 -13.572,0 -17.24,-0.455 -25.189,-9.273 -1.439,-1.588 -2.755,-3.426 -4.119,-5.756 H 369.15 c 1.038,4.203 2.394,8.287 4.034,12.146 3.721,8.794 9.075,16.579 15.913,23.145 z" fill="#009eb9" />
      <path id="path153" d="m 529.986,407.411 c -0.522,-9.943 -2.679,-19.449 -6.406,-28.25 -3.718,-8.766 -9.071,-16.498 -15.915,-22.979 -6.833,-6.471 -15.321,-11.697 -25.223,-15.527 -9.897,-3.822 -21.356,-5.76 -34.062,-5.76 -12.876,0 -24.382,1.938 -34.193,5.758 -9.814,3.834 -18.259,9.061 -25.096,15.529 -6.838,6.471 -12.188,14.203 -15.906,22.979 -3.729,8.787 -5.887,18.293 -6.411,28.254 -0.362,7.873 -0.524,33.047 -0.524,41.288 0,0.611 0.007,1.195 0.017,1.785 l 0.003,0.184 h 46.763 l -0.005,-0.352 c -0.011,-0.713 -0.024,-1.424 -0.024,-2.156 0,-3.906 0.047,-25.1 0.141,-29.028 0.095,-4.07 0.312,-7.518 0.658,-10.537 0.357,-4.545 1.316,-8.836 2.848,-12.723 1.538,-3.898 3.748,-7.336 6.569,-10.221 2.821,-2.893 6.362,-5.203 10.516,-6.865 4.15,-1.662 9.077,-2.506 14.646,-2.506 5.568,0 10.496,0.844 14.647,2.506 4.145,1.66 7.686,3.971 10.522,6.863 2.814,2.893 5.021,6.328 6.561,10.221 1.526,3.881 2.484,8.174 2.848,12.76 0.178,3.105 0.355,6.586 0.535,10.479 0.171,3.941 0.256,25.145 0.256,29.051 0,0.643 -0.019,1.268 -0.036,1.893 -0.007,0.207 -0.011,0.41 -0.018,0.615 h 46.806 l 10e-4,-0.236 c 0.01,-0.568 0.018,-1.137 0.018,-1.732 -0.002,-8.859 -0.182,-33.59 -0.536,-41.293 z" fill="#009eb9" />
    </g>
  </g>
</svg>
