<?xml version="1.0" encoding="UTF-8" standalone="no"?>
<svg xmlns:dc="http://purl.org/dc/elements/1.1/"
  xmlns:cc="http://creativecommons.org/ns#"
  xmlns:rdf="http://www.w3.org/1999/02/22-rdf-syntax-ns#"
  xmlns:svg="http://www.w3.org/2000/svg"
  xmlns="http://www.w3.org/2000/svg"
  xmlns:xlink="http://www.w3.org/1999/xlink" id="svg2303" xml:space="preserve" enable-background="new 0 0 850.394 841.89" viewBox="0 0 888.18899 888.18898" height="100%" width="100%" y="0px" x="0px" version="1.1">
  <metadata id="metadata2309">
    <rdf:RDF>
      <cc:Work rdf:about="">
        <dc:format>image/svg+xml</dc:format>
        <dc:type rdf:resource="http://purl.org/dc/dcmitype/StillImage" />
        <dc:title></dc:title>
      </cc:Work>
    </rdf:RDF>
  </metadata>
  <defs id="defs2307">
    <linearGradient id="SVGID_1_" gradientUnits="userSpaceOnUse" x1="257.7666" y1="116.8174" x2="420.56351" y2="116.8174">
      <stop offset="0" style="stop-color:#FFFFFF" id="stop2215" />
      <stop offset="0.4515" style="stop-color:#8D7D9F" id="stop2217" />
      <stop offset="1" style="stop-color:#473467" id="stop2219" />
    </linearGradient>
    <linearGradient id="SVGID_2_" gradientUnits="userSpaceOnUse" x1="472.0127" y1="116.8174" x2="634.80957" y2="116.8174" gradientTransform="matrix(-1,0,0,1,1066.5762,0)">
      <stop offset="0" style="stop-color:#FFFFFF" id="stop2224" />
      <stop offset="0.4515" style="stop-color:#8D7D9F" id="stop2226" />
      <stop offset="1" style="stop-color:#473467" id="stop2228" />
    </linearGradient>
    <clipPath id="SVGID_2_-4">
      <use id="use122" overflow="visible" xlink:href="#SVGID_1_-0" x="0" y="0" width="100%" height="100%" />
    </clipPath>
    <clipPath id="SVGID_4_">
      <use id="use132" overflow="visible" xlink:href="#SVGID_3_" x="0" y="0" width="100%" height="100%" />
    </clipPath>
    <path d="m 404.664,50.394 c 1.172,3.438 3.039,6.252 4.836,8.439 l -19.805,17.313 c -3.164,-1.836 -6.135,-4.258 -8.674,-7.969 l -13.156,3.746 c 0,0 -1.5,20.816 0.125,20.816 1.625,0 20.75,-1.5 22,-1.5 1.25,0 37.625,-22.125 37.625,-22.125 l 13.875,-38 c 0,0 -0.625,-12.084 -1,-12.291 -0.375,-0.209 -36.375,17.006 -36.375,17.006 z" id="SVGID_1_-0" />
    <path d="m 453.475,81.825 c 1.949,-1.783 5.014,-5.445 6.551,-8.467 l 18.717,21.805 0.957,1.021 c -2.836,3.092 -6.361,5.285 -9.527,6.563 l 4.693,17.242 13.125,9.75 0.375,-10.625 c 0,0 -5.125,-47.875 -5.375,-48.25 -0.25,-0.375 -24.334,-23.75 -24.334,-23.75 0,0 -13.166,1.125 -13.166,1.5 0,0.375 -9.506,10 -9.506,10 l 5.662,19.625 z" id="SVGID_3_" />
    <clipPath id="SVGID_2_-4-8">
      <use height="100%" width="100%" y="0" x="0" xlink:href="#SVGID_1_-0" overflow="visible" id="use122-9" />
    </clipPath>
    <clipPath id="SVGID_4_-4">
      <use height="100%" width="100%" y="0" x="0" xlink:href="#SVGID_3_" overflow="visible" id="use132-1" />
    </clipPath>
    <path id="path300" d="m 404.664,50.394 c 1.172,3.438 3.039,6.252 4.836,8.439 l -19.805,17.313 c -3.164,-1.836 -6.135,-4.258 -8.674,-7.969 l -13.156,3.746 c 0,0 -1.5,20.816 0.125,20.816 1.625,0 20.75,-1.5 22,-1.5 1.25,0 37.625,-22.125 37.625,-22.125 l 13.875,-38 c 0,0 -0.625,-12.084 -1,-12.291 -0.375,-0.209 -36.375,17.006 -36.375,17.006 z" />
    <path id="path307" d="m 453.475,81.825 c 1.949,-1.783 5.014,-5.445 6.551,-8.467 l 18.717,21.805 0.957,1.021 c -2.836,3.092 -6.361,5.285 -9.527,6.563 l 4.693,17.242 13.125,9.75 0.375,-10.625 c 0,0 -5.125,-47.875 -5.375,-48.25 -0.25,-0.375 -24.334,-23.75 -24.334,-23.75 0,0 -13.166,1.125 -13.166,1.5 0,0.375 -9.506,10 -9.506,10 l 5.662,19.625 z" />
    <linearGradient gradientTransform="translate(-0.52877063,-24.950401)" id="SVGID_1_-1" gradientUnits="userSpaceOnUse" x1="256.4277" y1="34.083" x2="419.22461" y2="34.083">
      <stop offset="0" style="stop-color:#FFFFFF" id="stop95" />
      <stop offset="0.4515" style="stop-color:#8D7D9F" id="stop97" />
      <stop offset="1" style="stop-color:#473467" id="stop99" />
    </linearGradient>
    <linearGradient id="SVGID_2_-1" gradientUnits="userSpaceOnUse" x1="473.35159" y1="34.083" x2="636.14838" y2="34.083" gradientTransform="matrix(-1,0,0,1,1066.0474,-24.950401)">
      <stop offset="0" style="stop-color:#FFFFFF" id="stop104" />
      <stop offset="0.4515" style="stop-color:#8D7D9F" id="stop106" />
      <stop offset="1" style="stop-color:#473467" id="stop108" />
    </linearGradient>
    <linearGradient y2="34.083" x2="419.22461" y1="34.083" x1="256.4277" gradientUnits="userSpaceOnUse" id="SVGID_1_-1-5" gradientTransform="translate(-0.52877,-24.9504)">
      <stop id="stop95-6" style="stop-color:#FFFFFF" offset="0" />
      <stop id="stop97-9" style="stop-color:#8D7D9F" offset="0.4515" />
      <stop id="stop99-4" style="stop-color:#473467" offset="1" />
    </linearGradient>
    <linearGradient gradientTransform="matrix(-1,0,0,1,1066.0474,-24.950401)" y2="34.083" x2="636.14838" y1="34.083" x1="473.35159" gradientUnits="userSpaceOnUse" id="SVGID_2_-1-0">
      <stop id="stop104-4" style="stop-color:#FFFFFF" offset="0" />
      <stop id="stop106-9" style="stop-color:#8D7D9F" offset="0.4515" />
      <stop id="stop108-8" style="stop-color:#473467" offset="1" />
    </linearGradient>
    <linearGradient y2="42.818401" x2="438.29739" y1="42.818401" x1="275.50049" gradientUnits="userSpaceOnUse" id="SVGID_1_-6" gradientTransform="translate(0,-6)">
      <stop id="stop111" style="stop-color:#FFFFFF" offset="0" />
      <stop id="stop113" style="stop-color:#8D7D9F" offset="0.4515" />
      <stop id="stop115" style="stop-color:#473467" offset="1" />
    </linearGradient>
    <linearGradient gradientTransform="matrix(-1,0,0,1,1094.9229,-5.999996)" y2="42.818401" x2="645.42242" y1="42.818401" x1="482.62549" gradientUnits="userSpaceOnUse" id="SVGID_2_-2">
      <stop id="stop120" style="stop-color:#FFFFFF" offset="0" />
      <stop id="stop122" style="stop-color:#8D7D9F" offset="0.4515" />
      <stop id="stop124" style="stop-color:#473467" offset="1" />
    </linearGradient>
    <linearGradient gradientTransform="translate(0,-6)" id="SVGID_1_-6-5" gradientUnits="userSpaceOnUse" x1="275.50049" y1="42.818401" x2="438.29739" y2="42.818401">
      <stop offset="0" style="stop-color:#FFFFFF" id="stop111-4" />
      <stop offset="0.4515" style="stop-color:#8D7D9F" id="stop113-6" />
      <stop offset="1" style="stop-color:#473467" id="stop115-2" />
    </linearGradient>
    <linearGradient id="SVGID_2_-2-4" gradientUnits="userSpaceOnUse" x1="482.62549" y1="42.818401" x2="645.42242" y2="42.818401" gradientTransform="matrix(-1,0,0,1,1094.9229,-5.999996)">
      <stop offset="0" style="stop-color:#FFFFFF" id="stop120-0" />
      <stop offset="0.4515" style="stop-color:#8D7D9F" id="stop122-0" />
      <stop offset="1" style="stop-color:#473467" id="stop124-0" />
    </linearGradient>
  </defs>
  <g style="display:inline" id="layer26">
    <g id="texte_posture">
      <g id="g28">
        <path fill="#473467" d="m 285.256,716.75 -12.988,13.813 c -2.028,2.156 -4.234,3.248 -6.62,3.273 -2.386,0.027 -4.677,-0.992 -6.871,-3.057 -2.778,-2.613 -4.097,-5.902 -3.954,-9.867 l 5.65,-1.221 c 0.032,2.885 0.747,4.984 2.146,6.301 1.457,1.369 2.971,1.22 4.542,-0.451 l 8.933,-9.5 -6.994,-6.576 3.946,-4.196 z" id="path2" />
        <path fill="#473467" d="m 286.934,732.342 -4.015,-3.305 6.94,-8.431 4.015,3.305 z" id="path4" />
        <path fill="#473467" d="m 301.043,757.388 -10.098,-6.919 -4.599,3.104 -6.039,-4.138 25.791,-16.271 6.039,4.138 -6.092,29.768 -6.27,-4.295 z m 1.336,-5.63 2.556,-10.809 -9.221,6.241 z" id="path6" />
        <path fill="#473467" d="m 317.99,773.309 -6.244,-3.422 13.458,-24.555 6.243,3.423 z" id="path8" />
        <path fill="#473467" d="m 346.832,756.488 11.333,4.066 c 4.142,1.486 7.074,3.912 8.799,7.279 1.725,3.367 1.884,7.008 0.479,10.924 -1.396,3.891 -3.851,6.586 -7.364,8.088 -3.513,1.502 -7.392,1.491 -11.633,-0.03 l -11.069,-3.972 z m 4.784,7.752 -5.62,15.662 4.782,1.715 c 2.058,0.738 4.005,0.623 5.841,-0.348 1.835,-0.971 3.167,-2.609 3.996,-4.92 0.828,-2.309 0.815,-4.445 -0.038,-6.409 -0.854,-1.964 -2.348,-3.328 -4.48,-4.093 z" id="path10" />
        <path fill="#473467" d="m 396.684,776.259 -14.512,-2.909 -1.093,5.451 13.1,2.627 -1.101,5.49 -13.1,-2.625 -1.108,5.529 14.942,2.995 -1.101,5.491 -21.924,-4.395 5.504,-27.454 21.492,4.308 z m -1.297,-13.07 -5.986,3.409 -5.178,-1.038 5.479,-5.755 z" id="path12" />
        <path fill="#473467" d="m 416.396,771.934 c 2.077,0.113 4.097,0.652 6.061,1.614 1.963,0.963 3.611,2.201 4.943,3.716 l -4.381,4.647 c -0.844,-1.168 -1.881,-2.112 -3.109,-2.835 -1.229,-0.721 -2.47,-1.117 -3.721,-1.186 -2.21,-0.121 -4.104,0.557 -5.68,2.032 -1.577,1.476 -2.428,3.358 -2.554,5.648 -0.128,2.344 0.51,4.341 1.915,5.994 1.404,1.653 3.212,2.54 5.422,2.661 1.172,0.064 2.406,-0.162 3.703,-0.678 1.297,-0.517 2.466,-1.254 3.507,-2.212 l 3.912,4.622 c -1.603,1.461 -3.461,2.601 -5.575,3.419 -2.115,0.819 -4.198,1.172 -6.248,1.06 -4.207,-0.23 -7.633,-1.794 -10.278,-4.69 -2.646,-2.896 -3.855,-6.394 -3.631,-10.495 0.221,-4.02 1.829,-7.303 4.827,-9.85 2.998,-2.545 6.627,-3.702 10.887,-3.467 z" id="path14" />
        <path fill="#473467" d="m 444.034,771.176 c 4.325,-0.426 8.055,0.566 11.187,2.977 3.132,2.412 4.896,5.634 5.294,9.668 0.4,4.06 -0.704,7.6 -3.313,10.616 -2.61,3.018 -6.064,4.737 -10.363,5.162 -4.3,0.424 -8.017,-0.583 -11.15,-3.021 -3.135,-2.438 -4.903,-5.699 -5.307,-9.786 -0.4,-4.061 0.7,-7.571 3.302,-10.535 2.6,-2.963 6.051,-4.656 10.35,-5.081 z m 0.665,5.924 c -2.177,0.215 -3.957,1.188 -5.34,2.918 -1.384,1.731 -1.96,3.765 -1.729,6.1 0.23,2.336 1.201,4.229 2.911,5.682 1.711,1.453 3.642,2.072 5.791,1.86 2.149,-0.212 3.895,-1.194 5.236,-2.948 1.34,-1.753 1.896,-3.797 1.666,-6.133 -0.23,-2.335 -1.174,-4.219 -2.828,-5.65 -1.656,-1.431 -3.557,-2.041 -5.707,-1.829 z" id="path16" />
        <path fill="#473467" d="m 487.481,762.498 4.171,15.695 c 0.951,3.582 0.599,6.718 -1.06,9.407 -1.659,2.69 -4.382,4.538 -8.171,5.544 -3.814,1.014 -7.128,0.771 -9.94,-0.73 -2.814,-1.502 -4.696,-4.043 -5.648,-7.626 l -4.171,-15.695 6.882,-1.829 4.171,15.695 c 0.479,1.805 1.383,3.104 2.711,3.895 1.328,0.793 2.829,0.967 4.505,0.521 1.648,-0.439 2.829,-1.318 3.541,-2.639 0.711,-1.32 0.824,-2.895 0.338,-4.725 l -4.171,-15.695 z" id="path18" />
        <path fill="#473467" d="m 517.932,780.184 -6.757,2.918 -21.089,-21.391 6.977,-3.014 14.741,16.072 -1.595,-21.75 6.72,-2.902 z" id="path20" />
        <path fill="#473467" d="m 541.503,741.872 -12.7,7.599 2.854,4.771 11.465,-6.859 2.875,4.806 -11.465,6.858 2.896,4.841 13.078,-7.824 2.875,4.806 -19.188,11.479 -14.375,-24.028 18.811,-11.254 z" id="path22" />
        <path fill="#473467" d="m 573.893,745.572 -8.119,-3.67 -0.158,0.122 -4.264,3.313 4.834,6.223 -5.623,4.367 -17.178,-22.111 9.888,-7.681 c 2.927,-2.274 5.71,-3.364 8.35,-3.271 2.639,0.095 4.916,1.373 6.83,3.837 2.65,3.411 3.153,6.819 1.51,10.224 l 10.312,3.689 z m -15.978,-4.657 4.265,-3.313 c 1.222,-0.948 1.932,-1.989 2.132,-3.124 0.199,-1.134 -0.151,-2.28 -1.051,-3.438 -0.884,-1.137 -1.892,-1.738 -3.023,-1.805 -1.131,-0.067 -2.309,0.375 -3.529,1.324 l -4.265,3.313 z" id="path24" />
        <path fill="#473467" d="m 585.978,704.41 -6.072,5.862 15.475,16.028 -5.122,4.945 -15.475,-16.028 -6.015,5.806 -4.001,-4.143 17.209,-16.615 z" id="path26" />
      </g>
    </g>
  </g>
  <!-- <g id="layer1" transform="translate(20)">
    <g style="display:inline;fill:#ffffff;stroke:none" id="filet_3_posture" transform="translate(-1.18601,34.28187)">
      <path id="path150-4" d="m 426.33,701.628 c -4.464,0 -7.848,-1.037 -9.525,-2.008 L 176.458,560.861 c -4.631,-2.679 -9.536,-11.168 -9.536,-16.518 V 266.822 c 0,-5.35 4.905,-13.839 9.536,-16.513 L 416.797,111.55 c 1.678,-0.971 5.063,-2.007 9.533,-2.007 4.47,0 7.855,1.037 9.532,2.003 l 240.343,138.759 c 4.636,2.678 9.533,11.168 9.533,16.518 v 277.521 c 0,5.35 -4.897,13.839 -9.533,16.514 L 435.87,699.616 c -1.684,0.975 -5.069,2.012 -9.54,2.012 z" stroke-miterlimit="10" stroke-width="3" stroke="#009eb9" fill="none" style="fill:#ffffff;stroke:none" />
    </g>
  </g> -->
  <g style="display:inline" id="layer25" transform="translate(20)">
    <g style="display:inline" id="filet_separation_theme" transform="translate(-1.1860071,34.281873)">
      <line id="line31" y2="612.71503" x2="424.797" y1="574.93201" x1="424.797" stroke-miterlimit="10" stroke-width="2" stroke="#000000" fill="none" />
    </g>
  </g>
  <g style="display:inline" id="layer24" transform="translate(20)">
    <g style="display:inline" id="picto_theme" transform="translate(-1.18601,34.28187)">
      <g id="g38">
        <path id="path34" d="m 484.322,571.329 c 2.246,2.157 5.02,3.875 8.242,5.102 3.221,1.229 7.002,1.853 11.238,1.853 4.178,0 7.945,-0.623 11.193,-1.853 3.25,-1.227 6.039,-2.943 8.285,-5.102 2.249,-2.159 4.01,-4.719 5.231,-7.604 0.534,-1.265 0.978,-2.605 1.321,-3.992 h -16.461 c -0.434,0.747 -0.871,1.367 -1.334,1.889 -1.795,2.023 -4.565,3.05 -8.236,3.05 -4.46,0 -5.666,-0.149 -8.277,-3.048 -0.473,-0.521 -0.906,-1.125 -1.354,-1.891 h -16.404 c 0.342,1.382 0.787,2.724 1.326,3.991 1.223,2.889 2.982,5.448 5.23,7.605 z" stroke-miterlimit="10" stroke-width="2" stroke="#000000" fill="none" />
        <path id="path36" d="m 530.617,607.57 c -0.172,-3.267 -0.881,-6.391 -2.105,-9.282 -1.221,-2.881 -2.98,-5.422 -5.229,-7.551 -2.245,-2.127 -5.034,-3.843 -8.288,-5.102 -3.252,-1.256 -7.018,-1.894 -11.191,-1.894 -4.231,0 -8.013,0.638 -11.236,1.893 -3.225,1.26 -6,2.977 -8.246,5.103 -2.247,2.127 -4.006,4.668 -5.227,7.551 -1.226,2.889 -1.935,6.011 -2.107,9.284 -0.119,2.587 -0.172,10.858 -0.172,13.566 0,0.202 0.002,0.393 0.006,0.587 l 10e-4,0.061 h 15.365 l -10e-4,-0.116 c -0.004,-0.233 -0.008,-0.467 -0.008,-0.709 0,-1.283 0.014,-8.247 0.045,-9.537 0.031,-1.337 0.103,-2.471 0.217,-3.463 0.117,-1.493 0.433,-2.904 0.936,-4.181 0.506,-1.28 1.231,-2.41 2.16,-3.358 0.926,-0.949 2.09,-1.709 3.453,-2.256 1.365,-0.546 2.984,-0.823 4.814,-0.823 1.828,0 3.448,0.277 4.813,0.823 1.361,0.546 2.525,1.306 3.457,2.255 0.925,0.951 1.65,2.08 2.156,3.358 0.501,1.276 0.816,2.687 0.936,4.194 0.059,1.02 0.117,2.163 0.176,3.441 0.057,1.296 0.084,8.262 0.084,9.546 0,0.212 -0.006,0.418 -0.012,0.624 -0.002,0.066 -0.004,0.133 -0.006,0.201 h 15.379 l 0.002,-0.078 c 0.003,-0.187 0.006,-0.373 0.006,-0.569 -0.002,-2.909 -0.063,-11.034 -0.178,-13.568 z" stroke-miterlimit="10" stroke-width="2" stroke="#000000" fill="none" />
      </g>
    </g>
  </g>
  <g style="display:inline" id="layer23" transform="translate(20)">
    <g style="display:inline" id="texte_picto_theme" transform="translate(-1.186,34.28187)">
      <g id="g61">
        <path id="path41" d="m 450.957,538.803 h -3.799 v 10.025 h -3.203 v -10.025 h -3.763 v -2.592 h 10.765 z" />
        <path id="path43" d="m 462.188,538.748 h -6.66 v 2.502 h 6.013 v 2.521 h -6.013 v 2.538 h 6.858 v 2.52 h -10.063 v -12.6 h 9.864 v 2.519 z" />
        <path id="path45" d="m 471.764,542.24 4.519,6.588 h -3.834 l -2.718,-4.014 -2.719,4.014 h -3.726 l 4.5,-6.443 -4.212,-6.156 h 3.727 l 2.43,3.672 2.43,-3.672 h 3.762 z" />
        <path id="path47" d="M 487.299,538.803 H 483.5 v 10.025 h -3.203 v -10.025 h -3.763 v -2.592 h 10.765 z" />
        <path id="path49" d="m 498.53,538.748 h -6.66 v 2.502 h 6.013 v 2.521 h -6.013 v 2.538 h 6.858 v 2.52 h -10.063 v -12.6 h 9.864 v 2.519 z" />
        <path id="path51" d="m 514.604,538.803 h -3.798 v 10.025 h -3.204 v -10.025 h -3.762 v -2.592 h 10.764 z" />
        <path id="path53" d="m 527.6,548.828 h -3.203 v -4.896 h -5.221 v 4.896 h -3.204 v -12.6 h 3.204 v 5.184 h 5.221 v -5.184 h 3.203 z" />
        <path id="path55" d="m 539.984,538.748 h -6.66 v 2.502 h 6.012 v 2.521 h -6.012 v 2.538 h 6.857 v 2.52 h -10.063 v -12.6 h 9.865 v 2.519 z m -3.312,-3.617 h -2.376 l -2.34,-2.034 2.808,-0.99 z" />
        <path id="path57" d="m 556.094,548.828 h -2.826 l -0.018,-8.189 -3.024,6.93 h -2.088 l -3.024,-6.93 v 8.189 h -2.861 v -12.617 h 3.51 l 3.42,7.506 3.42,-7.506 h 3.492 v 12.617 z" />
        <path id="path59" d="m 568.496,538.748 h -6.66 v 2.502 h 6.012 v 2.521 h -6.012 v 2.538 h 6.857 v 2.52 H 558.63 v -12.6 h 9.865 v 2.519 z" />
      </g>
    </g>
  </g>
  <g style="display:inline" id="layer22" transform="translate(20)">
    <g transform="translate(-1.18601,34.281875)" id="picto_categorie" style="display:inline">
      <g id="g94">
        <polygon fill="none" stroke="#000000" stroke-width="2" stroke-linejoin="round" stroke-miterlimit="10" points="312.59,573.826 312.59,606.697 342.373,624.041 371.728,607.697 371.728,573.719 342.158,556.623 " id="polygon64" />
        <polyline fill="none" stroke="#000000" stroke-width="2" stroke-linejoin="round" stroke-miterlimit="10" points="312.59,573.826     342.266,590.385 371.728,573.719   " id="polyline66" />
        <polygon fill="none" stroke="#000000" stroke-width="2" stroke-linejoin="round" stroke-miterlimit="10" points="327.373,598.343 327.213,582.213 342.266,573.611 356.782,582.105 356.782,599.202 342.373,607.374 " id="polygon68" />
        <line fill="none" stroke="#000000" stroke-width="2" stroke-linejoin="round" stroke-miterlimit="10" x1="342.26599" y1="590.38501" x2="342.26599" y2="624.14801" id="line70" />
        <line fill="none" stroke="#000000" stroke-width="2" stroke-linejoin="round" stroke-miterlimit="10" x1="342.15799" y1="556.62299" x2="342.15799" y2="573.61102" id="line72" />
        <line fill="none" stroke="#000000" stroke-width="2" stroke-linejoin="round" stroke-miterlimit="10" x1="371.728" y1="607.69702" x2="356.78201" y2="599.20203" id="line74" />
        <line fill="none" stroke="#000000" stroke-width="2" stroke-linejoin="round" stroke-miterlimit="10" x1="327.64301" y1="598.77197" x2="313.12701" y2="607.37402" id="line76" />
        <line fill="none" stroke="#000000" stroke-width="2" stroke-linecap="round" stroke-linejoin="round" stroke-miterlimit="10" x1="355.814" y1="574.79498" x2="359.76901" y2="572.30603" id="line78" />
        <line fill="none" stroke="#000000" stroke-width="2" stroke-linecap="round" stroke-linejoin="round" stroke-miterlimit="10" x1="360.77499" y1="584.77802" x2="366.57199" y2="584.77802" id="line80" />
        <line fill="none" stroke="#000000" stroke-width="2" stroke-linecap="round" stroke-linejoin="round" stroke-miterlimit="10" x1="361.298" y1="592.64398" x2="364.80099" y2="595.51398" id="line82" />
        <line fill="none" stroke="#000000" stroke-width="2" stroke-linecap="round" stroke-linejoin="round" stroke-miterlimit="10" x1="349.147" y1="565.33197" x2="347.23499" y2="569.62799" id="line84" />
        <line fill="none" stroke="#000000" stroke-width="2" stroke-linecap="round" stroke-linejoin="round" stroke-miterlimit="10" x1="328.85501" y1="574.36401" x2="324.89999" y2="571.875" id="line86" />
        <line fill="none" stroke="#000000" stroke-width="2" stroke-linecap="round" stroke-linejoin="round" stroke-miterlimit="10" x1="323.89499" y1="584.34802" x2="318.09799" y2="584.34802" id="line88" />
        <line fill="none" stroke="#000000" stroke-width="2" stroke-linecap="round" stroke-linejoin="round" stroke-miterlimit="10" x1="323.371" y1="592.21301" x2="319.86899" y2="595.08398" id="line90" />
        <line fill="none" stroke="#000000" stroke-width="2" stroke-linecap="round" stroke-linejoin="round" stroke-miterlimit="10" x1="335.521" y1="564.90198" x2="337.43399" y2="569.19702" id="line92" />
      </g>
    </g>
  </g>
  <g style="display:inline" id="layer21" transform="translate(20)">
    <g style="display:inline" id="texte_picto_categorie" transform="translate(-1.18601,34.28187)">
      <g id="g109">
        <path id="path97" d="m 308.632,536.229 h 5.49 c 1.608,0 2.856,0.381 3.744,1.143 0.888,0.763 1.332,1.846 1.332,3.25 0,1.476 -0.444,2.621 -1.332,3.438 -0.888,0.816 -2.136,1.225 -3.744,1.225 h -2.286 v 3.545 h -3.204 z m 3.204,2.519 v 4.015 h 2.124 c 0.708,0 1.254,-0.174 1.638,-0.522 0.384,-0.348 0.576,-0.852 0.576,-1.512 0,-0.648 -0.192,-1.14 -0.576,-1.477 -0.384,-0.335 -0.93,-0.504 -1.638,-0.504 z" />
        <path id="path99" d="m 328.468,548.828 -1.872,-3.545 h -0.09 -2.43 v 3.545 h -3.204 v -12.6 h 5.634 c 1.668,0 2.958,0.381 3.87,1.143 0.912,0.763 1.368,1.846 1.368,3.25 0,1.943 -0.762,3.293 -2.286,4.049 l 2.646,4.158 z m -4.392,-6.065 h 2.43 c 0.696,0 1.236,-0.174 1.62,-0.522 0.384,-0.348 0.576,-0.852 0.576,-1.512 0,-0.648 -0.192,-1.14 -0.576,-1.477 -0.384,-0.335 -0.924,-0.504 -1.62,-0.504 h -2.43 z" />
        <path id="path101" d="m 339.88,536.121 c 1.956,0 3.582,0.609 4.878,1.826 1.296,1.219 1.944,2.739 1.944,4.563 0,1.836 -0.651,3.372 -1.953,4.608 -1.302,1.235 -2.925,1.854 -4.869,1.854 -1.944,0 -3.564,-0.615 -4.86,-1.846 -1.296,-1.229 -1.944,-2.768 -1.944,-4.616 0,-1.836 0.648,-3.36 1.944,-4.572 1.296,-1.212 2.916,-1.817 4.86,-1.817 z m 0.036,2.682 c -0.984,0 -1.824,0.357 -2.52,1.07 -0.696,0.715 -1.044,1.6 -1.044,2.656 0,1.055 0.351,1.946 1.053,2.672 0.702,0.727 1.539,1.09 2.511,1.09 0.972,0 1.797,-0.363 2.475,-1.09 0.678,-0.726 1.017,-1.617 1.017,-2.672 0,-1.057 -0.339,-1.941 -1.017,-2.656 -0.678,-0.713 -1.503,-1.07 -2.475,-1.07 z" />
        <path id="path103" d="m 355.306,536.211 v 8.531 c 0,1.332 -0.387,2.371 -1.161,3.114 -0.774,0.744 -1.839,1.116 -3.195,1.116 -1.716,0 -3.162,-0.672 -4.338,-2.016 l 1.476,-2.143 c 0.9,0.936 1.782,1.404 2.646,1.404 0.9,0 1.35,-0.516 1.35,-1.549 v -5.867 h -4.32 v -2.592 h 7.542 z" />
        <path id="path105" d="m 367.474,538.748 h -6.66 v 2.502 h 6.012 v 2.521 h -6.012 v 2.538 h 6.858 v 2.52 H 357.61 v -12.6 h 9.864 z" />
        <path id="path107" d="m 379.372,538.803 h -3.798 v 10.025 h -3.204 v -10.025 h -3.762 v -2.592 h 10.764 z" />
      </g>
    </g>
  </g>
  <g style="display:inline" id="layer20" transform="translate(20)">
    <g style="display:inline" id="fond_categorie" transform="translate(-1.186,34.28187)">
      <polygon id="polygon112" points="196.922,512.767 655.738,512.767 655.738,273.129 426.333,140.685 196.922,273.135 " fill="#b7d5e2" />
    </g>
  </g>
  <g style="display:inline" id="layer19" transform="translate(20)">
    <g transform="translate(-1.18601,34.28187)" id="picto_posture" style="display:inline">
      <g id="g135">
        <g id="g133">
          <g id="g131">
            <g id="g129">
              <g id="g127">
                <g id="g117">
                  <polygon fill="#14110d" points="445.876,110.963 447.148,110.963 447.107,110.875 445.876,110.875 " id="polygon115" />
                </g>
                <g id="g121">
                  <polygon fill="#14110d" points="406.545,110.963 406.545,110.875 405.56,110.875 405.517,110.963 " id="polygon119" />
                </g>
                <polygon fill="#473467" points="424.881,51.416 424.319,50.443 422.373,51.566 423.497,53.513 424.47,52.951 425.031,53.924 429.897,51.115 428.774,49.168 " id="polygon123" />
                <path fill="#473467" d="m 475.116,32.793 0.974,-0.562 -6.743,-11.678 -0.973,0.562 -1.124,-1.946 -14.598,8.428 1.124,1.946 -31.143,17.98 -0.562,-0.974 1.946,-1.124 -0.563,-0.973 4.866,-2.809 0.562,0.973 2.92,-1.686 -2.81,-4.866 -2.919,1.686 0.562,0.973 -5.136,2.965 c -0.672,-0.385 -1.52,-0.42 -2.238,-0.005 -0.718,0.415 -1.112,1.167 -1.114,1.941 l -7.083,4.089 -0.562,-0.974 -3.893,2.248 2.81,4.866 3.893,-2.248 -0.563,-0.973 4.866,-2.81 0.562,0.973 -1.946,1.124 0.563,0.973 4.782,-2.761 -14.515,8.38 1.686,2.919 -23.356,13.485 -1.123,-1.946 -1.947,1.124 -1.123,-1.946 0.973,-0.562 -1.123,-1.947 -4.866,2.81 1.124,1.946 0.973,-0.562 1.124,1.946 1.124,1.946 3.371,5.839 25.302,-14.605 0.562,0.973 2.92,-1.686 1.124,1.946 6.812,-3.933 1.124,1.946 0.974,-0.562 0.562,0.973 0.364,-0.21 c -0.021,0.148 -0.045,0.296 -0.045,0.451 0,0.255 0.035,0.501 0.091,0.739 l -20.593,43.368 h -2.167 v 2.248 h 1.259 l 2.112,-1.567 0.311,-0.769 h 0.951 l 19.702,-41.183 c 0.126,0.072 0.251,0.143 0.387,0.198 v 33.629 h -1.123 v 2.248 h 1.123 2.248 1.124 v -2.248 h -1.124 V 69.95 c 0.106,-0.035 0.214,-0.067 0.315,-0.113 l 18.896,41.038 h 0.868 l 0.283,0.769 2.112,1.567 h 1.124 v -2.248 h -1.952 L 429.93,67.996 c 0.133,-0.356 0.215,-0.737 0.215,-1.14 0,-0.101 -0.021,-0.197 -0.029,-0.295 l 1.66,-0.958 -1.124,-1.947 0.974,-0.562 -0.563,-0.973 3.894,-2.248 -0.563,-0.973 0.974,-0.562 -1.124,-1.946 26.276,-15.17 1.124,1.946 14.598,-8.428 z m -65.846,18.553 -1.123,-1.946 0.973,-0.562 1.124,1.946 z m 19.313,-13.745 1.124,1.946 -0.974,0.562 -1.123,-1.947 z m -7.635,7.003 v 0 0 l -7.785,4.495 -0.563,-0.973 6.813,-3.933 c -0.311,-0.538 -0.126,-1.225 0.411,-1.535 0.538,-0.31 1.225,-0.126 1.535,0.411 l 4.866,-2.809 0.562,0.973 z m -36.228,33.892 -0.562,-0.973 0.973,-0.562 -0.562,-0.973 -0.974,0.562 26.276,-15.17 1.124,1.947 z m 38.968,-13.415 -1.686,-2.92 0.974,-0.562 1.66,2.875 c -0.05,0.046 -0.097,0.093 -0.144,0.142 z m 32.787,-24.12 -0.562,-0.973 -0.973,0.562 0.562,0.973 -0.974,0.562 -0.562,-0.973 -0.974,0.562 0.563,0.973 -0.974,0.562 -0.562,-0.974 -0.974,0.562 0.563,0.973 -0.974,0.562 -0.562,-0.973 -0.974,0.562 0.563,0.973 -0.974,0.562 -0.562,-0.973 -0.974,0.562 0.562,0.973 -0.973,0.562 -0.562,-0.973 -0.974,0.562 0.562,0.973 -0.973,0.562 -0.562,-0.973 -0.974,0.562 0.562,0.973 -0.973,0.562 -0.563,-0.973 -0.973,0.562 0.562,0.973 -0.973,0.562 -0.563,-0.973 -0.973,0.562 0.562,0.973 -0.973,0.562 -0.563,-0.974 -0.973,0.562 0.562,0.973 -0.974,0.562 -0.562,-0.973 -0.973,0.562 0.562,0.974 -0.974,0.562 -0.562,-0.973 -0.974,0.562 0.563,0.973 -0.974,0.562 -0.562,-0.973 -0.974,0.562 0.563,0.973 -0.974,0.562 -0.562,-0.973 -0.974,0.562 0.562,0.973 -0.973,0.562 -0.562,-0.974 -0.974,0.562 0.563,0.973 -0.974,0.562 -0.562,-0.973 -0.974,0.562 0.562,0.973 -0.973,0.562 -0.562,-0.973 -0.974,0.562 0.562,0.973 -0.973,0.562 -0.563,-0.973 -0.973,0.562 0.562,0.974 -0.973,0.562 -0.563,-0.973 -0.973,0.562 0.562,0.973 -0.973,0.562 -0.563,-0.973 -0.973,0.562 0.562,0.974 -0.973,0.562 -0.563,-0.973 -0.973,0.562 0.562,0.973 -0.974,0.562 -0.562,-0.974 -0.973,0.562 0.562,0.973 v 0 l -4.495,-7.785 42.82,-24.723 1.124,1.947 -20.422,11.794 0.563,0.973 20.437,-11.799 1.686,2.919 -0.973,0.562 0.562,0.973 0.973,-0.562 0.563,0.973 z m 7.936,-1.987 -0.562,-0.973 -0.974,0.562 0.562,0.973 -0.973,0.562 -0.563,-0.973 0.974,-0.562 -0.562,-0.973 -0.974,0.562 0.031,0.054 -0.91,-1.577 0.317,0.55 0.973,-0.562 -0.562,-0.973 -0.974,0.562 -0.562,-0.973 0.974,-0.562 -0.563,-0.973 -0.973,0.562 -1.686,-2.919 0.973,-0.562 -0.562,-0.973 -0.974,0.562 -0.562,-0.973 0.974,-0.562 -0.563,-0.973 -0.973,0.562 10.705,-6.181 6.742,11.678 z" id="path125" />
              </g>
            </g>
          </g>
        </g>
      </g>
    </g>
  </g>
  <g style="display:inline" id="layer18" transform="translate(20)">
    <g style="display:inline" id="filet_1_categorie" transform="translate(-1.18601,34.28187)">
      <g id="g142">
        <path id="path138" d="m 356.643,98.718 -164.196,94.799 c -4.66,2.691 -9.407,10.912 -9.407,16.29 v 36.703" stroke-miterlimit="10" stroke-width="2" stroke="#473467" fill="none" />
        <path id="path140" d="m 669.621,246.503 v -36.696 c 0,-5.379 -4.746,-13.602 -9.404,-16.294 L 495.531,98.434" stroke-miterlimit="10" stroke-width="2" stroke="#473467" fill="none" />
      </g>
      <path id="path144" d="m 183.039,564.653 v 40.705 c 0,5.376 4.747,13.599 9.407,16.294 l 224.486,129.604 c 1.679,0.971 5.028,2.008 9.397,2.008 4.373,0 7.729,-1.037 9.411,-2.012 L 660.216,621.648 c 4.658,-2.687 9.404,-10.908 9.404,-16.29 v -41.672" stroke-miterlimit="10" stroke-width="2" stroke="#473467" fill="none" />
    </g>
  </g>
  <g style="display:inline" id="layer17" transform="translate(20)">
    <g style="display:inline" id="filet_2_categorie" transform="translate(-1.18601,34.28187)">
      <path id="path147" d="m 426.383,701.627 c -4.464,0 -7.848,-1.034 -9.525,-2.005 L 176.511,560.861 c -4.631,-2.677 -9.536,-11.168 -9.536,-16.518 V 266.822 c 0,-5.35 4.905,-13.838 9.536,-16.513 L 416.85,111.549 c 1.678,-0.971 5.063,-2.007 9.533,-2.007 4.47,0 7.855,1.036 9.532,2.003 l 240.343,138.76 c 4.636,2.679 9.533,11.167 9.533,16.517 v 277.521 c 0,5.35 -4.897,13.841 -9.533,16.514 L 435.923,699.618 c -1.685,0.975 -5.069,2.009 -9.54,2.009 z" stroke-miterlimit="10" stroke-width="27" stroke="#009eb9" fill="none" opacity="0.2" />
    </g>
  </g>












  <g style="display:inline" id="layer16" transform="translate(20)">
    <g style="display:inline" id="filet_3_posture" transform="translate(-1.18601,34.28187)">
      <path id="path150" d="m 426.33,701.628 c -4.464,0 -7.848,-1.037 -9.525,-2.008 L 176.458,560.861 c -4.631,-2.679 -9.536,-11.168 -9.536,-16.518 V 266.822 c 0,-5.35 4.905,-13.839 9.536,-16.513 L 416.797,111.55 c 1.678,-0.971 5.063,-2.007 9.533,-2.007 4.47,0 7.855,1.037 9.532,2.003 l 240.343,138.759 c 4.636,2.678 9.533,11.168 9.533,16.518 v 277.521 c 0,5.35 -4.897,13.839 -9.533,16.514 L 435.87,699.616 c -1.684,0.975 -5.069,2.012 -9.54,2.012 z" stroke-miterlimit="10" stroke-width="3" stroke="#009eb9" fill="none" />
    </g>
  </g>
  <g style="display:inline" id="layer15" transform="translate(20)">
    <g style="display:inline" id="texte_titre_badge" transform="translate(-1.186,34.28187)">
      <g id="g188">
        <path id="path158" d="m 261.219,490.641 2.844,0.359 v 4.572 H 252.184 V 491 l 2.844,-0.359 v -14.723 h -3.636 l -0.539,3.564 h -4.607 l 0.18,-8.676 h 23.396 l 0.181,8.676 h -4.607 l -0.54,-3.564 h -3.636 v 14.723 z" fill="#009eb9" />
        <path id="path160" d="M 271.697,495.572 V 491 l 2.844,-0.359 v -14.867 l -2.844,-0.395 v -4.572 h 11.879 v 4.572 l -2.844,0.395 v 14.867 l 2.844,0.359 v 4.572 z" fill="#009eb9" />
        <path id="path162" d="M 300.207,490.641 303.05,491 v 4.572 H 291.171 V 491 l 2.844,-0.359 v -14.723 h -3.636 l -0.539,3.564 h -4.607 l 0.18,-8.676 h 23.396 l 0.181,8.676 h -4.607 l -0.54,-3.564 h -3.636 z" fill="#009eb9" />
        <path id="path164" d="m 327.422,495.572 -4.536,-8.676 h -3.167 v 3.744 l 3.635,0.359 v 4.572 h -12.67 V 491 l 2.844,-0.359 v -14.867 l -2.844,-0.395 v -4.572 h 13.462 c 5.04,0 8.495,2.844 8.495,7.631 0,4.068 -1.691,5.688 -4.067,6.984 v 0.18 c 0,0 0.396,0.287 0.684,0.791 l 2.484,4.248 3.167,0.359 v 4.572 z m -4.824,-13.498 c 2.628,0 3.78,-1.045 3.78,-3.275 0,-1.945 -1.404,-2.881 -3.78,-2.881 h -2.879 v 6.156 z" fill="#009eb9" />
        <path id="path166" d="M 336.352,495.572 V 491 l 2.808,-0.359 v -14.902 l -2.808,-0.359 v -4.572 h 20.409 l 0.145,8.676 h -4.607 l -0.54,-3.564 h -6.407 v 4.787 h 5.363 v 4.932 h -5.363 v 4.824 h 6.335 l 0.54,-3.564 h 4.607 l -0.252,8.676 h -20.23 z" fill="#009eb9" />
        <path id="path168" d="M 366.483,495.572 V 491 l 2.844,-0.359 v -14.902 l -2.844,-0.359 v -4.572 h 12.131 c 6.119,0 12.13,3.24 12.13,12.203 0,9.826 -5.939,12.563 -11.555,12.563 h -12.706 z m 11.23,-5.111 c 4.212,0 6.768,-1.621 6.768,-7.451 0,-4.969 -2.664,-7.092 -7.235,-7.092 h -1.728 v 14.543 z" fill="#009eb9" />
        <path id="path170" d="m 409.968,475.773 -2.844,-0.395 v -4.572 h 11.519 v 4.572 l -2.844,0.395 v 10.691 c 0,6.264 -3.743,9.359 -10.366,9.359 -6.623,0 -10.511,-3.096 -10.511,-9.359 v -10.691 l -2.844,-0.395 v -4.572 h 11.879 v 4.572 l -2.844,0.395 v 10.295 c 0,1.945 0.792,4.572 4.319,4.572 2.88,0 4.535,-2.053 4.535,-4.393 v -10.474 z" fill="#009eb9" />
        <path id="path172" d="M 427.357,495.572 V 491 l 2.844,-0.359 v -14.902 l -2.844,-0.359 v -4.572 h 10.295 c 7.092,0 10.654,1.729 10.654,6.66 0,4.211 -2.664,5.002 -3.635,5.291 v 0.287 c 1.764,0.217 5.398,1.188 5.398,5.76 0,4.248 -2.482,6.768 -10.043,6.768 h -12.669 z m 12.059,-14.722 c 1.656,0 2.629,-0.973 2.629,-2.447 0,-1.764 -1.404,-2.484 -2.988,-2.484 h -2.664 v 4.932 h 3.023 z m -3.023,4.642 v 4.969 h 3.924 c 2.52,0 3.492,-0.684 3.492,-2.447 0,-1.584 -1.225,-2.521 -2.988,-2.521 h -4.428 z" fill="#009eb9" />
        <path id="path174" d="m 475.055,490.641 2.52,0.359 v 4.572 H 466.417 V 491 l 2.699,-0.359 -0.9,-2.375 h -8.387 l -0.898,2.375 2.699,0.359 v 4.572 H 450.65 V 491 l 2.52,-0.359 5.65,-14.902 -3.168,-0.18 v -4.752 h 11.879 z m -10.151,-11.196 c -0.252,-0.646 -0.793,-2.195 -0.793,-2.195 h -0.18 c 0,0 -0.539,1.549 -0.791,2.195 l -1.549,4.104 h 4.859 z" fill="#009eb9" />
        <path id="path176" d="M 478.91,495.572 V 491 l 2.844,-0.359 v -14.902 l -2.844,-0.359 v -4.572 h 12.131 c 6.119,0 12.129,3.24 12.129,12.203 0,9.826 -5.939,12.563 -11.555,12.563 H 478.91 Z m 11.231,-5.111 c 4.211,0 6.768,-1.621 6.768,-7.451 0,-4.969 -2.664,-7.092 -7.236,-7.092 h -1.727 v 14.543 z" fill="#009eb9" />
        <path id="path178" d="m 526.75,486.896 c 0,3.707 -2.051,8.928 -10.402,8.928 -6.803,0 -11.051,-3.924 -11.051,-12.67 0,-8.676 4.283,-12.563 11.051,-12.563 8.352,0 10.402,4.355 10.402,7.486 0,1.115 -0.252,1.871 -0.252,1.871 l -5.867,0.541 c 0,0 0.145,-0.541 0.145,-1.297 0,-1.475 -0.936,-3.455 -4.104,-3.455 -2.844,0 -5.111,1.799 -5.111,7.523 0,5.65 2.484,7.379 5.326,7.379 2.736,0 3.744,-1.188 3.852,-3.203 l -3.49,-0.361 v -4.211 h 9.502 v 4.032 z" fill="#009eb9" />
        <path id="path180" d="M 529.236,495.572 V 491 l 2.809,-0.359 v -14.902 l -2.809,-0.359 v -4.572 h 20.41 l 0.145,8.676 h -4.607 l -0.541,-3.564 h -6.406 v 4.787 h 5.363 v 4.932 h -5.363 v 4.824 h 6.334 l 0.541,-3.564 h 4.607 l -0.252,8.676 h -20.231 z" fill="#009eb9" />
        <path id="path182" d="M 559.367,495.572 V 491 l 2.844,-0.359 v -14.867 l -2.844,-0.395 v -4.572 h 11.879 v 4.572 l -2.844,0.395 v 14.867 l 2.844,0.359 v 4.572 z" fill="#009eb9" />
        <path id="path184" d="m 588.85,486.824 v -0.684 l 5.977,1.225 v 0.611 c 0,3.275 -2.088,7.848 -10.584,7.848 -6.695,0 -10.869,-3.924 -10.869,-12.67 0,-8.676 4.283,-12.563 11.051,-12.563 8.35,0 10.402,4.787 10.402,8.207 0,1.115 -0.252,1.871 -0.252,1.871 l -5.867,0.719 c 0,0 0.143,-0.611 0.143,-1.475 0,-1.764 -0.936,-4.176 -4.104,-4.176 -2.844,0 -5.111,1.799 -5.111,7.523 0,5.65 2.412,7.379 5.148,7.379 3.095,0.002 4.066,-1.438 4.066,-3.815 z" fill="#009eb9" />
        <path id="path186" d="M 597.133,495.572 V 491 l 2.844,-0.359 v -14.867 l -2.844,-0.395 v -4.572 h 11.879 v 4.572 l -2.844,0.395 v 14.867 l 2.844,0.359 v 4.572 z" fill="#009eb9" />
      </g>
    </g>
  </g>
  <g style="display:inline" id="layer14" transform="translate(20)">
    <g style="display:inline" id="picto_titre_badge" transform="translate(-1.18601,34.28187)">
      <path id="path153" d="m 366.926,287.595 c 6.838,6.565 15.277,11.79 25.083,15.524 9.803,3.74 21.309,5.637 34.201,5.637 12.718,0 24.181,-1.896 34.066,-5.637 9.894,-3.734 18.376,-8.957 25.212,-15.524 6.844,-6.575 12.201,-14.362 15.921,-23.142 1.628,-3.848 2.979,-7.929 4.022,-12.149 h -50.095 c -1.32,2.271 -2.651,4.157 -4.063,5.749 -5.457,6.156 -13.89,9.281 -25.063,9.281 -13.571,0 -17.24,-0.455 -25.189,-9.276 -1.438,-1.586 -2.755,-3.425 -4.119,-5.754 H 346.98 c 1.039,4.203 2.394,8.286 4.034,12.146 3.72,8.792 9.074,16.577 15.912,23.145 z" fill="#009eb9" />
      <path id="path155" d="m 507.814,397.887 c -0.522,-9.941 -2.679,-19.45 -6.406,-28.25 -3.718,-8.766 -9.071,-16.498 -15.915,-22.979 -6.833,-6.472 -15.321,-11.696 -25.223,-15.527 -9.897,-3.822 -21.356,-5.761 -34.062,-5.761 -12.876,0 -24.382,1.938 -34.193,5.759 -9.815,3.834 -18.259,9.061 -25.095,15.529 -6.839,6.471 -12.189,14.203 -15.907,22.979 -3.729,8.788 -5.887,18.293 -6.411,28.255 -0.363,7.872 -0.524,33.046 -0.524,41.286 0,0.611 0.007,1.196 0.017,1.784 l 0.003,0.185 h 46.763 l -0.005,-0.351 c -0.011,-0.714 -0.024,-1.425 -0.024,-2.158 0,-3.904 0.047,-25.099 0.141,-29.026 0.096,-4.07 0.312,-7.518 0.658,-10.537 0.357,-4.543 1.316,-8.836 2.848,-12.723 1.539,-3.897 3.748,-7.335 6.569,-10.221 2.821,-2.893 6.362,-5.203 10.516,-6.865 4.15,-1.662 9.077,-2.507 14.646,-2.507 5.568,0 10.496,0.845 14.647,2.507 4.145,1.662 7.686,3.971 10.522,6.863 2.814,2.893 5.021,6.33 6.561,10.221 1.526,3.881 2.484,8.174 2.848,12.76 0.178,3.105 0.355,6.586 0.536,10.478 0.17,3.944 0.255,25.146 0.255,29.051 0,0.644 -0.019,1.269 -0.036,1.894 -0.007,0.206 -0.012,0.41 -0.018,0.615 h 46.806 l 0.002,-0.236 c 0.009,-0.569 0.017,-1.137 0.017,-1.732 -0.001,-8.86 -0.181,-33.589 -0.536,-41.293 z" fill="#009eb9" />
    </g>
  </g>
</svg>
