<?xml version="1.0" encoding="UTF-8" standalone="no"?>
<svg xmlns:dc="http://purl.org/dc/elements/1.1/"
  xmlns:cc="http://creativecommons.org/ns#"
  xmlns:rdf="http://www.w3.org/1999/02/22-rdf-syntax-ns#"
  xmlns:svg="http://www.w3.org/2000/svg"
  xmlns="http://www.w3.org/2000/svg"
  xmlns:xlink="http://www.w3.org/1999/xlink" version="1.1" x="0px" y="0px" width="100%" height="100%" viewBox="0 0 888.18899 888.18898" enable-background="new 0 0 850.394 841.89" xml:space="preserve" id="svg2303">
  <metadata id="metadata2309">
    <rdf:RDF>
      <cc:Work rdf:about="">
        <dc:format>image/svg+xml</dc:format>
        <dc:type rdf:resource="http://purl.org/dc/dcmitype/StillImage" />
        <dc:title></dc:title>
      </cc:Work>
    </rdf:RDF>
  </metadata>
  <defs id="defs2307">
    <linearGradient y2="116.8174" x2="420.56351" y1="116.8174" x1="257.7666" gradientUnits="userSpaceOnUse" id="SVGID_1_">
      <stop id="stop2215" style="stop-color:#FFFFFF" offset="0" />
      <stop id="stop2217" style="stop-color:#8D7D9F" offset="0.4515" />
      <stop id="stop2219" style="stop-color:#473467" offset="1" />
    </linearGradient>
    <linearGradient gradientTransform="matrix(-1,0,0,1,1066.5762,0)" y2="116.8174" x2="634.80957" y1="116.8174" x1="472.0127" gradientUnits="userSpaceOnUse" id="SVGID_2_">
      <stop id="stop2224" style="stop-color:#FFFFFF" offset="0" />
      <stop id="stop2226" style="stop-color:#8D7D9F" offset="0.4515" />
      <stop id="stop2228" style="stop-color:#473467" offset="1" />
    </linearGradient>
    <clipPath id="SVGID_2_-4">
      <use height="100%" width="100%" y="0" x="0" xlink:href="#SVGID_1_-0" overflow="visible" id="use122" />
    </clipPath>
    <clipPath id="SVGID_4_">
      <use height="100%" width="100%" y="0" x="0" xlink:href="#SVGID_3_" overflow="visible" id="use132" />
    </clipPath>
    <path id="SVGID_1_-0" d="m 404.664,50.394 c 1.172,3.438 3.039,6.252 4.836,8.439 l -19.805,17.313 c -3.164,-1.836 -6.135,-4.258 -8.674,-7.969 l -13.156,3.746 c 0,0 -1.5,20.816 0.125,20.816 1.625,0 20.75,-1.5 22,-1.5 1.25,0 37.625,-22.125 37.625,-22.125 l 13.875,-38 c 0,0 -0.625,-12.084 -1,-12.291 -0.375,-0.209 -36.375,17.006 -36.375,17.006 z" />
    <path id="SVGID_3_" d="m 453.475,81.825 c 1.949,-1.783 5.014,-5.445 6.551,-8.467 l 18.717,21.805 0.957,1.021 c -2.836,3.092 -6.361,5.285 -9.527,6.563 l 4.693,17.242 13.125,9.75 0.375,-10.625 c 0,0 -5.125,-47.875 -5.375,-48.25 -0.25,-0.375 -24.334,-23.75 -24.334,-23.75 0,0 -13.166,1.125 -13.166,1.5 0,0.375 -9.506,10 -9.506,10 l 5.662,19.625 z" />
    <clipPath id="SVGID_2_-4-8">
      <use id="use122-9" overflow="visible" xlink:href="#SVGID_1_-0" x="0" y="0" width="100%" height="100%" />
    </clipPath>
    <clipPath id="SVGID_4_-4">
      <use id="use132-1" overflow="visible" xlink:href="#SVGID_3_" x="0" y="0" width="100%" height="100%" />
    </clipPath>
    <path d="m 404.664,50.394 c 1.172,3.438 3.039,6.252 4.836,8.439 l -19.805,17.313 c -3.164,-1.836 -6.135,-4.258 -8.674,-7.969 l -13.156,3.746 c 0,0 -1.5,20.816 0.125,20.816 1.625,0 20.75,-1.5 22,-1.5 1.25,0 37.625,-22.125 37.625,-22.125 l 13.875,-38 c 0,0 -0.625,-12.084 -1,-12.291 -0.375,-0.209 -36.375,17.006 -36.375,17.006 z" id="path300" />
    <path d="m 453.475,81.825 c 1.949,-1.783 5.014,-5.445 6.551,-8.467 l 18.717,21.805 0.957,1.021 c -2.836,3.092 -6.361,5.285 -9.527,6.563 l 4.693,17.242 13.125,9.75 0.375,-10.625 c 0,0 -5.125,-47.875 -5.375,-48.25 -0.25,-0.375 -24.334,-23.75 -24.334,-23.75 0,0 -13.166,1.125 -13.166,1.5 0,0.375 -9.506,10 -9.506,10 l 5.662,19.625 z" id="path307" />
    <linearGradient y2="34.083" x2="419.22461" y1="34.083" x1="256.4277" gradientUnits="userSpaceOnUse" id="SVGID_1_-1" gradientTransform="translate(-0.52877063,-24.950401)">
      <stop id="stop95" style="stop-color:#FFFFFF" offset="0" />
      <stop id="stop97" style="stop-color:#8D7D9F" offset="0.4515" />
      <stop id="stop99" style="stop-color:#473467" offset="1" />
    </linearGradient>
    <linearGradient gradientTransform="matrix(-1,0,0,1,1066.0474,-24.950401)" y2="34.083" x2="636.14838" y1="34.083" x1="473.35159" gradientUnits="userSpaceOnUse" id="SVGID_2_-1">
      <stop id="stop104" style="stop-color:#FFFFFF" offset="0" />
      <stop id="stop106" style="stop-color:#8D7D9F" offset="0.4515" />
      <stop id="stop108" style="stop-color:#473467" offset="1" />
    </linearGradient>
    <linearGradient gradientTransform="translate(-0.52877,-24.9504)" id="SVGID_1_-1-5" gradientUnits="userSpaceOnUse" x1="256.4277" y1="34.083" x2="419.22461" y2="34.083">
      <stop offset="0" style="stop-color:#FFFFFF" id="stop95-6" />
      <stop offset="0.4515" style="stop-color:#8D7D9F" id="stop97-9" />
      <stop offset="1" style="stop-color:#473467" id="stop99-4" />
    </linearGradient>
    <linearGradient id="SVGID_2_-1-0" gradientUnits="userSpaceOnUse" x1="473.35159" y1="34.083" x2="636.14838" y2="34.083" gradientTransform="matrix(-1,0,0,1,1066.0474,-24.950401)">
      <stop offset="0" style="stop-color:#FFFFFF" id="stop104-4" />
      <stop offset="0.4515" style="stop-color:#8D7D9F" id="stop106-9" />
      <stop offset="1" style="stop-color:#473467" id="stop108-8" />
    </linearGradient>
    <linearGradient gradientTransform="translate(0,-6)" id="SVGID_1_-6" gradientUnits="userSpaceOnUse" x1="275.50049" y1="42.818401" x2="438.29739" y2="42.818401">
      <stop offset="0" style="stop-color:#FFFFFF" id="stop111" />
      <stop offset="0.4515" style="stop-color:#8D7D9F" id="stop113" />
      <stop offset="1" style="stop-color:#473467" id="stop115" />
    </linearGradient>
    <linearGradient id="SVGID_2_-2" gradientUnits="userSpaceOnUse" x1="482.62549" y1="42.818401" x2="645.42242" y2="42.818401" gradientTransform="matrix(-1,0,0,1,1094.9229,-5.999996)">
      <stop offset="0" style="stop-color:#FFFFFF" id="stop120" />
      <stop offset="0.4515" style="stop-color:#8D7D9F" id="stop122" />
      <stop offset="1" style="stop-color:#473467" id="stop124" />
    </linearGradient>
    <linearGradient y2="42.818401" x2="438.29739" y1="42.818401" x1="275.50049" gradientUnits="userSpaceOnUse" id="SVGID_1_-6-5" gradientTransform="translate(0,-6)">
      <stop id="stop111-4" style="stop-color:#FFFFFF" offset="0" />
      <stop id="stop113-6" style="stop-color:#8D7D9F" offset="0.4515" />
      <stop id="stop115-2" style="stop-color:#473467" offset="1" />
    </linearGradient>
    <linearGradient gradientTransform="matrix(-1,0,0,1,1094.9229,-5.999996)" y2="42.818401" x2="645.42242" y1="42.818401" x1="482.62549" gradientUnits="userSpaceOnUse" id="SVGID_2_-2-4">
      <stop id="stop120-0" style="stop-color:#FFFFFF" offset="0" />
      <stop id="stop122-0" style="stop-color:#8D7D9F" offset="0.4515" />
      <stop id="stop124-0" style="stop-color:#473467" offset="1" />
    </linearGradient>
    <clipPath id="SVGID_2_-8">
      <use id="use134" overflow="visible" xlink:href="#SVGID_1_-5" x="0" y="0" width="100%" height="100%" />
    </clipPath>
    <clipPath id="SVGID_4_-9">
      <use id="use144" overflow="visible" xlink:href="#SVGID_3_-1" x="0" y="0" width="100%" height="100%" />
    </clipPath>
    <path d="m 403.412,46.445 c 1.172,3.438 3.038,6.25 4.835,8.438 l -19.805,17.314 c -3.164,-1.836 -6.134,-4.259 -8.673,-7.97 l -13.157,3.746 c 0,0 -1.5,20.817 0.125,20.817 1.625,0 20.75,-1.5 22,-1.5 1.25,0 37.625,-22.125 37.625,-22.125 l 13.875,-38 c 0,0 -0.625,-12.085 -1,-12.293 -0.375,-0.207 -36.375,17.007 -36.375,17.007 z" id="SVGID_1_-5" />
    <path d="m 452.223,77.876 c 1.949,-1.783 5.013,-5.446 6.55,-8.466 l 18.717,21.805 0.958,1.021 c -2.836,3.093 -6.362,5.285 -9.528,6.563 l 4.693,17.243 13.125,9.75 0.375,-10.625 c 0,0 -5.125,-47.875 -5.375,-48.25 -0.25,-0.375 -24.334,-23.75 -24.334,-23.75 0,0 -13.166,1.125 -13.166,1.5 0,0.375 -9.506,10 -9.506,10 l 5.663,19.625 z" id="SVGID_3_-1" />
    <clipPath id="SVGID_2_-8-6">
      <use height="100%" width="100%" y="0" x="0" xlink:href="#SVGID_1_-5" overflow="visible" id="use134-7" />
    </clipPath>
    <clipPath id="SVGID_4_-9-4">
      <use height="100%" width="100%" y="0" x="0" xlink:href="#SVGID_3_-1" overflow="visible" id="use144-6" />
    </clipPath>
    <path id="path367" d="m 403.412,46.445 c 1.172,3.438 3.038,6.25 4.835,8.438 l -19.805,17.314 c -3.164,-1.836 -6.134,-4.259 -8.673,-7.97 l -13.157,3.746 c 0,0 -1.5,20.817 0.125,20.817 1.625,0 20.75,-1.5 22,-1.5 1.25,0 37.625,-22.125 37.625,-22.125 l 13.875,-38 c 0,0 -0.625,-12.085 -1,-12.293 -0.375,-0.207 -36.375,17.007 -36.375,17.007 z" />
    <path id="path374" d="m 452.223,77.876 c 1.949,-1.783 5.013,-5.446 6.55,-8.466 l 18.717,21.805 0.958,1.021 c -2.836,3.093 -6.362,5.285 -9.528,6.563 l 4.693,17.243 13.125,9.75 0.375,-10.625 c 0,0 -5.125,-47.875 -5.375,-48.25 -0.25,-0.375 -24.334,-23.75 -24.334,-23.75 0,0 -13.166,1.125 -13.166,1.5 0,0.375 -9.506,10 -9.506,10 l 5.663,19.625 z" />
  </defs>
  <!-- <g id="layer1">
    <g transform="translate(18.525,34)" id="filet_3_posture" style="display:inline;fill:#ffffff;stroke:none">
      <path fill="none" stroke="#009eb9" stroke-width="12" stroke-miterlimit="10" d="m 426.33,716.313 c -4.464,0 -7.848,-1.037 -9.525,-2.008 L 176.458,575.547 c -4.631,-2.68 -9.536,-11.167 -9.536,-16.518 V 281.508 c 0,-5.35 4.905,-13.839 9.536,-16.514 L 416.797,126.235 c 1.678,-0.971 5.063,-2.008 9.533,-2.008 4.47,0 7.855,1.037 9.533,2.004 L 676.205,264.99 c 4.636,2.679 9.533,11.168 9.533,16.518 v 277.521 c 0,5.351 -4.897,13.838 -9.533,16.514 L 435.87,714.301 c -1.684,0.974 -5.069,2.012 -9.54,2.012 z" id="path168-1" style="fill:#ffffff;stroke:none" />
    </g>
  </g> -->
  <g id="layer26" style="display:inline">
    <g id="texte_posture" transform="translate(18.525,34)">
      <g id="g24">
        <path id="path2" d="m 301.894,736.482 -11.79,14.848 c -1.841,2.318 -3.949,3.59 -6.324,3.814 -2.375,0.227 -4.742,-0.599 -7.103,-2.473 -2.986,-2.371 -4.574,-5.539 -4.763,-9.503 l 5.528,-1.688 c 0.272,2.873 1.161,4.906 2.665,6.101 1.565,1.243 3.062,0.968 4.488,-0.829 l 8.109,-10.211 -7.519,-5.971 3.582,-4.51 z" fill="#473467" />
        <path id="path4" d="m 322.157,756.583 -12.489,-7.942 -2.983,4.692 11.273,7.169 -3.005,4.726 -11.273,-7.169 -3.026,4.759 12.859,8.179 -3.005,4.725 -18.868,-11.998 15.025,-23.627 18.497,11.762 z" fill="#473467" />
        <path id="path6" d="m 352,764.229 c 1.924,0.79 3.655,1.962 5.194,3.515 1.538,1.555 2.688,3.266 3.449,5.135 l -5.664,2.95 c -0.414,-1.38 -1.083,-2.612 -2.006,-3.698 -0.925,-1.086 -1.966,-1.866 -3.125,-2.342 -2.048,-0.84 -4.059,-0.822 -6.032,0.054 -1.975,0.876 -3.396,2.376 -4.267,4.497 -0.892,2.172 -0.945,4.268 -0.16,6.29 0.784,2.022 2.2,3.454 4.248,4.294 1.085,0.445 2.325,0.638 3.72,0.576 1.395,-0.063 2.74,-0.375 4.038,-0.938 l 2.178,5.65 c -1.993,0.854 -4.123,1.32 -6.389,1.398 -2.267,0.079 -4.35,-0.271 -6.249,-1.051 -3.898,-1.6 -6.621,-4.201 -8.168,-7.806 -1.548,-3.604 -1.542,-7.306 0.017,-11.104 1.528,-3.725 4.126,-6.299 7.794,-7.719 3.667,-1.419 7.475,-1.321 11.422,0.299 z" fill="#473467" />
        <path id="path8" d="m 378.379,772.703 c 4.221,1.041 7.405,3.221 9.553,6.537 2.148,3.318 2.737,6.945 1.767,10.88 -0.977,3.962 -3.198,6.93 -6.665,8.903 -3.467,1.975 -7.297,2.443 -11.491,1.41 -4.194,-1.035 -7.363,-3.223 -9.505,-6.566 -2.142,-3.343 -2.721,-7.01 -1.737,-10.996 0.977,-3.962 3.186,-6.904 6.626,-8.83 3.44,-1.926 7.258,-2.371 11.452,-1.338 z m -1.349,5.807 c -2.123,-0.523 -4.126,-0.2 -6.007,0.97 -1.882,1.171 -3.104,2.896 -3.665,5.173 -0.563,2.279 -0.279,4.388 0.85,6.328 1.128,1.939 2.741,3.168 4.838,3.686 2.098,0.517 4.07,0.173 5.92,-1.033 1.849,-1.205 3.055,-2.947 3.616,-5.227 0.562,-2.277 0.301,-4.367 -0.781,-6.27 -1.084,-1.901 -2.674,-3.111 -4.771,-3.627 z" fill="#473467" />
        <path id="path10" d="m 420.665,806.949 -6.262,-0.484 -11.51,-18.184 -1.331,17.188 -6.66,-0.516 2.163,-27.916 6.261,0.484 11.547,18.227 1.335,-17.229 6.62,0.514 z" fill="#473467" />
        <path id="path12" d="m 450.619,783.051 -8.421,0.576 1.521,22.229 -7.104,0.486 -1.521,-22.229 -8.341,0.57 -0.394,-5.746 23.864,-1.633 z" fill="#473467" />
        <path id="path14" d="m 476.079,800.732 -5.699,-6.85 -0.196,0.041 -5.283,1.116 1.63,7.71 -6.967,1.472 -5.789,-27.396 12.25,-2.588 c 3.626,-0.766 6.605,-0.53 8.939,0.707 2.332,1.238 3.821,3.383 4.467,6.436 0.893,4.227 -0.144,7.512 -3.109,9.855 l 7.663,7.825 z m -12.336,-11.171 5.283,-1.116 c 1.513,-0.319 2.606,-0.945 3.282,-1.879 0.675,-0.933 0.861,-2.117 0.558,-3.552 -0.298,-1.409 -0.941,-2.391 -1.931,-2.945 -0.989,-0.553 -2.241,-0.671 -3.754,-0.352 l -5.283,1.117 z" fill="#473467" />
        <path id="path16" d="m 498.239,794.27 -6.765,2.223 -8.736,-26.603 6.764,-2.222 z" fill="#473467" />
        <path id="path18" d="m 495.688,765.706 12.081,-5.417 c 2.871,-1.287 5.411,-1.732 7.621,-1.335 2.209,0.397 3.75,1.569 4.623,3.517 0.601,1.338 0.737,2.688 0.411,4.045 -0.326,1.359 -1.082,2.539 -2.271,3.539 1.748,-0.403 3.358,-0.234 4.831,0.508 1.473,0.742 2.58,1.941 3.321,3.596 0.972,2.166 0.861,4.283 -0.33,6.352 -1.191,2.069 -3.296,3.779 -6.313,5.132 l -12.52,5.614 z m 8.686,2.067 2.356,5.256 5.256,-2.357 c 0.948,-0.426 1.597,-1 1.943,-1.727 0.347,-0.725 0.335,-1.501 -0.036,-2.328 -0.36,-0.803 -0.924,-1.311 -1.69,-1.521 -0.766,-0.21 -1.625,-0.104 -2.574,0.32 z m 4.451,9.928 2.537,5.656 5.256,-2.355 c 1.216,-0.546 2.057,-1.23 2.521,-2.052 0.465,-0.821 0.495,-1.683 0.092,-2.583 -0.382,-0.852 -1.031,-1.371 -1.949,-1.56 -0.917,-0.188 -1.983,-0.009 -3.2,0.536 z" fill="#473467" />
        <path id="path20" d="m 543.507,740.088 8.597,13.778 c 1.962,3.146 2.545,6.247 1.75,9.304 -0.796,3.059 -2.856,5.625 -6.182,7.699 -3.349,2.09 -6.588,2.83 -9.718,2.221 -3.131,-0.609 -5.676,-2.486 -7.639,-5.631 l -8.596,-13.778 6.041,-3.769 8.596,13.778 c 0.988,1.584 2.233,2.56 3.735,2.927 1.502,0.367 2.988,0.092 4.459,-0.826 1.447,-0.902 2.318,-2.09 2.61,-3.561 0.292,-1.471 -0.063,-3.01 -1.064,-4.617 l -8.597,-13.777 z" fill="#473467" />
        <path id="path22" d="m 568.722,727.143 -11.505,9.311 3.497,4.322 10.386,-8.404 3.522,4.354 -10.386,8.404 3.548,4.384 11.847,-9.587 3.523,4.354 -17.383,14.065 -17.612,-21.767 17.04,-13.789 z" fill="#473467" />
      </g>
    </g>
  </g>
  <g id="layer25" style="display:inline">
    <g transform="translate(18.525002,34)" id="filet_separation_theme" style="display:inline">
      <line fill="none" stroke="#000000" stroke-width="2" stroke-miterlimit="10" x1="428.43799" y1="590.22699" x2="428.43799" y2="628.01001" id="line27" />
    </g>
  </g>
  <g id="layer24" style="display:inline">
    <g transform="translate(18.525,34)" id="picto_theme" style="display:inline">
      <g id="g34">
        <path fill="none" stroke="#000000" stroke-width="2" stroke-miterlimit="10" d="m 487.963,586.624 c 2.246,2.157 5.02,3.875 8.242,5.102 3.221,1.229 7.002,1.853 11.238,1.853 4.178,0 7.945,-0.623 11.193,-1.853 3.25,-1.227 6.039,-2.943 8.285,-5.102 2.249,-2.159 4.01,-4.719 5.231,-7.604 0.534,-1.265 0.978,-2.605 1.321,-3.992 h -16.461 c -0.434,0.747 -0.871,1.367 -1.334,1.889 -1.795,2.023 -4.565,3.05 -8.236,3.05 -4.46,0 -5.666,-0.149 -8.277,-3.048 -0.473,-0.521 -0.906,-1.125 -1.354,-1.891 h -16.404 c 0.342,1.382 0.787,2.724 1.326,3.991 1.223,2.889 2.982,5.448 5.23,7.605 z" id="path30" />
        <path fill="none" stroke="#000000" stroke-width="2" stroke-miterlimit="10" d="m 534.258,622.865 c -0.172,-3.267 -0.881,-6.391 -2.105,-9.282 -1.221,-2.881 -2.98,-5.422 -5.229,-7.551 -2.245,-2.127 -5.034,-3.843 -8.288,-5.102 -3.252,-1.256 -7.018,-1.894 -11.191,-1.894 -4.231,0 -8.013,0.638 -11.236,1.893 -3.225,1.26 -6,2.977 -8.246,5.103 -2.247,2.127 -4.006,4.668 -5.227,7.551 -1.226,2.889 -1.935,6.011 -2.107,9.284 -0.119,2.587 -0.172,10.858 -0.172,13.566 0,0.202 0.002,0.393 0.006,0.587 l 10e-4,0.061 h 15.365 l -0.001,-0.116 c -0.004,-0.233 -0.008,-0.467 -0.008,-0.709 0,-1.283 0.014,-8.247 0.045,-9.537 0.031,-1.337 0.103,-2.471 0.217,-3.463 0.117,-1.493 0.433,-2.904 0.936,-4.181 0.506,-1.28 1.231,-2.41 2.16,-3.358 0.926,-0.949 2.09,-1.709 3.453,-2.256 1.365,-0.546 2.984,-0.823 4.814,-0.823 1.828,0 3.448,0.277 4.813,0.823 1.361,0.546 2.525,1.306 3.457,2.255 0.925,0.951 1.65,2.08 2.156,3.358 0.501,1.276 0.816,2.687 0.936,4.194 0.059,1.02 0.117,2.163 0.176,3.441 0.057,1.296 0.084,8.262 0.084,9.546 0,0.212 -0.006,0.418 -0.012,0.624 -0.002,0.066 -0.004,0.133 -0.006,0.201 h 15.379 l 0.002,-0.078 c 0.003,-0.187 0.006,-0.373 0.006,-0.569 -0.002,-2.91 -0.063,-11.035 -0.178,-13.568 z" id="path32" />
      </g>
    </g>
  </g>
  <g id="layer23" style="display:inline">
    <g transform="translate(18.525,34)" id="texte_picto_theme" style="display:inline">
      <g id="g57">
        <path d="m 454.598,554.098 h -3.799 v 10.025 h -3.203 v -10.025 h -3.763 v -2.592 h 10.765 z" id="path37" />
        <path d="m 465.829,554.043 h -6.66 v 2.502 h 6.013 v 2.521 h -6.013 v 2.538 h 6.858 v 2.52 h -10.063 v -12.6 h 9.864 v 2.519 z" id="path39" />
        <path d="m 475.404,557.535 4.519,6.588 h -3.834 l -2.718,-4.014 -2.719,4.014 h -3.726 l 4.5,-6.443 -4.212,-6.156 h 3.727 l 2.43,3.672 2.43,-3.672 h 3.762 z" id="path41" />
        <path d="m 490.939,554.098 h -3.799 v 10.025 h -3.203 v -10.025 h -3.763 v -2.592 h 10.765 z" id="path43" />
        <path d="m 502.171,554.043 h -6.66 v 2.502 h 6.013 v 2.521 h -6.013 v 2.538 h 6.858 v 2.52 h -10.063 v -12.6 h 9.864 v 2.519 z" id="path45" />
        <path d="m 518.244,554.098 h -3.798 v 10.025 h -3.204 v -10.025 h -3.762 v -2.592 h 10.764 z" id="path47" />
        <path d="m 531.24,564.123 h -3.203 v -4.896 h -5.221 v 4.896 h -3.204 v -12.6 h 3.204 v 5.184 h 5.221 v -5.184 h 3.203 z" id="path49" />
        <path d="m 543.625,554.043 h -6.66 v 2.502 h 6.012 v 2.521 h -6.012 v 2.538 h 6.857 v 2.52 H 533.76 v -12.6 h 9.865 z m -3.312,-3.617 h -2.376 l -2.34,-2.034 2.808,-0.99 z" id="path51" />
        <path d="m 559.734,564.123 h -2.826 l -0.018,-8.189 -3.024,6.93 h -2.088 l -3.024,-6.93 v 8.189 h -2.861 v -12.617 h 3.51 l 3.42,7.506 3.42,-7.506 h 3.492 v 12.617 z" id="path53" />
        <path d="m 572.137,554.043 h -6.66 v 2.502 h 6.012 v 2.521 h -6.012 v 2.538 h 6.857 v 2.52 h -10.063 v -12.6 h 9.865 v 2.519 z" id="path55" />
      </g>
    </g>
  </g>
  <g id="layer22" style="display:inline">
    <g style="display:inline" id="picto_categorie" transform="translate(18.525,33.999995)">
      <g id="g90">
        <polygon id="polygon60" points="372.25,622.308 372.25,588.329 342.681,571.233 313.112,588.437 313.112,621.308 342.896,638.651 " stroke-miterlimit="10" stroke-linejoin="round" stroke-width="2" stroke="#000000" fill="none" />
        <polyline id="polyline62" points="    313.112,588.437 342.788,604.995 372.25,588.329   " stroke-miterlimit="10" stroke-linejoin="round" stroke-width="2" stroke="#000000" fill="none" />
        <polygon id="polygon64" points="357.305,596.716 357.305,613.813 342.896,621.984 327.896,612.953 327.735,596.823 342.788,588.222 " stroke-miterlimit="10" stroke-linejoin="round" stroke-width="2" stroke="#000000" fill="none" />
        <line id="line66" y2="638.75897" x2="342.78799" y1="604.995" x1="342.78799" stroke-miterlimit="10" stroke-linejoin="round" stroke-width="2" stroke="#000000" fill="none" />
        <line id="line68" y2="588.22198" x2="342.681" y1="571.23297" x1="342.681" stroke-miterlimit="10" stroke-linejoin="round" stroke-width="2" stroke="#000000" fill="none" />
        <line id="line70" y2="613.81299" x2="357.30499" y1="622.30798" x1="372.25" stroke-miterlimit="10" stroke-linejoin="round" stroke-width="2" stroke="#000000" fill="none" />
        <line id="line72" y2="621.98401" x2="313.64899" y1="613.383" x1="328.16501" stroke-miterlimit="10" stroke-linejoin="round" stroke-width="2" stroke="#000000" fill="none" />
        <line id="line74" y2="586.91602" x2="360.29099" y1="589.40503" x1="356.33701" stroke-miterlimit="10" stroke-linejoin="round" stroke-linecap="round" stroke-width="2" stroke="#000000" fill="none" />
        <line id="line76" y2="599.38898" x2="367.095" y1="599.38898" x1="361.298" stroke-miterlimit="10" stroke-linejoin="round" stroke-linecap="round" stroke-width="2" stroke="#000000" fill="none" />
        <line id="line78" y2="610.12402" x2="365.323" y1="607.25403" x1="361.82001" stroke-miterlimit="10" stroke-linejoin="round" stroke-linecap="round" stroke-width="2" stroke="#000000" fill="none" />
        <line id="line80" y2="584.23798" x2="347.758" y1="579.94202" x1="349.67001" stroke-miterlimit="10" stroke-linejoin="round" stroke-linecap="round" stroke-width="2" stroke="#000000" fill="none" />
        <line id="line82" y2="586.48499" x2="325.423" y1="588.97498" x1="329.37799" stroke-miterlimit="10" stroke-linejoin="round" stroke-linecap="round" stroke-width="2" stroke="#000000" fill="none" />
        <line id="line84" y2="598.95801" x2="318.62" y1="598.95801" x1="324.41699" stroke-miterlimit="10" stroke-linejoin="round" stroke-linecap="round" stroke-width="2" stroke="#000000" fill="none" />
        <line id="line86" y2="609.69397" x2="320.392" y1="606.823" x1="323.89401" stroke-miterlimit="10" stroke-linejoin="round" stroke-linecap="round" stroke-width="2" stroke="#000000" fill="none" />
        <line id="line88" y2="583.80798" x2="337.95599" y1="579.513" x1="336.04401" stroke-miterlimit="10" stroke-linejoin="round" stroke-linecap="round" stroke-width="2" stroke="#000000" fill="none" />
      </g>
    </g>
  </g>
  <g id="layer21" style="display:inline">
    <g transform="translate(18.525,34)" id="texte_picto_categorie" style="display:inline">
      <g id="g105">
        <path d="m 312.273,551.523 h 5.49 c 1.608,0 2.856,0.381 3.744,1.143 0.888,0.763 1.332,1.846 1.332,3.25 0,1.476 -0.444,2.621 -1.332,3.438 -0.888,0.816 -2.136,1.225 -3.744,1.225 h -2.286 v 3.545 h -3.204 z m 3.204,2.52 v 4.015 h 2.124 c 0.708,0 1.254,-0.174 1.638,-0.522 0.384,-0.348 0.576,-0.852 0.576,-1.512 0,-0.648 -0.192,-1.14 -0.576,-1.477 -0.384,-0.335 -0.93,-0.504 -1.638,-0.504 z" id="path93" />
        <path d="m 332.109,564.123 -1.872,-3.545 h -0.09 -2.43 v 3.545 h -3.204 v -12.6 h 5.634 c 1.668,0 2.958,0.381 3.87,1.143 0.912,0.763 1.368,1.846 1.368,3.25 0,1.943 -0.762,3.293 -2.286,4.049 l 2.646,4.158 z m -4.392,-6.065 h 2.43 c 0.696,0 1.236,-0.174 1.62,-0.522 0.384,-0.348 0.576,-0.852 0.576,-1.512 0,-0.648 -0.192,-1.14 -0.576,-1.477 -0.384,-0.335 -0.924,-0.504 -1.62,-0.504 h -2.43 z" id="path95" />
        <path d="m 343.521,551.416 c 1.956,0 3.582,0.609 4.878,1.826 1.296,1.219 1.944,2.739 1.944,4.563 0,1.836 -0.651,3.372 -1.953,4.608 -1.302,1.235 -2.925,1.854 -4.869,1.854 -1.944,0 -3.564,-0.615 -4.86,-1.846 -1.296,-1.229 -1.944,-2.768 -1.944,-4.616 0,-1.836 0.648,-3.36 1.944,-4.572 1.296,-1.212 2.916,-1.817 4.86,-1.817 z m 0.036,2.682 c -0.984,0 -1.824,0.357 -2.52,1.07 -0.696,0.715 -1.044,1.6 -1.044,2.656 0,1.055 0.351,1.946 1.053,2.672 0.702,0.727 1.539,1.09 2.511,1.09 0.972,0 1.797,-0.363 2.475,-1.09 0.678,-0.726 1.017,-1.617 1.017,-2.672 0,-1.057 -0.339,-1.941 -1.017,-2.656 -0.678,-0.713 -1.503,-1.07 -2.475,-1.07 z" id="path97" />
        <path d="m 358.947,551.506 v 8.531 c 0,1.332 -0.387,2.371 -1.161,3.114 -0.774,0.744 -1.839,1.116 -3.195,1.116 -1.716,0 -3.162,-0.672 -4.338,-2.016 l 1.476,-2.143 c 0.9,0.936 1.782,1.404 2.646,1.404 0.9,0 1.35,-0.516 1.35,-1.549 v -5.867 h -4.32 v -2.592 h 7.542 z" id="path99" />
        <path d="m 371.115,554.043 h -6.66 v 2.502 h 6.012 v 2.521 h -6.012 v 2.538 h 6.858 v 2.52 H 361.25 v -12.6 h 9.864 v 2.519 z" id="path101" />
        <path d="m 383.013,554.098 h -3.798 v 10.025 h -3.204 v -10.025 h -3.762 v -2.592 h 10.764 z" id="path103" />
      </g>
    </g>
  </g>
  <g id="layer20" style="display:inline">
    <g transform="translate(18.525,34)" id="fond_categorie" style="display:inline">
      <polygon fill="#b7d5e2" points="655.738,527.024 655.738,287.386 426.333,154.942 196.922,287.394 196.922,527.024 " id="polygon108" />
    </g>
  </g>
  <g id="layer19" style="display:inline">
    <g transform="translate(18.525003,34)" id="picto_posture" style="display:inline">
      <g id="g153">
        <g id="g151">
          <path fill-rule="evenodd" clip-rule="evenodd" fill="none" stroke="#473467" stroke-width="2" stroke-miterlimit="10" d="m 434.877,22.14 3.143,4.403 c 0.354,0.495 0.343,1.114 -0.024,1.376 l -2.1,1.431 c -0.367,0.261 -0.956,0.07 -1.31,-0.425 l -3.143,-4.404 c -0.354,-0.495 -0.343,-1.113 0.023,-1.376 l 2.101,-1.43 c 0.368,-0.262 0.956,-0.071 1.31,0.425 z" id="path111" />
          <path fill-rule="evenodd" clip-rule="evenodd" fill="currentColor" d="m 412.415,24.036 c -1.613,-3.481 8.644,-11.283 11.874,-8.619 7.24,5.971 13.196,14.52 17.658,24.328 1.47,3.23 -8.716,11.254 -11.873,8.619 -7.77,-6.482 -13.369,-15.068 -17.659,-24.328 z" id="path113" />
          <path fill-rule="evenodd" clip-rule="evenodd" fill="none" stroke="#473467" stroke-width="2" stroke-miterlimit="10" d="m 409.634,51.747 c 0,0 2.665,1.488 4.157,4.104 1.492,2.616 1.526,4.763 -0.794,8.426 -2.319,3.663 -7.265,5.86 -8.669,4.579 -1.404,-1.283 -2.564,-3.969 0.916,-7.022 3.479,-3.052 4.603,-3.846 3.155,-6.227 -1.446,-2.381 -1.897,-1.343 -4.663,-8.608 0,0 -2.15,-3.347 -4.659,-4.091 -2.508,-0.744 -3.602,0.122 -4.029,0.916 -0.428,0.793 -1.038,2.616 -2.076,2.621 -1.037,0.004 -3.175,0.004 -4.151,0.98 -0.977,0.978 -1.387,2.139 -1.282,3.358 0.105,1.22 -1.465,2.198 -2.563,2.503 -1.1,0.306 -3.053,1.232 -3.297,2.967 -0.245,1.734 0.549,3.383 -0.611,4.116 -1.159,0.732 -2.747,2.075 -1.893,3.785 0.855,1.709 2.626,3.979 4.396,5.255 1.771,1.277 5.459,4.443 7.509,3.902 2.05,-0.541 2.861,-2.563 2.861,-2.563 0,0 1.99,1.434 3.977,0.434 1.987,-0.999 2.442,-3.548 2.442,-3.548 0,0 -3.968,-2.991 -6.105,-6.41" id="path115" />
          <path fill-rule="evenodd" clip-rule="evenodd" fill="none" stroke="#473467" stroke-width="2" stroke-miterlimit="10" d="m 390.352,66.108 c 0,0 2.923,2.823 3.657,5.074" id="path117" />
          <path fill-rule="evenodd" clip-rule="evenodd" fill="none" stroke="#473467" stroke-width="2" stroke-miterlimit="10" d="m 398.589,55.356 c 0,0 2.992,4.646 6.655,6.478" id="path119" />
          <path fill-rule="evenodd" clip-rule="evenodd" fill="none" stroke="#473467" stroke-width="2" stroke-miterlimit="10" d="m 400.359,67.635 c 0,0 0.247,0.762 3.023,0" id="path121" />
          <path fill-rule="evenodd" clip-rule="evenodd" fill="none" stroke="#473467" stroke-width="2" stroke-miterlimit="10" d="m 464.599,86.564 c -2.614,3.069 -6.979,5.448 -6.979,5.448 0,0 0.078,2.588 1.896,3.867 1.819,1.279 3.998,0.152 3.998,0.152 0,0 0.506,2.12 2.455,2.955 1.948,0.835 6.062,-1.757 8,-2.762 1.938,-1.004 4.021,-2.989 5.117,-4.555 1.096,-1.566 -0.277,-3.127 -1.318,-4.021 -1.04,-0.895 -0.014,-2.409 -10e-4,-4.161 0.012,-1.751 -1.785,-2.954 -2.827,-3.417 -1.043,-0.463 -2.453,-1.66 -2.171,-2.852 0.283,-1.191 0.047,-2.4 -0.776,-3.511 -0.823,-1.108 -2.938,-1.421 -3.964,-1.577 -1.025,-0.156 -1.363,-2.049 -1.67,-2.896 -0.307,-0.847 -1.262,-1.864 -3.852,-1.495 -2.591,0.368 -5.207,3.364 -5.207,3.364 -3.8,6.782 -4.094,5.689 -5.874,7.833 -1.779,2.144 -0.785,3.094 2.211,6.622 2.996,3.528 1.455,6.018 -0.122,7.08 -1.576,1.063 -6.309,-1.768 -7.905,-5.799 -1.515,-3.823 -1.148,-7.108 2.126,-9.804 3.275,-2.695 5.901,-3.218 5.901,-3.218" id="path123" />
          <path fill-rule="evenodd" clip-rule="evenodd" fill="none" stroke="#473467" stroke-width="2" stroke-miterlimit="10" d="m 467.744,91.968 c 0,0 -3.305,2.364 -4.36,4.484" id="path125" />
          <path fill-rule="evenodd" clip-rule="evenodd" fill="none" stroke="#473467" stroke-width="2" stroke-miterlimit="10" d="m 461.169,80.126 c 0,0 -3.64,4.158 -7.531,5.434" id="path127" />
          <path fill-rule="evenodd" clip-rule="evenodd" fill="none" stroke="#473467" stroke-width="2" stroke-miterlimit="10" d="m 457.62,92.013 c 0,0 -0.355,0.719 -2.99,-0.442" id="path129" />
          <g id="g139">
            <defs id="defs132">
              <path id="path650" d="m 403.412,46.445 c 1.172,3.438 3.038,6.25 4.835,8.438 l -19.805,17.314 c -3.164,-1.836 -6.134,-4.259 -8.673,-7.97 l -13.157,3.746 c 0,0 -1.5,20.817 0.125,20.817 1.625,0 20.75,-1.5 22,-1.5 1.25,0 37.625,-22.125 37.625,-22.125 l 13.875,-38 c 0,0 -0.625,-12.085 -1,-12.293 -0.375,-0.207 -36.375,17.007 -36.375,17.007 z" />
            </defs>
            <clipPath id="clipPath303">
              <use height="100%" width="100%" y="0" x="0" xlink:href="#SVGID_1_-5" overflow="visible" id="use301" />
            </clipPath>
            <path clip-path="url(#SVGID_2_-8-6)" fill-rule="evenodd" clip-rule="evenodd" fill="none" stroke="#473467" stroke-width="2" stroke-miterlimit="10" d="m 370.52,82.712 c 0.236,0.317 0.882,0.372 1.189,0.113 L 429.156,34.441 425.06,29.518 367.917,77.69 c -0.432,0.363 -0.479,0.885 -0.127,1.356 z" id="path137" />
          </g>
          <g id="g149">
            <defs id="defs142">
              <path id="path657" d="m 452.223,77.876 c 1.949,-1.783 5.013,-5.446 6.55,-8.466 l 18.717,21.805 0.958,1.021 c -2.836,3.093 -6.362,5.285 -9.528,6.563 l 4.693,17.243 13.125,9.75 0.375,-10.625 c 0,0 -5.125,-47.875 -5.375,-48.25 -0.25,-0.375 -24.334,-23.75 -24.334,-23.75 0,0 -13.166,1.125 -13.166,1.5 0,0.375 -9.506,10 -9.506,10 l 5.663,19.625 z" />
            </defs>
            <clipPath id="clipPath311">
              <use height="100%" width="100%" y="0" x="0" xlink:href="#SVGID_3_-1" overflow="visible" id="use309" />
            </clipPath>
            <path clip-path="url(#SVGID_4_-9-4)" fill-rule="evenodd" clip-rule="evenodd" fill="currentColor" d="m 486.139,118.676 -7.442,-6.126 -38.29,-58.556 c -0.277,-0.423 4.487,-4.469 4.825,-3.953 l 38.755,59.201 2.619,9.142 z" id="path147" />
          </g>
        </g>
      </g>
    </g>
  </g>
  <g id="layer18" style="display:inline">
    <g transform="translate(18.525,34)" id="filet_1_categorie" style="display:inline">
      <g id="g160">
        <path fill="none" stroke="#473467" stroke-width="2" stroke-miterlimit="10" d="m 345.527,115.82 -153.081,88.382 c -4.66,2.691 -9.407,10.912 -9.407,16.29 v 34.702" id="path156" />
        <path fill="none" stroke="#473467" stroke-width="2" stroke-miterlimit="10" d="m 669.621,255.188 v -34.696 c 0,-5.379 -4.746,-13.602 -9.404,-16.295 l -155.48,-89.765" id="path158" />
      </g>
      <path fill="none" stroke="#473467" stroke-width="2" stroke-miterlimit="10" d="m 183.039,585.347 v 34.698 c 0,5.376 4.747,13.599 9.407,16.293 l 224.486,129.604 c 1.679,0.972 5.028,2.009 9.397,2.009 4.373,0 7.729,-1.039 9.411,-2.012 L 660.216,636.335 c 4.658,-2.688 9.404,-10.908 9.404,-16.289 v -35.7" id="path162" />
    </g>
  </g>
  <g id="layer17" style="display:inline">
    <g transform="translate(18.525,34)" id="filet_2_categorie" style="display:inline">
      <path opacity="0.2" fill="none" stroke="#009eb9" stroke-width="27" stroke-miterlimit="10" d="m 426.383,716.313 c -4.464,0 -7.848,-1.035 -9.525,-2.006 L 176.511,575.547 c -4.631,-2.678 -9.536,-11.168 -9.536,-16.518 V 281.508 c 0,-5.35 4.905,-13.839 9.536,-16.514 L 416.85,126.234 c 1.678,-0.971 5.063,-2.007 9.533,-2.007 4.47,0 7.855,1.036 9.532,2.003 l 240.343,138.76 c 4.636,2.679 9.533,11.168 9.533,16.518 v 277.521 c 0,5.35 -4.897,13.84 -9.533,16.514 l -240.335,138.76 c -1.685,0.974 -5.069,2.01 -9.54,2.01 z" id="path165" />
    </g>
  </g>












  <g id="layer16" style="display:inline">
    <g transform="translate(18.525,34)" id="filet_3_posture" style="display:inline">
      <path fill="none" stroke="#009eb9" stroke-width="12" stroke-miterlimit="10" d="m 426.33,716.313 c -4.464,0 -7.848,-1.037 -9.525,-2.008 L 176.458,575.547 c -4.631,-2.68 -9.536,-11.167 -9.536,-16.518 V 281.508 c 0,-5.35 4.905,-13.839 9.536,-16.514 L 416.797,126.235 c 1.678,-0.971 5.063,-2.008 9.533,-2.008 4.47,0 7.855,1.037 9.533,2.004 L 676.205,264.99 c 4.636,2.679 9.533,11.168 9.533,16.518 v 277.521 c 0,5.351 -4.897,13.838 -9.533,16.514 L 435.87,714.301 c -1.684,0.974 -5.069,2.012 -9.54,2.012 z" id="path168" />
    </g>
  </g>
  <g id="layer15" style="display:inline">
    <g transform="translate(18.525,34)" id="texte_titre_badge" style="display:inline">
      <g id="g208">
        <path fill="#009eb9" d="m 261.219,490.641 2.844,0.359 v 4.572 H 252.184 V 491 l 2.844,-0.359 v -14.723 h -3.636 l -0.539,3.564 h -4.607 l 0.18,-8.676 h 23.396 l 0.181,8.676 h -4.607 l -0.54,-3.564 h -3.636 v 14.723 z" id="path178" />
        <path fill="#009eb9" d="M 271.697,495.572 V 491 l 2.844,-0.359 v -14.867 l -2.844,-0.395 v -4.572 h 11.879 v 4.572 l -2.844,0.395 v 14.867 l 2.844,0.359 v 4.572 z" id="path180" />
        <path fill="#009eb9" d="M 300.207,490.641 303.05,491 v 4.572 H 291.171 V 491 l 2.844,-0.359 v -14.723 h -3.636 l -0.539,3.564 h -4.607 l 0.18,-8.676 h 23.396 l 0.181,8.676 h -4.607 l -0.54,-3.564 h -3.636 z" id="path182" />
        <path fill="#009eb9" d="m 327.422,495.572 -4.536,-8.676 h -3.167 v 3.744 l 3.635,0.359 v 4.572 h -12.67 V 491 l 2.844,-0.359 v -14.867 l -2.844,-0.395 v -4.572 h 13.462 c 5.04,0 8.495,2.844 8.495,7.631 0,4.068 -1.691,5.688 -4.067,6.984 v 0.18 c 0,0 0.396,0.287 0.684,0.791 l 2.484,4.248 3.167,0.359 v 4.572 z m -4.824,-13.498 c 2.628,0 3.78,-1.045 3.78,-3.275 0,-1.945 -1.404,-2.881 -3.78,-2.881 h -2.879 v 6.156 z" id="path184" />
        <path fill="#009eb9" d="M 336.352,495.572 V 491 l 2.808,-0.359 v -14.902 l -2.808,-0.359 v -4.572 h 20.409 l 0.145,8.676 h -4.607 l -0.54,-3.564 h -6.407 v 4.787 h 5.363 v 4.932 h -5.363 v 4.824 h 6.335 l 0.54,-3.564 h 4.607 l -0.252,8.676 h -20.23 z" id="path186" />
        <path fill="#009eb9" d="M 366.483,495.572 V 491 l 2.844,-0.359 v -14.902 l -2.844,-0.359 v -4.572 h 12.131 c 6.119,0 12.13,3.24 12.13,12.203 0,9.826 -5.939,12.563 -11.555,12.563 h -12.706 z m 11.23,-5.111 c 4.212,0 6.768,-1.621 6.768,-7.451 0,-4.969 -2.664,-7.092 -7.235,-7.092 h -1.728 v 14.543 z" id="path188" />
        <path fill="#009eb9" d="m 409.968,475.773 -2.844,-0.395 v -4.572 h 11.519 v 4.572 l -2.844,0.395 v 10.691 c 0,6.264 -3.743,9.359 -10.366,9.359 -6.623,0 -10.511,-3.096 -10.511,-9.359 v -10.691 l -2.844,-0.395 v -4.572 h 11.879 v 4.572 l -2.844,0.395 v 10.295 c 0,1.945 0.792,4.572 4.319,4.572 2.88,0 4.535,-2.053 4.535,-4.393 v -10.474 z" id="path190" />
        <path fill="#009eb9" d="M 427.357,495.572 V 491 l 2.844,-0.359 v -14.902 l -2.844,-0.359 v -4.572 h 10.295 c 7.092,0 10.654,1.729 10.654,6.66 0,4.211 -2.664,5.002 -3.635,5.291 v 0.287 c 1.764,0.217 5.398,1.188 5.398,5.76 0,4.248 -2.482,6.768 -10.043,6.768 h -12.669 z m 12.059,-14.722 c 1.656,0 2.629,-0.973 2.629,-2.447 0,-1.764 -1.404,-2.484 -2.988,-2.484 h -2.664 v 4.932 h 3.023 z m -3.023,4.642 v 4.969 h 3.924 c 2.52,0 3.492,-0.684 3.492,-2.447 0,-1.584 -1.225,-2.521 -2.988,-2.521 h -4.428 z" id="path192" />
        <path fill="#009eb9" d="m 475.055,490.641 2.52,0.359 v 4.572 H 466.417 V 491 l 2.699,-0.359 -0.9,-2.375 h -8.387 l -0.898,2.375 2.699,0.359 v 4.572 H 450.65 V 491 l 2.52,-0.359 5.65,-14.902 -3.168,-0.18 v -4.752 h 11.879 z m -10.151,-11.196 c -0.252,-0.646 -0.793,-2.195 -0.793,-2.195 h -0.18 c 0,0 -0.539,1.549 -0.791,2.195 l -1.549,4.104 h 4.859 z" id="path194" />
        <path fill="#009eb9" d="M 478.91,495.572 V 491 l 2.844,-0.359 v -14.902 l -2.844,-0.359 v -4.572 h 12.131 c 6.119,0 12.129,3.24 12.129,12.203 0,9.826 -5.939,12.563 -11.555,12.563 H 478.91 Z m 11.231,-5.111 c 4.211,0 6.768,-1.621 6.768,-7.451 0,-4.969 -2.664,-7.092 -7.236,-7.092 h -1.727 v 14.543 z" id="path196" />
        <path fill="#009eb9" d="m 526.75,486.896 c 0,3.707 -2.051,8.928 -10.402,8.928 -6.803,0 -11.051,-3.924 -11.051,-12.67 0,-8.676 4.283,-12.563 11.051,-12.563 8.352,0 10.402,4.355 10.402,7.486 0,1.115 -0.252,1.871 -0.252,1.871 l -5.867,0.541 c 0,0 0.145,-0.541 0.145,-1.297 0,-1.475 -0.936,-3.455 -4.104,-3.455 -2.844,0 -5.111,1.799 -5.111,7.523 0,5.65 2.484,7.379 5.326,7.379 2.736,0 3.744,-1.188 3.852,-3.203 l -3.49,-0.361 v -4.211 h 9.502 v 4.032 z" id="path198" />
        <path fill="#009eb9" d="M 529.236,495.572 V 491 l 2.809,-0.359 v -14.902 l -2.809,-0.359 v -4.572 h 20.41 l 0.145,8.676 h -4.607 l -0.541,-3.564 h -6.406 v 4.787 h 5.363 v 4.932 h -5.363 v 4.824 h 6.334 l 0.541,-3.564 h 4.607 l -0.252,8.676 h -20.231 z" id="path200" />
        <path fill="#009eb9" d="M 559.367,495.572 V 491 l 2.844,-0.359 v -14.867 l -2.844,-0.395 v -4.572 h 11.879 v 4.572 l -2.844,0.395 v 14.867 l 2.844,0.359 v 4.572 z" id="path202" />
        <path fill="#009eb9" d="m 588.85,486.824 v -0.684 l 5.977,1.225 v 0.611 c 0,3.275 -2.088,7.848 -10.584,7.848 -6.695,0 -10.869,-3.924 -10.869,-12.67 0,-8.676 4.283,-12.563 11.051,-12.563 8.35,0 10.402,4.787 10.402,8.207 0,1.115 -0.252,1.871 -0.252,1.871 l -5.867,0.719 c 0,0 0.143,-0.611 0.143,-1.475 0,-1.764 -0.936,-4.176 -4.104,-4.176 -2.844,0 -5.111,1.799 -5.111,7.523 0,5.65 2.412,7.379 5.148,7.379 3.095,0.002 4.066,-1.438 4.066,-3.815 z" id="path204" />
        <path fill="#009eb9" d="M 597.133,495.572 V 491 l 2.844,-0.359 v -14.867 l -2.844,-0.395 v -4.572 h 11.879 v 4.572 l -2.844,0.395 v 14.867 l 2.844,0.359 v 4.572 z" id="path206" />
      </g>
    </g>
  </g>
  <g id="layer14" style="display:inline">
    <g transform="translate(18.525,32)" id="picto_titre_badge" style="display:inline">
      <path fill="#009eb9" d="m 368.695,277.938 c 6.838,6.565 15.277,11.789 25.083,15.524 9.803,3.741 21.309,5.637 34.2,5.637 12.718,0 24.182,-1.896 34.067,-5.637 9.893,-3.735 18.375,-8.957 25.212,-15.524 6.843,-6.574 12.2,-14.363 15.921,-23.143 1.627,-3.848 2.979,-7.928 4.022,-12.148 h -50.096 c -1.319,2.271 -2.651,4.156 -4.063,5.748 -5.456,6.157 -13.89,9.281 -25.063,9.281 -13.571,0 -17.24,-0.455 -25.188,-9.275 -1.439,-1.586 -2.756,-3.425 -4.119,-5.754 h -49.922 c 1.038,4.203 2.393,8.285 4.034,12.146 3.72,8.793 9.073,16.577 15.912,23.145 z" id="path177" />
      <path fill="#009eb9" d="m 509.584,388.229 c -0.523,-9.941 -2.68,-19.449 -6.406,-28.25 -3.719,-8.766 -9.072,-16.496 -15.916,-22.978 -6.832,-6.472 -15.32,-11.698 -25.223,-15.526 -9.897,-3.823 -21.356,-5.762 -34.062,-5.762 -12.876,0 -24.382,1.938 -34.193,5.76 -9.814,3.832 -18.259,9.059 -25.095,15.528 -6.838,6.47 -12.189,14.203 -15.906,22.978 -3.729,8.789 -5.887,18.294 -6.412,28.256 -0.363,7.873 -0.524,33.045 -0.524,41.285 0,0.612 0.008,1.197 0.017,1.785 l 0.004,0.185 h 46.763 l -0.006,-0.351 c -0.011,-0.713 -0.024,-1.426 -0.024,-2.158 0,-3.904 0.048,-25.099 0.142,-29.027 0.095,-4.068 0.312,-7.518 0.658,-10.537 0.357,-4.543 1.315,-8.836 2.848,-12.723 1.538,-3.896 3.747,-7.334 6.568,-10.22 2.822,-2.894 6.362,-5.202 10.517,-6.866 4.15,-1.662 9.077,-2.506 14.646,-2.506 5.569,0 10.497,0.844 14.648,2.506 4.144,1.662 7.685,3.971 10.522,6.864 2.813,2.893 5.02,6.329 6.561,10.221 1.525,3.881 2.484,8.173 2.847,12.761 0.179,3.104 0.356,6.585 0.536,10.477 0.17,3.943 0.255,25.145 0.255,29.051 0,0.643 -0.018,1.27 -0.036,1.895 -0.006,0.205 -0.012,0.408 -0.017,0.614 h 46.805 l 0.002,-0.237 c 0.009,-0.568 0.018,-1.137 0.018,-1.732 -0.003,-8.859 -0.183,-33.587 -0.537,-41.293 z" id="path179" />
    </g>
  </g>
</svg>
