<?xml version="1.0" encoding="UTF-8" standalone="no"?>
<svg xmlns:dc="http://purl.org/dc/elements/1.1/"
  xmlns:cc="http://creativecommons.org/ns#"
  xmlns:rdf="http://www.w3.org/1999/02/22-rdf-syntax-ns#"
  xmlns:svg="http://www.w3.org/2000/svg"
  xmlns="http://www.w3.org/2000/svg"
  xmlns:xlink="http://www.w3.org/1999/xlink" id="svg2303" xml:space="preserve" enable-background="new 0 0 850.394 841.89" viewBox="0 0 888.18899 888.18898" height="100%" width="100%" y="0px" x="0px" version="1.1">
  <metadata id="metadata2309">
    <rdf:RDF>
      <cc:Work rdf:about="">
        <dc:format>image/svg+xml</dc:format>
        <dc:type rdf:resource="http://purl.org/dc/dcmitype/StillImage" />
        <dc:title></dc:title>
      </cc:Work>
    </rdf:RDF>
  </metadata>
  <defs id="defs2307">
    <linearGradient id="SVGID_1_" gradientUnits="userSpaceOnUse" x1="257.7666" y1="116.8174" x2="420.56351" y2="116.8174">
      <stop offset="0" style="stop-color:#FFFFFF" id="stop2215" />
      <stop offset="0.4515" style="stop-color:#8D7D9F" id="stop2217" />
      <stop offset="1" style="stop-color:#473467" id="stop2219" />
    </linearGradient>
    <linearGradient id="SVGID_2_" gradientUnits="userSpaceOnUse" x1="472.0127" y1="116.8174" x2="634.80957" y2="116.8174" gradientTransform="matrix(-1,0,0,1,1066.5762,0)">
      <stop offset="0" style="stop-color:#FFFFFF" id="stop2224" />
      <stop offset="0.4515" style="stop-color:#8D7D9F" id="stop2226" />
      <stop offset="1" style="stop-color:#473467" id="stop2228" />
    </linearGradient>
    <clipPath id="SVGID_2_-4">
      <use id="use122" overflow="visible" xlink:href="#SVGID_1_-0" x="0" y="0" width="100%" height="100%" />
    </clipPath>
    <clipPath id="SVGID_4_">
      <use id="use132" overflow="visible" xlink:href="#SVGID_3_" x="0" y="0" width="100%" height="100%" />
    </clipPath>
    <path d="m 404.664,50.394 c 1.172,3.438 3.039,6.252 4.836,8.439 l -19.805,17.313 c -3.164,-1.836 -6.135,-4.258 -8.674,-7.969 l -13.156,3.746 c 0,0 -1.5,20.816 0.125,20.816 1.625,0 20.75,-1.5 22,-1.5 1.25,0 37.625,-22.125 37.625,-22.125 l 13.875,-38 c 0,0 -0.625,-12.084 -1,-12.291 -0.375,-0.209 -36.375,17.006 -36.375,17.006 z" id="SVGID_1_-0" />
    <path d="m 453.475,81.825 c 1.949,-1.783 5.014,-5.445 6.551,-8.467 l 18.717,21.805 0.957,1.021 c -2.836,3.092 -6.361,5.285 -9.527,6.563 l 4.693,17.242 13.125,9.75 0.375,-10.625 c 0,0 -5.125,-47.875 -5.375,-48.25 -0.25,-0.375 -24.334,-23.75 -24.334,-23.75 0,0 -13.166,1.125 -13.166,1.5 0,0.375 -9.506,10 -9.506,10 l 5.662,19.625 z" id="SVGID_3_" />
    <clipPath id="SVGID_2_-4-8">
      <use height="100%" width="100%" y="0" x="0" xlink:href="#SVGID_1_-0" overflow="visible" id="use122-9" />
    </clipPath>
    <clipPath id="SVGID_4_-4">
      <use height="100%" width="100%" y="0" x="0" xlink:href="#SVGID_3_" overflow="visible" id="use132-1" />
    </clipPath>
    <path id="path300" d="m 404.664,50.394 c 1.172,3.438 3.039,6.252 4.836,8.439 l -19.805,17.313 c -3.164,-1.836 -6.135,-4.258 -8.674,-7.969 l -13.156,3.746 c 0,0 -1.5,20.816 0.125,20.816 1.625,0 20.75,-1.5 22,-1.5 1.25,0 37.625,-22.125 37.625,-22.125 l 13.875,-38 c 0,0 -0.625,-12.084 -1,-12.291 -0.375,-0.209 -36.375,17.006 -36.375,17.006 z" />
    <path id="path307" d="m 453.475,81.825 c 1.949,-1.783 5.014,-5.445 6.551,-8.467 l 18.717,21.805 0.957,1.021 c -2.836,3.092 -6.361,5.285 -9.527,6.563 l 4.693,17.242 13.125,9.75 0.375,-10.625 c 0,0 -5.125,-47.875 -5.375,-48.25 -0.25,-0.375 -24.334,-23.75 -24.334,-23.75 0,0 -13.166,1.125 -13.166,1.5 0,0.375 -9.506,10 -9.506,10 l 5.662,19.625 z" />
    <linearGradient gradientTransform="translate(-0.52877063,-24.950401)" id="SVGID_1_-1" gradientUnits="userSpaceOnUse" x1="256.4277" y1="34.083" x2="419.22461" y2="34.083">
      <stop offset="0" style="stop-color:#FFFFFF" id="stop95" />
      <stop offset="0.4515" style="stop-color:#8D7D9F" id="stop97" />
      <stop offset="1" style="stop-color:#473467" id="stop99" />
    </linearGradient>
    <linearGradient id="SVGID_2_-1" gradientUnits="userSpaceOnUse" x1="473.35159" y1="34.083" x2="636.14838" y2="34.083" gradientTransform="matrix(-1,0,0,1,1066.0474,-24.950401)">
      <stop offset="0" style="stop-color:#FFFFFF" id="stop104" />
      <stop offset="0.4515" style="stop-color:#8D7D9F" id="stop106" />
      <stop offset="1" style="stop-color:#473467" id="stop108" />
    </linearGradient>
    <linearGradient y2="34.083" x2="419.22461" y1="34.083" x1="256.4277" gradientUnits="userSpaceOnUse" id="SVGID_1_-1-5" gradientTransform="translate(-0.52877,-24.9504)">
      <stop id="stop95-6" style="stop-color:#FFFFFF" offset="0" />
      <stop id="stop97-9" style="stop-color:#8D7D9F" offset="0.4515" />
      <stop id="stop99-4" style="stop-color:#473467" offset="1" />
    </linearGradient>
    <linearGradient gradientTransform="matrix(-1,0,0,1,1066.0474,-24.950401)" y2="34.083" x2="636.14838" y1="34.083" x1="473.35159" gradientUnits="userSpaceOnUse" id="SVGID_2_-1-0">
      <stop id="stop104-4" style="stop-color:#FFFFFF" offset="0" />
      <stop id="stop106-9" style="stop-color:#8D7D9F" offset="0.4515" />
      <stop id="stop108-8" style="stop-color:#473467" offset="1" />
    </linearGradient>
    <linearGradient y2="42.818401" x2="438.29739" y1="42.818401" x1="275.50049" gradientUnits="userSpaceOnUse" id="SVGID_1_-6" gradientTransform="translate(0,-6)">
      <stop id="stop111" style="stop-color:#FFFFFF" offset="0" />
      <stop id="stop113" style="stop-color:#8D7D9F" offset="0.4515" />
      <stop id="stop115" style="stop-color:#473467" offset="1" />
    </linearGradient>
    <linearGradient gradientTransform="matrix(-1,0,0,1,1094.9229,-5.999996)" y2="42.818401" x2="645.42242" y1="42.818401" x1="482.62549" gradientUnits="userSpaceOnUse" id="SVGID_2_-2">
      <stop id="stop120" style="stop-color:#FFFFFF" offset="0" />
      <stop id="stop122" style="stop-color:#8D7D9F" offset="0.4515" />
      <stop id="stop124" style="stop-color:#473467" offset="1" />
    </linearGradient>
    <linearGradient gradientTransform="translate(0,-6)" id="SVGID_1_-6-5" gradientUnits="userSpaceOnUse" x1="275.50049" y1="42.818401" x2="438.29739" y2="42.818401">
      <stop offset="0" style="stop-color:#FFFFFF" id="stop111-4" />
      <stop offset="0.4515" style="stop-color:#8D7D9F" id="stop113-6" />
      <stop offset="1" style="stop-color:#473467" id="stop115-2" />
    </linearGradient>
    <linearGradient id="SVGID_2_-2-4" gradientUnits="userSpaceOnUse" x1="482.62549" y1="42.818401" x2="645.42242" y2="42.818401" gradientTransform="matrix(-1,0,0,1,1094.9229,-5.999996)">
      <stop offset="0" style="stop-color:#FFFFFF" id="stop120-0" />
      <stop offset="0.4515" style="stop-color:#8D7D9F" id="stop122-0" />
      <stop offset="1" style="stop-color:#473467" id="stop124-0" />
    </linearGradient>
  </defs>
  <g id="layer1">
      <path transform="translate(18.49,32)" id="path174-8" d="m 426.33,705.218 c -4.464,0 -7.848,-1.035 -9.525,-2.006 L 176.458,564.452 c -4.631,-2.678 -9.536,-11.167 -9.536,-16.518 V 270.413 c 0,-5.35 4.905,-13.839 9.536,-16.514 L 416.797,115.14 c 1.678,-0.971 5.063,-2.007 9.533,-2.007 4.47,0 7.855,1.036 9.532,2.003 l 240.343,138.759 c 4.636,2.679 9.533,11.168 9.533,16.518 v 277.521 c 0,5.351 -4.897,13.84 -9.533,16.514 L 435.87,703.208 c -1.684,0.975 -5.069,2.01 -9.54,2.01 z" stroke-miterlimit="10" stroke-width="18" stroke="#009eb9" fill="none" style="fill:#ffffff;stroke:none" />
  </g>
  <g style="display:inline" id="layer26">
    <g id="texte_posture">
      <g id="g26">
        <path fill="#473467" d="m 289.5,722.938 -12.967,13.834 c -2.023,2.16 -4.229,3.254 -6.614,3.285 -2.386,0.029 -4.678,-0.986 -6.876,-3.047 -2.783,-2.607 -4.106,-5.895 -3.97,-9.861 l 5.648,-1.229 c 0.036,2.886 0.755,4.984 2.156,6.298 1.459,1.367 2.973,1.215 4.541,-0.459 l 8.918,-9.514 -7.005,-6.564 3.939,-4.203 z" id="path2" />
        <path fill="#473467" d="m 307.997,744.76 -11.748,-9.002 -3.382,4.414 10.605,8.125 -3.406,4.445 -10.604,-8.126 -3.431,4.478 12.097,9.269 -3.405,4.445 -17.749,-13.6 17.03,-22.226 17.399,13.332 z" id="path4" />
        <path fill="#473467" d="m 335.007,753.969 c 3.7,1.957 6.468,4.597 8.301,7.92 l -4.968,3.662 c -0.898,-1.44 -1.962,-2.795 -3.191,-4.063 -1.229,-1.268 -2.352,-2.171 -3.364,-2.706 -1.816,-0.961 -3.041,-0.84 -3.677,0.363 -0.411,0.777 -0.294,1.639 0.353,2.584 0.647,0.945 1.521,1.929 2.626,2.95 1.104,1.021 2.17,2.112 3.2,3.275 1.028,1.163 1.704,2.523 2.027,4.081 0.322,1.559 0.047,3.162 -0.825,4.813 -1.26,2.381 -3.173,3.745 -5.738,4.092 -2.567,0.348 -5.288,-0.239 -8.164,-1.76 -2.051,-1.085 -3.892,-2.511 -5.521,-4.277 -1.629,-1.766 -2.863,-3.655 -3.7,-5.666 l 5.002,-3.555 c 0.676,1.744 1.679,3.414 3.008,5.007 1.33,1.593 2.654,2.738 3.975,3.437 1.014,0.535 1.9,0.771 2.659,0.705 0.759,-0.066 1.325,-0.453 1.699,-1.16 0.361,-0.684 0.34,-1.428 -0.065,-2.23 -0.405,-0.802 -1.032,-1.57 -1.88,-2.306 -0.849,-0.735 -1.738,-1.59 -2.67,-2.565 -0.933,-0.976 -1.764,-1.943 -2.493,-2.902 -0.73,-0.959 -1.16,-2.099 -1.291,-3.42 -0.132,-1.32 0.165,-2.665 0.888,-4.033 1.197,-2.262 3.056,-3.595 5.576,-3.996 2.517,-0.405 5.262,0.179 8.233,1.75 z" id="path6" />
        <path fill="#473467" d="m 372.408,769.828 -5.498,15.281 c -1.255,3.488 -3.33,5.865 -6.224,7.135 -2.894,1.268 -6.185,1.238 -9.873,-0.089 -3.714,-1.337 -6.301,-3.421 -7.76,-6.257 -1.46,-2.835 -1.563,-5.996 -0.307,-9.484 l 5.498,-15.28 6.699,2.411 -5.498,15.28 c -0.632,1.757 -0.628,3.339 0.014,4.745 0.642,1.407 1.778,2.404 3.409,2.99 1.605,0.578 3.076,0.527 4.413,-0.154 1.336,-0.682 2.325,-1.912 2.966,-3.694 l 5.499,-15.28 z" id="path8" />
        <path fill="#473467" d="m 378.787,799.857 -6.936,-1.609 6.33,-27.275 6.936,1.61 z" id="path10" />
        <path fill="#473467" d="m 402.117,775.004 c 4.157,0.496 7.688,1.965 10.593,4.405 l -3.319,5.204 c -1.355,-1.021 -2.834,-1.902 -4.438,-2.645 -1.604,-0.741 -2.976,-1.181 -4.113,-1.316 -2.039,-0.242 -3.139,0.311 -3.3,1.661 -0.104,0.874 0.314,1.636 1.258,2.285 0.944,0.649 2.113,1.253 3.511,1.809 1.398,0.556 2.785,1.191 4.164,1.906 1.378,0.715 2.497,1.741 3.358,3.079 0.861,1.338 1.182,2.935 0.96,4.787 -0.318,2.676 -1.613,4.636 -3.884,5.882 -2.271,1.247 -5.021,1.677 -8.251,1.292 -2.304,-0.274 -4.533,-0.943 -6.689,-2.006 -2.156,-1.063 -3.985,-2.382 -5.49,-3.958 l 3.39,-5.114 c 1.258,1.385 2.794,2.582 4.607,3.59 1.813,1.01 3.461,1.602 4.944,1.778 1.139,0.136 2.05,0.037 2.734,-0.298 0.685,-0.334 1.074,-0.899 1.169,-1.693 0.092,-0.768 -0.196,-1.454 -0.862,-2.057 -0.667,-0.604 -1.528,-1.096 -2.584,-1.477 -1.056,-0.381 -2.193,-0.859 -3.414,-1.435 -1.221,-0.576 -2.344,-1.179 -3.369,-1.812 -1.026,-0.633 -1.837,-1.541 -2.435,-2.728 -0.598,-1.185 -0.804,-2.546 -0.62,-4.082 0.303,-2.542 1.558,-4.453 3.765,-5.734 2.207,-1.278 4.979,-1.721 8.315,-1.323 z" id="path12" />
        <path fill="#473467" d="m 448.76,797.83 -12.184,1.178 -1.534,5.332 -7.286,0.704 9.331,-29.032 7.286,-0.703 14.438,26.734 -7.564,0.731 z m -2.59,-5.174 -4.978,-9.928 -3.065,10.705 z" id="path14" />
        <path fill="#473467" d="m 470.885,769.938 c 2.015,-0.517 4.103,-0.611 6.266,-0.285 2.162,0.326 4.105,1.012 5.833,2.055 l -2.778,5.751 c -1.157,-0.859 -2.43,-1.448 -3.818,-1.767 -1.39,-0.318 -2.691,-0.322 -3.905,-0.01 -2.145,0.549 -3.746,1.766 -4.805,3.646 -1.06,1.883 -1.304,3.935 -0.734,6.156 0.583,2.273 1.793,3.986 3.631,5.139 1.837,1.154 3.827,1.455 5.972,0.905 1.137,-0.292 2.245,-0.878 3.327,-1.762 1.081,-0.882 1.974,-1.937 2.678,-3.165 l 5.122,3.229 c -1.088,1.876 -2.518,3.522 -4.287,4.94 -1.77,1.417 -3.649,2.381 -5.639,2.891 -4.081,1.047 -7.818,0.588 -11.213,-1.378 -3.395,-1.964 -5.603,-4.937 -6.622,-8.914 -1,-3.9 -0.455,-7.517 1.637,-10.847 2.092,-3.33 5.201,-5.524 9.335,-6.584 z" id="path16" />
        <path fill="#473467" d="m 507.425,763.119 -7.817,3.181 8.396,20.638 -6.596,2.684 -8.396,-20.639 -7.744,3.15 -2.171,-5.334 22.157,-9.015 z" id="path18" />
        <path fill="#473467" d="m 530.438,750.295 -12.914,7.23 2.717,4.851 11.657,-6.526 2.735,4.887 -11.657,6.526 2.755,4.921 13.298,-7.445 2.736,4.887 -19.511,10.924 -13.679,-24.432 19.127,-10.709 z" id="path20" />
        <path fill="#473467" d="m 552.804,727.377 9.644,13.067 c 2.201,2.983 3.023,6.029 2.469,9.14 -0.555,3.111 -2.409,5.83 -5.563,8.157 -3.176,2.343 -6.347,3.334 -9.515,2.97 -3.168,-0.362 -5.853,-2.035 -8.054,-5.018 l -9.643,-13.068 5.729,-4.227 9.644,13.066 c 1.108,1.502 2.426,2.378 3.951,2.627 1.526,0.25 2.986,-0.141 4.382,-1.17 1.372,-1.014 2.147,-2.265 2.324,-3.754 0.177,-1.489 -0.296,-2.996 -1.421,-4.52 l -9.643,-13.067 z" id="path22" />
        <path fill="#473467" d="m 588.725,732.424 -8.424,-2.904 -0.146,0.137 -3.94,3.692 5.389,5.75 -5.195,4.868 -19.146,-20.43 9.136,-8.562 c 2.704,-2.534 5.375,-3.877 8.012,-4.028 2.637,-0.148 5.021,0.914 7.155,3.189 2.954,3.152 3.77,6.5 2.447,10.041 l 10.609,2.722 z m -16.339,-3.161 3.94,-3.692 c 1.128,-1.058 1.739,-2.16 1.833,-3.309 0.094,-1.147 -0.36,-2.256 -1.363,-3.326 -0.984,-1.051 -2.044,-1.557 -3.177,-1.519 -1.134,0.039 -2.265,0.587 -3.393,1.645 l -3.94,3.692 z" id="path24" />
      </g>
    </g>
  </g>
  <g style="display:inline" id="layer25">
    <g style="display:inline" id="filet_separation_theme" transform="translate(18.490001,32.000005)">
      <line id="line29" y2="615.92603" x2="426.51999" y1="578.14301" x1="426.51999" stroke-miterlimit="10" stroke-width="2" stroke="#000000" fill="none" />
    </g>
  </g>
  <g style="display:inline" id="layer24">
    <g style="display:inline" id="picto_theme" transform="translate(18.49,32)">
      <g id="g36">
        <path id="path32" d="m 486.045,574.54 c 2.246,2.157 5.02,3.875 8.242,5.102 3.221,1.229 7.002,1.853 11.238,1.853 4.178,0 7.945,-0.623 11.193,-1.853 3.25,-1.227 6.039,-2.943 8.285,-5.102 2.249,-2.159 4.01,-4.719 5.231,-7.604 0.534,-1.265 0.978,-2.605 1.321,-3.992 h -16.461 c -0.434,0.747 -0.871,1.367 -1.334,1.889 -1.795,2.023 -4.565,3.05 -8.236,3.05 -4.46,0 -5.666,-0.149 -8.277,-3.047 -0.473,-0.522 -0.906,-1.126 -1.354,-1.892 H 479.49 c 0.342,1.382 0.787,2.724 1.326,3.991 1.222,2.889 2.981,5.448 5.229,7.605 z" stroke-miterlimit="10" stroke-width="2" stroke="#000000" fill="none" />
        <path id="path34" d="m 532.34,610.781 c -0.172,-3.267 -0.881,-6.391 -2.105,-9.282 -1.221,-2.881 -2.98,-5.422 -5.229,-7.551 -2.245,-2.127 -5.034,-3.843 -8.288,-5.102 -3.252,-1.256 -7.018,-1.894 -11.191,-1.894 -4.231,0 -8.013,0.638 -11.236,1.893 -3.225,1.26 -6,2.977 -8.246,5.103 -2.247,2.127 -4.006,4.668 -5.227,7.551 -1.226,2.889 -1.935,6.011 -2.107,9.284 -0.119,2.587 -0.172,10.858 -0.172,13.566 0,0.202 0.002,0.393 0.006,0.587 l 10e-4,0.061 h 15.365 l -10e-4,-0.116 c -0.004,-0.233 -0.008,-0.467 -0.008,-0.709 0,-1.283 0.014,-8.247 0.045,-9.537 0.031,-1.337 0.103,-2.471 0.217,-3.463 0.117,-1.493 0.433,-2.903 0.936,-4.181 0.506,-1.28 1.231,-2.41 2.16,-3.358 0.926,-0.949 2.09,-1.709 3.453,-2.256 1.365,-0.546 2.984,-0.823 4.814,-0.823 1.828,0 3.448,0.277 4.813,0.823 1.361,0.546 2.525,1.306 3.457,2.255 0.925,0.951 1.65,2.08 2.156,3.358 0.501,1.276 0.816,2.687 0.936,4.194 0.059,1.02 0.117,2.163 0.176,3.441 0.057,1.296 0.084,8.262 0.084,9.546 0,0.212 -0.006,0.418 -0.012,0.624 -0.002,0.066 -0.004,0.133 -0.006,0.201 h 15.379 l 0.002,-0.078 c 0.003,-0.187 0.006,-0.373 0.006,-0.569 -0.002,-2.91 -0.063,-11.035 -0.178,-13.568 z" stroke-miterlimit="10" stroke-width="2" stroke="#000000" fill="none" />
      </g>
    </g>
  </g>
  <g style="display:inline" id="layer23">
    <g style="display:inline" id="texte_picto_theme" transform="translate(18.49,32)">
      <g id="g59">
        <path id="path39" d="m 452.68,542.014 h -3.799 v 10.025 h -3.203 v -10.025 h -3.763 v -2.592 h 10.765 z" />
        <path id="path41" d="m 463.911,541.959 h -6.66 v 2.502 h 6.013 v 2.521 h -6.013 v 2.538 h 6.858 v 2.52 h -10.063 v -12.6 h 9.864 v 2.519 z" />
        <path id="path43" d="m 473.486,545.451 4.519,6.588 h -3.834 l -2.718,-4.014 -2.719,4.014 h -3.726 l 4.5,-6.443 -4.212,-6.156 h 3.727 l 2.43,3.672 2.43,-3.672 h 3.762 z" />
        <path id="path45" d="m 489.021,542.014 h -3.799 v 10.025 h -3.203 v -10.025 h -3.763 v -2.592 h 10.765 z" />
        <path id="path47" d="m 500.252,541.959 h -6.66 v 2.502 h 6.013 v 2.521 h -6.013 v 2.538 h 6.858 v 2.52 h -10.062 v -12.6 h 9.863 v 2.519 z" />
        <path id="path49" d="m 516.326,542.014 h -3.798 v 10.025 h -3.204 v -10.025 h -3.762 v -2.592 h 10.764 z" />
        <path id="path51" d="m 529.322,552.039 h -3.204 v -4.896 h -5.22 v 4.896 h -3.205 v -12.6 h 3.205 v 5.184 h 5.22 v -5.184 h 3.204 z" />
        <path id="path53" d="m 541.706,541.959 h -6.66 v 2.502 h 6.013 v 2.521 h -6.013 v 2.538 h 6.858 v 2.52 h -10.063 v -12.6 h 9.864 v 2.519 z m -3.311,-3.617 h -2.377 l -2.34,-2.034 2.809,-0.99 z" />
        <path id="path55" d="m 557.816,552.039 h -2.826 l -0.018,-8.189 -3.024,6.93 h -2.088 l -3.024,-6.93 v 8.189 h -2.861 v -12.617 h 3.51 l 3.42,7.506 3.42,-7.506 h 3.492 v 12.617 z" />
        <path id="path57" d="m 570.218,541.959 h -6.66 v 2.502 h 6.013 v 2.521 h -6.013 v 2.538 h 6.858 v 2.52 h -10.063 v -12.6 h 9.864 v 2.519 z" />
      </g>
    </g>
  </g>
  <g style="display:inline" id="layer22">
    <g style="display:inline" id="picto_categorie" transform="translate(18.49,31.999995)">
      <g id="g92">
        <polygon id="polygon62" points="342.563,627.65 371.917,611.307 371.917,577.328 342.348,560.232 312.779,577.436 312.779,610.307 " stroke-miterlimit="10" stroke-linejoin="round" stroke-width="2" stroke="#000000" fill="none" />
        <polyline id="polyline64" points="    312.779,577.436 342.455,593.994 371.917,577.328   " stroke-miterlimit="10" stroke-linejoin="round" stroke-width="2" stroke="#000000" fill="none" />
        <polygon id="polygon66" points="342.455,577.221 356.972,585.715 356.972,602.812 342.563,610.983 327.563,601.952 327.402,585.822 " stroke-miterlimit="10" stroke-linejoin="round" stroke-width="2" stroke="#000000" fill="none" />
        <line id="line68" y2="627.758" x2="342.45499" y1="593.99402" x1="342.45499" stroke-miterlimit="10" stroke-linejoin="round" stroke-width="2" stroke="#000000" fill="none" />
        <line id="line70" y2="577.22101" x2="342.34799" y1="560.23199" x1="342.34799" stroke-miterlimit="10" stroke-linejoin="round" stroke-width="2" stroke="#000000" fill="none" />
        <line id="line72" y2="602.81201" x2="356.97198" y1="611.30701" x1="371.91699" stroke-miterlimit="10" stroke-linejoin="round" stroke-width="2" stroke="#000000" fill="none" />
        <line id="line74" y2="610.98297" x2="313.31601" y1="602.38202" x1="327.832" stroke-miterlimit="10" stroke-linejoin="round" stroke-width="2" stroke="#000000" fill="none" />
        <line id="line76" y2="575.91498" x2="359.95801" y1="578.40399" x1="356.004" stroke-miterlimit="10" stroke-linejoin="round" stroke-linecap="round" stroke-width="2" stroke="#000000" fill="none" />
        <line id="line78" y2="588.388" x2="366.76199" y1="588.388" x1="360.965" stroke-miterlimit="10" stroke-linejoin="round" stroke-linecap="round" stroke-width="2" stroke="#000000" fill="none" />
        <line id="line80" y2="599.12299" x2="364.98999" y1="596.25299" x1="361.487" stroke-miterlimit="10" stroke-linejoin="round" stroke-linecap="round" stroke-width="2" stroke="#000000" fill="none" />
        <line id="line82" y2="573.237" x2="347.42499" y1="568.94098" x1="349.33701" stroke-miterlimit="10" stroke-linejoin="round" stroke-linecap="round" stroke-width="2" stroke="#000000" fill="none" />
        <line id="line84" y2="575.48401" x2="325.09" y1="577.974" x1="329.04501" stroke-miterlimit="10" stroke-linejoin="round" stroke-linecap="round" stroke-width="2" stroke="#000000" fill="none" />
        <line id="line86" y2="587.95697" x2="318.28699" y1="587.95697" x1="324.08401" stroke-miterlimit="10" stroke-linejoin="round" stroke-linecap="round" stroke-width="2" stroke="#000000" fill="none" />
        <line id="line88" y2="598.69299" x2="320.05899" y1="595.82202" x1="323.561" stroke-miterlimit="10" stroke-linejoin="round" stroke-linecap="round" stroke-width="2" stroke="#000000" fill="none" />
        <line id="line90" y2="572.80701" x2="337.62299" y1="568.51202" x1="335.711" stroke-miterlimit="10" stroke-linejoin="round" stroke-linecap="round" stroke-width="2" stroke="#000000" fill="none" />
      </g>
    </g>
  </g>
  <g style="display:inline" id="layer21">
    <g style="display:inline" id="texte_picto_categorie" transform="translate(18.49,32)">
      <g id="g107">
        <path id="path95" d="m 310.355,539.439 h 5.49 c 1.608,0 2.856,0.381 3.744,1.143 0.888,0.763 1.332,1.846 1.332,3.25 0,1.476 -0.444,2.621 -1.332,3.438 -0.888,0.816 -2.136,1.225 -3.744,1.225 h -2.286 v 3.545 h -3.204 z m 3.204,2.52 v 4.015 h 2.124 c 0.708,0 1.254,-0.174 1.638,-0.522 0.384,-0.348 0.576,-0.852 0.576,-1.512 0,-0.648 -0.192,-1.14 -0.576,-1.477 -0.384,-0.335 -0.93,-0.504 -1.638,-0.504 z" />
        <path id="path97" d="m 330.191,552.039 -1.872,-3.545 h -0.09 -2.43 v 3.545 h -3.204 v -12.6 h 5.634 c 1.668,0 2.958,0.381 3.87,1.143 0.912,0.763 1.368,1.846 1.368,3.25 0,1.943 -0.762,3.293 -2.286,4.049 l 2.646,4.158 z m -4.392,-6.065 h 2.43 c 0.696,0 1.236,-0.174 1.62,-0.522 0.384,-0.348 0.576,-0.852 0.576,-1.512 0,-0.648 -0.192,-1.14 -0.576,-1.477 -0.384,-0.335 -0.924,-0.504 -1.62,-0.504 h -2.43 z" />
        <path id="path99" d="m 341.603,539.332 c 1.956,0 3.582,0.609 4.878,1.826 1.296,1.219 1.944,2.739 1.944,4.563 0,1.836 -0.651,3.372 -1.953,4.608 -1.302,1.235 -2.925,1.854 -4.869,1.854 -1.944,0 -3.564,-0.615 -4.86,-1.846 -1.296,-1.229 -1.944,-2.768 -1.944,-4.616 0,-1.836 0.648,-3.36 1.944,-4.572 1.296,-1.212 2.916,-1.817 4.86,-1.817 z m 0.036,2.682 c -0.984,0 -1.824,0.357 -2.52,1.07 -0.696,0.715 -1.044,1.6 -1.044,2.656 0,1.055 0.351,1.946 1.053,2.672 0.702,0.727 1.539,1.09 2.511,1.09 0.972,0 1.797,-0.363 2.475,-1.09 0.678,-0.726 1.017,-1.617 1.017,-2.672 0,-1.057 -0.339,-1.941 -1.017,-2.656 -0.678,-0.713 -1.503,-1.07 -2.475,-1.07 z" />
        <path id="path101" d="m 357.029,539.422 v 8.531 c 0,1.332 -0.387,2.371 -1.161,3.114 -0.774,0.744 -1.839,1.116 -3.195,1.116 -1.716,0 -3.162,-0.672 -4.338,-2.016 l 1.476,-2.143 c 0.9,0.936 1.782,1.404 2.646,1.404 0.9,0 1.35,-0.516 1.35,-1.549 v -5.867 h -4.32 v -2.592 h 7.542 z" />
        <path id="path103" d="m 369.197,541.959 h -6.66 v 2.502 h 6.012 v 2.521 h -6.012 v 2.538 h 6.858 v 2.52 h -10.062 v -12.6 h 9.864 z" />
        <path id="path105" d="m 381.095,542.014 h -3.798 v 10.025 h -3.204 v -10.025 h -3.762 v -2.592 h 10.764 z" />
      </g>
    </g>
  </g>
  <g style="display:inline" id="layer20">
    <g style="display:inline" id="fond_categorie" transform="translate(18.49,32)">
      <polygon id="polygon110" points="655.738,276.292 426.333,143.849 196.922,276.299 196.922,515.931 655.738,515.931 " fill="#b7d5e2" />
    </g>
  </g>
  <g style="display:inline" id="layer19">
    <g style="display:inline" id="picto_posture" transform="translate(18.49,32)">
      <g id="g159">
        <g id="g157">
          <g id="g115">
            <path id="path113" d="m 419.083,95.521 -0.515,-0.873 c -0.005,-10e-4 -0.009,-10e-4 -0.014,-0.002 l -0.728,0.703 -1.834,-1.068 0.255,-0.982 c -0.003,-0.004 -0.005,-0.006 -0.008,-0.01 l -1.013,-0.018 -0.54,-2.053 0.875,-0.514 0.001,-0.006 -0.706,-0.73 1.068,-1.83 0.983,0.254 c 0.002,-0.002 0.005,-0.004 0.008,-0.006 l 0.017,-1.02 2.052,-0.539 0.517,0.877 c 0.003,0 0.007,0 0.01,0 l 0.732,-0.707 1.833,1.068 -0.256,0.988 c 0,0 0.001,0.002 0.002,0.004 l 1.02,0.016 0.543,2.053 -0.88,0.518 -10e-4,0.006 0.707,0.732 -1.068,1.834 -0.985,-0.256 c -0.002,0.002 -0.004,0.004 -0.007,0.006 l -0.017,1.016 z m -0.827,-3.022 0.309,0.104 c 0.176,0.059 0.359,0.087 0.543,0.074 l 0.314,-0.016 0.289,-0.146 c 0.166,-0.082 0.313,-0.193 0.438,-0.33 l 0.212,-0.234 0.101,-0.305 c 0.059,-0.178 0.083,-0.359 0.074,-0.542 L 420.52,90.785 420.375,90.5 c -0.083,-0.166 -0.194,-0.312 -0.33,-0.436 l -0.234,-0.213 -0.308,-0.102 c -0.176,-0.059 -0.352,-0.078 -0.541,-0.074 l -0.319,0.016 -0.284,0.143 c -0.167,0.084 -0.314,0.197 -0.439,0.334 l -0.211,0.232 -0.102,0.307 c -0.058,0.176 -0.082,0.356 -0.073,0.539 l 0.016,0.318 0.144,0.287 c 0.082,0.164 0.194,0.313 0.332,0.438 z" fill="#473467" />
          </g>
          <g id="g119">
            <path id="path117" d="m 433.415,41.269 0.145,1.663 0.909,-0.001 0.128,-1.654 c 0.207,-0.009 0.413,-0.022 0.618,-0.042 l 0.388,1.609 0.899,-0.137 -0.119,-1.638 c 0.313,-0.061 0.622,-0.132 0.929,-0.215 l 0.657,1.494 0.861,-0.293 -0.4,-1.565 c 0.206,-0.078 0.411,-0.162 0.614,-0.252 l 0.861,1.357 0.807,-0.42 -0.621,-1.462 c 0.229,-0.129 0.455,-0.266 0.677,-0.41 l 1.048,1.177 0.729,-0.545 -0.831,-1.314 c 0.199,-0.159 0.395,-0.325 0.585,-0.497 l 1.196,0.975 0.633,-0.653 -1.008,-1.142 c 0.148,-0.162 0.293,-0.33 0.433,-0.502 l 1.303,0.77 0.528,-0.74 -1.144,-0.959 c 0.114,-0.17 0.225,-0.345 0.331,-0.522 l 1.399,0.501 0.396,-0.774 -1.231,-0.782 c 0.096,-0.201 0.185,-0.404 0.269,-0.608 l 1.431,0.277 0.273,-0.825 -1.308,-0.574 c 0.077,-0.258 0.145,-0.517 0.203,-0.776 l 1.419,0.042 0.137,-0.857 -1.349,-0.348 c 0.032,-0.259 0.058,-0.518 0.074,-0.776 l 1.374,-0.179 -0.001,-0.869 -1.356,-0.127 c -0.008,-0.225 -0.022,-0.449 -0.042,-0.673 l 1.306,-0.374 -0.131,-0.859 -1.335,0.076 c -0.063,-0.338 -0.14,-0.673 -0.23,-1.004 l 1.186,-0.582 -0.28,-0.822 -1.266,0.302 c -0.085,-0.224 -0.177,-0.444 -0.275,-0.663 l 1.07,-0.746 -0.401,-0.771 -1.191,0.485 c -0.141,-0.248 -0.289,-0.492 -0.447,-0.729 l 0.92,-0.894 -0.521,-0.695 -1.082,0.66 c -0.173,-0.213 -0.354,-0.422 -0.542,-0.623 l 0.758,-1.016 -0.624,-0.604 -0.955,0.816 c -0.177,-0.157 -0.358,-0.31 -0.546,-0.458 l 0.594,-1.109 -0.707,-0.504 -0.82,0.946 c -0.192,-0.124 -0.39,-0.245 -0.591,-0.359 l 0.421,-1.178 -0.773,-0.396 -0.669,1.053 c -0.224,-0.102 -0.449,-0.196 -0.676,-0.283 l 0.239,-1.232 -0.824,-0.273 -0.505,1.147 c -0.279,-0.077 -0.56,-0.145 -0.841,-0.202 l 0.037,-1.262 -0.857,-0.137 -0.315,1.225 c -0.274,-0.029 -0.549,-0.049 -0.823,-0.06 l -0.164,-1.264 -0.869,10e-4 -0.119,1.274 c -0.233,0.014 -0.467,0.034 -0.698,0.061 l -0.356,-1.242 -0.859,0.131 0.074,1.298 c -0.341,0.072 -0.679,0.158 -1.012,0.26 l -0.581,-1.182 -0.822,0.28 0.309,1.291 c -0.217,0.088 -0.43,0.184 -0.641,0.284 l -0.767,-1.101 -0.771,0.401 0.509,1.253 c -0.234,0.142 -0.466,0.291 -0.691,0.448 l -0.955,-0.983 -0.695,0.521 0.721,1.181 c -0.196,0.168 -0.389,0.343 -0.575,0.524 l -1.124,-0.839 -0.604,0.624 0.922,1.078 c -0.14,0.164 -0.275,0.333 -0.406,0.506 l -1.267,-0.677 -0.505,0.707 1.099,0.951 c -0.11,0.181 -0.218,0.364 -0.32,0.553 l -1.359,-0.553 -0.413,0.81 1.267,0.777 c -0.092,0.213 -0.177,0.427 -0.256,0.642 l -1.452,-0.347 -0.286,0.863 1.393,0.586 c -0.068,0.263 -0.129,0.526 -0.18,0.791 l -1.522,-0.111 -0.144,0.898 1.503,0.361 c -0.023,0.256 -0.039,0.511 -0.047,0.766 l -1.555,0.136 10e-4,0.909 1.574,0.121 c 0.015,0.215 0.034,0.428 0.059,0.64 l -1.546,0.372 0.137,0.9 1.603,-0.117 c 0.069,0.315 0.149,0.629 0.242,0.938 l -1.491,0.655 0.294,0.86 1.59,-0.406 c 0.082,0.2 0.17,0.397 0.262,0.594 l -1.388,0.881 0.421,0.807 1.521,-0.647 c 0.131,0.219 0.268,0.435 0.412,0.646 l -1.24,1.105 0.545,0.728 1.41,-0.892 c 0.155,0.186 0.317,0.367 0.484,0.544 l -1.058,1.298 0.653,0.633 1.26,-1.111 c 0.153,0.133 0.311,0.263 0.472,0.389 l -0.857,1.45 0.74,0.528 1.084,-1.293 c 0.162,0.104 0.328,0.203 0.497,0.3 l -0.64,1.571 0.811,0.413 0.886,-1.444 c 0.194,0.088 0.391,0.171 0.587,0.248 l -0.393,1.644 0.863,0.286 0.653,-1.553 c 0.244,0.069 0.489,0.131 0.735,0.185 l -0.122,1.676 0.898,0.143 0.392,-1.625 c 0.235,0.023 0.477,0.043 0.719,0.057 z m -0.437,-2.608 1.091,-6.288 c 1.077,-0.028 2.109,-0.617 2.654,-1.636 l -0.282,0.527 5.572,2.982 c -1.952,3.157 -5.512,4.794 -9.035,4.415 z m 9.562,-5.386 -5.577,-2.986 -0.24,0.448 c 0.543,-1.014 0.464,-2.193 -0.104,-3.104 l 4.669,-4.35 c 2.248,2.742 2.832,6.623 1.252,9.992 z m -9.665,-4.597 c 0.33,-0.616 1.097,-0.848 1.712,-0.519 0.615,0.33 0.848,1.097 0.518,1.712 -0.329,0.616 -1.096,0.848 -1.711,0.519 -0.617,-0.33 -0.848,-1.097 -0.519,-1.712 z m 5.571,-7.726 c 0.782,0.42 1.481,0.934 2.092,1.52 l -4.663,4.343 c -0.131,-0.101 -0.271,-0.192 -0.422,-0.272 -0.685,-0.367 -1.446,-0.449 -2.148,-0.289 l -2.613,-5.822 c 2.451,-0.914 5.267,-0.811 7.754,0.52 z m -12.778,3.866 c 0.941,-1.758 2.361,-3.097 4.012,-3.942 l 2.606,5.809 c -0.418,0.274 -0.776,0.654 -1.028,1.127 -0.221,0.41 -0.338,0.849 -0.362,1.285 l -6.311,0.99 c -0.154,-1.764 0.186,-3.591 1.083,-5.269 z m 3.866,12.779 c -2.568,-1.376 -4.242,-3.77 -4.789,-6.416 l 6.285,-0.986 c 0.233,0.75 0.749,1.413 1.497,1.813 0.146,0.078 0.296,0.144 0.447,0.196 l -1.088,6.275 c -0.801,-0.184 -1.592,-0.476 -2.352,-0.882 z" fill="#473467" />
          </g>
          <g id="g123">
            <path id="path121" d="m 422.643,50.528 c 0.466,0.081 0.946,0.093 1.432,0.027 l 0.826,0.955 c 0.232,-0.059 0.456,-0.131 0.683,-0.217 0.225,-0.09 0.443,-0.192 0.648,-0.304 l -0.037,-1.264 c 0.398,-0.283 0.744,-0.621 1.03,-0.991 l 1.264,0.085 c 0.243,-0.411 0.433,-0.849 0.573,-1.308 l -0.925,-0.867 c 0.075,-0.467 0.09,-0.948 0.028,-1.426 l 0.954,-0.831 c -0.061,-0.228 -0.131,-0.456 -0.217,-0.68 -0.091,-0.226 -0.192,-0.44 -0.304,-0.647 l -1.265,0.04 c -0.28,-0.397 -0.617,-0.742 -0.988,-1.03 l 0.088,-1.265 c -0.412,-0.239 -0.851,-0.433 -1.307,-0.569 l -0.872,0.92 c -0.463,-0.079 -0.943,-0.092 -1.429,-0.027 l -0.832,-0.953 c -0.224,0.058 -0.456,0.13 -0.68,0.216 -0.226,0.089 -0.44,0.192 -0.651,0.304 l 0.046,1.264 c -0.404,0.284 -0.746,0.617 -1.033,0.994 l -1.262,-0.086 c -0.244,0.408 -0.435,0.85 -0.575,1.305 l 0.924,0.868 c -0.079,0.468 -0.089,0.944 -0.025,1.429 l -0.956,0.828 c 0.06,0.229 0.131,0.456 0.22,0.682 0.087,0.225 0.191,0.439 0.301,0.646 l 1.264,-0.039 c 0.28,0.395 0.614,0.74 0.99,1.029 l -0.088,1.262 c 0.411,0.245 0.852,0.435 1.31,0.572 z m -2.841,-4.84 c 0.086,-2.015 1.788,-3.578 3.803,-3.493 2.015,0.085 3.579,1.788 3.494,3.803 -0.086,2.015 -1.788,3.579 -3.803,3.493 -2.016,-0.085 -3.579,-1.788 -3.494,-3.803 z" fill="#473467" />
          </g>
          <g id="g127">
            <path id="path125" d="m 416.52,100.995 1.255,0.229 0.74,-1.592 c 0.395,0.02 0.789,0.012 1.18,-0.023 l 0.802,1.563 1.246,-0.277 0.063,-1.756 c 0.336,-0.121 0.664,-0.265 0.982,-0.429 l 1.331,1.146 1.049,-0.727 -0.602,-1.648 c 0.289,-0.262 0.563,-0.545 0.818,-0.852 l 1.688,0.551 0.685,-1.077 -1.214,-1.296 c 0.154,-0.328 0.284,-0.661 0.393,-0.999 l 1.75,-0.131 0.229,-1.255 -1.592,-0.74 c 0.02,-0.395 0.012,-0.789 -0.023,-1.18 l 1.563,-0.802 -0.277,-1.245 -1.756,-0.063 c -0.121,-0.336 -0.265,-0.664 -0.428,-0.982 l 1.146,-1.331 -0.726,-1.049 -1.649,0.602 c -0.262,-0.289 -0.545,-0.563 -0.852,-0.818 l 0.551,-1.688 -1.077,-0.685 -1.296,1.214 c -0.328,-0.153 -0.661,-0.284 -0.999,-0.393 l -0.131,-1.75 -1.255,-0.229 -0.74,1.592 c -0.395,-0.02 -0.789,-0.012 -1.18,0.024 l -0.802,-1.564 -1.245,0.277 -0.063,1.756 c -0.336,0.121 -0.664,0.265 -0.982,0.428 l -1.331,-1.146 -1.049,0.726 0.602,1.649 c -0.289,0.262 -0.563,0.545 -0.818,0.852 l -1.688,-0.55 -0.685,1.076 1.214,1.297 c -0.153,0.327 -0.284,0.66 -0.393,0.998 l -1.75,0.131 -0.229,1.256 1.592,0.739 c -0.02,0.395 -0.012,0.789 0.023,1.18 l -1.563,0.802 0.277,1.246 1.756,0.063 c 0.121,0.336 0.265,0.664 0.429,0.982 l -1.146,1.331 0.727,1.05 1.648,-0.603 c 0.262,0.289 0.545,0.563 0.852,0.818 l -0.55,1.688 1.076,0.685 1.297,-1.214 c 0.327,0.154 0.66,0.284 0.998,0.393 z m -4.797,-10.048 c 0.169,-3.987 3.539,-7.084 7.527,-6.915 3.988,0.17 7.084,3.539 6.915,7.527 -0.169,3.988 -3.539,7.084 -7.527,6.915 -3.988,-0.169 -7.084,-3.538 -6.915,-7.527 z" fill="#473467" />
          </g>
          <g id="g131">
            <path id="path129" d="m 426.923,83.888 1.946,0.678 1.577,-2.357 c 0.624,0.131 1.255,0.215 1.888,0.256 l 0.891,2.694 2.057,-0.132 0.538,-2.786 c 0.565,-0.11 1.124,-0.257 1.674,-0.438 l 1.838,2.159 1.855,-0.896 -0.551,-2.781 c 0.527,-0.345 1.035,-0.729 1.518,-1.155 l 2.558,1.299 1.361,-1.548 -1.614,-2.37 c 0.326,-0.484 0.617,-0.984 0.874,-1.496 l 2.825,0.227 0.678,-1.946 -2.356,-1.577 c 0.13,-0.624 0.215,-1.256 0.256,-1.889 l 2.694,-0.89 -0.132,-2.057 -2.786,-0.538 c -0.11,-0.565 -0.257,-1.124 -0.439,-1.674 l 2.16,-1.838 -0.897,-1.855 -2.78,0.551 c -0.346,-0.527 -0.73,-1.035 -1.155,-1.518 l 1.298,-2.558 -1.548,-1.361 -2.37,1.614 c -0.484,-0.326 -0.984,-0.617 -1.496,-0.874 l 0.228,-2.825 -1.946,-0.678 -1.578,2.356 c -0.624,-0.13 -1.255,-0.215 -1.888,-0.256 l -0.89,-2.694 -2.057,0.132 -0.538,2.786 c -0.565,0.11 -1.125,0.257 -1.674,0.438 l -1.838,-2.159 -1.855,0.897 0.55,2.78 c -0.526,0.346 -1.034,0.73 -1.518,1.155 l -2.558,-1.298 -1.36,1.547 1.614,2.371 c -0.327,0.484 -0.618,0.984 -0.875,1.496 l -2.825,-0.228 -0.678,1.946 2.356,1.578 c -0.13,0.624 -0.215,1.255 -0.255,1.888 l -2.694,0.89 0.132,2.057 2.786,0.538 c 0.11,0.565 0.256,1.124 0.438,1.674 l -2.159,1.838 0.896,1.855 2.781,-0.55 c 0.345,0.526 0.729,1.034 1.155,1.518 l -1.299,2.557 1.548,1.361 2.371,-1.614 c 0.483,0.327 0.983,0.618 1.495,0.874 z m -3.198,-16.837 c 1.047,-5.242 6.145,-8.643 11.387,-7.596 5.241,1.047 8.643,6.145 7.596,11.386 -1.047,5.242 -6.145,8.643 -11.387,7.597 -5.242,-1.048 -8.642,-6.146 -7.596,-11.387 z" fill="#473467" />
          </g>
          <g id="g135">
            <path id="path133" d="m 412.167,81.401 0.854,1.346 1.161,-0.349 -0.027,-1.597 c 0.533,-0.291 1.014,-0.68 1.413,-1.151 l 1.56,0.349 0.575,-1.068 -1.15,-1.111 c 0.177,-0.604 0.234,-1.217 0.185,-1.812 l 1.352,-0.858 -0.349,-1.161 -1.602,0.026 c -0.291,-0.531 -0.679,-1.01 -1.147,-1.408 l 0.349,-1.563 -1.067,-0.575 -1.113,1.15 c -0.606,-0.178 -1.221,-0.235 -1.817,-0.186 l -0.855,-1.348 -1.161,0.348 0.026,1.599 c -0.533,0.293 -1.015,0.682 -1.414,1.153 l -1.555,-0.347 -0.575,1.067 1.147,1.108 c -0.177,0.604 -0.234,1.215 -0.187,1.808 l -1.344,0.854 0.349,1.161 1.59,-0.026 c 0.292,0.536 0.683,1.019 1.155,1.42 l -0.348,1.554 1.067,0.575 1.106,-1.145 c 0.608,0.18 1.224,0.237 1.822,0.187 z m -1.87,-5.047 c 0.034,-0.807 0.716,-1.432 1.521,-1.398 0.807,0.034 1.433,0.716 1.398,1.522 -0.034,0.806 -0.716,1.432 -1.521,1.397 -0.806,-0.032 -1.432,-0.714 -1.398,-1.521 z" fill="#473467" />
          </g>
          <g id="g139">
            <path id="path137" d="m 404.122,68.899 0.107,1.71 0.918,0.021 0.172,-1.702 c 0.216,-0.005 0.431,-0.016 0.644,-0.032 l 0.363,1.667 0.91,-0.118 -0.086,-1.698 c 0.252,-0.044 0.502,-0.095 0.749,-0.155 l 0.624,1.578 0.88,-0.264 -0.356,-1.65 c 0.232,-0.08 0.461,-0.168 0.688,-0.262 l 0.86,1.449 0.827,-0.4 -0.609,-1.561 c 0.185,-0.099 0.365,-0.201 0.544,-0.309 l 1.059,1.293 0.758,-0.519 -0.827,-1.437 c 0.259,-0.192 0.509,-0.393 0.751,-0.604 l 1.253,1.071 0.654,-0.645 -1.05,-1.248 c 0.153,-0.161 0.303,-0.328 0.448,-0.499 l 1.379,0.857 0.55,-0.736 -1.207,-1.057 c 0.152,-0.219 0.298,-0.441 0.437,-0.67 l 1.469,0.611 0.424,-0.816 -1.332,-0.83 c 0.111,-0.232 0.216,-0.469 0.313,-0.709 l 1.516,0.362 0.289,-0.872 -1.417,-0.596 c 0.063,-0.213 0.121,-0.43 0.174,-0.647 l 1.521,0.13 0.155,-0.905 -1.46,-0.37 c 0.029,-0.205 0.053,-0.412 0.072,-0.621 l 1.492,-0.158 0.021,-0.877 -1.463,-0.172 c -0.002,-0.225 -0.009,-0.449 -0.022,-0.672 l 1.423,-0.375 -0.113,-0.869 -1.441,0.051 c -0.043,-0.269 -0.095,-0.533 -0.155,-0.796 l 1.31,-0.583 -0.252,-0.841 -1.38,0.275 c -0.083,-0.249 -0.174,-0.496 -0.273,-0.738 l 1.172,-0.766 -0.382,-0.79 -1.289,0.48 c -0.105,-0.201 -0.217,-0.399 -0.333,-0.594 l 1.023,-0.914 -0.496,-0.724 -1.181,0.654 c -0.205,-0.279 -0.422,-0.55 -0.649,-0.812 l 0.822,-1.049 -0.615,-0.625 -1.019,0.829 c -0.175,-0.166 -0.355,-0.327 -0.541,-0.482 l 0.646,-1.147 -0.703,-0.525 -0.871,0.963 c -0.236,-0.163 -0.479,-0.319 -0.728,-0.467 l 0.445,-1.215 -0.778,-0.405 -0.693,1.075 c -0.251,-0.118 -0.507,-0.229 -0.767,-0.33 l 0.243,-1.255 -0.832,-0.276 -0.511,1.162 c -0.229,-0.065 -0.462,-0.125 -0.697,-0.178 l 0.054,-1.27 -0.865,-0.148 -0.33,1.221 c -0.229,-0.029 -0.462,-0.052 -0.695,-0.067 l -0.134,-1.257 -0.877,-0.02 -0.146,1.25 c -0.248,0.006 -0.494,0.019 -0.738,0.039 l -0.323,-1.226 -0.869,0.113 0.044,1.265 c -0.288,0.051 -0.572,0.113 -0.854,0.185 l -0.52,-1.163 -0.84,0.251 0.25,1.251 c -0.263,0.095 -0.521,0.197 -0.774,0.308 l -0.704,-1.077 -0.79,0.382 0.451,1.211 c -0.207,0.114 -0.41,0.235 -0.609,0.362 l -0.868,-0.975 -0.725,0.496 0.637,1.148 c -0.278,0.215 -0.548,0.441 -0.807,0.68 l -1.047,-0.82 -0.625,0.615 0.847,1.039 c -0.157,0.176 -0.31,0.355 -0.457,0.54 l -1.181,-0.665 -0.524,0.703 1.013,0.916 c -0.151,0.231 -0.296,0.469 -0.433,0.711 l -1.3,-0.476 -0.404,0.778 1.174,0.758 c -0.105,0.238 -0.203,0.482 -0.294,0.729 l -1.391,-0.27 -0.275,0.833 1.311,0.576 c -0.055,0.21 -0.104,0.423 -0.147,0.639 l -1.449,-0.062 -0.148,0.865 1.417,0.383 c -0.022,0.213 -0.039,0.428 -0.05,0.644 l -1.479,0.093 -0.021,0.918 1.492,0.151 c 0.01,0.233 0.026,0.466 0.049,0.696 l -1.473,0.321 0.118,0.91 1.523,-0.077 c 0.053,0.269 0.114,0.535 0.184,0.798 l -1.434,0.566 0.264,0.88 1.525,-0.33 c 0.09,0.243 0.188,0.482 0.293,0.717 l -1.354,0.805 0.399,0.827 1.485,-0.58 c 0.106,0.188 0.218,0.374 0.334,0.556 l -1.243,1.018 0.519,0.758 1.406,-0.81 c 0.201,0.257 0.411,0.507 0.632,0.747 l -1.069,1.25 0.645,0.654 1.269,-1.068 c 0.162,0.146 0.328,0.288 0.498,0.426 l -0.876,1.409 0.736,0.55 1.1,-1.256 c 0.215,0.142 0.435,0.277 0.658,0.406 l -0.644,1.549 0.814,0.423 0.892,-1.429 c 0.224,0.1 0.449,0.194 0.68,0.281 l -0.394,1.646 0.872,0.288 0.658,-1.563 c 0.198,0.053 0.397,0.103 0.6,0.146 l -0.145,1.695 0.905,0.155 0.419,-1.651 c 0.19,0.028 0.385,0.046 0.581,0.059 z m -8.969,-12.485 c 0.23,-5.437 4.825,-9.657 10.263,-9.428 5.437,0.23 9.657,4.825 9.427,10.263 -0.23,5.438 -4.824,9.658 -10.262,9.428 -5.438,-0.23 -9.658,-4.825 -9.428,-10.263 z" fill="#473467" />
          </g>
          <g id="g143">
            <path id="path141" d="m 403.435,63.113 0.81,0.147 0.477,-1.026 c 0.255,0.013 0.509,0.008 0.761,-0.015 l 0.518,1.008 0.803,-0.179 0.041,-1.132 c 0.216,-0.079 0.428,-0.171 0.633,-0.276 l 0.858,0.738 0.677,-0.468 -0.389,-1.063 c 0.187,-0.169 0.363,-0.353 0.528,-0.55 l 1.088,0.354 0.442,-0.693 -0.783,-0.836 c 0.1,-0.212 0.184,-0.427 0.253,-0.645 l 1.129,-0.084 0.147,-0.81 -1.026,-0.478 c 0.013,-0.254 0.007,-0.508 -0.016,-0.76 l 1.008,-0.518 -0.179,-0.803 -1.132,-0.041 c -0.078,-0.217 -0.17,-0.428 -0.276,-0.633 l 0.739,-0.858 -0.469,-0.677 -1.063,0.389 c -0.169,-0.188 -0.352,-0.363 -0.549,-0.528 l 0.354,-1.089 -0.694,-0.441 -0.836,0.783 c -0.211,-0.1 -0.426,-0.184 -0.644,-0.254 l -0.085,-1.128 -0.81,-0.147 -0.477,1.026 c -0.255,-0.013 -0.509,-0.007 -0.761,0.016 l -0.517,-1.009 -0.804,0.179 -0.041,1.133 c -0.216,0.078 -0.428,0.17 -0.633,0.275 l -0.858,-0.738 -0.677,0.468 0.389,1.063 c -0.187,0.169 -0.363,0.352 -0.527,0.549 l -1.089,-0.354 -0.442,0.694 0.783,0.836 c -0.099,0.211 -0.184,0.426 -0.253,0.644 l -1.129,0.084 -0.147,0.81 1.027,0.478 c -0.014,0.254 -0.008,0.508 0.015,0.761 l -1.008,0.517 0.179,0.803 1.132,0.041 c 0.078,0.217 0.171,0.428 0.276,0.634 l -0.739,0.857 0.469,0.677 1.063,-0.388 c 0.169,0.187 0.352,0.363 0.549,0.527 l -0.354,1.089 0.694,0.441 0.836,-0.782 c 0.211,0.099 0.427,0.183 0.644,0.253 z m -2.865,-6.468 c 0.104,-2.445 2.17,-4.343 4.615,-4.239 2.444,0.104 4.343,2.17 4.239,4.614 -0.104,2.445 -2.17,4.343 -4.615,4.239 -2.444,-0.104 -4.342,-2.17 -4.239,-4.614 z" fill="#473467" />
          </g>
          <g id="g147">
            <path id="path145" d="m 454.081,62.913 0.101,1.161 0.635,-0.001 0.089,-1.154 c 0.145,-0.006 0.288,-0.016 0.432,-0.029 l 0.271,1.123 0.627,-0.096 -0.083,-1.143 c 0.218,-0.042 0.435,-0.092 0.648,-0.15 l 0.458,1.043 0.602,-0.205 -0.279,-1.092 c 0.145,-0.055 0.287,-0.113 0.429,-0.176 l 0.601,0.948 0.563,-0.294 -0.434,-1.02 c 0.16,-0.091 0.317,-0.186 0.472,-0.287 l 0.731,0.821 0.509,-0.38 -0.58,-0.917 c 0.139,-0.111 0.275,-0.228 0.408,-0.348 l 0.835,0.681 0.441,-0.456 -0.703,-0.796 c 0.104,-0.114 0.204,-0.23 0.302,-0.352 l 0.909,0.538 0.368,-0.517 -0.798,-0.669 c 0.079,-0.119 0.156,-0.241 0.23,-0.365 l 0.978,0.35 0.275,-0.54 -0.859,-0.546 c 0.067,-0.141 0.129,-0.282 0.188,-0.425 l 0.998,0.193 0.191,-0.575 -0.913,-0.401 c 0.054,-0.18 0.101,-0.36 0.143,-0.541 l 0.99,0.029 0.095,-0.599 -0.941,-0.243 c 0.023,-0.18 0.041,-0.361 0.052,-0.541 l 0.959,-0.125 -0.001,-0.606 -0.946,-0.088 c -0.005,-0.157 -0.015,-0.313 -0.029,-0.47 l 0.911,-0.262 -0.091,-0.6 -0.932,0.054 c -0.044,-0.236 -0.097,-0.47 -0.161,-0.7 l 0.827,-0.407 -0.195,-0.573 -0.883,0.211 c -0.06,-0.156 -0.124,-0.311 -0.192,-0.463 l 0.747,-0.521 -0.28,-0.538 -0.831,0.338 c -0.098,-0.172 -0.202,-0.342 -0.313,-0.509 l 0.642,-0.623 -0.363,-0.485 -0.754,0.461 c -0.121,-0.148 -0.247,-0.294 -0.379,-0.436 l 0.528,-0.708 -0.436,-0.422 -0.666,0.569 c -0.123,-0.109 -0.25,-0.216 -0.381,-0.318 l 0.415,-0.775 -0.494,-0.352 -0.572,0.661 c -0.134,-0.087 -0.271,-0.171 -0.412,-0.251 l 0.294,-0.822 -0.54,-0.275 -0.467,0.734 c -0.156,-0.07 -0.313,-0.137 -0.472,-0.197 l 0.167,-0.86 -0.575,-0.19 -0.352,0.801 c -0.195,-0.055 -0.391,-0.102 -0.587,-0.142 l 0.025,-0.88 -0.599,-0.096 -0.22,0.854 c -0.191,-0.02 -0.383,-0.033 -0.574,-0.041 l -0.115,-0.881 h -0.606 l -0.082,0.889 c -0.163,0.01 -0.326,0.024 -0.488,0.043 l -0.248,-0.867 -0.6,0.092 0.052,0.905 c -0.238,0.051 -0.474,0.11 -0.706,0.182 l -0.405,-0.825 -0.574,0.195 0.215,0.901 c -0.15,0.062 -0.299,0.128 -0.446,0.199 l -0.535,-0.769 -0.538,0.28 0.355,0.874 c -0.164,0.099 -0.325,0.203 -0.482,0.313 l -0.666,-0.686 -0.485,0.363 0.503,0.824 c -0.138,0.116 -0.271,0.238 -0.401,0.365 l -0.785,-0.586 -0.421,0.436 0.643,0.752 c -0.097,0.115 -0.191,0.233 -0.283,0.354 l -0.884,-0.473 -0.352,0.494 0.767,0.664 c -0.078,0.125 -0.152,0.254 -0.225,0.385 l -0.948,-0.386 -0.288,0.565 0.884,0.542 c -0.063,0.148 -0.123,0.298 -0.179,0.448 l -1.014,-0.242 -0.199,0.603 0.972,0.409 c -0.048,0.183 -0.09,0.367 -0.125,0.551 l -1.063,-0.077 -0.1,0.627 1.048,0.253 c -0.017,0.178 -0.027,0.355 -0.032,0.534 l -1.085,0.094 10e-4,0.635 1.099,0.085 c 0.01,0.149 0.022,0.298 0.041,0.446 l -1.079,0.26 0.095,0.628 1.119,-0.082 c 0.048,0.221 0.104,0.438 0.168,0.654 l -1.04,0.457 0.205,0.601 1.109,-0.283 c 0.058,0.14 0.118,0.277 0.183,0.414 l -0.968,0.614 0.293,0.563 1.062,-0.452 c 0.092,0.153 0.188,0.303 0.288,0.45 l -0.865,0.771 0.38,0.509 0.984,-0.623 c 0.108,0.129 0.221,0.256 0.338,0.379 l -0.738,0.906 0.456,0.441 0.879,-0.775 c 0.106,0.093 0.217,0.184 0.329,0.271 l -0.599,1.012 0.517,0.368 0.757,-0.901 c 0.113,0.072 0.229,0.142 0.347,0.209 l -0.446,1.096 0.565,0.289 0.618,-1.008 c 0.136,0.062 0.272,0.119 0.41,0.173 l -0.274,1.146 0.603,0.2 0.455,-1.083 c 0.171,0.048 0.342,0.091 0.514,0.128 l -0.085,1.17 0.627,0.1 0.272,-1.134 c 0.163,0.022 0.333,0.036 0.502,0.045 z m -0.306,-1.818 0.761,-4.389 c 0.752,-0.02 1.473,-0.431 1.853,-1.141 l -0.196,0.367 3.888,2.082 c -1.363,2.202 -3.848,3.344 -6.306,3.081 z m 6.673,-3.759 -3.892,-2.084 -0.168,0.313 c 0.379,-0.708 0.324,-1.531 -0.072,-2.167 l 3.259,-3.034 c 1.569,1.913 1.976,4.621 0.873,6.972 z m -6.744,-3.208 c 0.23,-0.43 0.765,-0.592 1.194,-0.361 0.43,0.229 0.591,0.765 0.361,1.193 -0.23,0.43 -0.765,0.592 -1.194,0.361 -0.429,-0.229 -0.59,-0.763 -0.361,-1.193 z m 3.887,-5.391 c 0.547,0.292 1.035,0.65 1.46,1.061 l -3.253,3.029 c -0.092,-0.07 -0.189,-0.134 -0.295,-0.189 -0.478,-0.256 -1.009,-0.314 -1.499,-0.202 l -1.823,-4.063 c 1.71,-0.638 3.674,-0.565 5.41,0.364 z m -8.916,2.698 c 0.657,-1.227 1.647,-2.161 2.799,-2.751 l 1.819,4.054 c -0.292,0.191 -0.541,0.456 -0.718,0.786 -0.153,0.286 -0.235,0.592 -0.253,0.896 l -4.403,0.69 c -0.107,-1.23 0.13,-2.505 0.756,-3.675 z m 2.698,8.916 c -1.793,-0.959 -2.96,-2.63 -3.342,-4.477 l 4.386,-0.688 c 0.162,0.523 0.522,0.985 1.044,1.265 0.103,0.055 0.207,0.1 0.313,0.137 l -0.76,4.379 c -0.559,-0.128 -1.111,-0.332 -1.641,-0.616 z" fill="#473467" />
          </g>
          <g id="g151">
            <path id="path149" d="m 437.058,94.286 c 0.342,-0.241 0.65,-0.532 0.913,-0.876 l 1.113,0.082 c 0.108,-0.182 0.203,-0.366 0.292,-0.562 0.084,-0.196 0.156,-0.397 0.216,-0.596 l -0.813,-0.767 c 0.073,-0.426 0.078,-0.853 0.026,-1.263 l 0.845,-0.735 c -0.104,-0.408 -0.26,-0.801 -0.458,-1.176 l -1.119,0.034 c -0.244,-0.338 -0.535,-0.649 -0.872,-0.91 l 0.079,-1.114 c -0.181,-0.104 -0.367,-0.204 -0.561,-0.29 -0.197,-0.085 -0.396,-0.156 -0.594,-0.216 l -0.766,0.813 c -0.424,-0.073 -0.85,-0.078 -1.261,-0.027 l -0.734,-0.847 c -0.407,0.108 -0.803,0.261 -1.173,0.459 l 0.028,1.12 c -0.34,0.239 -0.648,0.531 -0.911,0.874 l -1.115,-0.077 c -0.104,0.175 -0.204,0.365 -0.291,0.559 -0.085,0.197 -0.155,0.396 -0.217,0.597 l 0.816,0.762 c -0.075,0.431 -0.082,0.852 -0.026,1.267 l -0.844,0.733 c 0.103,0.407 0.259,0.803 0.454,1.175 l 1.12,-0.033 c 0.241,0.343 0.533,0.646 0.876,0.91 l -0.082,1.115 c 0.18,0.105 0.366,0.203 0.563,0.289 0.194,0.086 0.395,0.155 0.592,0.216 l 0.766,-0.813 c 0.422,0.073 0.847,0.08 1.263,0.026 l 0.731,0.845 c 0.41,-0.104 0.804,-0.259 1.177,-0.459 z m -4.797,-1.256 c -1.203,-1.314 -1.113,-3.355 0.2,-4.559 1.314,-1.203 3.354,-1.114 4.559,0.2 1.203,1.313 1.113,3.354 -0.2,4.558 -1.314,1.205 -3.355,1.115 -4.559,-0.199 z" fill="#473467" />
          </g>
          <g id="g155">
            <path id="path153" d="m 402.989,41.96 0.505,0.092 0.298,-0.641 c 0.159,0.008 0.317,0.005 0.475,-0.01 l 0.323,0.629 0.501,-0.111 0.025,-0.706 c 0.135,-0.049 0.267,-0.106 0.396,-0.173 l 0.535,0.461 0.422,-0.292 -0.242,-0.663 c 0.116,-0.105 0.227,-0.219 0.329,-0.343 l 0.68,0.222 0.275,-0.434 -0.488,-0.521 c 0.062,-0.132 0.114,-0.266 0.158,-0.401 l 0.704,-0.053 0.092,-0.505 -0.641,-0.298 c 0.008,-0.159 0.005,-0.317 -0.01,-0.475 l 0.629,-0.322 -0.111,-0.501 -0.706,-0.025 c -0.049,-0.136 -0.106,-0.268 -0.173,-0.396 l 0.461,-0.536 -0.292,-0.422 -0.663,0.242 c -0.105,-0.116 -0.22,-0.227 -0.343,-0.329 l 0.222,-0.679 -0.434,-0.276 -0.521,0.488 c -0.132,-0.062 -0.266,-0.114 -0.401,-0.157 l -0.053,-0.704 -0.505,-0.093 -0.298,0.641 c -0.159,-0.008 -0.317,-0.004 -0.475,0.01 l -0.322,-0.629 -0.502,0.111 -0.025,0.707 c -0.135,0.049 -0.267,0.105 -0.395,0.172 l -0.535,-0.461 -0.423,0.292 0.242,0.663 c -0.116,0.105 -0.227,0.22 -0.329,0.343 l -0.679,-0.222 -0.276,0.434 0.488,0.521 c -0.062,0.132 -0.114,0.266 -0.157,0.402 l -0.704,0.052 -0.092,0.505 0.64,0.299 c -0.008,0.158 -0.004,0.316 0.01,0.475 l -0.629,0.322 0.111,0.501 0.707,0.025 c 0.049,0.135 0.106,0.267 0.172,0.396 l -0.461,0.535 0.292,0.422 0.663,-0.242 c 0.105,0.116 0.22,0.227 0.343,0.329 l -0.222,0.68 0.434,0.275 0.521,-0.488 c 0.132,0.062 0.266,0.114 0.401,0.157 z m -1.433,-4.022 c 0.057,-1.331 1.181,-2.363 2.512,-2.307 1.33,0.056 2.363,1.18 2.307,2.511 -0.057,1.33 -1.181,2.363 -2.511,2.307 -1.332,-0.056 -2.364,-1.18 -2.308,-2.511 z" fill="#473467" />
          </g>
        </g>
      </g>
    </g>
  </g>
  <g style="display:inline" id="layer18">
    <g style="display:inline" id="filet_1_categorie" transform="translate(18.49,32)">
      <g id="g166">
        <path id="path162" d="M 381.857,84.552 192.446,193.108 c -4.66,2.691 -9.407,10.912 -9.407,16.289 V 240.1" stroke-miterlimit="10" stroke-width="2" stroke="#473467" fill="none" />
        <path id="path164" d="m 669.621,240.095 v -30.697 c 0,-5.379 -4.746,-13.602 -9.404,-16.293 L 471.691,84.261" stroke-miterlimit="10" stroke-width="2" stroke="#473467" fill="none" />
      </g>
      <path id="path168" d="m 183.039,578.252 v 30.698 c 0,5.376 4.747,13.6 9.407,16.294 l 224.486,129.603 c 1.679,0.972 5.028,2.009 9.397,2.009 4.373,0 7.729,-1.038 9.411,-2.012 L 660.217,625.24 c 4.658,-2.688 9.404,-10.908 9.404,-16.29 v -30.699" stroke-miterlimit="10" stroke-width="2" stroke="#473467" fill="none" />
    </g>
  </g>
  <g style="display:inline" id="layer17">
    <g style="display:inline" id="filet_2_categorie" transform="translate(18.49,32)">
      <path id="path171" d="m 426.418,705.218 c -4.464,0 -7.848,-1.035 -9.525,-2.006 L 176.546,564.452 c -4.631,-2.678 -9.536,-11.168 -9.536,-16.518 V 270.413 c 0,-5.35 4.905,-13.838 9.536,-16.514 l 240.339,-138.76 c 1.678,-0.971 5.063,-2.006 9.533,-2.006 4.47,0 7.855,1.035 9.532,2.002 l 240.343,138.76 c 4.635,2.68 9.533,11.168 9.533,16.518 v 277.521 c 0,5.35 -4.898,13.84 -9.533,16.514 l -240.335,138.76 c -1.685,0.975 -5.069,2.01 -9.54,2.01 z" stroke-miterlimit="10" stroke-width="27" stroke="#009eb9" fill="none" opacity="0.2" />
    </g>
  </g>












  <g style="display:inline" id="layer16">
    <g style="display:inline" id="filet_3_posture" transform="translate(18.49,32)">
      <path id="path174" d="m 426.33,705.218 c -4.464,0 -7.848,-1.035 -9.525,-2.006 L 176.458,564.452 c -4.631,-2.678 -9.536,-11.167 -9.536,-16.518 V 270.413 c 0,-5.35 4.905,-13.839 9.536,-16.514 L 416.797,115.14 c 1.678,-0.971 5.063,-2.007 9.533,-2.007 4.47,0 7.855,1.036 9.532,2.003 l 240.343,138.759 c 4.636,2.679 9.533,11.168 9.533,16.518 v 277.521 c 0,5.351 -4.897,13.84 -9.533,16.514 L 435.87,703.208 c -1.684,0.975 -5.069,2.01 -9.54,2.01 z" stroke-miterlimit="10" stroke-width="18" stroke="#009eb9" fill="none" />
    </g>
  </g>
  <g style="display:inline" id="layer15">
    <g style="display:inline" id="texte_titre_badge" transform="translate(18.49,32)">
      <g id="g212">
        <path id="path182" d="m 261.219,490.641 2.844,0.359 v 4.572 H 252.184 V 491 l 2.844,-0.359 v -14.723 h -3.636 l -0.539,3.564 h -4.607 l 0.18,-8.676 h 23.396 l 0.181,8.676 h -4.607 l -0.54,-3.564 h -3.636 v 14.723 z" fill="#009eb9" />
        <path id="path184" d="M 271.697,495.572 V 491 l 2.844,-0.359 v -14.867 l -2.844,-0.395 v -4.572 h 11.879 v 4.572 l -2.844,0.395 v 14.867 l 2.844,0.359 v 4.572 z" fill="#009eb9" />
        <path id="path186" d="M 300.207,490.641 303.05,491 v 4.572 H 291.171 V 491 l 2.844,-0.359 v -14.723 h -3.636 l -0.539,3.564 h -4.607 l 0.18,-8.676 h 23.396 l 0.181,8.676 h -4.607 l -0.54,-3.564 h -3.636 z" fill="#009eb9" />
        <path id="path188" d="m 327.423,495.572 -4.536,-8.676 h -3.167 v 3.744 l 3.635,0.359 v 4.572 h -12.67 V 491 l 2.844,-0.359 v -14.867 l -2.844,-0.395 v -4.572 h 13.462 c 5.04,0 8.495,2.844 8.495,7.631 0,4.068 -1.691,5.688 -4.067,6.984 v 0.18 c 0,0 0.396,0.287 0.684,0.791 l 2.484,4.248 3.167,0.359 v 4.572 z m -4.824,-13.498 c 2.628,0 3.78,-1.045 3.78,-3.275 0,-1.945 -1.404,-2.881 -3.78,-2.881 h -2.879 v 6.156 z" fill="#009eb9" />
        <path id="path190" d="M 336.353,495.572 V 491 l 2.808,-0.359 v -14.902 l -2.808,-0.359 v -4.572 h 20.409 l 0.145,8.676 H 352.3 l -0.54,-3.564 h -6.407 v 4.787 h 5.363 v 4.932 h -5.363 v 4.824 h 6.335 l 0.54,-3.564 h 4.607 l -0.252,8.676 h -20.23 z" fill="#009eb9" />
        <path id="path192" d="M 366.484,495.572 V 491 l 2.844,-0.359 v -14.902 l -2.844,-0.359 v -4.572 h 12.131 c 6.119,0 12.13,3.24 12.13,12.203 0,9.826 -5.939,12.563 -11.555,12.563 h -12.706 z m 11.23,-5.111 c 4.212,0 6.768,-1.621 6.768,-7.451 0,-4.969 -2.664,-7.092 -7.235,-7.092 h -1.728 v 14.543 z" fill="#009eb9" />
        <path id="path194" d="m 409.969,475.773 -2.844,-0.395 v -4.572 h 11.519 v 4.572 l -2.843,0.395 v 10.691 c 0,6.264 -3.744,9.359 -10.367,9.359 -6.623,0 -10.511,-3.096 -10.511,-9.359 v -10.691 l -2.844,-0.395 v -4.572 h 11.879 v 4.572 l -2.844,0.395 v 10.295 c 0,1.945 0.792,4.572 4.319,4.572 2.88,0 4.535,-2.053 4.535,-4.393 v -10.474 z" fill="#009eb9" />
        <path id="path196" d="M 427.359,495.572 V 491 l 2.844,-0.359 v -14.902 l -2.844,-0.359 v -4.572 h 10.295 c 7.092,0 10.654,1.729 10.654,6.66 0,4.211 -2.664,5.002 -3.635,5.291 v 0.287 c 1.764,0.217 5.398,1.188 5.398,5.76 0,4.248 -2.482,6.768 -10.043,6.768 h -12.669 z m 12.059,-14.722 c 1.656,0 2.629,-0.973 2.629,-2.447 0,-1.764 -1.404,-2.484 -2.988,-2.484 h -2.664 v 4.932 h 3.023 z m -3.023,4.642 v 4.969 h 3.924 c 2.52,0 3.492,-0.684 3.492,-2.447 0,-1.584 -1.225,-2.521 -2.988,-2.521 h -4.428 z" fill="#009eb9" />
        <path id="path198" d="m 475.057,490.641 2.52,0.359 v 4.572 H 466.419 V 491 l 2.699,-0.359 -0.9,-2.375 h -8.387 l -0.898,2.375 2.699,0.359 v 4.572 H 450.653 V 491 l 2.52,-0.359 5.65,-14.902 -3.168,-0.18 v -4.752 h 11.879 z m -10.151,-11.196 c -0.252,-0.646 -0.793,-2.195 -0.793,-2.195 h -0.18 c 0,0 -0.539,1.549 -0.791,2.195 l -1.549,4.104 h 4.859 z" fill="#009eb9" />
        <path id="path200" d="M 478.912,495.572 V 491 l 2.844,-0.359 v -14.902 l -2.844,-0.359 v -4.572 h 12.131 c 6.119,0 12.129,3.24 12.129,12.203 0,9.826 -5.939,12.563 -11.555,12.563 h -12.705 z m 11.231,-5.111 c 4.211,0 6.768,-1.621 6.768,-7.451 0,-4.969 -2.664,-7.092 -7.236,-7.092 h -1.727 v 14.543 z" fill="#009eb9" />
        <path id="path202" d="m 526.752,486.896 c 0,3.707 -2.051,8.928 -10.402,8.928 -6.803,0 -11.051,-3.924 -11.051,-12.67 0,-8.676 4.283,-12.563 11.051,-12.563 8.352,0 10.402,4.355 10.402,7.486 0,1.115 -0.252,1.871 -0.252,1.871 l -5.867,0.541 c 0,0 0.145,-0.541 0.145,-1.297 0,-1.475 -0.936,-3.455 -4.104,-3.455 -2.844,0 -5.111,1.799 -5.111,7.523 0,5.65 2.484,7.379 5.326,7.379 2.736,0 3.744,-1.188 3.852,-3.203 l -3.49,-0.361 v -4.211 h 9.502 v 4.032 z" fill="#009eb9" />
        <path id="path204" d="M 529.238,495.572 V 491 l 2.809,-0.359 v -14.902 l -2.809,-0.359 v -4.572 h 20.41 l 0.145,8.676 h -4.607 l -0.541,-3.564 h -6.406 v 4.787 h 5.363 v 4.932 h -5.363 v 4.824 h 6.334 l 0.541,-3.564 h 4.607 l -0.252,8.676 h -20.231 z" fill="#009eb9" />
        <path id="path206" d="M 559.371,495.572 V 491 l 2.844,-0.359 v -14.867 l -2.844,-0.395 v -4.572 h 11.879 v 4.572 l -2.844,0.395 v 14.867 L 571.25,491 v 4.572 z" fill="#009eb9" />
        <path id="path208" d="m 588.852,486.824 v -0.684 l 5.977,1.225 v 0.611 c 0,3.275 -2.088,7.848 -10.584,7.848 -6.695,0 -10.869,-3.924 -10.869,-12.67 0,-8.676 4.283,-12.563 11.051,-12.563 8.35,0 10.402,4.787 10.402,8.207 0,1.115 -0.252,1.871 -0.252,1.871 l -5.867,0.719 c 0,0 0.143,-0.611 0.143,-1.475 0,-1.764 -0.936,-4.176 -4.104,-4.176 -2.844,0 -5.111,1.799 -5.111,7.523 0,5.65 2.412,7.379 5.148,7.379 3.095,0.002 4.066,-1.438 4.066,-3.815 z" fill="#009eb9" />
        <path id="path210" d="M 597.135,495.572 V 491 l 2.844,-0.359 v -14.867 l -2.844,-0.395 v -4.572 h 11.879 v 4.572 l -2.844,0.395 v 14.867 l 2.844,0.359 v 4.572 z" fill="#009eb9" />
      </g>
    </g>
  </g>
  <g style="display:inline" id="layer14">
    <g style="display:inline" id="picto_titre_badge" transform="translate(18.49,32)">
      <path id="path177" d="m 368.695,277.938 c 6.838,6.565 15.277,11.789 25.083,15.524 9.803,3.741 21.309,5.637 34.2,5.637 12.718,0 24.182,-1.896 34.067,-5.637 9.893,-3.735 18.375,-8.957 25.212,-15.524 6.843,-6.574 12.2,-14.363 15.921,-23.143 1.627,-3.848 2.979,-7.928 4.022,-12.148 h -50.096 c -1.319,2.271 -2.651,4.156 -4.063,5.748 -5.456,6.157 -13.89,9.281 -25.063,9.281 -13.571,0 -17.24,-0.455 -25.188,-9.275 -1.439,-1.586 -2.756,-3.425 -4.119,-5.754 h -49.922 c 1.038,4.203 2.393,8.285 4.034,12.146 3.72,8.793 9.073,16.577 15.912,23.145 z" fill="#009eb9" />
      <path id="path179" d="m 509.584,388.229 c -0.523,-9.941 -2.68,-19.449 -6.406,-28.25 -3.719,-8.766 -9.072,-16.496 -15.916,-22.978 -6.832,-6.472 -15.32,-11.698 -25.223,-15.526 -9.897,-3.823 -21.356,-5.762 -34.062,-5.762 -12.876,0 -24.382,1.938 -34.193,5.76 -9.814,3.832 -18.259,9.059 -25.095,15.528 -6.838,6.47 -12.189,14.203 -15.906,22.978 -3.729,8.789 -5.887,18.294 -6.412,28.256 -0.363,7.873 -0.524,33.045 -0.524,41.285 0,0.612 0.008,1.197 0.017,1.785 l 0.004,0.185 h 46.763 l -0.006,-0.351 c -0.011,-0.713 -0.024,-1.426 -0.024,-2.158 0,-3.904 0.048,-25.099 0.142,-29.027 0.095,-4.068 0.312,-7.518 0.658,-10.537 0.357,-4.543 1.315,-8.836 2.848,-12.723 1.538,-3.896 3.747,-7.334 6.568,-10.22 2.822,-2.894 6.362,-5.202 10.517,-6.866 4.15,-1.662 9.077,-2.506 14.646,-2.506 5.569,0 10.497,0.844 14.648,2.506 4.144,1.662 7.685,3.971 10.522,6.864 2.813,2.893 5.02,6.329 6.561,10.221 1.525,3.881 2.484,8.173 2.847,12.761 0.179,3.104 0.356,6.585 0.536,10.477 0.17,3.943 0.255,25.145 0.255,29.051 0,0.643 -0.018,1.27 -0.036,1.895 -0.006,0.205 -0.012,0.408 -0.017,0.614 h 46.805 l 0.002,-0.237 c 0.009,-0.568 0.018,-1.137 0.018,-1.732 -0.003,-8.859 -0.183,-33.587 -0.537,-41.293 z" fill="#009eb9" />
    </g>
  </g>
</svg>
