<?xml version="1.0" encoding="UTF-8" standalone="no"?>
<svg xmlns:dc="http://purl.org/dc/elements/1.1/"
  xmlns:cc="http://creativecommons.org/ns#"
  xmlns:rdf="http://www.w3.org/1999/02/22-rdf-syntax-ns#"
  xmlns:svg="http://www.w3.org/2000/svg"
  xmlns="http://www.w3.org/2000/svg"
  xmlns:xlink="http://www.w3.org/1999/xlink" id="svg2303" xml:space="preserve" enable-background="new 0 0 850.394 841.89" viewBox="0 0 888.18899 888.18898" height="100%" width="100%" y="0px" x="0px" version="1.1">
  <metadata id="metadata2309">
    <rdf:RDF>
      <cc:Work rdf:about="">
        <dc:format>image/svg+xml</dc:format>
        <dc:type rdf:resource="http://purl.org/dc/dcmitype/StillImage" />
        <dc:title></dc:title>
      </cc:Work>
    </rdf:RDF>
  </metadata>
  <defs id="defs2307">

    <clipPath id="SVGID_2_-4">
      <use id="use122" overflow="visible" xlink:href="#SVGID_1_-0" x="0" y="0" width="100%" height="100%" />
    </clipPath>
    <clipPath id="SVGID_4_">
      <use id="use132" overflow="visible" xlink:href="#SVGID_3_" x="0" y="0" width="100%" height="100%" />
    </clipPath>
    <path d="m 404.664,50.394 c 1.172,3.438 3.039,6.252 4.836,8.439 l -19.805,17.313 c -3.164,-1.836 -6.135,-4.258 -8.674,-7.969 l -13.156,3.746 c 0,0 -1.5,20.816 0.125,20.816 1.625,0 20.75,-1.5 22,-1.5 1.25,0 37.625,-22.125 37.625,-22.125 l 13.875,-38 c 0,0 -0.625,-12.084 -1,-12.291 -0.375,-0.209 -36.375,17.006 -36.375,17.006 z" id="SVGID_1_-0" />
    <path d="m 453.475,81.825 c 1.949,-1.783 5.014,-5.445 6.551,-8.467 l 18.717,21.805 0.957,1.021 c -2.836,3.092 -6.361,5.285 -9.527,6.563 l 4.693,17.242 13.125,9.75 0.375,-10.625 c 0,0 -5.125,-47.875 -5.375,-48.25 -0.25,-0.375 -24.334,-23.75 -24.334,-23.75 0,0 -13.166,1.125 -13.166,1.5 0,0.375 -9.506,10 -9.506,10 l 5.662,19.625 z" id="SVGID_3_" />
    <clipPath id="SVGID_2_-4-8">
      <use height="100%" width="100%" y="0" x="0" xlink:href="#SVGID_1_-0" overflow="visible" id="use122-9" />
    </clipPath>
    <clipPath id="SVGID_4_-4">
      <use height="100%" width="100%" y="0" x="0" xlink:href="#SVGID_3_" overflow="visible" id="use132-1" />
    </clipPath>
    <path id="path300" d="m 404.664,50.394 c 1.172,3.438 3.039,6.252 4.836,8.439 l -19.805,17.313 c -3.164,-1.836 -6.135,-4.258 -8.674,-7.969 l -13.156,3.746 c 0,0 -1.5,20.816 0.125,20.816 1.625,0 20.75,-1.5 22,-1.5 1.25,0 37.625,-22.125 37.625,-22.125 l 13.875,-38 c 0,0 -0.625,-12.084 -1,-12.291 -0.375,-0.209 -36.375,17.006 -36.375,17.006 z" />
    <path id="path307" d="m 453.475,81.825 c 1.949,-1.783 5.014,-5.445 6.551,-8.467 l 18.717,21.805 0.957,1.021 c -2.836,3.092 -6.361,5.285 -9.527,6.563 l 4.693,17.242 13.125,9.75 0.375,-10.625 c 0,0 -5.125,-47.875 -5.375,-48.25 -0.25,-0.375 -24.334,-23.75 -24.334,-23.75 0,0 -13.166,1.125 -13.166,1.5 0,0.375 -9.506,10 -9.506,10 l 5.662,19.625 z" />

  </defs>
  <g id="layer1" style="display:inline">
      <path transform="translate(18.578,28)" id="path142" d="m 426.33,727.563 c -4.464,0 -7.848,-1.035 -9.525,-2.006 L 176.458,586.797 c -4.631,-2.678 -9.536,-11.168 -9.536,-16.518 V 292.758 c 0,-5.35 4.905,-13.839 9.536,-16.514 l 240.339,-138.76 c 1.678,-0.971 5.063,-2.007 9.533,-2.007 4.47,0 7.855,1.036 9.532,2.003 l 240.343,138.76 c 4.636,2.679 9.533,11.168 9.533,16.518 v 277.521 c 0,5.35 -4.897,13.84 -9.533,16.514 L 435.87,725.553 c -1.684,0.974 -5.069,2.01 -9.54,2.01 z" stroke-miterlimit="10" stroke-width="27" stroke="#009eb9" fill="none" style="fill:#ffffff;stroke:none" />
  </g>
  <g style="display:inline" id="layer26">
    <g transform="translate(0,28)" id="texte_posture">
      <g id="g18">
        <path fill="#473467" d="m 345.582,781.387 -8.353,17.021 c -1.305,2.657 -3.093,4.35 -5.365,5.075 -2.272,0.728 -4.761,0.427 -7.466,-0.9 -3.424,-1.681 -5.65,-4.437 -6.681,-8.27 l 5.041,-2.828 c 0.88,2.748 2.181,4.546 3.904,5.392 1.796,0.881 3.198,0.292 4.209,-1.767 l 5.744,-11.707 -8.618,-4.229 2.537,-5.171 z" id="path2" />
        <path fill="#473467" d="m 367.855,795.782 -13.924,-5.017 -1.885,5.231 12.569,4.528 -1.897,5.269 -12.569,-4.528 -1.912,5.307 14.339,5.165 -1.898,5.269 -21.036,-7.578 9.489,-26.344 20.623,7.43 z" id="path4" />
        <path fill="#473467" d="m 385.516,794.5 12.062,1.832 c 3.533,0.537 6.147,1.791 7.845,3.762 1.696,1.971 2.311,4.498 1.842,7.582 -0.493,3.243 -1.851,5.613 -4.074,7.109 -2.223,1.496 -5.102,1.976 -8.634,1.439 l -5.022,-0.764 -1.184,7.791 -7.039,-1.07 z m 6.198,6.605 -1.34,8.819 4.667,0.709 c 1.555,0.236 2.813,0.036 3.772,-0.601 0.96,-0.636 1.55,-1.68 1.771,-3.129 0.216,-1.424 -0.042,-2.568 -0.773,-3.436 -0.731,-0.865 -1.875,-1.418 -3.43,-1.654 z" id="path6" />
        <path fill="#473467" d="m 419.273,826.25 -7.113,-0.3 1.178,-27.976 7.113,0.301 z" id="path8" />
        <path fill="#473467" d="m 435.319,820.09 11.862,-0.645 0.323,5.951 -18.972,1.031 -1.519,-27.959 7.109,-0.387 z" id="path10" />
        <path fill="#473467" d="m 462.843,794.277 c 4.261,-0.859 8.07,-0.246 11.429,1.837 3.358,2.085 5.438,5.112 6.238,9.086 0.807,3.999 0.063,7.632 -2.23,10.896 -2.294,3.266 -5.558,5.324 -9.792,6.178 -4.235,0.854 -8.034,0.227 -11.397,-1.885 -3.363,-2.109 -5.451,-5.178 -6.263,-9.203 -0.807,-4 -0.063,-7.604 2.227,-10.814 2.29,-3.21 5.552,-5.241 9.788,-6.095 z m 1.256,5.827 c -2.144,0.432 -3.816,1.579 -5.019,3.439 -1.203,1.861 -1.572,3.942 -1.108,6.242 0.464,2.301 1.62,4.088 3.468,5.36 1.849,1.274 3.831,1.696 5.948,1.27 2.117,-0.426 3.755,-1.579 4.913,-3.459 1.158,-1.88 1.506,-3.97 1.042,-6.27 -0.464,-2.3 -1.592,-4.079 -3.382,-5.337 -1.791,-1.257 -3.744,-1.673 -5.862,-1.245 z" id="path12" />
        <path fill="#473467" d="m 502.962,788.465 -7.956,2.816 7.438,21.002 -6.711,2.377 -7.438,-21.002 -7.881,2.791 -1.923,-5.43 22.548,-7.984 z" id="path14" />
        <path fill="#473467" d="m 526.513,776.668 -13.218,6.658 2.502,4.966 11.932,-6.011 2.519,5.002 -11.932,6.01 2.537,5.037 13.611,-6.855 2.52,5.001 -19.97,10.06 -12.597,-25.007 19.577,-9.861 z" id="path16" />
      </g>
    </g>
  </g>
  <g style="display:inline" id="layer25">
    <g style="display:inline" id="filet_separation_theme" transform="translate(18.578,28.000003)">
      <line id="line21" y2="640.422" x2="426.306" y1="602.63898" x1="426.306" stroke-miterlimit="10" stroke-width="2" stroke="#000000" fill="none" />
    </g>
  </g>
  <g style="display:inline" id="layer24">
    <g style="display:inline" id="picto_theme" transform="translate(18.578,28)">
      <g id="g28">
        <path id="path24" d="m 485.831,599.036 c 2.246,2.157 5.02,3.875 8.242,5.103 3.221,1.229 7.002,1.852 11.238,1.852 4.178,0 7.945,-0.623 11.193,-1.852 3.25,-1.228 6.039,-2.944 8.285,-5.103 2.249,-2.159 4.01,-4.719 5.231,-7.604 0.534,-1.265 0.978,-2.605 1.321,-3.992 H 514.88 c -0.434,0.747 -0.871,1.367 -1.334,1.889 -1.795,2.023 -4.565,3.05 -8.236,3.05 -4.46,0 -5.666,-0.149 -8.277,-3.048 -0.473,-0.521 -0.906,-1.125 -1.354,-1.891 h -16.404 c 0.342,1.382 0.787,2.724 1.326,3.991 1.223,2.889 2.982,5.448 5.23,7.605 z" stroke-miterlimit="10" stroke-width="2" stroke="#000000" fill="none" />
        <path id="path26" d="m 532.126,635.277 c -0.172,-3.267 -0.881,-6.391 -2.105,-9.282 -1.221,-2.881 -2.98,-5.422 -5.229,-7.551 -2.245,-2.127 -5.034,-3.843 -8.288,-5.102 -3.252,-1.256 -7.018,-1.894 -11.191,-1.894 -4.231,0 -8.013,0.638 -11.236,1.893 -3.225,1.26 -6,2.977 -8.246,5.103 -2.247,2.127 -4.006,4.668 -5.227,7.551 -1.226,2.889 -1.935,6.011 -2.107,9.284 -0.119,2.587 -0.172,10.859 -0.172,13.566 0,0.202 0.002,0.393 0.006,0.587 l 10e-4,0.061 h 15.365 l -10e-4,-0.116 c -0.004,-0.233 -0.008,-0.467 -0.008,-0.709 0,-1.283 0.014,-8.247 0.045,-9.537 0.031,-1.337 0.103,-2.471 0.217,-3.463 0.117,-1.493 0.433,-2.904 0.936,-4.181 0.506,-1.28 1.231,-2.41 2.16,-3.358 0.926,-0.949 2.09,-1.709 3.453,-2.256 1.365,-0.546 2.984,-0.823 4.814,-0.823 1.828,0 3.448,0.277 4.813,0.823 1.361,0.546 2.525,1.307 3.457,2.255 0.925,0.951 1.65,2.081 2.156,3.358 0.501,1.277 0.816,2.687 0.936,4.195 0.059,1.019 0.117,2.162 0.176,3.44 0.057,1.296 0.084,8.262 0.084,9.546 0,0.212 -0.006,0.418 -0.012,0.625 -0.002,0.065 -0.004,0.132 -0.006,0.2 h 15.379 l 0.002,-0.078 c 0.003,-0.187 0.006,-0.372 0.006,-0.569 -0.002,-2.909 -0.063,-11.034 -0.178,-13.568 z" stroke-miterlimit="10" stroke-width="2" stroke="#000000" fill="none" />
      </g>
    </g>
  </g>
  <g style="display:inline" id="layer23">
    <g style="display:inline" id="texte_picto_theme" transform="translate(18.578,28)">
      <g id="g51">
        <path id="path31" d="m 452.465,566.51 h -3.798 v 10.025 h -3.204 V 566.51 h -3.762 v -2.592 h 10.764 z" />
        <path id="path33" d="m 463.697,566.455 h -6.66 v 2.502 h 6.012 v 2.521 h -6.012 v 2.538 h 6.857 v 2.52 h -10.062 v -12.6 h 9.864 v 2.519 z" />
        <path id="path35" d="m 473.273,569.947 4.518,6.588 h -3.834 l -2.718,-4.014 -2.718,4.014 h -3.727 l 4.5,-6.443 -4.212,-6.156 h 3.726 l 2.431,3.672 2.43,-3.672 h 3.763 z" />
        <path id="path37" d="m 488.807,566.51 h -3.798 v 10.025 h -3.204 V 566.51 h -3.762 v -2.592 h 10.764 z" />
        <path id="path39" d="m 500.039,566.455 h -6.66 v 2.502 h 6.012 v 2.521 h -6.012 v 2.538 h 6.857 v 2.52 h -10.063 v -12.6 h 9.865 v 2.519 z" />
        <path id="path41" d="m 516.113,566.51 h -3.799 v 10.025 h -3.203 V 566.51 h -3.763 v -2.592 h 10.765 z" />
        <path id="path43" d="m 529.108,576.535 h -3.204 v -4.896 h -5.221 v 4.896 h -3.203 v -12.6 h 3.203 v 5.184 h 5.221 v -5.184 h 3.204 z" />
        <path id="path45" d="m 541.492,566.455 h -6.66 v 2.502 h 6.012 v 2.521 h -6.012 v 2.538 h 6.857 v 2.52 h -10.062 v -12.6 h 9.864 v 2.519 z m -3.312,-3.617 h -2.375 l -2.34,-2.034 2.807,-0.99 z" />
        <path id="path47" d="m 557.603,576.535 h -2.826 l -0.019,-8.189 -3.023,6.93 h -2.088 l -3.023,-6.93 v 8.189 h -2.863 v -12.617 h 3.511 l 3.42,7.506 3.42,-7.506 h 3.492 v 12.617 z" />
        <path id="path49" d="m 570.004,566.455 h -6.66 v 2.502 h 6.012 v 2.521 h -6.012 v 2.538 h 6.857 v 2.52 H 560.14 v -12.6 h 9.864 z" />
      </g>
    </g>
  </g>
  <g style="display:inline" id="layer22">
    <g style="display:inline" id="picto_categorie" transform="translate(18.578,27.999995)">
      <g id="g84">
        <polygon id="polygon54" points="313.359,601.978 313.359,634.849 343.143,652.192 372.497,635.849 372.497,601.87 342.928,584.774 " stroke-miterlimit="10" stroke-linejoin="round" stroke-width="2" stroke="#000000" fill="none" />
        <polyline id="polyline56" points="    313.359,601.978 343.035,618.536 372.497,601.87   " stroke-miterlimit="10" stroke-linejoin="round" stroke-width="2" stroke="#000000" fill="none" />
        <polygon id="polygon58" points="328.143,626.494 327.982,610.364 343.035,601.763 357.552,610.257 357.552,627.354 343.143,635.525 " stroke-miterlimit="10" stroke-linejoin="round" stroke-width="2" stroke="#000000" fill="none" />
        <line id="line60" y2="652.29999" x2="343.035" y1="618.53601" x1="343.035" stroke-miterlimit="10" stroke-linejoin="round" stroke-width="2" stroke="#000000" fill="none" />
        <line id="line62" y2="601.763" x2="342.92801" y1="584.77399" x1="342.92801" stroke-miterlimit="10" stroke-linejoin="round" stroke-width="2" stroke="#000000" fill="none" />
        <line id="line64" y2="627.354" x2="357.552" y1="635.849" x1="372.49701" stroke-miterlimit="10" stroke-linejoin="round" stroke-width="2" stroke="#000000" fill="none" />
        <line id="line66" y2="635.52502" x2="313.896" y1="626.92401" x1="328.41199" stroke-miterlimit="10" stroke-linejoin="round" stroke-width="2" stroke="#000000" fill="none" />
        <line id="line68" y2="600.45697" x2="360.53799" y1="602.94598" x1="356.58401" stroke-miterlimit="10" stroke-linejoin="round" stroke-linecap="round" stroke-width="2" stroke="#000000" fill="none" />
        <line id="line70" y2="612.92999" x2="367.34201" y1="612.92999" x1="361.54501" stroke-miterlimit="10" stroke-linejoin="round" stroke-linecap="round" stroke-width="2" stroke="#000000" fill="none" />
        <line id="line72" y2="623.66498" x2="365.57001" y1="620.79498" x1="362.06699" stroke-miterlimit="10" stroke-linejoin="round" stroke-linecap="round" stroke-width="2" stroke="#000000" fill="none" />
        <line id="line74" y2="597.77899" x2="348.005" y1="593.48297" x1="349.91699" stroke-miterlimit="10" stroke-linejoin="round" stroke-linecap="round" stroke-width="2" stroke="#000000" fill="none" />
        <line id="line76" y2="600.026" x2="325.67001" y1="602.51599" x1="329.625" stroke-miterlimit="10" stroke-linejoin="round" stroke-linecap="round" stroke-width="2" stroke="#000000" fill="none" />
        <line id="line78" y2="612.5" x2="318.867" y1="612.5" x1="324.664" stroke-miterlimit="10" stroke-linejoin="round" stroke-linecap="round" stroke-width="2" stroke="#000000" fill="none" />
        <line id="line80" y2="623.23499" x2="320.63901" y1="620.36401" x1="324.14099" stroke-miterlimit="10" stroke-linejoin="round" stroke-linecap="round" stroke-width="2" stroke="#000000" fill="none" />
        <line id="line82" y2="597.349" x2="338.203" y1="593.05402" x1="336.29099" stroke-miterlimit="10" stroke-linejoin="round" stroke-linecap="round" stroke-width="2" stroke="#000000" fill="none" />
      </g>
    </g>
  </g>
  <g style="display:inline" id="layer21">
    <g style="display:inline" id="texte_picto_categorie" transform="translate(18.578,28)">
      <g id="g99">
        <path id="path87" d="m 308.141,563.936 h 5.49 c 1.608,0 2.856,0.381 3.744,1.143 0.888,0.763 1.332,1.846 1.332,3.25 0,1.476 -0.444,2.621 -1.332,3.438 -0.888,0.816 -2.136,1.225 -3.744,1.225 h -2.286 v 3.545 h -3.204 z m 3.204,2.519 v 4.015 h 2.124 c 0.708,0 1.254,-0.174 1.638,-0.522 0.384,-0.348 0.576,-0.852 0.576,-1.512 0,-0.648 -0.192,-1.14 -0.576,-1.477 -0.384,-0.335 -0.93,-0.504 -1.638,-0.504 z" />
        <path id="path89" d="m 327.977,576.535 -1.872,-3.545 h -0.09 -2.43 v 3.545 h -3.204 v -12.6 h 5.634 c 1.668,0 2.958,0.381 3.87,1.143 0.912,0.763 1.368,1.846 1.368,3.25 0,1.943 -0.762,3.293 -2.286,4.049 l 2.646,4.158 z m -4.392,-6.065 h 2.43 c 0.696,0 1.236,-0.174 1.62,-0.522 0.384,-0.348 0.576,-0.852 0.576,-1.512 0,-0.648 -0.192,-1.14 -0.576,-1.477 -0.384,-0.335 -0.924,-0.504 -1.62,-0.504 h -2.43 z" />
        <path id="path91" d="m 339.389,563.828 c 1.956,0 3.582,0.609 4.878,1.826 1.296,1.219 1.944,2.739 1.944,4.563 0,1.836 -0.651,3.372 -1.953,4.608 -1.302,1.235 -2.925,1.854 -4.869,1.854 -1.944,0 -3.564,-0.615 -4.86,-1.846 -1.296,-1.229 -1.944,-2.768 -1.944,-4.616 0,-1.836 0.648,-3.36 1.944,-4.572 1.296,-1.212 2.916,-1.817 4.86,-1.817 z m 0.036,2.682 c -0.984,0 -1.824,0.357 -2.52,1.07 -0.696,0.715 -1.044,1.6 -1.044,2.656 0,1.055 0.351,1.946 1.053,2.672 0.702,0.727 1.539,1.09 2.511,1.09 0.972,0 1.797,-0.363 2.475,-1.09 0.678,-0.726 1.017,-1.617 1.017,-2.672 0,-1.057 -0.339,-1.941 -1.017,-2.656 -0.678,-0.713 -1.503,-1.07 -2.475,-1.07 z" />
        <path id="path93" d="m 354.815,563.918 v 8.531 c 0,1.332 -0.387,2.371 -1.161,3.114 -0.774,0.744 -1.839,1.116 -3.195,1.116 -1.716,0 -3.162,-0.672 -4.338,-2.016 l 1.476,-2.143 c 0.9,0.936 1.782,1.404 2.646,1.404 0.9,0 1.35,-0.516 1.35,-1.549 v -5.867 h -4.32 v -2.592 h 7.542 z" />
        <path id="path95" d="m 366.983,566.455 h -6.66 v 2.502 h 6.012 v 2.521 h -6.012 v 2.538 h 6.858 v 2.52 h -10.062 v -12.6 h 9.864 z" />
        <path id="path97" d="m 378.881,566.51 h -3.798 v 10.025 h -3.204 V 566.51 h -3.762 v -2.592 h 10.764 z" />
      </g>
    </g>
  </g>
  <g style="display:inline" id="layer20">
    <g style="display:inline" id="fond_categorie" transform="translate(18.578,28)">
      <polygon id="polygon102" points="196.922,300.07 196.922,539.703 655.738,539.703 655.738,300.064 426.333,167.621 " fill="#b7d5e2" />
    </g>
  </g>
  <g style="display:inline" id="layer19">
    <g style="display:inline" id="picto_posture" transform="translate(18.578,28)">
      <polygon id="polygon112" points="419.768,40.322 256.971,7.535 256.971,75.701 419.768,49.696 " fill="currentColor" opacity="0.2" />
      <polygon id="polygon121" points="430.971,40.322 593.768,7.535 593.768,75.701 430.971,49.696 " fill="currentColor" opacity="0.2" />
      <g id="g127">
        <path id="path123" d="m 440.327,120.684 h -2.137 v -2.137 h -1.068 l -3.205,-60.901 h -17.096 l -3.205,60.901 h -1.068 v 2.137 h -2.138 l -4.273,4.273 h 38.465 z m -24.234,-8.547 h 18.552 l 0.226,4.273 h -19.002 z m 16.47,-39.533 h -14.39 l 0.394,-7.479 h 13.603 z m 0.226,4.273 0.394,7.479 h -15.627 l 0.394,-7.479 z m 0.618,11.754 0.394,7.479 h -16.864 l 0.394,-7.479 z m 0.619,11.752 0.394,7.479 h -18.102 l 0.394,-7.479 z m -2.137,-40.601 0.057,1.068 h -13.152 l 0.056,-1.068 z m 3.096,64.642 h -3.206 v -2.137 c 0,-0.886 0.718,-1.604 1.604,-1.604 0.885,0 1.603,0.718 1.603,1.604 v 2.137 z" fill="#473467" />
        <path id="path125" d="m 416.821,57.645 h 17.096 c 1.18,0 2.137,-0.956 2.137,-2.137 v -4.273 c 0,-1.18 -0.957,-2.137 -2.137,-2.137 h -2.138 V 40.55 h 2.138 1.068 v -2.137 h -1.068 -1.069 v -1.068 h -2.137 v -1.069 h -2.137 v -1.068 h -2.137 V 34.14 H 424.3 v 1.068 h -2.137 v 1.068 h -2.138 v 1.069 h -2.137 v 1.068 h -1.068 -1.068 v 2.137 h 1.068 2.137 v 8.548 h -2.137 c -1.18,0 -2.137,0.957 -2.137,2.137 v 4.273 c 0.002,1.18 0.959,2.137 2.138,2.137 z m 4.274,-16.027 h 8.548 v 5.343 h -3.205 v -1.068 h 1.068 v -2.137 h -2.137 v 2.137 1.068 h -4.274 z" fill="#473467" />
      </g>
    </g>
  </g>
  <g style="display:inline" id="layer18">
    <g style="display:inline" id="filet_1_categorie" transform="translate(18.578,28)">
      <g id="g134">
        <path id="path130" d="M 396.109,94.867 192.446,212.453 c -4.66,2.69 -9.407,10.911 -9.407,16.289 v 30.703" stroke-miterlimit="10" stroke-width="2" stroke="#473467" fill="none" />
        <path id="path132" d="m 669.621,259.439 v -30.697 c 0,-5.379 -4.746,-13.602 -9.404,-16.294 L 455.152,94.057" stroke-miterlimit="10" stroke-width="2" stroke="#473467" fill="none" />
      </g>
      <path id="path136" d="m 183.039,603.596 v 30.699 c 0,5.375 4.747,13.599 9.407,16.294 l 224.486,129.603 c 1.679,0.971 5.028,2.008 9.397,2.008 4.373,0 7.729,-1.039 9.411,-2.011 L 660.216,650.586 c 4.658,-2.688 9.404,-10.909 9.404,-16.291 v -30.701" stroke-miterlimit="10" stroke-width="2" stroke="#473467" fill="none" />
    </g>
  </g>
  <g style="display:inline;opacity:0.203922" id="layer17">
    <g style="display:inline" id="filet_2_categorie" transform="translate(18.578,28)">
      <path id="path139" d="m 426.33,727.563 c -4.464,0 -7.848,-1.035 -9.525,-2.006 L 176.458,586.797 c -4.631,-2.678 -9.536,-11.168 -9.536,-16.518 V 292.758 c 0,-5.35 4.905,-13.839 9.536,-16.514 l 240.339,-138.76 c 1.678,-0.971 5.063,-2.007 9.533,-2.007 4.47,0 7.855,1.036 9.532,2.003 l 240.343,138.76 c 4.636,2.679 9.533,11.168 9.533,16.518 v 277.521 c 0,5.35 -4.897,13.84 -9.533,16.514 L 435.87,725.553 c -1.684,0.974 -5.069,2.01 -9.54,2.01 z" stroke-miterlimit="10" stroke-width="27" stroke="#009eb9" fill="none" />
    </g>
  </g>

  <g style="display:inline" id="layer16">
    <g style="display:inline" id="filet_3_posture" transform="translate(18.578,28)">
      <path id="path142-4" d="m 426.33,727.563 c -4.464,0 -7.848,-1.035 -9.525,-2.006 L 176.458,586.797 c -4.631,-2.678 -9.536,-11.168 -9.536,-16.518 V 292.758 c 0,-5.35 4.905,-13.839 9.536,-16.514 l 240.339,-138.76 c 1.678,-0.971 5.063,-2.007 9.533,-2.007 4.47,0 7.855,1.036 9.532,2.003 l 240.343,138.76 c 4.636,2.679 9.533,11.168 9.533,16.518 v 277.521 c 0,5.35 -4.897,13.84 -9.533,16.514 L 435.87,725.553 c -1.684,0.974 -5.069,2.01 -9.54,2.01 z" stroke-miterlimit="10" stroke-width="27" stroke="#009eb9" fill="none" />
    </g>
  </g>
  <g style="display:inline" id="layer15">
    <g style="display:inline" id="texte_titre_badge" transform="translate(18.578,28)">
      <g id="g180">
        <path id="path150" d="m 261.219,510.641 2.844,0.359 v 4.572 H 252.184 V 511 l 2.844,-0.359 v -14.723 h -3.636 l -0.539,3.564 h -4.607 l 0.18,-8.676 h 23.396 l 0.181,8.676 h -4.607 l -0.54,-3.564 h -3.636 v 14.723 z" fill="#009eb9" />
        <path id="path152" d="M 271.697,515.572 V 511 l 2.844,-0.359 v -14.867 l -2.844,-0.395 v -4.572 h 11.879 v 4.572 l -2.844,0.395 v 14.867 l 2.844,0.359 v 4.572 z" fill="#009eb9" />
        <path id="path154" d="M 300.207,510.641 303.05,511 v 4.572 H 291.171 V 511 l 2.844,-0.359 v -14.723 h -3.636 l -0.539,3.564 h -4.607 l 0.18,-8.676 h 23.396 l 0.181,8.676 h -4.607 l -0.54,-3.564 h -3.636 z" fill="#009eb9" />
        <path id="path156" d="m 327.423,515.572 -4.536,-8.676 h -3.167 v 3.744 l 3.635,0.359 v 4.572 h -12.67 V 511 l 2.844,-0.359 v -14.867 l -2.844,-0.395 v -4.572 h 13.462 c 5.04,0 8.495,2.844 8.495,7.631 0,4.068 -1.691,5.688 -4.067,6.984 v 0.18 c 0,0 0.396,0.287 0.684,0.791 l 2.484,4.248 3.167,0.359 v 4.572 z m -4.824,-13.498 c 2.628,0 3.78,-1.045 3.78,-3.275 0,-1.945 -1.404,-2.881 -3.78,-2.881 h -2.879 v 6.156 z" fill="#009eb9" />
        <path id="path158" d="M 336.353,515.572 V 511 l 2.808,-0.359 v -14.902 l -2.808,-0.359 v -4.572 h 20.409 l 0.145,8.676 H 352.3 l -0.54,-3.564 h -6.407 v 4.787 h 5.363 v 4.932 h -5.363 v 4.824 h 6.335 l 0.54,-3.564 h 4.607 l -0.252,8.676 h -20.23 z" fill="#009eb9" />
        <path id="path160" d="M 366.484,515.572 V 511 l 2.844,-0.359 v -14.902 l -2.844,-0.359 v -4.572 h 12.131 c 6.119,0 12.13,3.24 12.13,12.203 0,9.826 -5.939,12.563 -11.555,12.563 h -12.706 z m 11.23,-5.111 c 4.212,0 6.768,-1.621 6.768,-7.451 0,-4.969 -2.664,-7.092 -7.235,-7.092 h -1.728 v 14.543 z" fill="#009eb9" />
        <path id="path162" d="m 409.969,495.773 -2.844,-0.395 v -4.572 h 11.519 v 4.572 l -2.843,0.395 v 10.691 c 0,6.264 -3.744,9.359 -10.367,9.359 -6.623,0 -10.511,-3.096 -10.511,-9.359 v -10.691 l -2.844,-0.395 v -4.572 h 11.879 v 4.572 l -2.844,0.395 v 10.295 c 0,1.945 0.792,4.572 4.319,4.572 2.88,0 4.535,-2.053 4.535,-4.393 v -10.474 z" fill="#009eb9" />
        <path id="path164" d="M 427.359,515.572 V 511 l 2.844,-0.359 v -14.902 l -2.844,-0.359 v -4.572 h 10.295 c 7.092,0 10.654,1.729 10.654,6.66 0,4.211 -2.664,5.002 -3.635,5.291 v 0.287 c 1.764,0.217 5.398,1.188 5.398,5.76 0,4.248 -2.482,6.768 -10.043,6.768 h -12.669 z m 12.059,-14.722 c 1.656,0 2.629,-0.973 2.629,-2.447 0,-1.764 -1.404,-2.484 -2.988,-2.484 h -2.664 v 4.932 h 3.023 z m -3.023,4.642 v 4.969 h 3.924 c 2.52,0 3.492,-0.684 3.492,-2.447 0,-1.584 -1.225,-2.521 -2.988,-2.521 h -4.428 z" fill="#009eb9" />
        <path id="path166" d="m 475.057,510.641 2.52,0.359 v 4.572 H 466.419 V 511 l 2.699,-0.359 -0.9,-2.375 h -8.387 l -0.898,2.375 2.699,0.359 v 4.572 H 450.653 V 511 l 2.52,-0.359 5.65,-14.902 -3.168,-0.18 v -4.752 h 11.879 z m -10.151,-11.196 c -0.252,-0.646 -0.793,-2.195 -0.793,-2.195 h -0.18 c 0,0 -0.539,1.549 -0.791,2.195 l -1.549,4.104 h 4.859 z" fill="#009eb9" />
        <path id="path168" d="M 478.912,515.572 V 511 l 2.844,-0.359 v -14.902 l -2.844,-0.359 v -4.572 h 12.131 c 6.119,0 12.129,3.24 12.129,12.203 0,9.826 -5.939,12.563 -11.555,12.563 h -12.705 z m 11.231,-5.111 c 4.211,0 6.768,-1.621 6.768,-7.451 0,-4.969 -2.664,-7.092 -7.236,-7.092 h -1.727 v 14.543 z" fill="#009eb9" />
        <path id="path170" d="m 526.752,506.896 c 0,3.707 -2.051,8.928 -10.402,8.928 -6.803,0 -11.051,-3.924 -11.051,-12.67 0,-8.676 4.283,-12.563 11.051,-12.563 8.352,0 10.402,4.355 10.402,7.486 0,1.115 -0.252,1.871 -0.252,1.871 l -5.867,0.541 c 0,0 0.145,-0.541 0.145,-1.297 0,-1.475 -0.936,-3.455 -4.104,-3.455 -2.844,0 -5.111,1.799 -5.111,7.523 0,5.65 2.484,7.379 5.326,7.379 2.736,0 3.744,-1.188 3.852,-3.203 l -3.49,-0.361 v -4.211 h 9.502 v 4.032 z" fill="#009eb9" />
        <path id="path172" d="M 529.238,515.572 V 511 l 2.809,-0.359 v -14.902 l -2.809,-0.359 v -4.572 h 20.41 l 0.145,8.676 h -4.607 l -0.541,-3.564 h -6.406 v 4.787 h 5.363 v 4.932 h -5.363 v 4.824 h 6.334 l 0.541,-3.564 h 4.607 l -0.252,8.676 h -20.231 z" fill="#009eb9" />
        <path id="path174" d="M 559.371,515.572 V 511 l 2.844,-0.359 v -14.867 l -2.844,-0.395 v -4.572 h 11.879 v 4.572 l -2.844,0.395 v 14.867 L 571.25,511 v 4.572 z" fill="#009eb9" />
        <path id="path176" d="m 588.852,506.824 v -0.684 l 5.977,1.225 v 0.611 c 0,3.275 -2.088,7.848 -10.584,7.848 -6.695,0 -10.869,-3.924 -10.869,-12.67 0,-8.676 4.283,-12.563 11.051,-12.563 8.35,0 10.402,4.787 10.402,8.207 0,1.115 -0.252,1.871 -0.252,1.871 l -5.867,0.719 c 0,0 0.143,-0.611 0.143,-1.475 0,-1.764 -0.936,-4.176 -4.104,-4.176 -2.844,0 -5.111,1.799 -5.111,7.523 0,5.65 2.412,7.379 5.148,7.379 3.095,0.002 4.066,-1.438 4.066,-3.815 z" fill="#009eb9" />
        <path id="path178" d="M 597.135,515.572 V 511 l 2.844,-0.359 v -14.867 l -2.844,-0.395 v -4.572 h 11.879 v 4.572 l -2.844,0.395 v 14.867 l 2.844,0.359 v 4.572 z" fill="#009eb9" />
      </g>
    </g>
  </g>
  <g style="display:inline" id="layer14">
    <g style="display:inline" id="picto_titre_badge" transform="translate(18.578,28)">
      <path id="path145" d="m 364.485,303.258 c 6.838,6.565 15.277,11.79 25.084,15.524 9.802,3.741 21.308,5.637 34.2,5.637 12.718,0 24.181,-1.896 34.066,-5.637 9.894,-3.734 18.376,-8.957 25.212,-15.524 6.844,-6.574 12.201,-14.363 15.921,-23.143 1.628,-3.847 2.979,-7.928 4.022,-12.148 h -50.095 c -1.32,2.271 -2.651,4.156 -4.063,5.749 -5.457,6.156 -13.89,9.28 -25.063,9.28 -13.571,0 -17.24,-0.455 -25.189,-9.275 -1.438,-1.586 -2.755,-3.424 -4.119,-5.754 H 344.54 c 1.038,4.203 2.393,8.285 4.033,12.146 3.721,8.792 9.074,16.577 15.912,23.145 z" fill="#009eb9" />
      <path id="path147" d="m 505.374,413.549 c -0.522,-9.941 -2.679,-19.449 -6.406,-28.25 -3.718,-8.766 -9.071,-16.496 -15.915,-22.977 -6.833,-6.473 -15.321,-11.698 -25.223,-15.527 -9.897,-3.822 -21.356,-5.762 -34.062,-5.762 -12.876,0 -24.382,1.939 -34.193,5.76 -9.815,3.832 -18.259,9.059 -25.095,15.529 -6.839,6.469 -12.189,14.202 -15.907,22.977 -3.729,8.789 -5.887,18.294 -6.411,28.256 -0.363,7.873 -0.524,33.046 -0.524,41.285 0,0.613 0.008,1.197 0.017,1.785 l 0.003,0.186 h 46.764 l -0.006,-0.352 c -0.011,-0.713 -0.024,-1.425 -0.024,-2.158 0,-3.904 0.047,-25.098 0.141,-29.027 0.096,-4.068 0.312,-7.518 0.658,-10.537 0.357,-4.543 1.316,-8.836 2.848,-12.723 1.539,-3.896 3.748,-7.334 6.569,-10.22 2.821,-2.894 6.362,-5.202 10.516,-6.866 4.15,-1.662 9.077,-2.506 14.646,-2.506 5.568,0 10.497,0.844 14.647,2.506 4.145,1.662 7.686,3.972 10.522,6.865 2.814,2.892 5.021,6.328 6.561,10.221 1.526,3.88 2.484,8.172 2.848,12.76 0.179,3.104 0.355,6.585 0.536,10.477 0.17,3.943 0.255,25.145 0.255,29.051 0,0.643 -0.019,1.27 -0.036,1.894 -0.007,0.206 -0.012,0.409 -0.018,0.616 h 46.806 l 0.002,-0.238 c 0.009,-0.568 0.017,-1.137 0.017,-1.732 -0.002,-8.86 -0.181,-33.588 -0.536,-41.293 z" fill="#009eb9" />
    </g>
  </g>
</svg>
