<?xml version="1.0" encoding="UTF-8" standalone="no"?>
<svg xmlns:dc="http://purl.org/dc/elements/1.1/"
  xmlns:cc="http://creativecommons.org/ns#"
  xmlns:rdf="http://www.w3.org/1999/02/22-rdf-syntax-ns#"
  xmlns:svg="http://www.w3.org/2000/svg"
  xmlns="http://www.w3.org/2000/svg"
  xmlns:xlink="http://www.w3.org/1999/xlink" version="1.1" x="0px" y="0px" width="100%" height="100%" viewBox="0 0 888.18899 888.18898" enable-background="new 0 0 850.394 841.89" xml:space="preserve" id="svg2303">
  <metadata id="metadata2309">
    <rdf:RDF>
      <cc:Work rdf:about="">
        <dc:format>image/svg+xml</dc:format>
        <dc:type rdf:resource="http://purl.org/dc/dcmitype/StillImage" />
        <dc:title></dc:title>
      </cc:Work>
    </rdf:RDF>
  </metadata>
  <defs id="defs2307">
    <linearGradient y2="116.8174" x2="420.56351" y1="116.8174" x1="257.7666" gradientUnits="userSpaceOnUse" id="SVGID_1_">
      <stop id="stop2215" style="stop-color:#FFFFFF" offset="0" />
      <stop id="stop2217" style="stop-color:#8D7D9F" offset="0.4515" />
      <stop id="stop2219" style="stop-color:#473467" offset="1" />
    </linearGradient>
    <linearGradient gradientTransform="matrix(-1,0,0,1,1066.5762,0)" y2="116.8174" x2="634.80957" y1="116.8174" x1="472.0127" gradientUnits="userSpaceOnUse" id="SVGID_2_">
      <stop id="stop2224" style="stop-color:#FFFFFF" offset="0" />
      <stop id="stop2226" style="stop-color:#8D7D9F" offset="0.4515" />
      <stop id="stop2228" style="stop-color:#473467" offset="1" />
    </linearGradient>
    <clipPath id="SVGID_2_-4">
      <use height="100%" width="100%" y="0" x="0" xlink:href="#SVGID_1_-0" overflow="visible" id="use122" />
    </clipPath>
    <clipPath id="SVGID_4_">
      <use height="100%" width="100%" y="0" x="0" xlink:href="#SVGID_3_" overflow="visible" id="use132" />
    </clipPath>
    <path id="SVGID_1_-0" d="m 404.664,50.394 c 1.172,3.438 3.039,6.252 4.836,8.439 l -19.805,17.313 c -3.164,-1.836 -6.135,-4.258 -8.674,-7.969 l -13.156,3.746 c 0,0 -1.5,20.816 0.125,20.816 1.625,0 20.75,-1.5 22,-1.5 1.25,0 37.625,-22.125 37.625,-22.125 l 13.875,-38 c 0,0 -0.625,-12.084 -1,-12.291 -0.375,-0.209 -36.375,17.006 -36.375,17.006 z" />
    <path id="SVGID_3_" d="m 453.475,81.825 c 1.949,-1.783 5.014,-5.445 6.551,-8.467 l 18.717,21.805 0.957,1.021 c -2.836,3.092 -6.361,5.285 -9.527,6.563 l 4.693,17.242 13.125,9.75 0.375,-10.625 c 0,0 -5.125,-47.875 -5.375,-48.25 -0.25,-0.375 -24.334,-23.75 -24.334,-23.75 0,0 -13.166,1.125 -13.166,1.5 0,0.375 -9.506,10 -9.506,10 l 5.662,19.625 z" />
    <clipPath id="SVGID_2_-4-8">
      <use id="use122-9" overflow="visible" xlink:href="#SVGID_1_-0" x="0" y="0" width="100%" height="100%" />
    </clipPath>
    <clipPath id="SVGID_4_-4">
      <use id="use132-1" overflow="visible" xlink:href="#SVGID_3_" x="0" y="0" width="100%" height="100%" />
    </clipPath>
    <path d="m 404.664,50.394 c 1.172,3.438 3.039,6.252 4.836,8.439 l -19.805,17.313 c -3.164,-1.836 -6.135,-4.258 -8.674,-7.969 l -13.156,3.746 c 0,0 -1.5,20.816 0.125,20.816 1.625,0 20.75,-1.5 22,-1.5 1.25,0 37.625,-22.125 37.625,-22.125 l 13.875,-38 c 0,0 -0.625,-12.084 -1,-12.291 -0.375,-0.209 -36.375,17.006 -36.375,17.006 z" id="path300" />
    <path d="m 453.475,81.825 c 1.949,-1.783 5.014,-5.445 6.551,-8.467 l 18.717,21.805 0.957,1.021 c -2.836,3.092 -6.361,5.285 -9.527,6.563 l 4.693,17.242 13.125,9.75 0.375,-10.625 c 0,0 -5.125,-47.875 -5.375,-48.25 -0.25,-0.375 -24.334,-23.75 -24.334,-23.75 0,0 -13.166,1.125 -13.166,1.5 0,0.375 -9.506,10 -9.506,10 l 5.662,19.625 z" id="path307" />
    <linearGradient y2="34.083" x2="419.22461" y1="34.083" x1="256.4277" gradientUnits="userSpaceOnUse" id="SVGID_1_-1" gradientTransform="translate(-0.52877063,-24.950401)">
      <stop id="stop95" style="stop-color:#FFFFFF" offset="0" />
      <stop id="stop97" style="stop-color:#8D7D9F" offset="0.4515" />
      <stop id="stop99" style="stop-color:#473467" offset="1" />
    </linearGradient>
    <linearGradient gradientTransform="matrix(-1,0,0,1,1066.0474,-24.950401)" y2="34.083" x2="636.14838" y1="34.083" x1="473.35159" gradientUnits="userSpaceOnUse" id="SVGID_2_-1">
      <stop id="stop104" style="stop-color:#FFFFFF" offset="0" />
      <stop id="stop106" style="stop-color:#8D7D9F" offset="0.4515" />
      <stop id="stop108" style="stop-color:#473467" offset="1" />
    </linearGradient>
    <linearGradient gradientTransform="translate(-0.52877,-24.9504)" id="SVGID_1_-1-5" gradientUnits="userSpaceOnUse" x1="256.4277" y1="34.083" x2="419.22461" y2="34.083">
      <stop offset="0" style="stop-color:#FFFFFF" id="stop95-6" />
      <stop offset="0.4515" style="stop-color:#8D7D9F" id="stop97-9" />
      <stop offset="1" style="stop-color:#473467" id="stop99-4" />
    </linearGradient>
    <linearGradient id="SVGID_2_-1-0" gradientUnits="userSpaceOnUse" x1="473.35159" y1="34.083" x2="636.14838" y2="34.083" gradientTransform="matrix(-1,0,0,1,1066.0474,-24.950401)">
      <stop offset="0" style="stop-color:#FFFFFF" id="stop104-4" />
      <stop offset="0.4515" style="stop-color:#8D7D9F" id="stop106-9" />
      <stop offset="1" style="stop-color:#473467" id="stop108-8" />
    </linearGradient>
    <linearGradient gradientTransform="translate(0,-6)" id="SVGID_1_-6" gradientUnits="userSpaceOnUse" x1="275.50049" y1="42.818401" x2="438.29739" y2="42.818401">
      <stop offset="0" style="stop-color:#FFFFFF" id="stop111" />
      <stop offset="0.4515" style="stop-color:#8D7D9F" id="stop113" />
      <stop offset="1" style="stop-color:#473467" id="stop115" />
    </linearGradient>
    <linearGradient id="SVGID_2_-2" gradientUnits="userSpaceOnUse" x1="482.62549" y1="42.818401" x2="645.42242" y2="42.818401" gradientTransform="matrix(-1,0,0,1,1094.9229,-5.999996)">
      <stop offset="0" style="stop-color:#FFFFFF" id="stop120" />
      <stop offset="0.4515" style="stop-color:#8D7D9F" id="stop122" />
      <stop offset="1" style="stop-color:#473467" id="stop124" />
    </linearGradient>
    <linearGradient y2="42.818401" x2="438.29739" y1="42.818401" x1="275.50049" gradientUnits="userSpaceOnUse" id="SVGID_1_-6-5" gradientTransform="translate(0,-6)">
      <stop id="stop111-4" style="stop-color:#FFFFFF" offset="0" />
      <stop id="stop113-6" style="stop-color:#8D7D9F" offset="0.4515" />
      <stop id="stop115-2" style="stop-color:#473467" offset="1" />
    </linearGradient>
    <linearGradient gradientTransform="matrix(-1,0,0,1,1094.9229,-5.999996)" y2="42.818401" x2="645.42242" y1="42.818401" x1="482.62549" gradientUnits="userSpaceOnUse" id="SVGID_2_-2-4">
      <stop id="stop120-0" style="stop-color:#FFFFFF" offset="0" />
      <stop id="stop122-0" style="stop-color:#8D7D9F" offset="0.4515" />
      <stop id="stop124-0" style="stop-color:#473467" offset="1" />
    </linearGradient>
    <linearGradient y2="41.618198" x2="419.76761" y1="41.618198" x1="256.9707" gradientUnits="userSpaceOnUse" id="SVGID_1_-8" gradientTransform="translate(0,-28)">
      <stop id="stop105" style="stop-color:#FFFFFF" offset="0" />
      <stop id="stop107" style="stop-color:#8D7D9F" offset="0.4515" />
      <stop id="stop109" style="stop-color:#473467" offset="1" />
    </linearGradient>
    <linearGradient gradientTransform="matrix(-1,0,0,1,1066.5762,-28)" y2="41.618198" x2="635.60553" y1="41.618198" x1="472.80859" gradientUnits="userSpaceOnUse" id="SVGID_2_-8">
      <stop id="stop114" style="stop-color:#FFFFFF" offset="0" />
      <stop id="stop116" style="stop-color:#8D7D9F" offset="0.4515" />
      <stop id="stop118" style="stop-color:#473467" offset="1" />
    </linearGradient>
    <linearGradient gradientTransform="translate(0,-28)" id="SVGID_1_-8-3" gradientUnits="userSpaceOnUse" x1="256.9707" y1="41.618198" x2="419.76761" y2="41.618198">
      <stop offset="0" style="stop-color:#FFFFFF" id="stop105-8" />
      <stop offset="0.4515" style="stop-color:#8D7D9F" id="stop107-8" />
      <stop offset="1" style="stop-color:#473467" id="stop109-0" />
    </linearGradient>
    <linearGradient id="SVGID_2_-8-3" gradientUnits="userSpaceOnUse" x1="472.80859" y1="41.618198" x2="635.60553" y2="41.618198" gradientTransform="matrix(-1,0,0,1,1066.5762,-28)">
      <stop offset="0" style="stop-color:#FFFFFF" id="stop114-2" />
      <stop offset="0.4515" style="stop-color:#8D7D9F" id="stop116-4" />
      <stop offset="1" style="stop-color:#473467" id="stop118-3" />
    </linearGradient>
  </defs>
  <g id="layer1">
    
      <path transform="translate(79.039,28.749798)" id="path202-6" d="M 586.615,203.177 C 528.5,148.971 450.58,115.783 364.859,115.783 c -85.722,0 -163.64,33.188 -221.743,87.394 -11.891,11.699 -16.655,24.214 -16.655,46.113 v 326.302 c 0,21.887 4.765,34.42 16.655,46.127 58.104,54.189 136.021,87.375 221.743,87.375 85.721,0 163.641,-33.186 221.756,-87.375 11.896,-11.707 16.643,-24.24 16.643,-46.127 V 249.29 c -0.001,-21.899 -4.748,-34.414 -16.643,-46.113 z" stroke-miterlimit="10" stroke-width="3" stroke="#009eb9" fill="none" clip-rule="evenodd" fill-rule="evenodd" style="fill:#ffffff;stroke:none" />
    
  </g>
  <g id="layer26" style="display:inline">
    <g id="texte_posture">
      <g id="g28">
        <path fill="#473467" d="m 220.005,748.648 -10.018,16.098 c -1.564,2.514 -3.513,4.018 -5.847,4.512 -2.334,0.496 -4.78,-0.053 -7.338,-1.645 -3.238,-2.016 -5.177,-4.98 -5.817,-8.898 l 5.299,-2.309 c 0.599,2.824 1.714,4.742 3.344,5.756 1.698,1.057 3.152,0.613 4.364,-1.336 l 6.89,-11.07 -8.15,-5.072 3.043,-4.891 z" id="path2" />
        <path fill="#473467" d="m 224.678,763.67 -4.569,-2.482 5.214,-9.594 4.569,2.482 z" id="path4" />
        <path fill="#473467" d="m 243.02,785.719 -11.158,-5.031 -3.981,3.863 -6.672,-3.008 22.523,-20.559 6.672,3.01 -0.755,30.375 -6.928,-3.125 z m 0.323,-5.778 0.613,-11.088 -7.979,7.766 z" id="path6" />
        <path fill="#473467" d="m 262.042,798.572 -6.7,-2.41 9.476,-26.348 6.7,2.41 z" id="path8" />
        <path fill="#473467" d="m 288.297,777.727 11.723,2.746 c 4.284,1.004 7.475,3.08 9.572,6.227 2.097,3.148 2.671,6.748 1.723,10.799 -0.943,4.023 -3.074,6.982 -6.393,8.875 -3.319,1.893 -7.173,2.326 -11.561,1.299 l -11.45,-2.684 z m 5.637,7.154 -3.795,16.201 4.946,1.158 c 2.129,0.5 4.05,0.162 5.763,-1.012 1.712,-1.174 2.849,-2.955 3.408,-5.344 0.559,-2.389 0.303,-4.51 -0.769,-6.363 -1.073,-1.854 -2.712,-3.037 -4.919,-3.555 z" id="path10" />
        <path fill="#473467" d="m 340.172,792.9 -14.676,-1.91 -0.717,5.514 13.249,1.725 -0.723,5.553 -13.248,-1.723 -0.728,5.592 15.113,1.967 -0.723,5.553 -22.173,-2.885 3.612,-27.766 21.737,2.828 z m -2.188,-12.951 -5.739,3.813 -5.236,-0.682 5.071,-6.117 z" id="path12" />
        <path fill="#473467" d="m 360.027,788.041 c 2.079,0.072 4.109,0.57 6.092,1.492 1.982,0.922 3.655,2.127 5.019,3.615 l -4.287,4.734 c -0.868,-1.15 -1.923,-2.074 -3.166,-2.771 -1.244,-0.695 -2.492,-1.066 -3.744,-1.109 -2.212,-0.076 -4.091,0.639 -5.638,2.146 -1.547,1.507 -2.359,3.408 -2.438,5.699 -0.081,2.346 0.597,4.33 2.035,5.953 1.438,1.625 3.263,2.475 5.475,2.551 1.172,0.041 2.402,-0.209 3.688,-0.752 1.286,-0.543 2.439,-1.303 3.461,-2.281 l 4.005,4.541 c -1.572,1.492 -3.408,2.67 -5.505,3.531 -2.098,0.861 -4.173,1.256 -6.225,1.186 -4.211,-0.146 -7.668,-1.639 -10.372,-4.48 -2.703,-2.842 -3.984,-6.314 -3.842,-10.42 0.139,-4.023 1.681,-7.34 4.626,-9.945 2.948,-2.608 6.552,-3.836 10.816,-3.69 z" id="path14" />
        <path fill="#473467" d="m 388.123,787.48 c 4.336,-0.297 8.033,0.809 11.091,3.313 3.058,2.506 4.724,5.779 4.999,9.824 0.277,4.07 -0.935,7.574 -3.635,10.512 -2.7,2.936 -6.205,4.551 -10.516,4.844 -4.31,0.295 -7.994,-0.824 -11.053,-3.355 -3.059,-2.531 -4.729,-5.846 -5.008,-9.943 -0.276,-4.07 0.93,-7.547 3.621,-10.43 2.69,-2.884 6.19,-4.472 10.501,-4.765 z m 0.484,5.94 c -2.182,0.148 -3.99,1.068 -5.425,2.756 -1.436,1.688 -2.073,3.703 -1.914,6.043 0.159,2.342 1.072,4.264 2.738,5.768 1.666,1.504 3.576,2.182 5.731,2.035 2.154,-0.146 3.929,-1.076 5.322,-2.787 1.394,-1.713 2.012,-3.738 1.852,-6.08 -0.159,-2.342 -1.045,-4.252 -2.655,-5.732 -1.611,-1.482 -3.494,-2.15 -5.649,-2.003 z" id="path16" />
        <path fill="#473467" d="m 432.568,781.488 2.893,15.98 c 0.66,3.648 0.056,6.744 -1.814,9.291 -1.869,2.549 -4.732,4.17 -8.59,4.869 -3.884,0.703 -7.167,0.193 -9.85,-1.531 -2.684,-1.723 -4.355,-4.408 -5.016,-8.055 l -2.893,-15.98 7.006,-1.268 2.893,15.98 c 0.333,1.836 1.129,3.203 2.389,4.1 1.26,0.897 2.742,1.189 4.449,0.881 1.678,-0.303 2.926,-1.084 3.742,-2.344 0.814,-1.258 1.055,-2.818 0.717,-4.682 l -2.893,-15.98 z" id="path18" />
        <path fill="#473467" d="m 461.045,802.584 -7.062,2.072 -18.326,-23.803 7.292,-2.141 12.673,17.75 1.067,-21.783 7.023,-2.061 z" id="path20" />
        <path fill="#473467" d="m 489.547,768.148 -13.71,5.574 2.093,5.15 12.377,-5.031 2.108,5.188 -12.377,5.031 2.124,5.225 14.118,-5.738 2.109,5.188 -20.715,8.42 -10.543,-25.939 20.307,-8.254 z" id="path22" />
        <path fill="#473467" d="m 520.869,777.332 -7.357,-5.025 -0.178,0.094 -4.775,2.521 3.68,6.969 -6.296,3.324 -13.073,-24.76 11.07,-5.848 c 3.277,-1.73 6.209,-2.318 8.791,-1.768 2.583,0.551 4.604,2.205 6.06,4.965 2.017,3.82 1.921,7.264 -0.29,10.33 l 9.514,5.426 z m -14.925,-7.361 4.775,-2.521 c 1.367,-0.723 2.248,-1.625 2.642,-2.707 0.394,-1.082 0.248,-2.271 -0.438,-3.57 -0.672,-1.273 -1.56,-2.039 -2.662,-2.303 -1.104,-0.26 -2.34,-0.031 -3.707,0.691 l -4.775,2.521 z" id="path24" />
        <path fill="#473467" d="m 540.173,739.139 -7.055,4.633 12.229,18.625 -5.953,3.906 -12.228,-18.623 -6.988,4.588 -3.161,-4.814 19.995,-13.129 z" id="path26" />
      </g>
    </g>
  </g>
  <g id="layer25" style="display:inline">
    <g style="display:inline" id="filet_separation_theme" transform="translate(79.039007,28.749798)">
      <line id="line31" y2="622.66803" x2="366.79501" y1="584.88501" x1="366.79501" stroke-miterlimit="10" stroke-width="2" stroke="#000000" fill="none" />
    </g>
  </g>
  <g id="layer24" style="display:inline">
    <g style="display:inline" id="picto_theme" transform="translate(79.03901,28.749798)">
      <g id="g38">
        <path id="path34" d="m 422.882,586.854 c 2.643,2.537 5.906,4.559 9.697,6.002 3.789,1.445 8.236,2.178 13.221,2.178 4.916,0 9.348,-0.732 13.17,-2.178 3.823,-1.443 7.104,-3.463 9.746,-6.002 2.646,-2.541 4.717,-5.553 6.154,-8.945 0.629,-1.488 1.151,-3.066 1.555,-4.697 H 457.06 c -0.51,0.879 -1.025,1.607 -1.57,2.223 -2.111,2.379 -5.37,3.588 -9.689,3.588 -5.246,0 -6.665,-0.176 -9.738,-3.586 -0.556,-0.613 -1.064,-1.324 -1.592,-2.225 h -19.299 c 0.401,1.625 0.926,3.203 1.559,4.695 1.437,3.398 3.507,6.407 6.151,8.947 z" stroke-miterlimit="10" stroke-width="2" stroke="#000000" fill="none" />
        <path id="path36" d="m 477.347,629.49 c -0.203,-3.844 -1.037,-7.52 -2.477,-10.922 -1.438,-3.389 -3.507,-6.377 -6.152,-8.883 -2.642,-2.502 -5.923,-4.521 -9.751,-6.002 -3.826,-1.477 -8.256,-2.227 -13.167,-2.227 -4.979,0 -9.426,0.75 -13.219,2.227 -3.795,1.482 -7.059,3.502 -9.701,6.002 -2.644,2.502 -4.713,5.492 -6.15,8.883 -1.44,3.398 -2.275,7.072 -2.478,10.924 -0.141,3.043 -0.203,12.773 -0.203,15.961 0,0.236 0.003,0.461 0.007,0.689 l 0.002,0.072 h 18.076 l -0.002,-0.137 c -0.004,-0.275 -0.009,-0.551 -0.009,-0.834 0,-1.51 0.018,-9.703 0.054,-11.221 0.037,-1.574 0.121,-2.906 0.256,-4.074 0.138,-1.756 0.508,-3.416 1.1,-4.918 0.596,-1.506 1.449,-2.836 2.541,-3.951 1.09,-1.117 2.459,-2.012 4.063,-2.654 1.604,-0.642 3.51,-0.969 5.663,-0.969 2.152,0 4.057,0.326 5.662,0.969 1.602,0.643 2.971,1.535 4.067,2.652 1.088,1.119 1.94,2.447 2.536,3.951 0.59,1.502 0.961,3.16 1.101,4.936 0.069,1.199 0.138,2.545 0.208,4.049 0.065,1.523 0.098,9.719 0.098,11.23 0,0.248 -0.006,0.49 -0.014,0.732 -0.002,0.078 -0.004,0.156 -0.006,0.238 h 18.093 l 10e-4,-0.092 c 0.004,-0.221 0.007,-0.439 0.007,-0.67 0,-3.422 -0.069,-12.982 -0.206,-15.961 z" stroke-miterlimit="10" stroke-width="2" stroke="#000000" fill="none" />
      </g>
    </g>
  </g>
  <g id="layer23" style="display:inline">
    <g style="display:inline" id="texte_picto_theme" transform="translate(79.03901,28.749798)">
      <g id="g61">
        <path id="path41" d="m 392.955,548.756 h -3.799 v 10.025 h -3.203 v -10.025 h -3.762 v -2.593 h 10.764 z" />
        <path id="path43" d="m 404.187,548.701 h -6.66 v 2.502 h 6.012 v 2.52 h -6.012 v 2.539 h 6.857 v 2.52 h -10.063 v -12.6 h 9.865 v 2.519 z" />
        <path id="path45" d="m 413.762,552.193 4.519,6.588 h -3.834 l -2.719,-4.014 -2.718,4.014 h -3.726 l 4.5,-6.443 -4.213,-6.156 h 3.727 l 2.43,3.672 2.43,-3.672 h 3.763 z" />
        <path id="path47" d="m 429.296,548.756 h -3.799 v 10.025 h -3.203 v -10.025 h -3.762 v -2.593 h 10.764 z" />
        <path id="path49" d="m 440.528,548.701 h -6.66 v 2.502 h 6.013 v 2.52 h -6.013 v 2.539 h 6.858 v 2.52 h -10.063 v -12.6 h 9.864 v 2.519 z" />
        <path id="path51" d="m 456.602,548.756 h -3.798 v 10.025 H 449.6 v -10.025 h -3.763 v -2.593 h 10.765 z" />
        <path id="path53" d="m 469.597,558.781 h -3.203 v -4.896 h -5.221 v 4.896 h -3.204 v -12.6 h 3.204 v 5.184 h 5.221 v -5.184 h 3.203 z" />
        <path id="path55" d="m 481.982,548.701 h -6.66 v 2.502 h 6.012 v 2.52 h -6.012 v 2.539 h 6.857 v 2.52 h -10.063 v -12.6 h 9.865 v 2.519 z m -3.313,-3.618 h -2.376 l -2.34,-2.034 2.808,-0.99 z" />
        <path id="path57" d="m 498.091,558.781 h -2.826 l -0.018,-8.189 -3.023,6.93 h -2.088 l -3.024,-6.93 v 8.189 h -2.862 v -12.618 h 3.51 l 3.42,7.507 3.42,-7.507 h 3.492 v 12.618 z" />
        <path id="path59" d="m 510.494,548.701 h -6.66 v 2.502 h 6.012 v 2.52 h -6.012 v 2.539 h 6.857 v 2.52 h -10.063 v -12.6 h 9.865 v 2.519 z" />
      </g>
    </g>
  </g>
  <g id="layer22" style="display:inline">
    <g style="display:inline" id="picto_categorie" transform="translate(79.039007,28.749796)">
      <g id="g80">
        <circle id="circle64" r="6.1939998" cy="593.58002" cx="285.18799" stroke-miterlimit="10" stroke-width="2" stroke="#000000" fill="none" />
        <path id="path66" d="m 331.806,628.246 h -33.904 c 4.89,5.867 18.202,15.701 33.904,0 z" stroke-miterlimit="10" stroke-linejoin="round" stroke-width="2" stroke="#000000" fill="none" />
        <polyline id="polyline68" points="    331.806,628.246 314.746,589.561 297.902,628.246   " stroke-miterlimit="10" stroke-linejoin="round" stroke-width="2" stroke="#000000" fill="none" />
        <path id="path70" d="m 273.6,637.35 h -33.905 c 4.89,5.869 18.203,15.703 33.905,0 z" stroke-miterlimit="10" stroke-linejoin="round" stroke-width="2" stroke="#000000" fill="none" />
        <polyline id="polyline72" points="273.6,637.35     256.539,598.664 239.695,637.35   " stroke-miterlimit="10" stroke-linejoin="round" stroke-width="2" stroke="#000000" fill="none" />
        <line id="line74" y2="589.56097" x2="314.746" y1="593.21301" x1="291.392" stroke-miterlimit="10" stroke-linejoin="round" stroke-linecap="round" stroke-width="2" stroke="#000000" fill="none" />
        <line id="line76" y2="595.15601" x2="278.965" y1="598.664" x1="256.539" stroke-miterlimit="10" stroke-linejoin="round" stroke-linecap="round" stroke-width="2" stroke="#000000" fill="none" />
        <line id="line78" y2="586.65802" x2="285.133" y1="572.53101" x1="285.133" stroke-miterlimit="10" stroke-linecap="round" stroke-width="2" stroke="#000000" fill="none" />
      </g>
    </g>
  </g>
  <g id="layer21" style="display:inline">
    <g style="display:inline" id="texte_picto_categorie" transform="translate(79.039,28.749798)">
      <g id="g105">
        <path id="path83" d="m 228.635,546.037 c 1.884,0 3.54,0.469 4.968,1.404 l -1.206,2.502 c -0.66,-0.384 -1.368,-0.699 -2.124,-0.945 -0.756,-0.246 -1.393,-0.369 -1.908,-0.369 -0.924,0 -1.386,0.307 -1.386,0.918 0,0.396 0.228,0.715 0.684,0.955 0.456,0.239 1.011,0.446 1.665,0.62 0.654,0.175 1.308,0.384 1.962,0.63 0.654,0.246 1.209,0.646 1.665,1.197 0.456,0.553 0.684,1.248 0.684,2.088 0,1.213 -0.474,2.157 -1.422,2.835 -0.948,0.679 -2.154,1.017 -3.618,1.017 -1.044,0 -2.076,-0.18 -3.096,-0.539 -1.021,-0.36 -1.908,-0.852 -2.664,-1.477 l 1.242,-2.466 c 0.636,0.552 1.386,1.005 2.25,1.358 0.864,0.354 1.632,0.531 2.304,0.531 0.516,0 0.918,-0.092 1.206,-0.279 0.288,-0.186 0.432,-0.459 0.432,-0.818 0,-0.348 -0.166,-0.639 -0.495,-0.873 -0.33,-0.234 -0.741,-0.408 -1.233,-0.521 -0.492,-0.114 -1.026,-0.268 -1.602,-0.459 -0.576,-0.192 -1.11,-0.402 -1.602,-0.631 -0.492,-0.228 -0.903,-0.59 -1.233,-1.088 -0.331,-0.498 -0.495,-1.096 -0.495,-1.791 0,-1.152 0.459,-2.074 1.377,-2.764 0.918,-0.69 2.133,-1.035 3.645,-1.035 z" />
        <path id="path85" d="m 243.701,556.459 h -5.508 l -0.918,2.322 h -3.294 l 5.436,-12.6 h 3.294 l 5.31,12.6 h -3.42 z m -0.936,-2.43 -1.8,-4.662 -1.836,4.662 z" />
        <path id="path87" d="m 255.149,558.781 h -3.312 l -4.896,-12.6 h 3.42 l 3.222,9.27 3.222,-9.27 h 3.294 z" />
        <path id="path89" d="m 267.281,546.073 c 1.956,0 3.582,0.609 4.878,1.827 1.296,1.218 1.944,2.738 1.944,4.563 0,1.836 -0.651,3.373 -1.953,4.608 -1.302,1.235 -2.925,1.854 -4.869,1.854 -1.944,0 -3.564,-0.615 -4.86,-1.846 -1.296,-1.229 -1.944,-2.769 -1.944,-4.617 0,-1.836 0.648,-3.359 1.944,-4.572 1.296,-1.21 2.916,-1.817 4.86,-1.817 z m 0.036,2.683 c -0.984,0 -1.824,0.356 -2.52,1.07 -0.696,0.715 -1.044,1.6 -1.044,2.655 0,1.055 0.351,1.946 1.053,2.673 0.702,0.727 1.539,1.089 2.511,1.089 0.972,0 1.797,-0.362 2.475,-1.089 0.678,-0.727 1.017,-1.617 1.017,-2.673 0,-1.056 -0.339,-1.94 -1.017,-2.655 -0.678,-0.714 -1.503,-1.07 -2.475,-1.07 z" />
        <path id="path91" d="m 278.999,558.781 h -3.204 v -12.6 h 3.204 z" />
        <path id="path93" d="m 289.114,558.781 -1.872,-3.546 h -0.09 -2.43 v 3.546 h -3.204 v -12.6 h 5.634 c 1.668,0 2.958,0.381 3.87,1.143 0.912,0.762 1.368,1.846 1.368,3.249 0,1.944 -0.762,3.294 -2.286,4.05 l 2.646,4.158 z m -4.392,-6.066 h 2.43 c 0.696,0 1.236,-0.174 1.62,-0.521 0.384,-0.348 0.576,-0.852 0.576,-1.512 0,-0.648 -0.192,-1.141 -0.576,-1.477 -0.384,-0.336 -0.924,-0.504 -1.62,-0.504 h -2.43 z" />
        <path id="path95" d="m 299.033,554.245 h -4.752 v -1.962 h 4.752 z" />
        <path id="path97" d="m 311.146,548.701 h -6.66 v 2.502 h 6.012 v 2.52 h -6.012 v 2.539 h 6.858 v 2.52 h -10.062 v -12.6 h 9.864 z m -1.62,-3.798 h -2.232 l -1.044,-1.53 -1.044,1.53 h -2.232 l 2.034,-2.718 h 2.484 z" />
        <path id="path99" d="m 323.044,548.756 h -3.798 v 10.025 h -3.204 v -10.025 h -3.762 v -2.593 h 10.764 z" />
        <path id="path101" d="m 332.008,558.781 -1.872,-3.546 h -0.09 -2.43 v 3.546 h -3.204 v -12.6 h 5.634 c 1.668,0 2.958,0.381 3.87,1.143 0.912,0.762 1.368,1.846 1.368,3.249 0,1.944 -0.762,3.294 -2.286,4.05 l 2.646,4.158 z m -4.392,-6.066 h 2.43 c 0.696,0 1.236,-0.174 1.62,-0.521 0.384,-0.348 0.576,-0.852 0.576,-1.512 0,-0.648 -0.192,-1.141 -0.576,-1.477 -0.384,-0.336 -0.924,-0.504 -1.62,-0.504 h -2.43 z" />
        <path id="path103" d="m 347.308,548.701 h -6.66 v 2.502 h 6.012 v 2.52 h -6.012 v 2.539 h 6.858 v 2.52 h -10.062 v -12.6 h 9.864 z" />
      </g>
    </g>
  </g>
  <g id="layer20" style="display:inline">
    <g style="display:inline" id="fond_categorie" transform="translate(79.03901,28.749798)">
      <path id="path108" d="M 572.954,513.621 V 248.289 c 0,-15.717 -2.794,-19.87 -7.415,-24.461 -54.804,-50.974 -126.165,-79.044 -200.982,-79.044 -74.821,0 -146.177,28.068 -200.97,79.041 -4.63,4.604 -7.43,8.764 -7.43,24.464 v 265.333 h 416.797 z" fill="#009eb9" clip-rule="evenodd" fill-rule="evenodd" />
    </g>
  </g>
  <g id="layer19" style="display:inline">
    <g style="display:inline" id="picto_posture" transform="translate(79.039,28.749798)">
      <g id="g187">
        <g id="g185">
          <g id="g183">
            <g id="g181">
              <g id="g179">
                <polygon id="polygon111" points="385.316,108.817 385.275,108.729 384.044,108.729 384.044,108.817 " fill="#473467" />
                <polygon id="polygon113" points="344.712,108.729 343.727,108.729 343.685,108.817 344.712,108.817 " fill="#473467" />
                <rect id="rect115" height="1.124" width="1.123" fill="#473467" transform="matrix(0.8659,-0.5003,0.5003,0.8659,39.6951,201.822)" y="26.327999" x="395.63101" />
                <rect id="rect117" height="1.124" width="1.124" fill="#473467" transform="matrix(0.4996,0.8663,-0.8663,0.4996,223.798,-329.7481)" y="28.275" x="396.754" />
                <rect id="rect119" height="1.124" width="1.124" fill="#473467" transform="matrix(-0.8663,0.4996,-0.4996,-0.8663,755.9003,-141.6113)" y="29.809999" x="396.34299" />
                <rect id="rect121" height="1.124" width="1.124" fill="#473467" transform="matrix(0.8661,-0.4999,0.4999,0.8661,37.9739,203.3121)" y="30.221001" x="397.87799" />
                <rect id="rect123" height="1.124" width="1.123" fill="#473467" transform="matrix(0.8659,-0.5003,0.5003,0.8659,37.2259,204.2919)" y="32.167999" x="399.00201" />
                <rect id="rect125" height="1.124" width="1.124" fill="#473467" transform="matrix(0.8661,-0.4999,0.4999,0.8661,36.3289,204.957)" y="34.113998" x="400.125" />
                <rect id="rect127" height="1.124" width="1.124" fill="#473467" transform="matrix(0.4998,0.8661,-0.8661,0.4998,227.0814,-243.1633)" y="74.458" x="323.504" />
                <rect id="rect129" height="1.124" width="1.123" fill="#473467" transform="matrix(0.8659,-0.5003,0.5003,0.8659,6.7632,172.1938)" y="72.924004" x="323.91599" />
                <rect id="rect131" height="1.123" width="1.124" fill="#473467" transform="matrix(0.5004,0.8658,-0.8658,0.5004,226.8418,-245.3375)" y="73.334999" x="325.45099" />
                <rect id="rect133" height="1.124" width="1.124" fill="#473467" transform="matrix(-0.4998,-0.8661,0.8661,-0.4998,477.4916,397.1036)" y="60.110001" x="352.85101" />
                <rect id="rect135" height="1.123" width="1.124" fill="#473467" transform="matrix(-0.5004,-0.8658,0.8658,-0.5004,481.638,397.009)" y="58.987" x="354.797" />
                <rect id="rect137" height="1.124" width="1.124" fill="#473467" transform="matrix(-0.4998,-0.8661,0.8661,-0.4998,485.2764,397.1043)" y="57.862999" x="356.74301" />
                <rect id="rect139" height="1.123" width="1.124" fill="#473467" transform="matrix(-0.5004,-0.8658,0.8658,-0.5004,489.4243,397.0072)" y="56.740002" x="358.689" />
                <rect id="rect141" height="1.124" width="1.124" fill="#473467" transform="matrix(-0.4998,-0.8661,0.8661,-0.4998,493.0609,397.1054)" y="55.616001" x="360.63599" />
                <rect id="rect143" height="1.123" width="1.124" fill="#473467" transform="matrix(-0.5004,-0.8658,0.8658,-0.5004,497.2107,397.0049)" y="54.492001" x="362.582" />
                <rect id="rect145" height="1.125" width="1.123" fill="#473467" transform="matrix(-0.4991,-0.8665,0.8665,-0.4991,500.5886,397.2091)" y="53.368" x="364.53" />
                <rect id="rect147" height="1.123" width="1.124" fill="#473467" transform="matrix(-0.5004,-0.8658,0.8658,-0.5004,504.9971,397.0027)" y="52.243999" x="366.47501" />
                <rect id="rect149" height="1.124" width="1.124" fill="#473467" transform="matrix(-0.4996,-0.8663,0.8663,-0.4996,508.5569,397.1379)" y="51.119999" x="368.422" />
                <rect id="rect151" height="1.123" width="1.124" fill="#473467" transform="matrix(-0.4998,-0.8661,0.8661,-0.4998,512.5235,397.1076)" y="49.997002" x="370.36801" />
                <rect id="rect153" height="1.124" width="1.124" fill="#473467" transform="matrix(-0.4998,-0.8661,0.8661,-0.4998,516.4164,397.1087)" y="48.873001" x="372.315" />
                <rect id="rect155" height="1.124" width="1.124" fill="#473467" transform="matrix(-0.4998,-0.8661,0.8661,-0.4998,520.3088,397.109)" y="47.749001" x="374.26099" />
                <rect id="rect157" height="1.123" width="1.124" fill="#473467" transform="matrix(-0.5004,-0.8658,0.8658,-0.5004,524.4645,396.9984)" y="46.625999" x="376.207" />
                <rect id="rect159" height="1.124" width="1.124" fill="#473467" transform="matrix(-0.4998,-0.8661,0.8661,-0.4998,528.0936,397.1097)" y="45.501999" x="378.15399" />
                <rect id="rect161" height="1.123" width="1.124" fill="#473467" transform="matrix(-0.5004,-0.8658,0.8658,-0.5004,532.251,396.9961)" y="44.377998" x="380.10001" />
                <rect id="rect163" height="1.124" width="1.124" fill="#473467" transform="matrix(-0.5002,-0.8659,0.8659,-0.5002,536.0681,397.0288)" y="43.254002" x="382.04599" />
                <rect id="rect165" height="1.123" width="1.124" fill="#473467" transform="matrix(-0.5004,-0.8658,0.8658,-0.5004,540.0374,396.9939)" y="42.131001" x="383.992" />
                <rect id="rect167" height="1.124" width="1.124" fill="#473467" transform="matrix(-0.4998,-0.8661,0.8661,-0.4998,543.6643,397.1124)" y="41.007" x="385.94" />
                <rect id="rect169" height="1.123" width="1.124" fill="#473467" transform="matrix(-0.4998,-0.8661,0.8661,-0.4998,547.556,397.1123)" y="39.883999" x="387.88501" />
                <rect id="rect171" height="1.124" width="1.124" fill="#473467" transform="matrix(-0.4998,-0.8661,0.8661,-0.4998,551.449,397.1131)" y="38.758999" x="389.832" />
                <rect id="rect173" height="1.124" width="1.124" fill="#473467" transform="matrix(-0.5004,-0.8658,0.8658,-0.5004,555.6108,396.9902)" y="37.636002" x="391.77802" />
                <polygon id="polygon175" points="362.487,48.296 360.541,49.42 361.665,51.367 362.638,50.805 363.199,51.778 368.066,48.969 366.942,47.022 363.048,49.27 " fill="#473467" />
                <path id="path177" d="m 413.284,30.647 0.974,-0.562 -6.742,-11.678 -0.974,0.562 -1.124,-1.946 -14.598,8.428 1.123,1.946 -31.142,17.98 -0.562,-0.973 1.946,-1.124 -0.562,-0.973 4.865,-2.81 0.563,0.973 2.919,-1.686 -2.81,-4.866 -2.919,1.686 0.562,0.973 -5.136,2.965 c -0.672,-0.384 -1.52,-0.42 -2.238,-0.005 -0.719,0.415 -1.112,1.167 -1.114,1.941 l -7.082,4.089 -0.563,-0.973 -3.893,2.248 2.81,4.866 3.893,-2.248 -0.562,-0.973 4.865,-2.809 0.563,0.973 -1.947,1.124 0.563,0.973 4.782,-2.761 -14.515,8.379 1.686,2.92 -23.355,13.485 -1.124,-1.947 -1.946,1.124 -1.124,-1.946 0.974,-0.562 -1.124,-1.946 -4.866,2.809 1.124,1.946 0.973,-0.562 1.124,1.946 1.123,1.946 3.372,5.839 25.303,-14.609 0.562,0.973 2.92,-1.686 1.123,1.946 6.813,-3.933 1.125,1.947 0.973,-0.562 0.562,0.973 0.364,-0.21 c -0.021,0.149 -0.045,0.296 -0.045,0.451 0,0.255 0.035,0.5 0.091,0.739 l -20.592,43.368 h -2.168 v 2.247 h 1.259 l 2.112,-1.567 0.311,-0.769 h 0.951 l 19.702,-41.182 c 0.126,0.071 0.252,0.143 0.387,0.197 v 33.629 h -1.123 v 2.248 h 1.123 2.248 1.124 v -2.248 h -1.124 V 67.804 c 0.106,-0.036 0.214,-0.068 0.315,-0.113 l 18.896,41.038 h 0.869 l 0.283,0.769 2.111,1.567 h 1.124 v -2.247 h -1.952 L 368.096,65.85 c 0.133,-0.356 0.216,-0.737 0.216,-1.14 0,-0.102 -0.021,-0.197 -0.03,-0.296 l 1.66,-0.958 -1.124,-1.946 0.974,-0.562 -0.562,-0.973 3.893,-2.248 -0.563,-0.973 0.974,-0.562 -1.124,-1.947 26.276,-15.17 1.124,1.947 14.598,-8.428 z m -65.847,18.553 -1.123,-1.946 0.973,-0.562 1.124,1.946 z m 19.314,-13.746 1.123,1.946 -0.973,0.562 -1.124,-1.946 z m -7.635,7.003 v 0 0 l -7.786,4.495 -0.561,-0.973 6.812,-3.933 c -0.31,-0.537 -0.126,-1.225 0.411,-1.535 0.538,-0.31 1.225,-0.126 1.535,0.412 l 4.866,-2.81 0.562,0.973 z m -36.229,33.893 -0.562,-0.973 0.973,-0.562 -0.562,-0.973 -0.974,0.562 26.276,-15.17 1.124,1.946 z m 38.968,-13.415 -1.686,-2.919 0.973,-0.562 1.661,2.875 c -0.05,0.046 -0.097,0.092 -0.144,0.142 z m 32.787,-24.121 -0.562,-0.973 -0.973,0.562 0.562,0.973 -0.973,0.562 -0.563,-0.974 -0.973,0.562 0.562,0.973 -0.974,0.562 -0.562,-0.973 -0.974,0.562 0.563,0.973 -0.974,0.562 -0.562,-0.973 -0.973,0.562 0.561,0.973 -0.973,0.562 -0.562,-0.973 -0.974,0.562 0.563,0.974 -0.974,0.562 -0.562,-0.973 -0.973,0.562 0.561,0.973 -0.973,0.562 -0.562,-0.973 -0.974,0.562 0.563,0.973 -0.974,0.562 -0.562,-0.973 -0.974,0.562 0.562,0.973 -0.973,0.562 -0.563,-0.974 -0.973,0.562 0.562,0.973 -0.973,0.562 -0.562,-0.973 -0.974,0.562 0.562,0.973 -0.973,0.562 -0.563,-0.973 -0.973,0.562 0.562,0.973 -0.974,0.562 -0.562,-0.973 -0.974,0.562 0.563,0.974 -0.973,0.562 -0.563,-0.973 -0.973,0.562 0.562,0.973 -0.974,0.562 -0.562,-0.973 -0.974,0.562 0.563,0.973 -0.974,0.562 -0.562,-0.973 -0.973,0.562 0.562,0.973 -0.974,0.562 -0.563,-0.974 -0.973,0.562 0.563,0.973 -0.974,0.562 -0.562,-0.973 -0.974,0.562 0.562,0.973 -0.973,0.562 -0.563,-0.973 -0.973,0.562 0.563,0.973 -0.974,0.562 -0.562,-0.973 -0.974,0.562 0.562,0.974 -0.973,0.562 -0.563,-0.973 -0.973,0.562 0.563,0.973 -0.974,0.562 -0.562,-0.974 -0.974,0.562 0.562,0.973 -0.973,0.562 -0.563,-0.973 -0.973,0.562 0.562,0.973 v 0 l -4.495,-7.786 42.82,-24.722 1.124,1.946 -20.437,11.799 0.562,0.973 20.437,-11.799 1.686,2.919 -0.973,0.562 0.562,0.973 0.974,-0.562 0.562,0.973 z m 7.937,-1.986 -0.562,-0.973 -0.974,0.562 0.562,0.973 -0.973,0.562 -0.562,-0.973 0.973,-0.562 -0.562,-0.973 -0.974,0.562 0.031,0.053 -0.91,-1.577 0.317,0.55 0.973,-0.562 -0.562,-0.973 -0.974,0.562 -0.562,-0.973 0.974,-0.562 -0.563,-0.973 -0.973,0.562 -1.686,-2.919 0.973,-0.562 -0.562,-0.973 -0.974,0.562 -0.562,-0.973 0.974,-0.562 -0.563,-0.973 -0.973,0.562 10.705,-6.181 6.742,11.678 z" fill="#473467" />
              </g>
            </g>
          </g>
        </g>
      </g>
    </g>
  </g>
  <g id="layer18" style="display:inline">
    <g style="display:inline" id="filet_1_categorie" transform="translate(79.039,28.749798)">
      <g id="g194">
        <path id="path190" d="m 295.717,74.737 c -49.282,11.765 -94.97,36.124 -132.771,71.39 -11.074,10.897 -15.389,32.033 -15.389,51.714 v -6.992" stroke-miterlimit="10" stroke-width="2" stroke="#473467" fill="none" />
        <path id="path192" d="m 581.552,197.83 v -9.211 c 0,-19.695 -4.312,-31.609 -15.378,-42.492 l -0.02,-0.019 C 528.829,111.292 483.805,87.105 435.223,75.179" stroke-miterlimit="10" stroke-width="2" stroke="#473467" fill="none" />
      </g>
      <path id="path196" d="m 147.558,624.549 v 14.713 c 0,17.016 4.314,31.602 15.408,42.523 54.923,51.223 126.516,79.434 201.59,79.434 75.069,0 146.665,-28.211 201.618,-79.451 11.066,-10.891 15.378,-22.809 15.378,-42.506 v -13.207" stroke-miterlimit="10" stroke-width="2" stroke="#473467" fill="none" />
    </g>
  </g>
  <g id="layer17" style="display:inline;opacity:1">
    <g style="display:inline" id="filet_2_categorie" transform="translate(79.039,28.749798)">
      <path id="path199" d="M 586.615,203.177 C 528.5,148.971 450.58,115.783 364.859,115.783 c -85.722,0 -163.64,33.188 -221.743,87.394 -11.891,11.699 -16.655,24.214 -16.655,46.113 v 326.302 c 0,21.887 4.765,34.42 16.655,46.127 58.104,54.189 136.021,87.375 221.743,87.375 85.721,0 163.641,-33.186 221.756,-87.375 11.896,-11.707 16.643,-24.24 16.643,-46.127 V 249.29 c -0.001,-21.899 -4.748,-34.414 -16.643,-46.113 z" stroke-miterlimit="10" stroke-width="27" stroke="#009eb9" fill="none" clip-rule="evenodd" fill-rule="evenodd" opacity="0.2" />
    </g>
  </g>












  <g id="layer16" style="display:inline">
    <g style="display:inline" id="filet_3_posture" transform="translate(79.039,28.749798)">
      <path id="path202" d="M 586.615,203.177 C 528.5,148.971 450.58,115.783 364.859,115.783 c -85.722,0 -163.64,33.188 -221.743,87.394 -11.891,11.699 -16.655,24.214 -16.655,46.113 v 326.302 c 0,21.887 4.765,34.42 16.655,46.127 58.104,54.189 136.021,87.375 221.743,87.375 85.721,0 163.641,-33.186 221.756,-87.375 11.896,-11.707 16.643,-24.24 16.643,-46.127 V 249.29 c -0.001,-21.899 -4.748,-34.414 -16.643,-46.113 z" stroke-miterlimit="10" stroke-width="3" stroke="#009eb9" fill="none" clip-rule="evenodd" fill-rule="evenodd" />
    </g>
  </g>
  <g id="layer15" style="display:inline">
    <g style="display:inline" id="texte_titre_badge" transform="translate(79.039,28.749798)">
      <g id="g240">
        <path id="path210" d="m 195.545,486.451 2.844,0.36 v 4.571 H 186.51 v -4.571 l 2.844,-0.36 v -14.722 h -3.636 l -0.539,3.563 h -4.607 l 0.18,-8.675 h 23.396 l 0.181,8.675 h -4.607 l -0.54,-3.563 h -3.636 v 14.722 z" fill="#ffffff" />
        <path id="path212" d="m 206.022,491.383 v -4.571 l 2.844,-0.36 v -14.866 l -2.844,-0.396 v -4.571 h 11.879 v 4.571 l -2.844,0.396 v 14.866 l 2.844,0.36 v 4.571 z" fill="#ffffff" />
        <path id="path214" d="m 234.532,486.451 2.844,0.36 v 4.571 h -11.879 v -4.571 l 2.844,-0.36 v -14.722 h -3.636 l -0.539,3.563 h -4.607 l 0.18,-8.675 h 23.396 l 0.181,8.675 h -4.607 l -0.54,-3.563 h -3.636 v 14.722 z" fill="#ffffff" />
        <path id="path216" d="m 261.749,491.383 -4.536,-8.675 h -3.167 v 3.743 l 3.635,0.36 v 4.571 h -12.67 v -4.571 l 2.844,-0.36 v -14.866 l -2.844,-0.396 v -4.571 h 13.462 c 5.04,0 8.495,2.844 8.495,7.631 0,4.067 -1.691,5.688 -4.067,6.983 v 0.18 c 0,0 0.396,0.288 0.684,0.792 l 2.484,4.247 3.167,0.36 v 4.571 h -7.487 z m -4.824,-13.498 c 2.628,0 3.78,-1.044 3.78,-3.275 0,-1.944 -1.404,-2.88 -3.78,-2.88 h -2.879 v 6.155 z" fill="#ffffff" />
        <path id="path218" d="m 270.679,491.383 v -4.571 l 2.808,-0.36 V 471.55 l -2.808,-0.359 v -4.571 h 20.409 l 0.145,8.675 h -4.607 l -0.54,-3.563 h -6.407 v 4.787 h 5.363 v 4.932 h -5.363 v 4.823 h 6.335 l 0.54,-3.563 h 4.607 l -0.252,8.675 h -20.23 z" fill="#ffffff" />
        <path id="path220" d="m 300.81,491.383 v -4.571 l 2.844,-0.36 V 471.55 l -2.844,-0.359 v -4.571 h 12.131 c 6.119,0 12.13,3.239 12.13,12.202 0,9.827 -5.939,12.563 -11.555,12.563 H 300.81 Z m 11.23,-5.112 c 4.212,0 6.768,-1.62 6.768,-7.451 0,-4.968 -2.664,-7.091 -7.235,-7.091 h -1.728 v 14.542 z" fill="#ffffff" />
        <path id="path222" d="m 344.295,471.585 -2.844,-0.396 v -4.571 h 11.519 v 4.571 l -2.843,0.396 v 10.691 c 0,6.263 -3.744,9.358 -10.367,9.358 -6.623,0 -10.511,-3.096 -10.511,-9.358 v -10.691 l -2.844,-0.396 v -4.571 h 11.879 v 4.571 l -2.844,0.396 v 10.295 c 0,1.944 0.792,4.571 4.319,4.571 2.88,0 4.535,-2.052 4.535,-4.392 v -10.474 z" fill="#ffffff" />
        <path id="path224" d="m 361.686,491.383 v -4.571 l 2.844,-0.36 V 471.55 l -2.844,-0.359 v -4.571 h 10.294 c 7.092,0 10.654,1.728 10.654,6.659 0,4.211 -2.664,5.003 -3.635,5.291 v 0.288 c 1.764,0.216 5.398,1.188 5.398,5.759 0,4.248 -2.482,6.768 -10.043,6.768 h -12.668 z m 12.058,-14.722 c 1.656,0 2.629,-0.973 2.629,-2.448 0,-1.764 -1.404,-2.483 -2.988,-2.483 h -2.664 v 4.932 h 3.023 z m -3.024,4.643 v 4.968 h 3.924 c 2.52,0 3.492,-0.684 3.492,-2.447 0,-1.584 -1.225,-2.521 -2.988,-2.521 z" fill="#ffffff" />
        <path id="path226" d="m 409.382,486.451 2.52,0.36 v 4.571 h -11.158 v -4.571 l 2.699,-0.36 -0.9,-2.375 h -8.387 l -0.898,2.375 2.699,0.36 v 4.571 h -10.979 v -4.571 l 2.52,-0.36 5.65,-14.902 -3.168,-0.18 v -4.751 h 11.879 z m -10.15,-11.194 c -0.252,-0.647 -0.793,-2.195 -0.793,-2.195 h -0.18 c 0,0 -0.539,1.548 -0.791,2.195 l -1.549,4.104 h 4.859 z" fill="#ffffff" />
        <path id="path228" d="m 413.238,491.383 v -4.571 l 2.844,-0.36 V 471.55 l -2.844,-0.359 v -4.571 h 12.131 c 6.119,0 12.129,3.239 12.129,12.202 0,9.827 -5.939,12.563 -11.555,12.563 h -12.705 z m 11.23,-5.112 c 4.211,0 6.768,-1.62 6.768,-7.451 0,-4.968 -2.664,-7.091 -7.236,-7.091 h -1.727 v 14.542 z" fill="#ffffff" />
        <path id="path230" d="m 461.078,482.708 c 0,3.707 -2.051,8.927 -10.402,8.927 -6.803,0 -11.051,-3.924 -11.051,-12.67 0,-8.676 4.283,-12.563 11.051,-12.563 8.352,0 10.402,4.355 10.402,7.486 0,1.116 -0.252,1.872 -0.252,1.872 l -5.867,0.54 c 0,0 0.145,-0.54 0.145,-1.296 0,-1.476 -0.936,-3.456 -4.104,-3.456 -2.844,0 -5.111,1.8 -5.111,7.523 0,5.651 2.484,7.379 5.326,7.379 2.736,0 3.744,-1.188 3.852,-3.203 l -3.49,-0.36 v -4.211 h 9.502 v 4.032 z" fill="#ffffff" />
        <path id="path232" d="m 463.564,491.383 v -4.571 l 2.809,-0.36 V 471.55 l -2.809,-0.359 v -4.571 h 20.41 l 0.145,8.675 h -4.607 l -0.541,-3.563 h -6.406 v 4.787 h 5.363 v 4.932 h -5.363 v 4.823 h 6.334 l 0.541,-3.563 h 4.607 l -0.252,8.675 h -20.231 z" fill="#ffffff" />
        <path id="path234" d="m 493.697,491.383 v -4.571 l 2.844,-0.36 v -14.866 l -2.844,-0.396 v -4.571 h 11.879 v 4.571 l -2.844,0.396 v 14.866 l 2.844,0.36 v 4.571 z" fill="#ffffff" />
        <path id="path236" d="m 523.177,482.636 v -0.684 l 5.977,1.224 v 0.612 c 0,3.275 -2.088,7.847 -10.584,7.847 -6.695,0 -10.869,-3.924 -10.869,-12.67 0,-8.676 4.283,-12.563 11.051,-12.563 8.35,0 10.402,4.787 10.402,8.207 0,1.115 -0.252,1.871 -0.252,1.871 l -5.867,0.72 c 0,0 0.143,-0.611 0.143,-1.476 0,-1.764 -0.936,-4.176 -4.104,-4.176 -2.844,0 -5.111,1.8 -5.111,7.523 0,5.651 2.412,7.379 5.148,7.379 3.096,0.001 4.066,-1.438 4.066,-3.814 z" fill="#ffffff" />
        <path id="path238" d="m 531.46,491.383 v -4.571 l 2.844,-0.36 v -14.866 l -2.844,-0.396 v -4.571 h 11.879 v 4.571 l -2.844,0.396 v 14.866 l 2.844,0.36 v 4.571 z" fill="#ffffff" />
      </g>
    </g>
  </g>
  <g id="layer14" style="display:inline">
    <g style="display:inline" id="picto_titre_badge" transform="translate(79.03901,28.749798)">
      <path id="path205" d="m 308.517,278.094 c 6.838,6.565 15.277,11.79 25.084,15.524 9.802,3.74 21.308,5.637 34.2,5.637 12.718,0 24.181,-1.896 34.066,-5.637 9.894,-3.734 18.376,-8.957 25.212,-15.524 6.844,-6.575 12.201,-14.362 15.921,-23.143 1.628,-3.848 2.979,-7.929 4.022,-12.148 h -50.096 c -1.319,2.271 -2.65,4.156 -4.063,5.748 -5.457,6.157 -13.891,9.281 -25.063,9.281 -13.571,0 -17.24,-0.455 -25.189,-9.275 -1.438,-1.586 -2.755,-3.425 -4.119,-5.754 H 288.57 c 1.038,4.203 2.394,8.285 4.034,12.146 3.722,8.793 9.075,16.578 15.913,23.145 z" fill="#ffffff" />
      <path id="path207" d="m 449.406,388.385 c -0.523,-9.941 -2.679,-19.449 -6.406,-28.25 -3.719,-8.766 -9.072,-16.497 -15.915,-22.978 -6.833,-6.472 -15.321,-11.697 -25.224,-15.527 -9.896,-3.822 -21.355,-5.761 -34.061,-5.761 -12.877,0 -24.382,1.938 -34.193,5.759 -9.815,3.833 -18.259,9.06 -25.096,15.529 -6.838,6.47 -12.188,14.203 -15.906,22.978 -3.729,8.788 -5.887,18.294 -6.412,28.256 -0.362,7.872 -0.523,33.045 -0.523,41.285 0,0.613 0.008,1.197 0.016,1.785 l 0.004,0.186 h 46.764 l -0.006,-0.352 c -0.012,-0.713 -0.025,-1.424 -0.025,-2.158 0,-3.904 0.048,-25.098 0.142,-29.027 0.095,-4.069 0.312,-7.518 0.658,-10.537 0.357,-4.544 1.316,-8.836 2.848,-12.723 1.538,-3.896 3.748,-7.335 6.569,-10.22 2.821,-2.894 6.361,-5.203 10.516,-6.866 4.15,-1.662 9.077,-2.506 14.646,-2.506 5.568,0 10.496,0.844 14.647,2.506 4.145,1.662 7.686,3.972 10.522,6.864 2.814,2.893 5.02,6.328 6.561,10.221 1.525,3.881 2.484,8.173 2.848,12.76 0.178,3.104 0.355,6.586 0.535,10.478 0.17,3.943 0.256,25.144 0.256,29.05 0,0.643 -0.018,1.27 -0.036,1.895 -0.007,0.205 -0.013,0.408 -0.018,0.615 h 46.806 l 0.002,-0.238 c 0.009,-0.568 0.017,-1.137 0.017,-1.732 -0.002,-8.858 -0.182,-33.588 -0.536,-41.292 z" fill="#ffffff" />
    </g>
  </g>
</svg>
