<?xml version="1.0" encoding="UTF-8" standalone="no"?>
<svg xmlns:dc="http://purl.org/dc/elements/1.1/"
  xmlns:cc="http://creativecommons.org/ns#"
  xmlns:rdf="http://www.w3.org/1999/02/22-rdf-syntax-ns#"
  xmlns:svg="http://www.w3.org/2000/svg"
  xmlns="http://www.w3.org/2000/svg" id="svg1335" xml:space="preserve" enable-background="new 0 0 737.007 841.89" viewBox="0 0 839.99998 839.99999" height="100%" width="100%" y="0px" x="0px" version="1.1">
  <metadata id="metadata1341">
    <rdf:RDF>
      <cc:Work rdf:about="">
        <dc:format>image/svg+xml</dc:format>
        <dc:type rdf:resource="http://purl.org/dc/dcmitype/StillImage" />
        <dc:title></dc:title>
      </cc:Work>
    </rdf:RDF>
  </metadata>
  <defs id="defs1339" />
  <g style="display:inline" id="layer13">
    <g id="texte_posture" transform="translate(51.353659)">
      <g id="g20">
        <path fill="#473467" d="m 286.029,758.525 -8.881,16.752 c -1.386,2.615 -3.227,4.25 -5.521,4.906 -2.294,0.654 -4.772,0.276 -7.435,-1.135 -3.369,-1.786 -5.509,-4.61 -6.419,-8.473 l 5.128,-2.67 c 0.793,2.774 2.037,4.611 3.733,5.51 1.768,0.938 3.188,0.393 4.262,-1.634 l 6.107,-11.521 -8.481,-4.497 2.697,-5.089 z" id="path2" />
        <path fill="#473467" d="m 291.819,772.982 -4.772,-2.066 4.339,-10.021 4.771,2.066 z" id="path4" />
        <path fill="#473467" d="m 312.603,792.948 -11.679,-3.664 -3.49,4.313 -6.984,-2.191 19.908,-23.1 6.983,2.191 2.877,30.249 -7.251,-2.275 z m -0.367,-5.774 -0.716,-11.083 -6.994,8.663 z" id="path6" />
        <path fill="#473467" d="m 333.771,803.027 -6.993,-1.338 5.261,-27.5 6.993,1.337 z" id="path8" />
        <path fill="#473467" d="m 377.276,784.274 -8.437,-0.268 -0.705,22.269 -7.116,-0.225 0.705,-22.27 -8.355,-0.264 0.183,-5.758 23.907,0.758 z" id="path10" />
        <path fill="#473467" d="m 403.424,781.518 -14.712,1.615 0.606,5.526 13.28,-1.457 0.611,5.566 -13.28,1.458 0.615,5.605 15.149,-1.662 0.61,5.566 -22.227,2.439 -3.054,-27.833 21.789,-2.392 z" id="path12" />
        <path fill="#473467" d="m 418.564,771.857 c 4.053,-1.049 7.876,-0.963 11.47,0.255 l -1.201,6.054 c -1.634,-0.458 -3.332,-0.741 -5.096,-0.85 -1.764,-0.109 -3.201,-0.02 -4.311,0.268 -1.988,0.516 -2.812,1.43 -2.471,2.747 0.221,0.853 0.888,1.409 2.003,1.671 1.114,0.264 2.424,0.4 3.928,0.41 1.504,0.01 3.027,0.098 4.571,0.263 1.544,0.165 2.96,0.715 4.249,1.647 1.288,0.935 2.166,2.305 2.634,4.111 0.675,2.608 0.181,4.905 -1.481,6.891 -1.662,1.987 -4.067,3.388 -7.217,4.203 -2.246,0.581 -4.567,0.769 -6.961,0.562 -2.396,-0.206 -4.579,-0.771 -6.554,-1.692 l 1.3,-5.996 c 1.675,0.834 3.541,1.391 5.597,1.671 2.056,0.28 3.807,0.233 5.252,-0.141 1.11,-0.287 1.924,-0.711 2.439,-1.271 0.517,-0.561 0.674,-1.228 0.474,-2.003 -0.193,-0.748 -0.711,-1.283 -1.551,-1.602 -0.841,-0.32 -1.821,-0.465 -2.943,-0.438 -1.122,0.029 -2.355,-0.003 -3.702,-0.096 -1.346,-0.092 -2.612,-0.246 -3.797,-0.463 -1.186,-0.217 -2.272,-0.769 -3.259,-1.656 -0.988,-0.887 -1.675,-2.08 -2.063,-3.578 -0.642,-2.479 -0.166,-4.715 1.424,-6.711 1.591,-1.994 4.013,-3.414 7.266,-4.256 z" id="path14" />
        <path fill="#473467" d="m 455.597,765.08 -7.823,3.168 8.362,20.651 -6.6,2.673 -8.362,-20.652 -7.749,3.139 -2.162,-5.34 22.172,-8.977 z" id="path16" />
        <path fill="#473467" d="m 478.617,752.26 -12.915,7.229 2.715,4.852 11.659,-6.524 2.734,4.887 -11.658,6.524 2.754,4.922 13.299,-7.443 2.735,4.887 -19.513,10.92 -13.674,-24.434 19.129,-10.705 z m -9.485,-9.085 -2.331,6.483 -4.607,2.579 0.419,-7.935 z" id="path18" />
      </g>
    </g>
  </g>
  <g id="layer14">
      <path transform="translate(51.353659)" id="path132-9" d="m 278.457,714.475 c -1.965,-0.43 -3.814,-1.113 -5.502,-2.027 l -7.873,-4.273 c -10.633,-5.762 -15.879,-16.039 -23.141,-30.256 -9.563,-18.74 -21.465,-42.051 -50.662,-57.898 l -5.441,-2.961 -57.044,-22.5 -3.821,-2.486 -0.46,-0.236 c -2.623,-1.664 -9.375,-10.75 -12.848,-18.057 -2.913,-6.225 -3.598,-9.918 -2.148,-20.793 1.167,-8.748 2.911,-15.969 4.601,-22.951 3.511,-14.535 7.143,-29.559 3.955,-52.146 -3.019,-21.42 -14.157,-38.303 -23.985,-53.201 -2.71,-4.105 -5.44,-8.223 -8.016,-12.481 -4.756,-7.861 -7.949,-14.329 -9.15,-22.293 -0.74,-4.871 0.685,-17.507 2.848,-21.569 l 4.724,-8.849 c 2.348,-3.553 17.498,-16.68 24.032,-20.695 9.965,-6.061 29.163,-21.892 38.035,-38.442 l 4.767,-8.975 c 8.248,-15.438 12.143,-47.819 12.842,-54.155 1.59,-14.517 2.072,-18.908 7.836,-29.098 5.02,-9.397 13.337,-18.846 38.158,-19.864 7.512,-0.318 13.982,0.232 20.826,0.813 13.764,1.184 27.922,2.4 47.086,-3.488 25.455,-7.808 34.487,-16.76 45.92,-28.087 3.994,-3.958 8.447,-8.368 14.43,-13.534 10.207,-8.878 16.57,-12.263 20.123,-13.546 5.223,-1.934 5.504,-1.917 7.342,-1.826 l 5,0.215 c 6.18,0.269 10.158,0.441 13.65,1.204 3.057,0.668 6.219,1.942 10.256,4.136 2.609,1.523 12.17,9.8 15.311,12.523 2.506,2.168 4.617,3.991 6.135,5.24 1.48,1.231 3.482,3.063 5.682,5.08 7.627,6.983 15.027,13.757 21.597,17.29 l 7.731,4.219 c 7.299,3.958 14.947,6.772 23.432,8.627 15.764,3.446 31.363,2.767 45.127,2.171 11.273,-0.488 21.926,-0.946 30.503,0.929 3.198,0.699 5.927,1.674 8.353,2.991 17.021,9.232 19.641,23.2 23.139,49.141 l 0.105,0.75 c 0.482,3.543 0.967,7.109 1.518,10.689 2.059,13.587 7.554,33.233 15.195,46.39 9.949,17.145 24.465,29.289 37.271,39.993 14.283,11.937 26.596,22.236 31.451,37.086 3.102,10.294 -0.439,17.531 -11.143,36.885 -1.902,3.438 -3.873,6.997 -5.891,10.79 l -15.65,29.303 c -14.045,26.324 -6.578,52.922 0.014,76.389 4.594,16.365 8.924,31.783 3.779,41.432 -8.619,16.152 -20.396,25.396 -40.637,31.898 -5.422,1.746 -10.635,3.514 -15.947,5.32 l -9.787,3.313 c -15.646,5.174 -22.473,11.428 -29.695,18.041 -2.327,2.143 -4.918,4.521 -8.348,7.254 -11.178,8.914 -18.338,23.295 -24.654,35.977 -1.518,3.045 -2.834,5.695 -4.135,8.129 l -1.889,3.547 c -16.189,30.383 -34.559,30.715 -48.754,27.611 -7.873,-1.721 -16.701,-5.227 -26.252,-10.41 l -1.951,-1.07 -34.584,-9.885 -2.219,-0.135 c -10.516,-0.633 -22.396,-0.648 -38.188,3.404 -2.328,0.596 -4.696,1.152 -7.051,1.691 -8.22,1.906 -17.498,4.049 -26.596,8.467 -6.266,3.04 -25.376,12.295 -39.312,9.249 z" stroke-miterlimit="10" stroke-width="6" stroke="#009eb9" fill="none" style="fill:#ffffff;stroke:none" />
  </g>
  <g style="display:inline" id="layer12">
    <g style="display:inline" id="filet_separation_theme" transform="translate(51.353659)">
      <line id="line23" y2="631.96301" x2="375.33801" y1="594.17999" x1="375.33801" stroke-miterlimit="10" stroke-width="2" stroke="#000000" fill="none" />
    </g>
  </g>
  <g style="display:inline" id="layer11">
    <g style="display:inline" id="picto_theme" transform="translate(51.353659)">
      <g id="g30">
        <path id="path26" d="m 431.425,596.148 c 2.643,2.539 5.906,4.559 9.697,6.002 3.789,1.447 8.236,2.18 13.221,2.18 4.916,0 9.348,-0.732 13.17,-2.18 3.823,-1.443 7.104,-3.463 9.746,-6.002 2.646,-2.541 4.717,-5.551 6.154,-8.945 0.629,-1.488 1.151,-3.064 1.555,-4.697 h -19.365 c -0.51,0.879 -1.025,1.609 -1.57,2.223 -2.111,2.381 -5.37,3.588 -9.689,3.588 -5.246,0 -6.665,-0.176 -9.738,-3.586 -0.556,-0.613 -1.064,-1.322 -1.592,-2.225 h -19.299 c 0.401,1.627 0.926,3.205 1.559,4.697 1.437,3.399 3.507,6.408 6.151,8.945 z" stroke-miterlimit="10" stroke-width="2" stroke="#000000" fill="none" />
        <path id="path28" d="m 485.89,638.785 c -0.203,-3.842 -1.037,-7.518 -2.477,-10.92 -1.438,-3.389 -3.507,-6.379 -6.152,-8.883 -2.642,-2.502 -5.923,-4.521 -9.751,-6.002 -3.826,-1.479 -8.256,-2.229 -13.167,-2.229 -4.979,0 -9.426,0.75 -13.219,2.227 -3.795,1.482 -7.059,3.502 -9.701,6.004 -2.644,2.502 -4.713,5.49 -6.15,8.883 -1.44,3.398 -2.275,7.072 -2.478,10.922 -0.141,3.045 -0.203,12.775 -0.203,15.961 0,0.238 0.003,0.463 0.007,0.691 l 0.002,0.07 h 18.076 l -0.002,-0.137 c -0.004,-0.273 -0.009,-0.549 -0.009,-0.834 0,-1.51 0.018,-9.703 0.054,-11.221 0.037,-1.572 0.121,-2.906 0.256,-4.074 0.138,-1.756 0.508,-3.416 1.1,-4.918 0.596,-1.506 1.449,-2.836 2.541,-3.951 1.09,-1.117 2.459,-2.01 4.063,-2.654 1.604,-0.641 3.51,-0.967 5.663,-0.967 2.152,0 4.057,0.326 5.662,0.967 1.602,0.643 2.971,1.537 4.067,2.654 1.088,1.119 1.94,2.447 2.536,3.951 0.59,1.5 0.961,3.16 1.101,4.934 0.069,1.199 0.138,2.545 0.208,4.049 0.065,1.525 0.098,9.721 0.098,11.23 0,0.25 -0.006,0.492 -0.014,0.734 -0.002,0.078 -0.004,0.156 -0.006,0.236 h 18.093 l 10e-4,-0.092 c 0.004,-0.219 0.007,-0.439 0.007,-0.67 0,-3.422 -0.069,-12.98 -0.206,-15.961 z" stroke-miterlimit="10" stroke-width="2" stroke="#000000" fill="none" />
      </g>
    </g>
  </g>
  <g style="display:inline" id="layer10">
    <g style="display:inline" id="texte_picto_theme" transform="translate(51.353659)">
      <g id="g53">
        <path id="path33" d="m 401.497,558.052 h -3.798 v 10.026 h -3.204 v -10.026 h -3.763 v -2.593 h 10.765 z" />
        <path id="path35" d="m 412.728,557.998 h -6.66 v 2.502 h 6.013 v 2.52 h -6.013 v 2.538 h 6.858 v 2.521 h -10.062 v -12.601 h 9.863 v 2.52 z" />
        <path id="path37" d="m 422.304,561.49 4.518,6.588 h -3.834 l -2.717,-4.015 -2.719,4.015 h -3.727 l 4.5,-6.444 -4.211,-6.156 h 3.726 l 2.431,3.672 2.43,-3.672 h 3.762 z" />
        <path id="path39" d="m 437.838,558.052 h -3.798 v 10.026 h -3.204 v -10.026 h -3.763 v -2.593 h 10.765 z" />
        <path id="path41" d="m 449.07,557.998 h -6.66 v 2.502 h 6.012 v 2.52 h -6.012 v 2.538 h 6.857 v 2.521 h -10.062 v -12.601 h 9.864 v 2.52 z" />
        <path id="path43" d="m 465.144,558.052 h -3.799 v 10.026 h -3.203 v -10.026 h -3.762 v -2.593 h 10.764 z" />
        <path id="path45" d="m 478.14,568.078 h -3.205 v -4.896 h -5.22 v 4.896 h -3.204 v -12.601 h 3.204 v 5.185 h 5.22 v -5.185 h 3.205 z" />
        <path id="path47" d="m 490.523,557.998 h -6.66 v 2.502 h 6.013 v 2.52 h -6.013 v 2.538 h 6.858 v 2.521 H 480.66 v -12.601 h 9.863 z m -3.312,-3.619 h -2.376 l -2.34,-2.033 2.808,-0.99 z" />
        <path id="path49" d="m 506.634,568.078 h -2.826 l -0.019,-8.19 -3.024,6.931 h -2.088 l -3.023,-6.931 v 8.19 h -2.862 v -12.619 h 3.511 l 3.42,7.507 3.42,-7.507 h 3.492 v 12.619 z" />
        <path id="path51" d="m 519.035,557.998 h -6.66 v 2.502 h 6.013 v 2.52 h -6.013 v 2.538 h 6.858 v 2.521 h -10.062 v -12.601 h 9.863 v 2.52 z" />
      </g>
    </g>
  </g>
  <g style="display:inline" id="layer9">
    <g style="display:inline" id="picto_categorie" transform="translate(51.353659)">
      <g id="g64">
        <path id="path56" d="m 282.958,649.188 c 0,0.781 -0.635,1.416 -1.417,1.416 h -14.182 c -0.783,0 -1.418,-0.635 -1.418,-1.416 v -28.381 c 0,-0.783 0.635,-1.418 1.418,-1.418 h 14.182 c 0.782,0 1.417,0.635 1.417,1.418 z" stroke-miterlimit="10" stroke-width="2" stroke="#000000" fill="none" />
        <circle id="circle58" r="3.0280001" cy="644.13098" cx="273.45801" stroke-miterlimit="10" stroke-width="2" stroke="#000000" fill="none" />
        <path id="path60" d="m 283.375,647.055 c 0,0 2.506,3.445 10.126,3.236 7.621,-0.209 15.869,0 15.869,0 0,0 8.247,-0.836 10.021,-9.291 l 4.071,-13.885 c 1.774,-6.682 -6.577,-6.264 -6.264,-6.369 0.313,-0.104 -12.11,0 -12.11,0 0,0 3.551,-13.467 -6.89,-16.807 0,0 -3.759,-1.775 -3.55,3.027 v 4.592 c 0,0 0.105,2.611 -2.191,4.803 -2.297,2.193 -9.396,7.309 -9.396,7.309" stroke-miterlimit="10" stroke-width="2" stroke="#000000" fill="none" />
        <path id="path62" d="m 305.254,611.465 v -3.998 c -13.656,-8.566 -3.999,-18.9 0.935,-18.9 v 8.309 h 9.242 c 0,0 0,-6.18 0,-8.568 5.868,0 15.215,11.061 1.246,18.9 v 13.553" stroke-miterlimit="10" stroke-width="2" stroke="#000000" fill="none" />
      </g>
    </g>
  </g>
  <g style="display:inline" id="layer8">
    <g style="display:inline" id="texte_picto_categorie" transform="translate(51.353659)">
      <g id="g91">
        <path id="path67" d="m 233.82,555.334 c 1.884,0 3.54,0.468 4.968,1.404 l -1.206,2.502 c -0.66,-0.385 -1.368,-0.699 -2.124,-0.945 -0.756,-0.246 -1.393,-0.369 -1.908,-0.369 -0.924,0 -1.386,0.306 -1.386,0.918 0,0.396 0.228,0.714 0.684,0.954 0.456,0.239 1.011,0.446 1.665,0.62 0.654,0.175 1.308,0.385 1.962,0.631 0.654,0.246 1.209,0.645 1.665,1.197 0.456,0.552 0.684,1.248 0.684,2.088 0,1.212 -0.474,2.156 -1.422,2.834 -0.948,0.679 -2.154,1.018 -3.618,1.018 -1.044,0 -2.076,-0.18 -3.096,-0.54 -1.021,-0.36 -1.908,-0.852 -2.664,-1.476 l 1.242,-2.467 c 0.636,0.553 1.386,1.006 2.25,1.359 0.864,0.354 1.632,0.531 2.304,0.531 0.516,0 0.918,-0.093 1.206,-0.279 0.288,-0.186 0.432,-0.459 0.432,-0.818 0,-0.348 -0.166,-0.64 -0.495,-0.873 -0.33,-0.234 -0.741,-0.408 -1.233,-0.522 -0.492,-0.114 -1.026,-0.267 -1.602,-0.459 -0.576,-0.192 -1.11,-0.401 -1.602,-0.63 -0.492,-0.229 -0.903,-0.591 -1.233,-1.089 -0.331,-0.498 -0.495,-1.095 -0.495,-1.791 0,-1.152 0.459,-2.073 1.377,-2.763 0.918,-0.69 2.133,-1.035 3.645,-1.035 z" />
        <path id="path69" d="m 248.886,565.756 h -5.508 l -0.918,2.322 h -3.294 l 5.436,-12.601 h 3.294 l 5.31,12.601 h -3.42 z m -0.936,-2.43 -1.8,-4.662 -1.836,4.662 z" />
        <path id="path71" d="m 260.334,568.078 h -3.312 l -4.896,-12.601 h 3.42 l 3.222,9.271 3.222,-9.271 h 3.294 z" />
        <path id="path73" d="m 272.465,555.369 c 1.956,0 3.582,0.609 4.878,1.828 1.296,1.217 1.944,2.738 1.944,4.563 0,1.836 -0.651,3.372 -1.953,4.607 -1.302,1.236 -2.925,1.854 -4.869,1.854 -1.944,0 -3.564,-0.614 -4.86,-1.845 -1.296,-1.231 -1.944,-2.77 -1.944,-4.617 0,-1.836 0.648,-3.359 1.944,-4.572 1.296,-1.211 2.916,-1.818 4.86,-1.818 z m 0.036,2.683 c -0.984,0 -1.824,0.356 -2.52,1.071 -0.696,0.714 -1.044,1.599 -1.044,2.654 0,1.057 0.351,1.947 1.053,2.674 0.702,0.726 1.539,1.088 2.511,1.088 0.972,0 1.797,-0.362 2.475,-1.088 0.678,-0.727 1.017,-1.617 1.017,-2.674 0,-1.056 -0.339,-1.94 -1.017,-2.654 -0.678,-0.715 -1.502,-1.071 -2.475,-1.071 z" />
        <path id="path75" d="m 284.183,568.078 h -3.204 v -12.601 h 3.204 z" />
        <path id="path77" d="m 294.299,568.078 -1.872,-3.547 h -0.09 -2.43 v 3.547 h -3.204 v -12.601 h 5.634 c 1.668,0 2.958,0.382 3.87,1.144 0.912,0.762 1.368,1.845 1.368,3.248 0,1.944 -0.762,3.295 -2.286,4.051 l 2.646,4.158 z m -4.392,-6.066 h 2.43 c 0.696,0 1.236,-0.174 1.62,-0.521 0.384,-0.349 0.576,-0.853 0.576,-1.513 0,-0.647 -0.192,-1.14 -0.576,-1.476 -0.384,-0.336 -0.924,-0.504 -1.62,-0.504 h -2.43 z" />
        <path id="path79" d="m 304.217,563.541 h -4.752 v -1.961 h 4.752 z" />
        <path id="path81" d="m 315.809,557.998 h -6.138 v 2.916 h 5.652 v 2.52 h -5.652 v 4.645 h -3.204 v -12.601 h 9.342 z" />
        <path id="path83" d="m 325.097,565.756 h -5.508 l -0.918,2.322 h -3.294 l 5.436,-12.601 h 3.294 l 5.31,12.601 h -3.42 z m -0.936,-2.43 -1.8,-4.662 -1.836,4.662 z" />
        <path id="path85" d="m 333.791,568.078 h -3.204 v -12.601 h 3.204 z" />
        <path id="path87" d="m 343.907,568.078 -1.872,-3.547 h -0.09 -2.43 v 3.547 h -3.204 v -12.601 h 5.634 c 1.668,0 2.958,0.382 3.87,1.144 0.912,0.762 1.368,1.845 1.368,3.248 0,1.944 -0.762,3.295 -2.286,4.051 l 2.646,4.158 z m -4.392,-6.066 h 2.43 c 0.696,0 1.236,-0.174 1.62,-0.521 0.384,-0.349 0.576,-0.853 0.576,-1.513 0,-0.647 -0.192,-1.14 -0.576,-1.476 -0.384,-0.336 -0.924,-0.504 -1.62,-0.504 h -2.43 z" />
        <path id="path89" d="m 359.207,557.998 h -6.66 v 2.502 h 6.012 v 2.52 h -6.012 v 2.538 h 6.858 v 2.521 h -10.062 v -12.601 h 9.864 z" />
      </g>
    </g>
  </g>
  <g style="display:inline" id="layer7">
    <g style="display:inline" id="fond_categorie" transform="translate(51.353659)">
      <path id="path94" d="m 119.434,405.333 0.367,0.555 c 10.994,16.667 24.678,37.414 28.636,65.511 3.406,24.145 0.464,41.865 -2.826,56.297 h 458.422 c -6.703,-24.98 -12.772,-56.896 4.824,-89.879 l 15.629,-29.263 c 2.139,-4.019 4.166,-7.683 6.121,-11.216 2.313,-4.179 6.283,-11.361 7.943,-15.228 -3.25,-6.174 -11.66,-13.202 -21.236,-21.205 -13.973,-11.679 -31.363,-26.212 -43.975,-47.945 -10.273,-17.687 -16.611,-41.74 -18.906,-56.902 -0.59,-3.833 -1.098,-7.576 -1.578,-11.106 l -0.123,-0.876 c -1.365,-10.116 -2.648,-18.867 -4.543,-23.511 -0.605,-1.481 -0.801,-1.962 -2.959,-3.155 -0.115,-0.036 -0.33,-0.097 -0.666,-0.17 -2.025,-0.442 -5.209,-0.667 -9.461,-0.667 -4.029,0 -8.551,0.195 -13.369,0.404 -5.547,0.24 -11.834,0.513 -18.402,0.513 -13.016,0 -23.945,-1.064 -34.396,-3.35 -11.279,-2.465 -21.525,-6.247 -31.395,-11.6 l -7.662,-4.182 c -9.832,-5.308 -18.842,-13.557 -27.58,-21.558 -1.404,-1.288 -3.514,-3.225 -4.545,-4.088 -1.738,-1.433 -3.848,-3.253 -6.641,-5.67 -6.875,-5.961 -10.01,-8.505 -11.318,-9.526 -0.611,-0.301 -0.975,-0.451 -1.143,-0.516 -1.299,-0.208 -5.059,-0.371 -8.389,-0.516 l -0.984,-0.042 c -1.16,0.633 -4.564,2.693 -10.506,7.861 l -0.082,0.071 c -5.254,4.537 -9.148,8.397 -12.93,12.147 -12.643,12.524 -25.715,25.476 -58.215,35.444 -12.861,3.951 -25.053,5.792 -38.369,5.792 -7.416,0 -14.154,-0.58 -20.133,-1.094 -5.021,-0.426 -9.359,-0.793 -13.762,-0.793 -1.09,0 -2.133,0.022 -3.232,0.068 -9.148,0.376 -11.795,2.23 -11.811,2.244 -0.014,0.014 -0.35,0.348 -1.113,1.777 l -0.172,0.321 -0.18,0.316 c -2.729,4.824 -2.729,4.824 -4.129,17.618 -1.803,16.323 -6.303,46.473 -16.166,64.938 l -4.82,9.075 c -12.647,23.595 -37.37,42.87 -48.779,49.836 -2.847,1.789 -11.133,8.718 -14.946,12.409 l -1.93,3.615 c -0.311,1.688 -0.594,4.277 -0.624,5.812 0.451,2.136 1.584,4.799 5.022,10.482 2.157,3.57 4.525,7.155 7.032,10.952 z" fill="#009eb9" />
    </g>
  </g>
  <g style="display:inline" id="layer6">
    <g style="display:inline" id="picto_posture" transform="translate(51.353659)">
      <g id="g109">
        <g id="g107">
          <g id="g105">
            <path id="path97" d="m 406.679,74.609 c 0,15.015 -0.006,30.029 0.012,45.044 0.002,1.178 -0.343,2.127 -1.239,2.903 -1.297,1.122 -2.57,2.273 -3.843,3.424 -0.623,0.563 -1.314,0.917 -2.174,0.938 -0.952,0.024 -1.902,0.133 -2.854,0.132 -16.349,-0.003 -32.698,-0.011 -49.048,-0.044 -1.28,-0.003 -2.57,-0.134 -3.838,-0.323 -1.273,-0.189 -1.512,-0.527 -1.563,-1.796 -0.032,-0.809 -0.031,-1.62 -0.03,-2.43 0.015,-26.264 0.027,-52.527 0.056,-78.791 0.003,-2.954 0.112,-5.909 0.142,-8.863 0.014,-1.302 0.365,-2.375 1.43,-3.246 1.029,-0.841 1.955,-1.818 2.87,-2.788 0.665,-0.704 1.441,-1.069 2.389,-1.107 1.048,-0.042 2.095,-0.1 3.144,-0.102 17.207,-0.03 34.414,-0.056 51.621,-0.076 2.75,-0.003 2.801,0.027 2.803,2.796 0.012,14.776 0.006,29.553 0.006,44.329 0.037,0 0.077,0 0.116,0 z m -7.252,50.394 c 0,-30.331 0,-60.421 0,-90.662 -18.586,0 -37.052,0 -55.435,0 0,30.233 0,60.416 0,90.662 18.569,0 36.939,0 55.435,0 z" fill="#473467" />
            <path id="path99" d="m 373.392,64.142 c 1.692,0 3.358,-0.011 5.023,0.003 1.648,0.014 1.99,0.359 1.994,2.035 0.018,8.293 0.031,16.585 0.038,24.878 0.002,1.92 -0.411,2.356 -2.357,2.355 -4.05,-0.002 -8.101,-0.035 -12.151,-0.081 -1.488,-0.017 -1.641,-0.137 -1.855,-1.575 -0.16,-1.08 -0.262,-2.177 -0.277,-3.268 -0.048,-3.192 -0.04,-6.386 -0.054,-9.578 -10e-4,-0.048 -0.016,-0.101 0,-0.143 0.604,-1.652 -0.356,-2.882 -1.085,-4.203 -1.723,-3.128 -3.383,-6.29 -5.099,-9.422 -0.413,-0.752 -0.454,-1.394 0.083,-2.107 0.886,-1.18 1.707,-2.408 2.57,-3.606 0.447,-0.62 1.066,-0.89 1.841,-0.915 2.19,-0.071 4.38,-0.165 6.569,-0.282 1.092,-0.059 1.756,0.401 2.246,1.381 0.766,1.529 1.656,2.996 2.514,4.528 z m -1.256,11.71 c -2.271,-4.021 -4.459,-7.896 -6.59,-11.669 -2.235,0 -4.312,0 -6.582,0 0.516,0.92 0.967,1.685 1.382,2.468 1.517,2.86 3.027,5.723 4.524,8.593 0.302,0.58 0.592,1.04 1.382,0.976 1.887,-0.154 3.779,-0.241 5.884,-0.368 z m 2.27,-10.086 c 0.193,0.996 0.551,1.59 1.57,1.605 0.6,0.01 0.93,0.43 0.98,1.032 0.029,0.332 0.053,0.665 0.056,0.998 0.064,6.142 0.126,12.283 0.187,18.425 0.002,0.238 0.002,0.479 -0.025,0.714 -0.086,0.717 -0.455,1.104 -1.22,1.108 -2.523,0.014 -5.047,0.048 -7.571,0.077 -0.67,0.008 -1.156,-0.237 -1.539,-0.829 -0.399,-0.617 -0.926,-1.152 -1.43,-1.764 0,1.628 0,3.165 0,4.723 4.486,0 8.842,0 13.313,0 0,-8.739 0,-17.376 0,-26.09 -1.44,0.001 -2.808,0.001 -4.321,0.001 z m 0.488,22.273 c -2.009,-3.38 -2.573,-6.935 -2.535,-10.459 -2.358,0 -4.535,0 -6.795,0 -0.528,3.649 0.236,6.904 1.958,9.962 0.146,0.258 0.61,0.469 0.931,0.476 2.039,0.041 4.078,0.021 6.441,0.021 z m -8.081,-25.012 c 2.056,3.582 4.048,7.055 6.12,10.669 0.517,-1.529 0.98,-2.902 1.387,-4.106 -1.746,-3.233 -3.406,-6.31 -5.152,-9.544 -0.85,1.075 -1.627,2.059 -2.355,2.981 z m 8.63,8.492 c -1.803,4.577 -2.122,9.147 0,13.725 0,-4.576 0,-9.15 0,-13.725 z" fill="#473467" />
            <path id="path101" d="m 367.505,46.623 c 0.025,-3.468 2.83,-6.206 6.334,-6.184 3.443,0.022 6.275,2.886 6.246,6.314 -0.03,3.378 -2.754,6.262 -6.057,6.143 -4.421,-0.159 -6.553,-2.971 -6.523,-6.273 z m 3.207,3.302 c 1.594,1.937 4.156,1.647 5.848,0.268 1.712,-1.396 2.132,-3.594 0.959,-5.544 -2.249,1.743 -4.484,3.476 -6.807,5.276 z m 5.729,-6.63 c -2.031,-1.443 -4.377,-1.236 -5.908,0.406 -1.396,1.497 -1.609,3.572 -0.457,5.059" fill="#473467" />
            <path id="path103" d="m 374.089,116.218 c -3.771,0.025 -6.535,-2.515 -6.583,-6.051 -0.048,-3.534 2.768,-6.407 6.278,-6.408 3.423,0 6.292,2.86 6.3,6.282 0.009,3.405 -2.66,6.154 -5.995,6.177 z m 3.474,-8.269 c -2.33,1.814 -4.555,3.548 -6.785,5.286 1.508,1.692 3.597,1.85 5.521,0.496 1.882,-1.325 2.42,-3.539 1.264,-5.782 z m -1.136,-1.283 c -1.847,-1.462 -4.119,-1.342 -5.736,0.225 -1.536,1.487 -1.818,3.694 -0.623,5.22 2.115,-1.813 4.228,-3.621 6.359,-5.445 z" fill="#473467" />
          </g>
        </g>
      </g>
    </g>
  </g>
  <g style="display:inline" id="layer2">
    <g style="display:inline" id="filet_1_categorie" transform="translate(51.353659)">
      <g id="g126">
        <g id="g124">
          <path id="path112" d="m 662.306,364.323 c 0.591,-2.17 1.352,-4.237 2.3,-6.151 l 7.686,-15.543 c 6.258,-12.631 6.916,-26.516 1.854,-39.097 -5.065,-12.576 -15.162,-22.134 -28.431,-26.914 l -16.308,-5.863 c -15.27,-5.501 -28.995,-24.549 -29.372,-40.764 l -0.412,-17.336 c -0.53,-22.509 -15.308,-40.783 -36.771,-45.475 -5.654,-1.236 -11.523,-1.447 -17.449,-0.626 l -17.165,2.38 c -4.114,0.574 -8.621,0.339 -13.391,-0.705 -13.275,-2.901 -25.955,-11.637 -31.555,-21.736 l -8.424,-15.152 c -6.902,-12.428 -18.059,-20.88 -31.411,-23.799 -5.796,-1.266 -11.659,-1.409 -17.381,-0.477" stroke-miterlimit="10" stroke-width="2" stroke="#473467" fill="none" />
          <path id="path114" d="m 81.276,400.806 c -1.457,7.259 -4.456,14.092 -8.88,19.33 l -11.13,13.174 c -9.104,10.779 -13.063,24.107 -11.15,37.529 1.908,13.428 9.424,25.121 21.165,32.932 l 14.34,9.541 c 14.025,9.332 22.474,30.307 18.834,46.754 l -3.727,16.836 c -2.836,12.791 -0.662,25.68 6.121,36.293 6.713,10.508 17.308,17.801 29.832,20.539 1.859,0.406 3.76,0.711 5.65,0.906 l 17.239,1.797 c 1.164,0.123 2.349,0.314 3.518,0.57 15.545,3.396 30.813,17.443 34.761,31.98 l 4.546,16.721 c 4.729,17.43 18.261,30.572 35.314,34.299 9.326,2.039 19.132,1.172 28.357,-2.506 l 12.457,-4.971" stroke-miterlimit="10" stroke-width="2" stroke="#473467" fill="none" />
          <path id="path116" d="m 321.672,114.445 c -3.726,-1.891 -7.628,-3.288 -11.657,-4.168 -21.182,-4.628 -42.137,5.603 -52.142,25.463 l -7.794,15.488 c -7.293,14.494 -27.861,25.815 -44.002,24.243 l -17.254,-1.678 c -14.034,-1.377 -27.248,2.936 -37.214,12.133 -9.969,9.198 -15.327,22.029 -15.085,36.127 l 0.29,17.33 c 0.28,16.219 -12.662,35.809 -27.695,41.922 l -16.05,6.523 c -13.071,5.312 -22.775,15.272 -27.325,28.049 -4.546,12.777 -3.327,26.625 3.437,38.994 l 8.273,15.135 c 0.356,0.652 0.686,1.324 1.002,2.005" stroke-miterlimit="10" stroke-width="2" stroke="#473467" fill="none" />
          <path id="path118" d="M 663.83,398.717" stroke-miterlimit="10" stroke-width="2" stroke="#473467" fill="none" />
          <path id="path120" d="m 480.132,709.377 10.142,3.574 c 2.004,0.707 4.059,1.291 6.106,1.738 25.635,5.604 50.329,-10.244 56.236,-36.076 l 3.861,-16.904 c 3.609,-15.809 20.862,-31.73 36.918,-34.074 l 17.155,-2.494 c 13.954,-2.033 25.757,-9.381 33.234,-20.689 7.474,-11.314 9.604,-25.053 5.999,-38.682 l -4.412,-16.678 c -4.307,-16.281 3.278,-37.574 16.908,-47.467 l 13.961,-10.131 c 11.413,-8.281 18.447,-20.27 19.806,-33.756 1.364,-13.496 -3.132,-26.652 -12.661,-37.045 l -11.718,-12.782 c -2.436,-2.656 -4.489,-5.871 -6.138,-9.423" stroke-miterlimit="10" stroke-width="2" stroke="#473467" fill="none" />
          <path id="path122" d="m 304.609,709.18 c 1.082,0.168 2.166,0.367 3.249,0.605 9.466,2.068 17.967,6.563 23.324,12.328 l 11.795,12.701 c 6.911,7.43 15.595,12.455 25.112,14.537 3.348,0.73 6.698,1.09 10.014,1.09 13.595,-0.002 26.575,-6.027 36.03,-17.07 l 11.273,-13.166 c 4.573,-5.342 11.388,-9.539 18.929,-12.123" stroke-miterlimit="10" stroke-width="2" stroke="#473467" fill="none" />
        </g>
      </g>
    </g>
  </g>
  <g style="display:inline" id="layer4">
    <g style="display:inline" id="filet_2_categorie" transform="translate(51.353659)">
      <path id="path129" d="m 278.851,712.613 c -1.966,-0.43 -3.815,-1.113 -5.504,-2.027 l -7.873,-4.273 c -10.632,-5.762 -15.877,-16.039 -23.14,-30.256 -9.563,-18.74 -21.466,-42.051 -50.663,-57.898 l -5.439,-2.961 -57.046,-22.5 -3.821,-2.486 -0.46,-0.236 c -2.624,-1.664 -9.375,-10.75 -12.847,-18.057 -2.913,-6.225 -3.598,-9.918 -2.149,-20.793 1.167,-8.746 2.911,-15.967 4.601,-22.951 3.51,-14.535 7.143,-29.559 3.955,-52.145 -3.019,-21.422 -14.157,-38.303 -23.984,-53.201 -2.711,-4.106 -5.441,-8.225 -8.017,-12.483 -4.755,-7.861 -7.949,-14.328 -9.149,-22.292 -0.741,-4.872 0.684,-17.507 2.848,-21.569 l 4.725,-8.85 c 2.348,-3.553 17.498,-16.679 24.032,-20.695 9.964,-6.061 29.163,-21.891 38.035,-38.441 l 4.766,-8.975 c 8.247,-15.439 12.143,-47.82 12.842,-54.156 1.59,-14.516 2.072,-18.908 7.837,-29.097 5.019,-9.397 13.337,-18.846 38.156,-19.864 7.513,-0.318 13.983,0.232 20.827,0.812 13.764,1.185 27.922,2.401 47.087,-3.487 25.455,-7.809 34.487,-16.76 45.92,-28.087 3.993,-3.958 8.447,-8.368 14.43,-13.534 10.205,-8.877 16.571,-12.264 20.122,-13.547 5.223,-1.933 5.504,-1.917 7.343,-1.824 l 5,0.213 c 6.181,0.27 10.159,0.441 13.649,1.205 3.057,0.668 6.221,1.942 10.257,4.135 2.608,1.523 12.169,9.801 15.31,12.523 2.506,2.168 4.617,3.992 6.135,5.24 1.48,1.232 3.484,3.063 5.682,5.081 7.628,6.983 15.029,13.757 21.598,17.29 l 7.732,4.219 c 7.297,3.957 14.947,6.772 23.431,8.627 15.765,3.445 31.362,2.767 45.126,2.17 11.274,-0.487 21.926,-0.945 30.504,0.929 3.198,0.7 5.927,1.675 8.354,2.992 17.02,9.232 19.639,23.2 23.139,49.14 l 0.104,0.75 c 0.482,3.544 0.968,7.109 1.517,10.689 2.059,13.588 7.555,33.234 15.195,46.391 9.949,17.144 24.465,29.289 37.272,39.992 14.283,11.937 26.596,22.237 31.452,37.086 3.1,10.295 -0.44,17.531 -11.144,36.885 -1.903,3.439 -3.874,6.998 -5.892,10.79 l -15.65,29.305 c -14.044,26.324 -6.576,52.92 0.015,76.387 4.593,16.367 8.924,31.783 3.778,41.434 -8.619,16.15 -20.396,25.395 -40.637,31.896 -5.42,1.746 -10.635,3.514 -15.947,5.32 l -9.787,3.313 c -15.646,5.174 -22.473,11.428 -29.695,18.041 -2.326,2.143 -4.917,4.521 -8.347,7.254 -11.179,8.914 -18.339,23.297 -24.653,35.977 -1.518,3.045 -2.836,5.695 -4.136,8.129 l -1.888,3.547 c -16.189,30.383 -34.56,30.715 -48.756,27.611 -7.873,-1.721 -16.701,-5.225 -26.251,-10.41 l -1.95,-1.07 -34.586,-9.883 -2.219,-0.137 c -10.516,-0.633 -22.396,-0.648 -38.187,3.404 -2.329,0.596 -4.696,1.154 -7.052,1.691 -8.219,1.906 -17.497,4.051 -26.596,8.467 -6.266,3.041 -25.375,12.297 -39.311,9.25 z" stroke-miterlimit="10" stroke-width="27" stroke="#009eb9" fill="none" opacity="0.2" />
    </g>
  </g>
  <g style="display:inline" id="layer3">
    <g style="display:inline" id="filet_3_posture" transform="translate(51.353659)">
      <path id="path132" d="m 278.457,714.475 c -1.965,-0.43 -3.814,-1.113 -5.502,-2.027 l -7.873,-4.273 c -10.633,-5.762 -15.879,-16.039 -23.141,-30.256 -9.563,-18.74 -21.465,-42.051 -50.662,-57.898 l -5.441,-2.961 -57.044,-22.5 -3.821,-2.486 -0.46,-0.236 c -2.623,-1.664 -9.375,-10.75 -12.848,-18.057 -2.913,-6.225 -3.598,-9.918 -2.148,-20.793 1.167,-8.748 2.911,-15.969 4.601,-22.951 3.511,-14.535 7.143,-29.559 3.955,-52.146 -3.019,-21.42 -14.157,-38.303 -23.985,-53.201 -2.71,-4.105 -5.44,-8.223 -8.016,-12.481 -4.756,-7.861 -7.949,-14.329 -9.15,-22.293 -0.74,-4.871 0.685,-17.507 2.848,-21.569 l 4.724,-8.849 c 2.348,-3.553 17.498,-16.68 24.032,-20.695 9.965,-6.061 29.163,-21.892 38.035,-38.442 l 4.767,-8.975 c 8.248,-15.438 12.143,-47.819 12.842,-54.155 1.59,-14.517 2.072,-18.908 7.836,-29.098 5.02,-9.397 13.337,-18.846 38.158,-19.864 7.512,-0.318 13.982,0.232 20.826,0.813 13.764,1.184 27.922,2.4 47.086,-3.488 25.455,-7.808 34.487,-16.76 45.92,-28.087 3.994,-3.958 8.447,-8.368 14.43,-13.534 10.207,-8.878 16.57,-12.263 20.123,-13.546 5.223,-1.934 5.504,-1.917 7.342,-1.826 l 5,0.215 c 6.18,0.269 10.158,0.441 13.65,1.204 3.057,0.668 6.219,1.942 10.256,4.136 2.609,1.523 12.17,9.8 15.311,12.523 2.506,2.168 4.617,3.991 6.135,5.24 1.48,1.231 3.482,3.063 5.682,5.08 7.627,6.983 15.027,13.757 21.597,17.29 l 7.731,4.219 c 7.299,3.958 14.947,6.772 23.432,8.627 15.764,3.446 31.363,2.767 45.127,2.171 11.273,-0.488 21.926,-0.946 30.503,0.929 3.198,0.699 5.927,1.674 8.353,2.991 17.021,9.232 19.641,23.2 23.139,49.141 l 0.105,0.75 c 0.482,3.543 0.967,7.109 1.518,10.689 2.059,13.587 7.554,33.233 15.195,46.39 9.949,17.145 24.465,29.289 37.271,39.993 14.283,11.937 26.596,22.236 31.451,37.086 3.102,10.294 -0.439,17.531 -11.143,36.885 -1.902,3.438 -3.873,6.997 -5.891,10.79 l -15.65,29.303 c -14.045,26.324 -6.578,52.922 0.014,76.389 4.594,16.365 8.924,31.783 3.779,41.432 -8.619,16.152 -20.396,25.396 -40.637,31.898 -5.422,1.746 -10.635,3.514 -15.947,5.32 l -9.787,3.313 c -15.646,5.174 -22.473,11.428 -29.695,18.041 -2.327,2.143 -4.918,4.521 -8.348,7.254 -11.178,8.914 -18.338,23.295 -24.654,35.977 -1.518,3.045 -2.834,5.695 -4.135,8.129 l -1.889,3.547 c -16.189,30.383 -34.559,30.715 -48.754,27.611 -7.873,-1.721 -16.701,-5.227 -26.252,-10.41 l -1.951,-1.07 -34.584,-9.885 -2.219,-0.135 c -10.516,-0.633 -22.396,-0.648 -38.188,3.404 -2.328,0.596 -4.696,1.152 -7.051,1.691 -8.22,1.906 -17.498,4.049 -26.596,8.467 -6.266,3.04 -25.376,12.295 -39.312,9.249 z" stroke-miterlimit="10" stroke-width="6" stroke="#009eb9" fill="none" />
    </g>
  </g>
  <g style="display:inline" id="layer5">
    <g style="display:inline" id="texte_titre_badge" transform="translate(51.353659)">
      <g id="g172">
        <path id="path142" d="m 205.094,500.46 2.844,0.36 v 4.571 h -11.879 v -4.571 l 2.844,-0.36 v -14.722 h -3.636 l -0.54,3.563 h -4.607 l 0.181,-8.676 h 23.396 l 0.181,8.676 h -4.607 l -0.54,-3.563 h -3.636 v 14.722 z" fill="#ffffff" />
        <path id="path144" d="m 215.572,505.392 v -4.571 l 2.844,-0.36 v -14.865 l -2.844,-0.396 v -4.572 h 11.879 v 4.572 l -2.844,0.396 v 14.865 l 2.844,0.36 v 4.571 z" fill="#ffffff" />
        <path id="path146" d="m 244.082,500.46 2.844,0.36 v 4.571 h -11.878 v -4.571 l 2.844,-0.36 v -14.722 h -3.636 l -0.54,3.563 h -4.607 l 0.18,-8.676 h 23.397 l 0.18,8.676 h -4.607 l -0.54,-3.563 h -3.636 v 14.722 z" fill="#ffffff" />
        <path id="path148" d="m 271.297,505.392 -4.535,-8.675 h -3.168 v 3.743 l 3.636,0.36 v 4.571 h -12.67 v -4.571 l 2.844,-0.36 v -14.865 l -2.844,-0.396 v -4.572 h 13.462 c 5.039,0 8.495,2.844 8.495,7.632 0,4.067 -1.691,5.687 -4.067,6.983 v 0.18 c 0,0 0.396,0.288 0.684,0.792 l 2.483,4.247 3.168,0.36 v 4.571 z m -4.823,-13.498 c 2.628,0 3.779,-1.044 3.779,-3.275 0,-1.944 -1.403,-2.88 -3.779,-2.88 h -2.88 v 6.155 z" fill="#ffffff" />
        <path id="path150" d="m 280.228,505.392 v -4.571 l 2.808,-0.36 v -14.902 l -2.808,-0.359 v -4.572 h 20.409 l 0.144,8.676 h -4.607 l -0.54,-3.563 h -6.406 v 4.787 h 5.363 v 4.932 h -5.363 v 4.823 h 6.335 l 0.54,-3.563 h 4.607 l -0.252,8.675 h -20.23 z" fill="#ffffff" />
        <path id="path152" d="m 310.359,505.392 v -4.571 l 2.844,-0.36 v -14.902 l -2.844,-0.359 v -4.572 h 12.131 c 6.119,0 12.13,3.24 12.13,12.203 0,9.826 -5.938,12.563 -11.554,12.563 h -12.707 z m 11.23,-5.112 c 4.212,0 6.768,-1.619 6.768,-7.451 0,-4.967 -2.664,-7.091 -7.235,-7.091 h -1.728 v 14.542 z" fill="#ffffff" />
        <path id="path154" d="m 353.845,485.595 -2.844,-0.396 v -4.572 h 11.519 v 4.572 l -2.844,0.396 v 10.689 c 0,6.264 -3.743,9.359 -10.366,9.359 -6.623,0 -10.511,-3.096 -10.511,-9.359 v -10.689 l -2.844,-0.396 v -4.572 h 11.879 v 4.572 l -2.844,0.396 v 10.294 c 0,1.944 0.792,4.571 4.319,4.571 2.879,0 4.535,-2.051 4.535,-4.391 v -10.474 z" fill="#ffffff" />
        <path id="path156" d="m 371.235,505.392 v -4.571 l 2.844,-0.36 v -14.902 l -2.844,-0.359 v -4.572 h 10.295 c 7.091,0 10.654,1.729 10.654,6.66 0,4.211 -2.664,5.003 -3.635,5.291 v 0.288 c 1.764,0.216 5.398,1.188 5.398,5.759 0,4.248 -2.483,6.768 -10.043,6.768 h -12.669 z m 12.058,-14.723 c 1.656,0 2.627,-0.971 2.627,-2.447 0,-1.764 -1.403,-2.483 -2.987,-2.483 h -2.663 v 4.931 h 3.023 z m -3.023,4.644 v 4.967 h 3.924 c 2.52,0 3.49,-0.684 3.49,-2.447 0,-1.584 -1.223,-2.52 -2.986,-2.52 z" fill="#ffffff" />
        <path id="path158" d="m 418.932,500.46 2.52,0.36 v 4.571 h -11.158 v -4.571 l 2.699,-0.36 -0.9,-2.375 h -8.387 l -0.9,2.375 2.7,0.36 v 4.571 h -10.979 v -4.571 l 2.52,-0.36 5.651,-14.902 -3.168,-0.18 v -4.752 h 11.879 z m -10.15,-11.194 c -0.252,-0.647 -0.793,-2.196 -0.793,-2.196 h -0.18 c 0,0 -0.54,1.549 -0.792,2.196 l -1.548,4.104 h 4.859 z" fill="#ffffff" />
        <path id="path160" d="m 422.786,505.392 v -4.571 l 2.844,-0.36 v -14.902 l -2.844,-0.359 v -4.572 h 12.131 c 6.119,0 12.131,3.24 12.131,12.203 0,9.826 -5.939,12.563 -11.555,12.563 h -12.707 z m 11.23,-5.112 c 4.212,0 6.768,-1.619 6.768,-7.451 0,-4.967 -2.664,-7.091 -7.234,-7.091 h -1.729 v 14.542 z" fill="#ffffff" />
        <path id="path162" d="m 470.627,496.717 c 0,3.708 -2.052,8.927 -10.402,8.927 -6.804,0 -11.051,-3.924 -11.051,-12.67 0,-8.676 4.283,-12.563 11.051,-12.563 8.351,0 10.402,4.355 10.402,7.486 0,1.116 -0.252,1.872 -0.252,1.872 l -5.867,0.54 c 0,0 0.145,-0.54 0.145,-1.296 0,-1.476 -0.937,-3.456 -4.104,-3.456 -2.844,0 -5.111,1.801 -5.111,7.523 0,5.651 2.482,7.379 5.326,7.379 2.736,0 3.744,-1.188 3.852,-3.203 l -3.491,-0.36 v -4.212 h 9.503 v 4.033 z" fill="#ffffff" />
        <path id="path164" d="m 473.114,505.392 v -4.571 l 2.808,-0.36 v -14.902 l -2.808,-0.359 v -4.572 h 20.409 l 0.144,8.676 h -4.607 l -0.539,-3.563 h -6.407 v 4.787 h 5.363 v 4.932 h -5.363 v 4.823 h 6.335 l 0.54,-3.563 h 4.607 l -0.252,8.675 h -20.23 z" fill="#ffffff" />
        <path id="path166" d="m 503.245,505.392 v -4.571 l 2.844,-0.36 v -14.865 l -2.844,-0.396 v -4.572 h 11.879 v 4.572 l -2.844,0.396 v 14.865 l 2.844,0.36 v 4.571 z" fill="#ffffff" />
        <path id="path168" d="m 532.727,496.645 v -0.684 l 5.976,1.224 v 0.611 c 0,3.276 -2.088,7.848 -10.583,7.848 -6.695,0 -10.87,-3.924 -10.87,-12.67 0,-8.676 4.283,-12.563 11.05,-12.563 8.352,0 10.403,4.787 10.403,8.207 0,1.115 -0.252,1.871 -0.252,1.871 l -5.867,0.721 c 0,0 0.144,-0.612 0.144,-1.477 0,-1.764 -0.936,-4.176 -4.104,-4.176 -2.844,0 -5.111,1.801 -5.111,7.523 0,5.651 2.412,7.379 5.147,7.379 3.095,10e-4 4.067,-1.438 4.067,-3.814 z" fill="#ffffff" />
        <path id="path170" d="m 541.008,505.392 v -4.571 l 2.844,-0.36 v -14.865 l -2.844,-0.396 v -4.572 h 11.879 v 4.572 l -2.844,0.396 v 14.865 l 2.844,0.36 v 4.571 z" fill="#ffffff" />
      </g>
    </g>
  </g>
  <g style="display:inline" id="layer1">
    <g style="display:inline" id="picto_titre_badge" transform="translate(51.353659)">
      <g id="g139">
        <path id="path135" d="m 314.14,308.143 c 6.839,6.564 15.278,11.789 25.084,15.523 9.803,3.74 21.309,5.637 34.201,5.637 12.717,0 24.181,-1.896 34.066,-5.637 9.893,-3.734 18.375,-8.957 25.211,-15.523 6.844,-6.576 12.201,-14.363 15.922,-23.143 1.627,-3.848 2.979,-7.93 4.021,-12.15 H 402.55 c -1.319,2.273 -2.651,4.158 -4.063,5.75 -5.457,6.156 -13.889,9.281 -25.063,9.281 -13.572,0 -17.24,-0.455 -25.189,-9.275 -1.439,-1.588 -2.756,-3.426 -4.119,-5.756 h -49.922 c 1.038,4.203 2.393,8.287 4.034,12.148 3.721,8.792 9.074,16.577 15.912,23.145 z" fill="#ffffff" />
        <path id="path137" d="m 455.029,418.434 c -0.522,-9.941 -2.678,-19.449 -6.405,-28.25 -3.718,-8.766 -9.071,-16.498 -15.915,-22.979 -6.834,-6.471 -15.322,-11.697 -25.223,-15.527 -9.898,-3.822 -21.357,-5.76 -34.063,-5.76 -12.875,0 -24.381,1.938 -34.193,5.758 -9.814,3.834 -18.258,9.061 -25.095,15.529 -6.838,6.471 -12.188,14.203 -15.906,22.979 -3.729,8.787 -5.888,18.293 -6.411,28.256 -0.363,7.871 -0.525,33.044 -0.525,41.285 0,0.611 0.008,1.197 0.018,1.785 l 0.003,0.184 h 46.763 l -0.006,-0.35 c -0.01,-0.715 -0.023,-1.426 -0.023,-2.158 0,-3.904 0.047,-25.1 0.141,-29.027 0.095,-4.07 0.311,-7.518 0.658,-10.537 0.357,-4.543 1.316,-8.836 2.848,-12.723 1.538,-3.896 3.748,-7.334 6.568,-10.221 2.822,-2.893 6.363,-5.203 10.516,-6.865 4.151,-1.662 9.078,-2.506 14.646,-2.506 5.568,0 10.497,0.844 14.648,2.506 4.145,1.662 7.686,3.971 10.522,6.863 2.813,2.893 5.02,6.328 6.56,10.221 1.527,3.881 2.484,8.174 2.848,12.76 0.179,3.105 0.355,6.585 0.536,10.478 0.171,3.943 0.255,25.145 0.255,29.051 0,0.643 -0.018,1.268 -0.035,1.893 -0.007,0.207 -0.012,0.41 -0.018,0.615 h 46.805 l 0.002,-0.236 c 0.01,-0.568 0.018,-1.137 0.018,-1.732 -0.002,-8.859 -0.182,-33.587 -0.537,-41.292 z" fill="#ffffff" />
      </g>
    </g>
  </g>
</svg>
