<?xml version="1.0" encoding="UTF-8" standalone="no"?>
<svg xmlns:dc="http://purl.org/dc/elements/1.1/"
  xmlns:cc="http://creativecommons.org/ns#"
  xmlns:rdf="http://www.w3.org/1999/02/22-rdf-syntax-ns#"
  xmlns:svg="http://www.w3.org/2000/svg"
  xmlns="http://www.w3.org/2000/svg"
  xmlns:xlink="http://www.w3.org/1999/xlink" version="1.1" x="0px" y="0px" width="100%" height="100%" viewBox="0 0 839.99998 839.99999" enable-background="new 0 0 737.007 841.89" xml:space="preserve" id="svg1335">
  <metadata id="metadata1341">
    <rdf:RDF>
      <cc:Work rdf:about="">
        <dc:format>image/svg+xml</dc:format>
        <dc:type rdf:resource="http://purl.org/dc/dcmitype/StillImage" />
        <dc:title></dc:title>
      </cc:Work>
    </rdf:RDF>
  </metadata>
  <defs id="defs1339">
    <clipPath id="SVGID_2_">
      <use id="use124" overflow="visible" xlink:href="#SVGID_1_" x="0" y="0" width="100%" height="100%" />
    </clipPath>
    <clipPath id="SVGID_4_">
      <use id="use134" overflow="visible" xlink:href="#SVGID_3_" x="0" y="0" width="100%" height="100%" />
    </clipPath>
    <path d="m 349.887,48.881 c 1.172,3.439 3.039,6.252 4.836,8.439 l -19.805,17.313 c -3.166,-1.834 -6.135,-4.257 -8.674,-7.969 l -13.156,3.746 c 0,0 -1.5,20.818 0.125,20.818 1.625,0 20.75,-1.5 22,-1.5 1.25,0 37.625,-22.125 37.625,-22.125 l 13.875,-38 c 0,0 -0.625,-12.086 -1,-12.293 -0.375,-0.207 -36.375,17.006 -36.375,17.006 z" id="SVGID_1_" />
    <path d="m 398.698,80.313 c 1.949,-1.783 5.014,-5.445 6.551,-8.465 l 18.715,21.805 0.959,1.02 c -2.836,3.094 -6.363,5.285 -9.527,6.563 l 4.693,17.244 13.125,9.75 0.375,-10.625 c 0,0 -5.125,-47.875 -5.375,-48.25 -0.25,-0.375 -24.334,-23.75 -24.334,-23.75 0,0 -13.166,1.125 -13.166,1.5 0,0.375 -9.506,10 -9.506,10 l 5.662,19.625 z" id="SVGID_3_" />
    <clipPath id="SVGID_2_-2">
      <use height="100%" width="100%" y="0" x="0" xlink:href="#SVGID_1_" overflow="visible" id="use124-6" />
    </clipPath>
    <clipPath id="SVGID_4_-0">
      <use height="100%" width="100%" y="0" x="0" xlink:href="#SVGID_3_" overflow="visible" id="use134-3" />
    </clipPath>
    <path id="path339" d="m 349.887,48.881 c 1.172,3.439 3.039,6.252 4.836,8.439 l -19.805,17.313 c -3.166,-1.834 -6.135,-4.257 -8.674,-7.969 l -13.156,3.746 c 0,0 -1.5,20.818 0.125,20.818 1.625,0 20.75,-1.5 22,-1.5 1.25,0 37.625,-22.125 37.625,-22.125 l 13.875,-38 c 0,0 -0.625,-12.086 -1,-12.293 -0.375,-0.207 -36.375,17.006 -36.375,17.006 z" />
    <path id="path346" d="m 398.698,80.313 c 1.949,-1.783 5.014,-5.445 6.551,-8.465 l 18.715,21.805 0.959,1.02 c -2.836,3.094 -6.363,5.285 -9.527,6.563 l 4.693,17.244 13.125,9.75 0.375,-10.625 c 0,0 -5.125,-47.875 -5.375,-48.25 -0.25,-0.375 -24.334,-23.75 -24.334,-23.75 0,0 -13.166,1.125 -13.166,1.5 0,0.375 -9.506,10 -9.506,10 l 5.662,19.625 z" />
    <clipPath id="SVGID_2_-2-9">
      <use id="use124-6-4" overflow="visible" xlink:href="#SVGID_1_" x="0" y="0" width="100%" height="100%" />
    </clipPath>
    <clipPath id="SVGID_4_-0-7">
      <use id="use134-3-0" overflow="visible" xlink:href="#SVGID_3_" x="0" y="0" width="100%" height="100%" />
    </clipPath>
    <path d="m 349.887,48.881 c 1.172,3.439 3.039,6.252 4.836,8.439 l -19.805,17.313 c -3.166,-1.834 -6.135,-4.257 -8.674,-7.969 l -13.156,3.746 c 0,0 -1.5,20.818 0.125,20.818 1.625,0 20.75,-1.5 22,-1.5 1.25,0 37.625,-22.125 37.625,-22.125 l 13.875,-38 c 0,0 -0.625,-12.086 -1,-12.293 -0.375,-0.207 -36.375,17.006 -36.375,17.006 z" id="path706" />
    <path d="m 398.698,80.313 c 1.949,-1.783 5.014,-5.445 6.551,-8.465 l 18.715,21.805 0.959,1.02 c -2.836,3.094 -6.363,5.285 -9.527,6.563 l 4.693,17.244 13.125,9.75 0.375,-10.625 c 0,0 -5.125,-47.875 -5.375,-48.25 -0.25,-0.375 -24.334,-23.75 -24.334,-23.75 0,0 -13.166,1.125 -13.166,1.5 0,0.375 -9.506,10 -9.506,10 l 5.662,19.625 z" id="path713" />
  </defs>
  <g id="layer13" style="display:inline">
    <g id="texte_posture" style="display:inline" transform="translate(50.003657)">
      <g id="g24">
        <path fill="#473467" d="m 244.832,748.636 -10.225,15.967 c -1.596,2.493 -3.564,3.972 -5.905,4.437 -2.341,0.465 -4.779,-0.116 -7.316,-1.741 -3.211,-2.057 -5.112,-5.047 -5.702,-8.972 l 5.329,-2.239 c 0.563,2.83 1.652,4.763 3.269,5.799 1.684,1.078 3.145,0.652 4.381,-1.279 l 7.033,-10.981 -8.084,-5.177 3.106,-4.851 z" id="path2" />
        <path fill="#473467" d="m 266.973,766.834 -13.158,-6.775 -2.545,4.942 11.878,6.117 -2.564,4.979 -11.877,-6.116 -2.582,5.014 13.549,6.978 -2.563,4.979 -19.879,-10.236 12.819,-24.894 19.488,10.035 z" id="path4" />
        <path fill="#473467" d="m 284.954,768.361 11.564,3.888 c 3.387,1.139 5.746,2.825 7.077,5.059 1.331,2.234 1.499,4.83 0.505,7.787 -1.045,3.109 -2.792,5.209 -5.241,6.299 -2.449,1.09 -5.366,1.065 -8.753,-0.073 l -4.815,-1.619 -2.511,7.469 -6.749,-2.269 z m 4.964,7.577 -2.843,8.454 4.474,1.505 c 1.491,0.501 2.764,0.521 3.82,0.061 1.055,-0.461 1.816,-1.387 2.284,-2.777 0.459,-1.365 0.403,-2.537 -0.168,-3.517 -0.571,-0.979 -1.602,-1.721 -3.093,-2.222 z" id="path6" />
        <path fill="#473467" d="m 331.862,787.026 -14.469,-3.112 -1.169,5.436 13.061,2.81 -1.178,5.475 -13.061,-2.81 -1.186,5.514 14.899,3.205 -1.178,5.476 -21.86,-4.703 5.889,-27.374 21.43,4.61 z" id="path8" />
        <path fill="#473467" d="m 363.806,784.806 -1.493,16.172 c -0.341,3.69 -1.753,6.513 -4.237,8.466 -2.484,1.953 -5.677,2.75 -9.58,2.389 -3.93,-0.362 -6.957,-1.733 -9.08,-4.112 -2.124,-2.378 -3.015,-5.413 -2.674,-9.104 l 1.494,-16.171 7.09,0.654 -1.494,16.172 c -0.172,1.858 0.229,3.389 1.203,4.59 0.974,1.201 2.323,1.882 4.049,2.041 1.699,0.157 3.11,-0.262 4.233,-1.256 1.123,-0.994 1.771,-2.434 1.945,-4.319 l 1.494,-16.171 z" id="path10" />
        <path fill="#473467" d="m 386.285,797.744 10.52,14.3 -8.516,0.282 -6.332,-8.715 -5.741,9.115 -8.275,0.274 9.521,-14.644 -9.809,-13.362 8.276,-0.274 5.667,7.977 5.126,-8.335 8.355,-0.276 z" id="path12" />
        <path fill="#473467" d="m 431.841,783.433 -13.381,2.649 1.259,6.356 12.321,-2.439 1.088,5.493 -12.321,2.44 2.005,10.123 -6.984,1.383 -5.439,-27.467 20.365,-4.032 z" id="path14" />
        <path fill="#473467" d="m 458.151,793.43 -11.666,3.704 -0.382,5.535 -6.977,2.216 3.038,-30.343 6.978,-2.216 19.721,23.115 -7.244,2.301 z m -3.616,-4.518 -6.948,-8.663 -0.753,11.108 z" id="path16" />
        <path fill="#473467" d="m 481.06,789.992 -6.559,2.77 -10.894,-25.793 6.56,-2.771 z" id="path18" />
        <path fill="#473467" d="m 504.341,778.544 -7.355,-5.03 -0.177,0.093 -4.776,2.519 3.674,6.971 -6.298,3.32 -13.058,-24.77 11.076,-5.838 c 3.277,-1.729 6.209,-2.316 8.791,-1.764 2.582,0.554 4.602,2.209 6.057,4.969 2.015,3.822 1.915,7.266 -0.297,10.331 l 9.51,5.432 z m -14.92,-7.373 4.776,-2.518 c 1.368,-0.722 2.249,-1.623 2.644,-2.705 0.395,-1.082 0.25,-2.271 -0.435,-3.569 -0.671,-1.274 -1.56,-2.042 -2.661,-2.305 -1.104,-0.262 -2.34,-0.033 -3.707,0.688 l -4.777,2.518 z" id="path20" />
        <path fill="#473467" d="m 523.832,739.787 -12.277,8.266 3.105,4.612 11.082,-7.461 3.127,4.646 -11.082,7.46 3.149,4.679 12.643,-8.511 3.127,4.646 -18.548,12.487 -15.637,-23.228 18.184,-12.241 z" id="path22" />
      </g>
    </g>
  </g>
  <g id="layer15">
      <path transform="translate(50.003657)" id="path168-0" d="m 277.2,712.482 c -1.965,-0.43 -3.814,-1.113 -5.502,-2.027 l -7.873,-4.271 c -10.633,-5.762 -15.877,-16.041 -23.141,-30.258 -9.563,-18.74 -21.465,-42.051 -50.662,-57.896 l -5.439,-2.961 -57.046,-22.502 -3.821,-2.486 -0.46,-0.236 c -2.623,-1.664 -9.375,-10.75 -12.848,-18.059 -2.913,-6.225 -3.597,-9.916 -2.148,-20.791 1.167,-8.748 2.911,-15.969 4.601,-22.951 3.511,-14.535 7.143,-29.559 3.955,-52.146 -3.019,-21.42 -14.157,-38.303 -23.984,-53.201 -2.711,-4.105 -5.441,-8.222 -8.017,-12.48 -4.755,-7.863 -7.949,-14.33 -9.149,-22.293 -0.741,-4.871 0.684,-17.508 2.848,-21.57 l 4.724,-8.849 c 2.349,-3.552 17.499,-16.679 24.032,-20.696 9.965,-6.059 29.163,-21.891 38.035,-38.441 l 4.766,-8.975 c 8.248,-15.439 12.143,-47.82 12.842,-54.156 1.59,-14.516 2.072,-18.906 7.836,-29.096 5.02,-9.398 13.338,-18.846 38.157,-19.865 7.513,-0.318 13.983,0.232 20.827,0.813 13.764,1.184 27.922,2.4 47.086,-3.488 25.455,-7.807 34.488,-16.76 45.92,-28.086 3.994,-3.959 8.447,-8.369 14.43,-13.535 10.209,-8.882 16.566,-12.262 20.123,-13.547 5.223,-1.932 5.504,-1.916 7.342,-1.824 l 5,0.215 c 6.18,0.268 10.158,0.441 13.65,1.203 3.605,0.788 5.934,1.787 10.256,4.135 2.609,1.525 12.17,9.801 15.311,12.523 2.506,2.17 4.617,3.992 6.135,5.24 1.48,1.232 3.482,3.064 5.682,5.081 7.627,6.983 15.027,13.757 21.598,17.29 l 7.73,4.219 c 7.299,3.958 14.947,6.773 23.432,8.627 15.764,3.447 31.363,2.768 45.127,2.172 11.273,-0.488 21.926,-0.947 30.504,0.928 3.197,0.698 5.926,1.674 8.352,2.992 17.021,9.232 19.641,23.199 23.139,49.139 l 0.105,0.752 c 0.482,3.543 0.967,7.107 1.518,10.689 2.059,13.586 7.555,33.232 15.195,46.389 9.949,17.145 24.465,29.289 37.271,39.994 14.283,11.935 26.596,22.236 31.451,37.085 3.102,10.294 -0.439,17.532 -11.143,36.884 -1.902,3.439 -3.873,6.998 -5.891,10.791 l -15.65,29.303 c -14.045,26.324 -6.578,52.92 0.014,76.387 4.594,16.367 8.924,31.783 3.779,41.434 -8.619,16.152 -20.396,25.396 -40.637,31.898 -5.422,1.746 -10.635,3.514 -15.947,5.32 l -9.787,3.313 c -15.646,5.174 -22.473,11.428 -29.695,18.043 -2.326,2.141 -4.918,4.52 -8.348,7.254 -11.178,8.914 -18.338,23.295 -24.654,35.975 -1.518,3.045 -2.834,5.695 -4.135,8.129 l -1.889,3.547 c -16.189,30.383 -34.559,30.715 -48.754,27.611 -7.873,-1.721 -16.701,-5.225 -26.252,-10.41 l -1.951,-1.07 -34.584,-9.883 -2.219,-0.137 c -10.516,-0.633 -22.396,-0.648 -38.188,3.404 -2.328,0.596 -4.695,1.154 -7.051,1.691 -8.219,1.906 -17.498,4.051 -26.596,8.467 -6.265,3.04 -25.375,12.296 -39.312,9.249 z" stroke-miterlimit="10" stroke-width="12" stroke="#009eb9" fill="none" style="fill:#ffffff;stroke:none" />
  </g>
  <g id="layer12" style="display:inline">
    <g style="display:inline" id="filet_separation_theme" transform="translate(50.003657)">
      <line id="line27" y2="632.711" x2="376.53699" y1="594.92798" x1="376.53699" stroke-miterlimit="10" stroke-width="2" stroke="#000000" fill="none" />
    </g>
  </g>
  <g id="layer11" style="display:inline">
    <g style="display:inline" id="picto_theme" transform="translate(50.003657)">
      <g id="g34">
        <path id="path30" d="m 432.624,596.896 c 2.643,2.539 5.906,4.559 9.697,6.002 3.789,1.447 8.236,2.18 13.221,2.18 4.916,0 9.348,-0.732 13.17,-2.18 3.823,-1.443 7.104,-3.463 9.746,-6.002 2.646,-2.541 4.717,-5.551 6.154,-8.945 0.629,-1.488 1.151,-3.064 1.555,-4.697 h -19.365 c -0.51,0.879 -1.025,1.609 -1.57,2.223 -2.111,2.381 -5.37,3.588 -9.689,3.588 -5.246,0 -6.665,-0.176 -9.738,-3.586 -0.556,-0.613 -1.064,-1.322 -1.592,-2.225 h -19.299 c 0.401,1.627 0.926,3.205 1.559,4.697 1.437,3.399 3.506,6.408 6.151,8.945 z" stroke-miterlimit="10" stroke-width="2" stroke="#000000" fill="none" />
        <path id="path32" d="m 487.088,639.533 c -0.203,-3.842 -1.037,-7.518 -2.477,-10.92 -1.438,-3.389 -3.507,-6.379 -6.152,-8.883 -2.642,-2.502 -5.923,-4.521 -9.751,-6.002 -3.826,-1.479 -8.256,-2.229 -13.167,-2.229 -4.979,0 -9.426,0.75 -13.219,2.227 -3.795,1.482 -7.059,3.502 -9.701,6.004 -2.644,2.502 -4.713,5.49 -6.15,8.883 -1.44,3.398 -2.275,7.072 -2.478,10.922 -0.141,3.045 -0.203,12.775 -0.203,15.961 0,0.238 0.003,0.463 0.007,0.691 l 0.002,0.07 h 18.076 l -0.002,-0.137 c -0.004,-0.273 -0.009,-0.549 -0.009,-0.834 0,-1.51 0.018,-9.703 0.054,-11.221 0.037,-1.572 0.121,-2.906 0.256,-4.074 0.138,-1.756 0.508,-3.416 1.1,-4.918 0.596,-1.506 1.449,-2.836 2.541,-3.951 1.09,-1.117 2.459,-2.01 4.063,-2.654 1.604,-0.641 3.51,-0.967 5.663,-0.967 2.152,0 4.057,0.326 5.662,0.967 1.602,0.643 2.971,1.537 4.067,2.654 1.088,1.119 1.94,2.447 2.536,3.951 0.59,1.5 0.961,3.16 1.101,4.934 0.069,1.199 0.138,2.545 0.208,4.049 0.065,1.525 0.098,9.721 0.098,11.23 0,0.25 -0.006,0.492 -0.014,0.734 -0.002,0.078 -0.004,0.156 -0.006,0.236 h 18.093 l 10e-4,-0.092 c 0.004,-0.219 0.007,-0.439 0.007,-0.67 0,-3.422 -0.069,-12.98 -0.206,-15.961 z" stroke-miterlimit="10" stroke-width="2" stroke="#000000" fill="none" />
      </g>
    </g>
  </g>
  <g id="layer10" style="display:inline">
    <g style="display:inline" id="texte_picto_theme" transform="translate(50.003657)">
      <g id="g57">
        <path id="path37" d="m 402.695,558.8 h -3.799 v 10.026 h -3.203 V 558.8 h -3.762 v -2.593 h 10.764 z" />
        <path id="path39" d="m 413.927,558.746 h -6.66 v 2.502 h 6.012 v 2.52 h -6.012 v 2.538 h 6.857 v 2.521 h -10.063 v -12.601 h 9.865 v 2.52 z" />
        <path id="path41" d="m 423.502,562.238 4.519,6.588 h -3.834 l -2.719,-4.015 -2.718,4.015 h -3.726 l 4.5,-6.444 -4.213,-6.156 h 3.727 l 2.43,3.672 2.43,-3.672 h 3.763 z" />
        <path id="path43" d="m 439.037,558.8 h -3.799 v 10.026 h -3.203 V 558.8 h -3.762 v -2.593 h 10.764 z" />
        <path id="path45" d="m 450.269,558.746 h -6.66 v 2.502 h 6.012 v 2.52 h -6.012 v 2.538 h 6.857 v 2.521 h -10.063 v -12.601 h 9.865 v 2.52 z" />
        <path id="path47" d="m 466.342,558.8 h -3.798 v 10.026 H 459.34 V 558.8 h -3.763 v -2.593 h 10.765 z" />
        <path id="path49" d="m 479.338,568.826 h -3.204 v -4.896 h -5.221 v 4.896 h -3.203 v -12.601 h 3.203 v 5.185 h 5.221 v -5.185 h 3.204 z" />
        <path id="path51" d="m 491.722,558.746 h -6.66 v 2.502 h 6.012 v 2.52 h -6.012 v 2.538 h 6.857 v 2.521 h -10.062 v -12.601 h 9.864 v 2.52 z m -3.312,-3.619 h -2.375 l -2.34,-2.033 2.807,-0.99 z" />
        <path id="path53" d="m 507.832,568.826 h -2.826 l -0.018,-8.19 -3.023,6.931 h -2.088 l -3.024,-6.931 v 8.19 h -2.862 v -12.619 h 3.51 l 3.42,7.507 3.42,-7.507 h 3.492 v 12.619 z" />
        <path id="path55" d="m 520.234,558.746 h -6.66 v 2.502 h 6.012 v 2.52 h -6.012 v 2.538 h 6.857 v 2.521 H 510.37 v -12.601 h 9.864 z" />
      </g>
    </g>
  </g>
  <g id="layer9" style="display:inline">
    <g style="display:inline" id="picto_categorie" transform="translate(50.003657)">
      <g id="g68">
        <path id="path60" d="m 283.695,649.115 c 0,0.783 -0.635,1.418 -1.417,1.418 h -14.182 c -0.783,0 -1.418,-0.635 -1.418,-1.418 v -28.381 c 0,-0.781 0.635,-1.416 1.418,-1.416 h 14.182 c 0.782,0 1.417,0.635 1.417,1.416 z" stroke-miterlimit="10" stroke-width="2" stroke="#000000" fill="none" />
        <circle id="circle62" r="3.0280001" cy="644.06097" cx="274.19501" stroke-miterlimit="10" stroke-width="2" stroke="#000000" fill="none" />
        <path id="path64" d="m 284.113,646.982 c 0,0 2.506,3.445 10.126,3.236 7.621,-0.209 15.869,0 15.869,0 0,0 8.247,-0.834 10.021,-9.291 l 4.071,-13.885 c 1.774,-6.682 -6.577,-6.264 -6.264,-6.367 0.313,-0.105 -12.11,0 -12.11,0 0,0 3.551,-13.467 -6.89,-16.809 0,0 -3.759,-1.773 -3.55,3.027 v 4.594 c 0,0 0.105,2.609 -2.191,4.803 -2.297,2.191 -9.396,7.307 -9.396,7.307" stroke-miterlimit="10" stroke-width="2" stroke="#000000" fill="none" />
        <path id="path66" d="m 305.992,611.395 v -3.998 c -13.656,-8.568 -3.999,-18.902 0.935,-18.902 v 8.309 h 9.242 c 0,0 0,-6.18 0,-8.566 5.868,0 15.215,11.059 1.246,18.9 v 13.553" stroke-miterlimit="10" stroke-width="2" stroke="#000000" fill="none" />
      </g>
    </g>
  </g>
  <g id="layer8" style="display:inline">
    <g style="display:inline" id="texte_picto_categorie" transform="translate(50.003657)">
      <g id="g95">
        <path id="path71" d="m 236.018,556.082 c 1.884,0 3.54,0.468 4.968,1.404 l -1.206,2.502 c -0.66,-0.385 -1.368,-0.699 -2.124,-0.945 -0.756,-0.246 -1.393,-0.369 -1.908,-0.369 -0.924,0 -1.386,0.306 -1.386,0.918 0,0.396 0.228,0.714 0.684,0.954 0.456,0.239 1.011,0.446 1.665,0.62 0.654,0.175 1.308,0.385 1.962,0.631 0.654,0.246 1.209,0.645 1.665,1.197 0.456,0.552 0.684,1.248 0.684,2.088 0,1.212 -0.474,2.156 -1.422,2.834 -0.948,0.679 -2.154,1.018 -3.618,1.018 -1.044,0 -2.076,-0.18 -3.096,-0.54 -1.021,-0.36 -1.908,-0.852 -2.664,-1.476 l 1.242,-2.467 c 0.636,0.553 1.386,1.006 2.25,1.359 0.864,0.354 1.632,0.531 2.304,0.531 0.516,0 0.918,-0.093 1.206,-0.279 0.288,-0.186 0.432,-0.459 0.432,-0.818 0,-0.348 -0.166,-0.64 -0.495,-0.873 -0.33,-0.234 -0.741,-0.408 -1.233,-0.522 -0.492,-0.114 -1.026,-0.267 -1.602,-0.459 -0.576,-0.192 -1.11,-0.401 -1.602,-0.63 -0.492,-0.229 -0.903,-0.591 -1.233,-1.089 -0.331,-0.498 -0.495,-1.095 -0.495,-1.791 0,-1.152 0.459,-2.073 1.377,-2.763 0.918,-0.69 2.133,-1.035 3.645,-1.035 z" />
        <path id="path73" d="m 251.084,566.504 h -5.508 l -0.918,2.322 h -3.294 l 5.436,-12.601 h 3.294 l 5.31,12.601 h -3.42 z m -0.936,-2.43 -1.8,-4.662 -1.836,4.662 z" />
        <path id="path75" d="m 262.532,568.826 h -3.312 l -4.896,-12.601 h 3.42 l 3.222,9.271 3.222,-9.271 h 3.294 z" />
        <path id="path77" d="m 274.664,556.117 c 1.956,0 3.582,0.609 4.878,1.828 1.296,1.217 1.944,2.738 1.944,4.563 0,1.836 -0.651,3.372 -1.953,4.607 -1.302,1.236 -2.925,1.854 -4.869,1.854 -1.944,0 -3.564,-0.614 -4.86,-1.845 -1.296,-1.231 -1.944,-2.77 -1.944,-4.617 0,-1.836 0.648,-3.359 1.944,-4.572 1.296,-1.211 2.916,-1.818 4.86,-1.818 z m 0.036,2.683 c -0.984,0 -1.824,0.356 -2.52,1.071 -0.696,0.714 -1.044,1.599 -1.044,2.654 0,1.057 0.351,1.947 1.053,2.674 0.702,0.726 1.539,1.088 2.511,1.088 0.972,0 1.797,-0.362 2.475,-1.088 0.678,-0.727 1.017,-1.617 1.017,-2.674 0,-1.056 -0.339,-1.94 -1.017,-2.654 -0.678,-0.715 -1.503,-1.071 -2.475,-1.071 z" />
        <path id="path79" d="m 286.381,568.826 h -3.204 v -12.601 h 3.204 z" />
        <path id="path81" d="m 296.497,568.826 -1.872,-3.547 h -0.09 -2.43 v 3.547 h -3.204 v -12.601 h 5.634 c 1.668,0 2.958,0.382 3.87,1.144 0.912,0.762 1.368,1.845 1.368,3.248 0,1.944 -0.762,3.295 -2.286,4.051 l 2.646,4.158 z m -4.392,-6.066 h 2.43 c 0.696,0 1.236,-0.174 1.62,-0.521 0.384,-0.349 0.576,-0.853 0.576,-1.513 0,-0.647 -0.192,-1.14 -0.576,-1.476 -0.384,-0.336 -0.924,-0.504 -1.62,-0.504 h -2.43 z" />
        <path id="path83" d="m 306.416,564.289 h -4.752 v -1.961 h 4.752 z" />
        <path id="path85" d="m 318.007,558.746 h -6.138 v 2.916 h 5.652 v 2.52 h -5.652 v 4.645 h -3.204 v -12.601 h 9.342 z" />
        <path id="path87" d="m 327.295,566.504 h -5.508 l -0.918,2.322 h -3.294 l 5.436,-12.601 h 3.294 l 5.31,12.601 h -3.42 z m -0.936,-2.43 -1.8,-4.662 -1.836,4.662 z" />
        <path id="path89" d="m 335.989,568.826 h -3.204 v -12.601 h 3.204 z" />
        <path id="path91" d="m 346.105,568.826 -1.872,-3.547 h -0.09 -2.43 v 3.547 h -3.204 v -12.601 h 5.634 c 1.668,0 2.958,0.382 3.87,1.144 0.912,0.762 1.368,1.845 1.368,3.248 0,1.944 -0.762,3.295 -2.286,4.051 l 2.646,4.158 z m -4.392,-6.066 h 2.43 c 0.696,0 1.236,-0.174 1.62,-0.521 0.384,-0.349 0.576,-0.853 0.576,-1.513 0,-0.647 -0.192,-1.14 -0.576,-1.476 -0.384,-0.336 -0.924,-0.504 -1.62,-0.504 h -2.43 z" />
        <path id="path93" d="m 361.405,558.746 h -6.66 v 2.502 h 6.012 v 2.52 h -6.012 v 2.538 h 6.858 v 2.521 h -10.062 v -12.601 h 9.864 z" />
      </g>
    </g>
  </g>
  <g id="layer7" style="display:inline">
    <g style="display:inline" id="fond_categorie" transform="translate(50.003657)">
      <path id="path98" d="m 116.784,405.212 0.367,0.554 c 10.994,16.667 24.678,37.414 28.636,65.511 3.407,24.145 0.464,41.865 -2.826,56.297 h 458.422 c -6.703,-24.98 -12.773,-56.896 4.824,-89.879 l 15.629,-29.263 c 2.139,-4.018 4.166,-7.682 6.121,-11.215 2.313,-4.18 6.283,-11.361 7.943,-15.229 -3.25,-6.174 -11.66,-13.201 -21.236,-21.205 -13.973,-11.678 -31.363,-26.211 -43.975,-47.945 -10.273,-17.686 -16.611,-41.74 -18.906,-56.902 -0.59,-3.832 -1.098,-7.576 -1.578,-11.105 l -0.123,-0.877 c -1.365,-10.115 -2.648,-18.865 -4.543,-23.51 -0.605,-1.48 -0.801,-1.963 -2.959,-3.156 -0.115,-0.034 -0.33,-0.096 -0.666,-0.17 -2.025,-0.441 -5.209,-0.666 -9.461,-0.666 -4.029,0 -8.551,0.195 -13.369,0.404 -5.547,0.24 -11.834,0.512 -18.402,0.512 -13.016,0 -23.945,-1.063 -34.396,-3.348 -11.279,-2.467 -21.525,-6.248 -31.395,-11.601 l -7.662,-4.181 c -9.832,-5.309 -18.842,-13.559 -27.58,-21.559 -1.404,-1.289 -3.514,-3.225 -4.545,-4.088 -1.738,-1.434 -3.848,-3.252 -6.641,-5.67 -6.875,-5.96 -10.01,-8.504 -11.318,-9.525 -0.611,-0.303 -0.975,-0.451 -1.143,-0.516 -1.299,-0.209 -5.059,-0.371 -8.389,-0.518 l -0.984,-0.041 c -1.16,0.633 -4.564,2.693 -10.506,7.861 l -0.082,0.07 c -5.254,4.537 -9.148,8.398 -12.93,12.148 -12.643,12.525 -25.715,25.476 -58.215,35.443 -12.861,3.953 -25.053,5.793 -38.369,5.793 -7.416,0 -14.154,-0.58 -20.133,-1.094 -5.021,-0.426 -9.359,-0.792 -13.762,-0.792 -1.09,0 -2.133,0.021 -3.232,0.067 -9.148,0.377 -11.795,2.23 -11.811,2.244 -0.014,0.014 -0.35,0.348 -1.113,1.777 l -0.172,0.32 -0.18,0.316 c -2.729,4.824 -2.729,4.824 -4.129,17.619 -1.803,16.322 -6.303,46.473 -16.166,64.938 l -4.82,9.074 c -12.647,23.596 -37.37,42.871 -48.779,49.836 -2.847,1.789 -11.133,8.719 -14.946,12.41 l -1.93,3.615 c -0.311,1.688 -0.594,4.277 -0.624,5.811 0.451,2.137 1.584,4.799 5.022,10.482 2.157,3.572 4.525,7.156 7.032,10.953 z" fill="#009eb9" />
    </g>
  </g>
  <g id="layer6" style="display:inline">
    <g style="display:inline" id="picto_posture" transform="translate(50.003657)">
      <g id="g145">
        <g id="g143">
          <g id="g141">
            <path id="path101" d="m 381.352,24.577 3.143,4.402 c 0.354,0.496 0.344,1.115 -0.023,1.377 l -2.102,1.43 c -0.365,0.262 -0.955,0.072 -1.309,-0.424 l -3.143,-4.404 c -0.354,-0.494 -0.342,-1.113 0.023,-1.375 l 2.102,-1.43 c 0.368,-0.262 0.956,-0.072 1.309,0.424 z" stroke-miterlimit="10" stroke-width="2" stroke="#473467" fill="none" clip-rule="evenodd" fill-rule="evenodd" />
            <path id="path103" d="m 358.891,26.473 c -1.613,-3.48 8.643,-11.283 11.873,-8.619 7.24,5.971 13.197,14.52 17.658,24.328 1.471,3.23 -8.715,11.254 -11.873,8.619 C 368.78,44.319 363.18,35.733 358.891,26.473 Z" fill="currentColor" clip-rule="evenodd" fill-rule="evenodd" />
            <path id="path105" d="m 356.11,54.184 c 0,0 2.664,1.488 4.156,4.105 1.492,2.615 1.527,4.762 -0.793,8.424 -2.32,3.664 -7.266,5.861 -8.67,4.58 -1.404,-1.283 -2.564,-3.969 0.916,-7.021 3.48,-3.052 4.604,-3.846 3.156,-6.227 -1.447,-2.383 -1.898,-1.344 -4.664,-8.609 0,0 -2.15,-3.346 -4.658,-4.09 -2.508,-0.744 -3.602,0.121 -4.029,0.916 -0.428,0.793 -1.039,2.616 -2.076,2.619 -1.037,0.006 -3.176,0.006 -4.152,0.982 -0.976,0.976 -1.387,2.139 -1.281,3.357 0.105,1.221 -1.465,2.198 -2.564,2.504 -1.1,0.305 -3.053,1.232 -3.297,2.967 -0.244,1.735 0.549,3.383 -0.611,4.115 -1.16,0.732 -2.746,2.076 -1.893,3.785 0.855,1.709 2.625,3.979 4.396,5.256 1.771,1.277 5.459,4.443 7.51,3.902 2.049,-0.541 2.861,-2.564 2.861,-2.564 0,0 1.99,1.434 3.977,0.434 1.986,-0.998 2.441,-3.547 2.441,-3.547 0,0 -3.969,-2.992 -6.105,-6.412" stroke-miterlimit="10" stroke-width="2" stroke="#473467" fill="none" clip-rule="evenodd" fill-rule="evenodd" />
            <path id="path107" d="m 336.827,68.545 c 0,0 2.924,2.822 3.656,5.074" stroke-miterlimit="10" stroke-width="2" stroke="#473467" fill="none" clip-rule="evenodd" fill-rule="evenodd" />
            <path id="path109" d="m 345.065,57.794 c 0,0 2.99,4.646 6.654,6.478" stroke-miterlimit="10" stroke-width="2" stroke="#473467" fill="none" clip-rule="evenodd" fill-rule="evenodd" />
            <path id="path111" d="m 346.834,70.073 c 0,0 0.248,0.763 3.023,0" stroke-miterlimit="10" stroke-width="2" stroke="#473467" fill="none" clip-rule="evenodd" fill-rule="evenodd" />
            <path id="path113" d="m 411.075,89.002 c -2.615,3.068 -6.979,5.447 -6.979,5.447 0,0 0.078,2.588 1.896,3.867 1.818,1.279 3.998,0.152 3.998,0.152 0,0 0.506,2.121 2.455,2.955 1.947,0.836 6.061,-1.756 8,-2.762 1.938,-1.004 4.021,-2.988 5.117,-4.555 1.096,-1.567 -0.279,-3.127 -1.318,-4.021 -1.041,-0.895 -0.014,-2.41 -0.002,-4.16 0.012,-1.752 -1.785,-2.955 -2.828,-3.418 -1.041,-0.463 -2.451,-1.66 -2.17,-2.852 0.283,-1.191 0.047,-2.4 -0.775,-3.51 -0.824,-1.109 -2.938,-1.422 -3.965,-1.578 -1.025,-0.156 -1.363,-2.049 -1.67,-2.896 -0.307,-0.847 -1.262,-1.865 -3.852,-1.496 -2.59,0.369 -5.207,3.365 -5.207,3.365 -3.799,6.783 -4.094,5.689 -5.873,7.834 -1.779,2.143 -0.785,3.092 2.211,6.621 2.996,3.529 1.455,6.018 -0.123,7.08 -1.576,1.063 -6.309,-1.768 -7.904,-5.799 -1.516,-3.822 -1.148,-7.107 2.125,-9.803 3.275,-2.695 5.902,-3.219 5.902,-3.219" stroke-miterlimit="10" stroke-width="2" stroke="#473467" fill="none" clip-rule="evenodd" fill-rule="evenodd" />
            <path id="path115" d="m 414.219,94.405 c 0,0 -3.305,2.363 -4.359,4.484" stroke-miterlimit="10" stroke-width="2" stroke="#473467" fill="none" clip-rule="evenodd" fill-rule="evenodd" />
            <path id="path117" d="m 407.645,82.563 c 0,0 -3.641,4.158 -7.531,5.434" stroke-miterlimit="10" stroke-width="2" stroke="#473467" fill="none" clip-rule="evenodd" fill-rule="evenodd" />
            <path id="path119" d="m 404.096,94.45 c 0,0 -0.355,0.719 -2.992,-0.443" stroke-miterlimit="10" stroke-width="2" stroke="#473467" fill="none" clip-rule="evenodd" fill-rule="evenodd" />
            <g id="g129">
              <defs id="defs122">
                <path d="m 349.887,48.881 c 1.172,3.439 3.039,6.252 4.836,8.439 l -19.805,17.313 c -3.166,-1.834 -6.135,-4.257 -8.674,-7.969 l -13.156,3.746 c 0,0 -1.5,20.818 0.125,20.818 1.625,0 20.75,-1.5 22,-1.5 1.25,0 37.625,-22.125 37.625,-22.125 l 13.875,-38 c 0,0 -0.625,-12.086 -1,-12.293 -0.375,-0.207 -36.375,17.006 -36.375,17.006 z" id="path1008" />
              </defs>
              <clipPath id="clipPath298">
                <use id="use296" overflow="visible" xlink:href="#SVGID_1_" x="0" y="0" width="100%" height="100%" />
              </clipPath>
              <path id="path127" d="m 316.995,85.149 c 0.236,0.316 0.883,0.373 1.189,0.113 l 57.447,-48.383 -4.096,-4.924 -57.145,48.172 c -0.43,0.363 -0.477,0.885 -0.125,1.357 z" stroke-miterlimit="10" stroke-width="2" stroke="#473467" fill="none" clip-rule="evenodd" fill-rule="evenodd" clip-path="url(#SVGID_2_-2-9)" />
            </g>
            <g id="g139">
              <defs id="defs132">
                <path d="m 398.698,80.313 c 1.949,-1.783 5.014,-5.445 6.551,-8.465 l 18.715,21.805 0.959,1.02 c -2.836,3.094 -6.363,5.285 -9.527,6.563 l 4.693,17.244 13.125,9.75 0.375,-10.625 c 0,0 -5.125,-47.875 -5.375,-48.25 -0.25,-0.375 -24.334,-23.75 -24.334,-23.75 0,0 -13.166,1.125 -13.166,1.5 0,0.375 -9.506,10 -9.506,10 l 5.662,19.625 z" id="path1015" />
              </defs>
              <clipPath id="clipPath306">
                <use id="use304" overflow="visible" xlink:href="#SVGID_3_" x="0" y="0" width="100%" height="100%" />
              </clipPath>
              <path id="path137" d="m 432.614,121.114 -7.443,-6.127 -38.289,-58.555 c -0.277,-0.424 4.488,-4.469 4.826,-3.955 l 38.754,59.203 2.619,9.141 z" fill="currentColor" clip-rule="evenodd" fill-rule="evenodd" clip-path="url(#SVGID_4_-0-7)" />
            </g>
          </g>
        </g>
      </g>
    </g>
  </g>
  <g id="layer2" style="display:inline">
    <g style="display:inline" id="filet_1_categorie" transform="translate(50.003657)">
      <g id="g162">
        <g id="g160">
          <path id="path148" d="m 663.657,364.19 c 0.59,-2.168 1.352,-4.236 2.299,-6.15 l 7.686,-15.543 c 6.258,-12.631 6.916,-26.516 1.855,-39.096 -5.066,-12.576 -15.162,-22.135 -28.432,-26.914 l -16.307,-5.865 c -15.27,-5.5 -28.996,-24.549 -29.373,-40.764 l -0.412,-17.336 c -0.529,-22.508 -15.307,-40.781 -36.771,-45.473 -5.654,-1.236 -11.523,-1.447 -17.449,-0.627 l -17.164,2.379 c -4.115,0.576 -8.621,0.34 -13.391,-0.703 -13.275,-2.902 -25.955,-11.637 -31.555,-21.736 l -8.424,-15.152 c -5.604,-10.092 -14.014,-17.561 -24.125,-21.576 -2.342,-0.93 -4.775,-1.674 -7.287,-2.223" stroke-miterlimit="10" stroke-width="2" stroke="#473467" fill="none" />
          <path id="path150" d="m 82.626,400.674 c -1.456,7.26 -4.455,14.092 -8.88,19.33 l -11.13,13.175 c -9.104,10.777 -13.063,24.105 -11.15,37.529 1.907,13.426 9.424,25.121 21.164,32.93 l 14.341,9.543 c 14.025,9.332 22.474,30.305 18.834,46.754 l -3.727,16.836 c -2.836,12.791 -0.662,25.68 6.12,36.293 6.714,10.506 17.309,17.801 29.832,20.537 1.859,0.406 3.761,0.713 5.65,0.906 l 17.24,1.799 c 1.164,0.121 2.348,0.313 3.518,0.57 15.545,3.396 30.813,17.443 34.76,31.98 l 4.547,16.721 c 4.729,17.428 18.26,30.57 35.314,34.299 9.326,2.039 19.133,1.172 28.357,-2.506 l 12.457,-4.971" stroke-miterlimit="10" stroke-width="2" stroke="#473467" fill="none" />
          <path id="path152" d="m 293.387,109.717 c -14.359,2.488 -27.039,11.748 -34.164,25.891 l -7.793,15.488 c -7.293,14.494 -27.861,25.816 -44.002,24.244 l -17.254,-1.68 c -14.035,-1.377 -27.248,2.938 -37.215,12.135 -9.968,9.197 -15.326,22.027 -15.084,36.127 l 0.29,17.33 c 0.28,16.217 -12.662,35.807 -27.695,41.922 l -16.051,6.523 c -13.071,5.311 -22.775,15.271 -27.324,28.047 -4.547,12.777 -3.327,26.627 3.437,38.996 l 8.273,15.135 c 0.356,0.65 0.686,1.324 1.002,2.004" stroke-miterlimit="10" stroke-width="2" stroke="#473467" fill="none" />
          <path id="path154" d="M 665.18,398.586" stroke-miterlimit="10" stroke-width="2" stroke="#473467" fill="none" />
          <path id="path156" d="m 481.483,709.246 10.141,3.574 c 2.004,0.705 4.059,1.291 6.107,1.738 25.635,5.604 50.328,-10.246 56.236,-36.076 l 3.861,-16.904 c 3.609,-15.809 20.861,-31.73 36.918,-34.074 L 611.9,625.01 c 13.955,-2.035 25.758,-9.381 33.234,-20.689 7.475,-11.316 9.604,-25.055 6,-38.684 l -4.412,-16.676 c -4.307,-16.283 3.277,-37.576 16.908,-47.467 l 13.961,-10.131 c 11.412,-8.283 18.447,-20.271 19.805,-33.758 1.365,-13.494 -3.131,-26.65 -12.66,-37.044 L 673.017,407.78 c -2.436,-2.656 -4.488,-5.873 -6.137,-9.424" stroke-miterlimit="10" stroke-width="2" stroke="#473467" fill="none" />
          <path id="path158" d="m 305.959,709.049 c 1.082,0.168 2.166,0.367 3.248,0.604 9.467,2.07 17.967,6.563 23.324,12.33 l 11.795,12.699 c 6.912,7.43 15.596,12.457 25.113,14.537 3.348,0.732 6.697,1.09 10.014,1.09 13.594,0 26.574,-6.027 36.029,-17.07 l 11.273,-13.166 c 4.574,-5.34 11.389,-9.539 18.93,-12.121" stroke-miterlimit="10" stroke-width="2" stroke="#473467" fill="none" />
        </g>
      </g>
    </g>
  </g>
  <g id="layer4" style="display:inline">
    <g style="display:inline" id="filet_2_categorie" transform="translate(50.003657)">
      <path id="path129" d="m 278.851,712.613 c -1.966,-0.43 -3.815,-1.113 -5.504,-2.027 l -7.873,-4.273 c -10.632,-5.762 -15.877,-16.039 -23.14,-30.256 -9.563,-18.74 -21.466,-42.051 -50.663,-57.898 l -5.439,-2.961 -57.046,-22.5 -3.821,-2.486 -0.46,-0.236 c -2.624,-1.664 -9.375,-10.75 -12.847,-18.057 -2.913,-6.225 -3.598,-9.918 -2.149,-20.793 1.167,-8.746 2.911,-15.967 4.601,-22.951 3.51,-14.535 7.143,-29.559 3.955,-52.145 -3.019,-21.422 -14.157,-38.303 -23.984,-53.201 -2.711,-4.106 -5.441,-8.225 -8.017,-12.483 -4.755,-7.861 -7.949,-14.328 -9.149,-22.292 -0.741,-4.872 0.684,-17.507 2.848,-21.569 l 4.725,-8.85 c 2.348,-3.553 17.498,-16.679 24.032,-20.695 9.964,-6.061 29.163,-21.891 38.035,-38.441 l 4.766,-8.975 c 8.247,-15.439 12.143,-47.82 12.842,-54.156 1.59,-14.516 2.072,-18.908 7.837,-29.097 5.019,-9.397 13.337,-18.846 38.156,-19.864 7.513,-0.318 13.983,0.232 20.827,0.812 13.764,1.185 27.922,2.401 47.087,-3.487 25.455,-7.809 34.487,-16.76 45.92,-28.087 3.993,-3.958 8.447,-8.368 14.43,-13.534 10.205,-8.877 16.571,-12.264 20.122,-13.547 5.223,-1.933 5.504,-1.917 7.343,-1.824 l 5,0.213 c 6.181,0.27 10.159,0.441 13.649,1.205 3.057,0.668 6.221,1.942 10.257,4.135 2.608,1.523 12.169,9.801 15.31,12.523 2.506,2.168 4.617,3.992 6.135,5.24 1.48,1.232 3.484,3.063 5.682,5.081 7.628,6.983 15.029,13.757 21.598,17.29 l 7.732,4.219 c 7.297,3.957 14.947,6.772 23.431,8.627 15.765,3.445 31.362,2.767 45.126,2.17 11.274,-0.487 21.926,-0.945 30.504,0.929 3.198,0.7 5.927,1.675 8.354,2.992 17.02,9.232 19.639,23.2 23.139,49.14 l 0.104,0.75 c 0.482,3.544 0.968,7.109 1.517,10.689 2.059,13.588 7.555,33.234 15.195,46.391 9.949,17.144 24.465,29.289 37.272,39.992 14.283,11.937 26.596,22.237 31.452,37.086 3.1,10.295 -0.44,17.531 -11.144,36.885 -1.903,3.439 -3.874,6.998 -5.892,10.79 l -15.65,29.305 c -14.044,26.324 -6.576,52.92 0.015,76.387 4.593,16.367 8.924,31.783 3.778,41.434 -8.619,16.15 -20.396,25.395 -40.637,31.896 -5.42,1.746 -10.635,3.514 -15.947,5.32 l -9.787,3.313 c -15.646,5.174 -22.473,11.428 -29.695,18.041 -2.326,2.143 -4.917,4.521 -8.347,7.254 -11.179,8.914 -18.339,23.297 -24.653,35.977 -1.518,3.045 -2.836,5.695 -4.136,8.129 l -1.888,3.547 c -16.189,30.383 -34.56,30.715 -48.756,27.611 -7.873,-1.721 -16.701,-5.225 -26.251,-10.41 l -1.95,-1.07 -34.586,-9.883 -2.219,-0.137 c -10.516,-0.633 -22.396,-0.648 -38.187,3.404 -2.329,0.596 -4.696,1.154 -7.052,1.691 -8.219,1.906 -17.497,4.051 -26.596,8.467 -6.266,3.041 -25.375,12.297 -39.311,9.25 z" stroke-miterlimit="10" stroke-width="27" stroke="#009eb9" fill="none" opacity="0.2" />
    </g>
  </g>
  <g id="layer3" style="display:inline">
    <g style="display:inline" id="filet_3_posture" transform="translate(50.003657)">
      <path id="path168" d="m 277.2,712.482 c -1.965,-0.43 -3.814,-1.113 -5.502,-2.027 l -7.873,-4.271 c -10.633,-5.762 -15.877,-16.041 -23.141,-30.258 -9.563,-18.74 -21.465,-42.051 -50.662,-57.896 l -5.439,-2.961 -57.046,-22.502 -3.821,-2.486 -0.46,-0.236 c -2.623,-1.664 -9.375,-10.75 -12.848,-18.059 -2.913,-6.225 -3.597,-9.916 -2.148,-20.791 1.167,-8.748 2.911,-15.969 4.601,-22.951 3.511,-14.535 7.143,-29.559 3.955,-52.146 -3.019,-21.42 -14.157,-38.303 -23.984,-53.201 -2.711,-4.105 -5.441,-8.222 -8.017,-12.48 -4.755,-7.863 -7.949,-14.33 -9.149,-22.293 -0.741,-4.871 0.684,-17.508 2.848,-21.57 l 4.724,-8.849 c 2.349,-3.552 17.499,-16.679 24.032,-20.696 9.965,-6.059 29.163,-21.891 38.035,-38.441 l 4.766,-8.975 c 8.248,-15.439 12.143,-47.82 12.842,-54.156 1.59,-14.516 2.072,-18.906 7.836,-29.096 5.02,-9.398 13.338,-18.846 38.157,-19.865 7.513,-0.318 13.983,0.232 20.827,0.813 13.764,1.184 27.922,2.4 47.086,-3.488 25.455,-7.807 34.488,-16.76 45.92,-28.086 3.994,-3.959 8.447,-8.369 14.43,-13.535 10.209,-8.882 16.566,-12.262 20.123,-13.547 5.223,-1.932 5.504,-1.916 7.342,-1.824 l 5,0.215 c 6.18,0.268 10.158,0.441 13.65,1.203 3.605,0.788 5.934,1.787 10.256,4.135 2.609,1.525 12.17,9.801 15.311,12.523 2.506,2.17 4.617,3.992 6.135,5.24 1.48,1.232 3.482,3.064 5.682,5.081 7.627,6.983 15.027,13.757 21.598,17.29 l 7.73,4.219 c 7.299,3.958 14.947,6.773 23.432,8.627 15.764,3.447 31.363,2.768 45.127,2.172 11.273,-0.488 21.926,-0.947 30.504,0.928 3.197,0.698 5.926,1.674 8.352,2.992 17.021,9.232 19.641,23.199 23.139,49.139 l 0.105,0.752 c 0.482,3.543 0.967,7.107 1.518,10.689 2.059,13.586 7.555,33.232 15.195,46.389 9.949,17.145 24.465,29.289 37.271,39.994 14.283,11.935 26.596,22.236 31.451,37.085 3.102,10.294 -0.439,17.532 -11.143,36.884 -1.902,3.439 -3.873,6.998 -5.891,10.791 l -15.65,29.303 c -14.045,26.324 -6.578,52.92 0.014,76.387 4.594,16.367 8.924,31.783 3.779,41.434 -8.619,16.152 -20.396,25.396 -40.637,31.898 -5.422,1.746 -10.635,3.514 -15.947,5.32 l -9.787,3.313 c -15.646,5.174 -22.473,11.428 -29.695,18.043 -2.326,2.141 -4.918,4.52 -8.348,7.254 -11.178,8.914 -18.338,23.295 -24.654,35.975 -1.518,3.045 -2.834,5.695 -4.135,8.129 l -1.889,3.547 c -16.189,30.383 -34.559,30.715 -48.754,27.611 -7.873,-1.721 -16.701,-5.225 -26.252,-10.41 l -1.951,-1.07 -34.584,-9.883 -2.219,-0.137 c -10.516,-0.633 -22.396,-0.648 -38.188,3.404 -2.328,0.596 -4.695,1.154 -7.051,1.691 -8.219,1.906 -17.498,4.051 -26.596,8.467 -6.265,3.04 -25.375,12.296 -39.312,9.249 z" stroke-miterlimit="10" stroke-width="12" stroke="#009eb9" fill="none" />
    </g>
  </g>
  <g id="layer5" style="display:inline">
    <g style="display:inline" id="texte_titre_badge" transform="translate(50.003657)">
      <g id="g208">
        <path id="path178" d="m 205.094,500.46 2.844,0.36 v 4.571 h -11.879 v -4.571 l 2.844,-0.36 v -14.722 h -3.636 l -0.54,3.563 h -4.607 l 0.181,-8.676 h 23.396 l 0.181,8.676 h -4.607 l -0.54,-3.563 h -3.636 v 14.722 z" fill="#ffffff" />
        <path id="path180" d="m 215.572,505.392 v -4.571 l 2.844,-0.36 v -14.865 l -2.844,-0.396 v -4.572 h 11.879 v 4.572 l -2.844,0.396 v 14.865 l 2.844,0.36 v 4.571 z" fill="#ffffff" />
        <path id="path182" d="m 244.082,500.46 2.844,0.36 v 4.571 h -11.878 v -4.571 l 2.844,-0.36 v -14.722 h -3.636 l -0.54,3.563 h -4.607 l 0.18,-8.676 h 23.397 l 0.18,8.676 h -4.607 l -0.54,-3.563 h -3.636 v 14.722 z" fill="#ffffff" />
        <path id="path184" d="m 271.297,505.392 -4.535,-8.675 h -3.168 v 3.743 l 3.636,0.36 v 4.571 h -12.67 v -4.571 l 2.844,-0.36 v -14.865 l -2.844,-0.396 v -4.572 h 13.462 c 5.039,0 8.495,2.844 8.495,7.632 0,4.067 -1.691,5.687 -4.067,6.983 v 0.18 c 0,0 0.396,0.288 0.684,0.792 l 2.483,4.247 3.168,0.36 v 4.571 z m -4.823,-13.498 c 2.628,0 3.779,-1.044 3.779,-3.275 0,-1.944 -1.403,-2.88 -3.779,-2.88 h -2.88 v 6.155 z" fill="#ffffff" />
        <path id="path186" d="m 280.228,505.392 v -4.571 l 2.808,-0.36 v -14.902 l -2.808,-0.359 v -4.572 h 20.409 l 0.144,8.676 h -4.607 l -0.54,-3.563 h -6.406 v 4.787 h 5.363 v 4.932 h -5.363 v 4.823 h 6.335 l 0.54,-3.563 h 4.607 l -0.252,8.675 h -20.23 z" fill="#ffffff" />
        <path id="path188" d="m 310.359,505.392 v -4.571 l 2.844,-0.36 v -14.902 l -2.844,-0.359 v -4.572 h 12.131 c 6.119,0 12.13,3.24 12.13,12.203 0,9.826 -5.938,12.563 -11.554,12.563 h -12.707 z m 11.23,-5.112 c 4.212,0 6.768,-1.619 6.768,-7.451 0,-4.967 -2.664,-7.091 -7.235,-7.091 h -1.728 v 14.542 z" fill="#ffffff" />
        <path id="path190" d="m 353.845,485.595 -2.844,-0.396 v -4.572 h 11.519 v 4.572 l -2.844,0.396 v 10.689 c 0,6.264 -3.743,9.359 -10.366,9.359 -6.623,0 -10.511,-3.096 -10.511,-9.359 v -10.689 l -2.844,-0.396 v -4.572 h 11.879 v 4.572 l -2.844,0.396 v 10.294 c 0,1.944 0.792,4.571 4.319,4.571 2.879,0 4.535,-2.051 4.535,-4.391 v -10.474 z" fill="#ffffff" />
        <path id="path192" d="m 371.235,505.392 v -4.571 l 2.844,-0.36 v -14.902 l -2.844,-0.359 v -4.572 h 10.295 c 7.091,0 10.654,1.729 10.654,6.66 0,4.211 -2.664,5.003 -3.635,5.291 v 0.288 c 1.764,0.216 5.398,1.188 5.398,5.759 0,4.248 -2.483,6.768 -10.043,6.768 h -12.669 z m 12.058,-14.723 c 1.656,0 2.627,-0.971 2.627,-2.447 0,-1.764 -1.403,-2.483 -2.987,-2.483 h -2.663 v 4.931 h 3.023 z m -3.023,4.644 v 4.967 h 3.924 c 2.52,0 3.49,-0.684 3.49,-2.447 0,-1.584 -1.223,-2.52 -2.986,-2.52 z" fill="#ffffff" />
        <path id="path194" d="m 418.932,500.46 2.52,0.36 v 4.571 h -11.158 v -4.571 l 2.699,-0.36 -0.9,-2.375 h -8.387 l -0.9,2.375 2.7,0.36 v 4.571 h -10.979 v -4.571 l 2.52,-0.36 5.651,-14.902 -3.168,-0.18 v -4.752 h 11.879 z m -10.15,-11.194 c -0.252,-0.647 -0.793,-2.196 -0.793,-2.196 h -0.18 c 0,0 -0.54,1.549 -0.792,2.196 l -1.548,4.104 h 4.859 z" fill="#ffffff" />
        <path id="path196" d="m 422.786,505.392 v -4.571 l 2.844,-0.36 v -14.902 l -2.844,-0.359 v -4.572 h 12.131 c 6.119,0 12.131,3.24 12.131,12.203 0,9.826 -5.939,12.563 -11.555,12.563 h -12.707 z m 11.23,-5.112 c 4.212,0 6.768,-1.619 6.768,-7.451 0,-4.967 -2.664,-7.091 -7.234,-7.091 h -1.729 v 14.542 z" fill="#ffffff" />
        <path id="path198" d="m 470.627,496.717 c 0,3.708 -2.052,8.927 -10.402,8.927 -6.804,0 -11.051,-3.924 -11.051,-12.67 0,-8.676 4.283,-12.563 11.051,-12.563 8.351,0 10.402,4.355 10.402,7.486 0,1.116 -0.252,1.872 -0.252,1.872 l -5.867,0.54 c 0,0 0.145,-0.54 0.145,-1.296 0,-1.476 -0.937,-3.456 -4.104,-3.456 -2.844,0 -5.111,1.801 -5.111,7.523 0,5.651 2.482,7.379 5.326,7.379 2.736,0 3.744,-1.188 3.852,-3.203 l -3.491,-0.36 v -4.212 h 9.503 v 4.033 z" fill="#ffffff" />
        <path id="path200" d="m 473.114,505.392 v -4.571 l 2.808,-0.36 v -14.902 l -2.808,-0.359 v -4.572 h 20.409 l 0.144,8.676 h -4.607 l -0.539,-3.563 h -6.407 v 4.787 h 5.363 v 4.932 h -5.363 v 4.823 h 6.335 l 0.54,-3.563 h 4.607 l -0.252,8.675 h -20.23 z" fill="#ffffff" />
        <path id="path202" d="m 503.245,505.392 v -4.571 l 2.844,-0.36 v -14.865 l -2.844,-0.396 v -4.572 h 11.879 v 4.572 l -2.844,0.396 v 14.865 l 2.844,0.36 v 4.571 z" fill="#ffffff" />
        <path id="path204" d="m 532.727,496.645 v -0.684 l 5.976,1.224 v 0.611 c 0,3.276 -2.088,7.848 -10.583,7.848 -6.695,0 -10.87,-3.924 -10.87,-12.67 0,-8.676 4.283,-12.563 11.05,-12.563 8.352,0 10.403,4.787 10.403,8.207 0,1.115 -0.252,1.871 -0.252,1.871 l -5.867,0.721 c 0,0 0.144,-0.612 0.144,-1.477 0,-1.764 -0.936,-4.176 -4.104,-4.176 -2.844,0 -5.111,1.801 -5.111,7.523 0,5.651 2.412,7.379 5.147,7.379 3.095,10e-4 4.067,-1.438 4.067,-3.814 z" fill="#ffffff" />
        <path id="path206" d="m 541.008,505.392 v -4.571 l 2.844,-0.36 v -14.865 l -2.844,-0.396 v -4.572 h 11.879 v 4.572 l -2.844,0.396 v 14.865 l 2.844,0.36 v 4.571 z" fill="#ffffff" />
      </g>
    </g>
  </g>
  <g id="layer1" style="display:inline">
    <g style="display:inline" id="picto_titre_badge" transform="translate(50.003657)">
      <g id="g175">
        <path id="path171" d="m 312.801,307.146 c 6.838,6.564 15.277,11.789 25.084,15.523 9.801,3.74 21.307,5.637 34.199,5.637 12.719,0 24.182,-1.896 34.066,-5.637 9.895,-3.734 18.377,-8.957 25.213,-15.523 6.844,-6.576 12.201,-14.363 15.922,-23.143 1.627,-3.848 2.979,-7.93 4.021,-12.15 H 401.21 c -1.32,2.273 -2.65,4.158 -4.063,5.75 -5.457,6.156 -13.891,9.281 -25.064,9.281 -13.57,0 -17.24,-0.455 -25.189,-9.275 -1.438,-1.588 -2.754,-3.426 -4.119,-5.756 h -49.92 c 1.037,4.203 2.393,8.287 4.033,12.148 3.722,8.791 9.075,16.577 15.913,23.145 z" fill="#ffffff" />
        <path id="path173" d="m 453.69,417.437 c -0.523,-9.941 -2.68,-19.449 -6.406,-28.25 -3.719,-8.766 -9.072,-16.498 -15.916,-22.979 -6.832,-6.471 -15.32,-11.697 -25.223,-15.527 -9.896,-3.822 -21.355,-5.76 -34.061,-5.76 -12.877,0 -24.383,1.938 -34.193,5.758 -9.814,3.834 -18.26,9.061 -25.096,15.529 -6.838,6.471 -12.189,14.203 -15.906,22.979 -3.729,8.787 -5.887,18.293 -6.412,28.256 -0.363,7.872 -0.523,33.045 -0.523,41.286 0,0.611 0.008,1.197 0.016,1.785 l 0.004,0.184 h 46.764 l -0.006,-0.35 c -0.012,-0.715 -0.025,-1.426 -0.025,-2.158 0,-3.904 0.047,-25.1 0.143,-29.027 0.094,-4.07 0.311,-7.518 0.656,-10.538 0.357,-4.543 1.316,-8.836 2.848,-12.723 1.539,-3.896 3.748,-7.334 6.57,-10.221 2.82,-2.893 6.361,-5.203 10.516,-6.865 4.15,-1.662 9.076,-2.506 14.646,-2.506 5.568,0 10.496,0.844 14.646,2.506 4.145,1.662 7.686,3.971 10.523,6.863 2.814,2.893 5.02,6.328 6.561,10.221 1.525,3.881 2.484,8.174 2.848,12.76 0.178,3.105 0.355,6.586 0.535,10.479 0.17,3.943 0.256,25.145 0.256,29.051 0,0.643 -0.018,1.268 -0.037,1.893 -0.006,0.207 -0.012,0.41 -0.016,0.615 h 46.805 l 0.002,-0.236 c 0.008,-0.568 0.018,-1.137 0.018,-1.732 -0.002,-8.859 -0.184,-33.587 -0.537,-41.293 z" fill="#ffffff" />
      </g>
    </g>
  </g>
</svg>
