<?xml version="1.0" encoding="UTF-8" standalone="no"?>
<svg xmlns:dc="http://purl.org/dc/elements/1.1/"
  xmlns:cc="http://creativecommons.org/ns#"
  xmlns:rdf="http://www.w3.org/1999/02/22-rdf-syntax-ns#"
  xmlns:svg="http://www.w3.org/2000/svg"
  xmlns="http://www.w3.org/2000/svg" version="1.1" x="0px" y="0px" width="100%" height="100%" viewBox="0 0 839.99998 839.99999" enable-background="new 0 0 737.007 841.89" xml:space="preserve" id="svg1335">
  <metadata id="metadata1341">
    <rdf:RDF>
      <cc:Work rdf:about="">
        <dc:format>image/svg+xml</dc:format>
        <dc:type rdf:resource="http://purl.org/dc/dcmitype/StillImage" />
        <dc:title></dc:title>
      </cc:Work>
    </rdf:RDF>
  </metadata>
  <defs id="defs1339" />
  <g id="layer13" style="display:inline">
    <g id="texte_posture" transform="translate(36.489657)">
      <g id="g24">
        <path id="path2" d="m 259.046,745.794 -10.629,15.7 c -1.659,2.451 -3.665,3.88 -6.016,4.284 -2.352,0.405 -4.775,-0.237 -7.27,-1.927 -3.158,-2.138 -4.982,-5.176 -5.471,-9.113 l 5.384,-2.104 c 0.49,2.844 1.53,4.804 3.12,5.88 1.656,1.121 3.127,0.732 4.413,-1.167 l 7.31,-10.798 -7.95,-5.382 3.229,-4.77 z" fill="#473467" />
        <path id="path4" d="m 280.763,764.431 -13.018,-7.04 -2.645,4.891 11.751,6.355 -2.664,4.926 -11.752,-6.355 -2.683,4.961 13.405,7.249 -2.664,4.927 -19.668,-10.637 13.319,-24.629 19.281,10.427 z" fill="#473467" />
        <path id="path6" d="m 308.923,769.463 c 3.948,1.391 7.073,3.595 9.375,6.611 l -4.376,4.354 c -1.1,-1.292 -2.351,-2.476 -3.753,-3.55 -1.403,-1.073 -2.646,-1.801 -3.727,-2.183 -1.937,-0.683 -3.131,-0.382 -3.583,0.9 -0.292,0.83 -0.05,1.665 0.729,2.505 0.778,0.841 1.789,1.684 3.031,2.531 1.242,0.848 2.457,1.771 3.646,2.77 1.189,0.999 2.057,2.245 2.606,3.738 0.548,1.494 0.512,3.122 -0.108,4.882 -0.896,2.541 -2.587,4.171 -5.074,4.892 -2.488,0.721 -5.266,0.541 -8.334,-0.541 -2.188,-0.771 -4.218,-1.91 -6.09,-3.418 -1.872,-1.508 -3.37,-3.194 -4.494,-5.062 l 4.425,-4.251 c 0.925,1.627 2.163,3.131 3.712,4.511 1.549,1.38 3.028,2.317 4.437,2.814 1.082,0.381 1.993,0.483 2.734,0.306 0.741,-0.177 1.245,-0.643 1.51,-1.397 0.257,-0.729 0.126,-1.461 -0.393,-2.195 -0.519,-0.734 -1.252,-1.402 -2.199,-2.005 -0.947,-0.603 -1.953,-1.317 -3.019,-2.146 -1.065,-0.827 -2.03,-1.662 -2.893,-2.503 -0.863,-0.841 -1.456,-1.905 -1.78,-3.193 -0.324,-1.287 -0.229,-2.66 0.285,-4.119 0.851,-2.415 2.493,-4.006 4.927,-4.774 2.436,-0.768 5.237,-0.594 8.406,0.523 z" fill="#473467" />
        <path id="path8" d="m 336.867,801.022 -11.957,-2.618 -3.097,4.604 -7.15,-1.565 17.789,-24.769 7.151,1.565 5.539,29.876 -7.424,-1.625 z m -0.877,-5.719 -1.692,-10.976 -6.201,9.247 z" fill="#473467" />
        <path id="path10" d="m 358.519,809.414 -7.071,-0.835 3.284,-27.807 7.071,0.835 z" fill="#473467" />
        <path id="path12" d="m 379.187,782.388 c 4.184,0.127 7.83,1.278 10.939,3.454 l -2.848,5.476 c -1.439,-0.897 -2.991,-1.645 -4.654,-2.242 -1.662,-0.598 -3.066,-0.914 -4.213,-0.949 -2.053,-0.062 -3.099,0.587 -3.141,1.946 -0.026,0.879 0.458,1.602 1.455,2.165 0.996,0.564 2.215,1.062 3.656,1.491 1.441,0.432 2.879,0.942 4.316,1.532 1.436,0.591 2.641,1.515 3.617,2.771 0.975,1.257 1.435,2.818 1.378,4.684 -0.082,2.692 -1.198,4.76 -3.351,6.201 -2.15,1.442 -4.853,2.113 -8.104,2.015 -2.319,-0.07 -4.599,-0.54 -6.841,-1.408 -2.24,-0.869 -4.18,-2.021 -5.817,-3.459 l 2.925,-5.394 c 1.375,1.27 3.011,2.326 4.905,3.171 1.896,0.845 3.59,1.29 5.082,1.335 1.146,0.035 2.045,-0.145 2.697,-0.538 0.652,-0.393 0.991,-0.99 1.016,-1.79 0.023,-0.772 -0.324,-1.431 -1.041,-1.973 -0.717,-0.542 -1.618,-0.956 -2.703,-1.243 -1.086,-0.286 -2.261,-0.662 -3.527,-1.127 -1.266,-0.465 -2.438,-0.968 -3.516,-1.508 -1.078,-0.539 -1.967,-1.373 -2.666,-2.502 -0.699,-1.128 -1.025,-2.466 -0.978,-4.012 0.078,-2.559 1.16,-4.573 3.246,-6.044 2.086,-1.471 4.809,-2.155 8.168,-2.052 z" fill="#473467" />
        <path id="path14" d="m 418.636,780.185 c 2.062,-0.281 4.146,-0.134 6.257,0.439 2.11,0.574 3.962,1.479 5.558,2.715 l -3.424,5.392 c -1.05,-0.987 -2.246,-1.719 -3.59,-2.196 -1.343,-0.476 -2.635,-0.63 -3.877,-0.461 -2.193,0.299 -3.925,1.322 -5.193,3.069 -1.27,1.747 -1.749,3.757 -1.439,6.029 0.316,2.325 1.32,4.167 3.013,5.524 1.693,1.357 3.634,1.887 5.827,1.588 1.163,-0.158 2.332,-0.613 3.508,-1.366 1.176,-0.752 2.185,-1.696 3.025,-2.834 l 4.717,3.798 c -1.298,1.738 -2.908,3.209 -4.83,4.412 -1.922,1.204 -3.899,1.944 -5.934,2.222 -4.176,0.568 -7.835,-0.319 -10.98,-2.663 -3.145,-2.343 -4.994,-5.55 -5.549,-9.619 -0.543,-3.989 0.416,-7.518 2.878,-10.585 2.461,-3.067 5.806,-4.889 10.033,-5.464 z" fill="#473467" />
        <path id="path16" d="m 457.275,800.675 -6.063,-6.531 -0.193,0.052 -5.215,1.4 2.045,7.61 -6.877,1.847 -7.264,-27.041 12.092,-3.248 c 3.58,-0.961 6.568,-0.887 8.965,0.223 2.397,1.11 4,3.171 4.809,6.184 1.121,4.173 0.264,7.509 -2.571,10.01 l 8.075,7.398 z m -12.923,-10.487 5.215,-1.4 c 1.493,-0.401 2.552,-1.086 3.176,-2.055 0.624,-0.968 0.745,-2.16 0.364,-3.577 -0.373,-1.391 -1.068,-2.335 -2.086,-2.835 -1.019,-0.5 -2.274,-0.55 -3.768,-0.148 l -5.215,1.401 z" fill="#473467" />
        <path id="path18" d="m 484.601,766.834 -13.713,5.568 2.092,5.151 12.378,-5.026 2.106,5.188 -12.377,5.026 2.121,5.226 14.121,-5.733 2.106,5.188 -20.718,8.412 -10.534,-25.942 20.31,-8.247 z m -8.284,-10.192 -3.117,6.145 -4.892,1.986 1.399,-7.821 z" fill="#473467" />
        <path id="path20" d="m 509.658,753.477 -12.978,7.113 2.673,4.876 11.715,-6.422 2.691,4.911 -11.715,6.421 2.711,4.946 13.363,-7.325 2.692,4.91 -19.607,10.748 -13.459,-24.554 19.222,-10.536 z" fill="#473467" />
        <path id="path22" d="m 541.861,758.596 -7.947,-4.03 -0.164,0.116 -4.408,3.119 4.553,6.432 -5.813,4.113 -16.174,-22.856 10.221,-7.232 c 3.025,-2.141 5.855,-3.105 8.487,-2.894 2.632,0.211 4.85,1.591 6.651,4.138 2.496,3.526 2.846,6.953 1.053,10.281 l 10.137,4.146 z m -15.754,-5.367 4.408,-3.119 c 1.263,-0.894 2.02,-1.902 2.27,-3.026 0.249,-1.124 -0.049,-2.285 -0.896,-3.482 -0.832,-1.176 -1.812,-1.821 -2.939,-1.938 -1.128,-0.116 -2.323,0.272 -3.586,1.165 l -4.408,3.119 z" fill="#473467" />
      </g>
    </g>
  </g>
  <!-- <g id="layer16">
    <g id="filet_3_posture" style="display:inline;fill:#ffffff;stroke:none" transform="translate(36.489654)">
      <path fill="none" stroke="#009eb9" stroke-width="18" stroke-miterlimit="10" d="m 286.715,710.191 c -1.967,-0.43 -3.816,-1.115 -5.504,-2.029 l -7.873,-4.271 c -10.633,-5.762 -15.877,-16.041 -23.141,-30.258 -9.563,-18.74 -21.465,-42.051 -50.662,-57.896 l -5.439,-2.961 -57.046,-22.502 -3.821,-2.486 -0.46,-0.236 c -2.623,-1.664 -9.375,-10.75 -12.847,-18.057 -2.913,-6.225 -3.598,-9.918 -2.149,-20.793 1.167,-8.748 2.911,-15.967 4.601,-22.951 3.511,-14.535 7.143,-29.559 3.955,-52.146 -3.019,-21.42 -14.157,-38.303 -23.984,-53.201 -2.711,-4.105 -5.441,-8.223 -8.017,-12.48 -4.755,-7.863 -7.949,-14.33 -9.149,-22.293 -0.741,-4.871 0.684,-17.508 2.848,-21.57 l 4.725,-8.848 c 2.348,-3.553 17.498,-16.68 24.031,-20.695 9.965,-6.061 29.163,-21.893 38.035,-38.443 l 4.767,-8.975 c 8.248,-15.438 12.142,-47.818 12.841,-54.154 1.59,-14.518 2.072,-18.908 7.836,-29.098 5.02,-9.398 13.338,-18.846 38.157,-19.865 7.513,-0.318 13.983,0.232 20.827,0.813 13.764,1.184 27.922,2.402 47.086,-3.488 25.455,-7.807 34.488,-16.76 45.92,-28.086 3.994,-3.959 8.447,-8.369 14.43,-13.535 10.205,-8.877 16.572,-12.262 20.123,-13.545 5.223,-1.934 5.504,-1.918 7.342,-1.826 l 5,0.215 c 6.182,0.268 10.16,0.441 13.65,1.203 3.057,0.67 6.221,1.943 10.256,4.137 2.609,1.523 12.17,9.799 15.311,12.523 2.506,2.168 4.617,3.99 6.135,5.24 1.48,1.23 3.484,3.064 5.682,5.08 7.627,6.984 15.029,13.756 21.598,17.289 l 7.732,4.219 c 7.297,3.959 14.947,6.773 23.43,8.627 15.766,3.447 31.363,2.768 45.127,2.172 11.273,-0.488 21.926,-0.947 30.504,0.928 3.197,0.699 5.926,1.674 8.354,2.992 17.02,9.232 19.639,23.199 23.139,49.141 l 0.104,0.75 c 0.482,3.543 0.969,7.107 1.518,10.689 2.059,13.586 7.555,33.232 15.195,46.389 9.949,17.145 24.465,29.289 37.271,39.994 14.283,11.936 26.596,22.236 31.453,37.086 3.1,10.293 -0.441,17.531 -11.145,36.885 -1.902,3.438 -3.873,6.996 -5.891,10.789 l -15.65,29.302 c -14.045,26.324 -6.576,52.922 0.014,76.389 4.594,16.365 8.924,31.783 3.779,41.432 -8.619,16.152 -20.396,25.398 -40.637,31.9 -5.42,1.744 -10.635,3.512 -15.947,5.318 l -9.787,3.313 c -15.646,5.174 -22.473,11.43 -29.695,18.045 -2.326,2.139 -4.918,4.518 -8.348,7.252 -11.178,8.914 -18.338,23.295 -24.652,35.975 -1.518,3.045 -2.836,5.695 -4.137,8.129 l -1.887,3.547 c -16.189,30.383 -34.561,30.715 -48.756,27.611 -7.873,-1.721 -16.701,-5.223 -26.252,-10.41 l -1.949,-1.068 -34.586,-9.885 -2.219,-0.137 c -10.516,-0.633 -22.396,-0.648 -38.188,3.404 -2.328,0.598 -4.695,1.154 -7.051,1.691 -8.219,1.906 -17.498,4.051 -26.596,8.469 -6.266,3.041 -25.375,12.295 -39.311,9.25 z" id="path176-9" style="fill:#ffffff;stroke:none" />
    </g>
  </g> -->
  <g id="layer12" style="display:inline">
    <g id="filet_separation_theme" style="display:inline" transform="translate(36.489657)">
      <line fill="none" stroke="#000000" stroke-width="2" stroke-miterlimit="10" x1="388.36401" y1="591.729" x2="388.36401" y2="629.51202" id="line27" />
    </g>
  </g>
  <g id="layer11" style="display:inline">
    <g id="picto_theme" style="display:inline" transform="translate(36.489657)">
      <g id="g34">
        <path fill="none" stroke="#000000" stroke-width="2" stroke-miterlimit="10" d="m 445.45,593.697 c 2.645,2.537 5.906,4.559 9.697,6.002 3.789,1.445 8.238,2.178 13.221,2.178 4.916,0 9.348,-0.732 13.17,-2.178 3.824,-1.443 7.104,-3.463 9.746,-6.002 2.646,-2.541 4.717,-5.553 6.156,-8.945 0.629,-1.488 1.15,-3.066 1.555,-4.697 h -19.367 c -0.51,0.879 -1.023,1.607 -1.57,2.223 -2.109,2.379 -5.369,3.588 -9.689,3.588 -5.246,0 -6.664,-0.176 -9.736,-3.586 -0.557,-0.613 -1.066,-1.324 -1.594,-2.225 H 437.74 c 0.402,1.625 0.926,3.203 1.561,4.695 1.436,3.398 3.506,6.408 6.149,8.947 z" id="path30" />
        <path fill="none" stroke="#000000" stroke-width="2" stroke-miterlimit="10" d="m 499.915,636.334 c -0.201,-3.844 -1.035,-7.52 -2.477,-10.922 -1.438,-3.389 -3.506,-6.377 -6.152,-8.883 -2.641,-2.502 -5.922,-4.521 -9.75,-6.002 -3.826,-1.477 -8.256,-2.227 -13.168,-2.227 -4.977,0 -9.426,0.75 -13.219,2.227 -3.793,1.482 -7.059,3.502 -9.701,6.002 -2.643,2.502 -4.711,5.492 -6.148,8.883 -1.441,3.398 -2.275,7.072 -2.479,10.924 -0.141,3.043 -0.203,12.773 -0.203,15.961 0,0.236 0.002,0.461 0.006,0.689 l 0.002,0.072 h 18.078 l -0.002,-0.137 c -0.006,-0.275 -0.01,-0.551 -0.01,-0.834 0,-1.51 0.018,-9.703 0.055,-11.221 0.035,-1.574 0.119,-2.906 0.254,-4.074 0.139,-1.756 0.508,-3.416 1.1,-4.918 0.596,-1.506 1.449,-2.836 2.541,-3.951 1.09,-1.117 2.459,-2.012 4.064,-2.654 1.605,-0.642 3.51,-0.969 5.662,-0.969 2.152,0 4.059,0.326 5.662,0.969 1.603,0.643 2.973,1.535 4.068,2.652 1.088,1.119 1.941,2.447 2.535,3.951 0.59,1.502 0.961,3.16 1.102,4.936 0.068,1.199 0.139,2.545 0.207,4.049 0.066,1.523 0.1,9.719 0.1,11.23 0,0.248 -0.008,0.49 -0.016,0.732 -0.002,0.078 -0.004,0.156 -0.006,0.238 h 18.094 v -0.092 c 0.004,-0.221 0.008,-0.439 0.008,-0.67 0,-3.422 -0.071,-12.982 -0.207,-15.961 z" id="path32" />
      </g>
    </g>
  </g>
  <g id="layer10" style="display:inline">
    <g id="texte_picto_theme" style="display:inline" transform="translate(36.489657)">
      <g id="g57">
        <path d="m 414.523,555.6 h -3.799 v 10.025 h -3.203 V 555.6 h -3.762 v -2.592 h 10.764 z" id="path37" />
        <path d="m 425.755,555.545 h -6.66 v 2.502 h 6.012 v 2.521 h -6.012 v 2.538 h 6.857 v 2.52 H 415.89 v -12.6 h 9.865 z" id="path39" />
        <path d="m 435.331,559.037 4.519,6.588 h -3.834 l -2.719,-4.014 -2.718,4.014 h -3.726 l 4.5,-6.443 -4.213,-6.156 h 3.727 l 2.43,3.672 2.43,-3.672 h 3.763 z" id="path41" />
        <path d="m 450.865,555.6 h -3.799 v 10.025 h -3.203 V 555.6 h -3.762 v -2.592 h 10.764 z" id="path43" />
        <path d="m 462.097,555.545 h -6.66 v 2.502 h 6.012 v 2.521 h -6.012 v 2.538 h 6.857 v 2.52 h -10.063 v -12.6 h 9.865 v 2.519 z" id="path45" />
        <path d="m 478.17,555.6 h -3.798 v 10.025 h -3.204 V 555.6 h -3.763 v -2.592 h 10.765 z" id="path47" />
        <path d="m 491.167,565.625 h -3.204 v -4.896 h -5.221 v 4.896 h -3.203 v -12.6 h 3.203 v 5.184 h 5.221 v -5.184 h 3.204 z" id="path49" />
        <path d="m 503.55,555.545 h -6.66 v 2.502 h 6.012 v 2.521 h -6.012 v 2.538 h 6.857 v 2.52 h -10.062 v -12.6 h 9.864 v 2.519 z m -3.312,-3.617 h -2.375 l -2.34,-2.034 2.807,-0.99 z" id="path51" />
        <path d="m 519.66,565.625 h -2.826 l -0.018,-8.189 -3.023,6.93 h -2.088 l -3.024,-6.93 v 8.189 h -2.862 v -12.617 h 3.51 l 3.42,7.506 3.42,-7.506 h 3.492 v 12.617 z" id="path53" />
        <path d="m 532.062,555.545 h -6.66 v 2.502 h 6.012 v 2.521 h -6.012 v 2.538 h 6.857 v 2.52 h -10.062 v -12.6 h 9.864 v 2.519 z" id="path55" />
      </g>
    </g>
  </g>
  <g id="layer4" style="display:inline">
    <g transform="translate(44.489657,-2)" style="display:inline" id="filet_2_categorie">
      <path id="path129-3" d="m 278.851,712.613 c -1.966,-0.43 -3.815,-1.113 -5.504,-2.027 l -7.873,-4.273 c -10.632,-5.762 -15.877,-16.039 -23.14,-30.256 -9.563,-18.74 -21.466,-42.051 -50.663,-57.898 l -5.439,-2.961 -57.046,-22.5 -3.821,-2.486 -0.46,-0.236 c -2.624,-1.664 -9.375,-10.75 -12.847,-18.057 -2.913,-6.225 -3.598,-9.918 -2.149,-20.793 1.167,-8.746 2.911,-15.967 4.601,-22.951 3.51,-14.535 7.143,-29.559 3.955,-52.145 -3.019,-21.422 -14.157,-38.303 -23.984,-53.201 -2.711,-4.106 -5.441,-8.225 -8.017,-12.483 -4.755,-7.861 -7.949,-14.328 -9.149,-22.292 -0.741,-4.872 0.684,-17.507 2.848,-21.569 l 4.725,-8.85 c 2.348,-3.553 17.498,-16.679 24.032,-20.695 9.964,-6.061 29.163,-21.891 38.035,-38.441 l 4.766,-8.975 c 8.247,-15.439 12.143,-47.82 12.842,-54.156 1.59,-14.516 2.072,-18.908 7.837,-29.097 5.019,-9.397 13.337,-18.846 38.156,-19.864 7.513,-0.318 13.983,0.232 20.827,0.812 13.764,1.185 27.922,2.401 47.087,-3.487 25.455,-7.809 34.487,-16.76 45.92,-28.087 3.993,-3.958 8.447,-8.368 14.43,-13.534 10.205,-8.877 16.571,-12.264 20.122,-13.547 5.223,-1.933 5.504,-1.917 7.343,-1.824 l 5,0.213 c 6.181,0.27 10.159,0.441 13.649,1.205 3.057,0.668 6.221,1.942 10.257,4.135 2.608,1.523 12.169,9.801 15.31,12.523 2.506,2.168 4.617,3.992 6.135,5.24 1.48,1.232 3.484,3.063 5.682,5.081 7.628,6.983 15.029,13.757 21.598,17.29 l 7.732,4.219 c 7.297,3.957 14.947,6.772 23.431,8.627 15.765,3.445 31.362,2.767 45.126,2.17 11.274,-0.487 21.926,-0.945 30.504,0.929 3.198,0.7 5.927,1.675 8.354,2.992 17.02,9.232 19.639,23.2 23.139,49.14 l 0.104,0.75 c 0.482,3.544 0.968,7.109 1.517,10.689 2.059,13.588 7.555,33.234 15.195,46.391 9.949,17.144 24.465,29.289 37.272,39.992 14.283,11.937 26.596,22.237 31.452,37.086 3.1,10.295 -0.44,17.531 -11.144,36.885 -1.903,3.439 -3.874,6.998 -5.892,10.79 l -15.65,29.305 c -14.044,26.324 -6.576,52.92 0.015,76.387 4.593,16.367 8.924,31.783 3.778,41.434 -8.619,16.15 -20.396,25.395 -40.637,31.896 -5.42,1.746 -10.635,3.514 -15.947,5.32 l -9.787,3.313 c -15.646,5.174 -22.473,11.428 -29.695,18.041 -2.326,2.143 -4.917,4.521 -8.347,7.254 -11.179,8.914 -18.339,23.297 -24.653,35.977 -1.518,3.045 -2.836,5.695 -4.136,8.129 l -1.888,3.547 c -16.189,30.383 -34.56,30.715 -48.756,27.611 -7.873,-1.721 -16.701,-5.225 -26.251,-10.41 l -1.95,-1.07 -34.586,-9.883 -2.219,-0.137 c -10.516,-0.633 -22.396,-0.648 -38.187,3.404 -2.329,0.596 -4.696,1.154 -7.052,1.691 -8.219,1.906 -17.497,4.051 -26.596,8.467 -6.266,3.041 -25.375,12.297 -39.311,9.25 z" stroke-miterlimit="10" stroke-width="27" stroke="#009eb9" fill="none" opacity="0.2" />
    </g>
  </g>
  <g id="layer9" style="display:inline">
    <g id="picto_categorie" style="display:inline" transform="translate(36.489657)">
      <g id="g68">
        <path fill="none" stroke="#000000" stroke-width="2" stroke-miterlimit="10" d="m 297.282,646.105 c 0,0.783 -0.635,1.418 -1.417,1.418 h -14.181 c -0.783,0 -1.418,-0.635 -1.418,-1.418 v -28.381 c 0,-0.781 0.635,-1.416 1.418,-1.416 h 14.181 c 0.782,0 1.417,0.635 1.417,1.416 z" id="path60" />
        <circle fill="none" stroke="#000000" stroke-width="2" stroke-miterlimit="10" cx="287.78299" cy="641.05103" r="3.0280001" id="circle62" />
        <path fill="none" stroke="#000000" stroke-width="2" stroke-miterlimit="10" d="m 297.7,643.973 c 0,0 2.506,3.445 10.127,3.236 7.621,-0.209 15.868,0 15.868,0 0,0 8.247,-0.834 10.022,-9.291 l 4.07,-13.885 c 1.775,-6.682 -6.576,-6.264 -6.264,-6.367 0.313,-0.105 -12.109,0 -12.109,0 0,0 3.55,-13.467 -6.891,-16.809 0,0 -3.758,-1.773 -3.549,3.027 v 4.594 c 0,0 0.104,2.609 -2.192,4.803 -2.297,2.191 -9.396,7.307 -9.396,7.307" id="path64" />
        <path fill="none" stroke="#000000" stroke-width="2" stroke-miterlimit="10" d="m 319.579,608.385 v -3.998 c -13.656,-8.568 -3.998,-18.902 0.936,-18.902 v 8.309 h 9.242 c 0,0 0,-6.18 0,-8.566 5.867,0 15.214,11.059 1.246,18.9 v 13.553" id="path66" />
      </g>
    </g>
  </g>
  <g id="layer8" style="display:inline">
    <g id="texte_picto_categorie" style="display:inline" transform="translate(36.489657)">
      <g id="g95">
        <path d="m 249.846,552.881 c 1.884,0 3.54,0.469 4.968,1.404 l -1.206,2.502 c -0.66,-0.383 -1.368,-0.699 -2.124,-0.945 -0.756,-0.245 -1.393,-0.368 -1.908,-0.368 -0.924,0 -1.386,0.306 -1.386,0.918 0,0.396 0.228,0.714 0.684,0.954 0.456,0.24 1.011,0.447 1.665,0.621 0.654,0.174 1.308,0.384 1.962,0.63 0.654,0.246 1.209,0.646 1.665,1.196 0.456,0.553 0.684,1.248 0.684,2.088 0,1.213 -0.474,2.158 -1.422,2.836 -0.948,0.678 -2.154,1.017 -3.618,1.017 -1.044,0 -2.076,-0.18 -3.096,-0.54 -1.021,-0.359 -1.908,-0.852 -2.664,-1.477 l 1.242,-2.465 c 0.636,0.552 1.386,1.005 2.25,1.358 0.864,0.354 1.632,0.531 2.304,0.531 0.516,0 0.918,-0.093 1.206,-0.279 0.288,-0.186 0.432,-0.459 0.432,-0.819 0,-0.348 -0.166,-0.639 -0.495,-0.873 -0.33,-0.233 -0.741,-0.407 -1.233,-0.521 -0.492,-0.113 -1.026,-0.268 -1.602,-0.459 -0.576,-0.191 -1.11,-0.402 -1.602,-0.63 -0.492,-0.228 -0.903,-0.591 -1.233,-1.089 -0.331,-0.498 -0.495,-1.096 -0.495,-1.791 0,-1.152 0.459,-2.073 1.377,-2.764 0.918,-0.689 2.133,-1.035 3.645,-1.035 z" id="path71" />
        <path d="m 264.912,563.304 h -5.508 l -0.918,2.321 h -3.294 l 5.436,-12.6 h 3.294 l 5.31,12.6 h -3.42 z m -0.936,-2.431 -1.8,-4.662 -1.836,4.662 z" id="path73" />
        <path d="m 276.36,565.625 h -3.312 l -4.896,-12.6 h 3.42 l 3.222,9.27 3.222,-9.27 h 3.294 z" id="path75" />
        <path d="m 288.492,552.918 c 1.956,0 3.582,0.609 4.878,1.826 1.296,1.219 1.944,2.739 1.944,4.563 0,1.836 -0.651,3.372 -1.953,4.608 -1.302,1.235 -2.925,1.854 -4.869,1.854 -1.944,0 -3.564,-0.615 -4.86,-1.846 -1.296,-1.229 -1.944,-2.768 -1.944,-4.616 0,-1.836 0.648,-3.36 1.944,-4.572 1.296,-1.212 2.916,-1.817 4.86,-1.817 z m 0.036,2.682 c -0.984,0 -1.824,0.357 -2.52,1.07 -0.696,0.715 -1.044,1.6 -1.044,2.656 0,1.055 0.351,1.946 1.053,2.672 0.702,0.727 1.539,1.09 2.511,1.09 0.972,0 1.797,-0.363 2.475,-1.09 0.678,-0.726 1.017,-1.617 1.017,-2.672 0,-1.057 -0.339,-1.941 -1.017,-2.656 -0.678,-0.713 -1.503,-1.07 -2.475,-1.07 z" id="path77" />
        <path d="m 300.209,565.625 h -3.204 v -12.6 h 3.204 z" id="path79" />
        <path d="m 310.325,565.625 -1.872,-3.545 h -0.09 -2.43 v 3.545 h -3.204 v -12.6 h 5.634 c 1.668,0 2.958,0.381 3.87,1.143 0.912,0.763 1.368,1.846 1.368,3.25 0,1.943 -0.762,3.293 -2.286,4.049 l 2.646,4.158 z m -4.392,-6.065 h 2.43 c 0.696,0 1.236,-0.174 1.62,-0.522 0.384,-0.348 0.576,-0.852 0.576,-1.512 0,-0.648 -0.192,-1.14 -0.576,-1.477 -0.384,-0.335 -0.924,-0.504 -1.62,-0.504 h -2.43 z" id="path81" />
        <path d="m 320.244,561.09 h -4.752 v -1.963 h 4.752 z" id="path83" />
        <path d="m 331.835,555.545 h -6.138 v 2.916 h 5.652 v 2.521 h -5.652 v 4.644 h -3.204 v -12.6 h 9.342 z" id="path85" />
        <path d="m 341.123,563.304 h -5.508 l -0.918,2.321 h -3.294 l 5.436,-12.6 h 3.294 l 5.31,12.6 h -3.42 z m -0.936,-2.431 -1.8,-4.662 -1.836,4.662 z" id="path87" />
        <path d="m 349.817,565.625 h -3.204 v -12.6 h 3.204 z" id="path89" />
        <path d="m 359.933,565.625 -1.872,-3.545 h -0.09 -2.43 v 3.545 h -3.204 v -12.6 h 5.634 c 1.668,0 2.958,0.381 3.87,1.143 0.912,0.763 1.368,1.846 1.368,3.25 0,1.943 -0.762,3.293 -2.286,4.049 l 2.646,4.158 z m -4.392,-6.065 h 2.43 c 0.696,0 1.236,-0.174 1.62,-0.522 0.384,-0.348 0.576,-0.852 0.576,-1.512 0,-0.648 -0.192,-1.14 -0.576,-1.477 -0.384,-0.335 -0.924,-0.504 -1.62,-0.504 h -2.43 z" id="path91" />
        <path d="m 375.234,555.545 h -6.66 v 2.502 h 6.012 v 2.521 h -6.012 v 2.538 h 6.857 v 2.52 h -10.062 v -12.6 h 9.865 z" id="path93" />
      </g>
    </g>
  </g>
  <g id="layer7" style="display:inline">
    <g id="fond_categorie" style="display:inline" transform="translate(36.489657)">
      <path fill="#009eb9" d="m 128.298,403.34 0.367,0.555 c 10.994,16.67 24.678,37.414 28.636,65.511 3.407,24.146 0.464,41.867 -2.826,56.297 h 458.422 c -6.703,-24.979 -12.773,-56.896 4.824,-89.879 l 15.629,-29.263 c 2.139,-4.018 4.166,-7.682 6.121,-11.215 2.313,-4.178 6.283,-11.361 7.943,-15.227 -3.25,-6.174 -11.66,-13.203 -21.236,-21.205 -13.973,-11.68 -31.363,-26.213 -43.975,-47.945 -10.273,-17.688 -16.611,-41.74 -18.906,-56.902 -0.59,-3.834 -1.098,-7.576 -1.578,-11.107 l -0.123,-0.875 c -1.365,-10.117 -2.648,-18.867 -4.543,-23.512 -0.605,-1.48 -0.801,-1.961 -2.959,-3.154 -0.115,-0.037 -0.33,-0.098 -0.666,-0.17 -2.025,-0.443 -5.209,-0.668 -9.461,-0.668 -4.029,0 -8.551,0.195 -13.369,0.404 -5.547,0.24 -11.834,0.514 -18.402,0.514 -13.016,0 -23.945,-1.064 -34.396,-3.35 -11.279,-2.467 -21.525,-6.248 -31.395,-11.6 l -7.662,-4.182 c -9.832,-5.309 -18.842,-13.557 -27.58,-21.559 -1.404,-1.287 -3.514,-3.225 -4.545,-4.088 -1.738,-1.432 -3.848,-3.252 -6.641,-5.67 -6.875,-5.961 -10.01,-8.504 -11.318,-9.525 -0.611,-0.301 -0.975,-0.451 -1.143,-0.516 -1.299,-0.209 -5.059,-0.371 -8.389,-0.516 l -0.984,-0.043 c -1.16,0.633 -4.564,2.693 -10.506,7.861 l -0.082,0.072 c -5.254,4.537 -9.148,8.396 -12.93,12.146 -12.643,12.525 -25.715,25.477 -58.215,35.445 -12.861,3.951 -25.053,5.791 -38.369,5.791 -7.416,0 -14.154,-0.58 -20.133,-1.094 -5.021,-0.426 -9.359,-0.793 -13.762,-0.793 -1.09,0 -2.133,0.021 -3.232,0.068 -9.148,0.377 -11.795,2.23 -11.811,2.246 -0.014,0.012 -0.35,0.346 -1.113,1.775 l -0.172,0.322 -0.18,0.314 c -2.729,4.824 -2.729,4.824 -4.129,17.619 -1.803,16.322 -6.303,46.473 -16.166,64.938 l -4.82,9.076 c -12.647,23.594 -37.37,42.869 -48.779,49.834 -2.847,1.791 -11.133,8.719 -14.946,12.41 l -1.93,3.615 c -0.311,1.688 -0.594,4.277 -0.624,5.813 0.451,2.135 1.584,4.799 5.022,10.482 2.157,3.569 4.525,7.155 7.032,10.95 z" id="path98" />
    </g>
  </g>
  <g id="layer6" style="display:inline">
    <g id="picto_posture" style="display:inline" transform="translate(36.489657)">
      <g id="g155">
        <g id="g107">
          <g id="g105">
            <g id="g103">
              <path fill="#473467" d="m 411.833,67.489 c 0,0 0,2.135 -2.137,2.135 2.137,0 2.137,2.139 2.137,2.139 0,0 0,-2.139 2.137,-2.139 -2.137,0 -2.137,-2.135 -2.137,-2.135 z" id="path101" />
            </g>
          </g>
        </g>
        <g id="g153">
          <g id="g111">
            <path fill="#473467" d="m 379.303,106.545 -0.514,-0.873 c -0.006,-0.002 -0.01,-0.002 -0.014,-0.002 l -0.729,0.703 -1.834,-1.068 0.256,-0.982 c -0.004,-0.002 -0.006,-0.006 -0.008,-0.01 l -1.014,-0.018 -0.539,-2.053 0.875,-0.512 v -0.008 l -0.705,-0.73 1.068,-1.83 0.982,0.254 c 0.002,-0.002 0.006,-0.004 0.008,-0.006 l 0.018,-1.02 2.051,-0.539 0.518,0.877 c 0.002,0 0.006,0.002 0.01,0.002 l 0.732,-0.709 1.832,1.068 -0.256,0.988 c 0,0 0.002,0.002 0.002,0.004 l 1.02,0.016 0.543,2.053 -0.879,0.518 -0.002,0.006 0.707,0.732 -1.068,1.834 -0.984,-0.256 c -0.002,0.002 -0.004,0.004 -0.008,0.006 l -0.016,1.016 z m -0.826,-3.021 0.309,0.104 c 0.176,0.059 0.359,0.086 0.543,0.074 l 0.314,-0.016 0.289,-0.146 c 0.166,-0.082 0.313,-0.193 0.438,-0.33 l 0.211,-0.234 0.102,-0.305 c 0.059,-0.178 0.082,-0.359 0.074,-0.543 l -0.016,-0.318 -0.145,-0.285 c -0.084,-0.164 -0.195,-0.313 -0.33,-0.436 l -0.234,-0.213 -0.309,-0.102 c -0.176,-0.059 -0.352,-0.078 -0.541,-0.074 l -0.318,0.016 -0.285,0.145 c -0.166,0.082 -0.314,0.195 -0.439,0.332 l -0.211,0.232 -0.102,0.307 c -0.057,0.176 -0.082,0.355 -0.072,0.539 l 0.016,0.318 0.143,0.287 c 0.082,0.164 0.195,0.313 0.332,0.438 z" id="path109" />
          </g>
          <g id="g115">
            <path fill="#473467" d="m 393.635,52.293 0.145,1.662 h 0.91 l 0.127,-1.654 c 0.207,-0.01 0.412,-0.023 0.619,-0.041 l 0.387,1.607 0.898,-0.137 -0.119,-1.637 c 0.313,-0.061 0.623,-0.131 0.93,-0.215 l 0.658,1.494 0.859,-0.293 -0.4,-1.566 c 0.207,-0.078 0.412,-0.162 0.615,-0.252 l 0.861,1.359 0.807,-0.422 -0.621,-1.461 c 0.23,-0.129 0.455,-0.266 0.678,-0.41 l 1.047,1.176 0.729,-0.545 -0.83,-1.313 c 0.199,-0.16 0.395,-0.326 0.584,-0.498 l 1.197,0.975 0.633,-0.654 -1.008,-1.141 c 0.148,-0.162 0.293,-0.33 0.432,-0.502 l 1.303,0.77 0.527,-0.74 -1.143,-0.957 c 0.113,-0.172 0.225,-0.348 0.33,-0.525 l 1.4,0.502 0.395,-0.775 -1.23,-0.779 c 0.096,-0.203 0.186,-0.406 0.27,-0.611 l 1.43,0.277 0.273,-0.824 -1.307,-0.574 c 0.076,-0.258 0.143,-0.516 0.203,-0.777 l 1.418,0.045 0.137,-0.859 -1.35,-0.346 c 0.033,-0.262 0.059,-0.52 0.074,-0.779 l 1.375,-0.178 -0.002,-0.869 -1.355,-0.127 C 406.513,39.474 406.5,39.25 406.48,39.027 l 1.305,-0.375 -0.131,-0.859 -1.334,0.076 c -0.063,-0.338 -0.141,-0.672 -0.23,-1.004 l 1.184,-0.582 -0.279,-0.822 -1.266,0.303 c -0.084,-0.225 -0.176,-0.445 -0.275,-0.664 l 1.07,-0.746 -0.4,-0.77 -1.191,0.484 c -0.141,-0.248 -0.291,-0.492 -0.449,-0.73 l 0.92,-0.891 -0.52,-0.697 -1.082,0.66 c -0.172,-0.213 -0.354,-0.422 -0.541,-0.623 l 0.758,-1.016 -0.625,-0.605 -0.955,0.816 c -0.176,-0.156 -0.357,-0.309 -0.545,-0.455 l 0.594,-1.111 -0.709,-0.504 -0.818,0.947 c -0.193,-0.125 -0.391,-0.246 -0.592,-0.361 l 0.422,-1.176 -0.775,-0.396 -0.668,1.053 c -0.223,-0.102 -0.449,-0.195 -0.676,-0.281 l 0.24,-1.234 -0.826,-0.273 -0.504,1.146 c -0.279,-0.076 -0.559,-0.145 -0.84,-0.201 l 0.037,-1.262 -0.859,-0.137 -0.314,1.225 c -0.273,-0.029 -0.549,-0.049 -0.822,-0.059 l -0.166,-1.266 -0.867,0.002 -0.119,1.273 c -0.234,0.014 -0.467,0.035 -0.699,0.061 l -0.355,-1.24 -0.859,0.129 0.074,1.299 c -0.342,0.072 -0.68,0.16 -1.012,0.26 l -0.582,-1.182 -0.822,0.279 0.309,1.291 c -0.217,0.09 -0.43,0.184 -0.641,0.285 l -0.766,-1.1 -0.771,0.4 0.51,1.252 c -0.236,0.143 -0.467,0.291 -0.691,0.449 l -0.955,-0.984 -0.697,0.521 0.723,1.18 c -0.197,0.17 -0.389,0.344 -0.576,0.525 l -1.123,-0.84 -0.605,0.625 0.922,1.078 c -0.139,0.164 -0.275,0.334 -0.406,0.506 l -1.266,-0.678 -0.506,0.707 1.1,0.951 c -0.111,0.182 -0.219,0.365 -0.322,0.553 l -1.357,-0.553 -0.414,0.811 1.268,0.779 c -0.092,0.211 -0.178,0.424 -0.256,0.641 l -1.453,-0.348 -0.287,0.863 1.395,0.586 c -0.068,0.264 -0.129,0.525 -0.18,0.791 l -1.523,-0.111 -0.143,0.898 1.502,0.361 c -0.023,0.256 -0.039,0.512 -0.047,0.766 l -1.555,0.137 0.002,0.908 1.574,0.121 c 0.014,0.215 0.033,0.428 0.059,0.639 l -1.547,0.373 0.137,0.9 1.604,-0.117 c 0.068,0.314 0.148,0.629 0.242,0.938 l -1.492,0.654 0.293,0.861 1.592,-0.406 c 0.082,0.199 0.168,0.398 0.262,0.594 l -1.389,0.881 0.42,0.807 1.523,-0.646 c 0.129,0.219 0.268,0.434 0.412,0.645 l -1.24,1.104 0.545,0.729 1.41,-0.891 c 0.154,0.186 0.316,0.367 0.484,0.543 l -1.059,1.299 0.654,0.633 1.258,-1.111 c 0.154,0.133 0.313,0.262 0.473,0.389 l -0.857,1.449 0.74,0.529 1.084,-1.293 c 0.162,0.104 0.328,0.203 0.498,0.299 l -0.641,1.572 0.811,0.412 0.887,-1.441 c 0.193,0.088 0.389,0.17 0.586,0.246 l -0.393,1.643 0.863,0.287 0.654,-1.551 c 0.244,0.066 0.488,0.129 0.734,0.182 l -0.121,1.676 0.898,0.145 0.391,-1.627 c 0.234,0.025 0.476,0.045 0.718,0.058 z m -0.437,-2.607 1.09,-6.287 c 1.078,-0.029 2.109,-0.619 2.656,-1.637 l -0.283,0.527 5.572,2.982 c -1.951,3.157 -5.512,4.794 -9.035,4.415 z m 9.562,-5.387 -5.576,-2.986 -0.24,0.449 c 0.543,-1.014 0.463,-2.193 -0.104,-3.105 l 4.668,-4.348 c 2.248,2.742 2.832,6.621 1.252,9.99 z m -9.664,-4.597 c 0.33,-0.615 1.096,-0.846 1.711,-0.518 0.615,0.33 0.848,1.096 0.518,1.711 -0.33,0.617 -1.096,0.848 -1.711,0.52 -0.615,-0.331 -0.848,-1.096 -0.518,-1.713 z m 5.571,-7.725 c 0.783,0.42 1.482,0.934 2.092,1.52 l -4.662,4.342 c -0.131,-0.1 -0.271,-0.189 -0.422,-0.271 -0.686,-0.367 -1.447,-0.449 -2.15,-0.289 l -2.611,-5.822 c 2.45,-0.915 5.264,-0.812 7.753,0.52 z m -12.778,3.867 c 0.941,-1.76 2.359,-3.098 4.01,-3.943 l 2.607,5.809 c -0.418,0.275 -0.775,0.654 -1.029,1.127 -0.219,0.41 -0.336,0.848 -0.361,1.285 l -6.311,0.99 c -0.154,-1.764 0.186,-3.592 1.084,-5.268 z m 3.865,12.778 c -2.568,-1.377 -4.242,-3.77 -4.789,-6.416 l 6.285,-0.986 c 0.234,0.75 0.75,1.412 1.496,1.813 0.146,0.078 0.297,0.143 0.449,0.195 l -1.09,6.275 c -0.8,-0.182 -1.591,-0.475 -2.351,-0.881 z" id="path113" />
          </g>
          <g id="g119">
            <path fill="#473467" d="m 382.862,61.553 c 0.467,0.08 0.947,0.092 1.432,0.027 l 0.828,0.955 c 0.232,-0.059 0.455,-0.131 0.682,-0.215 0.225,-0.09 0.443,-0.195 0.648,-0.307 l -0.037,-1.264 c 0.398,-0.283 0.744,-0.619 1.031,-0.99 l 1.264,0.084 c 0.242,-0.41 0.432,-0.848 0.572,-1.307 l -0.924,-0.867 c 0.074,-0.467 0.09,-0.947 0.027,-1.426 l 0.955,-0.832 c -0.063,-0.227 -0.131,-0.455 -0.219,-0.678 -0.09,-0.227 -0.191,-0.441 -0.303,-0.648 l -1.264,0.039 c -0.281,-0.396 -0.617,-0.742 -0.988,-1.029 l 0.088,-1.266 c -0.414,-0.238 -0.852,-0.43 -1.307,-0.568 l -0.873,0.92 c -0.463,-0.08 -0.943,-0.092 -1.43,-0.027 l -0.832,-0.953 c -0.223,0.057 -0.455,0.129 -0.68,0.215 -0.225,0.09 -0.439,0.193 -0.65,0.305 l 0.047,1.264 c -0.404,0.285 -0.746,0.617 -1.033,0.994 l -1.264,-0.086 c -0.242,0.408 -0.434,0.85 -0.574,1.305 l 0.924,0.867 c -0.08,0.469 -0.09,0.945 -0.025,1.43 L 378,58.323 c 0.061,0.229 0.131,0.455 0.221,0.682 0.088,0.227 0.191,0.441 0.301,0.646 l 1.264,-0.039 c 0.279,0.395 0.615,0.74 0.99,1.029 l -0.088,1.262 c 0.412,0.246 0.852,0.434 1.311,0.572 z m -2.84,-4.84 c 0.086,-2.016 1.789,-3.578 3.803,-3.494 2.016,0.086 3.58,1.789 3.494,3.803 -0.086,2.016 -1.789,3.58 -3.803,3.494 -2.016,-0.086 -3.58,-1.787 -3.494,-3.803 z" id="path117" />
          </g>
          <g id="g123">
            <path fill="#473467" d="m 376.741,112.02 1.254,0.229 0.74,-1.592 c 0.395,0.02 0.789,0.012 1.18,-0.023 l 0.803,1.563 1.244,-0.277 0.064,-1.756 c 0.336,-0.121 0.662,-0.262 0.982,-0.428 l 1.33,1.146 1.049,-0.727 -0.602,-1.648 c 0.289,-0.262 0.563,-0.545 0.818,-0.852 l 1.689,0.551 0.684,-1.078 -1.213,-1.295 c 0.152,-0.328 0.283,-0.662 0.393,-1 l 1.75,-0.129 0.229,-1.256 -1.592,-0.74 c 0.02,-0.395 0.012,-0.789 -0.025,-1.18 l 1.564,-0.803 -0.277,-1.244 -1.756,-0.064 c -0.121,-0.334 -0.264,-0.662 -0.428,-0.982 l 1.146,-1.328 -0.727,-1.051 -1.648,0.602 c -0.262,-0.289 -0.547,-0.563 -0.852,-0.818 l 0.549,-1.688 -1.076,-0.686 -1.297,1.213 c -0.326,-0.152 -0.66,-0.283 -0.998,-0.391 l -0.131,-1.752 -1.256,-0.229 -0.74,1.594 c -0.393,-0.021 -0.787,-0.014 -1.178,0.023 l -0.803,-1.564 -1.246,0.277 -0.063,1.756 c -0.336,0.121 -0.664,0.264 -0.982,0.428 l -1.33,-1.145 -1.051,0.725 0.604,1.648 c -0.289,0.262 -0.564,0.545 -0.818,0.852 l -1.689,-0.549 -0.684,1.076 1.213,1.297 c -0.154,0.326 -0.283,0.66 -0.393,0.998 l -1.75,0.133 -0.229,1.254 1.592,0.74 c -0.02,0.393 -0.012,0.787 0.023,1.178 l -1.563,0.803 0.277,1.246 1.756,0.063 c 0.121,0.336 0.264,0.664 0.428,0.982 l -1.146,1.33 0.727,1.051 1.648,-0.602 c 0.262,0.289 0.545,0.563 0.852,0.816 l -0.551,1.689 1.078,0.684 1.295,-1.213 c 0.328,0.154 0.662,0.283 1,0.393 z m -4.797,-10.049 c 0.168,-3.986 3.539,-7.084 7.527,-6.914 3.986,0.17 7.084,3.539 6.914,7.527 -0.17,3.988 -3.539,7.084 -7.527,6.914 -3.988,-0.167 -7.084,-3.539 -6.914,-7.527 z" id="path121" />
          </g>
          <g id="g127">
            <path fill="#473467" d="m 387.143,94.913 1.945,0.678 1.578,-2.355 c 0.625,0.129 1.256,0.213 1.889,0.254 l 0.889,2.693 2.057,-0.131 0.539,-2.787 c 0.564,-0.109 1.125,-0.256 1.674,-0.438 l 1.838,2.158 1.855,-0.896 -0.551,-2.779 c 0.527,-0.346 1.035,-0.73 1.518,-1.156 l 2.559,1.299 1.359,-1.549 -1.613,-2.371 c 0.326,-0.482 0.617,-0.982 0.875,-1.494 l 2.824,0.227 0.678,-1.945 -2.355,-1.578 c 0.129,-0.625 0.215,-1.256 0.254,-1.889 l 2.695,-0.891 -0.133,-2.055 -2.785,-0.539 c -0.111,-0.564 -0.256,-1.125 -0.439,-1.672 l 2.16,-1.84 -0.898,-1.857 -2.781,0.551 c -0.346,-0.525 -0.73,-1.035 -1.154,-1.518 l 1.297,-2.559 -1.547,-1.359 -2.371,1.615 c -0.484,-0.328 -0.984,-0.619 -1.496,-0.875 l 0.227,-2.826 -1.945,-0.678 -1.578,2.355 c -0.623,-0.129 -1.254,-0.215 -1.887,-0.256 l -0.891,-2.693 -2.057,0.131 -0.539,2.787 c -0.564,0.109 -1.123,0.256 -1.674,0.439 l -1.838,-2.16 -1.855,0.896 0.551,2.781 c -0.527,0.346 -1.033,0.73 -1.518,1.154 l -2.557,-1.297 -1.361,1.547 1.615,2.371 c -0.328,0.484 -0.619,0.984 -0.875,1.496 l -2.826,-0.229 -0.678,1.947 2.357,1.578 c -0.131,0.623 -0.215,1.254 -0.256,1.887 l -2.695,0.893 0.133,2.055 2.785,0.537 c 0.111,0.566 0.258,1.125 0.439,1.674 l -2.16,1.838 0.898,1.855 2.779,-0.549 c 0.346,0.525 0.73,1.033 1.156,1.518 l -1.299,2.557 1.549,1.361 2.369,-1.615 c 0.484,0.328 0.984,0.619 1.496,0.875 z m -3.197,-16.838 c 1.047,-5.24 6.145,-8.643 11.387,-7.594 5.24,1.045 8.643,6.143 7.596,11.385 -1.047,5.244 -6.145,8.643 -11.387,7.596 -5.242,-1.047 -8.643,-6.143 -7.596,-11.387 z" id="path125" />
          </g>
          <g id="g131">
            <path fill="#473467" d="m 372.387,92.426 0.854,1.346 1.162,-0.35 -0.027,-1.596 c 0.533,-0.291 1.014,-0.68 1.414,-1.152 l 1.559,0.35 0.576,-1.068 -1.15,-1.111 c 0.176,-0.605 0.232,-1.217 0.184,-1.813 l 1.352,-0.857 -0.348,-1.162 -1.604,0.027 c -0.291,-0.531 -0.678,-1.01 -1.146,-1.408 l 0.348,-1.563 -1.066,-0.576 -1.113,1.15 c -0.605,-0.178 -1.221,-0.234 -1.816,-0.186 l -0.857,-1.348 -1.16,0.35 0.027,1.598 c -0.535,0.293 -1.016,0.682 -1.416,1.152 l -1.553,-0.346 -0.576,1.066 1.146,1.109 c -0.176,0.604 -0.232,1.215 -0.186,1.807 l -1.344,0.854 0.348,1.162 1.592,-0.027 c 0.291,0.537 0.682,1.021 1.154,1.422 l -0.348,1.553 1.068,0.574 1.105,-1.145 c 0.608,0.18 1.224,0.237 1.821,0.188 z m -1.869,-5.047 c 0.033,-0.807 0.715,-1.434 1.521,-1.398 0.807,0.033 1.432,0.715 1.398,1.521 -0.035,0.807 -0.717,1.432 -1.523,1.398 -0.806,-0.034 -1.431,-0.714 -1.396,-1.521 z" id="path129" />
          </g>
          <g id="g135">
            <path fill="#473467" d="m 364.342,79.924 0.107,1.709 0.918,0.021 0.172,-1.703 c 0.217,-0.004 0.43,-0.016 0.643,-0.031 l 0.363,1.668 0.912,-0.119 -0.088,-1.697 c 0.254,-0.045 0.504,-0.096 0.75,-0.156 l 0.625,1.578 0.879,-0.264 -0.357,-1.65 c 0.234,-0.08 0.463,-0.168 0.689,-0.262 l 0.859,1.449 0.828,-0.4 -0.609,-1.561 c 0.184,-0.098 0.365,-0.201 0.543,-0.309 l 1.059,1.293 0.758,-0.52 -0.826,-1.436 c 0.258,-0.193 0.508,-0.393 0.75,-0.604 l 1.254,1.07 0.654,-0.643 -1.051,-1.25 c 0.154,-0.162 0.303,-0.328 0.447,-0.498 l 1.381,0.857 0.549,-0.734 -1.207,-1.059 c 0.152,-0.219 0.299,-0.441 0.436,-0.67 l 1.471,0.611 0.424,-0.816 -1.334,-0.83 c 0.113,-0.232 0.217,-0.469 0.314,-0.709 l 1.516,0.361 0.289,-0.871 -1.416,-0.596 c 0.063,-0.213 0.121,-0.43 0.172,-0.646 l 1.523,0.129 0.154,-0.904 -1.459,-0.371 c 0.029,-0.205 0.053,-0.412 0.07,-0.621 l 1.494,-0.158 0.02,-0.877 -1.463,-0.172 c -0.002,-0.225 -0.01,-0.449 -0.023,-0.672 l 1.424,-0.375 -0.113,-0.869 -1.441,0.051 c -0.043,-0.27 -0.096,-0.533 -0.154,-0.797 l 1.309,-0.582 -0.252,-0.842 -1.379,0.275 c -0.084,-0.248 -0.176,-0.494 -0.273,-0.738 l 1.172,-0.766 -0.383,-0.789 -1.289,0.48 c -0.105,-0.201 -0.217,-0.4 -0.334,-0.594 l 1.023,-0.914 -0.494,-0.723 -1.182,0.654 c -0.205,-0.281 -0.422,-0.551 -0.648,-0.811 l 0.822,-1.051 -0.617,-0.625 -1.018,0.828 c -0.176,-0.166 -0.355,-0.326 -0.541,-0.482 l 0.646,-1.146 -0.703,-0.523 -0.871,0.961 c -0.236,-0.164 -0.479,-0.32 -0.727,-0.467 l 0.445,-1.215 -0.779,-0.404 -0.693,1.074 c -0.252,-0.119 -0.506,-0.229 -0.768,-0.33 l 0.244,-1.256 -0.832,-0.275 -0.51,1.162 c -0.23,-0.066 -0.463,-0.125 -0.697,-0.178 l 0.053,-1.27 -0.865,-0.148 -0.33,1.221 c -0.23,-0.029 -0.461,-0.053 -0.695,-0.068 l -0.133,-1.256 -0.877,-0.02 -0.146,1.25 c -0.248,0.006 -0.494,0.02 -0.738,0.039 l -0.324,-1.227 -0.869,0.115 0.045,1.264 c -0.289,0.051 -0.574,0.113 -0.855,0.184 l -0.518,-1.162 -0.842,0.252 0.25,1.25 c -0.262,0.094 -0.52,0.197 -0.773,0.307 l -0.703,-1.076 -0.791,0.383 0.451,1.209 c -0.207,0.115 -0.41,0.236 -0.609,0.363 l -0.869,-0.973 -0.723,0.496 0.637,1.146 c -0.279,0.215 -0.549,0.443 -0.807,0.68 l -1.047,-0.82 -0.625,0.615 0.846,1.039 c -0.158,0.176 -0.309,0.355 -0.457,0.539 l -1.18,-0.664 -0.525,0.703 1.014,0.916 c -0.152,0.23 -0.297,0.471 -0.434,0.711 l -1.299,-0.477 -0.406,0.781 1.174,0.756 c -0.105,0.238 -0.203,0.482 -0.293,0.729 l -1.391,-0.27 -0.275,0.832 1.311,0.578 c -0.055,0.209 -0.104,0.422 -0.146,0.637 l -1.449,-0.061 -0.148,0.865 1.416,0.383 c -0.021,0.213 -0.039,0.428 -0.051,0.643 l -1.477,0.094 -0.021,0.918 1.492,0.152 c 0.01,0.232 0.027,0.465 0.049,0.695 l -1.473,0.32 0.119,0.912 1.523,-0.078 c 0.053,0.27 0.113,0.535 0.184,0.797 l -1.434,0.568 0.264,0.879 1.525,-0.33 c 0.09,0.242 0.188,0.482 0.293,0.717 l -1.355,0.805 0.4,0.826 1.484,-0.58 c 0.107,0.189 0.219,0.375 0.334,0.557 l -1.244,1.018 0.52,0.758 1.406,-0.811 c 0.201,0.258 0.412,0.508 0.631,0.748 l -1.068,1.25 0.645,0.654 1.268,-1.068 c 0.162,0.146 0.33,0.287 0.498,0.426 l -0.875,1.408 0.736,0.551 1.1,-1.256 c 0.215,0.143 0.434,0.277 0.658,0.406 l -0.643,1.549 0.814,0.424 0.891,-1.43 c 0.223,0.1 0.449,0.193 0.68,0.281 l -0.393,1.645 0.871,0.289 0.658,-1.563 c 0.197,0.053 0.398,0.102 0.6,0.146 l -0.145,1.695 0.906,0.154 0.418,-1.65 c 0.19,0.029 0.385,0.047 0.58,0.06 z m -8.968,-12.486 c 0.23,-5.436 4.826,-9.656 10.262,-9.426 5.438,0.23 9.658,4.824 9.428,10.262 -0.23,5.438 -4.824,9.658 -10.262,9.428 -5.438,-0.23 -9.659,-4.827 -9.428,-10.264 z" id="path133" />
          </g>
          <g id="g139">
            <path fill="#473467" d="m 363.655,74.139 0.809,0.146 0.479,-1.027 c 0.254,0.014 0.508,0.008 0.76,-0.014 l 0.518,1.008 0.803,-0.18 0.041,-1.131 c 0.217,-0.078 0.428,-0.172 0.633,-0.277 l 0.859,0.74 0.676,-0.469 -0.389,-1.063 c 0.188,-0.17 0.363,-0.352 0.527,-0.549 l 1.09,0.354 0.441,-0.693 -0.783,-0.836 c 0.1,-0.211 0.184,-0.428 0.254,-0.645 l 1.127,-0.084 0.148,-0.811 -1.027,-0.477 c 0.014,-0.254 0.008,-0.508 -0.014,-0.76 l 1.008,-0.518 -0.18,-0.803 -1.131,-0.041 c -0.078,-0.217 -0.172,-0.428 -0.277,-0.633 l 0.74,-0.859 -0.469,-0.676 -1.063,0.389 c -0.17,-0.188 -0.352,-0.363 -0.551,-0.529 l 0.355,-1.088 -0.693,-0.441 -0.836,0.783 c -0.211,-0.098 -0.428,-0.182 -0.645,-0.254 l -0.084,-1.129 -0.811,-0.146 -0.477,1.025 c -0.254,-0.012 -0.508,-0.006 -0.76,0.016 l -0.518,-1.008 -0.803,0.18 -0.041,1.131 c -0.217,0.078 -0.428,0.17 -0.633,0.277 l -0.859,-0.74 -0.676,0.469 0.389,1.063 c -0.188,0.17 -0.363,0.352 -0.529,0.549 l -1.088,-0.354 -0.441,0.695 0.783,0.834 c -0.1,0.211 -0.184,0.426 -0.254,0.645 l -1.129,0.084 -0.146,0.809 1.025,0.479 c -0.012,0.254 -0.006,0.508 0.016,0.76 l -1.008,0.52 0.179,0.801 1.133,0.041 c 0.078,0.217 0.17,0.428 0.275,0.633 l -0.738,0.859 0.469,0.676 1.063,-0.389 c 0.17,0.188 0.352,0.363 0.549,0.527 l -0.354,1.09 0.693,0.441 0.836,-0.783 c 0.211,0.1 0.426,0.184 0.645,0.254 z m -2.863,-6.471 c 0.104,-2.443 2.17,-4.342 4.613,-4.238 2.445,0.104 4.344,2.17 4.24,4.613 -0.104,2.445 -2.17,4.344 -4.615,4.24 -2.445,-0.104 -4.342,-2.169 -4.238,-4.615 z" id="path137" />
          </g>
          <g id="g143">
            <path fill="#473467" d="m 414.301,73.938 0.1,1.16 h 0.635 l 0.09,-1.152 c 0.145,-0.008 0.289,-0.018 0.432,-0.031 l 0.27,1.123 0.629,-0.096 -0.084,-1.143 c 0.219,-0.043 0.436,-0.092 0.648,-0.148 l 0.459,1.041 0.6,-0.205 -0.279,-1.092 c 0.145,-0.055 0.289,-0.113 0.43,-0.176 l 0.602,0.947 0.563,-0.293 -0.434,-1.02 c 0.16,-0.09 0.318,-0.186 0.473,-0.285 l 0.73,0.818 0.508,-0.379 -0.578,-0.918 c 0.139,-0.109 0.275,-0.227 0.408,-0.346 l 0.834,0.68 0.441,-0.457 -0.703,-0.795 c 0.104,-0.115 0.205,-0.23 0.303,-0.352 l 0.908,0.539 0.369,-0.518 -0.799,-0.67 c 0.08,-0.119 0.156,-0.24 0.23,-0.365 l 0.979,0.35 0.275,-0.539 -0.859,-0.545 c 0.066,-0.143 0.129,-0.283 0.188,-0.426 l 0.998,0.193 0.189,-0.576 -0.912,-0.4 c 0.055,-0.18 0.102,-0.361 0.143,-0.541 l 0.99,0.029 0.096,-0.6 -0.941,-0.242 c 0.023,-0.18 0.039,-0.359 0.051,-0.541 l 0.959,-0.125 v -0.607 l -0.947,-0.086 c -0.004,-0.158 -0.016,-0.314 -0.029,-0.471 l 0.912,-0.262 -0.092,-0.598 -0.932,0.051 c -0.043,-0.234 -0.098,-0.469 -0.16,-0.699 l 0.826,-0.406 -0.195,-0.574 -0.883,0.211 c -0.059,-0.156 -0.123,-0.311 -0.191,-0.463 l 0.746,-0.521 -0.279,-0.537 -0.832,0.338 c -0.098,-0.172 -0.201,-0.342 -0.313,-0.508 l 0.643,-0.625 -0.363,-0.484 -0.756,0.461 c -0.119,-0.148 -0.246,-0.295 -0.377,-0.436 l 0.527,-0.709 -0.436,-0.422 -0.666,0.572 c -0.123,-0.111 -0.25,-0.219 -0.381,-0.32 l 0.414,-0.775 -0.492,-0.352 -0.572,0.66 C 419.279,58.194 419.143,58.11 419,58.03 l 0.295,-0.822 -0.541,-0.275 -0.465,0.734 c -0.156,-0.07 -0.314,-0.137 -0.473,-0.197 l 0.168,-0.861 -0.576,-0.189 -0.352,0.801 c -0.195,-0.055 -0.391,-0.102 -0.588,-0.143 l 0.027,-0.879 -0.6,-0.094 -0.219,0.852 c -0.191,-0.02 -0.383,-0.033 -0.574,-0.041 l -0.115,-0.881 h -0.607 l -0.082,0.889 c -0.164,0.01 -0.326,0.023 -0.488,0.043 l -0.248,-0.867 -0.6,0.092 0.053,0.906 c -0.238,0.051 -0.475,0.109 -0.707,0.18 l -0.406,-0.824 -0.572,0.197 0.215,0.898 c -0.15,0.063 -0.301,0.129 -0.447,0.199 l -0.535,-0.768 -0.537,0.279 0.355,0.875 c -0.164,0.1 -0.326,0.203 -0.482,0.313 l -0.668,-0.686 -0.484,0.363 0.504,0.822 c -0.139,0.117 -0.271,0.24 -0.402,0.367 l -0.785,-0.584 -0.422,0.434 0.645,0.752 c -0.098,0.115 -0.193,0.234 -0.283,0.354 l -0.885,-0.473 -0.352,0.494 0.766,0.664 c -0.076,0.125 -0.152,0.254 -0.223,0.385 l -0.949,-0.387 -0.287,0.566 0.883,0.541 c -0.064,0.148 -0.123,0.299 -0.178,0.449 l -1.014,-0.242 -0.199,0.602 0.971,0.41 c -0.047,0.184 -0.09,0.367 -0.125,0.551 l -1.063,-0.076 -0.1,0.627 1.049,0.252 c -0.018,0.178 -0.027,0.355 -0.033,0.533 l -1.084,0.094 v 0.635 l 1.098,0.086 c 0.01,0.148 0.023,0.297 0.041,0.445 l -1.078,0.26 0.096,0.629 1.117,-0.08 c 0.049,0.219 0.105,0.436 0.17,0.652 l -1.041,0.457 0.205,0.602 1.109,-0.285 c 0.057,0.141 0.119,0.277 0.184,0.414 l -0.969,0.615 0.293,0.563 1.063,-0.451 c 0.09,0.152 0.188,0.305 0.287,0.449 l -0.865,0.771 0.381,0.508 0.982,-0.621 c 0.109,0.129 0.223,0.256 0.34,0.379 l -0.738,0.908 0.455,0.439 0.879,-0.775 c 0.107,0.092 0.217,0.184 0.33,0.271 l -0.6,1.012 0.518,0.369 0.756,-0.902 c 0.113,0.072 0.229,0.141 0.346,0.211 l -0.445,1.094 0.566,0.289 0.617,-1.008 c 0.137,0.061 0.273,0.119 0.41,0.172 l -0.275,1.148 0.604,0.199 0.455,-1.084 c 0.172,0.049 0.342,0.092 0.514,0.129 l -0.084,1.17 0.625,0.1 0.273,-1.135 c 0.163,0.021 0.331,0.034 0.501,0.044 z m -0.304,-1.818 0.76,-4.389 c 0.752,-0.02 1.473,-0.432 1.854,-1.141 l -0.197,0.367 3.889,2.082 c -1.365,2.202 -3.849,3.344 -6.306,3.081 z m 6.671,-3.76 -3.893,-2.084 -0.166,0.314 c 0.379,-0.709 0.322,-1.531 -0.072,-2.166 l 3.258,-3.035 c 1.569,1.912 1.977,4.621 0.873,6.971 z m -6.744,-3.207 c 0.23,-0.43 0.766,-0.592 1.195,-0.361 0.43,0.229 0.59,0.764 0.361,1.193 -0.23,0.43 -0.766,0.592 -1.195,0.361 -0.429,-0.231 -0.591,-0.763 -0.361,-1.193 z m 3.887,-5.391 c 0.547,0.293 1.035,0.65 1.461,1.061 l -3.254,3.029 c -0.092,-0.07 -0.189,-0.135 -0.295,-0.189 -0.479,-0.256 -1.01,-0.314 -1.5,-0.203 l -1.822,-4.061 c 1.711,-0.639 3.676,-0.566 5.41,0.363 z m -8.916,2.697 c 0.658,-1.227 1.648,-2.16 2.799,-2.75 l 1.82,4.053 c -0.293,0.191 -0.543,0.455 -0.719,0.785 -0.152,0.287 -0.234,0.592 -0.252,0.898 l -4.404,0.689 c -0.107,-1.229 0.129,-2.505 0.756,-3.675 z m 2.697,8.916 c -1.791,-0.959 -2.959,-2.629 -3.342,-4.475 l 4.387,-0.689 c 0.162,0.523 0.523,0.984 1.045,1.264 0.102,0.055 0.205,0.102 0.313,0.137 l -0.76,4.379 c -0.561,-0.127 -1.111,-0.332 -1.643,-0.616 z" id="path141" />
          </g>
          <g id="g147">
            <path fill="#473467" d="m 397.278,105.311 c 0.342,-0.24 0.65,-0.533 0.914,-0.877 l 1.111,0.082 c 0.109,-0.182 0.205,-0.365 0.293,-0.561 0.084,-0.197 0.156,-0.396 0.215,-0.596 L 399,102.592 c 0.072,-0.426 0.078,-0.852 0.025,-1.262 l 0.844,-0.736 c -0.104,-0.408 -0.258,-0.801 -0.457,-1.176 l -1.119,0.035 c -0.244,-0.338 -0.535,-0.648 -0.873,-0.91 l 0.08,-1.115 c -0.18,-0.104 -0.367,-0.203 -0.561,-0.289 -0.197,-0.086 -0.395,-0.154 -0.594,-0.217 l -0.766,0.814 c -0.424,-0.074 -0.85,-0.08 -1.262,-0.027 l -0.734,-0.846 c -0.406,0.107 -0.801,0.26 -1.172,0.457 l 0.027,1.121 c -0.338,0.238 -0.646,0.531 -0.91,0.873 l -1.115,-0.076 c -0.104,0.176 -0.203,0.367 -0.291,0.559 -0.084,0.197 -0.154,0.395 -0.217,0.596 l 0.816,0.764 c -0.076,0.43 -0.082,0.85 -0.027,1.266 l -0.842,0.732 c 0.102,0.408 0.258,0.803 0.453,1.176 l 1.121,-0.033 c 0.24,0.342 0.533,0.648 0.875,0.91 l -0.082,1.115 c 0.18,0.105 0.365,0.203 0.563,0.289 0.195,0.086 0.395,0.156 0.592,0.215 l 0.766,-0.813 c 0.422,0.074 0.848,0.082 1.262,0.027 l 0.732,0.844 c 0.41,-0.104 0.805,-0.258 1.176,-0.459 z m -4.797,-1.256 c -1.203,-1.314 -1.113,-3.355 0.201,-4.559 1.313,-1.203 3.354,-1.115 4.557,0.199 1.205,1.314 1.115,3.355 -0.199,4.559 -1.314,1.204 -3.354,1.114 -4.559,-0.199 z" id="path145" />
          </g>
          <g id="g151">
            <path fill="#473467" d="m 363.209,52.985 0.506,0.092 0.297,-0.641 c 0.16,0.01 0.318,0.004 0.475,-0.01 l 0.322,0.629 0.502,-0.109 0.025,-0.709 c 0.135,-0.049 0.268,-0.105 0.395,-0.172 l 0.535,0.461 0.424,-0.291 -0.242,-0.664 c 0.115,-0.105 0.227,-0.219 0.328,-0.344 l 0.68,0.223 0.275,-0.434 -0.488,-0.521 c 0.063,-0.131 0.115,-0.266 0.158,-0.402 l 0.703,-0.053 0.094,-0.504 -0.641,-0.299 c 0.008,-0.158 0.004,-0.316 -0.01,-0.475 l 0.629,-0.322 -0.111,-0.5 -0.707,-0.025 c -0.049,-0.137 -0.105,-0.266 -0.172,-0.396 l 0.461,-0.533 -0.293,-0.424 -0.662,0.242 c -0.105,-0.117 -0.221,-0.227 -0.344,-0.33 l 0.223,-0.678 -0.434,-0.277 -0.521,0.49 c -0.133,-0.063 -0.266,-0.115 -0.402,-0.158 l -0.053,-0.705 -0.506,-0.092 -0.297,0.643 c -0.158,-0.01 -0.316,-0.006 -0.475,0.008 l -0.322,-0.629 -0.502,0.111 -0.025,0.707 c -0.135,0.049 -0.266,0.105 -0.395,0.172 l -0.535,-0.461 -0.422,0.291 0.242,0.664 c -0.117,0.105 -0.227,0.219 -0.33,0.342 l -0.68,-0.221 -0.275,0.434 0.488,0.521 c -0.061,0.131 -0.113,0.266 -0.156,0.402 l -0.705,0.053 -0.092,0.504 0.641,0.299 c -0.008,0.158 -0.006,0.316 0.01,0.475 l -0.629,0.322 0.111,0.5 0.705,0.025 c 0.049,0.135 0.107,0.27 0.174,0.396 l -0.461,0.535 0.291,0.424 0.664,-0.244 c 0.105,0.117 0.219,0.227 0.342,0.328 l -0.221,0.68 0.434,0.275 0.521,-0.488 c 0.131,0.063 0.266,0.115 0.4,0.158 z m -1.433,-4.022 c 0.057,-1.332 1.182,-2.363 2.512,-2.307 1.33,0.055 2.363,1.18 2.307,2.51 -0.056,1.33 -1.18,2.363 -2.512,2.307 -1.331,-0.056 -2.364,-1.18 -2.307,-2.51 z" id="path149" />
          </g>
        </g>
      </g>
    </g>
  </g>
  <g id="layer2" style="display:inline">
    <g id="filet_1_categorie" style="display:inline" transform="translate(36.489657)">
      <g id="g170">
        <path fill="none" stroke="#473467" stroke-width="2" stroke-miterlimit="10" d="m 677.17,361.899 c 0.59,-2.17 1.352,-4.238 2.299,-6.152 l 7.686,-15.543 c 6.258,-12.631 6.916,-26.516 1.855,-39.096 -5.066,-12.576 -15.162,-22.135 -28.432,-26.912 l -16.307,-5.867 c -15.27,-5.5 -28.996,-24.547 -29.373,-40.762 l -0.412,-17.336 c -0.529,-22.51 -15.307,-40.783 -36.771,-45.475 -5.654,-1.236 -11.523,-1.447 -17.449,-0.627 l -17.164,2.381 c -4.115,0.574 -8.621,0.338 -13.391,-0.705 -13.275,-2.902 -25.955,-11.637 -31.555,-21.736 l -8.424,-15.152 c -6.902,-12.428 -18.059,-20.881 -31.412,-23.799 -13.143,-2.871 -26.643,0.031 -38.02,8.176 l -14.094,10.086 c -1.449,1.037 -3.039,1.959 -4.719,2.789" id="path158" />
        <path fill="none" stroke="#473467" stroke-width="2" stroke-miterlimit="10" d="m 96.14,398.381 c -1.456,7.26 -4.455,14.092 -8.88,19.33 l -11.13,13.175 c -9.104,10.777 -13.063,24.105 -11.15,37.529 1.907,13.426 9.424,25.121 21.164,32.93 l 14.341,9.543 c 14.025,9.332 22.474,30.307 18.834,46.754 l -3.727,16.836 c -2.836,12.791 -0.662,25.68 6.12,36.293 6.714,10.508 17.309,17.801 29.832,20.539 1.859,0.406 3.761,0.711 5.65,0.906 l 17.24,1.797 c 1.164,0.123 2.348,0.314 3.518,0.57 15.545,3.396 30.813,17.443 34.76,31.98 l 4.547,16.721 c 4.729,17.43 18.26,30.572 35.314,34.299 9.326,2.039 19.133,1.172 28.357,-2.506 l 12.457,-4.969" id="path160" />
        <path fill="none" stroke="#473467" stroke-width="2" stroke-miterlimit="10" d="m 367.502,129.278 c -4.352,-1.1 -8.313,-2.771 -11.525,-4.885 l -14.496,-9.504 c -5.164,-3.391 -10.75,-5.758 -16.602,-7.037 -21.182,-4.627 -42.137,5.604 -52.143,25.463 l -7.793,15.488 c -7.293,14.494 -27.861,25.816 -44.002,24.244 l -17.254,-1.678 c -14.035,-1.377 -27.248,2.936 -37.215,12.133 -9.968,9.197 -15.326,22.029 -15.084,36.127 l 0.29,17.33 c 0.28,16.219 -12.662,35.807 -27.695,41.922 l -16.051,6.523 c -13.071,5.311 -22.775,15.271 -27.324,28.049 -4.547,12.777 -3.327,26.625 3.437,38.994 l 8.273,15.135 c 0.356,0.652 0.686,1.324 1.002,2.004" id="path162" />
        <path fill="none" stroke="#473467" stroke-width="2" stroke-miterlimit="10" d="M 678.694,396.293" id="path164" />
        <path fill="none" stroke="#473467" stroke-width="2" stroke-miterlimit="10" d="m 494.997,706.953 10.141,3.574 c 2.004,0.707 4.059,1.293 6.107,1.738 25.635,5.604 50.328,-10.246 56.236,-36.076 l 3.861,-16.904 c 3.609,-15.809 20.861,-31.73 36.918,-34.074 l 17.154,-2.494 c 13.955,-2.033 25.758,-9.381 33.234,-20.689 7.475,-11.316 9.604,-25.053 6,-38.684 l -4.412,-16.676 c -4.307,-16.281 3.277,-37.576 16.908,-47.467 l 13.961,-10.131 c 11.412,-8.281 18.447,-20.271 19.805,-33.758 1.365,-13.492 -3.131,-26.65 -12.66,-37.044 l -11.719,-12.781 c -2.436,-2.656 -4.488,-5.871 -6.137,-9.424" id="path166" />
        <path fill="none" stroke="#473467" stroke-width="2" stroke-miterlimit="10" d="m 319.473,706.756 c 1.082,0.168 2.166,0.367 3.248,0.605 9.467,2.068 17.967,6.563 23.324,12.328 l 11.795,12.701 c 6.912,7.43 15.596,12.455 25.113,14.537 3.348,0.73 6.697,1.088 10.014,1.088 13.594,0 26.574,-6.025 36.029,-17.068 l 11.273,-13.166 c 4.574,-5.342 11.389,-9.541 18.93,-12.123" id="path168" />
      </g>
    </g>
  </g>
  <g id="layer3" style="display:inline">
    <g id="filet_3_posture" style="display:inline" transform="translate(36.489657)">
      <path fill="none" stroke="#009eb9" stroke-width="18" stroke-miterlimit="10" d="m 286.715,710.191 c -1.967,-0.43 -3.816,-1.115 -5.504,-2.029 l -7.873,-4.271 c -10.633,-5.762 -15.877,-16.041 -23.141,-30.258 -9.563,-18.74 -21.465,-42.051 -50.662,-57.896 l -5.439,-2.961 -57.046,-22.502 -3.821,-2.486 -0.46,-0.236 c -2.623,-1.664 -9.375,-10.75 -12.847,-18.057 -2.913,-6.225 -3.598,-9.918 -2.149,-20.793 1.167,-8.748 2.911,-15.967 4.601,-22.951 3.511,-14.535 7.143,-29.559 3.955,-52.146 -3.019,-21.42 -14.157,-38.303 -23.984,-53.201 -2.711,-4.105 -5.441,-8.223 -8.017,-12.48 -4.755,-7.863 -7.949,-14.33 -9.149,-22.293 -0.741,-4.871 0.684,-17.508 2.848,-21.57 l 4.725,-8.848 c 2.348,-3.553 17.498,-16.68 24.031,-20.695 9.965,-6.061 29.163,-21.893 38.035,-38.443 l 4.767,-8.975 c 8.248,-15.438 12.142,-47.818 12.841,-54.154 1.59,-14.518 2.072,-18.908 7.836,-29.098 5.02,-9.398 13.338,-18.846 38.157,-19.865 7.513,-0.318 13.983,0.232 20.827,0.813 13.764,1.184 27.922,2.402 47.086,-3.488 25.455,-7.807 34.488,-16.76 45.92,-28.086 3.994,-3.959 8.447,-8.369 14.43,-13.535 10.205,-8.877 16.572,-12.262 20.123,-13.545 5.223,-1.934 5.504,-1.918 7.342,-1.826 l 5,0.215 c 6.182,0.268 10.16,0.441 13.65,1.203 3.057,0.67 6.221,1.943 10.256,4.137 2.609,1.523 12.17,9.799 15.311,12.523 2.506,2.168 4.617,3.99 6.135,5.24 1.48,1.23 3.484,3.064 5.682,5.08 7.627,6.984 15.029,13.756 21.598,17.289 l 7.732,4.219 c 7.297,3.959 14.947,6.773 23.43,8.627 15.766,3.447 31.363,2.768 45.127,2.172 11.273,-0.488 21.926,-0.947 30.504,0.928 3.197,0.699 5.926,1.674 8.354,2.992 17.02,9.232 19.639,23.199 23.139,49.141 l 0.104,0.75 c 0.482,3.543 0.969,7.107 1.518,10.689 2.059,13.586 7.555,33.232 15.195,46.389 9.949,17.145 24.465,29.289 37.271,39.994 14.283,11.936 26.596,22.236 31.453,37.086 3.1,10.293 -0.441,17.531 -11.145,36.885 -1.902,3.438 -3.873,6.996 -5.891,10.789 l -15.65,29.302 c -14.045,26.324 -6.576,52.922 0.014,76.389 4.594,16.365 8.924,31.783 3.779,41.432 -8.619,16.152 -20.396,25.398 -40.637,31.9 -5.42,1.744 -10.635,3.512 -15.947,5.318 l -9.787,3.313 c -15.646,5.174 -22.473,11.43 -29.695,18.045 -2.326,2.139 -4.918,4.518 -8.348,7.252 -11.178,8.914 -18.338,23.295 -24.652,35.975 -1.518,3.045 -2.836,5.695 -4.137,8.129 l -1.887,3.547 c -16.189,30.383 -34.561,30.715 -48.756,27.611 -7.873,-1.721 -16.701,-5.223 -26.252,-10.41 l -1.949,-1.068 -34.586,-9.885 -2.219,-0.137 c -10.516,-0.633 -22.396,-0.648 -38.188,3.404 -2.328,0.598 -4.695,1.154 -7.051,1.691 -8.219,1.906 -17.498,4.051 -26.596,8.469 -6.266,3.041 -25.375,12.295 -39.311,9.25 z" id="path176" />
    </g>
  </g>
  <g id="layer5" style="display:inline">
    <g id="texte_titre_badge" style="display:inline" transform="translate(36.489657)">
      <g id="g216">
        <path fill="#ffffff" d="m 213.094,500.46 2.844,0.36 v 4.571 h -11.879 v -4.571 l 2.844,-0.36 v -14.722 h -3.636 l -0.54,3.563 h -4.607 l 0.181,-8.676 h 23.396 l 0.181,8.676 h -4.607 l -0.54,-3.563 h -3.636 v 14.722 z" id="path186" />
        <path fill="#ffffff" d="m 223.572,505.392 v -4.571 l 2.844,-0.36 v -14.865 l -2.844,-0.396 v -4.572 h 11.879 v 4.572 l -2.844,0.396 v 14.865 l 2.844,0.36 v 4.571 z" id="path188" />
        <path fill="#ffffff" d="m 252.082,500.46 2.844,0.36 v 4.571 h -11.878 v -4.571 l 2.844,-0.36 v -14.722 h -3.636 l -0.54,3.563 h -4.607 l 0.18,-8.676 h 23.397 l 0.18,8.676 h -4.607 l -0.54,-3.563 h -3.636 v 14.722 z" id="path190" />
        <path fill="#ffffff" d="m 279.297,505.392 -4.535,-8.675 h -3.168 v 3.743 l 3.636,0.36 v 4.571 h -12.67 v -4.571 l 2.844,-0.36 v -14.865 l -2.844,-0.396 v -4.572 h 13.462 c 5.039,0 8.495,2.844 8.495,7.632 0,4.067 -1.691,5.687 -4.067,6.983 v 0.18 c 0,0 0.396,0.288 0.684,0.792 l 2.483,4.247 3.168,0.36 v 4.571 z m -4.823,-13.498 c 2.628,0 3.779,-1.044 3.779,-3.275 0,-1.944 -1.403,-2.88 -3.779,-2.88 h -2.88 v 6.155 z" id="path192" />
        <path fill="#ffffff" d="m 288.228,505.392 v -4.571 l 2.808,-0.36 v -14.902 l -2.808,-0.359 v -4.572 h 20.409 l 0.144,8.676 h -4.607 l -0.54,-3.563 h -6.406 v 4.787 h 5.363 v 4.932 h -5.363 v 4.823 h 6.335 l 0.54,-3.563 h 4.607 l -0.252,8.675 h -20.23 z" id="path194" />
        <path fill="#ffffff" d="m 318.359,505.392 v -4.571 l 2.844,-0.36 v -14.902 l -2.844,-0.359 v -4.572 h 12.131 c 6.119,0 12.13,3.24 12.13,12.203 0,9.826 -5.938,12.563 -11.554,12.563 h -12.707 z m 11.23,-5.112 c 4.212,0 6.768,-1.619 6.768,-7.451 0,-4.967 -2.664,-7.091 -7.235,-7.091 h -1.728 v 14.542 z" id="path196" />
        <path fill="#ffffff" d="m 361.845,485.595 -2.844,-0.396 v -4.572 h 11.519 v 4.572 l -2.844,0.396 v 10.689 c 0,6.264 -3.743,9.359 -10.366,9.359 -6.623,0 -10.511,-3.096 -10.511,-9.359 v -10.689 l -2.844,-0.396 v -4.572 h 11.879 v 4.572 l -2.844,0.396 v 10.294 c 0,1.944 0.792,4.571 4.319,4.571 2.879,0 4.535,-2.051 4.535,-4.391 v -10.474 z" id="path198" />
        <path fill="#ffffff" d="m 379.235,505.392 v -4.571 l 2.844,-0.36 v -14.902 l -2.844,-0.359 v -4.572 h 10.295 c 7.091,0 10.654,1.729 10.654,6.66 0,4.211 -2.664,5.003 -3.635,5.291 v 0.288 c 1.764,0.216 5.398,1.188 5.398,5.759 0,4.248 -2.483,6.768 -10.043,6.768 h -12.669 z m 12.058,-14.723 c 1.656,0 2.627,-0.971 2.627,-2.447 0,-1.764 -1.403,-2.483 -2.987,-2.483 h -2.663 v 4.931 h 3.023 z m -3.023,4.644 v 4.967 h 3.924 c 2.52,0 3.49,-0.684 3.49,-2.447 0,-1.584 -1.223,-2.52 -2.986,-2.52 z" id="path200" />
        <path fill="#ffffff" d="m 426.932,500.46 2.52,0.36 v 4.571 h -11.158 v -4.571 l 2.699,-0.36 -0.9,-2.375 h -8.387 l -0.9,2.375 2.7,0.36 v 4.571 h -10.979 v -4.571 l 2.52,-0.36 5.651,-14.902 -3.168,-0.18 v -4.752 h 11.879 z m -10.15,-11.194 c -0.252,-0.647 -0.793,-2.196 -0.793,-2.196 h -0.18 c 0,0 -0.54,1.549 -0.792,2.196 l -1.548,4.104 h 4.859 z" id="path202" />
        <path fill="#ffffff" d="m 430.786,505.392 v -4.571 l 2.844,-0.36 v -14.902 l -2.844,-0.359 v -4.572 h 12.131 c 6.119,0 12.131,3.24 12.131,12.203 0,9.826 -5.939,12.563 -11.555,12.563 h -12.707 z m 11.23,-5.112 c 4.212,0 6.768,-1.619 6.768,-7.451 0,-4.967 -2.664,-7.091 -7.234,-7.091 h -1.729 v 14.542 z" id="path204" />
        <path fill="#ffffff" d="m 478.627,496.717 c 0,3.708 -2.052,8.927 -10.402,8.927 -6.804,0 -11.051,-3.924 -11.051,-12.67 0,-8.676 4.283,-12.563 11.051,-12.563 8.351,0 10.402,4.355 10.402,7.486 0,1.116 -0.252,1.872 -0.252,1.872 l -5.867,0.54 c 0,0 0.145,-0.54 0.145,-1.296 0,-1.476 -0.937,-3.456 -4.104,-3.456 -2.844,0 -5.111,1.801 -5.111,7.523 0,5.651 2.482,7.379 5.326,7.379 2.736,0 3.744,-1.188 3.852,-3.203 l -3.491,-0.36 v -4.212 h 9.503 v 4.033 z" id="path206" />
        <path fill="#ffffff" d="m 481.114,505.392 v -4.571 l 2.808,-0.36 v -14.902 l -2.808,-0.359 v -4.572 h 20.409 l 0.144,8.676 h -4.607 l -0.539,-3.563 h -6.407 v 4.787 h 5.363 v 4.932 h -5.363 v 4.823 h 6.335 l 0.54,-3.563 h 4.607 l -0.252,8.675 h -20.23 z" id="path208" />
        <path fill="#ffffff" d="m 511.245,505.392 v -4.571 l 2.844,-0.36 v -14.865 l -2.844,-0.396 v -4.572 h 11.879 v 4.572 l -2.844,0.396 v 14.865 l 2.844,0.36 v 4.571 z" id="path210" />
        <path fill="#ffffff" d="m 540.727,496.645 v -0.684 l 5.976,1.224 v 0.611 c 0,3.276 -2.088,7.848 -10.583,7.848 -6.695,0 -10.87,-3.924 -10.87,-12.67 0,-8.676 4.283,-12.563 11.05,-12.563 8.352,0 10.403,4.787 10.403,8.207 0,1.115 -0.252,1.871 -0.252,1.871 l -5.867,0.721 c 0,0 0.144,-0.612 0.144,-1.477 0,-1.764 -0.936,-4.176 -4.104,-4.176 -2.844,0 -5.111,1.801 -5.111,7.523 0,5.651 2.412,7.379 5.147,7.379 3.095,10e-4 4.067,-1.438 4.067,-3.814 z" id="path212" />
        <path fill="#ffffff" d="m 549.008,505.392 v -4.571 l 2.844,-0.36 v -14.865 l -2.844,-0.396 v -4.572 h 11.879 v 4.572 l -2.844,0.396 v 14.865 l 2.844,0.36 v 4.571 z" id="path214" />
      </g>
    </g>
  </g>
  <g id="layer1" style="display:inline">
    <g id="picto_titre_badge" style="display:inline" transform="translate(36.489657)">
      <g id="g183">
        <path fill="#ffffff" d="m 328.897,305.645 c 6.84,6.564 15.279,11.789 25.084,15.523 9.803,3.74 21.309,5.637 34.201,5.637 12.717,0 24.182,-1.896 34.066,-5.637 9.893,-3.734 18.375,-8.957 25.211,-15.523 6.844,-6.576 12.201,-14.363 15.922,-23.143 1.627,-3.848 2.979,-7.93 4.021,-12.15 h -50.094 c -1.32,2.273 -2.652,4.158 -4.064,5.75 -5.457,6.156 -13.889,9.281 -25.063,9.281 -13.572,0 -17.24,-0.455 -25.189,-9.275 -1.439,-1.588 -2.756,-3.426 -4.119,-5.756 h -49.922 c 1.039,4.203 2.393,8.287 4.035,12.148 3.72,8.792 9.073,16.577 15.911,23.145 z" id="path179" />
        <path fill="#ffffff" d="m 469.786,415.936 c -0.521,-9.941 -2.678,-19.449 -6.404,-28.25 -3.719,-8.766 -9.072,-16.498 -15.916,-22.979 -6.834,-6.471 -15.322,-11.697 -25.223,-15.527 -9.898,-3.822 -21.357,-5.76 -34.063,-5.76 -12.875,0 -24.381,1.938 -34.193,5.758 -9.814,3.834 -18.258,9.061 -25.094,15.529 -6.838,6.471 -12.189,14.203 -15.906,22.979 -3.73,8.787 -5.889,18.293 -6.412,28.256 -0.363,7.871 -0.525,33.044 -0.525,41.285 0,0.611 0.008,1.197 0.018,1.785 l 0.004,0.184 h 46.762 l -0.006,-0.35 c -0.01,-0.715 -0.023,-1.426 -0.023,-2.158 0,-3.904 0.047,-25.1 0.141,-29.027 0.096,-4.07 0.311,-7.517 0.658,-10.537 0.357,-4.543 1.316,-8.836 2.848,-12.723 1.539,-3.896 3.748,-7.334 6.568,-10.221 2.822,-2.893 6.363,-5.203 10.516,-6.865 4.153,-1.662 9.078,-2.506 14.646,-2.506 5.568,0 10.498,0.844 14.648,2.506 4.145,1.662 7.686,3.971 10.523,6.863 2.813,2.893 5.02,6.328 6.559,10.221 1.527,3.881 2.484,8.174 2.848,12.76 0.18,3.105 0.355,6.585 0.537,10.478 0.17,3.943 0.254,25.145 0.254,29.051 0,0.643 -0.018,1.268 -0.035,1.893 -0.006,0.207 -0.012,0.41 -0.018,0.615 h 46.805 l 0.002,-0.236 c 0.01,-0.568 0.018,-1.137 0.018,-1.732 -0.002,-8.859 -0.182,-33.587 -0.537,-41.292 z" id="path181" />
      </g>
    </g>
  </g>
</svg>
