<?xml version="1.0" encoding="UTF-8" standalone="no"?>
<svg xmlns:dc="http://purl.org/dc/elements/1.1/"
  xmlns:cc="http://creativecommons.org/ns#"
  xmlns:rdf="http://www.w3.org/1999/02/22-rdf-syntax-ns#"
  xmlns:svg="http://www.w3.org/2000/svg"
  xmlns="http://www.w3.org/2000/svg" id="svg1335" xml:space="preserve" enable-background="new 0 0 737.007 841.89" viewBox="0 0 839.99998 839.99999" height="100%" width="100%" y="0px" x="0px" version="1.1">
  <metadata id="metadata1341">
    <rdf:RDF>
      <cc:Work rdf:about="">
        <dc:format>image/svg+xml</dc:format>
        <dc:type rdf:resource="http://purl.org/dc/dcmitype/StillImage" />
        <dc:title></dc:title>
      </cc:Work>
    </rdf:RDF>
  </metadata>
  <defs id="defs1339">

  </defs>
  <g style="display:inline" id="layer13">
    <g id="texte_posture" style="display:inline" transform="translate(53.408659)">
      <g id="g36">
        <path id="path2" d="m 165.189,711.513 -14.894,11.733 c -2.325,1.831 -4.669,2.583 -7.033,2.255 -2.364,-0.328 -4.477,-1.676 -6.341,-4.043 -2.36,-2.995 -3.176,-6.443 -2.446,-10.345 l 5.769,-0.369 c -0.396,2.858 0,5.042 1.188,6.55 1.238,1.571 2.757,1.647 4.559,0.229 l 10.244,-8.069 -5.94,-7.541 4.525,-3.564 z" fill="#473467" />
        <path id="path4" d="m 180.073,736.069 -10.156,-10.766 -4.044,3.815 9.168,9.718 -4.073,3.844 -9.168,-9.719 -4.103,3.871 10.458,11.085 -4.073,3.843 -15.344,-16.264 20.367,-19.215 15.042,15.944 z" fill="#473467" />
        <path id="path6" d="m 196.512,743.563 9.566,7.571 c 2.802,2.218 4.451,4.603 4.948,7.155 0.496,2.553 -0.224,5.052 -2.16,7.498 -2.036,2.572 -4.39,3.957 -7.063,4.154 -2.673,0.197 -5.41,-0.813 -8.212,-3.03 l -3.983,-3.152 -4.89,6.179 -5.583,-4.419 z m 2.108,8.81 -5.536,6.994 3.701,2.929 c 1.233,0.977 2.425,1.427 3.574,1.35 1.149,-0.076 2.179,-0.69 3.089,-1.84 0.894,-1.13 1.237,-2.252 1.032,-3.367 -0.206,-1.114 -0.926,-2.16 -2.159,-3.137 z" fill="#473467" />
        <path id="path8" d="m 234.309,777.067 -12.541,-7.859 -2.952,4.712 11.32,7.095 -2.974,4.745 -11.321,-7.095 -2.995,4.778 12.914,8.094 -2.974,4.745 -18.947,-11.874 14.869,-23.727 18.574,11.641 z" fill="#473467" />
        <path id="path10" d="m 265.108,785.919 -6.934,14.686 c -1.583,3.353 -3.875,5.521 -6.876,6.507 -3.002,0.986 -6.275,0.643 -9.82,-1.031 -3.569,-1.685 -5.945,-4.008 -7.126,-6.97 -1.183,-2.961 -0.982,-6.118 0.601,-9.47 l 6.934,-14.686 6.438,3.04 -6.934,14.686 c -0.797,1.688 -0.943,3.263 -0.439,4.725 0.504,1.462 1.54,2.563 3.107,3.303 1.543,0.729 3.012,0.818 4.408,0.268 1.395,-0.551 2.497,-1.682 3.306,-3.394 l 6.934,-14.686 z" fill="#473467" />
        <path id="path12" d="m 281.792,805.76 4.983,17.038 -8.097,-2.652 -2.963,-10.356 -8.517,6.596 -7.869,-2.577 13.961,-10.495 -4.636,-15.914 7.869,2.577 2.591,9.436 7.672,-6.073 7.945,2.603 z" fill="#473467" />
        <path id="path14" d="m 330.104,808.391 -8.33,-1.362 -3.595,21.988 -7.027,-1.148 3.595,-21.988 -8.25,-1.35 0.93,-5.684 23.606,3.859 z" fill="#473467" />
        <path id="path16" d="m 350.186,832.055 -3.708,-8.103 -0.2,-0.012 -5.391,-0.306 -0.446,7.868 -7.109,-0.403 1.584,-27.955 12.5,0.708 c 3.7,0.21 6.515,1.218 8.442,3.022 1.927,1.806 2.803,4.266 2.627,7.381 -0.245,4.313 -2.105,7.212 -5.581,8.698 l 5.348,9.558 z m -8.982,-14.011 5.392,0.306 c 1.544,0.088 2.764,-0.23 3.66,-0.954 0.896,-0.724 1.385,-1.818 1.468,-3.282 0.082,-1.438 -0.283,-2.554 -1.092,-3.348 -0.811,-0.793 -1.987,-1.234 -3.531,-1.321 l -5.391,-0.306 z" fill="#473467" />
        <path id="path18" d="m 384.337,826.311 -12.223,0.664 -1.758,5.263 -7.309,0.396 10.545,-28.613 7.309,-0.396 13.301,27.319 -7.589,0.411 z m -2.37,-5.28 -4.556,-10.128 -3.511,10.567 z" fill="#473467" />
        <path id="path20" d="m 426.224,825.754 -6.191,1.046 -15.571,-14.855 2.87,17 -6.586,1.112 -4.662,-27.609 6.191,-1.046 15.617,14.888 -2.877,-17.039 6.547,-1.105 z" fill="#473467" />
        <path id="path22" d="m 438.156,793.42 c 4.036,-1.114 7.859,-1.091 11.473,0.069 l -1.104,6.072 c -1.641,-0.432 -3.344,-0.688 -5.108,-0.768 -1.764,-0.08 -3.2,0.032 -4.306,0.338 -1.979,0.546 -2.787,1.475 -2.426,2.786 0.234,0.848 0.91,1.395 2.029,1.639 1.119,0.245 2.43,0.36 3.934,0.346 1.504,-0.014 3.029,0.05 4.576,0.189 1.546,0.14 2.971,0.667 4.273,1.579 1.304,0.913 2.204,2.27 2.701,4.068 0.717,2.597 0.26,4.901 -1.37,6.913 -1.63,2.014 -4.013,3.453 -7.148,4.318 -2.236,0.618 -4.554,0.843 -6.951,0.675 -2.397,-0.168 -4.591,-0.696 -6.579,-1.586 l 1.201,-6.018 c 1.689,0.807 3.564,1.334 5.624,1.581 2.06,0.247 3.81,0.172 5.249,-0.226 1.105,-0.305 1.912,-0.742 2.418,-1.311 0.508,-0.569 0.654,-1.239 0.441,-2.011 -0.205,-0.745 -0.731,-1.271 -1.576,-1.577 -0.846,-0.306 -1.829,-0.435 -2.95,-0.389 -1.122,0.047 -2.355,0.035 -3.703,-0.036 -1.347,-0.069 -2.615,-0.204 -3.804,-0.401 -1.189,-0.197 -2.284,-0.731 -3.285,-1.604 -1.002,-0.871 -1.709,-2.053 -2.12,-3.544 -0.681,-2.468 -0.243,-4.712 1.315,-6.733 1.559,-2.018 3.957,-3.476 7.196,-4.369 z" fill="#473467" />
        <path id="path24" d="m 492.441,804.122 -5.838,2.315 -6.749,-16.902 -0.567,16.793 -4.313,1.711 -11.926,-11.836 6.711,16.917 -5.911,2.346 -10.341,-26.064 7.25,-2.876 13.217,12.701 0.912,-18.307 7.213,-2.861 z" fill="#473467" />
        <path id="path26" d="m 509.901,769.852 -13.085,6.915 2.598,4.916 11.812,-6.242 2.616,4.951 -11.813,6.242 2.635,4.986 13.475,-7.12 2.617,4.951 -19.77,10.446 -13.082,-24.756 19.381,-10.241 z" fill="#473467" />
        <path id="path28" d="m 533.552,754.939 -7.086,4.585 12.104,18.706 -5.977,3.868 -12.104,-18.706 -7.019,4.542 -3.129,-4.836 20.082,-12.995 z" fill="#473467" />
        <path id="path30" d="m 554.214,739.066 -6.676,5.164 13.633,17.622 -5.632,4.356 -13.633,-17.622 -6.612,5.115 -3.524,-4.556 18.919,-14.636 z" fill="#473467" />
        <path id="path32" d="m 585.228,740.9 -8.414,-2.933 -0.146,0.136 -3.952,3.68 5.37,5.768 -5.211,4.852 -19.08,-20.493 9.163,-8.531 c 2.712,-2.525 5.388,-3.859 8.024,-4.001 2.638,-0.141 5.02,0.93 7.146,3.213 2.944,3.162 3.749,6.512 2.415,10.049 l 10.6,2.756 z m -16.328,-3.215 3.951,-3.68 c 1.133,-1.054 1.748,-2.153 1.846,-3.302 0.097,-1.147 -0.354,-2.258 -1.354,-3.331 -0.98,-1.055 -2.039,-1.563 -3.172,-1.528 -1.133,0.035 -2.266,0.579 -3.398,1.633 l -3.951,3.68 z" fill="#473467" />
        <path id="path34" d="m 594.179,698.564 -9.816,11.076 4.16,3.688 8.862,-9.998 4.19,3.715 -8.861,9.998 4.221,3.741 10.108,-11.405 4.19,3.714 -14.83,16.733 -20.955,-18.572 14.54,-16.403 z" fill="#473467" />
      </g>
    </g>
  </g>
  <!-- <g id="layer14">
    <g style="display:inline;fill:#ffffff;stroke:none" id="filet_3_posture" transform="translate(53.408659)">
      <path fill="none" stroke="#009eb9" stroke-width="27" stroke-miterlimit="10" d="m 282.828,725.123 c -1.973,-0.395 -3.834,-1.045 -5.537,-1.93 l -7.947,-4.135 c -10.732,-5.572 -16.158,-15.756 -23.672,-29.842 -9.891,-18.568 -22.203,-41.666 -51.676,-56.994 l -5.492,-2.865 -57.433,-21.49 -3.865,-2.418 -0.464,-0.229 c -2.652,-1.617 -9.563,-10.582 -13.164,-17.828 -3.022,-6.172 -3.772,-9.854 -2.516,-20.752 1.013,-8.766 2.629,-16.016 4.194,-23.027 3.254,-14.596 6.62,-29.68 3.034,-52.207 -3.396,-21.365 -14.831,-38.047 -24.921,-52.77 -2.782,-4.057 -5.585,-8.127 -8.234,-12.34 -4.894,-7.775 -8.201,-14.186 -9.542,-22.127 -0.827,-4.857 0.375,-17.516 2.467,-21.615 l 4.567,-8.932 c 2.284,-3.594 17.2,-16.986 23.662,-21.117 9.856,-6.236 28.772,-22.402 37.351,-39.107 l 4.607,-9.057 c 7.973,-15.582 11.295,-48.027 11.883,-54.375 1.334,-14.541 1.738,-18.941 7.322,-29.23 4.852,-9.484 13.002,-19.078 37.801,-20.535 7.504,-0.451 13.984,-0.014 20.836,0.443 13.783,0.943 27.961,1.91 47.02,-4.316 25.313,-8.258 34.186,-17.367 45.416,-28.895 3.922,-4.027 8.299,-8.516 14.188,-13.785 10.047,-9.057 16.354,-12.555 19.881,-13.9 5.188,-2.025 5.469,-2.014 7.309,-1.955 l 5.004,0.125 c 6.184,0.16 10.164,0.262 13.668,0.965 3.068,0.613 6.254,1.832 10.328,3.953 2.637,1.477 12.34,9.584 15.529,12.25 2.543,2.125 4.686,3.91 6.227,5.131 1.502,1.207 3.537,3.002 5.77,4.98 7.75,6.848 15.27,13.49 21.9,16.906 l 7.805,4.082 c 7.365,3.828 15.064,6.508 23.58,8.211 15.822,3.168 31.406,2.213 45.156,1.373 11.264,-0.686 21.906,-1.332 30.516,0.391 3.211,0.645 5.955,1.57 8.404,2.844 17.182,8.932 20.047,22.852 24.004,48.725 l 0.117,0.748 c 0.545,3.535 1.094,7.09 1.705,10.66 2.299,13.551 8.141,33.096 16.014,46.115 10.25,16.965 24.977,28.854 37.971,39.328 14.492,11.684 26.984,21.764 32.102,36.525 3.281,10.238 -0.129,17.535 -10.49,37.076 -1.842,3.471 -3.748,7.064 -5.699,10.891 l -15.131,29.576 c -13.576,26.568 -5.641,53.027 1.363,76.375 4.881,16.283 9.482,31.621 4.51,41.361 -8.334,16.301 -19.945,25.752 -40.068,32.609 -5.389,1.842 -10.57,3.701 -15.85,5.602 l -9.727,3.484 c -15.553,5.449 -22.268,11.822 -29.373,18.563 -2.289,2.184 -4.838,4.607 -8.219,7.4 -11.018,9.109 -17.924,23.615 -24.014,36.406 -1.465,3.07 -2.734,5.744 -3.992,8.201 l -1.824,3.578 c -15.65,30.664 -34.012,31.32 -48.26,28.469 -7.902,-1.582 -16.791,-4.93 -26.432,-9.945 l -1.969,-1.035 -34.754,-9.271 -2.221,-0.098 c -10.525,-0.447 -22.404,-0.252 -38.121,4.078 -2.318,0.637 -4.676,1.236 -7.021,1.816 -8.184,2.051 -17.422,4.359 -26.441,8.936 -6.211,3.155 -25.154,12.747 -39.142,9.946 z" id="path152-3" style="fill:#ffffff;stroke:none" />
    </g>
  </g> -->
  <g style="display:inline" id="layer12">
    <g style="display:inline" id="filet_separation_theme" transform="translate(53.408659)">
      <line fill="none" stroke="#000000" stroke-width="2" stroke-miterlimit="10" x1="373.289" y1="610.67798" x2="373.289" y2="648.461" id="line39" />
    </g>
  </g>
  <g style="display:inline" id="layer11">
    <g style="display:inline" id="picto_theme" transform="translate(53.408659)">
      <g id="g46">
        <path fill="none" stroke="#000000" stroke-width="2" stroke-miterlimit="10" d="m 432.375,612.646 c 2.643,2.539 5.906,4.559 9.697,6.002 3.789,1.447 8.236,2.18 13.221,2.18 4.916,0 9.348,-0.732 13.17,-2.18 3.824,-1.443 7.104,-3.463 9.746,-6.002 2.646,-2.541 4.717,-5.551 6.154,-8.945 0.629,-1.488 1.152,-3.064 1.555,-4.697 h -19.365 c -0.51,0.879 -1.025,1.609 -1.57,2.223 -2.111,2.381 -5.369,3.588 -9.689,3.588 -5.246,0 -6.664,-0.176 -9.738,-3.586 -0.555,-0.613 -1.064,-1.322 -1.592,-2.225 h -19.299 c 0.402,1.627 0.926,3.205 1.559,4.697 1.438,3.399 3.506,6.408 6.151,8.945 z" id="path42" />
        <path fill="none" stroke="#000000" stroke-width="2" stroke-miterlimit="10" d="m 486.839,655.283 c -0.203,-3.842 -1.037,-7.518 -2.477,-10.92 -1.438,-3.389 -3.506,-6.379 -6.152,-8.883 -2.641,-2.502 -5.922,-4.521 -9.75,-6.002 -3.826,-1.479 -8.256,-2.229 -13.168,-2.229 -4.979,0 -9.426,0.75 -13.219,2.227 -3.795,1.482 -7.059,3.502 -9.701,6.004 -2.642,2.502 -4.713,5.49 -6.15,8.883 -1.439,3.398 -2.275,7.072 -2.477,10.922 -0.141,3.045 -0.203,12.775 -0.203,15.961 0,0.238 0.002,0.463 0.006,0.691 l 0.002,0.07 h 18.076 l -0.002,-0.137 c -0.004,-0.273 -0.008,-0.549 -0.008,-0.834 0,-1.51 0.018,-9.703 0.053,-11.221 0.037,-1.572 0.121,-2.906 0.256,-4.074 0.139,-1.756 0.508,-3.416 1.1,-4.918 0.596,-1.506 1.449,-2.836 2.541,-3.951 1.09,-1.117 2.459,-2.01 4.064,-2.654 1.604,-0.641 3.51,-0.967 5.662,-0.967 2.152,0 4.057,0.326 5.662,0.967 1.602,0.643 2.971,1.537 4.068,2.654 1.088,1.119 1.939,2.447 2.535,3.951 0.59,1.5 0.961,3.16 1.102,4.934 0.068,1.199 0.137,2.545 0.207,4.049 0.066,1.525 0.098,9.721 0.098,11.23 0,0.25 -0.006,0.492 -0.014,0.734 -0.002,0.078 -0.004,0.156 -0.006,0.236 h 18.094 v -0.092 c 0.004,-0.219 0.008,-0.439 0.008,-0.67 0,-3.422 -0.07,-12.98 -0.207,-15.961 z" id="path44" />
      </g>
    </g>
  </g>
  <g style="display:inline" id="layer10">
    <g style="display:inline" id="texte_picto_theme" transform="translate(53.408659)">
      <g id="g69">
        <path d="m 401.448,574.549 h -3.798 v 10.025 h -3.204 v -10.025 h -3.763 v -2.592 h 10.765 z" id="path49" />
        <path d="m 412.679,574.494 h -6.66 v 2.502 h 6.013 v 2.521 h -6.013 v 2.538 h 6.858 v 2.52 h -10.062 v -12.6 h 9.863 v 2.519 z" id="path51" />
        <path d="m 422.255,577.986 4.518,6.588 h -3.834 l -2.717,-4.014 -2.719,4.014 h -3.727 l 4.5,-6.443 -4.211,-6.156 h 3.726 l 2.431,3.672 2.43,-3.672 h 3.762 z" id="path53" />
        <path d="m 437.79,574.549 h -3.798 v 10.025 h -3.204 v -10.025 h -3.763 v -2.592 h 10.765 z" id="path55" />
        <path d="m 449.021,574.494 h -6.66 v 2.502 h 6.013 v 2.521 h -6.013 v 2.538 h 6.858 v 2.52 h -10.062 v -12.6 h 9.863 v 2.519 z" id="path57" />
        <path d="m 465.095,574.549 h -3.799 v 10.025 h -3.203 v -10.025 h -3.762 v -2.592 h 10.764 z" id="path59" />
        <path d="m 478.091,584.574 h -3.204 v -4.896 h -5.22 v 4.896 h -3.205 v -12.6 h 3.205 v 5.184 h 5.22 v -5.184 h 3.204 z" id="path61" />
        <path d="m 490.475,574.494 h -6.66 v 2.502 h 6.013 v 2.521 h -6.013 v 2.538 h 6.858 v 2.52 H 480.61 v -12.6 h 9.864 v 2.519 z m -3.311,-3.617 h -2.377 l -2.34,-2.034 2.809,-0.99 z" id="path63" />
        <path d="m 506.585,584.574 h -2.826 l -0.019,-8.189 -3.024,6.93 h -2.088 l -3.023,-6.93 v 8.189 h -2.862 v -12.617 h 3.511 l 3.42,7.506 3.42,-7.506 h 3.492 v 12.617 z" id="path65" />
        <path d="m 518.987,574.494 h -6.66 v 2.502 h 6.013 v 2.521 h -6.013 v 2.538 h 6.858 v 2.52 h -10.063 v -12.6 h 9.864 v 2.519 z" id="path67" />
      </g>
    </g>
  </g>
  <g style="display:inline" id="layer9">
    <g style="display:inline" id="picto_categorie" transform="translate(53.408659)">
      <g id="g80">
        <path fill="none" stroke="#000000" stroke-width="2" stroke-miterlimit="10" d="m 281.375,665.576 c 0,0.782 -0.635,1.417 -1.418,1.417 h -14.181 c -0.782,0 -1.417,-0.635 -1.417,-1.417 v -28.381 c 0,-0.782 0.635,-1.417 1.417,-1.417 h 14.181 c 0.783,0 1.418,0.635 1.418,1.417 z" id="path72" />
        <circle fill="none" stroke="#000000" stroke-width="2" stroke-miterlimit="10" cx="271.875" cy="660.521" r="3.0280001" id="circle74" />
        <path fill="none" stroke="#000000" stroke-width="2" stroke-miterlimit="10" d="m 281.792,663.443 c 0,0 2.506,3.445 10.127,3.236 7.62,-0.209 15.867,0 15.867,0 0,0 8.248,-0.835 10.022,-9.291 l 4.071,-13.885 c 1.775,-6.682 -6.576,-6.264 -6.264,-6.368 0.312,-0.104 -12.109,0 -12.109,0 0,0 3.549,-13.467 -6.891,-16.808 0,0 -3.759,-1.774 -3.55,3.027 v 4.593 c 0,0 0.104,2.61 -2.192,4.804 -2.297,2.191 -9.396,7.307 -9.396,7.307" id="path76" />
        <path fill="none" stroke="#000000" stroke-width="2" stroke-miterlimit="10" d="m 303.671,627.854 v -3.998 c -13.656,-8.567 -3.998,-18.901 0.935,-18.901 v 8.309 h 9.243 c 0,0 0,-6.18 0,-8.567 5.867,0 15.213,11.06 1.246,18.9 v 13.553" id="path78" />
      </g>
    </g>
  </g>
  <g style="display:inline" id="layer8">
    <g style="display:inline" id="texte_picto_categorie" transform="translate(53.408659)">
      <g id="g107">
        <path d="m 232.771,571.83 c 1.884,0 3.54,0.469 4.968,1.404 l -1.206,2.502 c -0.66,-0.383 -1.368,-0.699 -2.124,-0.945 -0.756,-0.245 -1.393,-0.368 -1.908,-0.368 -0.924,0 -1.386,0.306 -1.386,0.918 0,0.396 0.228,0.714 0.684,0.954 0.456,0.24 1.011,0.447 1.665,0.621 0.654,0.174 1.308,0.384 1.962,0.63 0.654,0.246 1.209,0.646 1.665,1.196 0.456,0.553 0.684,1.248 0.684,2.088 0,1.213 -0.474,2.158 -1.422,2.836 -0.948,0.678 -2.154,1.017 -3.618,1.017 -1.044,0 -2.076,-0.18 -3.096,-0.54 -1.021,-0.359 -1.908,-0.852 -2.664,-1.477 l 1.242,-2.465 c 0.636,0.552 1.386,1.005 2.25,1.358 0.864,0.354 1.632,0.531 2.304,0.531 0.516,0 0.918,-0.093 1.206,-0.279 0.288,-0.186 0.432,-0.459 0.432,-0.819 0,-0.348 -0.166,-0.639 -0.495,-0.873 -0.33,-0.233 -0.741,-0.407 -1.233,-0.521 -0.492,-0.113 -1.026,-0.268 -1.602,-0.459 -0.576,-0.191 -1.11,-0.402 -1.602,-0.63 -0.492,-0.228 -0.903,-0.591 -1.233,-1.089 -0.331,-0.498 -0.495,-1.096 -0.495,-1.791 0,-1.152 0.459,-2.073 1.377,-2.764 0.918,-0.689 2.133,-1.035 3.645,-1.035 z" id="path83" />
        <path d="m 247.837,582.253 h -5.508 l -0.918,2.321 h -3.294 l 5.436,-12.6 h 3.294 l 5.31,12.6 h -3.42 z m -0.936,-2.431 -1.8,-4.662 -1.836,4.662 z" id="path85" />
        <path d="m 259.285,584.574 h -3.312 l -4.896,-12.6 h 3.42 l 3.222,9.27 3.222,-9.27 h 3.294 z" id="path87" />
        <path d="m 271.417,571.867 c 1.956,0 3.582,0.609 4.878,1.826 1.296,1.219 1.944,2.739 1.944,4.563 0,1.836 -0.651,3.372 -1.953,4.608 -1.302,1.235 -2.925,1.854 -4.869,1.854 -1.944,0 -3.564,-0.615 -4.86,-1.846 -1.296,-1.229 -1.944,-2.768 -1.944,-4.616 0,-1.836 0.648,-3.36 1.944,-4.572 1.296,-1.212 2.916,-1.817 4.86,-1.817 z m 0.036,2.682 c -0.984,0 -1.824,0.357 -2.52,1.07 -0.696,0.715 -1.044,1.6 -1.044,2.656 0,1.055 0.351,1.946 1.053,2.672 0.702,0.727 1.539,1.09 2.511,1.09 0.972,0 1.797,-0.363 2.475,-1.09 0.678,-0.726 1.017,-1.617 1.017,-2.672 0,-1.057 -0.339,-1.941 -1.017,-2.656 -0.678,-0.713 -1.503,-1.07 -2.475,-1.07 z" id="path89" />
        <path d="m 283.134,584.574 h -3.204 v -12.6 h 3.204 z" id="path91" />
        <path d="m 293.25,584.574 -1.872,-3.545 h -0.09 -2.43 v 3.545 h -3.204 v -12.6 h 5.634 c 1.668,0 2.958,0.381 3.87,1.143 0.912,0.763 1.368,1.846 1.368,3.25 0,1.943 -0.762,3.293 -2.286,4.049 l 2.646,4.158 z m -4.392,-6.065 h 2.43 c 0.696,0 1.236,-0.174 1.62,-0.522 0.384,-0.348 0.576,-0.852 0.576,-1.512 0,-0.648 -0.192,-1.14 -0.576,-1.477 -0.384,-0.335 -0.924,-0.504 -1.62,-0.504 h -2.43 z" id="path93" />
        <path d="m 303.168,580.039 h -4.752 v -1.963 h 4.752 z" id="path95" />
        <path d="m 314.76,574.494 h -6.138 v 2.916 h 5.652 v 2.521 h -5.652 v 4.644 h -3.204 v -12.6 h 9.342 z" id="path97" />
        <path d="m 324.048,582.253 h -5.508 l -0.918,2.321 h -3.294 l 5.436,-12.6 h 3.294 l 5.31,12.6 h -3.42 z m -0.936,-2.431 -1.8,-4.662 -1.836,4.662 z" id="path99" />
        <path d="m 332.742,584.574 h -3.204 v -12.6 h 3.204 z" id="path101" />
        <path d="m 342.858,584.574 -1.872,-3.545 h -0.09 -2.43 v 3.545 h -3.204 v -12.6 h 5.634 c 1.668,0 2.958,0.381 3.87,1.143 0.912,0.763 1.368,1.846 1.368,3.25 0,1.943 -0.762,3.293 -2.286,4.049 l 2.646,4.158 z m -4.392,-6.065 h 2.43 c 0.696,0 1.236,-0.174 1.62,-0.522 0.384,-0.348 0.576,-0.852 0.576,-1.512 0,-0.648 -0.192,-1.14 -0.576,-1.477 -0.384,-0.335 -0.924,-0.504 -1.62,-0.504 h -2.43 z" id="path103" />
        <path d="m 358.158,574.494 h -6.66 v 2.502 h 6.012 v 2.521 h -6.012 v 2.538 h 6.858 v 2.52 h -10.062 v -12.6 h 9.864 z" id="path105" />
      </g>
    </g>
  </g>
  <g style="display:inline" id="layer7">
    <g style="display:inline" id="fond_categorie" transform="translate(53.408659)">
      <path fill="#009eb9" d="m 118.379,416.895 0.367,0.555 c 10.994,16.668 24.677,37.414 28.636,65.512 3.406,24.145 0.463,41.865 -2.826,56.297 h 458.422 c -6.703,-24.98 -12.773,-56.896 4.824,-89.879 l 15.629,-29.264 c 2.139,-4.018 4.166,-7.682 6.121,-11.215 2.313,-4.18 6.283,-11.361 7.943,-15.229 -3.25,-6.174 -11.66,-13.201 -21.236,-21.205 -13.973,-11.678 -31.363,-26.211 -43.975,-47.945 -10.273,-17.686 -16.611,-41.74 -18.906,-56.902 -0.59,-3.832 -1.098,-7.576 -1.578,-11.105 l -0.123,-0.877 c -1.365,-10.115 -2.648,-18.867 -4.543,-23.51 -0.605,-1.482 -0.801,-1.963 -2.959,-3.156 -0.115,-0.035 -0.33,-0.096 -0.666,-0.17 -2.025,-0.441 -5.209,-0.666 -9.461,-0.666 -4.029,0 -8.551,0.195 -13.369,0.404 -5.547,0.24 -11.834,0.512 -18.402,0.512 -13.016,0 -23.945,-1.064 -34.396,-3.35 -11.279,-2.465 -21.525,-6.246 -31.395,-11.6 l -7.662,-4.182 c -9.832,-5.307 -18.842,-13.557 -27.58,-21.557 -1.404,-1.289 -3.514,-3.225 -4.545,-4.088 -1.738,-1.434 -3.848,-3.254 -6.641,-5.67 -6.875,-5.961 -10.01,-8.506 -11.318,-9.527 -0.611,-0.301 -0.975,-0.451 -1.143,-0.516 -1.299,-0.207 -5.059,-0.371 -8.389,-0.516 l -0.984,-0.041 c -1.16,0.633 -4.564,2.693 -10.506,7.861 l -0.082,0.07 c -5.254,4.537 -9.148,8.398 -12.93,12.148 -12.643,12.523 -25.715,25.475 -58.215,35.443 -12.861,3.951 -25.053,5.793 -38.369,5.793 -7.416,0 -14.154,-0.58 -20.133,-1.094 -5.021,-0.426 -9.359,-0.793 -13.762,-0.793 -1.09,0 -2.133,0.021 -3.232,0.068 -9.148,0.375 -11.795,2.23 -11.811,2.244 -0.014,0.014 -0.35,0.348 -1.113,1.777 l -0.172,0.32 -0.18,0.316 c -2.729,4.824 -2.729,4.824 -4.129,17.619 -1.803,16.322 -6.303,46.473 -16.166,64.938 l -4.82,9.074 c -12.647,23.596 -37.37,42.871 -48.779,49.836 -2.847,1.789 -11.133,8.719 -14.946,12.41 l -1.93,3.615 c -0.311,1.688 -0.594,4.277 -0.624,5.811 0.451,2.137 1.584,4.799 5.022,10.482 2.157,3.571 4.525,7.155 7.032,10.952 z" id="path110" />
    </g>
  </g>
  <g style="display:inline" id="layer6">
    <g style="display:inline" id="picto_posture" transform="translate(53.408659)">

      <polygon opacity="0.2" fill="currentColor" transform="translate(-20)" points="384.138,51.752 384.138,42.377 221.341,9.59 221.341,77.756 " id="polygon120" />

      <polygon opacity="0.2" fill="currentColor" points="376.341,51.752 376.341,42.377 539.138,9.59 539.138,77.756 " id="polygon129" />
      <path fill="#473467" d="m 385.699,122.738 h -2.137 v -2.137 h -1.068 l -3.205,-60.902 c 1.18,0 2.137,-0.957 2.137,-2.137 v -4.273 c 0,-1.18 -0.957,-2.137 -2.137,-2.137 h -2.139 v -8.547 h 2.139 1.068 v -2.139 h -1.068 -1.07 v -1.068 h -2.137 v -1.066 h -2.137 v -1.07 h -2.137 v -1.068 h -2.137 v 1.068 h -2.137 v 1.07 h -2.137 v 1.066 h -2.137 v 1.068 h -1.068 -1.068 v 2.139 h 1.068 2.137 v 8.547 h -2.137 c -1.182,0 -2.137,0.957 -2.137,2.137 v 4.273 c 0,1.18 0.955,2.137 2.137,2.137 l -3.205,60.902 h -1.068 v 2.137 h -2.139 l -4.273,4.273 h 38.465 z M 366.466,43.674 h 8.547 v 5.342 h -3.205 v -1.068 h 1.068 v -2.137 h -2.137 v 2.137 1.068 h -4.273 z m -5.002,70.517 h 18.551 l 0.225,4.273 h -19 z m 2.475,-47.011 h 13.604 l 0.393,7.479 h -14.391 z m 0.225,-4.276 0.057,-1.068 h 13.041 l 0.055,1.068 z m -0.844,16.028 h 14.84 l 0.395,7.479 h -15.627 z m 15.459,11.754 0.393,7.479 h -16.863 l 0.393,-7.479 z m 0.617,11.752 0.395,7.479 h -18.102 l 0.395,-7.479 z m 0.961,24.041 h -3.207 v -2.137 c 0,-0.885 0.719,-1.604 1.604,-1.604 0.885,0 1.604,0.719 1.604,1.604 v 2.137 z" id="path131" />
    </g>
  </g>
  <g style="display:inline" id="layer2">
    <g style="display:inline" id="filet_1_categorie" transform="translate(53.408659)">
      <g id="g146">
        <path fill="none" stroke="#473467" stroke-width="2" stroke-miterlimit="10" d="m 660.251,375.295 c 0.59,-2.17 1.352,-4.236 2.299,-6.15 l 7.686,-15.543 c 6.258,-12.631 6.916,-26.516 1.855,-39.098 -5.066,-12.576 -15.162,-22.135 -28.432,-26.914 l -16.307,-5.863 c -15.27,-5.5 -28.996,-24.549 -29.373,-40.764 l -0.412,-17.336 c -0.529,-22.508 -15.307,-40.783 -36.771,-45.475 -5.654,-1.236 -11.523,-1.445 -17.449,-0.625 l -17.164,2.379 c -4.115,0.574 -8.621,0.338 -13.391,-0.705 -13.275,-2.9 -25.955,-11.637 -31.555,-21.736 l -8.424,-15.152 c -6.902,-12.428 -18.059,-20.879 -31.412,-23.799 -13.143,-2.871 -26.643,0.031 -38.02,8.176 l -14.094,10.086 c -1.449,1.037 -3.039,1.961 -4.719,2.789" id="path134" />
        <path fill="none" stroke="#473467" stroke-width="2" stroke-miterlimit="10" d="m 79.221,411.779 c -1.456,7.258 -4.455,14.092 -8.88,19.328 l -11.13,13.176 c -9.104,10.779 -13.063,24.107 -11.15,37.529 1.907,13.428 9.424,25.121 21.164,32.932 l 14.341,9.541 c 14.025,9.332 22.474,30.307 18.834,46.756 l -3.727,16.836 c -2.836,12.791 -0.662,25.678 6.12,36.291 6.714,10.508 17.309,17.801 29.832,20.539 1.859,0.406 3.761,0.711 5.65,0.906 l 17.24,1.799 c 1.164,0.121 2.348,0.313 3.518,0.568 15.545,3.398 30.813,17.445 34.76,31.98 l 4.547,16.723 c 4.729,17.428 18.26,30.57 35.314,34.297 9.326,2.039 19.133,1.174 28.357,-2.506 l 12.457,-4.971" id="path136" />
        <path fill="none" stroke="#473467" stroke-width="2" stroke-miterlimit="10" d="m 350.583,142.674 c -4.352,-1.1 -8.313,-2.771 -11.525,-4.883 l -14.496,-9.506 c -5.164,-3.389 -10.75,-5.758 -16.602,-7.035 -21.182,-4.629 -42.137,5.602 -52.143,25.463 l -7.793,15.486 c -7.293,14.496 -27.861,25.816 -44.002,24.244 l -17.254,-1.678 c -14.035,-1.377 -27.248,2.936 -37.215,12.133 -9.968,9.199 -15.326,22.029 -15.084,36.127 l 0.29,17.33 c 0.28,16.219 -12.662,35.809 -27.695,41.922 L 91.013,298.8 c -13.071,5.313 -22.775,15.273 -27.324,28.049 -4.547,12.777 -3.327,26.625 3.437,38.994 l 8.273,15.135 c 0.356,0.652 0.686,1.324 1.002,2.006" id="path138" />
        <path fill="none" stroke="#473467" stroke-width="2" stroke-miterlimit="10" d="M 661.775,409.689" id="path140" />
        <path fill="none" stroke="#473467" stroke-width="2" stroke-miterlimit="10" d="m 478.078,720.352 10.141,3.574 c 2.004,0.705 4.059,1.291 6.107,1.738 25.635,5.602 50.328,-10.246 56.236,-36.078 l 3.861,-16.904 c 3.609,-15.807 20.861,-31.73 36.918,-34.074 l 17.154,-2.494 c 13.955,-2.033 25.758,-9.381 33.234,-20.688 7.475,-11.316 9.604,-25.055 6,-38.686 l -4.412,-16.676 c -4.307,-16.281 3.277,-37.574 16.908,-47.467 l 13.961,-10.131 c 11.412,-8.281 18.447,-20.27 19.805,-33.756 1.365,-13.496 -3.131,-26.652 -12.66,-37.045 l -11.719,-12.783 c -2.436,-2.656 -4.488,-5.871 -6.137,-9.422" id="path142" />
        <path fill="none" stroke="#473467" stroke-width="2" stroke-miterlimit="10" d="m 302.554,720.154 c 1.082,0.168 2.166,0.367 3.248,0.604 9.467,2.068 17.967,6.563 23.324,12.328 l 11.795,12.701 c 6.912,7.43 15.596,12.457 25.113,14.537 3.348,0.73 6.697,1.09 10.014,1.09 13.594,0 26.574,-6.027 36.029,-17.07 l 11.273,-13.166 c 4.574,-5.342 11.389,-9.539 18.93,-12.123" id="path144" />
      </g>
    </g>
  </g>
  <g style="display:inline" id="layer4">
    <g style="display:inline" id="filet_2_categorie" transform="translate(53.408659)">
      <path opacity="0.2" fill="none" stroke="#009eb9" stroke-width="27" stroke-miterlimit="10" d="m 282.828,725.123 c -1.973,-0.395 -3.834,-1.045 -5.537,-1.93 l -7.947,-4.135 c -10.732,-5.572 -16.158,-15.756 -23.672,-29.842 -9.891,-18.568 -22.203,-41.666 -51.676,-56.994 l -5.492,-2.865 -57.433,-21.49 -3.865,-2.418 -0.464,-0.229 c -2.652,-1.617 -9.563,-10.582 -13.164,-17.828 -3.022,-6.172 -3.772,-9.854 -2.516,-20.752 1.013,-8.766 2.629,-16.016 4.194,-23.027 3.254,-14.596 6.62,-29.68 3.034,-52.207 -3.396,-21.365 -14.831,-38.047 -24.921,-52.77 -2.782,-4.057 -5.585,-8.127 -8.234,-12.34 -4.894,-7.775 -8.201,-14.186 -9.542,-22.127 -0.827,-4.857 0.375,-17.516 2.467,-21.615 l 4.567,-8.932 c 2.284,-3.594 17.2,-16.986 23.662,-21.117 9.856,-6.236 28.772,-22.402 37.351,-39.107 l 4.607,-9.057 c 7.973,-15.582 11.295,-48.027 11.883,-54.375 1.334,-14.541 1.738,-18.941 7.322,-29.23 4.852,-9.484 13.002,-19.078 37.801,-20.535 7.504,-0.451 13.984,-0.014 20.836,0.443 13.783,0.943 27.961,1.91 47.02,-4.316 25.313,-8.258 34.186,-17.367 45.416,-28.895 3.922,-4.027 8.299,-8.516 14.188,-13.785 10.047,-9.057 16.354,-12.555 19.881,-13.9 5.188,-2.025 5.469,-2.014 7.309,-1.955 l 5.004,0.125 c 6.184,0.16 10.164,0.262 13.668,0.965 3.068,0.613 6.254,1.832 10.328,3.953 2.637,1.477 12.34,9.584 15.529,12.25 2.543,2.125 4.686,3.91 6.227,5.131 1.502,1.207 3.537,3.002 5.77,4.98 7.75,6.848 15.27,13.49 21.9,16.906 l 7.805,4.082 c 7.365,3.828 15.064,6.508 23.58,8.211 15.822,3.168 31.406,2.213 45.156,1.373 11.264,-0.686 21.906,-1.332 30.516,0.391 3.211,0.645 5.955,1.57 8.404,2.844 17.182,8.932 20.047,22.852 24.004,48.725 l 0.117,0.748 c 0.545,3.535 1.094,7.09 1.705,10.66 2.299,13.551 8.141,33.096 16.014,46.115 10.25,16.965 24.977,28.854 37.971,39.328 14.492,11.684 26.984,21.764 32.102,36.525 3.281,10.238 -0.129,17.535 -10.49,37.076 -1.842,3.471 -3.748,7.064 -5.699,10.891 l -15.131,29.576 c -13.576,26.568 -5.641,53.027 1.363,76.375 4.881,16.283 9.482,31.621 4.51,41.361 -8.334,16.301 -19.945,25.752 -40.068,32.609 -5.389,1.842 -10.57,3.701 -15.85,5.602 l -9.727,3.484 c -15.553,5.449 -22.268,11.822 -29.373,18.563 -2.289,2.184 -4.838,4.607 -8.219,7.4 -11.018,9.109 -17.924,23.615 -24.014,36.406 -1.465,3.07 -2.734,5.744 -3.992,8.201 l -1.824,3.578 c -15.65,30.664 -34.012,31.32 -48.26,28.469 -7.902,-1.582 -16.791,-4.93 -26.432,-9.945 l -1.969,-1.035 -34.754,-9.271 -2.221,-0.098 c -10.525,-0.447 -22.404,-0.252 -38.121,4.078 -2.318,0.637 -4.676,1.236 -7.021,1.816 -8.184,2.051 -17.422,4.359 -26.441,8.936 -6.211,3.155 -25.154,12.747 -39.142,9.946 z" id="path149" />
    </g>
  </g>
  <g style="display:inline" id="layer3">
    <g style="display:inline" id="filet_3_posture" transform="translate(53.408659)">
      <path fill="none" stroke="#009eb9" stroke-width="27" stroke-miterlimit="10" d="m 282.828,725.123 c -1.973,-0.395 -3.834,-1.045 -5.537,-1.93 l -7.947,-4.135 c -10.732,-5.572 -16.158,-15.756 -23.672,-29.842 -9.891,-18.568 -22.203,-41.666 -51.676,-56.994 l -5.492,-2.865 -57.433,-21.49 -3.865,-2.418 -0.464,-0.229 c -2.652,-1.617 -9.563,-10.582 -13.164,-17.828 -3.022,-6.172 -3.772,-9.854 -2.516,-20.752 1.013,-8.766 2.629,-16.016 4.194,-23.027 3.254,-14.596 6.62,-29.68 3.034,-52.207 -3.396,-21.365 -14.831,-38.047 -24.921,-52.77 -2.782,-4.057 -5.585,-8.127 -8.234,-12.34 -4.894,-7.775 -8.201,-14.186 -9.542,-22.127 -0.827,-4.857 0.375,-17.516 2.467,-21.615 l 4.567,-8.932 c 2.284,-3.594 17.2,-16.986 23.662,-21.117 9.856,-6.236 28.772,-22.402 37.351,-39.107 l 4.607,-9.057 c 7.973,-15.582 11.295,-48.027 11.883,-54.375 1.334,-14.541 1.738,-18.941 7.322,-29.23 4.852,-9.484 13.002,-19.078 37.801,-20.535 7.504,-0.451 13.984,-0.014 20.836,0.443 13.783,0.943 27.961,1.91 47.02,-4.316 25.313,-8.258 34.186,-17.367 45.416,-28.895 3.922,-4.027 8.299,-8.516 14.188,-13.785 10.047,-9.057 16.354,-12.555 19.881,-13.9 5.188,-2.025 5.469,-2.014 7.309,-1.955 l 5.004,0.125 c 6.184,0.16 10.164,0.262 13.668,0.965 3.068,0.613 6.254,1.832 10.328,3.953 2.637,1.477 12.34,9.584 15.529,12.25 2.543,2.125 4.686,3.91 6.227,5.131 1.502,1.207 3.537,3.002 5.77,4.98 7.75,6.848 15.27,13.49 21.9,16.906 l 7.805,4.082 c 7.365,3.828 15.064,6.508 23.58,8.211 15.822,3.168 31.406,2.213 45.156,1.373 11.264,-0.686 21.906,-1.332 30.516,0.391 3.211,0.645 5.955,1.57 8.404,2.844 17.182,8.932 20.047,22.852 24.004,48.725 l 0.117,0.748 c 0.545,3.535 1.094,7.09 1.705,10.66 2.299,13.551 8.141,33.096 16.014,46.115 10.25,16.965 24.977,28.854 37.971,39.328 14.492,11.684 26.984,21.764 32.102,36.525 3.281,10.238 -0.129,17.535 -10.49,37.076 -1.842,3.471 -3.748,7.064 -5.699,10.891 l -15.131,29.576 c -13.576,26.568 -5.641,53.027 1.363,76.375 4.881,16.283 9.482,31.621 4.51,41.361 -8.334,16.301 -19.945,25.752 -40.068,32.609 -5.389,1.842 -10.57,3.701 -15.85,5.602 l -9.727,3.484 c -15.553,5.449 -22.268,11.822 -29.373,18.563 -2.289,2.184 -4.838,4.607 -8.219,7.4 -11.018,9.109 -17.924,23.615 -24.014,36.406 -1.465,3.07 -2.734,5.744 -3.992,8.201 l -1.824,3.578 c -15.65,30.664 -34.012,31.32 -48.26,28.469 -7.902,-1.582 -16.791,-4.93 -26.432,-9.945 l -1.969,-1.035 -34.754,-9.271 -2.221,-0.098 c -10.525,-0.447 -22.404,-0.252 -38.121,4.078 -2.318,0.637 -4.676,1.236 -7.021,1.816 -8.184,2.051 -17.422,4.359 -26.441,8.936 -6.211,3.155 -25.154,12.747 -39.142,9.946 z" id="path152" />
    </g>
  </g>
  <g style="display:inline" id="layer5">
    <g style="display:inline" id="texte_titre_badge" transform="translate(53.408659)">
      <g id="g192">
        <path fill="#ffffff" d="m 205.094,512.46 2.844,0.36 v 4.571 h -11.879 v -4.571 l 2.844,-0.36 v -14.722 h -3.636 l -0.54,3.563 h -4.607 l 0.181,-8.676 h 23.396 l 0.181,8.676 h -4.607 l -0.54,-3.563 h -3.636 v 14.722 z" id="path162" />
        <path fill="#ffffff" d="m 215.572,517.392 v -4.571 l 2.844,-0.36 v -14.865 l -2.844,-0.396 v -4.572 h 11.879 v 4.572 l -2.844,0.396 v 14.865 l 2.844,0.36 v 4.571 z" id="path164" />
        <path fill="#ffffff" d="m 244.082,512.46 2.844,0.36 v 4.571 h -11.878 v -4.571 l 2.844,-0.36 v -14.722 h -3.636 l -0.54,3.563 h -4.607 l 0.18,-8.676 h 23.397 l 0.18,8.676 h -4.607 l -0.54,-3.563 h -3.636 v 14.722 z" id="path166" />
        <path fill="#ffffff" d="m 271.297,517.392 -4.535,-8.675 h -3.168 v 3.743 l 3.636,0.36 v 4.571 h -12.67 v -4.571 l 2.844,-0.36 v -14.865 l -2.844,-0.396 v -4.572 h 13.462 c 5.039,0 8.495,2.844 8.495,7.632 0,4.067 -1.691,5.687 -4.067,6.983 v 0.18 c 0,0 0.396,0.288 0.684,0.792 l 2.483,4.247 3.168,0.36 v 4.571 z m -4.823,-13.498 c 2.628,0 3.779,-1.044 3.779,-3.275 0,-1.944 -1.403,-2.88 -3.779,-2.88 h -2.88 v 6.155 z" id="path168" />
        <path fill="#ffffff" d="m 280.228,517.392 v -4.571 l 2.808,-0.36 v -14.902 l -2.808,-0.359 v -4.572 h 20.409 l 0.144,8.676 h -4.607 l -0.54,-3.563 h -6.406 v 4.787 h 5.363 v 4.932 h -5.363 v 4.823 h 6.335 l 0.54,-3.563 h 4.607 l -0.252,8.675 h -20.23 z" id="path170" />
        <path fill="#ffffff" d="m 310.359,517.392 v -4.571 l 2.844,-0.36 v -14.902 l -2.844,-0.359 v -4.572 h 12.131 c 6.119,0 12.13,3.24 12.13,12.203 0,9.826 -5.938,12.563 -11.554,12.563 h -12.707 z m 11.23,-5.112 c 4.212,0 6.768,-1.619 6.768,-7.451 0,-4.967 -2.664,-7.091 -7.235,-7.091 h -1.728 v 14.542 z" id="path172" />
        <path fill="#ffffff" d="m 353.845,497.595 -2.844,-0.396 v -4.572 h 11.519 v 4.572 l -2.844,0.396 v 10.689 c 0,6.264 -3.743,9.359 -10.366,9.359 -6.623,0 -10.511,-3.096 -10.511,-9.359 v -10.689 l -2.844,-0.396 v -4.572 h 11.879 v 4.572 l -2.844,0.396 v 10.294 c 0,1.944 0.792,4.571 4.319,4.571 2.879,0 4.535,-2.051 4.535,-4.391 v -10.474 z" id="path174" />
        <path fill="#ffffff" d="m 371.235,517.392 v -4.571 l 2.844,-0.36 v -14.902 l -2.844,-0.359 v -4.572 h 10.295 c 7.091,0 10.654,1.729 10.654,6.66 0,4.211 -2.664,5.003 -3.635,5.291 v 0.288 c 1.764,0.216 5.398,1.188 5.398,5.759 0,4.248 -2.483,6.768 -10.043,6.768 h -12.669 z m 12.058,-14.723 c 1.656,0 2.627,-0.971 2.627,-2.447 0,-1.764 -1.403,-2.483 -2.987,-2.483 h -2.663 v 4.931 h 3.023 z m -3.023,4.644 v 4.967 h 3.924 c 2.52,0 3.49,-0.684 3.49,-2.447 0,-1.584 -1.223,-2.52 -2.986,-2.52 z" id="path176" />
        <path fill="#ffffff" d="m 418.932,512.46 2.52,0.36 v 4.571 h -11.158 v -4.571 l 2.699,-0.36 -0.9,-2.375 h -8.387 l -0.9,2.375 2.7,0.36 v 4.571 h -10.979 v -4.571 l 2.52,-0.36 5.651,-14.902 -3.168,-0.18 v -4.752 h 11.879 z m -10.15,-11.194 c -0.252,-0.647 -0.793,-2.196 -0.793,-2.196 h -0.18 c 0,0 -0.54,1.549 -0.792,2.196 l -1.548,4.104 h 4.859 z" id="path178" />
        <path fill="#ffffff" d="m 422.786,517.392 v -4.571 l 2.844,-0.36 v -14.902 l -2.844,-0.359 v -4.572 h 12.131 c 6.119,0 12.131,3.24 12.131,12.203 0,9.826 -5.939,12.563 -11.555,12.563 h -12.707 z m 11.23,-5.112 c 4.212,0 6.768,-1.619 6.768,-7.451 0,-4.967 -2.664,-7.091 -7.234,-7.091 h -1.729 v 14.542 z" id="path180" />
        <path fill="#ffffff" d="m 470.627,508.717 c 0,3.708 -2.052,8.927 -10.402,8.927 -6.804,0 -11.051,-3.924 -11.051,-12.67 0,-8.676 4.283,-12.563 11.051,-12.563 8.351,0 10.402,4.355 10.402,7.486 0,1.116 -0.252,1.872 -0.252,1.872 l -5.867,0.54 c 0,0 0.145,-0.54 0.145,-1.296 0,-1.476 -0.937,-3.456 -4.104,-3.456 -2.844,0 -5.111,1.801 -5.111,7.523 0,5.651 2.482,7.379 5.326,7.379 2.736,0 3.744,-1.188 3.852,-3.203 l -3.491,-0.36 v -4.212 h 9.503 v 4.033 z" id="path182" />
        <path fill="#ffffff" d="m 473.114,517.392 v -4.571 l 2.808,-0.36 v -14.902 l -2.808,-0.359 v -4.572 h 20.409 l 0.144,8.676 h -4.607 l -0.539,-3.563 h -6.407 v 4.787 h 5.363 v 4.932 h -5.363 v 4.823 h 6.335 l 0.54,-3.563 h 4.607 l -0.252,8.675 h -20.23 z" id="path184" />
        <path fill="#ffffff" d="m 503.245,517.392 v -4.571 l 2.844,-0.36 v -14.865 l -2.844,-0.396 v -4.572 h 11.879 v 4.572 l -2.844,0.396 v 14.865 l 2.844,0.36 v 4.571 z" id="path186" />
        <path fill="#ffffff" d="m 532.727,508.645 v -0.684 l 5.976,1.224 v 0.611 c 0,3.276 -2.088,7.848 -10.583,7.848 -6.695,0 -10.87,-3.924 -10.87,-12.67 0,-8.676 4.283,-12.563 11.05,-12.563 8.352,0 10.403,4.787 10.403,8.207 0,1.115 -0.252,1.871 -0.252,1.871 l -5.867,0.721 c 0,0 0.144,-0.612 0.144,-1.477 0,-1.764 -0.936,-4.176 -4.104,-4.176 -2.844,0 -5.111,1.801 -5.111,7.523 0,5.651 2.412,7.379 5.147,7.379 3.095,0.001 4.067,-1.438 4.067,-3.814 z" id="path188" />
        <path fill="#ffffff" d="m 541.008,517.392 v -4.571 l 2.844,-0.36 v -14.865 l -2.844,-0.396 v -4.572 h 11.879 v 4.572 l -2.844,0.396 v 14.865 l 2.844,0.36 v 4.571 z" id="path190" />
      </g>
    </g>
  </g>
  <g style="display:inline" id="layer1">
    <g style="display:inline" id="picto_titre_badge" transform="translate(53.408659)">
      <g id="g159">
        <path fill="#ffffff" stroke="#ffffff" stroke-miterlimit="10" d="m 311.494,318.725 c 6.838,6.564 15.277,11.789 25.084,15.523 9.803,3.74 21.309,5.637 34.201,5.637 12.717,0 24.18,-1.896 34.066,-5.637 9.893,-3.734 18.375,-8.957 25.211,-15.523 6.844,-6.576 12.201,-14.363 15.922,-23.143 1.627,-3.848 2.979,-7.93 4.021,-12.15 h -50.096 c -1.318,2.273 -2.65,4.158 -4.063,5.75 -5.457,6.156 -13.889,9.281 -25.063,9.281 -13.572,0 -17.24,-0.455 -25.189,-9.275 -1.439,-1.588 -2.756,-3.426 -4.119,-5.756 h -49.922 c 1.037,4.203 2.393,8.287 4.033,12.148 3.722,8.791 9.076,16.576 15.914,23.145 z" id="path155" />
        <path fill="#ffffff" stroke="#ffffff" stroke-miterlimit="10" d="m 452.382,429.016 c -0.523,-9.941 -2.678,-19.449 -6.406,-28.25 -3.717,-8.766 -9.07,-16.498 -15.914,-22.979 -6.834,-6.471 -15.322,-11.697 -25.223,-15.527 -9.898,-3.822 -21.357,-5.76 -34.063,-5.76 -12.875,0 -24.381,1.938 -34.193,5.758 -9.814,3.834 -18.258,9.061 -25.096,15.529 -6.838,6.471 -12.188,14.203 -15.906,22.979 -3.729,8.787 -5.887,18.293 -6.41,28.256 -0.363,7.871 -0.525,33.045 -0.525,41.285 0,0.611 0.008,1.197 0.018,1.785 l 0.002,0.184 h 46.764 l -0.006,-0.35 c -0.01,-0.715 -0.023,-1.426 -0.023,-2.158 0,-3.904 0.047,-25.1 0.141,-29.027 0.094,-4.07 0.311,-7.518 0.658,-10.537 0.357,-4.543 1.316,-8.836 2.848,-12.723 1.537,-3.896 3.748,-7.334 6.568,-10.221 2.822,-2.893 6.363,-5.203 10.516,-6.865 4.15,-1.662 9.078,-2.506 14.646,-2.506 5.568,0 10.496,0.844 14.648,2.506 4.145,1.662 7.686,3.971 10.521,6.863 2.814,2.893 5.02,6.328 6.561,10.221 1.527,3.881 2.484,8.174 2.848,12.76 0.178,3.105 0.355,6.586 0.535,10.479 0.172,3.943 0.256,25.145 0.256,29.051 0,0.643 -0.018,1.268 -0.035,1.893 -0.008,0.207 -0.012,0.41 -0.018,0.615 h 46.805 l 0.002,-0.236 c 0.01,-0.568 0.018,-1.137 0.018,-1.732 -0.002,-8.86 -0.181,-33.588 -0.537,-41.293 z" id="path157" />
      </g>
    </g>
  </g>
</svg>
