<?xml version="1.0" encoding="UTF-8" standalone="no"?>
<svg xmlns:dc="http://purl.org/dc/elements/1.1/"
  xmlns:cc="http://creativecommons.org/ns#"
  xmlns:rdf="http://www.w3.org/1999/02/22-rdf-syntax-ns#"
  xmlns:svg="http://www.w3.org/2000/svg"
  xmlns="http://www.w3.org/2000/svg" version="1.1" y="0px" width="100%" viewBox="0 0 839.99998 839.99999" enable-background="new 0 0 737.007 841.89" xml:space="preserve" id="svg1335" height="100%">
  <metadata id="metadata1341">
    <rdf:RDF>
      <cc:Work rdf:about="">
        <dc:format>image/svg+xml</dc:format>
        <dc:type rdf:resource="http://purl.org/dc/dcmitype/StillImage" />
        <dc:title></dc:title>
      </cc:Work>
    </rdf:RDF>
  </metadata>
  <defs id="defs1339" />
  <g id="layer14" style="display:inline" transform="translate(5.6876619)">
    <g style="display:inline;fill:#ffffff" transform="translate(-6.5414687)" id="filet_3_posture-5">
      <path fill="none" stroke="#019db8" stroke-width="3" stroke-miterlimit="10" d="m 421.125,738.355 c -163.399,0 -296.299,-132.9 -296.299,-296.257 0,-163.357 132.9,-296.257 296.299,-296.257 163.381,0 296.285,132.9 296.285,296.257 0,163.357 -138.237,296.257 -296.285,296.257 z" id="path250-2" style="fill:#ffffff" />
    </g>
  </g>
  <g id="layer13" style="display:inline" transform="translate(5.6876619)">
    <g id="texte_posture" transform="translate(-6.5414687)">
      <g id="g28">
        <path id="path2" d="m 271.536,727.201 -9.528,16.393 c -1.487,2.559 -3.39,4.121 -5.708,4.686 -2.318,0.566 -4.78,0.091 -7.385,-1.424 -3.297,-1.916 -5.325,-4.822 -6.083,-8.717 l 5.228,-2.467 c 0.684,2.803 1.855,4.688 3.516,5.652 1.729,1.004 3.17,0.516 4.322,-1.467 l 6.553,-11.273 -8.3,-4.824 2.895,-4.98 z" fill="#473467" />
        <path id="path4" d="m 279.207,731.126 c 0.807,0.412 1.362,1.026 1.666,1.839 0.303,0.814 0.224,1.672 -0.237,2.574 -0.413,0.808 -1.075,1.457 -1.985,1.951 l -4.529,2.447 -2.921,-1.492 3.532,-2.957 c -0.504,-0.947 -0.502,-1.919 0.008,-2.916 0.449,-0.879 1.091,-1.449 1.929,-1.71 0.835,-0.26 1.682,-0.173 2.537,0.264 z" fill="#473467" />
        <path id="path6" d="m 295.127,763.6 -11.257,-4.805 -3.902,3.944 -6.732,-2.874 22.104,-21.009 6.732,2.874 -0.141,30.385 -6.99,-2.984 z m 0.207,-5.784 0.389,-11.098 -7.82,7.926 z" fill="#473467" />
        <path id="path8" d="m 314.317,776.111 -6.737,-2.305 9.062,-26.493 6.737,2.304 z" fill="#473467" />
        <path id="path10" d="m 340.283,754.897 11.749,2.635 c 4.293,0.963 7.503,3.009 9.63,6.136 2.127,3.129 2.735,6.723 1.825,10.781 -0.905,4.033 -3.007,7.012 -6.309,8.936 -3.301,1.925 -7.151,2.394 -11.548,1.407 l -11.475,-2.573 z m 5.705,7.101 -3.642,16.236 4.957,1.111 c 2.133,0.479 4.051,0.123 5.753,-1.066 1.702,-1.189 2.821,-2.981 3.358,-5.375 0.537,-2.395 0.26,-4.514 -0.83,-6.355 -1.09,-1.844 -2.741,-3.014 -4.952,-3.51 z" fill="#473467" />
        <path id="path12" d="m 392.306,769.715 -14.685,-1.844 -0.693,5.517 13.256,1.665 -0.698,5.557 -13.256,-1.665 -0.703,5.597 15.121,1.898 -0.698,5.556 -22.186,-2.786 3.488,-27.781 21.749,2.73 z m -2.245,-12.941 -5.723,3.837 -5.239,-0.658 5.044,-6.139 z" fill="#473467" />
        <path id="path14" d="m 412.177,764.847 c 2.079,0.072 4.109,0.569 6.092,1.492 1.982,0.923 3.654,2.128 5.018,3.616 L 419,774.689 c -0.867,-1.15 -1.923,-2.074 -3.166,-2.771 -1.244,-0.697 -2.491,-1.067 -3.744,-1.111 -2.212,-0.076 -4.092,0.639 -5.638,2.146 -1.547,1.507 -2.359,3.406 -2.439,5.698 -0.081,2.345 0.597,4.33 2.035,5.954 1.438,1.625 3.262,2.475 5.475,2.552 1.172,0.04 2.402,-0.21 3.688,-0.753 1.286,-0.541 2.44,-1.302 3.461,-2.281 l 4.004,4.543 c -1.573,1.492 -3.408,2.67 -5.506,3.53 -2.098,0.861 -4.173,1.256 -6.225,1.185 -4.211,-0.146 -7.668,-1.641 -10.371,-4.482 -2.703,-2.842 -3.983,-6.315 -3.841,-10.42 0.14,-4.023 1.682,-7.34 4.628,-9.945 2.947,-2.606 6.552,-3.836 10.816,-3.687 z" fill="#473467" />
        <path id="path16" d="m 440.32,764.385 c 4.338,-0.264 8.027,0.869 11.066,3.395 3.039,2.527 4.682,5.814 4.928,9.859 0.247,4.072 -0.99,7.568 -3.711,10.484 -2.723,2.918 -6.238,4.508 -10.551,4.77 -4.312,0.262 -7.988,-0.883 -11.028,-3.438 -3.04,-2.553 -4.686,-5.879 -4.935,-9.979 -0.248,-4.072 0.984,-7.54 3.695,-10.403 2.711,-2.863 6.223,-4.426 10.536,-4.688 z m 0.441,5.944 c -2.184,0.133 -3.998,1.038 -5.445,2.716 -1.447,1.678 -2.1,3.688 -1.957,6.029 0.142,2.343 1.041,4.271 2.695,5.787 1.655,1.517 3.561,2.209 5.717,2.077 2.156,-0.131 3.937,-1.047 5.343,-2.749 1.405,-1.701 2.038,-3.724 1.896,-6.066 -0.143,-2.342 -1.014,-4.26 -2.613,-5.752 -1.603,-1.492 -3.48,-2.173 -5.636,-2.042 z" fill="#473467" />
        <path id="path18" d="m 484.951,758.943 2.643,16.023 c 0.603,3.658 -0.051,6.745 -1.959,9.262 -1.91,2.519 -4.799,4.096 -8.666,4.734 -3.895,0.642 -7.169,0.081 -9.824,-1.684 -2.656,-1.766 -4.286,-4.477 -4.889,-8.134 l -2.643,-16.023 7.024,-1.159 2.643,16.024 c 0.304,1.842 1.079,3.222 2.324,4.137 1.245,0.917 2.724,1.233 4.435,0.951 1.684,-0.277 2.943,-1.039 3.777,-2.285 0.836,-1.245 1.1,-2.802 0.791,-4.671 l -2.643,-16.023 z" fill="#473467" />
        <path id="path20" d="m 512.998,780.664 -7.107,1.907 -17.767,-24.223 7.34,-1.97 12.255,18.039 1.576,-21.751 7.069,-1.897 z" fill="#473467" />
        <path id="path22" d="m 542.382,747.064 -13.873,5.156 1.938,5.212 12.522,-4.654 1.95,5.249 -12.522,4.654 1.964,5.287 14.286,-5.309 1.95,5.248 -20.959,7.789 -9.754,-26.246 20.547,-7.635 z" fill="#473467" />
        <path id="path24" d="m 573.378,757.359 -7.168,-5.294 -0.181,0.087 -4.864,2.344 3.419,7.099 -6.415,3.09 -12.15,-25.226 11.279,-5.434 c 3.34,-1.608 6.289,-2.09 8.851,-1.443 2.561,0.646 4.519,2.374 5.872,5.186 1.875,3.892 1.65,7.33 -0.671,10.313 l 9.308,5.773 z m -14.643,-7.909 4.864,-2.343 c 1.394,-0.672 2.307,-1.54 2.74,-2.607 0.433,-1.067 0.332,-2.262 -0.305,-3.583 -0.625,-1.298 -1.484,-2.097 -2.576,-2.399 -1.094,-0.302 -2.337,-0.117 -3.73,0.553 l -4.864,2.344 z" fill="#473467" />
        <path id="path26" d="m 594.181,720.041 -7.25,4.321 11.409,19.138 -6.116,3.646 -11.408,-19.138 -7.181,4.281 -2.95,-4.947 20.547,-12.248 z" fill="#473467" />
      </g>
    </g>
  </g>
  <g id="layer12" style="display:inline" transform="translate(5.6876619)">
    <g id="filet_separation_theme" transform="translate(-6.5414677)" style="display:inline">
      <line id="line31" y2="653.203" x2="424.04099" y1="615.41998" x1="424.04099" stroke-miterlimit="10" stroke-width="2" stroke="#1e1e1c" fill="none" />
    </g>
  </g>
  <g id="layer11" style="display:inline" transform="translate(5.6876619)">
    <g style="display:inline" transform="translate(-6.5414727)" id="picto_theme">
      <g id="g38">
        <path fill="none" stroke="#1e1e1c" stroke-width="2" stroke-miterlimit="10" d="m 480.128,617.389 c 2.643,2.538 5.904,4.559 9.695,6.002 3.789,1.446 8.238,2.179 13.223,2.179 4.916,0 9.348,-0.732 13.17,-2.179 3.822,-1.443 7.104,-3.463 9.746,-6.002 2.646,-2.541 4.717,-5.552 6.154,-8.945 0.629,-1.488 1.15,-3.065 1.555,-4.697 h -19.365 c -0.51,0.879 -1.025,1.608 -1.57,2.223 -2.111,2.38 -5.371,3.588 -9.689,3.588 -5.246,0 -6.666,-0.176 -9.738,-3.586 -0.557,-0.613 -1.066,-1.323 -1.592,-2.225 h -19.299 c 0.4,1.626 0.926,3.204 1.559,4.696 1.437,3.398 3.507,6.408 6.151,8.946 z" id="path34" />
        <path fill="none" stroke="#1e1e1c" stroke-width="2" stroke-miterlimit="10" d="m 534.593,660.025 c -0.203,-3.843 -1.037,-7.519 -2.479,-10.921 -1.436,-3.389 -3.506,-6.378 -6.15,-8.883 -2.643,-2.502 -5.924,-4.521 -9.752,-6.002 -3.826,-1.478 -8.256,-2.228 -13.166,-2.228 -4.979,0 -9.426,0.75 -13.219,2.227 -3.795,1.482 -7.059,3.502 -9.701,6.003 -2.645,2.502 -4.713,5.491 -6.15,8.883 -1.441,3.398 -2.275,7.072 -2.479,10.923 -0.141,3.044 -0.203,12.774 -0.203,15.961 0,0.237 0.004,0.462 0.008,0.69 l 0.002,0.071 h 18.076 l -0.002,-0.137 c -0.004,-0.274 -0.01,-0.55 -0.01,-0.834 0,-1.51 0.018,-9.703 0.055,-11.221 0.037,-1.573 0.121,-2.906 0.256,-4.074 0.137,-1.756 0.508,-3.416 1.1,-4.918 0.596,-1.506 1.449,-2.836 2.541,-3.951 1.088,-1.117 2.459,-2.011 4.063,-2.654 1.605,-0.642 3.51,-0.968 5.664,-0.968 2.15,0 4.057,0.326 5.662,0.968 1.602,0.643 2.971,1.536 4.066,2.653 1.088,1.119 1.941,2.447 2.537,3.951 0.59,1.501 0.961,3.16 1.1,4.935 0.07,1.199 0.139,2.545 0.209,4.049 0.064,1.524 0.098,9.72 0.098,11.23 0,0.249 -0.006,0.491 -0.014,0.733 -0.002,0.078 -0.006,0.156 -0.008,0.237 h 18.094 l 0.002,-0.092 c 0.004,-0.22 0.006,-0.439 0.006,-0.67 -10e-4,-3.422 -0.069,-12.981 -0.206,-15.961 z" id="path36" />
      </g>
    </g>
  </g>
  <g id="layer10" style="display:inline" transform="translate(5.6876619)">
    <g style="display:inline" transform="translate(-6.5414727)" id="texte_picto_theme">
      <g id="g61">
        <path fill="#1e1e1c" d="m 450.201,579.291 h -3.799 v 10.025 h -3.203 v -10.025 h -3.763 v -2.592 h 10.765 z" id="path41" />
        <path fill="#1e1e1c" d="m 461.432,579.236 h -6.66 v 2.502 h 6.013 v 2.521 h -6.013 v 2.538 h 6.858 v 2.52 h -10.063 v -12.6 h 9.864 v 2.519 z" id="path43" />
        <path fill="#1e1e1c" d="m 471.007,582.729 4.519,6.588 h -3.834 l -2.718,-4.014 -2.719,4.014 h -3.726 l 4.5,-6.443 -4.212,-6.156 h 3.727 l 2.43,3.672 2.43,-3.672 h 3.762 z" id="path45" />
        <path fill="#1e1e1c" d="m 486.542,579.291 h -3.799 v 10.025 h -3.203 v -10.025 h -3.763 v -2.592 h 10.765 z" id="path47" />
        <path fill="#1e1e1c" d="m 497.773,579.236 h -6.66 v 2.502 h 6.013 v 2.521 h -6.013 v 2.538 h 6.858 v 2.52 H 487.91 v -12.6 h 9.863 z" id="path49" />
        <path fill="#1e1e1c" d="m 513.847,579.291 h -3.798 v 10.025 h -3.204 v -10.025 h -3.762 v -2.592 h 10.764 z" id="path51" />
        <path fill="#1e1e1c" d="m 526.843,589.316 h -3.204 v -4.896 h -5.22 v 4.896 h -3.205 v -12.6 h 3.205 v 5.184 h 5.22 v -5.184 h 3.204 z" id="path53" />
        <path fill="#1e1e1c" d="m 539.227,579.236 h -6.66 v 2.502 h 6.013 v 2.521 h -6.013 v 2.538 h 6.858 v 2.52 h -10.063 v -12.6 h 9.864 v 2.519 z m -3.311,-3.617 h -2.377 l -2.34,-2.034 2.809,-0.99 z" id="path55" />
        <path fill="#1e1e1c" d="m 555.337,589.316 h -2.826 l -0.018,-8.189 -3.024,6.93 h -2.088 l -3.024,-6.93 v 8.189 h -2.861 v -12.617 h 3.51 l 3.42,7.506 3.42,-7.506 h 3.492 v 12.617 z" id="path57" />
        <path fill="#1e1e1c" d="m 567.739,579.236 h -6.66 v 2.502 h 6.013 v 2.521 h -6.013 v 2.538 h 6.858 v 2.52 h -10.063 v -12.6 h 9.864 v 2.519 z" id="path59" />
      </g>
    </g>
  </g>
  <g id="layer9" style="display:inline" transform="translate(5.6876619)">
    <g style="display:inline" transform="translate(-6.5414717)" id="picto_categorie">
      <g id="g142">
        <ellipse fill="none" stroke="#1e1e1c" stroke-width="2" stroke-miterlimit="10" cx="330.466" cy="618.37402" rx="3.3069999" ry="2.5439999" id="ellipse64" />
        <ellipse fill="none" stroke="#1e1e1c" stroke-width="2" stroke-miterlimit="10" cx="330.466" cy="608.83502" rx="3.3069999" ry="2.5439999" id="ellipse66" />
        <ellipse fill="none" stroke="#1e1e1c" stroke-width="2" stroke-miterlimit="10" cx="340.76801" cy="624.479" rx="3.306" ry="2.5439999" id="ellipse68" />
        <ellipse fill="none" stroke="#1e1e1c" stroke-width="2" stroke-miterlimit="10" cx="324.616" cy="632.87299" rx="3.3069999" ry="2.5439999" id="ellipse70" />
        <ellipse fill="none" stroke="#1e1e1c" stroke-width="2" stroke-miterlimit="10" cx="312.66101" cy="618.24701" rx="3.3069999" ry="2.5439999" id="ellipse72" />
        <ellipse fill="none" stroke="#1e1e1c" stroke-width="2" stroke-miterlimit="10" cx="308.46399" cy="634.14502" rx="3.3069999" ry="2.5439999" id="ellipse74" />
        <ellipse fill="none" stroke="#1e1e1c" stroke-width="2" stroke-miterlimit="10" cx="340.64099" cy="639.23102" rx="3.3069999" ry="2.5439999" id="ellipse76" />
        <ellipse fill="none" stroke="#1e1e1c" stroke-width="2" stroke-miterlimit="10" cx="326.01501" cy="648.771" rx="3.3069999" ry="2.5439999" id="ellipse78" />
        <ellipse fill="none" stroke="#1e1e1c" stroke-width="2" stroke-miterlimit="10" cx="313.04199" cy="646.354" rx="3.3069999" ry="2.5439999" id="ellipse80" />
        <ellipse fill="none" stroke="#1e1e1c" stroke-width="2" stroke-miterlimit="10" cx="314.26099" cy="660.771" rx="3.3069999" ry="2.5439999" id="ellipse82" />
        <ellipse fill="none" stroke="#1e1e1c" stroke-width="2" stroke-miterlimit="10" cx="333.33801" cy="657.34998" rx="3.3069999" ry="2.5439999" id="ellipse84" />
        <ellipse fill="none" stroke="#1e1e1c" stroke-width="2" stroke-miterlimit="10" cx="339.12701" cy="673.00598" rx="3.3069999" ry="2.5439999" id="ellipse86" />
        <ellipse fill="none" stroke="#1e1e1c" stroke-width="2" stroke-miterlimit="10" cx="324.56601" cy="668.31299" rx="3.3069999" ry="2.5439999" id="ellipse88" />
        <line fill="none" stroke="#1e1e1c" stroke-width="2" stroke-miterlimit="10" x1="315.401" y1="662.83197" x2="321.76001" y2="668.53302" id="line90" />
        <line fill="none" stroke="#1e1e1c" stroke-width="2" stroke-miterlimit="10" x1="327.37399" y1="669.67297" x2="336.18799" y2="672.91803" id="line92" />
        <line fill="none" stroke="#1e1e1c" stroke-width="2" stroke-miterlimit="10" x1="333.60101" y1="659.71802" x2="339.302" y2="670.81299" id="line94" />
        <line fill="none" stroke="#1e1e1c" stroke-width="2" stroke-miterlimit="10" x1="332.505" y1="659.98102" x2="327.37399" y2="666.90997" id="line96" />
        <line fill="none" stroke="#1e1e1c" stroke-width="2" stroke-miterlimit="10" x1="317.06699" y1="659.67401" x2="330.04901" y2="657.52502" id="line98" />
        <line fill="none" stroke="#1e1e1c" stroke-width="2" stroke-miterlimit="10" x1="328.689" y1="649.54401" x2="332.724" y2="654.63098" id="line100" />
        <line fill="none" stroke="#1e1e1c" stroke-width="2" stroke-miterlimit="10" x1="336.67099" y1="657.08698" x2="343.46799" y2="657.30603" id="line102" />
        <line fill="none" stroke="#1e1e1c" stroke-width="2" stroke-miterlimit="10" x1="329.08401" y1="648.09698" x2="339.95999" y2="641.78101" id="line104" />
        <line fill="none" stroke="#1e1e1c" stroke-width="2" stroke-miterlimit="10" x1="324.82999" y1="635.15601" x2="326.27701" y2="646.34003" id="line106" />
        <line fill="none" stroke="#1e1e1c" stroke-width="2" stroke-miterlimit="10" x1="327.94299" y1="632.91998" x2="338.776" y2="637.65601" id="line108" />
        <line fill="none" stroke="#1e1e1c" stroke-width="2" stroke-miterlimit="10" x1="311.629" y1="633.88501" x2="321.409" y2="632.83197" id="line110" />
        <line fill="none" stroke="#1e1e1c" stroke-width="2" stroke-miterlimit="10" x1="308.03299" y1="636.42902" x2="312.72601" y2="643.66498" id="line112" />
        <line fill="none" stroke="#1e1e1c" stroke-width="2" stroke-miterlimit="10" x1="315.84" y1="646.38397" x2="322.81299" y2="648.48798" id="line114" />
        <line fill="none" stroke="#1e1e1c" stroke-width="2" stroke-miterlimit="10" x1="312.76999" y1="648.75201" x2="314.129" y2="657.698" id="line116" />
        <line fill="none" stroke="#1e1e1c" stroke-width="2" stroke-miterlimit="10" x1="312.901" y1="621.12201" x2="308.77899" y2="631.51599" id="line118" />
        <line fill="none" stroke="#1e1e1c" stroke-width="2" stroke-miterlimit="10" x1="314.83099" y1="619.89502" x2="324.34799" y2="630.41998" id="line120" />
        <line fill="none" stroke="#1e1e1c" stroke-width="2" stroke-miterlimit="10" x1="330.26801" y1="620.90198" x2="325.181" y2="629.93799" id="line122" />
        <line fill="none" stroke="#1e1e1c" stroke-width="2" stroke-miterlimit="10" x1="333.38199" y1="618.578" x2="338.55701" y2="622.83197" id="line124" />
        <path fill="none" stroke="#1e1e1c" stroke-width="2" stroke-miterlimit="10" d="m 333.776,608.579 10.438,1.447 v 61.408 c 0,5.87 16.883,8.514 16.883,-3" id="path126" />
        <line fill="none" stroke="#1e1e1c" stroke-width="2" stroke-miterlimit="10" x1="330.26801" y1="610.90302" x2="330.26801" y2="615.771" id="line128" />
        <line fill="none" stroke="#1e1e1c" stroke-width="2" stroke-miterlimit="10" x1="315.79501" y1="616.91199" x2="327.63699" y2="608.62299" id="line130" />
        <path fill="none" stroke="#1e1e1c" stroke-width="2" stroke-miterlimit="10" d="m 349.535,659.031 c 0,11.892 25.382,14.125 21.782,-3.922" id="path132" />
        <path fill="none" stroke="#1e1e1c" stroke-width="2" stroke-miterlimit="10" d="m 352.498,643.307 c 0,9.752 16.313,8.658 16.313,0" id="path134" />
        <path fill="none" stroke="#1e1e1c" stroke-width="2" stroke-linejoin="round" stroke-miterlimit="10" d="m 359.561,650.324 c 0,6.062 7.662,5.802 8.613,5.696 2.05,-0.228 8.794,-2.733 5.559,-9.706 l -0.41,-0.592 c 6.152,-1.96 10.025,-11.714 -3.144,-13.946" id="path136" />
        <path fill="none" stroke="#1e1e1c" stroke-width="2" stroke-miterlimit="10" d="m 353.955,629.996 c 0,-2.734 1.458,-10.07 12.395,-10.07 10.937,0 12.714,9.113 12.714,10.617 0,1.504 -0.912,3.555 -2.005,4.238" id="path138" />
        <path fill="none" stroke="#1e1e1c" stroke-width="2" stroke-linejoin="round" stroke-miterlimit="10" d="m 344.214,610.026 c 2.268,-2.634 9.787,-7.054 16.303,0.738 6.653,-1.641 15.631,2.188 11.392,10.253" id="path140" />
      </g>
    </g>
  </g>
  <g id="layer8" style="display:inline" transform="translate(5.6876619)">
    <g style="display:inline" transform="translate(-6.5414727)" id="texte_picto_categorie">
      <g id="g157">
        <path fill="#1e1e1c" d="m 313.393,576.572 c 1.884,0 3.54,0.469 4.968,1.404 l -1.206,2.502 c -0.66,-0.383 -1.368,-0.699 -2.124,-0.945 -0.756,-0.245 -1.393,-0.368 -1.908,-0.368 -0.924,0 -1.386,0.306 -1.386,0.918 0,0.396 0.228,0.714 0.684,0.954 0.456,0.24 1.011,0.447 1.665,0.621 0.654,0.174 1.308,0.384 1.962,0.63 0.654,0.246 1.209,0.646 1.665,1.196 0.456,0.553 0.684,1.248 0.684,2.088 0,1.213 -0.474,2.158 -1.422,2.836 -0.948,0.678 -2.154,1.017 -3.618,1.017 -1.044,0 -2.076,-0.18 -3.096,-0.54 -1.021,-0.359 -1.908,-0.852 -2.664,-1.477 l 1.242,-2.465 c 0.636,0.552 1.386,1.005 2.25,1.358 0.864,0.354 1.632,0.531 2.304,0.531 0.516,0 0.918,-0.093 1.206,-0.279 0.288,-0.186 0.432,-0.459 0.432,-0.819 0,-0.348 -0.166,-0.639 -0.495,-0.873 -0.33,-0.233 -0.741,-0.407 -1.233,-0.521 -0.492,-0.113 -1.026,-0.268 -1.602,-0.459 -0.576,-0.191 -1.11,-0.402 -1.602,-0.63 -0.492,-0.228 -0.903,-0.591 -1.233,-1.089 -0.331,-0.498 -0.495,-1.096 -0.495,-1.791 0,-1.152 0.459,-2.073 1.377,-2.764 0.918,-0.689 2.133,-1.035 3.645,-1.035 z" id="path145" />
        <path fill="#1e1e1c" d="m 328.459,586.995 h -5.508 l -0.918,2.321 h -3.294 l 5.436,-12.6 h 3.294 l 5.31,12.6 h -3.42 z m -0.936,-2.431 -1.8,-4.662 -1.836,4.662 z" id="path147" />
        <path fill="#1e1e1c" d="m 339.907,589.316 h -3.312 l -4.896,-12.6 h 3.42 l 3.222,9.27 3.222,-9.27 h 3.294 z" id="path149" />
        <path fill="#1e1e1c" d="m 352.039,576.609 c 1.956,0 3.582,0.609 4.878,1.826 1.296,1.219 1.944,2.739 1.944,4.563 0,1.836 -0.651,3.372 -1.953,4.608 -1.302,1.235 -2.925,1.854 -4.869,1.854 -1.944,0 -3.564,-0.615 -4.86,-1.846 -1.296,-1.229 -1.944,-2.768 -1.944,-4.616 0,-1.836 0.648,-3.36 1.944,-4.572 1.296,-1.212 2.916,-1.817 4.86,-1.817 z m 0.036,2.682 c -0.984,0 -1.824,0.357 -2.52,1.07 -0.696,0.715 -1.044,1.6 -1.044,2.656 0,1.055 0.351,1.946 1.053,2.672 0.702,0.727 1.539,1.09 2.511,1.09 0.972,0 1.797,-0.363 2.475,-1.09 0.678,-0.726 1.017,-1.617 1.017,-2.672 0,-1.057 -0.339,-1.941 -1.017,-2.656 -0.678,-0.713 -1.503,-1.07 -2.475,-1.07 z" id="path151" />
        <path fill="#1e1e1c" d="m 363.757,589.316 h -3.204 v -12.6 h 3.204 z" id="path153" />
        <path fill="#1e1e1c" d="M 373.873,589.316 372,585.771 h -0.09 -2.43 v 3.545 h -3.204 v -12.6 h 5.634 c 1.668,0 2.958,0.381 3.87,1.143 0.912,0.763 1.368,1.846 1.368,3.25 0,1.943 -0.762,3.293 -2.286,4.049 l 2.646,4.158 z m -4.393,-6.065 h 2.43 c 0.696,0 1.236,-0.174 1.62,-0.522 0.384,-0.348 0.576,-0.852 0.576,-1.512 0,-0.648 -0.192,-1.14 -0.576,-1.477 -0.384,-0.335 -0.924,-0.504 -1.62,-0.504 h -2.43 z" id="path155" />
      </g>
    </g>
  </g>
  <g id="layer7" style="display:inline" transform="translate(5.6876619)">
    <g style="display:inline" transform="translate(-6.5414727)" id="fond_categorie">
      <path fill="#019db8" d="m 663.681,549.281 c 14.49,-32.813 22.557,-69.07 22.557,-107.183 0,-146.814 -119.455,-266.257 -266.285,-266.257 -146.838,0 -266.3,119.442 -266.3,266.257 0,38.112 8.067,74.37 22.557,107.183 z" id="path160" />
    </g>
  </g>
  <g id="layer6" style="display:inline" transform="translate(5.6876619)">
    <g style="display:inline" transform="translate(-6.5414727)" id="picto_posture">
      <g id="g237">
        <g id="g235">
          <g id="g233">
            <g id="g231">
              <polygon fill="#473467" points="443.845,140.478 445.117,140.478 445.076,140.389 443.845,140.389 " id="polygon163" />
              <polygon fill="#473467" points="404.513,140.478 404.513,140.389 403.527,140.389 403.485,140.478 " id="polygon165" />
              <rect x="455.431" y="57.988998" transform="matrix(0.866,-0.5,0.5,0.866,31.8106,235.8276)" fill="#473467" width="1.123" height="1.123" id="rect167" />
              <rect x="456.55399" y="59.936001" transform="matrix(0.5002,0.8659,-0.8659,0.5002,280.828,-365.5755)" fill="#473467" width="1.124" height="1.123" id="rect169" />
              <rect x="456.14401" y="61.471001" transform="matrix(-0.8657,0.5006,-0.5006,-0.8657,883.1141,-112.907)" fill="#473467" width="1.124" height="1.123" id="rect171" />
              <rect x="457.67801" y="61.881001" transform="matrix(0.8665,-0.4992,0.4992,0.8665,30.0138,237.1013)" fill="#473467" width="1.125" height="1.124" id="rect173" />
              <rect x="458.802" y="63.827999" transform="matrix(0.8657,-0.5006,0.5006,0.8657,29.4739,238.6189)" fill="#473467" width="1.124" height="1.123" id="rect175" />
              <rect x="459.92599" y="65.774002" transform="matrix(0.8657,-0.5006,0.5006,0.8657,28.6506,239.443)" fill="#473467" width="1.124" height="1.124" id="rect177" />
              <rect x="383.30499" y="106.119" transform="matrix(0.4996,0.8663,-0.8663,0.4996,284.5014,-279.144)" fill="#473467" width="1.124" height="1.124" id="rect179" />
              <rect x="383.716" y="104.584" transform="matrix(0.8658,-0.5004,0.5004,0.8658,-1.0382,206.4201)" fill="#473467" width="1.124" height="1.123" id="rect181" />
              <rect x="385.25101" y="104.995" transform="matrix(0.4999,0.8661,-0.8661,0.4999,284.3562,-281.3545)" fill="#473467" width="1.124" height="1.124" id="rect183" />
              <rect x="412.64999" y="91.771004" transform="matrix(-0.5002,-0.8659,0.8659,-0.5002,539.9723,496.3148)" fill="#473467" width="1.124" height="1.124" id="rect185" />
              <rect x="414.59799" y="90.647003" transform="matrix(-0.5,-0.866,0.866,-0.5,543.7374,496.357)" fill="#473467" width="1.123" height="1.124" id="rect187" />
              <rect x="416.543" y="89.524002" transform="matrix(-0.5006,-0.8657,0.8657,-0.5006,547.9344,496.2573)" fill="#473467" width="1.124" height="1.123" id="rect189" />
              <rect x="418.48999" y="88.400002" transform="matrix(-0.5002,-0.8659,0.8659,-0.5002,551.6525,496.314)" fill="#473467" width="1.124" height="1.124" id="rect191" />
              <rect x="420.436" y="87.276001" transform="matrix(-0.4996,-0.8663,0.8663,-0.4996,555.2372,496.4143)" fill="#473467" width="1.124" height="1.123" id="rect193" />
              <rect x="422.383" y="86.153" transform="matrix(-0.5006,-0.8657,0.8657,-0.5006,559.6161,496.2539)" fill="#473467" width="1.124" height="1.123" id="rect195" />
              <rect x="424.32999" y="85.028" transform="matrix(-0.4989,-0.8666,0.8666,-0.4989,562.7142,496.5211)" fill="#473467" width="1.123" height="1.125" id="rect197" />
              <rect x="426.27499" y="83.904999" transform="matrix(-0.5002,-0.8659,0.8659,-0.5002,567.2244,496.3112)" fill="#473467" width="1.124" height="1.124" id="rect199" />
              <rect x="428.22299" y="82.780998" transform="matrix(-0.4993,-0.8664,0.8664,-0.4993,570.6757,496.4647)" fill="#473467" width="1.123" height="1.125" id="rect201" />
              <rect x="430.168" y="81.657997" transform="matrix(-0.5006,-0.8657,0.8657,-0.5006,575.19,496.2478)" fill="#473467" width="1.124" height="1.123" id="rect203" />
              <rect x="432.116" y="80.532997" transform="matrix(-0.4989,-0.8666,0.8666,-0.4989,578.2794,496.53)" fill="#473467" width="1.123" height="1.125" id="rect205" />
              <rect x="434.06" y="79.410004" transform="matrix(-0.5002,-0.8659,0.8659,-0.5002,582.7959,496.3092)" fill="#473467" width="1.124" height="1.123" id="rect207" />
              <rect x="436.009" y="78.286003" transform="matrix(-0.4993,-0.8664,0.8664,-0.4993,586.2428,496.4702)" fill="#473467" width="1.123" height="1.125" id="rect209" />
              <rect x="437.953" y="77.162003" transform="matrix(-0.5002,-0.8659,0.8659,-0.5002,590.5818,496.3078)" fill="#473467" width="1.124" height="1.124" id="rect211" />
              <rect x="439.89999" y="76.038002" transform="matrix(-0.5002,-0.8659,0.8659,-0.5002,594.4764,496.3076)" fill="#473467" width="1.124" height="1.124" id="rect213" />
              <rect x="441.84698" y="74.915001" transform="matrix(-0.5006,-0.8657,0.8657,-0.5006,598.5518,496.2401)" fill="#473467" width="1.124" height="1.125" id="rect215" />
              <rect x="443.793" y="73.791" transform="matrix(-0.5006,-0.8657,0.8657,-0.5006,602.4455,496.2382)" fill="#473467" width="1.124" height="1.123" id="rect217" />
              <rect x="445.741" y="72.666" transform="matrix(-0.4989,-0.8666,0.8666,-0.4989,605.5196,496.5469)" fill="#473467" width="1.123" height="1.125" id="rect219" />
              <rect x="447.685" y="71.543999" transform="matrix(-0.5002,-0.8659,0.8659,-0.5002,610.048,496.3055)" fill="#473467" width="1.124" height="1.123" id="rect221" />
              <rect x="449.634" y="70.419998" transform="matrix(-0.4993,-0.8664,0.8664,-0.4993,613.4865,496.4812)" fill="#473467" width="1.123" height="1.125" id="rect223" />
              <rect x="451.578" y="69.295998" transform="matrix(-0.5006,-0.8657,0.8657,-0.5006,618.0193,496.2321)" fill="#473467" width="1.124" height="1.123" id="rect225" />
              <polygon fill="#473467" points="422.849,80.93 422.287,79.957 420.341,81.081 421.464,83.027 422.439,82.465 423,83.438 427.867,80.629 426.742,78.683 " id="polygon227" />
              <path fill="#473467" d="m 473.083,62.308 0.975,-0.562 -6.742,-11.679 -0.975,0.562 -1.123,-1.945 -14.598,8.428 1.123,1.946 -31.142,17.979 -0.562,-0.973 1.945,-1.124 -0.561,-0.974 4.865,-2.809 0.563,0.973 2.918,-1.686 -2.809,-4.866 -2.92,1.687 0.563,0.973 -5.137,2.965 c -0.671,-0.384 -1.52,-0.42 -2.238,-0.005 -0.718,0.415 -1.111,1.167 -1.113,1.941 l -7.082,4.089 -0.563,-0.974 -3.893,2.248 2.809,4.865 3.893,-2.247 -0.562,-0.974 4.866,-2.809 0.562,0.973 -1.946,1.124 0.563,0.973 4.781,-2.761 -14.514,8.38 1.686,2.92 -23.356,13.484 -1.124,-1.946 -1.947,1.124 -1.124,-1.946 0.973,-0.563 -1.124,-1.946 -4.866,2.81 1.124,1.946 0.973,-0.562 1.124,1.946 1.124,1.946 3.371,5.839 25.302,-14.608 0.563,0.973 2.92,-1.686 1.123,1.946 6.813,-3.933 1.123,1.946 0.975,-0.562 0.562,0.973 0.364,-0.21 c -0.021,0.148 -0.045,0.297 -0.045,0.451 0,0.255 0.035,0.5 0.09,0.738 l -20.592,43.368 h -2.168 v 2.248 h 1.26 l 2.111,-1.567 0.312,-0.77 h 0.95 l 19.703,-41.182 c 0.125,0.071 0.252,0.143 0.387,0.197 v 33.629 h -1.123 v 2.248 h 1.123 2.248 1.123 v -2.248 h -1.123 V 99.465 c 0.105,-0.036 0.213,-0.068 0.314,-0.113 l 18.896,41.037 h 0.869 l 0.283,0.77 2.111,1.567 h 1.123 v -2.248 h -1.951 L 427.894,97.511 c 0.133,-0.356 0.217,-0.737 0.217,-1.14 0,-0.102 -0.021,-0.197 -0.031,-0.296 l 1.66,-0.958 -1.123,-1.947 0.973,-0.562 -0.561,-0.974 3.893,-2.247 -0.563,-0.974 0.973,-0.562 -1.123,-1.946 26.275,-15.171 1.125,1.946 14.598,-8.428 z m -65.845,18.552 -1.123,-1.946 0.973,-0.563 1.123,1.946 z m 19.314,-13.746 1.123,1.946 -0.975,0.563 -1.123,-1.946 z m -7.636,7.003 v 0 0 l -7.785,4.495 -0.562,-0.973 6.813,-3.934 c -0.31,-0.537 -0.126,-1.225 0.411,-1.534 0.537,-0.311 1.225,-0.127 1.535,0.411 l 4.865,-2.81 0.563,0.973 z m -36.228,33.893 -0.562,-0.973 0.974,-0.562 -0.563,-0.974 -0.973,0.562 26.276,-15.17 1.124,1.946 z m 38.968,-13.415 -1.686,-2.919 0.973,-0.563 1.66,2.876 c -0.049,0.046 -0.096,0.092 -0.143,0.142 z m 32.787,-24.12 -0.561,-0.973 -0.975,0.562 0.563,0.974 -0.973,0.562 -0.563,-0.974 -0.973,0.563 0.561,0.973 -0.973,0.563 -0.563,-0.974 -0.973,0.563 0.563,0.973 -0.975,0.562 -0.561,-0.973 -0.973,0.562 0.561,0.974 -0.973,0.562 -0.563,-0.973 -0.973,0.562 0.563,0.974 -0.975,0.562 -0.561,-0.974 -0.973,0.563 0.561,0.973 -0.973,0.563 -0.563,-0.974 -0.973,0.562 0.563,0.974 -0.975,0.562 -0.561,-0.973 -0.975,0.562 0.563,0.974 -0.973,0.562 -0.563,-0.973 -0.973,0.562 0.563,0.973 -0.975,0.563 -0.563,-0.974 -0.973,0.563 0.563,0.973 -0.973,0.563 -0.563,-0.974 -0.973,0.562 0.561,0.974 -0.973,0.562 -0.563,-0.973 -0.973,0.562 0.563,0.974 -0.973,0.562 -0.563,-0.974 -0.973,0.563 0.561,0.973 -0.973,0.563 -0.563,-0.974 -0.973,0.562 0.563,0.974 -0.975,0.562 -0.561,-0.973 -0.973,0.562 0.561,0.974 -0.973,0.562 -0.563,-0.973 -0.973,0.562 0.563,0.973 -0.975,0.563 -0.561,-0.974 -0.975,0.563 0.563,0.973 -0.973,0.563 -0.563,-0.974 -0.973,0.562 0.562,0.974 -0.974,0.562 -0.561,-0.973 -0.975,0.562 0.563,0.974 -0.973,0.562 -0.563,-0.974 -0.973,0.563 0.562,0.973 -0.974,0.563 -0.562,-0.974 -0.974,0.562 0.563,0.974 -0.974,0.562 -0.562,-0.973 -0.973,0.562 0.561,0.974 v 0 l -4.494,-7.786 42.82,-24.722 1.123,1.946 -20.436,11.799 0.561,0.974 20.438,-11.8 1.686,2.92 -0.973,0.562 0.563,0.974 0.973,-0.563 0.561,0.974 z m 7.935,-1.987 -0.561,-0.974 -0.973,0.563 0.561,0.973 -0.973,0.563 -0.563,-0.974 0.975,-0.562 -0.563,-0.974 -0.975,0.563 0.031,0.053 -0.91,-1.576 0.318,0.55 0.973,-0.562 -0.563,-0.974 -0.973,0.562 -0.561,-0.973 0.973,-0.562 -0.563,-0.974 -0.973,0.562 -1.686,-2.919 0.973,-0.563 -0.563,-0.973 -0.973,0.562 -0.563,-0.973 0.975,-0.563 -0.563,-0.973 -0.973,0.562 10.705,-6.181 6.742,11.679 z" id="path229" />
            </g>
          </g>
        </g>
      </g>
    </g>
  </g>
  <g id="layer2" style="display:inline" transform="translate(5.6876619)">
    <g style="display:inline" transform="translate(-6.5414687)" id="filet_1_categorie">
      <g id="g244">
        <path fill="none" stroke="#473467" stroke-width="2" stroke-miterlimit="10" d="m 636.988,238.99 c 6.295,2.748 14.613,5.603 20.965,8.592 30.008,13.753 57.346,41.572 71.348,72.602 l 0.104,0.182 c 7.818,10.627 13.176,22.504 15.926,35.3 l 0.059,0.271 0.189,0.202 c 6.496,6.95 12.354,14.357 17.404,22.018 l 0.064,0.085 c 14.818,17.993 22.615,41.049 21.951,64.975 0.656,23.872 -7.139,46.926 -21.953,64.915 l -0.063,0.085 c -5.051,7.662 -10.906,15.07 -17.404,22.02 l -0.189,0.202 -0.059,0.271 c -2.748,12.793 -8.107,24.67 -15.926,35.303 l -0.104,0.182 c -14.002,31.027 -41.342,58.846 -71.355,72.604 -5.334,2.51 -18.645,4.929 -23.938,7.269" id="path240" />
        <path fill="none" stroke="#473467" stroke-width="2" stroke-miterlimit="10" d="m 206.485,646.764 c -5.828,-2.559 -16.675,-5.208 -22.55,-7.974 -30.003,-13.749 -57.338,-41.566 -71.338,-72.596 l -0.106,-0.182 C 104.67,555.38 99.31,543.501 96.56,530.706 l -0.058,-0.271 -0.189,-0.202 C 89.788,523.254 83.924,515.829 78.885,508.165 L 78.82,508.079 C 64.033,490.125 56.245,467.089 56.891,443.16 56.245,419.288 64.032,396.252 78.819,378.294 l 0.063,-0.086 c 5.019,-7.639 10.884,-15.065 17.431,-22.075 l 0.189,-0.202 0.058,-0.271 c 2.75,-12.795 8.11,-24.671 15.931,-35.299 l 0.106,-0.182 c 13.999,-31.03 41.334,-58.849 71.347,-72.604 6.907,-3.251 15.777,-6.348 22.619,-9.313" id="path242" />
      </g>
    </g>
  </g>
  <g id="layer4" style="display:inline" transform="translate(5.6876619)">
    <g style="display:inline" transform="translate(-6.5414687)" id="filet_2_categorie">
      <path opacity="0.2" fill="none" stroke="#019db8" stroke-width="27" stroke-miterlimit="10" d="m 420.72,738.356 c -163.4,0 -296.301,-132.901 -296.301,-296.259 0,-163.355 132.901,-296.256 296.301,-296.256 163.381,0 296.283,132.9 296.283,296.256 0,163.358 -132.902,296.259 -296.283,296.259 z" id="path247" />
    </g>
  </g>
  <g id="layer3" style="display:inline" transform="translate(5.6876619)">
    <g style="display:inline;fill:none" transform="translate(-6.5414687)" id="filet_3_posture">
      <path fill="none" stroke="#019db8" stroke-width="3" stroke-miterlimit="10" d="m 421.125,738.355 c -163.399,0 -296.299,-132.9 -296.299,-296.257 0,-163.357 132.9,-296.257 296.299,-296.257 163.381,0 296.285,132.9 296.285,296.257 0,163.357 -138.237,296.257 -296.285,296.257 z" id="path250" style="fill:none" />
    </g>
  </g>
  <g id="layer5" style="display:inline">
    <g style="display:inline" transform="translate(-6.5414727)" id="texte_titre_badge">
      <g id="g283">
        <path fill="#ffffff" d="m 260.22366,516.361 2.844,0.36 v 4.571 h -11.88 v -4.571 l 2.844,-0.36 V 501.64 h -3.636 l -0.54,3.563 h -4.607 l 0.181,-8.676 h 23.396 l 0.181,8.676 h -4.607 l -0.54,-3.563 h -3.636 z" id="path253" />
        <path fill="#ffffff" d="m 270.70066,521.293 v -4.571 l 2.844,-0.36 v -14.865 l -2.844,-0.396 v -4.572 h 11.879 v 4.572 l -2.844,0.396 v 14.865 l 2.844,0.36 v 4.571 z" id="path255" />
        <path fill="#ffffff" d="m 299.21066,516.361 2.844,0.36 v 4.571 h -11.878 v -4.571 l 2.844,-0.36 V 501.64 h -3.636 l -0.54,3.563 h -4.607 l 0.18,-8.676 h 23.397 l 0.18,8.676 h -4.607 l -0.54,-3.563 h -3.636 v 14.721 z" id="path257" />
        <path fill="#ffffff" d="m 326.42666,521.293 -4.535,-8.675 h -3.168 v 3.743 l 3.636,0.36 v 4.571 h -12.67 v -4.571 l 2.844,-0.36 v -14.865 l -2.844,-0.396 v -4.572 h 13.462 c 5.039,0 8.495,2.844 8.495,7.632 0,4.067 -1.691,5.687 -4.067,6.983 v 0.18 c 0,0 0.396,0.288 0.684,0.792 l 2.483,4.247 3.168,0.36 v 4.571 z m -4.823,-13.498 c 2.628,0 3.779,-1.044 3.779,-3.275 0,-1.944 -1.403,-2.88 -3.779,-2.88 h -2.88 v 6.155 z" id="path259" />
        <path fill="#ffffff" d="m 335.35666,521.293 v -4.571 l 2.808,-0.36 V 501.46 l -2.808,-0.359 v -4.572 h 20.409 l 0.144,8.676 h -4.607 l -0.54,-3.563 h -6.406 v 4.787 h 5.363 v 4.932 h -5.363 v 4.823 h 6.335 l 0.54,-3.563 h 4.607 l -0.252,8.675 h -20.23 z" id="path261" />
        <path fill="#ffffff" d="m 365.48766,521.293 v -4.571 l 2.844,-0.36 V 501.46 l -2.844,-0.36 v -4.572 h 12.131 c 6.119,0 12.13,3.24 12.13,12.203 0,9.826 -5.938,12.563 -11.554,12.563 h -12.707 z m 11.231,-5.111 c 4.212,0 6.768,-1.619 6.768,-7.451 0,-4.967 -2.664,-7.091 -7.235,-7.091 h -1.728 v 14.542 z" id="path263" />
        <path fill="#ffffff" d="m 408.97466,501.496 -2.844,-0.396 v -4.572 h 11.519 v 4.572 l -2.844,0.396 v 10.689 c 0,6.264 -3.743,9.359 -10.366,9.359 -6.623,0 -10.511,-3.096 -10.511,-9.359 v -10.689 l -2.844,-0.396 v -4.572 h 11.879 v 4.572 l -2.844,0.396 v 10.294 c 0,1.944 0.792,4.571 4.319,4.571 2.879,0 4.535,-2.051 4.535,-4.391 v -10.474 z" id="path265" />
        <path fill="#ffffff" d="m 426.36366,521.293 v -4.571 l 2.844,-0.36 V 501.46 l -2.844,-0.359 v -4.572 h 10.295 c 7.091,0 10.654,1.729 10.654,6.66 0,4.211 -2.664,5.003 -3.635,5.291 v 0.288 c 1.764,0.216 5.398,1.188 5.398,5.759 0,4.248 -2.483,6.768 -10.043,6.768 h -12.669 z m 12.059,-14.723 c 1.656,0 2.627,-0.971 2.627,-2.447 0,-1.764 -1.403,-2.483 -2.987,-2.483 h -2.663 v 4.931 h 3.023 z m -3.024,4.645 v 4.967 h 3.924 c 2.52,0 3.49,-0.684 3.49,-2.447 0,-1.584 -1.223,-2.52 -2.986,-2.52 z" id="path267" />
        <path fill="#ffffff" d="m 474.06166,516.361 2.52,0.36 v 4.571 h -11.158 v -4.571 l 2.699,-0.36 -0.9,-2.375 h -8.387 l -0.9,2.375 2.7,0.36 v 4.571 h -10.979 v -4.571 l 2.52,-0.36 5.651,-14.902 -3.168,-0.18 v -4.752 h 11.879 z m -10.151,-11.194 c -0.252,-0.647 -0.793,-2.196 -0.793,-2.196 h -0.18 c 0,0 -0.54,1.549 -0.792,2.196 l -1.548,4.104 h 4.859 z" id="path269" />
        <path fill="#ffffff" d="m 477.91466,521.293 v -4.571 l 2.844,-0.36 V 501.46 l -2.844,-0.359 v -4.572 h 12.131 c 6.119,0 12.131,3.24 12.131,12.203 0,9.826 -5.939,12.563 -11.555,12.563 h -12.707 z m 11.231,-5.111 c 4.212,0 6.768,-1.619 6.768,-7.451 0,-4.967 -2.664,-7.091 -7.234,-7.091 h -1.729 v 14.542 z" id="path271" />
        <path fill="#ffffff" d="m 525.75666,512.618 c 0,3.708 -2.052,8.927 -10.402,8.927 -6.804,0 -11.051,-3.924 -11.051,-12.67 0,-8.676 4.283,-12.563 11.051,-12.563 8.351,0 10.402,4.355 10.402,7.486 0,1.116 -0.252,1.872 -0.252,1.872 l -5.867,0.54 c 0,0 0.145,-0.54 0.145,-1.296 0,-1.476 -0.937,-3.456 -4.104,-3.456 -2.844,0 -5.111,1.801 -5.111,7.523 0,5.651 2.482,7.379 5.326,7.379 2.736,0 3.744,-1.188 3.852,-3.203 l -3.491,-0.36 v -4.212 h 9.503 v 4.033 z" id="path273" />
        <path fill="#ffffff" d="m 528.24266,521.293 v -4.571 l 2.808,-0.36 V 501.46 l -2.808,-0.359 v -4.572 h 20.409 l 0.144,8.676 h -4.608 l -0.539,-3.563 h -6.407 v 4.787 h 5.363 v 4.932 h -5.363 v 4.823 h 6.335 l 0.54,-3.563 h 4.607 l -0.252,8.675 h -20.229 z" id="path275" />
        <path fill="#ffffff" d="m 558.37366,521.293 v -4.571 l 2.844,-0.36 v -14.865 l -2.844,-0.396 v -4.572 h 11.879 v 4.572 l -2.844,0.396 v 14.865 l 2.844,0.36 v 4.571 z" id="path277" />
        <path fill="#ffffff" d="m 587.85566,512.546 v -0.684 l 5.976,1.224 v 0.611 c 0,3.276 -2.088,7.848 -10.583,7.848 -6.695,0 -10.87,-3.924 -10.87,-12.67 0,-8.676 4.283,-12.563 11.05,-12.563 8.352,0 10.403,4.787 10.403,8.207 0,1.115 -0.252,1.871 -0.252,1.871 l -5.867,0.721 c 0,0 0.144,-0.612 0.144,-1.477 0,-1.764 -0.936,-4.176 -4.104,-4.176 -2.844,0 -5.111,1.801 -5.111,7.523 0,5.651 2.412,7.379 5.147,7.379 3.096,10e-4 4.067,-1.438 4.067,-3.814 z" id="path279" />
        <path fill="#ffffff" d="m 596.13766,521.293 v -4.571 l 2.844,-0.36 v -14.865 l -2.844,-0.396 v -4.572 h 11.879 v 4.572 l -2.844,0.396 v 14.865 l 2.844,0.36 v 4.571 z" id="path281" />
      </g>
    </g>
  </g>
  <g id="layer1" style="display:inline" transform="translate(5.6876619)">
    <g style="display:inline" transform="translate(-6.5414727)" id="picto_titre_badge">
      <path fill="#ffffff" d="m 364.317,304.29 c 6.838,6.565 15.277,11.79 25.083,15.524 9.802,3.741 21.308,5.637 34.201,5.637 12.719,0 24.182,-1.896 34.066,-5.637 9.893,-3.734 18.375,-8.957 25.213,-15.524 6.844,-6.574 12.201,-14.362 15.92,-23.143 1.627,-3.847 2.979,-7.928 4.021,-12.148 h -50.094 c -1.32,2.272 -2.65,4.157 -4.063,5.749 -5.457,6.157 -13.891,9.28 -25.064,9.28 -13.572,0 -17.24,-0.455 -25.189,-9.274 -1.439,-1.587 -2.756,-3.425 -4.119,-5.755 h -49.921 c 1.038,4.203 2.393,8.286 4.034,12.146 3.72,8.793 9.074,16.578 15.912,23.145 z" id="path286" />
      <path fill="#ffffff" d="m 505.207,414.582 c -0.523,-9.942 -2.68,-19.449 -6.406,-28.251 -3.719,-8.765 -9.072,-16.496 -15.916,-22.977 -6.832,-6.472 -15.32,-11.698 -25.223,-15.527 -9.896,-3.822 -21.355,-5.762 -34.061,-5.762 -12.877,0 -24.383,1.939 -34.195,5.76 -9.814,3.833 -18.258,9.06 -25.095,15.529 -6.838,6.47 -12.189,14.203 -15.906,22.977 -3.729,8.789 -5.887,18.294 -6.412,28.256 -0.363,7.873 -0.524,33.046 -0.524,41.286 0,0.612 0.007,1.196 0.016,1.785 l 0.004,0.185 h 46.763 l -0.005,-0.352 c -0.011,-0.713 -0.024,-1.425 -0.024,-2.157 0,-3.905 0.047,-25.1 0.141,-29.027 0.095,-4.069 0.312,-7.518 0.658,-10.537 0.357,-4.544 1.316,-8.836 2.848,-12.723 1.539,-3.897 3.748,-7.335 6.569,-10.221 2.821,-2.893 6.362,-5.202 10.516,-6.866 4.151,-1.661 9.077,-2.505 14.647,-2.505 5.568,0 10.496,0.844 14.646,2.505 4.145,1.662 7.686,3.972 10.523,6.864 2.814,2.893 5.02,6.329 6.561,10.221 1.525,3.881 2.484,8.173 2.848,12.761 0.178,3.104 0.355,6.585 0.535,10.478 0.17,3.942 0.256,25.144 0.256,29.051 0,0.643 -0.02,1.269 -0.037,1.894 -0.006,0.206 -0.012,0.408 -0.018,0.615 h 46.807 v -0.237 c 0.01,-0.568 0.018,-1.137 0.018,-1.732 -10e-4,-8.859 -0.181,-33.589 -0.534,-41.293 z" id="path288" />
    </g>
  </g>
</svg>
