<?xml version="1.0" encoding="UTF-8" standalone="no"?>
<svg xmlns:dc="http://purl.org/dc/elements/1.1/"
  xmlns:cc="http://creativecommons.org/ns#"
  xmlns:rdf="http://www.w3.org/1999/02/22-rdf-syntax-ns#"
  xmlns:svg="http://www.w3.org/2000/svg"
  xmlns="http://www.w3.org/2000/svg" version="1.1" x="0px" y="0px" width="100%" height="100%" viewBox="0 0 839.99998 839.99999" enable-background="new 0 0 737.007 841.89" xml:space="preserve" id="svg1335">
  <metadata id="metadata1341">
    <rdf:RDF>
      <cc:Work rdf:about="">
        <dc:format>image/svg+xml</dc:format>
        <dc:type rdf:resource="http://purl.org/dc/dcmitype/StillImage" />
        <dc:title></dc:title>
      </cc:Work>
    </rdf:RDF>
  </metadata>
  <defs id="defs1339" />
  <g>
    <path fill="#ffffff" stroke="#019db8" stroke-width="6" stroke-miterlimit="10" d="m 421.113,743.382 c -163.399,0 -296.299,-132.9 -296.299,-296.256 0,-163.358 132.9,-296.258 296.299,-296.258 163.381,0 296.285,132.9 296.285,296.258 0,163.355 -138.236,296.256 -296.285,296.256 z" id="path190-3" />
  </g>

  <g id="layer13" style="display:inline">
    <g style="display:inline" transform="translate(-0.8428056,0.04707)" id="texte_posture">
      <g id="g30">
        <path fill="#473467" d="m 279.081,734.601 -9.077,16.646 c -1.417,2.6 -3.276,4.213 -5.578,4.841 -2.302,0.628 -4.775,0.221 -7.42,-1.222 -3.349,-1.826 -5.455,-4.676 -6.319,-8.549 l 5.159,-2.609 c 0.76,2.784 1.983,4.636 3.668,5.555 1.756,0.958 3.183,0.43 4.281,-1.584 l 6.243,-11.448 -8.428,-4.596 2.757,-5.058 z" id="path2" />
        <path fill="#473467" d="m 302.389,751.507 -13.525,-6.009 -2.257,5.081 12.209,5.425 -2.274,5.117 -12.209,-5.424 -2.29,5.154 13.927,6.188 -2.274,5.117 -20.434,-9.078 11.369,-25.588 20.032,8.898 z" id="path4" />
        <path fill="#473467" d="m 330.997,755.073 c 4.006,1.216 7.225,3.28 9.657,6.193 l -4.18,4.542 c -1.156,-1.243 -2.458,-2.37 -3.906,-3.381 -1.449,-1.012 -2.722,-1.684 -3.819,-2.018 -1.965,-0.597 -3.145,-0.244 -3.54,1.057 -0.256,0.843 0.023,1.666 0.838,2.471 0.814,0.805 1.86,1.604 3.139,2.396 1.278,0.792 2.533,1.661 3.765,2.606 1.231,0.945 2.154,2.152 2.768,3.621 0.613,1.468 0.648,3.096 0.106,4.881 -0.783,2.578 -2.401,4.281 -4.854,5.109 -2.454,0.83 -5.237,0.771 -8.35,-0.174 -2.22,-0.674 -4.298,-1.723 -6.234,-3.146 -1.937,-1.424 -3.507,-3.044 -4.711,-4.859 l 4.233,-4.441 c 0.996,1.585 2.298,3.033 3.907,4.343 1.608,1.312 3.126,2.183 4.556,2.617 1.097,0.333 2.012,0.396 2.744,0.185 0.732,-0.209 1.215,-0.696 1.448,-1.462 0.225,-0.739 0.062,-1.466 -0.489,-2.176 -0.551,-0.711 -1.313,-1.346 -2.285,-1.906 -0.973,-0.56 -2.009,-1.229 -3.11,-2.011 -1.101,-0.779 -2.101,-1.571 -3,-2.373 -0.899,-0.803 -1.539,-1.84 -1.918,-3.112 -0.381,-1.272 -0.346,-2.647 0.104,-4.128 0.744,-2.449 2.314,-4.111 4.712,-4.986 2.397,-0.875 5.204,-0.824 8.419,0.152 z" id="path6" />
        <path fill="#473467" d="m 370.974,764.874 -3.246,15.913 c -0.741,3.631 -2.452,6.283 -5.134,7.953 -2.682,1.672 -5.942,2.115 -9.783,1.332 -3.867,-0.789 -6.727,-2.48 -8.579,-5.077 -1.852,-2.596 -2.407,-5.71 -1.666,-9.342 l 3.246,-15.912 6.977,1.423 -3.246,15.912 c -0.373,1.83 -0.141,3.395 0.696,4.694 0.837,1.299 2.104,2.124 3.803,2.47 1.672,0.342 3.12,0.079 4.345,-0.787 1.224,-0.866 2.026,-2.227 2.405,-4.082 l 3.246,-15.912 z" id="path8" />
        <path fill="#473467" d="m 380.749,794.258 -7.062,-0.911 3.582,-27.77 7.062,0.911 z" id="path10" />
        <path fill="#473467" d="m 401.927,767.712 c 4.178,0.263 7.785,1.531 10.822,3.807 l -3.023,5.381 c -1.411,-0.944 -2.937,-1.741 -4.579,-2.392 -1.642,-0.651 -3.036,-1.014 -4.18,-1.085 -2.05,-0.129 -3.117,0.485 -3.202,1.843 -0.056,0.878 0.405,1.615 1.384,2.211 0.978,0.596 2.179,1.133 3.606,1.609 1.426,0.478 2.847,1.035 4.264,1.671 1.416,0.638 2.591,1.6 3.526,2.888 0.934,1.287 1.343,2.863 1.226,4.726 -0.169,2.688 -1.353,4.718 -3.549,6.089 -2.197,1.372 -4.919,1.955 -8.166,1.752 -2.315,-0.146 -4.58,-0.689 -6.791,-1.63 -2.212,-0.94 -4.113,-2.155 -5.703,-3.646 l 3.098,-5.295 c 1.333,1.313 2.934,2.422 4.801,3.327 1.867,0.905 3.545,1.405 5.036,1.499 1.144,0.072 2.049,-0.078 2.713,-0.451 0.665,-0.371 1.022,-0.957 1.072,-1.756 0.049,-0.771 -0.277,-1.439 -0.976,-2.005 -0.7,-0.565 -1.587,-1.008 -2.662,-1.329 -1.076,-0.322 -2.238,-0.736 -3.489,-1.242 -1.25,-0.506 -2.406,-1.046 -3.465,-1.621 -1.06,-0.573 -1.92,-1.436 -2.583,-2.586 -0.663,-1.15 -0.945,-2.498 -0.848,-4.042 0.161,-2.555 1.307,-4.532 3.439,-5.936 2.133,-1.402 4.876,-1.998 8.229,-1.787 z" id="path12" />
        <path fill="#473467" d="m 437.054,796.263 -7.115,0.255 -1.004,-27.982 7.115,-0.254 z" id="path14" />
        <path fill="#473467" d="m 471.635,793.128 -6.242,0.688 -14.693,-15.722 1.892,17.136 -6.641,0.732 -3.07,-27.831 6.242,-0.689 14.736,15.76 -1.895,-17.176 6.6,-0.729 z" id="path16" />
        <path fill="#473467" d="m 487.379,790.172 -6.999,1.308 -5.139,-27.524 6.999,-1.307 z" id="path18" />
        <path fill="#473467" d="m 511.158,761.631 -8.181,2.076 5.481,21.595 -6.901,1.752 -5.481,-21.595 -8.104,2.057 -1.416,-5.584 23.185,-5.885 z" id="path20" />
        <path fill="#473467" d="m 529.238,779.076 -6.774,2.189 -8.612,-26.643 6.774,-2.189 z" id="path22" />
        <path fill="#473467" d="m 549.613,747.376 -13.74,5.499 2.065,5.162 12.403,-4.965 2.081,5.199 -12.403,4.965 2.096,5.236 14.148,-5.663 2.081,5.199 -20.759,8.308 -10.404,-25.994 20.351,-8.146 z m -8.233,-10.233 -3.148,6.128 -4.902,1.962 1.44,-7.814 z" id="path24" />
        <path fill="#473467" d="m 560.669,750.404 c 0.867,-0.412 1.709,-0.473 2.527,-0.182 0.816,0.291 1.432,0.869 1.844,1.736 0.412,0.867 0.473,1.709 0.182,2.525 -0.291,0.818 -0.869,1.433 -1.736,1.845 -0.844,0.401 -1.674,0.456 -2.49,0.165 -0.818,-0.291 -1.432,-0.869 -1.844,-1.736 -0.412,-0.867 -0.474,-1.709 -0.183,-2.527 0.29,-0.816 0.858,-1.425 1.7,-1.826 z" id="path26" />
        <path fill="#473467" d="m 585.015,728.991 -12.943,7.178 2.697,4.862 11.684,-6.479 2.716,4.897 -11.684,6.479 2.735,4.933 13.328,-7.392 2.715,4.897 -19.554,10.844 -13.579,-24.486 19.169,-10.631 z" id="path28" />
      </g>
    </g>
  </g>
  <g id="layer12" style="display:inline">
    <g style="display:inline" transform="translate(-0.8428056,0.04706389)" id="filet_separation_theme">
      <line fill="none" stroke="#1e1e1c" stroke-width="2" stroke-miterlimit="10" x1="418.09201" y1="616.146" x2="418.09201" y2="653.92902" id="line33" />
    </g>
  </g>
  <g id="layer11" style="display:inline">
    <g style="display:inline" transform="translate(-0.8428056,0.04707)" id="picto_theme">
      <g id="g40">
        <path fill="none" stroke="#1e1e1c" stroke-width="2" stroke-miterlimit="10" d="m 476.179,618.114 c 2.643,2.539 5.906,4.559 9.697,6.002 3.789,1.447 8.236,2.18 13.221,2.18 4.916,0 9.348,-0.732 13.17,-2.18 3.822,-1.443 7.104,-3.463 9.746,-6.002 2.645,-2.541 4.717,-5.551 6.154,-8.945 0.629,-1.488 1.15,-3.064 1.555,-4.697 h -19.365 c -0.51,0.879 -1.025,1.609 -1.57,2.223 -2.111,2.381 -5.371,3.588 -9.689,3.588 -5.246,0 -6.666,-0.176 -9.738,-3.586 -0.557,-0.613 -1.064,-1.322 -1.592,-2.225 h -19.299 c 0.4,1.627 0.926,3.205 1.559,4.697 1.436,3.398 3.507,6.408 6.151,8.945 z" id="path36" />
        <path fill="none" stroke="#1e1e1c" stroke-width="2" stroke-miterlimit="10" d="m 530.644,660.751 c -0.203,-3.842 -1.037,-7.518 -2.477,-10.92 -1.438,-3.389 -3.508,-6.379 -6.152,-8.883 -2.643,-2.502 -5.924,-4.521 -9.752,-6.002 -3.826,-1.479 -8.256,-2.229 -13.166,-2.229 -4.979,0 -9.426,0.75 -13.219,2.227 -3.795,1.482 -7.059,3.502 -9.701,6.004 -2.645,2.502 -4.713,5.49 -6.15,8.883 -1.441,3.398 -2.275,7.072 -2.479,10.922 -0.141,3.045 -0.203,12.775 -0.203,15.961 0,0.238 0.004,0.463 0.008,0.691 l 0.002,0.07 h 18.076 l -0.002,-0.137 c -0.004,-0.273 -0.01,-0.549 -0.01,-0.834 0,-1.51 0.018,-9.703 0.055,-11.221 0.037,-1.572 0.121,-2.906 0.256,-4.074 0.137,-1.756 0.508,-3.416 1.1,-4.918 0.596,-1.506 1.449,-2.836 2.541,-3.951 1.09,-1.117 2.459,-2.01 4.063,-2.654 1.605,-0.641 3.51,-0.967 5.664,-0.967 2.152,0 4.057,0.326 5.662,0.967 1.602,0.643 2.971,1.537 4.066,2.654 1.088,1.119 1.941,2.447 2.537,3.951 0.59,1.5 0.961,3.16 1.1,4.934 0.07,1.199 0.139,2.545 0.209,4.049 0.064,1.525 0.098,9.721 0.098,11.23 0,0.25 -0.006,0.492 -0.014,0.734 -0.002,0.078 -0.004,0.156 -0.006,0.236 h 18.092 l 0.002,-0.092 c 0.004,-0.219 0.006,-0.439 0.006,-0.67 -10e-4,-3.422 -0.069,-12.981 -0.206,-15.961 z" id="path38" />
      </g>
    </g>
  </g>
  <g id="layer10" style="display:inline">
    <g style="display:inline" transform="translate(-0.8428056,0.04707)" id="texte_picto_theme">
      <g id="g63">
        <path fill="#1e1e1c" d="m 444.25,580.017 h -3.798 v 10.026 h -3.204 v -10.026 h -3.762 v -2.593 h 10.764 z" id="path43" />
        <path fill="#1e1e1c" d="m 455.482,579.963 h -6.66 v 2.502 h 6.012 v 2.52 h -6.012 v 2.538 h 6.857 v 2.521 h -10.062 v -12.601 h 9.864 v 2.52 z" id="path45" />
        <path fill="#1e1e1c" d="m 465.058,583.455 4.518,6.588 h -3.834 l -2.718,-4.015 -2.718,4.015 h -3.727 l 4.5,-6.444 -4.212,-6.156 h 3.726 l 2.431,3.672 2.43,-3.672 h 3.763 z" id="path47" />
        <path fill="#1e1e1c" d="m 480.591,580.017 h -3.798 v 10.026 h -3.204 v -10.026 h -3.762 v -2.593 h 10.764 z" id="path49" />
        <path fill="#1e1e1c" d="m 491.824,579.963 h -6.66 v 2.502 h 6.012 v 2.52 h -6.012 v 2.538 h 6.857 v 2.521 h -10.062 v -12.601 h 9.864 v 2.52 z" id="path51" />
        <path fill="#1e1e1c" d="m 507.898,580.017 h -3.799 v 10.026 h -3.203 v -10.026 h -3.763 v -2.593 h 10.765 z" id="path53" />
        <path fill="#1e1e1c" d="m 520.894,590.043 h -3.205 v -4.896 h -5.22 v 4.896 h -3.204 v -12.601 h 3.204 v 5.185 h 5.22 v -5.185 h 3.205 z" id="path55" />
        <path fill="#1e1e1c" d="m 533.277,579.963 h -6.66 v 2.502 h 6.013 v 2.52 h -6.013 v 2.538 h 6.858 v 2.521 h -10.062 v -12.601 h 9.863 v 2.52 z m -3.312,-3.619 h -2.376 l -2.34,-2.033 2.808,-0.99 z" id="path57" />
        <path fill="#1e1e1c" d="m 549.387,590.043 h -2.826 l -0.019,-8.19 -3.023,6.931 h -2.088 l -3.023,-6.931 v 8.19 h -2.863 v -12.619 h 3.511 l 3.42,7.507 3.42,-7.507 h 3.492 v 12.619 z" id="path59" />
        <path fill="#1e1e1c" d="m 561.789,579.963 h -6.66 v 2.502 h 6.013 v 2.52 h -6.013 v 2.538 h 6.858 v 2.521 h -10.062 v -12.601 h 9.863 v 2.52 z" id="path61" />
      </g>
    </g>
  </g>
  <g id="layer9" style="display:inline">
    <g style="display:inline" transform="translate(-0.8428066,0.04706381)" id="picto_categorie">
      <g id="g144">
        <ellipse fill="none" stroke="#1e1e1c" stroke-width="2" stroke-miterlimit="10" cx="329.07401" cy="619.28802" rx="3.3069999" ry="2.5439999" id="ellipse66" />
        <ellipse fill="none" stroke="#1e1e1c" stroke-width="2" stroke-miterlimit="10" cx="329.07401" cy="609.74902" rx="3.3069999" ry="2.5439999" id="ellipse68" />
        <ellipse fill="none" stroke="#1e1e1c" stroke-width="2" stroke-miterlimit="10" cx="339.37601" cy="625.39301" rx="3.306" ry="2.5439999" id="ellipse70" />
        <ellipse fill="none" stroke="#1e1e1c" stroke-width="2" stroke-miterlimit="10" cx="323.224" cy="633.78699" rx="3.3069999" ry="2.5439999" id="ellipse72" />
        <ellipse fill="none" stroke="#1e1e1c" stroke-width="2" stroke-miterlimit="10" cx="311.26999" cy="619.16101" rx="3.3069999" ry="2.5439999" id="ellipse74" />
        <ellipse fill="none" stroke="#1e1e1c" stroke-width="2" stroke-miterlimit="10" cx="307.07199" cy="635.05902" rx="3.3069999" ry="2.5439999" id="ellipse76" />
        <ellipse fill="none" stroke="#1e1e1c" stroke-width="2" stroke-miterlimit="10" cx="339.25" cy="640.146" rx="3.3069999" ry="2.5439999" id="ellipse78" />
        <ellipse fill="none" stroke="#1e1e1c" stroke-width="2" stroke-miterlimit="10" cx="324.62399" cy="649.685" rx="3.3069999" ry="2.5439999" id="ellipse80" />
        <ellipse fill="none" stroke="#1e1e1c" stroke-width="2" stroke-miterlimit="10" cx="311.651" cy="647.26801" rx="3.3069999" ry="2.5439999" id="ellipse82" />
        <ellipse fill="none" stroke="#1e1e1c" stroke-width="2" stroke-miterlimit="10" cx="312.86899" cy="661.685" rx="3.3069999" ry="2.5439999" id="ellipse84" />
        <ellipse fill="none" stroke="#1e1e1c" stroke-width="2" stroke-miterlimit="10" cx="331.94601" cy="658.26398" rx="3.3069999" ry="2.5439999" id="ellipse86" />
        <ellipse fill="none" stroke="#1e1e1c" stroke-width="2" stroke-miterlimit="10" cx="337.73499" cy="673.91998" rx="3.3069999" ry="2.5439999" id="ellipse88" />
        <ellipse fill="none" stroke="#1e1e1c" stroke-width="2" stroke-miterlimit="10" cx="323.17499" cy="669.22803" rx="3.3069999" ry="2.5439999" id="ellipse90" />
        <line fill="none" stroke="#1e1e1c" stroke-width="2" stroke-miterlimit="10" x1="314.009" y1="663.74597" x2="320.36801" y2="669.44702" id="line92" />
        <line fill="none" stroke="#1e1e1c" stroke-width="2" stroke-miterlimit="10" x1="325.98199" y1="670.58698" x2="334.797" y2="673.83197" id="line94" />
        <line fill="none" stroke="#1e1e1c" stroke-width="2" stroke-miterlimit="10" x1="332.20901" y1="660.63202" x2="337.91101" y2="671.72803" id="line96" />
        <line fill="none" stroke="#1e1e1c" stroke-width="2" stroke-miterlimit="10" x1="331.11301" y1="660.896" x2="325.98199" y2="667.82397" id="line98" />
        <line fill="none" stroke="#1e1e1c" stroke-width="2" stroke-miterlimit="10" x1="315.67599" y1="660.58801" x2="328.65701" y2="658.43903" id="line100" />
        <line fill="none" stroke="#1e1e1c" stroke-width="2" stroke-miterlimit="10" x1="327.298" y1="650.45801" x2="331.332" y2="655.54498" id="line102" />
        <line fill="none" stroke="#1e1e1c" stroke-width="2" stroke-miterlimit="10" x1="335.27899" y1="658.00098" x2="342.077" y2="658.21997" id="line104" />
        <line fill="none" stroke="#1e1e1c" stroke-width="2" stroke-miterlimit="10" x1="327.69199" y1="649.01099" x2="338.56799" y2="642.69501" id="line106" />
        <line fill="none" stroke="#1e1e1c" stroke-width="2" stroke-miterlimit="10" x1="323.43799" y1="636.07001" x2="324.88599" y2="647.25403" id="line108" />
        <line fill="none" stroke="#1e1e1c" stroke-width="2" stroke-miterlimit="10" x1="326.552" y1="633.83398" x2="337.384" y2="638.57001" id="line110" />
        <line fill="none" stroke="#1e1e1c" stroke-width="2" stroke-miterlimit="10" x1="310.23801" y1="634.79901" x2="320.01801" y2="633.74597" id="line112" />
        <line fill="none" stroke="#1e1e1c" stroke-width="2" stroke-miterlimit="10" x1="306.642" y1="637.34302" x2="311.33401" y2="644.57898" id="line114" />
        <line fill="none" stroke="#1e1e1c" stroke-width="2" stroke-miterlimit="10" x1="314.448" y1="647.29797" x2="321.42099" y2="649.40198" id="line116" />
        <line fill="none" stroke="#1e1e1c" stroke-width="2" stroke-miterlimit="10" x1="311.37799" y1="649.66602" x2="312.737" y2="658.612" id="line118" />
        <line fill="none" stroke="#1e1e1c" stroke-width="2" stroke-miterlimit="10" x1="311.51001" y1="622.03601" x2="307.38699" y2="632.42999" id="line120" />
        <line fill="none" stroke="#1e1e1c" stroke-width="2" stroke-miterlimit="10" x1="313.439" y1="620.80902" x2="322.95599" y2="631.33398" id="line122" />
        <line fill="none" stroke="#1e1e1c" stroke-width="2" stroke-miterlimit="10" x1="328.87601" y1="621.81598" x2="323.789" y2="630.85199" id="line124" />
        <line fill="none" stroke="#1e1e1c" stroke-width="2" stroke-miterlimit="10" x1="331.98999" y1="619.492" x2="337.16501" y2="623.74597" id="line126" />
        <path fill="none" stroke="#1e1e1c" stroke-width="2" stroke-miterlimit="10" d="m 332.385,609.493 10.438,1.447 v 61.408 c 0,5.87 16.883,8.514 16.883,-3" id="path128" />
        <line fill="none" stroke="#1e1e1c" stroke-width="2" stroke-miterlimit="10" x1="328.87601" y1="611.81702" x2="328.87601" y2="616.68597" id="line130" />
        <line fill="none" stroke="#1e1e1c" stroke-width="2" stroke-miterlimit="10" x1="314.40399" y1="617.82599" x2="326.245" y2="609.53699" id="line132" />
        <path fill="none" stroke="#1e1e1c" stroke-width="2" stroke-miterlimit="10" d="m 348.144,659.945 c 0,11.892 25.382,14.125 21.782,-3.922" id="path134" />
        <path fill="none" stroke="#1e1e1c" stroke-width="2" stroke-miterlimit="10" d="m 351.106,644.221 c 0,9.752 16.313,8.658 16.313,0" id="path136" />
        <path fill="none" stroke="#1e1e1c" stroke-width="2" stroke-linejoin="round" stroke-miterlimit="10" d="m 358.169,651.238 c 0,6.062 7.662,5.802 8.613,5.696 2.05,-0.228 8.794,-2.733 5.559,-9.706 l -0.41,-0.592 c 6.152,-1.96 10.025,-11.714 -3.144,-13.946" id="path138" />
        <path fill="none" stroke="#1e1e1c" stroke-width="2" stroke-miterlimit="10" d="m 352.563,630.91 c 0,-2.734 1.458,-10.07 12.395,-10.07 10.937,0 12.714,9.113 12.714,10.617 0,1.504 -0.912,3.555 -2.005,4.238" id="path140" />
        <path fill="none" stroke="#1e1e1c" stroke-width="2" stroke-linejoin="round" stroke-miterlimit="10" d="m 342.822,610.94 c 2.268,-2.634 9.787,-7.054 16.303,0.738 6.653,-1.641 15.631,2.188 11.393,10.253" id="path142" />
      </g>
    </g>
  </g>
  <g id="layer8" style="display:inline">
    <g style="display:inline" transform="translate(-0.8428056,0.04707)" id="texte_picto_categorie">
      <g id="g159">
        <path fill="#1e1e1c" d="m 313.443,577.299 c 1.884,0 3.54,0.468 4.968,1.404 l -1.206,2.502 c -0.66,-0.385 -1.368,-0.699 -2.124,-0.945 -0.756,-0.246 -1.393,-0.369 -1.908,-0.369 -0.924,0 -1.386,0.306 -1.386,0.918 0,0.396 0.228,0.714 0.684,0.954 0.456,0.239 1.011,0.446 1.665,0.62 0.654,0.175 1.308,0.385 1.962,0.631 0.654,0.246 1.209,0.645 1.665,1.197 0.456,0.552 0.684,1.248 0.684,2.088 0,1.212 -0.474,2.156 -1.422,2.834 -0.948,0.679 -2.154,1.018 -3.618,1.018 -1.044,0 -2.076,-0.18 -3.096,-0.54 -1.021,-0.36 -1.908,-0.852 -2.664,-1.476 l 1.242,-2.467 c 0.636,0.553 1.386,1.006 2.25,1.359 0.864,0.354 1.632,0.531 2.304,0.531 0.516,0 0.918,-0.093 1.206,-0.279 0.288,-0.186 0.432,-0.459 0.432,-0.818 0,-0.348 -0.166,-0.64 -0.495,-0.873 -0.33,-0.234 -0.741,-0.408 -1.233,-0.522 -0.492,-0.114 -1.026,-0.267 -1.602,-0.459 -0.576,-0.192 -1.11,-0.401 -1.602,-0.63 -0.492,-0.229 -0.903,-0.591 -1.233,-1.089 -0.331,-0.498 -0.495,-1.095 -0.495,-1.791 0,-1.152 0.459,-2.073 1.377,-2.763 0.918,-0.69 2.133,-1.035 3.645,-1.035 z" id="path147" />
        <path fill="#1e1e1c" d="m 328.509,587.721 h -5.508 l -0.918,2.322 h -3.294 l 5.436,-12.601 h 3.294 l 5.31,12.601 h -3.42 z m -0.936,-2.43 -1.8,-4.662 -1.836,4.662 z" id="path149" />
        <path fill="#1e1e1c" d="m 339.957,590.043 h -3.312 l -4.896,-12.601 h 3.42 l 3.222,9.271 3.222,-9.271 h 3.294 z" id="path151" />
        <path fill="#1e1e1c" d="m 352.088,577.334 c 1.956,0 3.582,0.609 4.878,1.828 1.296,1.217 1.944,2.738 1.944,4.563 0,1.836 -0.651,3.372 -1.953,4.607 -1.302,1.236 -2.925,1.854 -4.869,1.854 -1.944,0 -3.564,-0.614 -4.86,-1.845 -1.296,-1.231 -1.944,-2.77 -1.944,-4.617 0,-1.836 0.648,-3.359 1.944,-4.572 1.296,-1.212 2.917,-1.818 4.86,-1.818 z m 0.037,2.683 c -0.984,0 -1.824,0.356 -2.52,1.071 -0.696,0.714 -1.044,1.599 -1.044,2.654 0,1.057 0.351,1.947 1.053,2.674 0.702,0.726 1.539,1.088 2.511,1.088 0.972,0 1.797,-0.362 2.475,-1.088 0.678,-0.727 1.017,-1.617 1.017,-2.674 0,-1.056 -0.339,-1.94 -1.017,-2.654 -0.679,-0.715 -1.503,-1.071 -2.475,-1.071 z" id="path153" />
        <path fill="#1e1e1c" d="m 363.806,590.043 h -3.204 v -12.601 h 3.204 z" id="path155" />
        <path fill="#1e1e1c" d="m 373.922,590.043 -1.872,-3.547 h -0.09 -2.43 v 3.547 h -3.204 v -12.601 h 5.634 c 1.668,0 2.958,0.382 3.87,1.144 0.912,0.762 1.368,1.845 1.368,3.248 0,1.944 -0.762,3.295 -2.286,4.051 l 2.646,4.158 z m -4.392,-6.066 h 2.43 c 0.696,0 1.236,-0.174 1.62,-0.521 0.384,-0.349 0.576,-0.853 0.576,-1.513 0,-0.647 -0.192,-1.14 -0.576,-1.476 -0.384,-0.336 -0.924,-0.504 -1.62,-0.504 h -2.43 z" id="path157" />
      </g>
    </g>
  </g>
  <g id="layer7" style="display:inline">
    <g style="display:inline" transform="translate(-0.8428056,0.04707)" id="fond_categorie">
      <path fill="#019db8" d="m 664.843,552.689 c 14.488,-32.813 22.555,-69.071 22.555,-107.183 0,-146.816 -119.455,-266.258 -266.285,-266.258 -146.838,0 -266.3,119.442 -266.3,266.258 0,38.111 8.067,74.37 22.557,107.183 z" id="path162" />
    </g>
  </g>
  <g id="layer6" style="display:inline">
    <g style="display:inline" transform="translate(-0.8428076,0.04707)" id="picto_posture">
      <g id="g177">
        <g id="g175">
          <g id="g173">
            <path fill="#473467" d="m 451.498,92.403 c 0,15.014 -0.006,30.028 0.012,45.043 0,1.179 -0.344,2.128 -1.24,2.903 -1.297,1.123 -2.57,2.273 -3.844,3.424 -0.621,0.564 -1.314,0.917 -2.173,0.939 -0.953,0.023 -1.904,0.132 -2.855,0.132 -16.35,-0.004 -32.698,-0.012 -49.046,-0.045 -1.282,-0.002 -2.571,-0.133 -3.839,-0.322 -1.274,-0.19 -1.512,-0.527 -1.564,-1.796 -0.032,-0.81 -0.031,-1.62 -0.03,-2.431 0.015,-26.264 0.028,-52.526 0.056,-78.79 0.003,-2.955 0.112,-5.909 0.142,-8.864 0.014,-1.301 0.365,-2.375 1.431,-3.245 1.029,-0.842 1.954,-1.818 2.869,-2.788 0.666,-0.705 1.442,-1.07 2.389,-1.108 1.047,-0.042 2.096,-0.099 3.143,-0.101 17.208,-0.031 34.413,-0.056 51.621,-0.076 2.752,-0.003 2.801,0.027 2.803,2.796 0.014,14.776 0.006,29.553 0.006,44.329 0.038,0 0.078,0 0.119,0 z m -7.255,50.393 c 0,-30.33 0,-60.421 0,-90.661 -18.585,0 -37.05,0 -55.434,0 0,30.232 0,60.415 0,90.661 18.568,0 36.94,0 55.434,0 z" id="path165" />
            <path fill="#473467" d="m 418.209,81.936 c 1.692,0 3.357,-0.011 5.022,0.003 1.647,0.014 1.989,0.359 1.993,2.035 0.018,8.292 0.032,16.585 0.039,24.877 0.002,1.92 -0.411,2.356 -2.357,2.356 -4.05,-0.002 -8.101,-0.036 -12.15,-0.082 -1.489,-0.017 -1.642,-0.137 -1.855,-1.574 -0.161,-1.08 -0.262,-2.177 -0.278,-3.268 -0.047,-3.193 -0.04,-6.386 -0.054,-9.579 0,-0.047 -0.015,-0.101 0,-0.142 0.604,-1.652 -0.356,-2.882 -1.085,-4.203 -1.722,-3.128 -3.383,-6.29 -5.099,-9.422 -0.412,-0.753 -0.453,-1.394 0.083,-2.107 0.886,-1.18 1.707,-2.408 2.57,-3.606 0.447,-0.621 1.067,-0.891 1.841,-0.915 2.19,-0.071 4.38,-0.165 6.569,-0.282 1.091,-0.059 1.756,0.4 2.247,1.381 0.765,1.528 1.656,2.995 2.514,4.528 z m -1.255,11.71 c -2.271,-4.022 -4.459,-7.896 -6.591,-11.669 -2.234,0 -4.311,0 -6.582,0 0.516,0.919 0.967,1.684 1.382,2.467 1.517,2.86 3.027,5.724 4.524,8.594 0.301,0.58 0.592,1.04 1.382,0.976 1.887,-0.155 3.778,-0.241 5.885,-0.368 z m 2.269,-10.087 c 0.192,0.996 0.55,1.589 1.57,1.606 0.599,0.01 0.929,0.43 0.98,1.032 0.028,0.332 0.051,0.665 0.055,0.998 0.064,6.142 0.125,12.283 0.186,18.425 0.002,0.237 0.002,0.478 -0.025,0.713 -0.084,0.717 -0.455,1.104 -1.218,1.109 -2.524,0.014 -5.048,0.047 -7.571,0.076 -0.67,0.009 -1.157,-0.237 -1.54,-0.829 -0.4,-0.616 -0.926,-1.151 -1.431,-1.763 0,1.627 0,3.165 0,4.723 4.487,0 8.842,0 13.312,0 0,-8.74 0,-17.377 0,-26.091 -1.438,10e-4 -2.804,10e-4 -4.318,10e-4 z m 0.487,22.274 c -2.009,-3.38 -2.573,-6.935 -2.534,-10.459 -2.359,0 -4.536,0 -6.796,0 -0.528,3.648 0.237,6.904 1.958,9.961 0.146,0.259 0.611,0.47 0.931,0.476 2.04,0.042 4.079,0.022 6.441,0.022 z M 411.63,80.82 c 2.055,3.583 4.047,7.056 6.12,10.669 0.517,-1.529 0.979,-2.901 1.387,-4.105 -1.746,-3.233 -3.407,-6.311 -5.153,-9.544 -0.849,1.075 -1.626,2.058 -2.354,2.98 z m 8.629,8.492 c -1.802,4.577 -2.122,9.148 0,13.726 0,-4.576 0,-9.151 0,-13.726 z" id="path167" />
            <path fill="#473467" d="m 412.322,64.417 c 0.026,-3.469 2.831,-6.206 6.335,-6.184 3.442,0.021 6.275,2.886 6.244,6.314 -0.029,3.378 -2.754,6.262 -6.055,6.142 -4.422,-0.159 -6.554,-2.97 -6.524,-6.272 z m 3.208,3.302 c 1.594,1.936 4.155,1.647 5.847,0.268 1.712,-1.396 2.132,-3.595 0.958,-5.544 -2.249,1.743 -4.484,3.476 -6.805,5.276 z m 5.727,-6.63 c -2.031,-1.443 -4.376,-1.236 -5.908,0.406 -1.396,1.497 -1.61,3.571 -0.458,5.059" id="path169" />
            <path fill="#473467" d="m 418.907,134.011 c -3.771,0.026 -6.535,-2.514 -6.584,-6.051 -0.047,-3.533 2.768,-6.407 6.278,-6.407 3.423,0 6.292,2.86 6.3,6.282 0.008,3.404 -2.66,6.153 -5.994,6.176 z m 3.472,-8.269 c -2.329,1.814 -4.554,3.549 -6.785,5.286 1.508,1.692 3.598,1.851 5.521,0.497 1.882,-1.325 2.421,-3.54 1.264,-5.783 z m -1.135,-1.283 c -1.847,-1.463 -4.119,-1.342 -5.736,0.225 -1.536,1.486 -1.818,3.694 -0.623,5.219 2.115,-1.811 4.228,-3.62 6.359,-5.444 z" id="path171" />
          </g>
        </g>
      </g>
    </g>
  </g>
  <g id="layer2" style="display:inline">
    <g style="display:inline" transform="translate(-0.8428066,0.04706713)" id="filet_1_categorie">
      <g id="g184">
        <path fill="none" stroke="#473467" stroke-width="2" stroke-miterlimit="10" d="m 638.976,243.016 c 6.295,2.748 12.613,5.603 18.965,8.592 30.008,13.753 57.346,41.572 71.348,72.603 l 0.104,0.181 c 7.818,10.628 13.176,22.504 15.926,35.3 l 0.059,0.27 0.189,0.204 c 6.496,6.949 12.354,14.357 17.404,22.017 l 0.063,0.085 c 14.82,17.993 22.617,41.049 21.953,64.976 0.869,31.613 -7.352,47.185 -21.953,64.914 l -0.063,0.086 c -5.051,7.662 -10.906,15.07 -17.404,22.019 l -0.189,0.202 -0.059,0.271 c -2.748,12.791 -8.977,24.619 -14.977,35.619 v 0 c -14.004,31.026 -42.395,58.71 -72.408,72.466 -11.951,5.625 -21.287,7.867 -19.938,7.271" id="path180" />
        <path fill="none" stroke="#473467" stroke-width="2" stroke-miterlimit="10" d="m 205.474,650.79 c -5.828,-2.559 -15.676,-5.209 -21.551,-7.975 -30.002,-13.75 -61.583,-55.463 -71.338,-72.595 l -0.105,-0.181 C 104.659,559.406 99.298,547.528 96.548,534.733 L 96.49,534.462 96.301,534.26 C 89.776,527.281 83.913,519.857 78.873,512.193 l -0.064,-0.087 C 64.022,494.152 56.234,471.115 56.88,447.187 56.234,423.316 64.021,400.279 78.807,382.321 l 0.064,-0.087 c 5.018,-7.638 10.884,-15.065 17.43,-22.074 l 0.189,-0.202 0.058,-0.271 c 2.75,-12.795 8.11,-24.672 15.932,-35.3 l 0.105,-0.181 c 13.999,-31.03 41.334,-58.849 71.347,-72.604 6.907,-3.25 13.777,-6.347 20.619,-9.313" id="path182" />
      </g>
    </g>
  </g>
  <g id="layer4" style="display:inline">
    <g style="display:inline" transform="translate(-0.8428066,0.04707)" id="filet_2_categorie">
      <path opacity="0.2" fill="none" stroke="#019db8" stroke-width="27" stroke-miterlimit="10" d="m 420.602,742.358 c -163.399,0 -296.299,-132.9 -296.299,-296.257 0,-163.357 132.9,-296.257 296.299,-296.257 163.382,0 296.284,132.9 296.284,296.257 0,163.357 -132.902,296.257 -296.284,296.257 z" id="path187" />
    </g>
  </g>
  <g id="layer3" style="display:inline">
    <g style="display:inline" transform="translate(-0.8428066,0.04707)" id="filet_3_posture">
      <path fill="none" stroke="#019db8" stroke-width="6" stroke-miterlimit="10" d="m 421.113,743.382 c -163.399,0 -296.299,-132.9 -296.299,-296.256 0,-163.358 132.9,-296.258 296.299,-296.258 163.381,0 296.285,132.9 296.285,296.258 0,163.355 -138.236,296.256 -296.285,296.256 z" id="path190" />
    </g>
  </g>
  <g id="layer5" style="display:inline">
    <g style="display:inline" transform="translate(-0.8428056,0.04707)" id="texte_titre_badge">
      <g id="g230">
        <path fill="#ffffff" d="m 254.536,516.361 2.844,0.36 v 4.571 H 245.5 v -4.571 l 2.844,-0.36 V 501.64 h -3.636 l -0.54,3.563 h -4.607 l 0.181,-8.676 h 23.396 l 0.181,8.676 h -4.607 l -0.54,-3.563 h -3.636 z" id="path200" />
        <path fill="#ffffff" d="m 265.013,521.293 v -4.571 l 2.844,-0.36 v -14.865 l -2.844,-0.396 v -4.572 h 11.879 v 4.572 l -2.844,0.396 v 14.865 l 2.844,0.36 v 4.571 z" id="path202" />
        <path fill="#ffffff" d="m 293.523,516.361 2.844,0.36 v 4.571 h -11.878 v -4.571 l 2.844,-0.36 V 501.64 h -3.636 l -0.54,3.563 h -4.607 l 0.18,-8.676 h 23.397 l 0.18,8.676 H 297.7 l -0.54,-3.563 h -3.636 v 14.721 z" id="path204" />
        <path fill="#ffffff" d="m 320.739,521.293 -4.535,-8.675 h -3.168 v 3.743 l 3.636,0.36 v 4.571 h -12.67 v -4.571 l 2.844,-0.36 v -14.865 l -2.844,-0.396 v -4.572 h 13.462 c 5.039,0 8.495,2.844 8.495,7.632 0,4.067 -1.691,5.687 -4.067,6.983 v 0.18 c 0,0 0.396,0.288 0.684,0.792 l 2.483,4.247 3.168,0.36 v 4.571 z m -4.823,-13.498 c 2.628,0 3.779,-1.044 3.779,-3.275 0,-1.944 -1.403,-2.88 -3.779,-2.88 h -2.88 v 6.155 z" id="path206" />
        <path fill="#ffffff" d="m 329.669,521.293 v -4.571 l 2.808,-0.36 V 501.46 l -2.808,-0.359 v -4.572 h 20.409 l 0.144,8.676 h -4.607 l -0.54,-3.563 h -6.406 v 4.787 h 5.363 v 4.932 h -5.363 v 4.823 h 6.335 l 0.54,-3.563 h 4.607 l -0.252,8.675 h -20.23 z" id="path208" />
        <path fill="#ffffff" d="m 359.8,521.293 v -4.571 l 2.844,-0.36 V 501.46 L 359.8,501.1 v -4.572 h 12.131 c 6.119,0 12.13,3.24 12.13,12.203 0,9.826 -5.938,12.563 -11.554,12.563 H 359.8 Z m 11.231,-5.111 c 4.212,0 6.768,-1.619 6.768,-7.451 0,-4.967 -2.664,-7.091 -7.235,-7.091 h -1.728 v 14.542 z" id="path210" />
        <path fill="#ffffff" d="m 403.287,501.496 -2.844,-0.396 v -4.572 h 11.519 v 4.572 l -2.844,0.396 v 10.689 c 0,6.264 -3.743,9.359 -10.366,9.359 -6.623,0 -10.511,-3.096 -10.511,-9.359 v -10.689 l -2.844,-0.396 v -4.572 h 11.879 v 4.572 l -2.844,0.396 v 10.294 c 0,1.944 0.792,4.571 4.319,4.571 2.879,0 4.535,-2.051 4.535,-4.391 v -10.474 z" id="path212" />
        <path fill="#ffffff" d="m 420.676,521.293 v -4.571 l 2.844,-0.36 V 501.46 l -2.844,-0.359 v -4.572 h 10.295 c 7.091,0 10.654,1.729 10.654,6.66 0,4.211 -2.664,5.003 -3.635,5.291 v 0.288 c 1.764,0.216 5.398,1.188 5.398,5.759 0,4.248 -2.483,6.768 -10.043,6.768 h -12.669 z m 12.059,-14.723 c 1.656,0 2.627,-0.971 2.627,-2.447 0,-1.764 -1.403,-2.483 -2.987,-2.483 h -2.663 v 4.931 h 3.023 z m -3.024,4.645 v 4.967 h 3.924 c 2.52,0 3.49,-0.684 3.49,-2.447 0,-1.584 -1.223,-2.52 -2.986,-2.52 z" id="path214" />
        <path fill="#ffffff" d="m 468.374,516.361 2.52,0.36 v 4.571 h -11.158 v -4.571 l 2.699,-0.36 -0.9,-2.375 h -8.387 l -0.9,2.375 2.7,0.36 v 4.571 h -10.979 v -4.571 l 2.52,-0.36 5.651,-14.902 -3.168,-0.18 v -4.752 h 11.879 z m -10.151,-11.194 c -0.252,-0.647 -0.793,-2.196 -0.793,-2.196 h -0.18 c 0,0 -0.54,1.549 -0.792,2.196 l -1.548,4.104 h 4.859 z" id="path216" />
        <path fill="#ffffff" d="m 472.227,521.293 v -4.571 l 2.844,-0.36 V 501.46 l -2.844,-0.359 v -4.572 h 12.131 c 6.119,0 12.131,3.24 12.131,12.203 0,9.826 -5.939,12.563 -11.555,12.563 h -12.707 z m 11.231,-5.111 c 4.212,0 6.768,-1.619 6.768,-7.451 0,-4.967 -2.664,-7.091 -7.234,-7.091 h -1.729 v 14.542 z" id="path218" />
        <path fill="#ffffff" d="m 520.069,512.618 c 0,3.708 -2.052,8.927 -10.402,8.927 -6.804,0 -11.051,-3.924 -11.051,-12.67 0,-8.676 4.283,-12.563 11.051,-12.563 8.351,0 10.402,4.355 10.402,7.486 0,1.116 -0.252,1.872 -0.252,1.872 l -5.867,0.54 c 0,0 0.145,-0.54 0.145,-1.296 0,-1.476 -0.937,-3.456 -4.104,-3.456 -2.844,0 -5.111,1.801 -5.111,7.523 0,5.651 2.482,7.379 5.326,7.379 2.736,0 3.744,-1.188 3.852,-3.203 l -3.491,-0.36 v -4.212 h 9.503 v 4.033 z" id="path220" />
        <path fill="#ffffff" d="m 522.555,521.293 v -4.571 l 2.808,-0.36 V 501.46 l -2.808,-0.359 v -4.572 h 20.409 l 0.144,8.676 H 538.5 l -0.539,-3.563 h -6.407 v 4.787 h 5.363 v 4.932 h -5.363 v 4.823 h 6.335 l 0.54,-3.563 h 4.607 l -0.252,8.675 h -20.229 z" id="path222" />
        <path fill="#ffffff" d="m 552.686,521.293 v -4.571 l 2.844,-0.36 v -14.865 l -2.844,-0.396 v -4.572 h 11.879 v 4.572 l -2.844,0.396 v 14.865 l 2.844,0.36 v 4.571 z" id="path224" />
        <path fill="#ffffff" d="m 582.168,512.546 v -0.684 l 5.976,1.224 v 0.611 c 0,3.276 -2.088,7.848 -10.583,7.848 -6.695,0 -10.87,-3.924 -10.87,-12.67 0,-8.676 4.283,-12.563 11.05,-12.563 8.352,0 10.403,4.787 10.403,8.207 0,1.115 -0.252,1.871 -0.252,1.871 l -5.867,0.721 c 0,0 0.144,-0.612 0.144,-1.477 0,-1.764 -0.936,-4.176 -4.104,-4.176 -2.844,0 -5.111,1.801 -5.111,7.523 0,5.651 2.412,7.379 5.147,7.379 3.096,10e-4 4.067,-1.438 4.067,-3.814 z" id="path226" />
        <path fill="#ffffff" d="m 590.45,521.293 v -4.571 l 2.844,-0.36 v -14.865 l -2.844,-0.396 v -4.572 h 11.879 v 4.572 l -2.844,0.396 v 14.865 l 2.844,0.36 v 4.571 z" id="path228" />
      </g>
    </g>
  </g>
  <g id="layer1" style="display:inline">
    <g transform="translate(-0.8428056,0.04707)" id="picto_titre_badge" style="display:inline">
      <g id="g197">
        <path fill="#ffffff" d="m 360.749,307.776 c 6.838,6.565 15.277,11.79 25.083,15.524 9.803,3.741 21.309,5.637 34.201,5.637 12.717,0 24.181,-1.896 34.067,-5.637 9.893,-3.734 18.375,-8.957 25.213,-15.524 6.842,-6.574 12.199,-14.362 15.92,-23.143 1.627,-3.847 2.979,-7.928 4.021,-12.148 h -50.096 c -1.318,2.272 -2.65,4.157 -4.063,5.749 -5.457,6.156 -13.89,9.28 -25.063,9.28 -13.572,0 -17.241,-0.455 -25.189,-9.274 -1.439,-1.587 -2.755,-3.426 -4.119,-5.755 h -49.922 c 1.038,4.203 2.393,8.286 4.034,12.146 3.72,8.792 9.074,16.577 15.913,23.145 z" id="path193" />
        <path fill="#ffffff" d="m 501.638,418.068 c -0.523,-9.942 -2.68,-19.449 -6.406,-28.251 -3.719,-8.765 -9.074,-16.496 -15.916,-22.977 -6.832,-6.472 -15.32,-11.698 -25.223,-15.527 -9.898,-3.822 -21.357,-5.762 -34.062,-5.762 -12.876,0 -24.382,1.939 -34.194,5.76 -9.814,3.833 -18.258,9.06 -25.095,15.529 -6.837,6.47 -12.188,14.203 -15.906,22.977 -3.729,8.789 -5.887,18.294 -6.412,28.256 -0.363,7.874 -0.524,33.046 -0.524,41.287 0,0.612 0.007,1.196 0.016,1.785 l 0.004,0.185 h 46.763 l -0.005,-0.352 c -0.011,-0.713 -0.024,-1.425 -0.024,-2.157 0,-3.905 0.047,-25.1 0.141,-29.027 0.095,-4.069 0.312,-7.518 0.658,-10.538 0.357,-4.544 1.316,-8.836 2.848,-12.723 1.538,-3.897 3.748,-7.335 6.569,-10.221 2.821,-2.893 6.362,-5.202 10.516,-6.866 4.151,-1.661 9.078,-2.505 14.646,-2.505 5.568,0 10.497,0.844 14.647,2.505 4.145,1.662 7.686,3.972 10.522,6.864 2.814,2.893 5.021,6.329 6.561,10.221 1.527,3.881 2.486,8.173 2.848,12.761 0.18,3.105 0.357,6.585 0.537,10.478 0.17,3.942 0.254,25.144 0.254,29.051 0,0.643 -0.018,1.269 -0.035,1.894 -0.006,0.206 -0.012,0.408 -0.018,0.615 h 46.805 l 0.002,-0.237 c 0.01,-0.568 0.018,-1.137 0.018,-1.732 -0.002,-8.859 -0.181,-33.589 -0.535,-41.293 z" id="path195" />
      </g>
    </g>
  </g>
</svg>
