<?xml version="1.0" encoding="UTF-8" standalone="no"?>
<svg xmlns:dc="http://purl.org/dc/elements/1.1/"
  xmlns:cc="http://creativecommons.org/ns#"
  xmlns:rdf="http://www.w3.org/1999/02/22-rdf-syntax-ns#"
  xmlns:svg="http://www.w3.org/2000/svg"
  xmlns="http://www.w3.org/2000/svg"
  xmlns:xlink="http://www.w3.org/1999/xlink" id="svg1335" xml:space="preserve" enable-background="new 0 0 737.007 841.89" viewBox="0 0 839.0551 839.05511" y="0px" x="0px" version="1.1" width="100%" height="100%">
  <metadata id="metadata1341">
    <rdf:RDF>
      <cc:Work rdf:about="">
        <dc:format>image/svg+xml</dc:format>
        <dc:type rdf:resource="http://purl.org/dc/dcmitype/StillImage" />
        <dc:title></dc:title>
      </cc:Work>
    </rdf:RDF>
  </metadata>
  <defs id="defs1339">
    <clipPath id="SVGID_2_">
      <use height="100%" width="100%" y="0" x="0" xlink:href="#SVGID_1_" overflow="visible" id="use190" />
    </clipPath>
    <clipPath id="SVGID_4_">
      <use height="100%" width="100%" y="0" x="0" xlink:href="#SVGID_3_" overflow="visible" id="use200" />
    </clipPath>
    <path id="SVGID_1_" d="m 396.991,71.297 c 1.172,3.438 3.038,6.25 4.835,8.438 l -19.805,17.314 c -3.164,-1.836 -6.134,-4.259 -8.673,-7.97 l -13.157,3.746 c 0,0 -1.5,20.817 0.125,20.817 1.625,0 20.75,-1.5 22,-1.5 1.25,0 37.625,-22.125 37.625,-22.125 l 13.875,-38 c 0,0 -0.625,-12.086 -1,-12.293 -0.375,-0.207 -36.375,17.007 -36.375,17.007 z" />
    <path id="SVGID_3_" d="m 445.802,102.728 c 1.949,-1.782 5.012,-5.445 6.549,-8.466 l 18.717,21.805 0.959,1.021 c -2.836,3.093 -6.363,5.285 -9.529,6.563 l 4.693,17.243 13.125,9.75 0.375,-10.625 c 0,0 -5.125,-47.875 -5.375,-48.25 -0.25,-0.375 -24.334,-23.75 -24.334,-23.75 0,0 -13.166,1.125 -13.166,1.5 0,0.375 -9.506,10 -9.506,10 l 5.663,19.625 z" />
    <clipPath id="SVGID_2_-1">
      <use id="use190-4" overflow="visible" xlink:href="#SVGID_1_" x="0" y="0" width="100%" height="100%" />
    </clipPath>
    <clipPath id="SVGID_4_-1">
      <use id="use200-4" overflow="visible" xlink:href="#SVGID_3_" x="0" y="0" width="100%" height="100%" />
    </clipPath>
    <path d="m 396.991,71.297 c 1.172,3.438 3.038,6.25 4.835,8.438 l -19.805,17.314 c -3.164,-1.836 -6.134,-4.259 -8.673,-7.97 l -13.157,3.746 c 0,0 -1.5,20.817 0.125,20.817 1.625,0 20.75,-1.5 22,-1.5 1.25,0 37.625,-22.125 37.625,-22.125 l 13.875,-38 c 0,0 -0.625,-12.086 -1,-12.293 -0.375,-0.207 -36.375,17.007 -36.375,17.007 z" id="path399" />
    <path d="m 445.802,102.728 c 1.949,-1.782 5.012,-5.445 6.549,-8.466 l 18.717,21.805 0.959,1.021 c -2.836,3.093 -6.363,5.285 -9.529,6.563 l 4.693,17.243 13.125,9.75 0.375,-10.625 c 0,0 -5.125,-47.875 -5.375,-48.25 -0.25,-0.375 -24.334,-23.75 -24.334,-23.75 0,0 -13.166,1.125 -13.166,1.5 0,0.375 -9.506,10 -9.506,10 l 5.663,19.625 z" id="path406" />
    <clipPath id="SVGID_2_-1-8">
      <use height="100%" width="100%" y="0" x="0" xlink:href="#SVGID_1_" overflow="visible" id="use190-4-2" />
    </clipPath>
    <clipPath id="SVGID_4_-1-9">
      <use height="100%" width="100%" y="0" x="0" xlink:href="#SVGID_3_" overflow="visible" id="use200-4-2" />
    </clipPath>
    <path id="path1129" d="m 396.991,71.297 c 1.172,3.438 3.038,6.25 4.835,8.438 l -19.805,17.314 c -3.164,-1.836 -6.134,-4.259 -8.673,-7.97 l -13.157,3.746 c 0,0 -1.5,20.817 0.125,20.817 1.625,0 20.75,-1.5 22,-1.5 1.25,0 37.625,-22.125 37.625,-22.125 l 13.875,-38 c 0,0 -0.625,-12.086 -1,-12.293 -0.375,-0.207 -36.375,17.007 -36.375,17.007 z" />
    <path id="path1136" d="m 445.802,102.728 c 1.949,-1.782 5.012,-5.445 6.549,-8.466 l 18.717,21.805 0.959,1.021 c -2.836,3.093 -6.363,5.285 -9.529,6.563 l 4.693,17.243 13.125,9.75 0.375,-10.625 c 0,0 -5.125,-47.875 -5.375,-48.25 -0.25,-0.375 -24.334,-23.75 -24.334,-23.75 0,0 -13.166,1.125 -13.166,1.5 0,0.375 -9.506,10 -9.506,10 l 5.663,19.625 z" />
  </defs>
  <g id="layer16">
      <path fill="none" stroke="#019db8" stroke-width="12" stroke-miterlimit="10" d="m 421.125,742.316 c -163.399,0 -296.3,-132.9 -296.3,-296.257 0,-163.357 132.9,-296.257 296.3,-296.257 163.381,0 296.285,132.9 296.285,296.257 0,163.357 -132.905,296.257 -296.285,296.257 z" id="path222-1" style="fill:#ffffff;stroke:none" />
  </g>
  <g style="display:inline" id="layer13">
    <g style="display:inline" id="texte_posture" transform="translate(-0.85380683,-0.17678)">
      <g id="g32">
        <path id="path2" d="m 243.763,717.439 -11.354,15.186 c -1.772,2.371 -3.843,3.703 -6.21,3.997 -2.368,0.294 -4.758,-0.462 -7.171,-2.266 -3.054,-2.284 -4.733,-5.403 -5.038,-9.36 l 5.477,-1.848 c 0.356,2.863 1.303,4.869 2.841,6.02 1.602,1.197 3.089,0.878 4.463,-0.959 l 7.809,-10.443 -7.688,-5.748 3.449,-4.613 z" fill="#473467" />
        <path id="path4" d="m 264.397,737.508 -12.522,-7.888 -2.963,4.704 11.304,7.121 -2.985,4.738 -11.304,-7.121 -3.006,4.772 12.895,8.122 -2.985,4.738 -18.919,-11.917 14.923,-23.691 18.547,11.683 z" fill="#473467" />
        <path id="path6" d="m 292.213,745.17 c 3.789,1.781 6.676,4.288 8.664,7.521 l -4.791,3.892 c -0.964,-1.396 -2.09,-2.699 -3.378,-3.908 -1.288,-1.209 -2.451,-2.059 -3.489,-2.546 -1.858,-0.874 -3.077,-0.694 -3.655,0.536 -0.374,0.797 -0.217,1.651 0.474,2.564 0.689,0.914 1.61,1.855 2.761,2.823 1.15,0.968 2.267,2.009 3.351,3.122 1.082,1.113 1.821,2.439 2.217,3.98 0.395,1.542 0.196,3.158 -0.598,4.847 -1.146,2.438 -2.993,3.89 -5.54,4.356 -2.548,0.469 -5.293,0.01 -8.238,-1.374 -2.1,-0.987 -4.005,-2.325 -5.716,-4.013 -1.711,-1.688 -3.032,-3.518 -3.962,-5.486 l 4.829,-3.786 c 0.757,1.712 1.837,3.332 3.24,4.86 1.403,1.529 2.78,2.61 4.132,3.246 1.037,0.487 1.934,0.682 2.689,0.578 0.755,-0.102 1.303,-0.514 1.643,-1.238 0.329,-0.699 0.272,-1.441 -0.17,-2.224 -0.443,-0.782 -1.105,-1.521 -1.986,-2.216 -0.882,-0.693 -1.811,-1.506 -2.788,-2.438 -0.977,-0.93 -1.853,-1.857 -2.626,-2.781 -0.774,-0.923 -1.257,-2.041 -1.45,-3.355 -0.193,-1.313 0.04,-2.67 0.698,-4.07 1.089,-2.316 2.882,-3.734 5.381,-4.254 2.497,-0.519 5.267,-0.066 8.308,1.364 z" fill="#473467" />
        <path id="path8" d="m 330.343,760.602 -5.493,15.283 c -1.254,3.488 -3.328,5.867 -6.221,7.137 -2.894,1.27 -6.185,1.241 -9.874,-0.085 -3.714,-1.335 -6.302,-3.419 -7.762,-6.254 -1.461,-2.835 -1.564,-5.996 -0.31,-9.484 l 5.493,-15.282 6.7,2.408 -5.493,15.283 c -0.631,1.756 -0.626,3.338 0.016,4.744 0.642,1.407 1.778,2.403 3.41,2.99 1.605,0.576 3.077,0.525 4.413,-0.156 1.335,-0.682 2.324,-1.914 2.964,-3.695 l 5.493,-15.283 z" fill="#473467" />
        <path id="path10" d="m 335.854,791.072 -6.861,-1.902 7.481,-26.981 6.861,1.902 z" fill="#473467" />
        <path id="path12" d="m 360.563,767.77 c 4.1,0.844 7.495,2.604 10.185,5.281 l -3.745,4.906 c -1.265,-1.132 -2.665,-2.135 -4.2,-3.008 -1.536,-0.874 -2.865,-1.428 -3.988,-1.658 -2.012,-0.414 -3.154,0.046 -3.428,1.378 -0.178,0.862 0.176,1.656 1.062,2.383 0.885,0.728 2,1.426 3.346,2.097 1.345,0.672 2.675,1.422 3.988,2.25 1.313,0.828 2.343,1.945 3.088,3.351 0.745,1.406 0.93,3.023 0.554,4.851 -0.542,2.639 -1.998,4.484 -4.364,5.535 -2.367,1.051 -5.144,1.249 -8.331,0.594 -2.272,-0.467 -4.438,-1.321 -6.497,-2.562 -2.06,-1.24 -3.772,-2.708 -5.138,-4.405 l 3.808,-4.812 c 1.137,1.486 2.567,2.809 4.289,3.966 1.722,1.157 3.314,1.886 4.777,2.187 1.123,0.231 2.04,0.209 2.75,-0.067 0.71,-0.275 1.146,-0.806 1.307,-1.589 0.156,-0.757 -0.074,-1.465 -0.687,-2.122 -0.614,-0.657 -1.43,-1.219 -2.45,-1.688 -1.02,-0.469 -2.114,-1.041 -3.281,-1.717 -1.168,-0.676 -2.236,-1.372 -3.205,-2.089 -0.969,-0.716 -1.701,-1.69 -2.196,-2.923 -0.496,-1.23 -0.587,-2.604 -0.275,-4.119 0.516,-2.508 1.927,-4.307 4.234,-5.398 2.306,-1.091 5.105,-1.298 8.397,-0.622 z" fill="#473467" />
        <path id="path14" d="m 403.934,796.613 -12.209,-0.861 -2.398,5.003 -7.302,-0.516 14.023,-27.079 7.302,0.516 9.798,28.762 -7.581,-0.535 z m -1.694,-5.533 -3.26,-10.615 -4.8,10.047 z" fill="#473467" />
        <path id="path16" d="m 450.255,801.251 -6.275,0.259 -0.789,-18.184 -6.08,15.664 -4.637,0.191 -7.348,-15.11 0.749,18.185 -6.354,0.262 -1.155,-28.016 7.793,-0.322 8.28,16.354 6.907,-16.979 7.753,-0.32 z" fill="#473467" />
        <path id="path18" d="m 477.386,792.204 -12.095,1.882 -1.223,5.412 -7.233,1.125 7.633,-29.524 7.233,-1.125 15.964,25.854 -7.51,1.168 z m -2.886,-5.016 -5.544,-9.621 -2.439,10.863 z" fill="#473467" />
        <path id="path20" d="m 506.144,768.252 -8.2,2 5.278,21.646 -6.917,1.687 -5.278,-21.646 -8.122,1.98 -1.364,-5.596 23.238,-5.668 z" fill="#473467" />
        <path id="path22" d="m 531.267,759.752 -14.015,4.756 1.786,5.266 12.652,-4.294 1.799,5.303 -12.65,4.294 1.813,5.34 14.432,-4.897 1.799,5.304 -21.174,7.186 -8.998,-26.515 20.757,-7.044 z" fill="#473467" />
        <path id="path24" d="m 558.037,741.94 6.675,14.805 c 1.524,3.38 1.687,6.53 0.489,9.454 -1.197,2.925 -3.582,5.191 -7.156,6.803 -3.598,1.623 -6.906,1.923 -9.928,0.9 -3.02,-1.021 -5.292,-3.223 -6.815,-6.602 l -6.675,-14.805 6.49,-2.928 6.676,14.806 c 0.767,1.702 1.87,2.835 3.31,3.399 1.439,0.565 2.948,0.492 4.529,-0.221 1.556,-0.701 2.577,-1.762 3.063,-3.181 0.486,-1.418 0.341,-2.991 -0.438,-4.717 l -6.676,-14.805 z" fill="#473467" />
        <path id="path26" d="m 592.033,754.963 -7.535,-4.757 -0.174,0.101 -4.68,2.691 3.928,6.831 -6.171,3.55 -13.962,-24.271 10.854,-6.243 c 3.213,-1.848 6.119,-2.543 8.721,-2.086 2.602,0.457 4.68,2.038 6.235,4.742 2.153,3.745 2.182,7.189 0.084,10.334 l 9.704,5.078 z m -15.182,-6.818 4.681,-2.693 c 1.341,-0.771 2.188,-1.703 2.542,-2.8 0.354,-1.096 0.166,-2.279 -0.565,-3.551 -0.718,-1.249 -1.634,-1.983 -2.745,-2.205 -1.112,-0.222 -2.338,0.054 -3.679,0.824 l -4.681,2.692 z" fill="#473467" />
        <path id="path28" d="m 598.285,733.442 c 0.799,-0.532 1.623,-0.712 2.475,-0.542 0.85,0.172 1.541,0.656 2.073,1.455 0.532,0.799 0.712,1.624 0.542,2.475 -0.172,0.851 -0.656,1.541 -1.455,2.073 -0.777,0.518 -1.591,0.69 -2.441,0.52 -0.851,-0.17 -1.541,-0.655 -2.073,-1.454 -0.532,-0.8 -0.713,-1.624 -0.542,-2.475 0.17,-0.849 0.643,-1.534 1.421,-2.052 z" fill="#473467" />
        <path id="path30" d="m 619.343,708.77 -11.791,8.945 3.36,4.43 10.644,-8.074 3.385,4.461 -10.644,8.075 3.409,4.493 12.141,-9.212 3.385,4.462 -17.813,13.515 -16.924,-22.307 17.463,-13.249 z" fill="#473467" />
      </g>
    </g>
  </g>
  <g style="display:inline" id="layer12">
    <g transform="translate(-0.85380583,-0.17678021)" id="filet_separation_theme" style="display:inline">
      <line fill="none" stroke="#1e1e1c" stroke-width="2" stroke-miterlimit="10" x1="422.14301" y1="613.79901" x2="422.14301" y2="651.58197" id="line35" />
    </g>
  </g>
  <g style="display:inline" id="layer11">
    <g transform="translate(-0.85381083,-0.17678)" id="picto_theme" style="display:inline">
      <g id="g42">
        <path fill="none" stroke="#1e1e1c" stroke-width="2" stroke-miterlimit="10" d="m 480.23,615.768 c 2.645,2.538 5.906,4.559 9.697,6.002 3.789,1.446 8.238,2.179 13.221,2.179 4.916,0 9.348,-0.732 13.17,-2.179 3.824,-1.443 7.104,-3.463 9.746,-6.002 2.646,-2.541 4.717,-5.552 6.156,-8.945 0.629,-1.488 1.15,-3.065 1.553,-4.697 h -19.365 c -0.51,0.879 -1.023,1.608 -1.57,2.223 -2.109,2.38 -5.369,3.588 -9.689,3.588 -5.246,0 -6.664,-0.176 -9.736,-3.586 -0.557,-0.613 -1.066,-1.323 -1.594,-2.225 H 472.52 c 0.402,1.626 0.926,3.204 1.561,4.696 1.436,3.398 3.506,6.407 6.149,8.946 z" id="path38" />
        <path fill="none" stroke="#1e1e1c" stroke-width="2" stroke-miterlimit="10" d="m 534.695,658.404 c -0.203,-3.843 -1.037,-7.519 -2.477,-10.921 -1.438,-3.389 -3.506,-6.378 -6.152,-8.883 -2.641,-2.502 -5.922,-4.521 -9.75,-6.002 -3.826,-1.478 -8.256,-2.228 -13.168,-2.228 -4.977,0 -9.426,0.75 -13.219,2.227 -3.793,1.482 -7.059,3.502 -9.701,6.003 -2.643,2.502 -4.711,5.491 -6.148,8.883 -1.441,3.398 -2.275,7.072 -2.479,10.923 -0.141,3.044 -0.203,12.774 -0.203,15.961 0,0.237 0.002,0.462 0.006,0.69 l 0.002,0.071 h 18.078 l -0.002,-0.137 c -0.006,-0.274 -0.01,-0.55 -0.01,-0.834 0,-1.51 0.018,-9.703 0.053,-11.221 0.037,-1.573 0.121,-2.906 0.256,-4.074 0.139,-1.756 0.508,-3.416 1.1,-4.918 0.596,-1.506 1.449,-2.836 2.541,-3.951 1.09,-1.117 2.459,-2.011 4.064,-2.654 1.605,-0.642 3.51,-0.968 5.662,-0.968 2.152,0 4.059,0.326 5.662,0.968 1.604,0.643 2.973,1.536 4.068,2.653 1.088,1.119 1.941,2.447 2.535,3.951 0.59,1.501 0.961,3.16 1.102,4.935 0.068,1.199 0.139,2.545 0.207,4.049 0.066,1.524 0.1,9.72 0.1,11.23 0,0.249 -0.008,0.491 -0.016,0.733 -0.002,0.078 -0.004,0.156 -0.006,0.237 h 18.094 v -0.092 c 0.004,-0.22 0.008,-0.439 0.008,-0.67 0,-3.422 -0.07,-12.981 -0.207,-15.961 z" id="path40" />
      </g>
    </g>
  </g>
  <g style="display:inline" id="layer10">
    <g transform="translate(-0.85381083,-0.17678)" id="texte_picto_theme" style="display:inline">
      <g id="g65">
        <path fill="#1e1e1c" d="m 448.302,577.67 h -3.799 v 10.025 H 441.3 V 577.67 h -3.762 v -2.592 h 10.764 z" id="path45" />
        <path fill="#1e1e1c" d="m 459.535,577.615 h -6.66 v 2.502 h 6.012 v 2.521 h -6.012 v 2.538 h 6.857 v 2.52 h -10.063 v -12.6 h 9.865 v 2.519 z" id="path47" />
        <path fill="#1e1e1c" d="m 469.11,581.107 4.519,6.588 h -3.834 l -2.719,-4.014 -2.718,4.014 h -3.726 l 4.5,-6.443 -4.213,-6.156 h 3.727 l 2.43,3.672 2.43,-3.672 h 3.763 z" id="path49" />
        <path fill="#1e1e1c" d="m 484.644,577.67 h -3.799 v 10.025 h -3.203 V 577.67 h -3.762 v -2.592 h 10.764 z" id="path51" />
        <path fill="#1e1e1c" d="m 495.876,577.615 h -6.66 v 2.502 h 6.012 v 2.521 h -6.012 v 2.538 h 6.857 v 2.52 H 486.01 v -12.6 h 9.865 v 2.519 z" id="path53" />
        <path fill="#1e1e1c" d="m 511.95,577.67 h -3.798 v 10.025 h -3.204 V 577.67 h -3.763 v -2.592 h 10.765 z" id="path55" />
        <path fill="#1e1e1c" d="m 524.946,587.695 h -3.204 V 582.8 h -5.221 v 4.896 h -3.203 v -12.6 h 3.203 v 5.184 h 5.221 v -5.184 h 3.204 z" id="path57" />
        <path fill="#1e1e1c" d="m 537.33,577.615 h -6.66 v 2.502 h 6.012 v 2.521 h -6.012 v 2.538 h 6.857 v 2.52 h -10.062 v -12.6 h 9.864 v 2.519 z m -3.313,-3.617 h -2.375 l -2.34,-2.034 2.807,-0.99 z" id="path59" />
        <path fill="#1e1e1c" d="m 553.439,587.695 h -2.826 l -0.018,-8.189 -3.023,6.93 h -2.088 l -3.024,-6.93 v 8.189 h -2.862 v -12.617 h 3.51 l 3.42,7.506 3.42,-7.506 h 3.492 v 12.617 z" id="path61" />
        <path fill="#1e1e1c" d="m 565.841,577.615 h -6.66 v 2.502 h 6.012 v 2.521 h -6.012 v 2.538 h 6.857 v 2.52 h -10.062 v -12.6 h 9.864 v 2.519 z" id="path63" />
      </g>
    </g>
  </g>
  <g style="display:inline" id="layer9">
    <g transform="translate(-0.85380283,-0.17677619)" id="picto_categorie" style="display:inline">
      <g id="g146">
        <ellipse fill="none" stroke="#1e1e1c" stroke-width="2" stroke-miterlimit="10" cx="328.86301" cy="616.08899" rx="3.3069999" ry="2.5439999" id="ellipse68" />
        <ellipse fill="none" stroke="#1e1e1c" stroke-width="2" stroke-miterlimit="10" cx="328.86301" cy="606.54999" rx="3.3069999" ry="2.5439999" id="ellipse70" />
        <ellipse fill="none" stroke="#1e1e1c" stroke-width="2" stroke-miterlimit="10" cx="339.164" cy="622.19299" rx="3.306" ry="2.5439999" id="ellipse72" />
        <ellipse fill="none" stroke="#1e1e1c" stroke-width="2" stroke-miterlimit="10" cx="323.01199" cy="630.58801" rx="3.3069999" ry="2.5439999" id="ellipse74" />
        <ellipse fill="none" stroke="#1e1e1c" stroke-width="2" stroke-miterlimit="10" cx="311.05801" cy="615.96198" rx="3.3069999" ry="2.5439999" id="ellipse76" />
        <ellipse fill="none" stroke="#1e1e1c" stroke-width="2" stroke-miterlimit="10" cx="306.86099" cy="631.85901" rx="3.306" ry="2.5439999" id="ellipse78" />
        <ellipse fill="none" stroke="#1e1e1c" stroke-width="2" stroke-miterlimit="10" cx="339.03799" cy="636.94598" rx="3.3069999" ry="2.5439999" id="ellipse80" />
        <ellipse fill="none" stroke="#1e1e1c" stroke-width="2" stroke-miterlimit="10" cx="324.41199" cy="646.48499" rx="3.3069999" ry="2.5439999" id="ellipse82" />
        <ellipse fill="none" stroke="#1e1e1c" stroke-width="2" stroke-miterlimit="10" cx="311.439" cy="644.06799" rx="3.3069999" ry="2.5439999" id="ellipse84" />
        <ellipse fill="none" stroke="#1e1e1c" stroke-width="2" stroke-miterlimit="10" cx="312.65701" cy="658.48499" rx="3.3069999" ry="2.5439999" id="ellipse86" />
        <ellipse fill="none" stroke="#1e1e1c" stroke-width="2" stroke-miterlimit="10" cx="331.73401" cy="655.06403" rx="3.3069999" ry="2.5439999" id="ellipse88" />
        <ellipse fill="none" stroke="#1e1e1c" stroke-width="2" stroke-miterlimit="10" cx="337.52301" cy="670.72101" rx="3.3069999" ry="2.5439999" id="ellipse90" />
        <ellipse fill="none" stroke="#1e1e1c" stroke-width="2" stroke-miterlimit="10" cx="322.96301" cy="666.02802" rx="3.3069999" ry="2.5439999" id="ellipse92" />
        <line fill="none" stroke="#1e1e1c" stroke-width="2" stroke-miterlimit="10" x1="313.797" y1="660.547" x2="320.15701" y2="666.24799" id="line94" />
        <line fill="none" stroke="#1e1e1c" stroke-width="2" stroke-miterlimit="10" x1="325.76999" y1="667.388" x2="334.58499" y2="670.633" id="line96" />
        <line fill="none" stroke="#1e1e1c" stroke-width="2" stroke-miterlimit="10" x1="331.99799" y1="657.43298" x2="337.69901" y2="668.52802" id="line98" />
        <line fill="none" stroke="#1e1e1c" stroke-width="2" stroke-miterlimit="10" x1="330.901" y1="657.69598" x2="325.76999" y2="664.625" id="line100" />
        <line fill="none" stroke="#1e1e1c" stroke-width="2" stroke-miterlimit="10" x1="315.46399" y1="657.38898" x2="328.44501" y2="655.23999" id="line102" />
        <line fill="none" stroke="#1e1e1c" stroke-width="2" stroke-miterlimit="10" x1="327.08499" y1="647.25897" x2="331.121" y2="652.34601" id="line104" />
        <line fill="none" stroke="#1e1e1c" stroke-width="2" stroke-miterlimit="10" x1="335.06699" y1="654.802" x2="341.86499" y2="655.021" id="line106" />
        <line fill="none" stroke="#1e1e1c" stroke-width="2" stroke-miterlimit="10" x1="327.48001" y1="645.81201" x2="338.35599" y2="639.49597" id="line108" />
        <line fill="none" stroke="#1e1e1c" stroke-width="2" stroke-miterlimit="10" x1="323.22699" y1="632.87097" x2="324.673" y2="644.05499" id="line110" />
        <line fill="none" stroke="#1e1e1c" stroke-width="2" stroke-miterlimit="10" x1="326.34" y1="630.63501" x2="337.172" y2="635.37097" id="line112" />
        <line fill="none" stroke="#1e1e1c" stroke-width="2" stroke-miterlimit="10" x1="310.026" y1="631.59998" x2="319.806" y2="630.547" id="line114" />
        <line fill="none" stroke="#1e1e1c" stroke-width="2" stroke-miterlimit="10" x1="306.42999" y1="634.14398" x2="311.12299" y2="641.38" id="line116" />
        <line fill="none" stroke="#1e1e1c" stroke-width="2" stroke-miterlimit="10" x1="314.23599" y1="644.099" x2="321.20901" y2="646.203" id="line118" />
        <line fill="none" stroke="#1e1e1c" stroke-width="2" stroke-miterlimit="10" x1="311.16699" y1="646.46698" x2="312.526" y2="655.41302" id="line120" />
        <line fill="none" stroke="#1e1e1c" stroke-width="2" stroke-miterlimit="10" x1="311.298" y1="618.83698" x2="307.17499" y2="629.22998" id="line122" />
        <line fill="none" stroke="#1e1e1c" stroke-width="2" stroke-miterlimit="10" x1="313.228" y1="617.60901" x2="322.74399" y2="628.13501" id="line124" />
        <line fill="none" stroke="#1e1e1c" stroke-width="2" stroke-miterlimit="10" x1="328.66501" y1="618.617" x2="323.578" y2="627.65198" id="line126" />
        <line fill="none" stroke="#1e1e1c" stroke-width="2" stroke-miterlimit="10" x1="331.77802" y1="616.29303" x2="336.953" y2="620.547" id="line128" />
        <path fill="none" stroke="#1e1e1c" stroke-width="2" stroke-miterlimit="10" d="m 332.173,606.294 10.438,1.447 v 61.408 c 0,5.87 16.883,8.514 16.883,-3" id="path130" />
        <line fill="none" stroke="#1e1e1c" stroke-width="2" stroke-miterlimit="10" x1="328.66501" y1="608.61798" x2="328.66501" y2="613.48602" id="line132" />
        <line fill="none" stroke="#1e1e1c" stroke-width="2" stroke-miterlimit="10" x1="314.19199" y1="614.62701" x2="326.03299" y2="606.33801" id="line134" />
        <path fill="none" stroke="#1e1e1c" stroke-width="2" stroke-miterlimit="10" d="m 347.932,656.746 c 0,11.892 25.382,14.125 21.782,-3.922" id="path136" />
        <path fill="none" stroke="#1e1e1c" stroke-width="2" stroke-miterlimit="10" d="m 350.894,641.021 c 0,9.752 16.313,8.658 16.313,0" id="path138" />
        <path fill="none" stroke="#1e1e1c" stroke-width="2" stroke-linejoin="round" stroke-miterlimit="10" d="m 357.957,648.039 c 0,6.062 7.662,5.802 8.613,5.696 2.05,-0.228 8.794,-2.733 5.559,-9.706 l -0.41,-0.592 c 6.152,-1.96 10.025,-11.714 -3.144,-13.946" id="path140" />
        <path fill="none" stroke="#1e1e1c" stroke-width="2" stroke-miterlimit="10" d="m 352.352,627.711 c 0,-2.734 1.458,-10.07 12.395,-10.07 10.937,0 12.714,9.113 12.714,10.617 0,1.504 -0.912,3.555 -2.005,4.238" id="path142" />
        <path fill="none" stroke="#1e1e1c" stroke-width="2" stroke-linejoin="round" stroke-miterlimit="10" d="m 342.61,607.741 c 2.268,-2.634 9.787,-7.054 16.303,0.738 6.653,-1.641 15.631,2.188 11.393,10.253" id="path144" />
      </g>
    </g>
  </g>
  <g style="display:inline" id="layer8">
    <g transform="translate(-0.85381083,-0.17678)" id="texte_picto_categorie" style="display:inline">
      <g id="g161">
        <path fill="#1e1e1c" d="m 313.495,574.951 c 1.884,0 3.54,0.469 4.968,1.404 l -1.206,2.502 c -0.66,-0.383 -1.368,-0.699 -2.124,-0.945 -0.756,-0.245 -1.393,-0.368 -1.908,-0.368 -0.924,0 -1.386,0.306 -1.386,0.918 0,0.396 0.228,0.714 0.684,0.954 0.456,0.24 1.011,0.447 1.665,0.621 0.654,0.174 1.308,0.384 1.962,0.63 0.654,0.246 1.209,0.646 1.665,1.196 0.456,0.553 0.684,1.248 0.684,2.088 0,1.213 -0.474,2.158 -1.422,2.836 -0.948,0.678 -2.154,1.017 -3.618,1.017 -1.044,0 -2.076,-0.18 -3.096,-0.54 -1.021,-0.359 -1.908,-0.852 -2.664,-1.477 l 1.242,-2.465 c 0.636,0.552 1.386,1.005 2.25,1.358 0.864,0.354 1.632,0.531 2.304,0.531 0.516,0 0.918,-0.093 1.206,-0.279 0.288,-0.186 0.432,-0.459 0.432,-0.819 0,-0.348 -0.166,-0.639 -0.495,-0.873 -0.33,-0.233 -0.741,-0.407 -1.233,-0.521 -0.492,-0.113 -1.026,-0.268 -1.602,-0.459 -0.576,-0.191 -1.11,-0.402 -1.602,-0.63 -0.492,-0.228 -0.903,-0.591 -1.233,-1.089 -0.331,-0.498 -0.495,-1.096 -0.495,-1.791 0,-1.152 0.459,-2.073 1.377,-2.764 0.918,-0.689 2.133,-1.035 3.645,-1.035 z" id="path149" />
        <path fill="#1e1e1c" d="m 328.561,585.374 h -5.508 l -0.918,2.321 h -3.294 l 5.436,-12.6 h 3.294 l 5.31,12.6 h -3.42 z m -0.936,-2.431 -1.8,-4.662 -1.836,4.662 z" id="path151" />
        <path fill="#1e1e1c" d="m 340.009,587.695 h -3.312 l -4.896,-12.6 h 3.42 l 3.222,9.27 3.222,-9.27 h 3.294 z" id="path153" />
        <path fill="#1e1e1c" d="m 352.141,574.988 c 1.956,0 3.582,0.609 4.878,1.826 1.296,1.219 1.944,2.739 1.944,4.563 0,1.836 -0.651,3.372 -1.953,4.608 -1.302,1.235 -2.925,1.854 -4.869,1.854 -1.944,0 -3.564,-0.615 -4.86,-1.846 -1.296,-1.229 -1.944,-2.768 -1.944,-4.616 0,-1.836 0.648,-3.36 1.944,-4.572 1.296,-1.212 2.916,-1.817 4.86,-1.817 z m 0.036,2.682 c -0.984,0 -1.824,0.357 -2.52,1.07 -0.696,0.715 -1.044,1.6 -1.044,2.656 0,1.055 0.351,1.946 1.053,2.672 0.702,0.727 1.539,1.09 2.511,1.09 0.972,0 1.797,-0.363 2.475,-1.09 0.678,-0.726 1.017,-1.617 1.017,-2.672 0,-1.057 -0.339,-1.941 -1.017,-2.656 -0.678,-0.713 -1.503,-1.07 -2.475,-1.07 z" id="path155" />
        <path fill="#1e1e1c" d="m 363.858,587.695 h -3.204 v -12.6 h 3.204 z" id="path157" />
        <path fill="#1e1e1c" d="m 373.975,587.695 -1.872,-3.545 h -0.09 -2.43 v 3.545 h -3.204 v -12.6 h 5.634 c 1.668,0 2.958,0.381 3.87,1.143 0.912,0.763 1.368,1.846 1.368,3.25 0,1.943 -0.762,3.293 -2.286,4.049 l 2.646,4.158 z m -4.392,-6.065 h 2.43 c 0.696,0 1.236,-0.174 1.62,-0.522 0.384,-0.348 0.576,-0.852 0.576,-1.512 0,-0.648 -0.192,-1.14 -0.576,-1.477 -0.384,-0.335 -0.924,-0.504 -1.62,-0.504 h -2.43 z" id="path159" />
      </g>
    </g>
  </g>
  <g style="display:inline" id="layer7">
    <g transform="translate(-0.85381083,-0.17678)" id="fond_categorie" style="display:inline">
      <path fill="#019db8" d="m 664.855,553.242 c 14.488,-32.813 22.555,-69.07 22.555,-107.183 0,-146.814 -119.455,-266.257 -266.285,-266.257 -146.838,0 -266.3,119.442 -266.3,266.257 0,38.112 8.067,74.37 22.557,107.183 z" id="path164" />
    </g>
  </g>
  <g style="display:inline" id="layer6">
    <g transform="translate(-0.85381083,-0.17678)" id="picto_posture" style="display:inline">
      <g id="g209">
        <g id="g207">
          <path fill-rule="evenodd" clip-rule="evenodd" fill="none" stroke="#473467" stroke-width="2" stroke-miterlimit="10" d="m 428.456,46.991 3.143,4.403 c 0.354,0.495 0.343,1.114 -0.024,1.376 l -2.101,1.43 c -0.366,0.262 -0.955,0.071 -1.309,-0.425 l -3.143,-4.402 c -0.354,-0.496 -0.343,-1.115 0.023,-1.377 l 2.101,-1.43 c 0.367,-0.261 0.956,-0.071 1.31,0.425 z" id="path167" />
          <path fill-rule="evenodd" clip-rule="evenodd" fill="currentColor" d="m 405.994,48.888 c -1.613,-3.48 8.643,-11.283 11.874,-8.618 7.239,5.97 13.196,14.519 17.658,24.326 1.47,3.23 -8.715,11.254 -11.874,8.619 -7.77,-6.483 -13.369,-15.068 -17.658,-24.327 z" id="path169" />
          <path fill-rule="evenodd" clip-rule="evenodd" fill="none" stroke="#473467" stroke-width="2" stroke-miterlimit="10" d="m 403.213,76.598 c 0,0 2.665,1.488 4.157,4.105 1.493,2.616 1.526,4.762 -0.793,8.425 -2.319,3.663 -7.265,5.861 -8.669,4.579 -1.404,-1.282 -2.564,-3.968 0.916,-7.021 3.479,-3.053 4.603,-3.847 3.156,-6.228 -1.447,-2.381 -1.898,-1.344 -4.664,-8.608 0,0 -2.15,-3.347 -4.659,-4.091 -2.508,-0.744 -3.602,0.122 -4.029,0.916 -0.428,0.793 -1.038,2.616 -2.076,2.621 -1.038,0.004 -3.175,0.004 -4.152,0.98 -0.977,0.977 -1.387,2.139 -1.282,3.358 0.105,1.22 -1.465,2.198 -2.564,2.503 -1.099,0.305 -3.053,1.232 -3.297,2.967 -0.244,1.735 0.549,3.383 -0.611,4.115 -1.16,0.732 -2.747,2.076 -1.893,3.785 0.854,1.71 2.625,3.979 4.396,5.256 1.771,1.277 5.459,4.443 7.509,3.902 2.05,-0.541 2.861,-2.564 2.861,-2.564 0,0 1.991,1.434 3.977,0.435 1.986,-0.999 2.442,-3.548 2.442,-3.548 0,0 -3.968,-2.992 -6.105,-6.41" id="path171" />
          <path fill-rule="evenodd" clip-rule="evenodd" fill="none" stroke="#473467" stroke-width="2" stroke-miterlimit="10" d="m 383.93,90.96 c 0,0 2.923,2.822 3.657,5.074" id="path173" />
          <path fill-rule="evenodd" clip-rule="evenodd" fill="none" stroke="#473467" stroke-width="2" stroke-miterlimit="10" d="m 392.167,80.208 c 0,0 2.992,4.646 6.655,6.479" id="path175" />
          <path fill-rule="evenodd" clip-rule="evenodd" fill="none" stroke="#473467" stroke-width="2" stroke-miterlimit="10" d="m 393.938,92.486 c 0,0 0.247,0.763 3.023,0" id="path177" />
          <path fill-rule="evenodd" clip-rule="evenodd" fill="none" stroke="#473467" stroke-width="2" stroke-miterlimit="10" d="m 458.177,111.416 c -2.613,3.069 -6.979,5.448 -6.979,5.448 0,0 0.078,2.588 1.898,3.867 1.818,1.278 3.996,0.152 3.996,0.152 0,0 0.508,2.12 2.455,2.955 1.949,0.835 6.063,-1.757 8,-2.762 1.939,-1.004 4.021,-2.989 5.117,-4.556 1.096,-1.565 -0.277,-3.127 -1.318,-4.021 -1.039,-0.895 -0.014,-2.408 0,-4.16 0.012,-1.751 -1.785,-2.955 -2.828,-3.417 -1.043,-0.463 -2.453,-1.661 -2.17,-2.852 0.283,-1.191 0.047,-2.4 -0.777,-3.51 -0.822,-1.109 -2.938,-1.422 -3.963,-1.578 -1.025,-0.156 -1.363,-2.049 -1.67,-2.896 -0.307,-0.847 -1.262,-1.864 -3.852,-1.496 -2.59,0.369 -5.207,3.365 -5.207,3.365 -3.801,6.782 -4.094,5.689 -5.875,7.833 -1.779,2.144 -0.785,3.094 2.211,6.622 2.996,3.529 1.455,6.017 -0.121,7.08 -1.576,1.063 -6.31,-1.768 -7.906,-5.799 -1.515,-3.823 -1.148,-7.108 2.126,-9.804 3.276,-2.695 5.901,-3.218 5.901,-3.218" id="path179" />
          <path fill-rule="evenodd" clip-rule="evenodd" fill="none" stroke="#473467" stroke-width="2" stroke-miterlimit="10" d="m 461.324,116.818 c 0,0 -3.305,2.365 -4.361,4.485" id="path181" />
          <path fill-rule="evenodd" clip-rule="evenodd" fill="none" stroke="#473467" stroke-width="2" stroke-miterlimit="10" d="m 454.748,104.977 c 0,0 -3.639,4.159 -7.531,5.435" id="path183" />
          <path fill-rule="evenodd" clip-rule="evenodd" fill="none" stroke="#473467" stroke-width="2" stroke-miterlimit="10" d="m 451.199,116.864 c 0,0 -0.355,0.718 -2.99,-0.442" id="path185" />
          <g id="g195">
            <defs id="defs188">
              <path id="path1408" d="m 396.991,71.297 c 1.172,3.438 3.038,6.25 4.835,8.438 l -19.805,17.314 c -3.164,-1.836 -6.134,-4.259 -8.673,-7.97 l -13.157,3.746 c 0,0 -1.5,20.817 0.125,20.817 1.625,0 20.75,-1.5 22,-1.5 1.25,0 37.625,-22.125 37.625,-22.125 l 13.875,-38 c 0,0 -0.625,-12.086 -1,-12.293 -0.375,-0.207 -36.375,17.007 -36.375,17.007 z" />
            </defs>
            <clipPath id="clipPath385">
              <use height="100%" width="100%" y="0" x="0" xlink:href="#SVGID_1_" overflow="visible" id="use383" />
            </clipPath>
            <path clip-path="url(#SVGID_2_-1-8)" fill-rule="evenodd" clip-rule="evenodd" fill="none" stroke="#473467" stroke-width="2" stroke-miterlimit="10" d="m 364.099,107.563 c 0.236,0.317 0.881,0.372 1.189,0.113 l 57.447,-48.384 -4.096,-4.923 -57.144,48.171 c -0.431,0.364 -0.478,0.886 -0.126,1.357 z" id="path193" />
          </g>
          <g id="g205">
            <defs id="defs198">
              <path id="path1415" d="m 445.802,102.728 c 1.949,-1.782 5.012,-5.445 6.549,-8.466 l 18.717,21.805 0.959,1.021 c -2.836,3.093 -6.363,5.285 -9.529,6.563 l 4.693,17.243 13.125,9.75 0.375,-10.625 c 0,0 -5.125,-47.875 -5.375,-48.25 -0.25,-0.375 -24.334,-23.75 -24.334,-23.75 0,0 -13.166,1.125 -13.166,1.5 0,0.375 -9.506,10 -9.506,10 l 5.663,19.625 z" />
            </defs>
            <clipPath id="clipPath393">
              <use height="100%" width="100%" y="0" x="0" xlink:href="#SVGID_3_" overflow="visible" id="use391" />
            </clipPath>
            <path clip-path="url(#SVGID_4_-1-9)" fill-rule="evenodd" clip-rule="evenodd" fill="currentColor" d="m 479.718,143.527 -7.443,-6.126 -38.29,-58.556 c -0.277,-0.424 4.488,-4.469 4.825,-3.954 l 38.754,59.202 2.621,9.142 z" id="path203" />
          </g>
        </g>
      </g>
    </g>
  </g>
  <g style="display:inline" id="layer2">
    <g transform="translate(-0.85380683,-0.17678287)" id="filet_1_categorie" style="display:inline">
      <g id="g216">
        <path fill="none" stroke="#473467" stroke-width="2" stroke-miterlimit="10" d="m 638.988,242.951 c 6.295,2.748 12.613,4.603 18.965,7.592 30.008,13.753 57.346,42.572 71.348,73.602 l 0.105,0.182 c 7.816,10.627 13.174,22.504 15.924,35.3 l 0.059,0.271 0.189,0.202 c 6.496,6.95 12.354,14.358 17.404,22.018 l 0.064,0.085 c 14.818,17.993 22.615,41.049 21.951,64.975 0.656,23.873 -7.141,46.926 -21.953,64.915 l -0.063,0.085 c -5.051,7.662 -10.906,15.07 -17.404,22.02 l -0.189,0.202 -0.059,0.271 c -2.748,12.793 -8.107,24.67 -15.924,35.303 l -0.105,0.182 c -14.002,31.027 -41.342,58.846 -71.355,72.604 -5.334,2.51 -10.645,4.929 -15.938,7.269" id="path212" />
        <path fill="none" stroke="#473467" stroke-width="2" stroke-miterlimit="10" d="m 201.485,650.725 c -5.828,-2.559 -11.675,-5.208 -17.55,-7.973 -30.003,-13.75 -57.338,-41.567 -71.338,-72.597 l -0.106,-0.182 C 104.67,559.341 99.31,547.462 96.56,534.667 l -0.058,-0.271 -0.189,-0.202 C 89.788,527.215 83.924,519.79 78.886,512.126 L 78.821,512.04 C 64.033,494.086 56.246,471.05 56.891,447.121 56.245,423.249 64.032,400.214 78.819,382.255 l 0.063,-0.086 C 83.9,374.53 89.766,367.104 96.313,360.095 l 0.189,-0.203 0.058,-0.27 c 2.75,-12.795 8.11,-24.672 15.931,-35.3 l 0.106,-0.182 c 13.999,-31.03 41.334,-58.849 71.347,-72.604 6.906,-3.251 13.777,-6.348 20.618,-9.313" id="path214" />
      </g>
    </g>
  </g>
  <g style="display:inline" id="layer4">
    <g style="display:inline" transform="translate(-0.84281,0.04707)" id="filet_2_categorie">
      <path opacity="0.2" fill="none" stroke="#019db8" stroke-width="27" stroke-miterlimit="10" d="m 420.602,742.358 c -163.399,0 -296.299,-132.9 -296.299,-296.257 0,-163.357 132.9,-296.257 296.299,-296.257 163.382,0 296.284,132.9 296.284,296.257 0,163.357 -132.902,296.257 -296.284,296.257 z" id="path187" />
    </g>
  </g>
  <g style="display:inline" id="layer3">
    <g transform="translate(-0.85380683,-0.17678)" id="filet_3_posture" style="display:inline">
      <path fill="none" stroke="#019db8" stroke-width="12" stroke-miterlimit="10" d="m 421.125,742.316 c -163.399,0 -296.3,-132.9 -296.3,-296.257 0,-163.357 132.9,-296.257 296.3,-296.257 163.381,0 296.285,132.9 296.285,296.257 0,163.357 -132.905,296.257 -296.285,296.257 z" id="path222" />
    </g>
  </g>
  <g style="display:inline" id="layer5">
    <g transform="translate(-0.85381083,-0.17678)" id="texte_titre_badge" style="display:inline">
      <g id="g262">
        <path fill="#ffffff" d="m 254.536,516.361 2.844,0.36 v 4.571 H 245.5 v -4.571 l 2.844,-0.36 V 501.64 h -3.636 l -0.54,3.563 h -4.607 l 0.181,-8.676 h 23.396 l 0.181,8.676 h -4.607 l -0.54,-3.563 h -3.636 z" id="path232" />
        <path fill="#ffffff" d="m 265.013,521.293 v -4.571 l 2.844,-0.36 v -14.865 l -2.844,-0.396 v -4.572 h 11.879 v 4.572 l -2.844,0.396 v 14.865 l 2.844,0.36 v 4.571 z" id="path234" />
        <path fill="#ffffff" d="m 293.523,516.361 2.844,0.36 v 4.571 h -11.878 v -4.571 l 2.844,-0.36 V 501.64 h -3.636 l -0.54,3.563 h -4.607 l 0.18,-8.676 h 23.397 l 0.18,8.676 H 297.7 l -0.54,-3.563 h -3.636 v 14.721 z" id="path236" />
        <path fill="#ffffff" d="m 320.739,521.293 -4.535,-8.675 h -3.168 v 3.743 l 3.636,0.36 v 4.571 h -12.67 v -4.571 l 2.844,-0.36 v -14.865 l -2.844,-0.396 v -4.572 h 13.462 c 5.039,0 8.495,2.844 8.495,7.632 0,4.067 -1.691,5.687 -4.067,6.983 v 0.18 c 0,0 0.396,0.288 0.684,0.792 l 2.483,4.247 3.168,0.36 v 4.571 z m -4.823,-13.498 c 2.628,0 3.779,-1.044 3.779,-3.275 0,-1.944 -1.403,-2.88 -3.779,-2.88 h -2.88 v 6.155 z" id="path238" />
        <path fill="#ffffff" d="m 329.669,521.293 v -4.571 l 2.808,-0.36 V 501.46 l -2.808,-0.359 v -4.572 h 20.409 l 0.144,8.676 h -4.607 l -0.54,-3.563 h -6.406 v 4.787 h 5.363 v 4.932 h -5.363 v 4.823 h 6.335 l 0.54,-3.563 h 4.607 l -0.252,8.675 h -20.23 z" id="path240" />
        <path fill="#ffffff" d="m 359.8,521.293 v -4.571 l 2.844,-0.36 V 501.46 L 359.8,501.1 v -4.572 h 12.131 c 6.119,0 12.13,3.24 12.13,12.203 0,9.826 -5.938,12.563 -11.554,12.563 H 359.8 Z m 11.231,-5.111 c 4.212,0 6.768,-1.619 6.768,-7.451 0,-4.967 -2.664,-7.091 -7.235,-7.091 h -1.728 v 14.542 z" id="path242" />
        <path fill="#ffffff" d="m 403.287,501.496 -2.844,-0.396 v -4.572 h 11.519 v 4.572 l -2.844,0.396 v 10.689 c 0,6.264 -3.743,9.359 -10.366,9.359 -6.623,0 -10.511,-3.096 -10.511,-9.359 v -10.689 l -2.844,-0.396 v -4.572 h 11.879 v 4.572 l -2.844,0.396 v 10.294 c 0,1.944 0.792,4.571 4.319,4.571 2.879,0 4.535,-2.051 4.535,-4.391 v -10.474 z" id="path244" />
        <path fill="#ffffff" d="m 420.676,521.293 v -4.571 l 2.844,-0.36 V 501.46 l -2.844,-0.359 v -4.572 h 10.295 c 7.091,0 10.654,1.729 10.654,6.66 0,4.211 -2.664,5.003 -3.635,5.291 v 0.288 c 1.764,0.216 5.398,1.188 5.398,5.759 0,4.248 -2.483,6.768 -10.043,6.768 h -12.669 z m 12.059,-14.723 c 1.656,0 2.627,-0.971 2.627,-2.447 0,-1.764 -1.403,-2.483 -2.987,-2.483 h -2.663 v 4.931 h 3.023 z m -3.024,4.645 v 4.967 h 3.924 c 2.52,0 3.49,-0.684 3.49,-2.447 0,-1.584 -1.223,-2.52 -2.986,-2.52 z" id="path246" />
        <path fill="#ffffff" d="m 468.374,516.361 2.52,0.36 v 4.571 h -11.158 v -4.571 l 2.699,-0.36 -0.9,-2.375 h -8.387 l -0.9,2.375 2.7,0.36 v 4.571 h -10.979 v -4.571 l 2.52,-0.36 5.651,-14.902 -3.168,-0.18 v -4.752 h 11.879 z m -10.151,-11.194 c -0.252,-0.647 -0.793,-2.196 -0.793,-2.196 h -0.18 c 0,0 -0.54,1.549 -0.792,2.196 l -1.548,4.104 h 4.859 z" id="path248" />
        <path fill="#ffffff" d="m 472.227,521.293 v -4.571 l 2.844,-0.36 V 501.46 l -2.844,-0.359 v -4.572 h 12.131 c 6.119,0 12.131,3.24 12.131,12.203 0,9.826 -5.939,12.563 -11.555,12.563 h -12.707 z m 11.231,-5.111 c 4.212,0 6.768,-1.619 6.768,-7.451 0,-4.967 -2.664,-7.091 -7.234,-7.091 h -1.729 v 14.542 z" id="path250" />
        <path fill="#ffffff" d="m 520.069,512.618 c 0,3.708 -2.052,8.927 -10.402,8.927 -6.804,0 -11.051,-3.924 -11.051,-12.67 0,-8.676 4.283,-12.563 11.051,-12.563 8.351,0 10.402,4.355 10.402,7.486 0,1.116 -0.252,1.872 -0.252,1.872 l -5.867,0.54 c 0,0 0.145,-0.54 0.145,-1.296 0,-1.476 -0.937,-3.456 -4.104,-3.456 -2.844,0 -5.111,1.801 -5.111,7.523 0,5.651 2.482,7.379 5.326,7.379 2.736,0 3.744,-1.188 3.852,-3.203 l -3.491,-0.36 v -4.212 h 9.503 v 4.033 z" id="path252" />
        <path fill="#ffffff" d="m 522.555,521.293 v -4.571 l 2.808,-0.36 V 501.46 l -2.808,-0.359 v -4.572 h 20.409 l 0.144,8.676 H 538.5 l -0.539,-3.563 h -6.407 v 4.787 h 5.363 v 4.932 h -5.363 v 4.823 h 6.335 l 0.54,-3.563 h 4.607 l -0.252,8.675 h -20.229 z" id="path254" />
        <path fill="#ffffff" d="m 552.686,521.293 v -4.571 l 2.844,-0.36 v -14.865 l -2.844,-0.396 v -4.572 h 11.879 v 4.572 l -2.844,0.396 v 14.865 l 2.844,0.36 v 4.571 z" id="path256" />
        <path fill="#ffffff" d="m 582.168,512.546 v -0.684 l 5.976,1.224 v 0.611 c 0,3.276 -2.088,7.848 -10.583,7.848 -6.695,0 -10.87,-3.924 -10.87,-12.67 0,-8.676 4.283,-12.563 11.05,-12.563 8.352,0 10.403,4.787 10.403,8.207 0,1.115 -0.252,1.871 -0.252,1.871 l -5.867,0.721 c 0,0 0.144,-0.612 0.144,-1.477 0,-1.764 -0.936,-4.176 -4.104,-4.176 -2.844,0 -5.111,1.801 -5.111,7.523 0,5.651 2.412,7.379 5.147,7.379 3.096,10e-4 4.067,-1.438 4.067,-3.814 z" id="path258" />
        <path fill="#ffffff" d="m 590.45,521.293 v -4.571 l 2.844,-0.36 v -14.865 l -2.844,-0.396 v -4.572 h 11.879 v 4.572 l -2.844,0.396 v 14.865 l 2.844,0.36 v 4.571 z" id="path260" />
      </g>
    </g>
  </g>
  <g style="display:inline" id="layer1">
    <g transform="translate(-0.85381083,-0.17678)" id="picto_titre_badge" style="display:inline">
      <g id="g229">
        <path fill="#ffffff" stroke="#ffffff" stroke-miterlimit="10" d="m 364.226,309.907 c 6.838,6.565 15.277,11.79 25.083,15.524 9.802,3.74 21.308,5.637 34.2,5.637 12.718,0 24.182,-1.896 34.068,-5.637 9.893,-3.734 18.375,-8.957 25.211,-15.524 6.844,-6.575 12.201,-14.362 15.922,-23.144 1.627,-3.846 2.979,-7.928 4.021,-12.147 h -50.096 c -1.32,2.271 -2.65,4.157 -4.063,5.749 -5.458,6.156 -13.891,9.28 -25.064,9.28 -13.571,0 -17.24,-0.456 -25.189,-9.275 -1.439,-1.587 -2.755,-3.425 -4.12,-5.754 H 344.28 c 1.038,4.202 2.393,8.285 4.034,12.146 3.72,8.793 9.073,16.578 15.912,23.145 z" id="path225" />
        <path fill="#ffffff" stroke="#ffffff" stroke-miterlimit="10" d="m 504.115,420.198 c -0.523,-9.941 -2.68,-19.449 -6.406,-28.25 -3.719,-8.766 -9.072,-16.497 -15.916,-22.978 -6.832,-6.472 -15.32,-11.697 -25.223,-15.527 -9.896,-3.822 -21.356,-5.761 -34.062,-5.761 -12.876,0 -24.382,1.938 -34.193,5.759 -9.814,3.834 -18.259,9.06 -25.095,15.529 -6.838,6.47 -12.189,14.203 -15.906,22.978 -3.729,8.788 -5.887,18.294 -6.412,28.256 -0.363,7.872 -0.524,33.046 -0.524,41.286 0,0.611 0.008,1.196 0.017,1.784 l 0.004,0.185 h 46.762 l -0.005,-0.352 c -0.011,-0.713 -0.024,-1.424 -0.024,-2.157 0,-3.904 0.047,-25.099 0.142,-29.026 0.095,-4.07 0.311,-7.519 0.658,-10.538 0.357,-4.544 1.316,-8.836 2.848,-12.722 1.539,-3.897 3.748,-7.336 6.569,-10.221 2.821,-2.893 6.362,-5.203 10.516,-6.866 4.151,-1.662 9.077,-2.506 14.646,-2.506 5.568,0 10.497,0.844 14.648,2.506 4.144,1.662 7.685,3.972 10.522,6.864 2.814,2.893 5.02,6.328 6.561,10.221 1.525,3.881 2.484,8.173 2.848,12.76 0.178,3.105 0.355,6.586 0.535,10.478 0.17,3.943 0.256,25.145 0.256,29.051 0,0.643 -0.018,1.269 -0.037,1.894 -0.006,0.206 -0.012,0.409 -0.018,0.615 h 46.807 l 0.002,-0.236 c 0.008,-0.569 0.016,-1.138 0.016,-1.732 -0.003,-8.859 -0.183,-33.59 -0.536,-41.294 z" id="path227" />
      </g>
    </g>
  </g>
</svg>
