<?xml version="1.0" encoding="UTF-8" standalone="no"?>
<svg xmlns:dc="http://purl.org/dc/elements/1.1/"
  xmlns:cc="http://creativecommons.org/ns#"
  xmlns:rdf="http://www.w3.org/1999/02/22-rdf-syntax-ns#"
  xmlns:svg="http://www.w3.org/2000/svg"
  xmlns="http://www.w3.org/2000/svg" id="svg1335" xml:space="preserve" enable-background="new 0 0 737.007 841.89" viewBox="0 0 839.99998 839.99999" height="100%" width="100%" y="0px" x="0px" version="1.1">
  <metadata id="metadata1341">
    <rdf:RDF>
      <cc:Work rdf:about="">
        <dc:format>image/svg+xml</dc:format>
        <dc:type rdf:resource="http://purl.org/dc/dcmitype/StillImage" />
        <dc:title></dc:title>
      </cc:Work>
    </rdf:RDF>
  </metadata>
  <defs id="defs1339" />
  <!-- <g id="layer17" style="display:inline">
    <g style="display:inline;fill:#ffffff;stroke:none" id="filet_3_posture" transform="translate(-0.85381,-0.10049)">
      <path id="path232-6" d="m 421.125,731.991 c -163.4,0 -296.3,-132.9 -296.3,-296.258 0,-163.355 132.9,-296.256 296.3,-296.256 163.38,0 296.284,132.9 296.284,296.256 10e-4,163.358 -132.904,296.258 -296.284,296.258 z" stroke-miterlimit="10" stroke-width="18" stroke="#019db8" fill="none" style="fill:#ffffff;stroke:none" />
    </g>
  </g> -->
  <g style="display:inline" id="layer13">
    <g transform="translate(-0.85380665,-0.10049268)" id="texte_posture">
      <g id="g30">
        <path fill="#473467" d="M 262.421,726.715 251.8,742.42 c -1.658,2.452 -3.663,3.881 -6.014,4.287 -2.351,0.406 -4.774,-0.234 -7.271,-1.922 -3.159,-2.137 -4.984,-5.174 -5.476,-9.111 l 5.384,-2.105 c 0.491,2.843 1.532,4.803 3.123,5.877 1.657,1.121 3.127,0.731 4.412,-1.168 l 7.305,-10.803 -7.953,-5.377 3.227,-4.771 z" id="path2" />
        <path fill="#473467" d="m 283.991,745.776 -12.886,-7.28 -2.735,4.841 11.632,6.571 -2.754,4.876 -11.632,-6.571 -2.774,4.91 13.269,7.496 -2.754,4.877 -19.468,-10.999 13.772,-24.379 19.085,10.782 z" id="path4" />
        <path fill="#473467" d="m 312.126,752.039 c 3.874,1.587 6.885,3.944 9.033,7.072 l -4.587,4.129 c -1.034,-1.346 -2.225,-2.59 -3.572,-3.732 -1.348,-1.143 -2.552,-1.932 -3.613,-2.365 -1.9,-0.779 -3.108,-0.539 -3.624,0.72 -0.333,0.813 -0.133,1.66 0.603,2.538 0.735,0.877 1.702,1.771 2.901,2.68 1.198,0.908 2.366,1.891 3.504,2.947 1.137,1.058 1.942,2.346 2.416,3.865 0.473,1.519 0.355,3.143 -0.352,4.869 -1.021,2.492 -2.792,4.037 -5.313,4.632 -2.521,0.597 -5.286,0.276 -8.297,-0.956 -2.146,-0.879 -4.118,-2.119 -5.912,-3.719 -1.794,-1.6 -3.206,-3.359 -4.235,-5.279 l 4.631,-4.024 c 0.843,1.671 2.003,3.234 3.482,4.69 1.478,1.455 2.908,2.466 4.291,3.032 1.061,0.435 1.966,0.583 2.715,0.442 0.749,-0.141 1.275,-0.58 1.578,-1.32 0.293,-0.716 0.199,-1.453 -0.282,-2.213 -0.482,-0.759 -1.181,-1.463 -2.096,-2.111 -0.917,-0.648 -1.885,-1.414 -2.908,-2.293 -1.023,-0.881 -1.944,-1.762 -2.764,-2.646 -0.82,-0.884 -1.359,-1.976 -1.618,-3.278 -0.26,-1.302 -0.096,-2.668 0.491,-4.1 0.97,-2.369 2.69,-3.876 5.159,-4.521 2.471,-0.647 5.26,-0.332 8.369,0.941 z" id="path6" />
        <path fill="#473467" d="m 351.004,765.424 -4.655,15.559 c -1.063,3.551 -3.004,6.039 -5.824,7.464 -2.82,1.425 -6.108,1.575 -9.863,0.452 -3.781,-1.132 -6.478,-3.072 -8.09,-5.824 -1.613,-2.75 -1.888,-5.901 -0.825,-9.453 l 4.655,-15.559 6.821,2.041 -4.655,15.559 c -0.535,1.789 -0.444,3.368 0.274,4.737 0.717,1.37 1.906,2.304 3.567,2.8 1.635,0.489 3.101,0.357 4.398,-0.396 1.297,-0.753 2.217,-2.036 2.76,-3.851 l 4.655,-15.559 z" id="path8" />
        <path fill="#473467" d="m 358.209,795.506 -6.96,-1.502 5.909,-27.37 6.959,1.503 z" id="path10" />
        <path fill="#473467" d="m 381.509,770.769 c 4.145,0.589 7.642,2.138 10.491,4.644 l -3.436,5.127 c -1.332,-1.051 -2.791,-1.965 -4.377,-2.744 -1.586,-0.777 -2.947,-1.246 -4.082,-1.408 -2.033,-0.289 -3.145,0.24 -3.337,1.586 -0.124,0.871 0.278,1.643 1.207,2.313 0.928,0.672 2.084,1.301 3.469,1.888 1.384,0.588 2.757,1.255 4.12,2 1.361,0.746 2.458,1.798 3.289,3.155 0.83,1.356 1.114,2.959 0.851,4.807 -0.379,2.668 -1.718,4.598 -4.016,5.793 -2.298,1.195 -5.057,1.563 -8.278,1.105 -2.297,-0.327 -4.512,-1.046 -6.643,-2.157 -2.132,-1.111 -3.931,-2.472 -5.399,-4.081 l 3.504,-5.037 c 1.226,1.414 2.735,2.646 4.525,3.694 1.79,1.05 3.424,1.679 4.903,1.89 1.135,0.161 2.049,0.082 2.741,-0.236 0.692,-0.319 1.094,-0.875 1.207,-1.667 0.109,-0.766 -0.163,-1.458 -0.816,-2.075 -0.653,-0.619 -1.503,-1.13 -2.549,-1.535 -1.047,-0.404 -2.174,-0.908 -3.381,-1.511 -1.207,-0.603 -2.316,-1.231 -3.327,-1.888 -1.012,-0.654 -1.802,-1.582 -2.372,-2.781 -0.571,-1.199 -0.747,-2.564 -0.529,-4.096 0.361,-2.534 1.659,-4.416 3.895,-5.647 2.232,-1.234 5.014,-1.613 8.34,-1.139 z" id="path12" />
        <path fill="#473467" d="m 430.148,779.635 -14.797,-0.265 -0.1,5.56 13.357,0.238 -0.1,5.599 -13.357,-0.238 -0.101,5.64 15.237,0.271 -0.1,5.6 -22.357,-0.4 0.5,-27.995 21.917,0.392 z" id="path14" />
        <path fill="#473467" d="m 453.29,785.506 11.354,13.645 -8.483,0.791 -6.841,-8.322 -5.188,9.442 -8.244,0.769 8.629,-15.187 -10.588,-12.753 8.244,-0.768 6.133,7.624 4.62,-8.626 8.324,-0.775 z" id="path16" />
        <path fill="#473467" d="m 465.979,770.515 11.97,-2.36 c 3.506,-0.692 6.39,-0.398 8.654,0.881 2.264,1.279 3.697,3.449 4.301,6.511 0.635,3.218 0.16,5.907 -1.425,8.068 -1.585,2.161 -4.131,3.587 -7.636,4.278 l -4.984,0.984 1.525,7.73 -6.986,1.378 z m 8.069,4.116 1.727,8.752 4.631,-0.914 c 1.543,-0.305 2.658,-0.918 3.346,-1.843 0.688,-0.923 0.891,-2.104 0.605,-3.544 -0.277,-1.413 -0.908,-2.402 -1.891,-2.971 -0.981,-0.566 -2.244,-0.698 -3.787,-0.395 z" id="path18" />
        <path fill="#473467" d="m 516.146,763.807 -14.176,4.254 1.599,5.326 12.796,-3.84 1.609,5.363 -12.795,3.84 1.621,5.402 14.596,-4.381 1.61,5.363 -21.417,6.428 -8.048,-26.818 20.995,-6.301 z" id="path20" />
        <path fill="#473467" d="m 546.443,775.952 -6.84,-5.712 -0.186,0.076 -4.996,2.05 2.991,7.29 -6.587,2.703 -10.628,-25.904 11.583,-4.753 c 3.43,-1.407 6.402,-1.711 8.921,-0.914 2.517,0.798 4.368,2.64 5.553,5.526 1.64,3.996 1.212,7.414 -1.284,10.254 l 8.947,6.316 z m -14.147,-8.766 4.996,-2.05 c 1.43,-0.587 2.394,-1.399 2.891,-2.439 0.495,-1.039 0.465,-2.237 -0.092,-3.595 -0.547,-1.332 -1.356,-2.182 -2.43,-2.549 -1.072,-0.366 -2.324,-0.256 -3.756,0.33 l -4.995,2.051 z" id="path22" />
        <path fill="#473467" d="m 569.367,739.891 -7.483,3.9 10.298,19.758 -6.313,3.291 -10.299,-19.757 -7.414,3.864 -2.662,-5.107 21.211,-11.057 z" id="path24" />
        <path fill="#473467" d="m 578.88,742.682 c 0.824,-0.492 1.656,-0.634 2.498,-0.423 0.841,0.212 1.508,0.728 2.002,1.552 0.492,0.823 0.634,1.656 0.423,2.497 -0.211,0.842 -0.728,1.509 -1.552,2.002 -0.801,0.479 -1.621,0.614 -2.463,0.403 -0.842,-0.211 -1.509,-0.729 -2.002,-1.552 -0.493,-0.823 -0.635,-1.655 -0.424,-2.497 0.211,-0.842 0.718,-1.502 1.518,-1.982 z" id="path26" />
        <path fill="#473467" d="m 601.078,719.04 -12.201,8.376 3.146,4.584 11.015,-7.561 3.169,4.616 -11.014,7.562 3.191,4.65 12.564,-8.626 3.17,4.616 -18.435,12.656 -15.847,-23.085 18.07,-12.405 z" id="path28" />
      </g>
    </g>
  </g>
  <g style="display:inline" id="layer12">
    <g transform="translate(-0.85380565,-0.10049291)" id="filet_separation_theme" style="display:inline">
      <line fill="none" stroke="#1e1e1c" stroke-width="2" stroke-miterlimit="10" x1="425.60199" y1="603.76202" x2="425.60199" y2="641.54498" id="line33" />
    </g>
  </g>
  <g style="display:inline" id="layer11">
    <g style="display:inline" id="picto_theme" transform="translate(-0.85380565,-0.10049)">
      <g id="g40">
        <path id="path36" d="m 482.689,605.73 c 2.643,2.538 5.906,4.559 9.697,6.002 3.789,1.446 8.236,2.179 13.221,2.179 4.916,0 9.348,-0.732 13.17,-2.179 3.822,-1.443 7.104,-3.463 9.746,-6.002 2.646,-2.541 4.717,-5.552 6.154,-8.945 0.629,-1.488 1.15,-3.065 1.555,-4.697 h -19.365 c -0.51,0.879 -1.025,1.608 -1.57,2.223 -2.111,2.38 -5.371,3.588 -9.689,3.588 -5.246,0 -6.666,-0.176 -9.738,-3.586 -0.557,-0.613 -1.064,-1.323 -1.592,-2.225 h -19.299 c 0.4,1.626 0.926,3.204 1.559,4.696 1.436,3.399 3.506,6.408 6.151,8.946 z" stroke-miterlimit="10" stroke-width="2" stroke="#1e1e1c" fill="none" />
        <path id="path38" d="m 537.154,648.367 c -0.203,-3.843 -1.037,-7.519 -2.477,-10.921 -1.438,-3.389 -3.508,-6.378 -6.152,-8.883 -2.643,-2.502 -5.924,-4.521 -9.752,-6.002 -3.826,-1.478 -8.256,-2.228 -13.166,-2.228 -4.979,0 -9.426,0.75 -13.219,2.227 -3.795,1.482 -7.059,3.502 -9.701,6.003 -2.645,2.502 -4.713,5.491 -6.15,8.883 -1.441,3.398 -2.275,7.072 -2.479,10.923 -0.141,3.044 -0.203,12.774 -0.203,15.961 0,0.237 0.004,0.462 0.008,0.69 l 0.002,0.071 h 18.076 l -0.002,-0.137 c -0.004,-0.274 -0.01,-0.55 -0.01,-0.834 0,-1.51 0.018,-9.703 0.055,-11.221 0.037,-1.573 0.121,-2.906 0.256,-4.074 0.137,-1.756 0.508,-3.416 1.1,-4.918 0.596,-1.506 1.449,-2.836 2.541,-3.951 1.09,-1.117 2.459,-2.011 4.063,-2.654 1.605,-0.642 3.51,-0.968 5.664,-0.968 2.152,0 4.057,0.326 5.662,0.968 1.602,0.643 2.971,1.536 4.066,2.653 1.088,1.119 1.941,2.447 2.537,3.951 0.59,1.501 0.961,3.16 1.1,4.935 0.07,1.199 0.139,2.545 0.209,4.049 0.064,1.524 0.098,9.72 0.098,11.23 0,0.249 -0.006,0.491 -0.014,0.733 -0.002,0.078 -0.004,0.156 -0.006,0.237 h 18.092 l 0.002,-0.092 c 0.004,-0.22 0.006,-0.439 0.006,-0.67 -10e-4,-3.422 -0.069,-12.981 -0.206,-15.961 z" stroke-miterlimit="10" stroke-width="2" stroke="#1e1e1c" fill="none" />
      </g>
    </g>
  </g>
  <g style="display:inline" id="layer10">
    <g style="display:inline" id="texte_picto_theme" transform="translate(-0.85380565,-0.10049)">
      <g id="g63">
        <path id="path43" d="m 451.761,567.633 h -3.799 v 10.025 h -3.203 v -10.025 h -3.763 v -2.592 h 10.765 z" fill="#1e1e1c" />
        <path id="path45" d="m 462.993,567.578 h -6.66 v 2.502 h 6.013 v 2.521 h -6.013 v 2.538 h 6.858 v 2.52 h -10.063 v -12.6 h 9.864 v 2.519 z" fill="#1e1e1c" />
        <path id="path47" d="m 472.568,571.07 4.519,6.588 h -3.834 l -2.718,-4.014 -2.719,4.014 h -3.726 l 4.5,-6.443 -4.212,-6.156 h 3.727 l 2.43,3.672 2.43,-3.672 h 3.762 z" fill="#1e1e1c" />
        <path id="path49" d="m 488.103,567.633 h -3.799 v 10.025 h -3.203 v -10.025 h -3.763 v -2.592 h 10.765 z" fill="#1e1e1c" />
        <path id="path51" d="m 499.333,567.578 h -6.66 v 2.502 h 6.013 v 2.521 h -6.013 v 2.538 h 6.858 v 2.52 H 489.47 v -12.6 h 9.863 z" fill="#1e1e1c" />
        <path id="path53" d="m 515.408,567.633 h -3.798 v 10.025 h -3.204 v -10.025 h -3.762 v -2.592 h 10.764 z" fill="#1e1e1c" />
        <path id="path55" d="M 528.404,577.658 H 525.2 v -4.896 h -5.22 v 4.896 h -3.205 v -12.6 h 3.205 v 5.184 h 5.22 v -5.184 h 3.204 z" fill="#1e1e1c" />
        <path id="path57" d="m 540.788,567.578 h -6.66 v 2.502 h 6.013 v 2.521 h -6.013 v 2.538 h 6.858 v 2.52 h -10.063 v -12.6 h 9.864 v 2.519 z m -3.312,-3.617 h -2.377 l -2.34,-2.034 2.809,-0.99 z" fill="#1e1e1c" />
        <path id="path59" d="m 556.898,577.658 h -2.826 l -0.018,-8.189 -3.024,6.93 h -2.088 l -3.024,-6.93 v 8.189 h -2.861 v -12.617 h 3.51 l 3.42,7.506 3.42,-7.506 h 3.492 v 12.617 z" fill="#1e1e1c" />
        <path id="path61" d="m 569.299,567.578 h -6.66 v 2.502 h 6.013 v 2.521 h -6.013 v 2.538 h 6.858 v 2.52 h -10.063 v -12.6 h 9.864 v 2.519 z" fill="#1e1e1c" />
      </g>
    </g>
  </g>
  <g style="display:inline" id="layer9">
    <g transform="translate(-0.85380565,-0.10049619)" id="picto_categorie" style="display:inline">
      <g id="g144">
        <ellipse fill="none" stroke="#1e1e1c" stroke-width="2" stroke-miterlimit="10" cx="329.19601" cy="605.76599" rx="3.3069999" ry="2.5439999" id="ellipse66" />
        <ellipse fill="none" stroke="#1e1e1c" stroke-width="2" stroke-miterlimit="10" cx="329.19601" cy="596.22699" rx="3.3069999" ry="2.5439999" id="ellipse68" />
        <ellipse fill="none" stroke="#1e1e1c" stroke-width="2" stroke-miterlimit="10" cx="339.49799" cy="611.87" rx="3.306" ry="2.5439999" id="ellipse70" />
        <ellipse fill="none" stroke="#1e1e1c" stroke-width="2" stroke-miterlimit="10" cx="323.34601" cy="620.26501" rx="3.3069999" ry="2.5439999" id="ellipse72" />
        <ellipse fill="none" stroke="#1e1e1c" stroke-width="2" stroke-miterlimit="10" cx="311.39099" cy="605.63898" rx="3.3069999" ry="2.5439999" id="ellipse74" />
        <ellipse fill="none" stroke="#1e1e1c" stroke-width="2" stroke-miterlimit="10" cx="307.194" cy="621.53601" rx="3.3069999" ry="2.5439999" id="ellipse76" />
        <ellipse fill="none" stroke="#1e1e1c" stroke-width="2" stroke-miterlimit="10" cx="339.371" cy="626.62299" rx="3.3069999" ry="2.5439999" id="ellipse78" />
        <ellipse fill="none" stroke="#1e1e1c" stroke-width="2" stroke-miterlimit="10" cx="324.745" cy="636.16199" rx="3.3069999" ry="2.5439999" id="ellipse80" />
        <ellipse fill="none" stroke="#1e1e1c" stroke-width="2" stroke-miterlimit="10" cx="311.772" cy="633.745" rx="3.3069999" ry="2.5439999" id="ellipse82" />
        <ellipse fill="none" stroke="#1e1e1c" stroke-width="2" stroke-miterlimit="10" cx="312.991" cy="648.16199" rx="3.3069999" ry="2.5439999" id="ellipse84" />
        <ellipse fill="none" stroke="#1e1e1c" stroke-width="2" stroke-miterlimit="10" cx="332.06799" cy="644.74103" rx="3.3069999" ry="2.5439999" id="ellipse86" />
        <ellipse fill="none" stroke="#1e1e1c" stroke-width="2" stroke-miterlimit="10" cx="337.85699" cy="660.39697" rx="3.3069999" ry="2.5439999" id="ellipse88" />
        <ellipse fill="none" stroke="#1e1e1c" stroke-width="2" stroke-miterlimit="10" cx="323.297" cy="655.70502" rx="3.3069999" ry="2.5439999" id="ellipse90" />
        <line fill="none" stroke="#1e1e1c" stroke-width="2" stroke-miterlimit="10" x1="314.13101" y1="650.224" x2="320.48999" y2="655.92499" id="line92" />
        <line fill="none" stroke="#1e1e1c" stroke-width="2" stroke-miterlimit="10" x1="326.104" y1="657.06403" x2="334.918" y2="660.31" id="line94" />
        <line fill="none" stroke="#1e1e1c" stroke-width="2" stroke-miterlimit="10" x1="332.33099" y1="647.10901" x2="338.03201" y2="658.20502" id="line96" />
        <line fill="none" stroke="#1e1e1c" stroke-width="2" stroke-miterlimit="10" x1="331.23401" y1="647.37299" x2="326.104" y2="654.302" id="line98" />
        <line fill="none" stroke="#1e1e1c" stroke-width="2" stroke-miterlimit="10" x1="315.797" y1="647.065" x2="328.77802" y2="644.91699" id="line100" />
        <line fill="none" stroke="#1e1e1c" stroke-width="2" stroke-miterlimit="10" x1="327.41901" y1="636.93597" x2="331.45401" y2="642.02197" id="line102" />
        <line fill="none" stroke="#1e1e1c" stroke-width="2" stroke-miterlimit="10" x1="335.401" y1="644.479" x2="342.198" y2="644.69702" id="line104" />
        <line fill="none" stroke="#1e1e1c" stroke-width="2" stroke-miterlimit="10" x1="327.81299" y1="635.48798" x2="338.69" y2="629.17297" id="line106" />
        <line fill="none" stroke="#1e1e1c" stroke-width="2" stroke-miterlimit="10" x1="323.56" y1="622.54797" x2="325.00699" y2="633.73102" id="line108" />
        <line fill="none" stroke="#1e1e1c" stroke-width="2" stroke-miterlimit="10" x1="326.67401" y1="620.31201" x2="337.50601" y2="625.04797" id="line110" />
        <line fill="none" stroke="#1e1e1c" stroke-width="2" stroke-miterlimit="10" x1="310.35901" y1="621.276" x2="320.13901" y2="620.224" id="line112" />
        <line fill="none" stroke="#1e1e1c" stroke-width="2" stroke-miterlimit="10" x1="306.76401" y1="623.82001" x2="311.45599" y2="631.05701" id="line114" />
        <line fill="none" stroke="#1e1e1c" stroke-width="2" stroke-miterlimit="10" x1="314.569" y1="633.77502" x2="321.54199" y2="635.88" id="line116" />
        <line fill="none" stroke="#1e1e1c" stroke-width="2" stroke-miterlimit="10" x1="311.5" y1="636.14398" x2="312.85901" y2="645.09003" id="line118" />
        <line fill="none" stroke="#1e1e1c" stroke-width="2" stroke-miterlimit="10" x1="311.63101" y1="608.51398" x2="307.509" y2="618.90698" id="line120" />
        <line fill="none" stroke="#1e1e1c" stroke-width="2" stroke-miterlimit="10" x1="313.561" y1="607.28601" x2="323.077" y2="617.81201" id="line122" />
        <line fill="none" stroke="#1e1e1c" stroke-width="2" stroke-miterlimit="10" x1="328.99799" y1="608.29401" x2="323.91101" y2="617.32898" id="line124" />
        <line fill="none" stroke="#1e1e1c" stroke-width="2" stroke-miterlimit="10" x1="332.112" y1="605.96997" x2="337.28699" y2="610.224" id="line126" />
        <path fill="none" stroke="#1e1e1c" stroke-width="2" stroke-miterlimit="10" d="m 332.506,595.971 10.438,1.447 v 61.408 c 0,5.87 16.883,8.514 16.883,-3" id="path128" />
        <line fill="none" stroke="#1e1e1c" stroke-width="2" stroke-miterlimit="10" x1="328.99799" y1="598.29498" x2="328.99799" y2="603.16302" id="line130" />
        <line fill="none" stroke="#1e1e1c" stroke-width="2" stroke-miterlimit="10" x1="314.52499" y1="604.30402" x2="326.367" y2="596.01501" id="line132" />
        <path fill="none" stroke="#1e1e1c" stroke-width="2" stroke-miterlimit="10" d="m 348.265,646.423 c 0,11.892 25.382,14.125 21.782,-3.922" id="path134" />
        <path fill="none" stroke="#1e1e1c" stroke-width="2" stroke-miterlimit="10" d="m 351.228,630.698 c 0,9.752 16.313,8.658 16.313,0" id="path136" />
        <path fill="none" stroke="#1e1e1c" stroke-width="2" stroke-linejoin="round" stroke-miterlimit="10" d="m 358.291,637.716 c 0,6.062 7.662,5.802 8.613,5.696 2.05,-0.228 8.794,-2.733 5.559,-9.706 l -0.41,-0.592 c 6.152,-1.96 10.025,-11.714 -3.144,-13.946" id="path138" />
        <path fill="none" stroke="#1e1e1c" stroke-width="2" stroke-miterlimit="10" d="m 352.685,617.388 c 0,-2.734 1.458,-10.07 12.395,-10.07 10.937,0 12.714,9.113 12.714,10.617 0,1.504 -0.912,3.555 -2.005,4.238" id="path140" />
        <path fill="none" stroke="#1e1e1c" stroke-width="2" stroke-linejoin="round" stroke-miterlimit="10" d="m 342.944,597.418 c 2.268,-2.634 9.787,-7.054 16.303,0.738 6.653,-1.641 15.631,2.188 11.393,10.253" id="path142" />
      </g>
    </g>
  </g>
  <g style="display:inline" id="layer8">
    <g style="display:inline" id="texte_picto_categorie" transform="translate(-0.85380565,-0.10049)">
      <g id="g159">
        <path id="path147" d="m 313.954,564.914 c 1.884,0 3.54,0.469 4.968,1.404 l -1.206,2.502 c -0.66,-0.383 -1.368,-0.699 -2.124,-0.945 -0.756,-0.245 -1.393,-0.368 -1.908,-0.368 -0.924,0 -1.386,0.306 -1.386,0.918 0,0.396 0.228,0.714 0.684,0.954 0.456,0.24 1.011,0.447 1.665,0.621 0.654,0.174 1.308,0.384 1.962,0.63 0.654,0.246 1.209,0.646 1.665,1.196 0.456,0.553 0.684,1.248 0.684,2.088 0,1.213 -0.474,2.158 -1.422,2.836 -0.948,0.678 -2.154,1.017 -3.618,1.017 -1.044,0 -2.076,-0.18 -3.096,-0.54 -1.021,-0.359 -1.908,-0.852 -2.664,-1.477 l 1.242,-2.465 c 0.636,0.552 1.386,1.005 2.25,1.358 0.864,0.354 1.632,0.531 2.304,0.531 0.516,0 0.918,-0.093 1.206,-0.279 0.288,-0.186 0.432,-0.459 0.432,-0.819 0,-0.348 -0.166,-0.639 -0.495,-0.873 -0.33,-0.233 -0.741,-0.407 -1.233,-0.521 -0.492,-0.113 -1.026,-0.268 -1.602,-0.459 -0.576,-0.191 -1.11,-0.402 -1.602,-0.63 -0.492,-0.228 -0.903,-0.591 -1.233,-1.089 -0.331,-0.498 -0.495,-1.096 -0.495,-1.791 0,-1.152 0.459,-2.073 1.377,-2.764 0.918,-0.689 2.132,-1.035 3.645,-1.035 z" fill="#1e1e1c" />
        <path id="path149" d="m 329.02,575.337 h -5.508 l -0.918,2.321 H 319.3 l 5.436,-12.6 h 3.294 l 5.31,12.6 h -3.42 z m -0.937,-2.431 -1.8,-4.662 -1.836,4.662 z" fill="#1e1e1c" />
        <path id="path151" d="m 340.468,577.658 h -3.312 l -4.896,-12.6 h 3.42 l 3.222,9.27 3.222,-9.27 h 3.294 z" fill="#1e1e1c" />
        <path id="path153" d="m 352.6,564.951 c 1.956,0 3.582,0.609 4.878,1.826 1.296,1.219 1.944,2.739 1.944,4.563 0,1.836 -0.651,3.372 -1.953,4.608 -1.302,1.235 -2.925,1.854 -4.869,1.854 -1.944,0 -3.564,-0.615 -4.86,-1.846 -1.296,-1.229 -1.944,-2.768 -1.944,-4.616 0,-1.836 0.648,-3.36 1.944,-4.572 1.296,-1.212 2.916,-1.817 4.86,-1.817 z m 0.036,2.682 c -0.984,0 -1.824,0.357 -2.52,1.07 -0.696,0.715 -1.044,1.6 -1.044,2.656 0,1.055 0.351,1.946 1.053,2.672 0.702,0.727 1.539,1.09 2.511,1.09 0.972,0 1.797,-0.363 2.475,-1.09 0.678,-0.726 1.017,-1.617 1.017,-2.672 0,-1.057 -0.339,-1.941 -1.017,-2.656 -0.678,-0.713 -1.503,-1.07 -2.475,-1.07 z" fill="#1e1e1c" />
        <path id="path155" d="m 364.317,577.658 h -3.204 v -12.6 h 3.204 z" fill="#1e1e1c" />
        <path id="path157" d="m 374.433,577.658 -1.872,-3.545 h -0.09 -2.43 v 3.545 h -3.204 v -12.6 h 5.634 c 1.668,0 2.958,0.381 3.87,1.143 0.912,0.763 1.368,1.846 1.368,3.25 0,1.943 -0.762,3.293 -2.286,4.049 l 2.646,4.158 z m -4.392,-6.065 h 2.43 c 0.696,0 1.236,-0.174 1.62,-0.522 0.384,-0.348 0.576,-0.852 0.576,-1.512 0,-0.648 -0.192,-1.14 -0.576,-1.477 -0.384,-0.335 -0.924,-0.504 -1.62,-0.504 h -2.43 z" fill="#1e1e1c" />
      </g>
    </g>
  </g>
  <g style="display:inline" id="layer7">
    <g style="display:inline" id="fond_categorie" transform="translate(-0.85380565,-0.10049)">
      <path id="path162" d="m 664.855,542.917 c 14.488,-32.813 22.555,-69.07 22.555,-107.183 0,-146.815 -119.455,-266.258 -266.284,-266.258 -146.839,0 -266.3,119.442 -266.3,266.258 0,38.112 8.066,74.37 22.557,107.183 z" fill="#019db8" />
    </g>
  </g>
  <g style="display:inline" id="layer6">
    <g style="display:inline" id="picto_posture" transform="translate(-0.85380565,-0.10049)">
      <g id="g219">
        <g id="g171">
          <g id="g169">
            <g id="g167">
              <path id="path165" d="m 457.042,80.312 c 0,0 0,2.137 -2.137,2.137 2.137,0 2.137,2.137 2.137,2.137 0,0 0,-2.137 2.137,-2.137 -2.137,-0.001 -2.137,-2.137 -2.137,-2.137 z" fill="#473467" />
            </g>
          </g>
        </g>
        <g id="g217">
          <g id="g175">
            <path id="path173" d="m 422.095,119.958 -0.516,-0.874 c -0.005,-0.001 -0.009,-0.001 -0.014,-0.002 l -0.728,0.704 -1.834,-1.068 0.255,-0.982 c -0.003,-0.004 -0.005,-0.007 -0.008,-0.011 l -1.013,-0.017 -0.54,-2.053 0.875,-0.514 10e-4,-0.006 -0.706,-0.73 1.068,-1.831 0.983,0.254 c 0.002,-0.002 0.005,-0.004 0.008,-0.005 l 0.017,-1.02 2.052,-0.539 0.517,0.876 c 0.003,0 0.007,0.001 0.01,0.001 l 0.732,-0.707 1.833,1.068 -0.256,0.987 c 0,0 10e-4,0.003 0.002,0.004 l 1.02,0.017 0.543,2.052 -0.88,0.518 -0.001,0.007 0.707,0.732 -1.068,1.834 -0.985,-0.257 c -0.002,0.002 -0.004,0.004 -0.007,0.007 l -0.017,1.016 z m -0.828,-3.022 0.309,0.104 c 0.176,0.06 0.359,0.087 0.543,0.075 l 0.314,-0.017 0.289,-0.146 c 0.166,-0.083 0.313,-0.194 0.438,-0.331 l 0.212,-0.234 0.101,-0.305 c 0.059,-0.177 0.083,-0.359 0.074,-0.542 l -0.016,-0.318 -0.145,-0.286 c -0.083,-0.165 -0.194,-0.312 -0.33,-0.436 l -0.234,-0.212 -0.308,-0.103 c -0.176,-0.059 -0.352,-0.078 -0.541,-0.074 l -0.319,0.016 -0.284,0.144 c -0.166,0.084 -0.314,0.196 -0.439,0.333 l -0.21,0.232 -0.103,0.307 c -0.058,0.176 -0.082,0.356 -0.073,0.539 l 0.015,0.318 0.144,0.287 c 0.082,0.165 0.194,0.313 0.332,0.438 z" fill="#473467" />
          </g>
          <g id="g179">
            <path id="path177" d="m 436.426,65.706 0.145,1.662 h 0.909 l 0.128,-1.654 c 0.207,-0.009 0.413,-0.023 0.618,-0.042 l 0.388,1.609 0.899,-0.138 -0.119,-1.638 c 0.313,-0.06 0.622,-0.131 0.93,-0.215 l 0.656,1.495 0.861,-0.294 -0.4,-1.564 c 0.207,-0.079 0.411,-0.163 0.614,-0.252 l 0.861,1.357 0.808,-0.421 -0.622,-1.461 c 0.229,-0.13 0.455,-0.267 0.677,-0.41 l 1.047,1.176 0.729,-0.545 -0.83,-1.313 c 0.199,-0.159 0.395,-0.325 0.584,-0.498 l 1.197,0.976 0.633,-0.654 -1.008,-1.141 c 0.148,-0.163 0.293,-0.33 0.434,-0.502 l 1.301,0.77 0.529,-0.74 -1.145,-0.959 c 0.115,-0.171 0.225,-0.345 0.332,-0.523 l 1.4,0.501 0.395,-0.773 -1.232,-0.782 c 0.096,-0.201 0.186,-0.404 0.27,-0.609 l 1.432,0.278 0.271,-0.825 -1.307,-0.574 c 0.076,-0.258 0.145,-0.517 0.203,-0.776 l 1.418,0.042 0.137,-0.857 -1.348,-0.348 c 0.033,-0.259 0.057,-0.518 0.074,-0.777 l 1.373,-0.179 V 53.24 l -1.357,-0.127 c -0.008,-0.225 -0.021,-0.449 -0.041,-0.673 l 1.305,-0.374 -0.131,-0.859 -1.334,0.076 c -0.063,-0.338 -0.139,-0.673 -0.23,-1.004 l 1.186,-0.582 -0.281,-0.823 -1.266,0.303 c -0.084,-0.224 -0.176,-0.444 -0.273,-0.663 l 1.07,-0.746 -0.402,-0.771 -1.191,0.484 c -0.141,-0.248 -0.289,-0.491 -0.447,-0.729 l 0.92,-0.893 -0.521,-0.695 -1.08,0.66 C 446.421,45.61 446.24,45.402 446.052,45.2 l 0.758,-1.015 -0.625,-0.605 -0.955,0.817 c -0.176,-0.157 -0.357,-0.311 -0.545,-0.458 l 0.594,-1.109 -0.707,-0.505 -0.82,0.947 c -0.192,-0.124 -0.389,-0.245 -0.591,-0.36 l 0.421,-1.178 -0.773,-0.395 -0.669,1.053 c -0.224,-0.102 -0.448,-0.196 -0.676,-0.283 l 0.239,-1.232 -0.824,-0.273 -0.504,1.147 c -0.279,-0.078 -0.561,-0.146 -0.842,-0.202 l 0.038,-1.262 -0.858,-0.137 -0.315,1.224 c -0.274,-0.028 -0.549,-0.049 -0.823,-0.059 l -0.164,-1.264 -0.869,10e-4 -0.118,1.273 c -0.234,0.014 -0.467,0.035 -0.699,0.062 l -0.355,-1.242 -0.86,0.13 0.074,1.299 c -0.341,0.072 -0.679,0.158 -1.012,0.26 l -0.581,-1.183 -0.822,0.28 0.309,1.291 c -0.216,0.089 -0.43,0.185 -0.641,0.285 l -0.767,-1.101 -0.771,0.401 0.51,1.253 c -0.235,0.142 -0.467,0.29 -0.692,0.448 l -0.955,-0.983 -0.695,0.521 0.721,1.181 c -0.196,0.168 -0.388,0.343 -0.575,0.524 l -1.124,-0.839 -0.604,0.624 0.922,1.078 c -0.14,0.164 -0.274,0.333 -0.406,0.506 l -1.267,-0.678 -0.504,0.708 1.099,0.951 c -0.111,0.181 -0.219,0.364 -0.321,0.552 l -1.358,-0.553 -0.414,0.811 1.268,0.777 c -0.093,0.213 -0.178,0.427 -0.257,0.642 l -1.452,-0.348 -0.286,0.864 1.393,0.586 c -0.068,0.263 -0.129,0.526 -0.179,0.791 l -1.523,-0.111 -0.143,0.898 1.502,0.361 c -0.023,0.256 -0.039,0.511 -0.047,0.766 l -1.555,0.135 10e-4,0.91 1.575,0.121 c 0.014,0.214 0.033,0.428 0.059,0.64 l -1.547,0.372 0.137,0.899 1.604,-0.116 c 0.068,0.315 0.148,0.628 0.241,0.938 l -1.491,0.654 0.294,0.861 1.591,-0.406 c 0.081,0.199 0.169,0.397 0.261,0.593 l -1.387,0.882 0.42,0.807 1.521,-0.647 c 0.131,0.219 0.269,0.434 0.413,0.645 l -1.241,1.105 0.545,0.729 1.41,-0.892 c 0.156,0.185 0.317,0.366 0.485,0.543 l -1.059,1.299 0.653,0.633 1.26,-1.112 c 0.153,0.134 0.311,0.263 0.472,0.39 l -0.857,1.449 0.74,0.528 1.084,-1.293 c 0.163,0.104 0.328,0.204 0.497,0.301 l -0.639,1.571 0.81,0.413 0.886,-1.444 c 0.194,0.088 0.391,0.17 0.588,0.248 l -0.394,1.643 0.863,0.287 0.653,-1.553 c 0.244,0.069 0.489,0.131 0.735,0.185 l -0.122,1.675 0.898,0.144 0.392,-1.625 c 0.234,0.024 0.476,0.043 0.718,0.057 z m -0.437,-2.607 1.091,-6.289 c 1.077,-0.027 2.109,-0.617 2.654,-1.635 l -0.281,0.526 5.57,2.983 c -1.95,3.157 -5.511,4.794 -9.034,4.415 z m 9.561,-5.387 -5.576,-2.985 -0.24,0.448 c 0.543,-1.014 0.464,-2.193 -0.104,-3.104 l 4.67,-4.349 c 2.246,2.741 2.83,6.622 1.25,9.99 z m -9.663,-4.598 c 0.329,-0.615 1.096,-0.847 1.711,-0.518 0.615,0.33 0.848,1.096 0.518,1.712 -0.329,0.615 -1.096,0.847 -1.711,0.518 -0.616,-0.329 -0.848,-1.096 -0.518,-1.712 z m 5.571,-7.724 c 0.782,0.419 1.482,0.934 2.092,1.52 l -4.662,4.342 c -0.132,-0.1 -0.272,-0.191 -0.423,-0.271 -0.685,-0.367 -1.446,-0.449 -2.148,-0.29 l -2.612,-5.821 c 2.449,-0.916 5.265,-0.812 7.753,0.52 z m -12.779,3.866 c 0.942,-1.759 2.361,-3.097 4.012,-3.942 l 2.606,5.808 c -0.418,0.275 -0.775,0.655 -1.028,1.128 -0.221,0.41 -0.337,0.848 -0.362,1.284 l -6.311,0.99 c -0.153,-1.764 0.186,-3.591 1.083,-5.268 z m 3.866,12.777 c -2.568,-1.375 -4.241,-3.769 -4.789,-6.415 l 6.285,-0.986 c 0.233,0.75 0.75,1.412 1.497,1.813 0.146,0.078 0.296,0.144 0.448,0.196 l -1.089,6.275 c -0.801,-0.185 -1.592,-0.476 -2.352,-0.883 z" fill="#473467" />
          </g>
          <g id="g183">
            <path id="path181" d="m 425.654,74.966 c 0.467,0.08 0.946,0.093 1.432,0.027 l 0.826,0.955 c 0.233,-0.059 0.456,-0.131 0.684,-0.217 0.224,-0.09 0.442,-0.192 0.647,-0.304 l -0.037,-1.265 c 0.398,-0.283 0.744,-0.62 1.03,-0.991 l 1.264,0.086 c 0.243,-0.411 0.433,-0.849 0.573,-1.309 l -0.925,-0.866 c 0.075,-0.467 0.09,-0.948 0.028,-1.427 l 0.954,-0.83 c -0.061,-0.228 -0.131,-0.456 -0.217,-0.68 -0.09,-0.226 -0.192,-0.441 -0.304,-0.648 l -1.264,0.04 c -0.281,-0.396 -0.618,-0.741 -0.988,-1.029 l 0.087,-1.265 c -0.412,-0.239 -0.851,-0.433 -1.307,-0.57 l -0.872,0.921 c -0.463,-0.08 -0.943,-0.092 -1.429,-0.027 l -0.832,-0.953 c -0.224,0.057 -0.456,0.13 -0.68,0.216 -0.226,0.089 -0.44,0.192 -0.65,0.304 l 0.045,1.264 c -0.403,0.284 -0.745,0.617 -1.033,0.994 l -1.262,-0.087 c -0.244,0.408 -0.435,0.851 -0.575,1.305 l 0.924,0.869 c -0.079,0.468 -0.089,0.944 -0.025,1.429 l -0.956,0.828 c 0.06,0.229 0.131,0.455 0.22,0.681 0.088,0.226 0.191,0.44 0.302,0.646 l 1.264,-0.039 c 0.279,0.396 0.614,0.741 0.99,1.03 l -0.089,1.262 c 0.411,0.244 0.852,0.434 1.31,0.572 z m -2.841,-4.84 c 0.086,-2.015 1.788,-3.579 3.803,-3.494 2.016,0.086 3.579,1.789 3.494,3.803 -0.086,2.016 -1.788,3.579 -3.803,3.494 -2.015,-0.086 -3.579,-1.788 -3.494,-3.803 z" fill="#473467" />
          </g>
          <g id="g187">
            <path id="path185" d="m 419.53,125.433 1.256,0.229 0.74,-1.592 c 0.394,0.02 0.788,0.012 1.179,-0.024 l 0.802,1.563 1.246,-0.277 0.063,-1.755 c 0.335,-0.122 0.663,-0.265 0.981,-0.429 l 1.331,1.146 1.05,-0.727 -0.603,-1.648 c 0.29,-0.262 0.563,-0.545 0.818,-0.852 l 1.688,0.55 0.685,-1.077 -1.214,-1.296 c 0.154,-0.327 0.284,-0.66 0.393,-0.998 l 1.75,-0.131 0.229,-1.256 -1.593,-0.739 c 0.021,-0.395 0.012,-0.789 -0.023,-1.18 l 1.563,-0.802 -0.277,-1.246 -1.756,-0.063 c -0.121,-0.335 -0.264,-0.663 -0.428,-0.981 l 1.146,-1.331 -0.726,-1.05 -1.648,0.603 c -0.262,-0.289 -0.546,-0.563 -0.853,-0.818 l 0.551,-1.688 -1.077,-0.685 -1.296,1.213 c -0.327,-0.153 -0.661,-0.283 -0.999,-0.392 l -0.131,-1.75 -1.255,-0.229 -0.74,1.593 c -0.395,-0.021 -0.788,-0.012 -1.18,0.023 l -0.802,-1.563 -1.246,0.277 -0.063,1.756 c -0.335,0.121 -0.663,0.264 -0.982,0.428 l -1.33,-1.146 -1.05,0.726 0.603,1.648 c -0.29,0.262 -0.563,0.546 -0.818,0.852 l -1.689,-0.55 -0.685,1.077 1.214,1.296 c -0.153,0.327 -0.284,0.661 -0.393,0.999 l -1.75,0.131 -0.229,1.255 1.592,0.74 c -0.02,0.395 -0.012,0.788 0.024,1.18 l -1.563,0.802 0.276,1.246 1.756,0.063 c 0.122,0.336 0.265,0.664 0.429,0.982 l -1.146,1.33 0.726,1.05 1.648,-0.603 c 0.262,0.29 0.545,0.563 0.852,0.818 l -0.55,1.689 1.076,0.685 1.297,-1.214 c 0.327,0.153 0.66,0.284 0.998,0.393 z m -4.797,-10.048 c 0.17,-3.988 3.54,-7.084 7.528,-6.915 3.988,0.169 7.084,3.539 6.915,7.527 -0.169,3.988 -3.539,7.084 -7.527,6.914 -3.988,-0.168 -7.085,-3.539 -6.916,-7.526 z" fill="#473467" />
          </g>
          <g id="g191">
            <path id="path189" d="m 429.934,108.324 1.946,0.678 1.577,-2.356 c 0.624,0.13 1.256,0.215 1.889,0.256 l 0.89,2.694 2.057,-0.132 0.538,-2.786 c 0.565,-0.11 1.124,-0.257 1.674,-0.438 l 1.838,2.159 1.855,-0.897 -0.551,-2.78 c 0.527,-0.345 1.034,-0.729 1.519,-1.155 l 2.557,1.298 1.361,-1.548 -1.615,-2.37 c 0.326,-0.484 0.617,-0.983 0.875,-1.495 l 2.824,0.227 0.678,-1.946 -2.355,-1.577 c 0.129,-0.625 0.215,-1.256 0.256,-1.889 l 2.693,-0.89 -0.131,-2.057 -2.787,-0.538 c -0.109,-0.565 -0.256,-1.125 -0.438,-1.674 l 2.158,-1.838 -0.896,-1.855 -2.781,0.551 c -0.344,-0.527 -0.73,-1.035 -1.154,-1.518 l 1.297,-2.559 -1.547,-1.36 -2.37,1.614 c -0.484,-0.326 -0.984,-0.617 -1.496,-0.874 l 0.228,-2.825 -1.946,-0.678 -1.577,2.355 c -0.625,-0.129 -1.256,-0.215 -1.889,-0.255 l -0.89,-2.694 -2.057,0.132 -0.538,2.786 c -0.565,0.11 -1.124,0.256 -1.674,0.438 l -1.838,-2.159 -1.855,0.896 0.551,2.781 c -0.527,0.345 -1.035,0.729 -1.519,1.155 l -2.558,-1.298 -1.36,1.547 1.614,2.371 c -0.326,0.484 -0.617,0.983 -0.874,1.495 l -2.825,-0.227 -0.678,1.946 2.356,1.577 c -0.13,0.624 -0.215,1.255 -0.256,1.889 l -2.695,0.89 0.132,2.057 2.787,0.538 c 0.11,0.565 0.256,1.124 0.438,1.674 l -2.159,1.838 0.896,1.855 2.781,-0.551 c 0.345,0.527 0.729,1.035 1.155,1.519 l -1.298,2.557 1.547,1.361 2.371,-1.614 c 0.484,0.326 0.983,0.617 1.495,0.874 z m -3.197,-16.837 c 1.046,-5.241 6.145,-8.643 11.386,-7.596 5.242,1.047 8.643,6.145 7.596,11.387 -1.047,5.242 -6.145,8.643 -11.386,7.596 -5.243,-1.047 -8.643,-6.145 -7.596,-11.387 z" fill="#473467" />
          </g>
          <g id="g195">
            <path id="path193" d="m 415.178,105.839 0.854,1.345 1.161,-0.348 -0.027,-1.597 c 0.533,-0.292 1.015,-0.681 1.414,-1.151 l 1.559,0.348 0.576,-1.067 -1.151,-1.112 c 0.177,-0.604 0.234,-1.217 0.186,-1.812 l 1.351,-0.857 -0.349,-1.161 -1.602,0.026 c -0.291,-0.531 -0.679,-1.011 -1.147,-1.409 l 0.349,-1.563 -1.067,-0.575 -1.113,1.151 c -0.606,-0.178 -1.221,-0.235 -1.817,-0.187 l -0.855,-1.348 -1.161,0.349 0.027,1.599 c -0.534,0.292 -1.016,0.682 -1.415,1.153 l -1.555,-0.348 -0.574,1.067 1.146,1.109 c -0.177,0.603 -0.234,1.214 -0.186,1.808 l -1.344,0.854 0.348,1.161 1.59,-0.026 c 0.292,0.535 0.683,1.019 1.155,1.42 l -0.347,1.554 1.067,0.574 1.106,-1.144 c 0.607,0.179 1.223,0.237 1.821,0.187 z m -1.87,-5.047 c 0.034,-0.807 0.716,-1.433 1.521,-1.398 0.807,0.034 1.433,0.715 1.398,1.521 -0.035,0.806 -0.716,1.433 -1.521,1.398 -0.807,-0.034 -1.433,-0.715 -1.398,-1.521 z" fill="#473467" />
          </g>
          <g id="g199">
            <path id="path197" d="m 407.133,93.337 0.107,1.709 0.918,0.021 0.173,-1.702 c 0.215,-0.005 0.43,-0.017 0.643,-0.032 l 0.363,1.667 0.911,-0.118 -0.087,-1.698 c 0.252,-0.044 0.502,-0.096 0.75,-0.155 l 0.623,1.578 0.88,-0.264 -0.356,-1.65 c 0.232,-0.08 0.462,-0.169 0.688,-0.263 l 0.86,1.449 0.827,-0.399 -0.609,-1.561 c 0.185,-0.099 0.366,-0.202 0.544,-0.31 l 1.059,1.294 0.758,-0.519 -0.827,-1.438 c 0.259,-0.191 0.51,-0.393 0.752,-0.604 l 1.252,1.071 0.655,-0.645 -1.051,-1.247 c 0.154,-0.162 0.303,-0.329 0.448,-0.499 l 1.379,0.857 0.55,-0.736 -1.206,-1.057 c 0.152,-0.219 0.297,-0.441 0.436,-0.67 l 1.469,0.61 0.424,-0.815 -1.333,-0.83 c 0.111,-0.232 0.217,-0.469 0.313,-0.709 l 1.516,0.361 0.289,-0.871 -1.417,-0.597 c 0.063,-0.213 0.12,-0.429 0.173,-0.646 l 1.522,0.13 0.156,-0.905 -1.46,-0.371 c 0.028,-0.205 0.053,-0.411 0.071,-0.62 l 1.494,-0.158 0.02,-0.878 -1.463,-0.171 c -10e-4,-0.226 -0.009,-0.449 -0.023,-0.672 l 1.423,-0.375 -0.113,-0.87 -1.442,0.051 c -0.043,-0.268 -0.095,-0.532 -0.155,-0.795 l 1.31,-0.584 -0.252,-0.84 -1.38,0.275 c -0.083,-0.25 -0.174,-0.496 -0.272,-0.739 l 1.172,-0.765 -0.383,-0.79 -1.289,0.48 c -0.105,-0.202 -0.217,-0.399 -0.333,-0.595 l 1.023,-0.913 -0.496,-0.724 -1.18,0.654 c -0.206,-0.279 -0.422,-0.551 -0.65,-0.812 l 0.822,-1.05 -0.615,-0.625 -1.019,0.83 C 416.32,71.92 416.14,71.76 415.954,71.604 l 0.646,-1.147 -0.703,-0.524 -0.871,0.963 c -0.236,-0.164 -0.479,-0.319 -0.727,-0.467 l 0.445,-1.216 -0.779,-0.404 -0.693,1.075 c -0.251,-0.119 -0.507,-0.229 -0.767,-0.33 l 0.244,-1.256 -0.833,-0.275 -0.511,1.161 c -0.229,-0.065 -0.462,-0.125 -0.697,-0.177 l 0.054,-1.27 -0.864,-0.148 -0.331,1.221 c -0.229,-0.029 -0.461,-0.053 -0.695,-0.068 l -0.133,-1.256 -0.877,-0.02 -0.147,1.25 c -0.247,0.006 -0.494,0.019 -0.738,0.039 l -0.322,-1.226 -0.87,0.112 0.044,1.265 c -0.288,0.052 -0.572,0.114 -0.854,0.186 l -0.519,-1.164 -0.841,0.252 0.25,1.251 c -0.263,0.094 -0.521,0.196 -0.774,0.308 l -0.704,-1.077 -0.79,0.382 0.451,1.211 c -0.207,0.114 -0.409,0.235 -0.608,0.361 l -0.869,-0.974 -0.724,0.496 0.636,1.147 c -0.278,0.216 -0.548,0.442 -0.807,0.681 l -1.047,-0.82 -0.625,0.615 0.847,1.039 c -0.157,0.175 -0.31,0.355 -0.457,0.539 l -1.18,-0.664 -0.525,0.703 1.013,0.916 c -0.151,0.231 -0.296,0.469 -0.433,0.711 l -1.3,-0.477 -0.404,0.779 1.174,0.758 c -0.105,0.238 -0.203,0.481 -0.294,0.729 l -1.39,-0.27 -0.276,0.832 1.311,0.576 c -0.054,0.211 -0.104,0.424 -0.147,0.639 l -1.448,-0.061 -0.148,0.865 1.416,0.383 c -0.022,0.213 -0.039,0.428 -0.05,0.643 l -1.479,0.094 -0.021,0.918 1.493,0.151 c 0.009,0.233 0.025,0.466 0.049,0.696 l -1.474,0.32 0.118,0.911 1.524,-0.077 c 0.053,0.269 0.113,0.535 0.183,0.797 l -1.434,0.567 0.264,0.88 1.525,-0.33 c 0.09,0.242 0.188,0.481 0.293,0.717 l -1.354,0.805 0.399,0.826 1.485,-0.579 c 0.106,0.188 0.218,0.374 0.334,0.556 l -1.243,1.017 0.519,0.758 1.407,-0.809 c 0.2,0.257 0.41,0.507 0.631,0.747 l -1.069,1.249 0.645,0.654 1.269,-1.067 c 0.162,0.146 0.328,0.288 0.498,0.425 l -0.876,1.41 0.736,0.55 1.1,-1.256 c 0.215,0.142 0.435,0.277 0.658,0.405 l -0.644,1.549 0.815,0.424 0.891,-1.43 c 0.224,0.101 0.45,0.194 0.68,0.282 l -0.393,1.645 0.871,0.289 0.658,-1.563 c 0.198,0.054 0.397,0.103 0.6,0.147 l -0.144,1.694 0.904,0.155 0.42,-1.65 c 0.191,0.027 0.386,0.045 0.582,0.059 z m -8.968,-12.485 c 0.229,-5.438 4.824,-9.658 10.262,-9.428 5.437,0.23 9.658,4.825 9.428,10.263 -0.23,5.437 -4.825,9.657 -10.263,9.427 -5.437,-0.231 -9.658,-4.826 -9.427,-10.262 z" fill="#473467" />
          </g>
          <g id="g203">
            <path id="path201" d="m 406.445,87.551 0.81,0.147 0.478,-1.026 c 0.254,0.013 0.508,0.007 0.76,-0.016 l 0.518,1.008 0.803,-0.179 0.041,-1.132 c 0.216,-0.078 0.428,-0.171 0.633,-0.276 l 0.858,0.739 0.677,-0.468 -0.389,-1.063 c 0.188,-0.169 0.363,-0.352 0.528,-0.549 l 1.089,0.354 0.441,-0.694 -0.783,-0.836 c 0.1,-0.211 0.184,-0.426 0.253,-0.644 l 1.129,-0.084 0.147,-0.81 -1.026,-0.478 c 0.013,-0.254 0.007,-0.509 -0.016,-0.761 l 1.008,-0.517 -0.179,-0.803 -1.132,-0.041 c -0.078,-0.217 -0.17,-0.428 -0.276,-0.634 l 0.739,-0.858 -0.468,-0.676 -1.063,0.388 c -0.168,-0.187 -0.352,-0.363 -0.549,-0.527 l 0.354,-1.089 -0.694,-0.441 -0.836,0.782 c -0.211,-0.099 -0.426,-0.183 -0.644,-0.253 l -0.084,-1.129 -0.81,-0.146 -0.478,1.026 c -0.254,-0.013 -0.509,-0.008 -0.761,0.015 l -0.517,-1.008 -0.804,0.179 -0.04,1.132 c -0.217,0.078 -0.428,0.171 -0.634,0.276 l -0.857,-0.739 -0.677,0.469 0.388,1.063 c -0.187,0.169 -0.363,0.352 -0.527,0.55 l -1.089,-0.354 -0.441,0.693 0.782,0.836 c -0.099,0.211 -0.183,0.426 -0.253,0.645 l -1.128,0.084 -0.148,0.81 1.027,0.478 c -0.013,0.254 -0.008,0.508 0.015,0.76 l -1.008,0.518 0.179,0.803 1.132,0.041 c 0.078,0.216 0.171,0.428 0.276,0.633 l -0.739,0.858 0.469,0.677 1.063,-0.389 c 0.169,0.188 0.353,0.363 0.55,0.528 l -0.354,1.089 0.693,0.441 0.836,-0.783 c 0.211,0.1 0.427,0.184 0.645,0.253 z m -2.863,-6.47 c 0.104,-2.444 2.169,-4.342 4.614,-4.238 2.445,0.104 4.343,2.169 4.239,4.614 -0.104,2.444 -2.17,4.343 -4.614,4.239 -2.445,-0.103 -4.343,-2.17 -4.239,-4.615 z" fill="#473467" />
          </g>
          <g id="g207">
            <path id="path205" d="m 457.091,87.351 0.102,1.16 h 0.635 l 0.088,-1.154 c 0.145,-0.006 0.289,-0.016 0.432,-0.029 l 0.271,1.123 0.627,-0.096 -0.084,-1.143 c 0.219,-0.042 0.436,-0.092 0.648,-0.15 l 0.459,1.043 0.602,-0.205 -0.279,-1.092 c 0.145,-0.055 0.287,-0.113 0.428,-0.176 l 0.602,0.947 0.563,-0.293 -0.434,-1.021 c 0.16,-0.09 0.318,-0.186 0.473,-0.286 l 0.732,0.821 0.508,-0.38 -0.58,-0.917 c 0.139,-0.111 0.275,-0.228 0.408,-0.348 l 0.834,0.681 0.441,-0.457 -0.703,-0.796 c 0.104,-0.113 0.205,-0.23 0.303,-0.351 l 0.908,0.537 0.369,-0.517 -0.799,-0.669 c 0.08,-0.119 0.156,-0.24 0.232,-0.365 l 0.977,0.35 0.275,-0.539 -0.859,-0.546 c 0.066,-0.142 0.129,-0.282 0.188,-0.425 l 0.998,0.193 0.191,-0.576 -0.912,-0.4 c 0.053,-0.18 0.1,-0.36 0.141,-0.542 l 0.99,0.03 0.096,-0.6 -0.941,-0.242 c 0.023,-0.181 0.041,-0.361 0.051,-0.542 l 0.959,-0.125 v -0.606 l -0.947,-0.088 c -0.004,-0.156 -0.014,-0.313 -0.027,-0.47 l 0.91,-0.261 -0.092,-0.6 -0.93,0.053 c -0.045,-0.235 -0.098,-0.469 -0.162,-0.7 l 0.826,-0.406 -0.195,-0.574 -0.883,0.212 c -0.059,-0.156 -0.123,-0.311 -0.191,-0.464 l 0.746,-0.521 -0.279,-0.537 -0.832,0.338 c -0.098,-0.173 -0.201,-0.343 -0.313,-0.509 l 0.643,-0.623 -0.363,-0.485 -0.754,0.461 c -0.121,-0.149 -0.248,-0.295 -0.379,-0.436 l 0.529,-0.709 -0.438,-0.419 -0.668,0.569 c -0.123,-0.109 -0.25,-0.216 -0.379,-0.319 l 0.414,-0.774 -0.494,-0.352 -0.572,0.66 c -0.135,-0.086 -0.271,-0.17 -0.412,-0.251 l 0.293,-0.821 -0.539,-0.275 -0.467,0.734 c -0.156,-0.071 -0.313,-0.137 -0.473,-0.197 l 0.168,-0.86 -0.576,-0.19 -0.352,0.8 c -0.195,-0.054 -0.391,-0.101 -0.586,-0.141 l 0.025,-0.88 -0.6,-0.096 -0.219,0.854 c -0.191,-0.021 -0.383,-0.034 -0.574,-0.041 l -0.115,-0.882 -0.605,0.001 -0.084,0.889 c -0.162,0.01 -0.326,0.023 -0.486,0.043 l -0.25,-0.867 -0.6,0.091 0.053,0.906 c -0.238,0.051 -0.475,0.11 -0.707,0.181 l -0.404,-0.824 -0.574,0.195 0.215,0.9 c -0.15,0.063 -0.299,0.129 -0.447,0.199 l -0.535,-0.768 -0.537,0.279 0.355,0.875 c -0.164,0.099 -0.324,0.202 -0.482,0.313 l -0.666,-0.687 -0.486,0.363 0.504,0.824 c -0.137,0.117 -0.271,0.239 -0.402,0.365 l -0.783,-0.585 -0.422,0.436 0.643,0.752 c -0.098,0.115 -0.191,0.232 -0.283,0.354 l -0.885,-0.473 -0.352,0.494 0.768,0.663 c -0.078,0.126 -0.152,0.255 -0.225,0.386 l -0.949,-0.386 -0.287,0.565 0.883,0.542 c -0.063,0.148 -0.123,0.298 -0.178,0.448 l -1.014,-0.242 -0.199,0.602 0.973,0.409 c -0.049,0.184 -0.092,0.367 -0.127,0.552 l -1.063,-0.077 -0.1,0.627 1.049,0.253 c -0.018,0.178 -0.027,0.355 -0.033,0.534 l -1.084,0.094 v 0.635 l 1.1,0.085 c 0.01,0.148 0.023,0.298 0.041,0.445 l -1.08,0.26 0.096,0.628 1.119,-0.081 c 0.047,0.221 0.104,0.438 0.168,0.654 l -1.041,0.457 0.205,0.601 1.109,-0.284 c 0.059,0.14 0.119,0.278 0.184,0.414 l -0.969,0.615 0.293,0.563 1.063,-0.451 c 0.092,0.152 0.188,0.303 0.287,0.45 l -0.865,0.771 0.381,0.509 0.984,-0.622 c 0.107,0.129 0.221,0.256 0.338,0.379 l -0.738,0.906 0.455,0.441 0.879,-0.775 c 0.107,0.093 0.217,0.183 0.33,0.271 l -0.6,1.012 0.518,0.368 0.756,-0.902 c 0.113,0.072 0.23,0.142 0.348,0.21 l -0.447,1.096 0.566,0.289 0.617,-1.008 c 0.137,0.061 0.273,0.119 0.41,0.172 l -0.273,1.147 0.602,0.2 0.455,-1.084 c 0.172,0.049 0.342,0.092 0.514,0.129 l -0.084,1.169 0.627,0.101 0.271,-1.135 c 0.166,0.018 0.336,0.032 0.504,0.042 z m -0.304,-1.82 0.762,-4.388 c 0.75,-0.02 1.471,-0.431 1.852,-1.142 l -0.197,0.368 3.889,2.081 c -1.363,2.203 -3.847,3.346 -6.306,3.081 z m 6.671,-3.759 -3.891,-2.083 -0.168,0.313 c 0.379,-0.707 0.324,-1.53 -0.072,-2.166 l 3.258,-3.034 c 1.569,1.912 1.977,4.62 0.873,6.97 z m -6.744,-3.208 c 0.23,-0.429 0.766,-0.591 1.195,-0.361 0.43,0.23 0.592,0.765 0.361,1.194 -0.231,0.429 -0.766,0.592 -1.195,0.361 -0.429,-0.229 -0.589,-0.764 -0.361,-1.194 z m 3.889,-5.389 c 0.545,0.292 1.033,0.65 1.459,1.06 l -3.254,3.03 c -0.092,-0.07 -0.189,-0.134 -0.295,-0.19 -0.477,-0.256 -1.008,-0.313 -1.498,-0.202 l -1.824,-4.063 c 1.711,-0.637 3.676,-0.565 5.412,0.365 z m -8.918,2.697 c 0.658,-1.228 1.648,-2.161 2.801,-2.751 l 1.818,4.053 c -0.293,0.192 -0.541,0.457 -0.719,0.786 -0.152,0.287 -0.234,0.592 -0.252,0.896 l -4.404,0.691 c -0.105,-1.23 0.131,-2.505 0.756,-3.675 z m 2.699,8.916 c -1.793,-0.96 -2.961,-2.63 -3.342,-4.477 l 4.385,-0.688 c 0.164,0.523 0.523,0.985 1.045,1.265 0.102,0.055 0.207,0.101 0.313,0.137 l -0.76,4.379 c -0.559,-0.129 -1.111,-0.332 -1.641,-0.616 z" fill="#473467" />
          </g>
          <g id="g211">
            <path id="path209" d="m 440.069,118.724 c 0.343,-0.241 0.65,-0.533 0.913,-0.876 l 1.113,0.082 c 0.108,-0.183 0.203,-0.367 0.292,-0.562 0.084,-0.196 0.156,-0.397 0.216,-0.596 l -0.812,-0.768 c 0.072,-0.426 0.078,-0.852 0.025,-1.263 l 0.845,-0.734 c -0.104,-0.409 -0.259,-0.801 -0.458,-1.177 l -1.119,0.035 c -0.244,-0.339 -0.535,-0.649 -0.872,-0.91 l 0.079,-1.115 c -0.18,-0.104 -0.366,-0.203 -0.56,-0.289 -0.197,-0.085 -0.396,-0.156 -0.595,-0.217 l -0.766,0.814 c -0.424,-0.074 -0.85,-0.079 -1.261,-0.028 l -0.734,-0.846 c -0.407,0.107 -0.802,0.26 -1.173,0.458 l 0.028,1.121 c -0.339,0.238 -0.647,0.531 -0.911,0.874 l -1.115,-0.078 c -0.104,0.176 -0.204,0.366 -0.29,0.56 -0.086,0.196 -0.156,0.395 -0.218,0.596 l 0.816,0.763 c -0.075,0.43 -0.081,0.852 -0.026,1.267 l -0.844,0.733 c 0.103,0.407 0.259,0.803 0.455,1.175 l 1.12,-0.033 c 0.241,0.342 0.532,0.646 0.875,0.91 l -0.082,1.114 c 0.181,0.106 0.366,0.204 0.563,0.289 0.195,0.087 0.395,0.156 0.592,0.217 l 0.767,-0.813 c 0.421,0.072 0.847,0.08 1.262,0.026 l 0.731,0.844 c 0.41,-0.103 0.804,-0.259 1.177,-0.459 z m -4.796,-1.257 c -1.204,-1.313 -1.114,-3.354 0.199,-4.558 1.314,-1.204 3.355,-1.114 4.559,0.199 1.203,1.314 1.114,3.355 -0.2,4.559 -1.314,1.203 -3.355,1.114 -4.558,-0.2 z" fill="#473467" />
          </g>
          <g id="g215">
            <path id="path213" d="m 406,66.396 0.506,0.093 0.298,-0.641 c 0.158,0.008 0.317,0.004 0.475,-0.01 l 0.322,0.629 0.501,-0.111 0.025,-0.707 c 0.135,-0.049 0.268,-0.105 0.396,-0.172 l 0.535,0.461 0.422,-0.292 -0.242,-0.663 c 0.117,-0.105 0.227,-0.22 0.329,-0.343 l 0.68,0.222 0.275,-0.434 -0.488,-0.521 c 0.062,-0.132 0.114,-0.266 0.158,-0.402 l 0.704,-0.052 0.092,-0.505 -0.641,-0.299 c 0.008,-0.158 0.005,-0.316 -0.01,-0.475 l 0.629,-0.322 -0.111,-0.501 -0.706,-0.025 c -0.049,-0.135 -0.106,-0.267 -0.172,-0.396 l 0.461,-0.535 -0.292,-0.422 -0.664,0.242 c -0.104,-0.117 -0.219,-0.227 -0.342,-0.329 l 0.221,-0.68 -0.433,-0.275 -0.521,0.488 c -0.132,-0.062 -0.267,-0.114 -0.402,-0.157 l -0.053,-0.705 -0.505,-0.092 -0.298,0.641 c -0.158,-0.008 -0.317,-0.005 -0.475,0.01 l -0.322,-0.629 -0.501,0.111 -0.025,0.706 c -0.136,0.049 -0.268,0.106 -0.396,0.173 l -0.535,-0.461 -0.423,0.291 0.243,0.664 c -0.117,0.105 -0.228,0.219 -0.33,0.343 l -0.679,-0.222 -0.276,0.434 0.489,0.521 c -0.063,0.131 -0.114,0.266 -0.158,0.401 l -0.704,0.053 -0.092,0.505 0.641,0.298 c -0.009,0.159 -0.005,0.317 0.009,0.475 l -0.629,0.322 0.111,0.501 0.707,0.025 c 0.049,0.136 0.106,0.268 0.172,0.396 l -0.461,0.535 0.292,0.423 0.663,-0.242 c 0.105,0.116 0.22,0.227 0.343,0.329 l -0.221,0.68 0.433,0.275 0.521,-0.489 c 0.132,0.063 0.267,0.115 0.402,0.158 z m -1.433,-4.021 c 0.056,-1.33 1.181,-2.363 2.511,-2.307 1.33,0.056 2.363,1.181 2.307,2.511 -0.057,1.331 -1.181,2.363 -2.511,2.307 -1.331,-0.056 -2.363,-1.18 -2.307,-2.511 z" fill="#473467" />
          </g>
        </g>
      </g>
    </g>
  </g>
  <g style="display:inline" id="layer2">
    <g style="display:inline" id="filet_1_categorie" transform="translate(-0.85380665,-0.10049503)">
      <g id="g226">
        <path id="path222" d="m 638.988,232.625 c 6.295,2.749 12.613,5.603 18.965,8.592 30.006,13.753 57.346,41.573 71.348,72.603 l 0.104,0.182 c 7.816,10.627 13.174,22.504 15.926,35.299 l 0.059,0.271 0.188,0.201 c 6.498,6.951 12.354,14.358 17.406,22.018 l 0.064,0.086 c 14.818,17.992 22.613,41.049 21.949,64.975 0.658,23.872 -7.137,46.926 -21.951,64.914 l -0.063,0.086 c -5.051,7.662 -10.906,15.07 -17.406,22.02 l -0.188,0.201 -0.059,0.271 c -2.75,12.793 -8.107,24.67 -15.926,35.303 l -0.104,0.182 c -14.004,31.027 -41.342,58.846 -71.357,72.604 -5.332,2.51 -10.643,4.928 -15.936,7.268" stroke-miterlimit="10" stroke-width="2" stroke="#473467" fill="none" />
        <path id="path224" d="m 201.485,640.399 c -5.828,-2.56 -11.675,-5.209 -17.55,-7.974 -30.002,-13.749 -57.338,-41.567 -71.338,-72.597 l -0.106,-0.182 C 104.67,549.015 99.31,537.136 96.56,524.341 l -0.058,-0.271 -0.189,-0.201 C 89.788,516.89 83.925,509.465 78.885,501.801 L 78.82,501.715 C 64.033,483.76 56.245,460.725 56.891,436.795 56.245,412.924 64.032,389.888 78.818,371.93 l 0.064,-0.086 c 5.018,-7.639 10.884,-15.066 17.43,-22.075 l 0.189,-0.202 0.058,-0.271 c 2.75,-12.795 8.11,-24.671 15.931,-35.3 l 0.106,-0.182 c 13.999,-31.029 41.334,-58.848 71.346,-72.604 6.907,-3.25 13.778,-6.348 20.619,-9.313" stroke-miterlimit="10" stroke-width="2" stroke="#473467" fill="none" />
      </g>
    </g>
  </g>
  <g style="display:inline" id="layer4">
    <g style="display:inline" id="filet_2_categorie" transform="translate(-0.85380665,-0.10049)">
      <path id="path229" d="m 422.97,732.419 c -163.4,0 -296.301,-132.9 -296.301,-296.258 0,-163.356 132.901,-296.257 296.301,-296.257 163.381,0 296.283,132.9 296.283,296.257 0,163.358 -132.902,296.258 -296.283,296.258 z" stroke-miterlimit="10" stroke-width="27" stroke="#019db8" fill="none" opacity="0.2" />
    </g>
  </g>
  <g style="display:inline" id="layer3">
    <g style="display:inline" id="filet_3_posture" transform="translate(-0.85380665,-0.10049)">
      <path id="path232" d="m 421.125,731.991 c -163.4,0 -296.3,-132.9 -296.3,-296.258 0,-163.355 132.9,-296.256 296.3,-296.256 163.38,0 296.284,132.9 296.284,296.256 10e-4,163.358 -132.904,296.258 -296.284,296.258 z" stroke-miterlimit="10" stroke-width="18" stroke="#019db8" fill="none" />
    </g>
  </g>
  <g style="display:inline" id="layer5">
    <g style="display:inline" id="texte_titre_badge" transform="translate(-0.85380565,-0.10049)">
      <g id="g270">
        <path id="path240" d="m 254.536,516.361 2.844,0.36 v 4.571 H 245.5 v -4.571 l 2.844,-0.36 V 501.64 h -3.636 l -0.54,3.563 h -4.607 l 0.181,-8.676 h 23.396 l 0.181,8.676 h -4.607 l -0.54,-3.563 h -3.636 z" fill="#ffffff" />
        <path id="path242" d="m 265.013,521.293 v -4.571 l 2.844,-0.36 v -14.865 l -2.844,-0.396 v -4.572 h 11.879 v 4.572 l -2.844,0.396 v 14.865 l 2.844,0.36 v 4.571 z" fill="#ffffff" />
        <path id="path244" d="m 293.523,516.361 2.844,0.36 v 4.571 h -11.878 v -4.571 l 2.844,-0.36 V 501.64 h -3.636 l -0.54,3.563 h -4.607 l 0.18,-8.676 h 23.397 l 0.18,8.676 H 297.7 l -0.54,-3.563 h -3.636 v 14.721 z" fill="#ffffff" />
        <path id="path246" d="m 320.739,521.293 -4.535,-8.675 h -3.168 v 3.743 l 3.636,0.36 v 4.571 h -12.67 v -4.571 l 2.844,-0.36 v -14.865 l -2.844,-0.396 v -4.572 h 13.462 c 5.039,0 8.495,2.844 8.495,7.632 0,4.067 -1.691,5.687 -4.067,6.983 v 0.18 c 0,0 0.396,0.288 0.684,0.792 l 2.483,4.247 3.168,0.36 v 4.571 z m -4.823,-13.498 c 2.628,0 3.779,-1.044 3.779,-3.275 0,-1.944 -1.403,-2.88 -3.779,-2.88 h -2.88 v 6.155 z" fill="#ffffff" />
        <path id="path248" d="m 329.669,521.293 v -4.571 l 2.808,-0.36 V 501.46 l -2.808,-0.359 v -4.572 h 20.409 l 0.144,8.676 h -4.607 l -0.54,-3.563 h -6.406 v 4.787 h 5.363 v 4.932 h -5.363 v 4.823 h 6.335 l 0.54,-3.563 h 4.607 l -0.252,8.675 h -20.23 z" fill="#ffffff" />
        <path id="path250" d="m 359.8,521.293 v -4.571 l 2.844,-0.36 V 501.46 L 359.8,501.1 v -4.572 h 12.131 c 6.119,0 12.13,3.24 12.13,12.203 0,9.826 -5.938,12.563 -11.554,12.563 H 359.8 Z m 11.231,-5.111 c 4.212,0 6.768,-1.619 6.768,-7.451 0,-4.967 -2.664,-7.091 -7.235,-7.091 h -1.728 v 14.542 z" fill="#ffffff" />
        <path id="path252" d="m 403.287,501.496 -2.844,-0.396 v -4.572 h 11.519 v 4.572 l -2.844,0.396 v 10.689 c 0,6.264 -3.743,9.359 -10.366,9.359 -6.623,0 -10.511,-3.096 -10.511,-9.359 v -10.689 l -2.844,-0.396 v -4.572 h 11.879 v 4.572 l -2.844,0.396 v 10.294 c 0,1.944 0.792,4.571 4.319,4.571 2.879,0 4.535,-2.051 4.535,-4.391 v -10.474 z" fill="#ffffff" />
        <path id="path254" d="m 420.676,521.293 v -4.571 l 2.844,-0.36 V 501.46 l -2.844,-0.359 v -4.572 h 10.295 c 7.091,0 10.654,1.729 10.654,6.66 0,4.211 -2.664,5.003 -3.635,5.291 v 0.288 c 1.764,0.216 5.398,1.188 5.398,5.759 0,4.248 -2.483,6.768 -10.043,6.768 h -12.669 z m 12.059,-14.723 c 1.656,0 2.627,-0.971 2.627,-2.447 0,-1.764 -1.403,-2.483 -2.987,-2.483 h -2.663 v 4.931 h 3.023 z m -3.024,4.645 v 4.967 h 3.924 c 2.52,0 3.49,-0.684 3.49,-2.447 0,-1.584 -1.223,-2.52 -2.986,-2.52 z" fill="#ffffff" />
        <path id="path256" d="m 468.374,516.361 2.52,0.36 v 4.571 h -11.158 v -4.571 l 2.699,-0.36 -0.9,-2.375 h -8.387 l -0.9,2.375 2.7,0.36 v 4.571 h -10.979 v -4.571 l 2.52,-0.36 5.651,-14.902 -3.168,-0.18 v -4.752 h 11.879 z m -10.151,-11.194 c -0.252,-0.647 -0.793,-2.196 -0.793,-2.196 h -0.18 c 0,0 -0.54,1.549 -0.792,2.196 l -1.548,4.104 h 4.859 z" fill="#ffffff" />
        <path id="path258" d="m 472.227,521.293 v -4.571 l 2.844,-0.36 V 501.46 l -2.844,-0.359 v -4.572 h 12.131 c 6.119,0 12.131,3.24 12.131,12.203 0,9.826 -5.939,12.563 -11.555,12.563 h -12.707 z m 11.231,-5.111 c 4.212,0 6.768,-1.619 6.768,-7.451 0,-4.967 -2.664,-7.091 -7.234,-7.091 h -1.729 v 14.542 z" fill="#ffffff" />
        <path id="path260" d="m 520.069,512.618 c 0,3.708 -2.052,8.927 -10.402,8.927 -6.804,0 -11.051,-3.924 -11.051,-12.67 0,-8.676 4.283,-12.563 11.051,-12.563 8.351,0 10.402,4.355 10.402,7.486 0,1.116 -0.252,1.872 -0.252,1.872 l -5.867,0.54 c 0,0 0.145,-0.54 0.145,-1.296 0,-1.476 -0.937,-3.456 -4.104,-3.456 -2.844,0 -5.111,1.801 -5.111,7.523 0,5.651 2.482,7.379 5.326,7.379 2.736,0 3.744,-1.188 3.852,-3.203 l -3.491,-0.36 v -4.212 h 9.503 v 4.033 z" fill="#ffffff" />
        <path id="path262" d="m 522.555,521.293 v -4.571 l 2.808,-0.36 V 501.46 l -2.808,-0.359 v -4.572 h 20.409 l 0.144,8.676 H 538.5 l -0.539,-3.563 h -6.407 v 4.787 h 5.363 v 4.932 h -5.363 v 4.823 h 6.335 l 0.54,-3.563 h 4.607 l -0.252,8.675 h -20.229 z" fill="#ffffff" />
        <path id="path264" d="m 552.686,521.293 v -4.571 l 2.844,-0.36 v -14.865 l -2.844,-0.396 v -4.572 h 11.879 v 4.572 l -2.844,0.396 v 14.865 l 2.844,0.36 v 4.571 z" fill="#ffffff" />
        <path id="path266" d="m 582.168,512.546 v -0.684 l 5.976,1.224 v 0.611 c 0,3.276 -2.088,7.848 -10.583,7.848 -6.695,0 -10.87,-3.924 -10.87,-12.67 0,-8.676 4.283,-12.563 11.05,-12.563 8.352,0 10.403,4.787 10.403,8.207 0,1.115 -0.252,1.871 -0.252,1.871 l -5.867,0.721 c 0,0 0.144,-0.612 0.144,-1.477 0,-1.764 -0.936,-4.176 -4.104,-4.176 -2.844,0 -5.111,1.801 -5.111,7.523 0,5.651 2.412,7.379 5.147,7.379 3.096,10e-4 4.067,-1.438 4.067,-3.814 z" fill="#ffffff" />
        <path id="path268" d="m 590.45,521.293 v -4.571 l 2.844,-0.36 v -14.865 l -2.844,-0.396 v -4.572 h 11.879 v 4.572 l -2.844,0.396 v 14.865 l 2.844,0.36 v 4.571 z" fill="#ffffff" />
      </g>
    </g>
  </g>
  <g style="display:inline" id="layer1">
    <g style="display:inline" id="picto_titre_badge" transform="translate(-0.85380565,-0.10049)">
      <path id="path235" d="m 367.882,282.183 c 6.839,6.565 15.277,11.79 25.084,15.524 9.802,3.74 21.308,5.637 34.201,5.637 12.718,0 24.181,-1.896 34.065,-5.637 9.895,-3.734 18.377,-8.957 25.213,-15.524 6.842,-6.575 12.201,-14.362 15.92,-23.144 1.629,-3.846 2.98,-7.928 4.023,-12.147 h -50.096 c -1.32,2.271 -2.65,4.157 -4.063,5.749 -5.457,6.156 -13.89,9.28 -25.063,9.28 -13.572,0 -17.241,-0.456 -25.19,-9.275 -1.439,-1.587 -2.755,-3.425 -4.119,-5.754 h -49.921 c 1.038,4.202 2.392,8.285 4.034,12.146 3.72,8.792 9.074,16.577 15.912,23.145 z" stroke-miterlimit="10" stroke="#ffffff" fill="#ffffff" />
      <path id="path237" d="m 507.771,392.474 c -0.523,-9.941 -2.68,-19.449 -6.406,-28.25 -3.719,-8.766 -9.072,-16.497 -15.916,-22.978 -6.832,-6.472 -15.32,-11.697 -25.223,-15.527 -9.898,-3.822 -21.356,-5.761 -34.061,-5.761 -12.876,0 -24.382,1.938 -34.194,5.759 -9.814,3.834 -18.259,9.06 -25.095,15.529 -6.838,6.47 -12.189,14.203 -15.906,22.978 -3.729,8.788 -5.888,18.294 -6.412,28.256 -0.363,7.872 -0.524,33.046 -0.524,41.286 0,0.611 0.008,1.196 0.017,1.784 l 0.004,0.185 h 46.762 l -0.005,-0.352 c -0.011,-0.713 -0.025,-1.424 -0.025,-2.157 0,-3.904 0.048,-25.099 0.143,-29.026 0.095,-4.07 0.311,-7.519 0.657,-10.538 0.357,-4.544 1.316,-8.836 2.848,-12.722 1.539,-3.897 3.748,-7.336 6.569,-10.221 2.821,-2.893 6.362,-5.203 10.516,-6.866 4.151,-1.662 9.078,-2.506 14.647,-2.506 5.568,0 10.496,0.844 14.647,2.506 4.144,1.662 7.685,3.972 10.522,6.864 2.814,2.893 5.02,6.328 6.561,10.221 1.525,3.881 2.484,8.173 2.848,12.76 0.178,3.105 0.355,6.586 0.535,10.478 0.17,3.944 0.256,25.145 0.256,29.051 0,0.644 -0.018,1.269 -0.037,1.894 -0.006,0.206 -0.012,0.409 -0.018,0.615 h 46.805 l 0.004,-0.236 c 0.008,-0.569 0.016,-1.138 0.016,-1.732 -0.002,-8.86 -0.181,-33.59 -0.535,-41.294 z" stroke-miterlimit="10" stroke="#ffffff" fill="#ffffff" />
    </g>
  </g>
</svg>
