<?xml version="1.0" encoding="UTF-8" standalone="no"?>
<svg xmlns:dc="http://purl.org/dc/elements/1.1/"
  xmlns:cc="http://creativecommons.org/ns#"
  xmlns:rdf="http://www.w3.org/1999/02/22-rdf-syntax-ns#"
  xmlns:svg="http://www.w3.org/2000/svg"
  xmlns="http://www.w3.org/2000/svg" id="svg1335" xml:space="preserve" enable-background="new 0 0 737.007 841.89" viewBox="0 0 839.99998 839.99999" height="100%" width="100%" y="0px" x="0px" version="1.1">
  <metadata id="metadata1341">
    <rdf:RDF>
      <cc:Work rdf:about="">
        <dc:format>image/svg+xml</dc:format>
        <dc:type rdf:resource="http://purl.org/dc/dcmitype/StillImage" />
        <dc:title></dc:title>
      </cc:Work>
    </rdf:RDF>
  </metadata>
  <defs id="defs1339">

  </defs>
  <g style="display:inline" id="layer13">
    <g id="texte_posture" transform="translate(-0.85380369,-0.16499)" style="display:inline">
      <g id="g36">
        <path id="path2" d="m 212.954,702.199 -13.559,13.252 c -2.117,2.069 -4.368,3.066 -6.752,2.992 -2.385,-0.074 -4.63,-1.189 -6.736,-3.344 -2.666,-2.729 -3.844,-6.069 -3.534,-10.025 l 5.696,-0.982 c -0.089,2.885 0.537,5.014 1.879,6.387 1.398,1.43 2.917,1.344 4.557,-0.26 l 9.325,-9.114 -6.71,-6.865 4.119,-4.026 z" fill="#473467" />
        <path id="path4" d="m 230.203,725.322 -11.111,-9.776 -3.673,4.175 10.031,8.824 -3.699,4.205 -10.03,-8.826 -3.726,4.234 11.442,10.067 -3.699,4.204 -16.788,-14.77 18.496,-21.021 16.457,14.479 z" fill="#473467" />
        <path id="path6" d="m 247.349,731.581 10.054,6.911 c 2.945,2.023 4.75,4.292 5.418,6.806 0.667,2.513 0.117,5.056 -1.65,7.626 -1.858,2.703 -4.114,4.243 -6.767,4.62 -2.654,0.376 -5.453,-0.447 -8.397,-2.472 l -4.187,-2.877 -4.463,6.494 -5.868,-4.033 z m 2.695,8.648 -5.053,7.352 3.89,2.674 c 1.296,0.891 2.515,1.26 3.657,1.105 1.141,-0.154 2.127,-0.835 2.958,-2.044 0.815,-1.187 1.083,-2.329 0.803,-3.428 -0.281,-1.099 -1.069,-2.094 -2.366,-2.985 z" fill="#473467" />
        <path id="path8" d="m 287.15,762.979 -12.895,-7.264 -2.729,4.844 11.641,6.557 -2.749,4.88 -11.64,-6.558 -2.768,4.914 13.278,7.48 -2.749,4.879 -19.482,-10.975 13.742,-24.395 19.098,10.758 z" fill="#473467" />
        <path id="path10" d="m 318.274,771.02 -6.563,14.855 c -1.498,3.391 -3.735,5.617 -6.711,6.678 -2.976,1.062 -6.256,0.801 -9.842,-0.783 -3.61,-1.596 -6.043,-3.857 -7.299,-6.789 -1.257,-2.932 -1.135,-6.092 0.362,-9.482 l 6.563,-14.855 6.513,2.877 -6.562,14.855 c -0.754,1.708 -0.861,3.286 -0.321,4.734 0.541,1.449 1.604,2.523 3.189,3.225 1.561,0.689 3.032,0.741 4.413,0.156 1.38,-0.586 2.454,-1.744 3.219,-3.477 l 6.562,-14.854 z" fill="#473467" />
        <path id="path12" d="m 335.261,790.816 5.064,17.015 -8.109,-2.614 -3.013,-10.342 -8.485,6.637 -7.881,-2.54 13.911,-10.562 -4.712,-15.893 7.881,2.541 2.636,9.422 7.643,-6.109 7.957,2.564 z" fill="#473467" />
        <path id="path14" d="m 383.545,793.859 -8.309,-1.48 -3.909,21.934 -7.01,-1.249 3.909,-21.935 -8.23,-1.467 1.01,-5.67 23.549,4.196 z" fill="#473467" />
        <path id="path16" d="m 403.161,817.954 -3.533,-8.181 -0.199,-0.016 -5.383,-0.421 -0.615,7.856 -7.098,-0.557 2.185,-27.914 12.482,0.977 c 3.695,0.289 6.487,1.357 8.375,3.203 1.888,1.848 2.711,4.325 2.467,7.436 -0.337,4.307 -2.26,7.166 -5.767,8.576 l 5.141,9.671 z m -8.679,-14.2 5.383,0.422 c 1.542,0.12 2.768,-0.172 3.68,-0.876 0.911,-0.704 1.424,-1.788 1.538,-3.25 0.113,-1.436 -0.228,-2.559 -1.02,-3.37 -0.793,-0.811 -1.96,-1.277 -3.501,-1.397 l -5.384,-0.421 z" fill="#473467" />
        <path id="path18" d="m 437.34,813.01 -12.234,0.371 -1.883,5.219 -7.316,0.222 11.228,-28.353 7.316,-0.221 12.642,27.629 -7.597,0.23 z m -2.242,-5.334 -4.312,-10.234 -3.765,10.479 z" fill="#473467" />
        <path id="path20" d="m 479.203,813.453 -6.215,0.9 -15.217,-15.218 2.469,17.062 -6.611,0.957 -4.01,-27.711 6.215,-0.899 15.262,15.251 -2.475,-17.102 6.572,-0.951 z" fill="#473467" />
        <path id="path22" d="m 491.89,781.381 c 4.059,-1.026 7.881,-0.921 11.468,0.317 l -1.235,6.048 c -1.631,-0.468 -3.328,-0.761 -5.09,-0.879 -1.764,-0.117 -3.201,-0.036 -4.313,0.245 -1.99,0.503 -2.818,1.415 -2.485,2.733 0.216,0.853 0.88,1.414 1.993,1.682 1.113,0.27 2.422,0.413 3.926,0.432 1.504,0.018 3.027,0.114 4.57,0.287 1.543,0.174 2.956,0.731 4.239,1.672 1.283,0.941 2.153,2.316 2.611,4.125 0.661,2.611 0.154,4.906 -1.519,6.883 -1.673,1.978 -4.086,3.365 -7.24,4.162 -2.249,0.569 -4.57,0.744 -6.964,0.524 -2.394,-0.22 -4.575,-0.796 -6.544,-1.728 l 1.332,-5.99 c 1.671,0.844 3.533,1.41 5.588,1.701 2.055,0.293 3.805,0.256 5.253,-0.111 1.111,-0.281 1.927,-0.699 2.446,-1.258 0.52,-0.558 0.681,-1.225 0.484,-2 -0.189,-0.75 -0.704,-1.287 -1.542,-1.611 -0.839,-0.324 -1.819,-0.475 -2.94,-0.452 -1.123,0.022 -2.356,-0.017 -3.702,-0.116 -1.345,-0.1 -2.61,-0.261 -3.794,-0.484 -1.186,-0.223 -2.268,-0.78 -3.25,-1.674 -0.982,-0.893 -1.664,-2.089 -2.043,-3.588 -0.627,-2.482 -0.141,-4.717 1.461,-6.703 1.602,-1.986 4.032,-3.393 7.29,-4.217 z" fill="#473467" />
        <path id="path24" d="m 545.938,793.186 -5.882,2.2 -6.413,-17.032 -0.899,16.777 -4.346,1.625 -11.689,-12.069 6.375,17.046 -5.957,2.229 -9.822,-26.264 7.307,-2.732 12.961,12.961 1.275,-18.285 7.268,-2.719 z" fill="#473467" />
        <path id="path26" d="m 564.039,759.275 -13.219,6.654 2.5,4.967 11.933,-6.008 2.519,5.002 -11.934,6.008 2.536,5.037 13.612,-6.853 2.518,5.002 -19.971,10.054 -12.592,-25.009 19.58,-9.856 z" fill="#473467" />
        <path id="path28" d="m 588.035,744.849 -7.184,4.431 11.698,18.963 -6.06,3.738 -11.698,-18.963 -7.115,4.391 -3.024,-4.902 20.357,-12.56 z" fill="#473467" />
        <path id="path30" d="m 609.083,729.508 -6.807,4.992 13.178,17.965 -5.741,4.211 -13.177,-17.965 -6.742,4.944 -3.406,-4.645 19.288,-14.147 z" fill="#473467" />
        <path id="path32" d="m 640.043,732.299 -8.315,-3.203 -0.15,0.132 -4.068,3.55 5.18,5.938 -5.365,4.682 -18.407,-21.1 9.435,-8.23 c 2.793,-2.437 5.51,-3.684 8.15,-3.74 2.641,-0.055 4.986,1.092 7.037,3.442 2.84,3.255 3.535,6.63 2.088,10.122 l 10.506,3.097 z m -16.215,-3.741 4.068,-3.55 c 1.166,-1.017 1.816,-2.097 1.951,-3.24 0.135,-1.145 -0.281,-2.269 -1.245,-3.374 -0.946,-1.085 -1.987,-1.628 -3.12,-1.63 -1.135,-0.002 -2.284,0.506 -3.449,1.522 l -4.069,3.55 z" fill="#473467" />
        <path id="path34" d="m 650.583,690.402 -10.275,10.652 4.002,3.86 9.275,-9.616 4.03,3.888 -9.274,9.616 4.059,3.915 10.58,-10.969 4.031,3.888 -15.523,16.094 -20.152,-19.438 15.217,-15.777 z" fill="#473467" />
      </g>
    </g>
  </g>
  <!-- <g id="layer18">
    <g id="filet_3_posture" transform="translate(-0.85381,-0.16499)" style="display:inline;fill:#ffffff;stroke:none">
      <path id="path202-2" d="m 421.125,745.642 c -163.399,0 -296.299,-132.9 -296.299,-296.258 0,-163.358 132.9,-296.258 296.299,-296.258 163.381,0 296.284,132.9 296.284,296.258 0,163.358 -132.904,296.258 -296.284,296.258 z" stroke-miterlimit="10" stroke-width="27" stroke="#019db8" fill="none" style="fill:#ffffff;stroke:none" />
    </g>
  </g> -->
  <g style="display:inline" id="layer12">
    <g id="filet_separation_theme" transform="translate(-0.85381069,-0.16499486)" style="display:inline">
      <line id="line39" y2="662.22198" x2="422.362" y1="624.43799" x1="422.362" stroke-miterlimit="10" stroke-width="2" stroke="#1e1e1c" fill="none" />
    </g>
  </g>
  <g style="display:inline" id="layer11">
    <g id="picto_theme" transform="translate(-0.85381069,-0.16499)" style="display:inline">
      <g id="g46">
        <path id="path42" d="m 479.449,626.407 c 2.644,2.539 5.905,4.559 9.696,6.002 3.789,1.447 8.238,2.18 13.222,2.18 4.916,0 9.348,-0.732 13.169,-2.18 3.824,-1.443 7.104,-3.463 9.747,-6.002 2.646,-2.541 4.717,-5.551 6.155,-8.945 0.629,-1.488 1.15,-3.064 1.554,-4.697 h -19.366 c -0.51,0.879 -1.023,1.609 -1.569,2.223 -2.11,2.381 -5.37,3.588 -9.689,3.588 -5.247,0 -6.665,-0.176 -9.737,-3.586 -0.557,-0.613 -1.066,-1.322 -1.593,-2.225 h -19.299 c 0.401,1.627 0.925,3.205 1.56,4.697 1.436,3.398 3.506,6.408 6.15,8.945 z" stroke-miterlimit="10" stroke-width="2" stroke="#1e1e1c" fill="none" />
        <path id="path44" d="m 533.914,669.044 c -0.202,-3.842 -1.036,-7.518 -2.478,-10.92 -1.437,-3.389 -3.506,-6.379 -6.152,-8.883 -2.641,-2.502 -5.922,-4.521 -9.75,-6.002 -3.826,-1.479 -8.256,-2.229 -13.168,-2.229 -4.977,0 -9.426,0.75 -13.218,2.227 -3.794,1.482 -7.059,3.502 -9.701,6.004 -2.644,2.502 -4.712,5.49 -6.149,8.883 -1.441,3.398 -2.275,7.072 -2.479,10.922 -0.141,3.045 -0.203,12.775 -0.203,15.961 0,0.238 0.003,0.463 0.007,0.691 l 0.001,0.07 h 18.077 l -0.002,-0.137 c -0.004,-0.273 -0.009,-0.549 -0.009,-0.834 0,-1.51 0.018,-9.703 0.055,-11.221 0.036,-1.572 0.119,-2.906 0.254,-4.074 0.139,-1.756 0.509,-3.416 1.101,-4.918 0.595,-1.506 1.448,-2.836 2.54,-3.951 1.09,-1.117 2.459,-2.01 4.064,-2.654 1.605,-0.641 3.51,-0.967 5.662,-0.967 2.152,0 4.059,0.326 5.663,0.967 1.603,0.643 2.972,1.537 4.067,2.654 1.088,1.119 1.941,2.447 2.536,3.951 0.59,1.5 0.96,3.16 1.101,4.934 0.069,1.199 0.139,2.545 0.207,4.049 0.066,1.525 0.1,9.721 0.1,11.23 0,0.25 -0.008,0.492 -0.015,0.734 -0.002,0.078 -0.005,0.156 -0.007,0.236 h 18.094 l 0.001,-0.092 c 0.004,-0.219 0.007,-0.439 0.007,-0.67 0,-3.422 -0.071,-12.981 -0.206,-15.961 z" stroke-miterlimit="10" stroke-width="2" stroke="#1e1e1c" fill="none" />
      </g>
    </g>
  </g>
  <g style="display:inline" id="layer10">
    <g id="texte_picto_theme" transform="translate(-0.85381069,-0.16499)" style="display:inline">
      <g id="g69">
        <path id="path49" d="m 448.521,588.311 h -3.798 v 10.025 h -3.204 v -10.025 h -3.762 v -2.593 h 10.764 z" fill="#1e1e1c" />
        <path id="path51" d="m 459.753,588.256 h -6.66 v 2.502 h 6.012 v 2.52 h -6.012 v 2.539 h 6.857 v 2.52 h -10.062 v -12.6 h 9.864 v 2.519 z" fill="#1e1e1c" />
        <path id="path53" d="m 469.33,591.748 4.518,6.588 h -3.834 l -2.718,-4.014 -2.718,4.014 h -3.727 l 4.5,-6.443 -4.212,-6.156 h 3.726 l 2.431,3.672 2.43,-3.672 h 3.763 z" fill="#1e1e1c" />
        <path id="path55" d="m 484.863,588.311 h -3.798 v 10.025 h -3.204 v -10.025 h -3.762 v -2.593 h 10.764 z" fill="#1e1e1c" />
        <path id="path57" d="m 496.095,588.256 h -6.66 v 2.502 h 6.012 v 2.52 h -6.012 v 2.539 h 6.857 v 2.52 H 486.23 v -12.6 h 9.864 v 2.519 z" fill="#1e1e1c" />
        <path id="path59" d="m 512.169,588.311 h -3.799 v 10.025 h -3.203 v -10.025 h -3.763 v -2.593 h 10.765 z" fill="#1e1e1c" />
        <path id="path61" d="m 525.166,598.336 h -3.205 v -4.896 h -5.22 v 4.896 h -3.204 v -12.6 h 3.204 v 5.184 h 5.22 v -5.184 h 3.205 z" fill="#1e1e1c" />
        <path id="path63" d="m 537.548,588.256 h -6.66 v 2.502 h 6.013 v 2.52 h -6.013 v 2.539 h 6.858 v 2.52 h -10.062 v -12.6 h 9.863 v 2.519 z m -3.311,-3.618 h -2.376 l -2.34,-2.034 2.808,-0.99 z" fill="#1e1e1c" />
        <path id="path65" d="m 553.659,598.336 h -2.826 l -0.019,-8.189 -3.023,6.93 h -2.088 l -3.023,-6.93 v 8.189 h -2.863 v -12.618 h 3.511 l 3.42,7.507 3.42,-7.507 h 3.492 v 12.618 z" fill="#1e1e1c" />
        <path id="path67" d="m 566.06,588.256 h -6.66 v 2.502 h 6.013 v 2.52 H 559.4 v 2.539 h 6.858 v 2.52 h -10.062 v -12.6 h 9.863 v 2.519 z" fill="#1e1e1c" />
      </g>
    </g>
  </g>
  <g style="display:inline" id="layer9">
    <g id="picto_categorie" transform="translate(-0.85380269,-0.16499727)" style="display:inline">
      <g id="g150">
        <ellipse id="ellipse72" ry="2.5450001" rx="3.3069999" cy="626.91901" cx="328.86301" stroke-miterlimit="10" stroke-width="2" stroke="#1e1e1c" fill="none" />
        <ellipse id="ellipse74" ry="2.5450001" rx="3.3069999" cy="617.38" cx="328.86301" stroke-miterlimit="10" stroke-width="2" stroke="#1e1e1c" fill="none" />
        <ellipse id="ellipse76" ry="2.543" rx="3.306" cy="633.02197" cx="339.16501" stroke-miterlimit="10" stroke-width="2" stroke="#1e1e1c" fill="none" />
        <ellipse id="ellipse78" ry="2.543" rx="3.3069999" cy="641.41699" cx="323.013" stroke-miterlimit="10" stroke-width="2" stroke="#1e1e1c" fill="none" />
        <ellipse id="ellipse80" ry="2.5450001" rx="3.3069999" cy="626.79199" cx="311.05801" stroke-miterlimit="10" stroke-width="2" stroke="#1e1e1c" fill="none" />
        <ellipse id="ellipse82" ry="2.543" rx="3.306" cy="642.68799" cx="306.86099" stroke-miterlimit="10" stroke-width="2" stroke="#1e1e1c" fill="none" />
        <ellipse id="ellipse84" ry="2.5450001" rx="3.3069999" cy="647.776" cx="339.03799" stroke-miterlimit="10" stroke-width="2" stroke="#1e1e1c" fill="none" />
        <ellipse id="ellipse86" ry="2.5450001" rx="3.3069999" cy="657.315" cx="324.41199" stroke-miterlimit="10" stroke-width="2" stroke="#1e1e1c" fill="none" />
        <ellipse id="ellipse88" ry="2.543" rx="3.3069999" cy="654.89697" cx="311.439" stroke-miterlimit="10" stroke-width="2" stroke="#1e1e1c" fill="none" />
        <ellipse id="ellipse90" ry="2.5450001" rx="3.3069999" cy="669.315" cx="312.65799" stroke-miterlimit="10" stroke-width="2" stroke="#1e1e1c" fill="none" />
        <ellipse id="ellipse92" ry="2.543" rx="3.3069999" cy="665.89398" cx="331.73499" stroke-miterlimit="10" stroke-width="2" stroke="#1e1e1c" fill="none" />
        <ellipse id="ellipse94" ry="2.543" rx="3.3069999" cy="681.54999" cx="337.52399" stroke-miterlimit="10" stroke-width="2" stroke="#1e1e1c" fill="none" />
        <ellipse id="ellipse96" ry="2.5450001" rx="3.3069999" cy="676.85797" cx="322.96399" stroke-miterlimit="10" stroke-width="2" stroke="#1e1e1c" fill="none" />
        <line id="line98" y2="677.07703" x2="320.15701" y1="671.37598" x1="313.798" stroke-miterlimit="10" stroke-width="2" stroke="#1e1e1c" fill="none" />
        <line id="line100" y2="681.46198" x2="334.58499" y1="678.21802" x1="325.771" stroke-miterlimit="10" stroke-width="2" stroke="#1e1e1c" fill="none" />
        <line id="line102" y2="679.35797" x2="337.69901" y1="668.263" x1="331.99799" stroke-miterlimit="10" stroke-width="2" stroke="#1e1e1c" fill="none" />
        <line id="line104" y2="675.45398" x2="325.771" y1="668.526" x1="330.901" stroke-miterlimit="10" stroke-width="2" stroke="#1e1e1c" fill="none" />
        <line id="line106" y2="666.06897" x2="328.44501" y1="668.21802" x1="315.46399" stroke-miterlimit="10" stroke-width="2" stroke="#1e1e1c" fill="none" />
        <line id="line108" y2="663.17499" x2="331.121" y1="658.08899" x1="327.086" stroke-miterlimit="10" stroke-width="2" stroke="#1e1e1c" fill="none" />
        <line id="line110" y2="665.85101" x2="341.86499" y1="665.63202" x1="335.06799" stroke-miterlimit="10" stroke-width="2" stroke="#1e1e1c" fill="none" />
        <line id="line112" y2="650.32501" x2="338.35699" y1="656.64203" x1="327.48001" stroke-miterlimit="10" stroke-width="2" stroke="#1e1e1c" fill="none" />
        <line id="line114" y2="654.88397" x2="324.67401" y1="643.70001" x1="323.22699" stroke-miterlimit="10" stroke-width="2" stroke="#1e1e1c" fill="none" />
        <line id="line116" y2="646.20001" x2="337.173" y1="641.46399" x1="326.341" stroke-miterlimit="10" stroke-width="2" stroke="#1e1e1c" fill="none" />
        <line id="line118" y2="641.37598" x2="319.806" y1="642.42902" x1="310.026" stroke-miterlimit="10" stroke-width="2" stroke="#1e1e1c" fill="none" />
        <line id="line120" y2="652.21002" x2="311.12299" y1="644.974" x1="306.431" stroke-miterlimit="10" stroke-width="2" stroke="#1e1e1c" fill="none" />
        <line id="line122" y2="657.03198" x2="321.20901" y1="654.92902" x1="314.23599" stroke-miterlimit="10" stroke-width="2" stroke="#1e1e1c" fill="none" />
        <line id="line124" y2="666.24298" x2="312.526" y1="657.29602" x1="311.16699" stroke-miterlimit="10" stroke-width="2" stroke="#1e1e1c" fill="none" />
        <line id="line126" y2="640.06" x2="307.17599" y1="629.66699" x1="311.298" stroke-miterlimit="10" stroke-width="2" stroke="#1e1e1c" fill="none" />
        <line id="line128" y2="638.96399" x2="322.74399" y1="628.43799" x1="313.228" stroke-miterlimit="10" stroke-width="2" stroke="#1e1e1c" fill="none" />
        <line id="line130" y2="638.48102" x2="323.578" y1="629.44598" x1="328.66501" stroke-miterlimit="10" stroke-width="2" stroke="#1e1e1c" fill="none" />
        <line id="line132" y2="631.37598" x2="336.95401" y1="627.12201" x1="331.77899" stroke-miterlimit="10" stroke-width="2" stroke="#1e1e1c" fill="none" />
        <path id="path134" d="m 332.173,617.124 10.438,1.447 v 61.408 c 0,5.869 16.883,8.514 16.883,-3" stroke-miterlimit="10" stroke-width="2" stroke="#1e1e1c" fill="none" />
        <line id="line136" y2="624.315" x2="328.66501" y1="619.448" x1="328.66501" stroke-miterlimit="10" stroke-width="2" stroke="#1e1e1c" fill="none" />
        <line id="line138" y2="617.16699" x2="326.03299" y1="625.45599" x1="314.19199" stroke-miterlimit="10" stroke-width="2" stroke="#1e1e1c" fill="none" />
        <path id="path140" d="m 347.932,667.575 c 0,11.893 25.382,14.125 21.782,-3.922" stroke-miterlimit="10" stroke-width="2" stroke="#1e1e1c" fill="none" />
        <path id="path142" d="m 350.895,651.851 c 0,9.752 16.313,8.658 16.313,0" stroke-miterlimit="10" stroke-width="2" stroke="#1e1e1c" fill="none" />
        <path id="path144" d="m 357.958,658.868 c 0,6.063 7.662,5.803 8.613,5.697 2.05,-0.229 8.794,-2.734 5.559,-9.707 l -0.41,-0.592 c 6.152,-1.959 10.025,-11.713 -3.144,-13.945" stroke-miterlimit="10" stroke-linejoin="round" stroke-width="2" stroke="#1e1e1c" fill="none" />
        <path id="path146" d="m 352.352,638.54 c 0,-2.734 1.458,-10.07 12.395,-10.07 10.937,0 12.714,9.113 12.714,10.617 0,1.504 -0.912,3.555 -2.005,4.238" stroke-miterlimit="10" stroke-width="2" stroke="#1e1e1c" fill="none" />
        <path id="path148" d="m 342.611,618.571 c 2.268,-2.635 9.787,-7.055 16.303,0.738 6.653,-1.641 15.631,2.188 11.393,10.252" stroke-miterlimit="10" stroke-linejoin="round" stroke-width="2" stroke="#1e1e1c" fill="none" />
      </g>
    </g>
  </g>
  <g style="display:inline" id="layer8">
    <g id="texte_picto_categorie" transform="translate(-0.85381069,-0.16499)" style="display:inline">
      <g id="g165">
        <path id="path153" d="m 313.714,585.592 c 1.884,0 3.54,0.469 4.968,1.404 l -1.206,2.502 c -0.66,-0.384 -1.368,-0.699 -2.124,-0.945 -0.756,-0.246 -1.393,-0.369 -1.908,-0.369 -0.924,0 -1.386,0.307 -1.386,0.918 0,0.396 0.228,0.715 0.684,0.955 0.456,0.239 1.011,0.446 1.665,0.62 0.654,0.175 1.308,0.384 1.962,0.63 0.654,0.246 1.209,0.646 1.665,1.197 0.456,0.553 0.684,1.248 0.684,2.088 0,1.213 -0.474,2.157 -1.422,2.835 -0.948,0.679 -2.154,1.017 -3.618,1.017 -1.044,0 -2.076,-0.18 -3.096,-0.539 -1.021,-0.36 -1.908,-0.852 -2.664,-1.477 l 1.242,-2.466 c 0.636,0.552 1.386,1.005 2.25,1.358 0.864,0.354 1.632,0.531 2.304,0.531 0.516,0 0.918,-0.092 1.206,-0.279 0.288,-0.186 0.432,-0.459 0.432,-0.818 0,-0.348 -0.166,-0.639 -0.495,-0.873 -0.33,-0.234 -0.741,-0.408 -1.233,-0.521 -0.492,-0.114 -1.026,-0.268 -1.602,-0.459 -0.576,-0.192 -1.11,-0.402 -1.602,-0.631 -0.492,-0.228 -0.903,-0.59 -1.233,-1.088 -0.331,-0.498 -0.495,-1.096 -0.495,-1.791 0,-1.152 0.459,-2.074 1.377,-2.764 0.918,-0.69 2.133,-1.035 3.645,-1.035 z" fill="#1e1e1c" />
        <path id="path155" d="m 328.78,596.014 h -5.508 l -0.918,2.322 h -3.294 l 5.436,-12.6 h 3.294 l 5.31,12.6 h -3.42 z m -0.936,-2.43 -1.8,-4.662 -1.836,4.662 z" fill="#1e1e1c" />
        <path id="path157" d="m 340.229,598.336 h -3.312 l -4.896,-12.6 h 3.42 l 3.222,9.27 3.222,-9.27 h 3.294 z" fill="#1e1e1c" />
        <path id="path159" d="m 352.36,585.628 c 1.956,0 3.582,0.609 4.878,1.827 1.296,1.218 1.944,2.738 1.944,4.563 0,1.836 -0.651,3.373 -1.953,4.608 -1.302,1.235 -2.925,1.854 -4.869,1.854 -1.944,0 -3.564,-0.615 -4.86,-1.846 -1.296,-1.229 -1.944,-2.769 -1.944,-4.617 0,-1.836 0.648,-3.359 1.944,-4.572 1.296,-1.211 2.916,-1.817 4.86,-1.817 z m 0.036,2.683 c -0.984,0 -1.824,0.356 -2.52,1.07 -0.696,0.715 -1.044,1.6 -1.044,2.655 0,1.055 0.351,1.946 1.053,2.673 0.702,0.727 1.539,1.089 2.511,1.089 0.972,0 1.797,-0.362 2.475,-1.089 0.678,-0.727 1.017,-1.617 1.017,-2.673 0,-1.056 -0.339,-1.94 -1.017,-2.655 -0.678,-0.714 -1.503,-1.07 -2.475,-1.07 z" fill="#1e1e1c" />
        <path id="path161" d="m 364.078,598.336 h -3.204 v -12.6 h 3.204 z" fill="#1e1e1c" />
        <path id="path163" d="m 374.194,598.336 -1.872,-3.546 h -0.09 -2.43 v 3.546 h -3.204 v -12.6 h 5.634 c 1.668,0 2.958,0.381 3.87,1.143 0.912,0.762 1.368,1.846 1.368,3.249 0,1.944 -0.762,3.294 -2.286,4.05 l 2.646,4.158 z m -4.392,-6.066 h 2.43 c 0.696,0 1.236,-0.174 1.62,-0.521 0.384,-0.348 0.576,-0.852 0.576,-1.512 0,-0.648 -0.192,-1.141 -0.576,-1.477 -0.384,-0.336 -0.924,-0.504 -1.62,-0.504 h -2.43 z" fill="#1e1e1c" />
      </g>
    </g>
  </g>
  <g style="display:inline" id="layer7">
    <g id="fond_categorie" transform="translate(-0.85381069,-0.16499)" style="display:inline">
      <path id="path168" d="m 664.854,556.567 c 14.489,-32.813 22.556,-69.072 22.556,-107.184 0,-146.815 -119.455,-266.258 -266.285,-266.258 -146.837,0 -266.299,119.442 -266.299,266.258 0,38.111 8.066,74.371 22.557,107.184 z" fill="#019db8" />
    </g>
  </g>
  <g style="display:inline" id="layer6">
    <g id="picto_posture">
      <path fill="#473467" d="m 435.72319,136.38201 h -2.138 v -2.137 h -1.068 l -3.205,-60.902 c 1.181,0 2.137,-0.957 2.137,-2.137 v -4.273 c 0,-1.18 -0.956,-2.137 -2.137,-2.137 h -2.137 v -8.548 h 2.137 1.068 v -2.138 h -1.068 -1.068 v -1.068 h -2.138 v -1.068 h -2.137 v -1.069 h -2.137 v -1.068 h -2.137 v 1.068 h -2.136 v 1.068 h -2.137 v 1.068 h -2.137 v 1.068 h -1.069 -1.068 v 2.138 h 1.068 2.137 v 8.548 h -2.137 c -1.18,0 -2.137,0.957 -2.137,2.137 v 4.273 c 0,1.18 0.957,2.137 2.137,2.137 l -3.205,60.902 h -1.068 v 2.137 h -2.137 l -4.274,4.273 h 38.464 z m -19.232,-79.066 h 8.546 v 5.343 h -3.205 v -1.068 h 1.068 v -2.137 h -2.137 v 2.137 1.068 h -4.273 v -5.343 z m -2.247,18.164 h 13.04 l 0.056,1.068 h -13.152 z m -0.281,5.342 h 13.603 l 0.394,7.479 h -14.39 z m -0.619,11.754 h 14.839 l 0.395,7.478 h -15.627 z m -0.618,11.753 h 16.077 l 0.394,7.479 h -16.865 z m -0.619,11.752 h 17.314 l 0.394,7.479 h -18.101 z m -0.619,11.753 h 18.551 l 0.226,4.274 h -19.001 z m 18.892,12.288 h -3.205 v -2.138 c 0,-0.885 0.718,-1.603 1.603,-1.603 0.885,0 1.603,0.718 1.603,1.603 v 2.138 z" id="path189" />
      <polygon transform="translate(30.899189,12.93901)" id="polygon120" points="221.341,77.756 384.138,51.752 384.138,42.377 221.341,9.59 " fill="currentColor" opacity="0.2" style="display:inline;" />
      <polygon transform="translate(50.899189,12.93901)" id="polygon129" points="539.138,9.59 539.138,77.756 376.341,51.752 376.341,42.377 " fill="currentColor" opacity="0.2" style="display:inline;" />
    </g>
  </g>
  <g style="display:inline" id="layer2">
    <g id="filet_1_categorie" transform="translate(-0.85380669,-0.16498852)" style="display:inline">
      <g id="g196">
        <path id="path192" d="m 638.987,246.273 c 6.295,2.749 12.614,5.604 18.965,8.593 30.008,13.753 57.346,41.572 71.348,72.603 l 0.104,0.181 c 7.817,10.628 13.175,22.504 15.925,35.3 l 0.059,0.271 0.189,0.202 c 6.496,6.95 12.354,14.357 17.404,22.018 l 0.064,0.085 c 14.818,17.993 22.615,41.05 21.951,64.977 0.656,23.871 -7.139,46.926 -21.953,64.914 l -0.063,0.086 c -5.051,7.662 -10.906,15.07 -17.404,22.018 l -0.189,0.203 -0.059,0.271 c -2.748,12.793 -8.107,24.67 -15.925,35.303 l -0.104,0.18 c -14.002,31.029 -41.342,58.848 -71.355,72.604 -5.333,2.51 -10.644,4.93 -15.937,7.27" stroke-miterlimit="10" stroke-width="2" stroke="#473467" fill="none" />
        <path id="path194" d="m 201.485,654.048 c -5.828,-2.557 -11.675,-5.207 -17.55,-7.973 -30.003,-13.748 -57.338,-41.566 -71.338,-72.596 l -0.106,-0.182 C 104.67,562.664 99.31,550.787 96.56,537.992 l -0.058,-0.271 -0.189,-0.203 C 89.788,530.539 83.924,523.116 78.885,515.452 L 78.82,515.364 C 64.033,497.411 56.245,474.374 56.891,450.446 56.245,426.574 64.032,403.537 78.819,385.58 l 0.063,-0.086 c 5.019,-7.639 10.884,-15.066 17.431,-22.076 l 0.189,-0.201 0.058,-0.271 c 2.75,-12.795 8.11,-24.671 15.931,-35.299 l 0.106,-0.182 c 13.999,-31.029 41.334,-58.848 71.347,-72.604 6.907,-3.25 13.777,-6.348 20.619,-9.313" stroke-miterlimit="10" stroke-width="2" stroke="#473467" fill="none" />
      </g>
    </g>
  </g>
  <g style="display:inline" id="layer4">
    <g id="filet_2_categorie" transform="translate(-0.85380669,-0.16499)" style="display:inline">
      <path id="path199" d="m 421.125,745.642 c -163.399,0 -296.299,-132.9 -296.299,-296.258 0,-163.358 132.9,-296.258 296.299,-296.258 163.381,0 296.284,132.9 296.284,296.258 0,163.358 -132.904,296.258 -296.284,296.258 z" stroke-miterlimit="10" stroke-width="27" stroke="#019db8" fill="none" opacity="0.2" />
    </g>
  </g>
  <g style="display:inline" id="layer3">
    <g id="filet_3_posture" transform="translate(-0.85380669,-0.16499)" style="display:inline">
      <path id="path202" d="m 421.125,745.642 c -163.399,0 -296.299,-132.9 -296.299,-296.258 0,-163.358 132.9,-296.258 296.299,-296.258 163.381,0 296.284,132.9 296.284,296.258 0,163.358 -132.904,296.258 -296.284,296.258 z" stroke-miterlimit="10" stroke-width="27" stroke="#019db8" fill="none" />
    </g>
  </g>
  <g style="display:inline" id="layer5">
    <g style="display:inline" transform="translate(-0.85381069,-0.16499)" id="texte_titre_badge">
      <g id="g240">
        <path fill="#ffffff" d="m 254.536,516.361 2.844,0.36 v 4.571 H 245.5 v -4.571 l 2.844,-0.36 V 501.64 h -3.636 l -0.54,3.563 h -4.607 l 0.181,-8.676 h 23.396 l 0.181,8.676 h -4.607 l -0.54,-3.563 h -3.636 z" id="path210" />
        <path fill="#ffffff" d="m 265.013,521.293 v -4.571 l 2.844,-0.36 v -14.865 l -2.844,-0.396 v -4.572 h 11.879 v 4.572 l -2.844,0.396 v 14.865 l 2.844,0.36 v 4.571 z" id="path212" />
        <path fill="#ffffff" d="m 293.523,516.361 2.844,0.36 v 4.571 h -11.878 v -4.571 l 2.844,-0.36 V 501.64 h -3.636 l -0.54,3.563 h -4.607 l 0.18,-8.676 h 23.397 l 0.18,8.676 H 297.7 l -0.54,-3.563 h -3.636 v 14.721 z" id="path214" />
        <path fill="#ffffff" d="m 320.739,521.293 -4.535,-8.675 h -3.168 v 3.743 l 3.636,0.36 v 4.571 h -12.67 v -4.571 l 2.844,-0.36 v -14.865 l -2.844,-0.396 v -4.572 h 13.462 c 5.039,0 8.495,2.844 8.495,7.632 0,4.067 -1.691,5.687 -4.067,6.983 v 0.18 c 0,0 0.396,0.288 0.684,0.792 l 2.483,4.247 3.168,0.36 v 4.571 z m -4.823,-13.498 c 2.628,0 3.779,-1.044 3.779,-3.275 0,-1.944 -1.403,-2.88 -3.779,-2.88 h -2.88 v 6.155 z" id="path216" />
        <path fill="#ffffff" d="m 329.669,521.293 v -4.571 l 2.808,-0.36 V 501.46 l -2.808,-0.359 v -4.572 h 20.409 l 0.144,8.676 h -4.607 l -0.54,-3.563 h -6.406 v 4.787 h 5.363 v 4.932 h -5.363 v 4.823 h 6.335 l 0.54,-3.563 h 4.607 l -0.252,8.675 h -20.23 z" id="path218" />
        <path fill="#ffffff" d="m 359.8,521.293 v -4.571 l 2.844,-0.36 V 501.46 L 359.8,501.1 v -4.572 h 12.131 c 6.119,0 12.13,3.24 12.13,12.203 0,9.826 -5.938,12.563 -11.554,12.563 H 359.8 Z m 11.231,-5.111 c 4.212,0 6.768,-1.619 6.768,-7.451 0,-4.967 -2.664,-7.091 -7.235,-7.091 h -1.728 v 14.542 z" id="path220" />
        <path fill="#ffffff" d="m 403.287,501.496 -2.844,-0.396 v -4.572 h 11.519 v 4.572 l -2.844,0.396 v 10.689 c 0,6.264 -3.743,9.359 -10.366,9.359 -6.623,0 -10.511,-3.096 -10.511,-9.359 v -10.689 l -2.844,-0.396 v -4.572 h 11.879 v 4.572 l -2.844,0.396 v 10.294 c 0,1.944 0.792,4.571 4.319,4.571 2.879,0 4.535,-2.051 4.535,-4.391 v -10.474 z" id="path222" />
        <path fill="#ffffff" d="m 420.676,521.293 v -4.571 l 2.844,-0.36 V 501.46 l -2.844,-0.359 v -4.572 h 10.295 c 7.091,0 10.654,1.729 10.654,6.66 0,4.211 -2.664,5.003 -3.635,5.291 v 0.288 c 1.764,0.216 5.398,1.188 5.398,5.759 0,4.248 -2.483,6.768 -10.043,6.768 h -12.669 z m 12.059,-14.723 c 1.656,0 2.627,-0.971 2.627,-2.447 0,-1.764 -1.403,-2.483 -2.987,-2.483 h -2.663 v 4.931 h 3.023 z m -3.024,4.645 v 4.967 h 3.924 c 2.52,0 3.49,-0.684 3.49,-2.447 0,-1.584 -1.223,-2.52 -2.986,-2.52 z" id="path224" />
        <path fill="#ffffff" d="m 468.374,516.361 2.52,0.36 v 4.571 h -11.158 v -4.571 l 2.699,-0.36 -0.9,-2.375 h -8.387 l -0.9,2.375 2.7,0.36 v 4.571 h -10.979 v -4.571 l 2.52,-0.36 5.651,-14.902 -3.168,-0.18 v -4.752 h 11.879 z m -10.151,-11.194 c -0.252,-0.647 -0.793,-2.196 -0.793,-2.196 h -0.18 c 0,0 -0.54,1.549 -0.792,2.196 l -1.548,4.104 h 4.859 z" id="path226" />
        <path fill="#ffffff" d="m 472.227,521.293 v -4.571 l 2.844,-0.36 V 501.46 l -2.844,-0.359 v -4.572 h 12.131 c 6.119,0 12.131,3.24 12.131,12.203 0,9.826 -5.939,12.563 -11.555,12.563 h -12.707 z m 11.231,-5.111 c 4.212,0 6.768,-1.619 6.768,-7.451 0,-4.967 -2.664,-7.091 -7.234,-7.091 h -1.729 v 14.542 z" id="path228" />
        <path fill="#ffffff" d="m 520.069,512.618 c 0,3.708 -2.052,8.927 -10.402,8.927 -6.804,0 -11.051,-3.924 -11.051,-12.67 0,-8.676 4.283,-12.563 11.051,-12.563 8.351,0 10.402,4.355 10.402,7.486 0,1.116 -0.252,1.872 -0.252,1.872 l -5.867,0.54 c 0,0 0.145,-0.54 0.145,-1.296 0,-1.476 -0.937,-3.456 -4.104,-3.456 -2.844,0 -5.111,1.801 -5.111,7.523 0,5.651 2.482,7.379 5.326,7.379 2.736,0 3.744,-1.188 3.852,-3.203 l -3.491,-0.36 v -4.212 h 9.503 v 4.033 z" id="path230" />
        <path fill="#ffffff" d="m 522.555,521.293 v -4.571 l 2.808,-0.36 V 501.46 l -2.808,-0.359 v -4.572 h 20.409 l 0.144,8.676 H 538.5 l -0.539,-3.563 h -6.407 v 4.787 h 5.363 v 4.932 h -5.363 v 4.823 h 6.335 l 0.54,-3.563 h 4.607 l -0.252,8.675 h -20.229 z" id="path232" />
        <path fill="#ffffff" d="m 552.686,521.293 v -4.571 l 2.844,-0.36 v -14.865 l -2.844,-0.396 v -4.572 h 11.879 v 4.572 l -2.844,0.396 v 14.865 l 2.844,0.36 v 4.571 z" id="path234" />
        <path fill="#ffffff" d="m 582.168,512.546 v -0.684 l 5.976,1.224 v 0.611 c 0,3.276 -2.088,7.848 -10.583,7.848 -6.695,0 -10.87,-3.924 -10.87,-12.67 0,-8.676 4.283,-12.563 11.05,-12.563 8.352,0 10.403,4.787 10.403,8.207 0,1.115 -0.252,1.871 -0.252,1.871 l -5.867,0.721 c 0,0 0.144,-0.612 0.144,-1.477 0,-1.764 -0.936,-4.176 -4.104,-4.176 -2.844,0 -5.111,1.801 -5.111,7.523 0,5.651 2.412,7.379 5.147,7.379 3.096,10e-4 4.067,-1.438 4.067,-3.814 z" id="path236" />
        <path fill="#ffffff" d="m 590.45,521.293 v -4.571 l 2.844,-0.36 v -14.865 l -2.844,-0.396 v -4.572 h 11.879 v 4.572 l -2.844,0.396 v 14.865 l 2.844,0.36 v 4.571 z" id="path238" />
      </g>
    </g>
  </g>
  <g style="display:inline" id="layer1">
    <g id="picto_titre_badge" transform="translate(-0.85381069,-0.16499)" style="display:inline">
      <path id="path205" d="m 363.83,298.987 c 6.839,6.566 15.277,11.791 25.084,15.525 9.802,3.74 21.308,5.637 34.2,5.637 12.717,0 24.181,-1.896 34.066,-5.637 9.894,-3.734 18.376,-8.957 25.212,-15.525 6.844,-6.574 12.201,-14.361 15.921,-23.143 1.628,-3.846 2.979,-7.928 4.022,-12.148 H 452.24 c -1.32,2.272 -2.651,4.158 -4.063,5.75 -5.457,6.156 -13.89,9.279 -25.063,9.279 -13.571,0 -17.24,-0.455 -25.189,-9.275 -1.438,-1.586 -2.755,-3.424 -4.119,-5.754 h -49.921 c 1.038,4.203 2.393,8.285 4.034,12.146 3.72,8.794 9.073,16.579 15.911,23.145 z" stroke-miterlimit="10" stroke="#ffffff" fill="#ffffff" />
      <path id="path207" d="m 503.718,409.278 c -0.522,-9.941 -2.679,-19.449 -6.406,-28.25 -3.718,-8.766 -9.071,-16.496 -15.915,-22.977 -6.833,-6.473 -15.321,-11.697 -25.223,-15.527 -9.897,-3.822 -21.356,-5.762 -34.062,-5.762 -12.875,0 -24.381,1.939 -34.193,5.76 -9.814,3.834 -18.259,9.059 -25.095,15.529 -6.838,6.469 -12.189,14.203 -15.906,22.977 -3.729,8.789 -5.888,18.295 -6.412,28.256 -0.363,7.873 -0.524,33.047 -0.524,41.287 0,0.611 0.008,1.195 0.017,1.783 l 0.004,0.186 h 46.762 l -0.005,-0.352 c -0.011,-0.713 -0.024,-1.424 -0.024,-2.158 0,-3.904 0.047,-25.098 0.142,-29.025 0.095,-4.07 0.311,-7.52 0.657,-10.539 0.357,-4.543 1.316,-8.836 2.848,-12.721 1.539,-3.898 3.748,-7.336 6.569,-10.221 2.821,-2.893 6.362,-5.203 10.516,-6.867 4.151,-1.662 9.077,-2.506 14.646,-2.506 5.568,0 10.497,0.844 14.647,2.506 4.145,1.662 7.686,3.973 10.523,6.865 2.813,2.893 5.02,6.328 6.56,10.221 1.526,3.881 2.484,8.172 2.848,12.76 0.179,3.105 0.355,6.586 0.536,10.477 0.17,3.943 0.255,25.145 0.255,29.051 0,0.643 -0.018,1.27 -0.036,1.895 -0.006,0.205 -0.012,0.408 -0.018,0.615 h 46.806 l 0.002,-0.236 c 0.009,-0.57 0.017,-1.139 0.017,-1.732 -0.002,-8.859 -0.181,-33.59 -0.536,-41.295 z" stroke-miterlimit="10" stroke="#ffffff" fill="#ffffff" />
    </g>
  </g>
</svg>
