<?xml version="1.0" encoding="UTF-8" standalone="no"?>
<svg
   xmlns:dc="http://purl.org/dc/elements/1.1/"
   xmlns:cc="http://creativecommons.org/ns#"
   xmlns:rdf="http://www.w3.org/1999/02/22-rdf-syntax-ns#"
   xmlns:svg="http://www.w3.org/2000/svg"
   xmlns="http://www.w3.org/2000/svg"
   id="svg235"
   xml:space="preserve"
   enable-background="new 0 0 850.394 841.89"
   viewBox="0 0 850.00002 849.99999"
   height="100%"
   width="100%"
   y="0px"
   x="0px"
   version="1.1"><metadata
   id="metadata241"><rdf:RDF><cc:Work
       rdf:about=""><dc:format>image/svg+xml</dc:format><dc:type
         rdf:resource="http://purl.org/dc/dcmitype/StillImage" /><dc:title></dc:title></cc:Work></rdf:RDF></metadata><defs
   id="defs239" />
<g
   style="display:inline"
   id="layer12"
   transform="translate(-0.57932694)"><g
     id="filet_separation_theme"
     style="fill:#000000;fill-opacity:1;stroke:#000000"><line
       fill="none"
       stroke="#1B3761"
       stroke-miterlimit="10"
       x1="424.061"
       y1="572.62"
       x2="424.061"
       y2="610.40302"
       id="line27"
       style="fill:#000000;fill-opacity:1;stroke:#000000" /></g></g><g
   id="layer14"
   style="display:inline"
   transform="translate(-0.57932694)"><g
     id="filet_3_posture-3"
     style="display:inline;fill:#ffffff;stroke:none"><path
       fill="none"
       stroke="#009eb9"
       stroke-width="3"
       stroke-miterlimit="10"
       d="m 778.218,417.349 c -0.048,4.907 -0.524,10.207 -1.412,13.588 L 739.778,583.07 c -0.714,2.703 -4.982,6.897 -7.498,7.364 l -293.727,59.811 c -3.307,0.609 -8.156,0.963 -13.25,0.963 v 0 c -5.091,0 -9.939,-0.354 -13.247,-0.963 L 118.327,590.434 c -2.514,-0.467 -6.783,-4.661 -7.497,-7.364 L 73.802,430.937 c -0.886,-3.381 -1.362,-8.681 -1.411,-13.588 v 0 c 0.048,-4.907 0.524,-10.208 1.411,-13.589 l 37.029,-152.134 c 0.713,-2.704 4.982,-6.898 7.497,-7.364 l 293.729,-59.811 c 3.308,-0.61 8.156,-0.961 13.247,-0.961 v 0 c 5.093,0 9.943,0.352 13.25,0.961 l 293.727,59.811 c 2.516,0.466 6.784,4.661 7.498,7.364 l 37.028,152.134 c 0.886,3.381 1.363,8.681 1.411,13.589 z"
       id="path192-5"
       style="fill:#ffffff;stroke:none" /></g></g><g
   style="display:inline"
   id="layer13" /><g
   style="display:inline"
   id="layer11"
   transform="translate(-0.57932694)"><g
     id="picto_theme"><g
       id="g34"><path
         fill="none"
         stroke="#000000"
         stroke-width="2"
         stroke-miterlimit="10"
         d="m 483.586,569.018 c 2.246,2.157 5.02,3.875 8.242,5.102 3.221,1.229 7.001,1.853 11.237,1.853 4.179,0 7.946,-0.623 11.194,-1.853 3.25,-1.227 6.038,-2.943 8.285,-5.102 2.248,-2.159 4.009,-4.719 5.23,-7.604 0.535,-1.265 0.979,-2.605 1.322,-3.992 h -16.461 c -0.434,0.747 -0.871,1.367 -1.335,1.889 -1.794,2.023 -4.565,3.05 -8.236,3.05 -4.46,0 -5.665,-0.149 -8.276,-3.048 -0.473,-0.521 -0.906,-1.125 -1.354,-1.891 H 477.03 c 0.341,1.382 0.786,2.724 1.325,3.991 1.223,2.889 2.983,5.447 5.231,7.605 z"
         id="path30" /><path
         fill="none"
         stroke="#000000"
         stroke-width="2"
         stroke-miterlimit="10"
         d="m 529.881,605.259 c -0.173,-3.267 -0.881,-6.391 -2.105,-9.282 -1.222,-2.881 -2.98,-5.422 -5.23,-7.551 -2.244,-2.127 -5.033,-3.843 -8.287,-5.102 -3.252,-1.256 -7.018,-1.894 -11.192,-1.894 -4.231,0 -8.013,0.638 -11.235,1.893 -3.226,1.26 -6,2.977 -8.246,5.103 -2.248,2.127 -4.006,4.668 -5.228,7.551 -1.226,2.889 -1.935,6.011 -2.106,9.284 -0.119,2.587 -0.173,10.858 -0.173,13.566 0,0.202 0.003,0.393 0.006,0.587 l 0.001,0.061 h 15.365 l -0.001,-0.116 c -0.004,-0.233 -0.008,-0.467 -0.008,-0.709 0,-1.283 0.015,-8.247 0.046,-9.537 0.031,-1.337 0.102,-2.471 0.217,-3.463 0.117,-1.493 0.432,-2.904 0.936,-4.181 0.506,-1.28 1.23,-2.41 2.159,-3.358 0.927,-0.949 2.09,-1.709 3.454,-2.256 1.364,-0.546 2.983,-0.823 4.813,-0.823 1.829,0 3.448,0.277 4.813,0.823 1.361,0.546 2.525,1.306 3.457,2.255 0.924,0.951 1.649,2.08 2.155,3.358 0.501,1.276 0.816,2.687 0.936,4.194 0.06,1.02 0.118,2.163 0.177,3.441 0.056,1.296 0.084,8.262 0.084,9.546 0,0.212 -0.006,0.418 -0.012,0.624 -0.002,0.066 -0.004,0.133 -0.006,0.201 h 15.379 l 0.001,-0.078 c 0.003,-0.187 0.006,-0.373 0.006,-0.569 -10e-4,-2.91 -0.061,-11.035 -0.176,-13.568 z"
         id="path32" /></g></g></g><g
   style="display:inline"
   id="layer10"
   transform="translate(-0.57932694)"><g
     id="texte_picto_theme"><g
       id="g57"><path
         d="m 450.22,536.49 h -3.798 v 10.026 h -3.204 V 536.49 h -3.763 v -2.592 h 10.765 z"
         id="path37" /><path
         d="m 461.451,536.437 h -6.66 v 2.502 h 6.013 v 2.521 h -6.013 v 2.537 h 6.858 v 2.521 h -10.062 v -12.601 h 9.863 v 2.52 z"
         id="path39" /><path
         d="m 471.027,539.929 4.518,6.588 h -3.834 l -2.717,-4.015 -2.719,4.015 h -3.727 l 4.5,-6.444 -4.211,-6.156 h 3.726 l 2.431,3.672 2.43,-3.672 h 3.762 z"
         id="path41" /><path
         d="m 486.562,536.49 h -3.798 v 10.026 H 479.56 V 536.49 h -3.763 v -2.592 h 10.765 z"
         id="path43" /><path
         d="m 497.793,536.437 h -6.66 v 2.502 h 6.013 v 2.521 h -6.013 v 2.537 h 6.858 v 2.521 H 487.93 v -12.601 h 9.863 z"
         id="path45" /><path
         d="m 513.867,536.49 h -3.799 v 10.026 h -3.203 V 536.49 h -3.762 v -2.592 h 10.764 z"
         id="path47" /><path
         d="m 526.863,546.517 h -3.204 v -4.896 h -5.22 v 4.896 h -3.205 v -12.601 h 3.205 v 5.185 h 5.22 v -5.185 h 3.204 z"
         id="path49" /><path
         d="m 539.247,536.437 h -6.66 v 2.502 h 6.013 v 2.521 h -6.013 v 2.537 h 6.858 v 2.521 h -10.063 v -12.601 h 9.864 v 2.52 z m -3.311,-3.619 h -2.377 l -2.34,-2.033 2.809,-0.99 z"
         id="path51" /><path
         d="m 555.357,546.517 h -2.826 l -0.019,-8.19 -3.024,6.931 H 547.4 l -3.023,-6.931 v 8.19 h -2.862 v -12.618 h 3.511 l 3.42,7.506 3.42,-7.506 h 3.492 v 12.618 z"
         id="path53" /><path
         d="m 567.759,536.437 h -6.66 v 2.502 h 6.013 v 2.521 h -6.013 v 2.537 h 6.858 v 2.521 h -10.063 v -12.601 h 9.864 v 2.52 z"
         id="path55" /></g></g></g><g
   style="display:inline"
   id="layer9"
   transform="translate(-0.57932694)"><g
     id="picto_categorie"><g
       id="g68"><path
         fill="none"
         stroke="#000000"
         stroke-width="2"
         stroke-linecap="round"
         stroke-miterlimit="10"
         d="m 320.535,578.077 c 0,-14.545 13.305,-20.858 21.761,-20.858 8.456,0 21.31,7.668 21.31,20.634 0,12.966 -21.422,38.898 -21.422,38.898 0,0 -21.649,-28.414 -21.649,-38.674 z"
         id="path60" /><polygon
         fill="none"
         stroke="#000000"
         stroke-width="2"
         stroke-linecap="round"
         stroke-linejoin="round"
         stroke-miterlimit="10"
         points="333.456,590.849 335.08,581.381 328.202,574.678 337.707,573.296 341.958,564.683 346.208,573.296 355.713,574.678 348.835,581.381 350.459,590.849 341.958,586.378 "
         id="polygon62" /><ellipse
         fill="none"
         stroke="#000000"
         stroke-width="2"
         stroke-linecap="round"
         stroke-linejoin="round"
         stroke-miterlimit="10"
         cx="344.11801"
         cy="577.90601"
         rx="1.13"
         ry="1.854"
         id="ellipse64" /><ellipse
         fill="none"
         stroke="#000000"
         stroke-width="2"
         stroke-linecap="round"
         stroke-linejoin="round"
         stroke-miterlimit="10"
         cx="339.655"
         cy="577.90601"
         rx="1.13"
         ry="1.854"
         id="ellipse66" /></g></g></g><g
   style="display:inline"
   id="layer8"
   transform="translate(-0.57932694)"><g
     id="texte_picto_categorie"><g
       id="g91"><path
         d="m 294.144,536.437 h -6.66 v 2.502 h 6.012 v 2.521 h -6.012 v 2.537 h 6.858 v 2.521 H 284.28 v -12.601 h 9.864 z"
         id="path71" /><path
         d="m 303.72,539.929 4.518,6.588 h -3.834 l -2.718,-4.015 -2.718,4.015 h -3.726 l 4.5,-6.444 -4.212,-6.156 h 3.726 l 2.43,3.672 2.43,-3.672 h 3.762 z"
         id="path73" /><path
         d="m 309.624,533.916 h 5.49 c 1.608,0 2.856,0.382 3.744,1.144 0.888,0.763 1.332,1.845 1.332,3.249 0,1.477 -0.444,2.622 -1.332,3.438 -0.888,0.816 -2.136,1.225 -3.744,1.225 h -2.286 v 3.546 h -3.204 z m 3.204,2.521 v 4.015 h 2.124 c 0.708,0 1.254,-0.174 1.638,-0.522 0.384,-0.349 0.576,-0.853 0.576,-1.513 0,-0.647 -0.192,-1.139 -0.576,-1.476 -0.384,-0.335 -0.93,-0.504 -1.638,-0.504 z"
         id="path75" /><path
         d="m 331.728,536.437 h -6.66 v 2.502 h 6.012 v 2.521 h -6.012 v 2.537 h 6.858 v 2.521 h -10.062 v -12.601 h 9.864 z m -1.728,-5.652 -2.34,2.033 h -2.376 l 1.908,-3.023 z"
         id="path77" /><path
         d="m 341.591,546.517 -1.872,-3.546 h -0.09 -2.43 v 3.546 h -3.204 v -12.601 h 5.634 c 1.668,0 2.958,0.382 3.87,1.144 0.912,0.763 1.368,1.845 1.368,3.249 0,1.943 -0.762,3.294 -2.286,4.05 l 2.646,4.158 z m -4.392,-6.066 h 2.43 c 0.696,0 1.236,-0.174 1.62,-0.522 0.384,-0.349 0.576,-0.853 0.576,-1.513 0,-0.647 -0.192,-1.139 -0.576,-1.476 -0.384,-0.335 -0.924,-0.504 -1.62,-0.504 h -2.43 z"
         id="path79" /><path
         d="m 350.231,546.517 h -3.204 v -12.601 h 3.204 z"
         id="path81" /><path
         d="m 362.615,536.437 h -6.66 v 2.502 h 6.012 v 2.521 h -6.012 v 2.537 h 6.858 v 2.521 h -10.062 v -12.601 h 9.864 z"
         id="path83" /><path
         d="m 376.511,546.517 h -2.826 l -5.796,-7.758 v 7.758 h -3.006 v -12.601 h 2.826 l 5.814,7.776 v -7.776 h 2.988 z"
         id="path85" /><path
         d="m 384.935,533.809 c 0.936,0 1.857,0.191 2.763,0.576 0.906,0.384 1.677,0.9 2.313,1.548 l -1.854,2.196 c -0.408,-0.504 -0.897,-0.903 -1.467,-1.197 -0.57,-0.294 -1.137,-0.441 -1.701,-0.441 -0.996,0 -1.83,0.352 -2.502,1.053 -0.672,0.703 -1.008,1.57 -1.008,2.602 0,1.057 0.336,1.938 1.008,2.646 0.672,0.708 1.506,1.062 2.502,1.062 0.528,0 1.077,-0.132 1.647,-0.396 0.569,-0.264 1.077,-0.624 1.521,-1.08 l 1.872,1.979 c -0.684,0.696 -1.491,1.255 -2.421,1.675 -0.93,0.42 -1.857,0.629 -2.781,0.629 -1.896,0 -3.474,-0.617 -4.734,-1.854 -1.26,-1.236 -1.89,-2.777 -1.89,-4.626 0,-1.812 0.642,-3.327 1.926,-4.545 1.284,-1.218 2.886,-1.827 4.806,-1.827 z"
         id="path87" /><path
         d="m 401.351,536.437 h -6.66 v 2.502 h 6.012 v 2.521 h -6.012 v 2.537 h 6.858 v 2.521 h -10.062 v -12.601 h 9.864 z"
         id="path89" /></g></g></g><g
   style="display:inline"
   id="layer7"
   transform="translate(-0.57932694)"><g
     id="fond_categorie"><path
       fill="#b7d5e2"
       d="m 122.131,510.782 h 606.346 l 19.441,-88.216 c 0.112,-0.707 0.309,-2.563 0.348,-4.93 -0.039,-2.365 -0.235,-4.22 -0.348,-4.927 L 714.225,274.286 433.427,217.107 c -1.096,-0.181 -3.97,-0.479 -8.124,-0.479 -4.151,0 -7.025,0.298 -8.123,0.479 L 136.383,274.286 102.691,412.71 c -0.112,0.707 -0.31,2.562 -0.349,4.927 0.039,2.367 0.236,4.223 0.349,4.93 z"
       id="path94" /></g></g><g
   style="display:inline"
   id="layer6"
   transform="translate(-0.57932694)"><g
     id="picto_posture"><g
       id="g177"><g
         id="g175"><g
           id="g173"><g
             id="g171"><g
               id="g169"><g
                 id="g99"><polygon
                   fill="#14110d"
                   points="445.125,185.223 446.396,185.223 446.355,185.135 445.125,185.135 "
                   id="polygon97" /></g><g
                 id="g103"><polygon
                   fill="#14110d"
                   points="405.794,185.223 405.794,185.135 404.808,185.135 404.765,185.223 "
                   id="polygon101" /></g><rect
                 x="456.71201"
                 y="102.734"
                 transform="matrix(0.8659,-0.5003,0.5003,0.8659,9.663,242.6305)"
                 fill="#473467"
                 width="1.123"
                 height="1.124"
                 id="rect105" /><rect
                 x="457.83499"
                 y="104.681"
                 transform="matrix(0.4991,0.8665,-0.8665,0.4991,320.7916,-344.5001)"
                 fill="#473467"
                 width="1.123"
                 height="1.124"
                 id="rect107" /><rect
                 x="457.42401"
                 y="106.216"
                 transform="matrix(-0.8663,0.4996,-0.4996,-0.8663,908.0654,-29.5339)"
                 fill="#473467"
                 width="1.124"
                 height="1.124"
                 id="rect109" /><rect
                 x="458.95901"
                 y="106.627"
                 transform="matrix(0.8659,-0.5003,0.5003,0.8659,8.0169,244.2769)"
                 fill="#473467"
                 width="1.123"
                 height="1.123"
                 id="rect111" /><rect
                 x="460.08301"
                 y="108.573"
                 transform="matrix(0.8661,-0.4999,0.4999,0.8661,7.135,244.9035)"
                 fill="#473467"
                 width="1.124"
                 height="1.124"
                 id="rect113" /><rect
                 x="461.207"
                 y="110.52"
                 transform="matrix(0.8663,-0.4996,0.4996,0.8663,6.2617,245.5545)"
                 fill="#473467"
                 width="1.124"
                 height="1.124"
                 id="rect115" /><rect
                 x="384.58499"
                 y="150.864"
                 transform="matrix(0.4998,0.8661,-0.8661,0.4998,323.8141,-257.8494)"
                 fill="#473467"
                 width="1.124"
                 height="1.124"
                 id="rect117" /><rect
                 x="384.99701"
                 y="149.32899"
                 transform="matrix(0.8662,-0.4997,0.4997,0.8662,-23.3097,212.7359)"
                 fill="#473467"
                 width="1.125"
                 height="1.124"
                 id="rect119" /><rect
                 x="386.53201"
                 y="149.741"
                 transform="matrix(0.5008,0.8656,-0.8656,0.5008,323.3516,-260.0257)"
                 fill="#473467"
                 width="1.124"
                 height="1.123"
                 id="rect121" /><rect
                 x="413.93201"
                 y="136.517"
                 transform="matrix(-0.4998,-0.8661,0.8661,-0.4998,502.9214,564.6017)"
                 fill="#473467"
                 width="1.124"
                 height="1.124"
                 id="rect123" /><rect
                 x="415.87799"
                 y="135.39301"
                 transform="matrix(-0.5004,-0.8658,0.8658,-0.5004,507.1357,564.5336)"
                 fill="#473467"
                 width="1.124"
                 height="1.124"
                 id="rect125" /><rect
                 x="417.82501"
                 y="134.269"
                 transform="matrix(-0.5001,-0.866,0.866,-0.5001,510.8679,564.5676)"
                 fill="#473467"
                 width="1.124"
                 height="1.124"
                 id="rect127" /><rect
                 x="419.76999"
                 y="133.146"
                 transform="matrix(-0.5001,-0.866,0.866,-0.5001,514.7596,564.5667)"
                 fill="#473467"
                 width="1.124"
                 height="1.123"
                 id="rect129" /><rect
                 x="421.71701"
                 y="132.021"
                 transform="matrix(-0.4998,-0.8661,0.8661,-0.4998,518.4907,564.6035)"
                 fill="#473467"
                 width="1.124"
                 height="1.125"
                 id="rect131" /><rect
                 x="423.664"
                 y="130.897"
                 transform="matrix(-0.4998,-0.8661,0.8661,-0.4998,522.3833,564.6035)"
                 fill="#473467"
                 width="1.124"
                 height="1.125"
                 id="rect133" /><rect
                 x="425.60999"
                 y="129.774"
                 transform="matrix(-0.4995,-0.8663,0.8663,-0.4995,526.1123,564.6421)"
                 fill="#473467"
                 width="1.123"
                 height="1.125"
                 id="rect135" /><rect
                 x="427.556"
                 y="128.651"
                 transform="matrix(-0.4998,-0.8661,0.8661,-0.4998,530.1675,564.6044)"
                 fill="#473467"
                 width="1.124"
                 height="1.123"
                 id="rect137" /><rect
                 x="429.50201"
                 y="127.527"
                 transform="matrix(-0.5004,-0.8658,0.8658,-0.5004,534.3891,564.5267)"
                 fill="#473467"
                 width="1.124"
                 height="1.123"
                 id="rect139" /><rect
                 x="431.44901"
                 y="126.403"
                 transform="matrix(-0.4996,-0.8663,0.8663,-0.4996,537.858,564.6284)"
                 fill="#473467"
                 width="1.124"
                 height="1.124"
                 id="rect141" /><rect
                 x="433.39499"
                 y="125.279"
                 transform="matrix(-0.5004,-0.8658,0.8658,-0.5004,542.1755,564.5245)"
                 fill="#473467"
                 width="1.124"
                 height="1.123"
                 id="rect143" /><rect
                 x="435.34201"
                 y="124.156"
                 transform="matrix(-0.4991,-0.8665,0.8665,-0.4991,545.4061,564.6891)"
                 fill="#473467"
                 width="1.123"
                 height="1.123"
                 id="rect145" /><rect
                 x="437.28799"
                 y="123.032"
                 transform="matrix(-0.5004,-0.8658,0.8658,-0.5004,549.9618,564.5226)"
                 fill="#473467"
                 width="1.124"
                 height="1.123"
                 id="rect147" /><rect
                 x="439.23499"
                 y="121.907"
                 transform="matrix(-0.4991,-0.8665,0.8665,-0.4991,553.1907,564.6936)"
                 fill="#473467"
                 width="1.123"
                 height="1.125"
                 id="rect149" /><rect
                 x="441.181"
                 y="120.784"
                 transform="matrix(-0.4996,-0.8663,0.8663,-0.4996,557.3192,564.6331)"
                 fill="#473467"
                 width="1.124"
                 height="1.123"
                 id="rect151" /><rect
                 x="443.12799"
                 y="119.66"
                 transform="matrix(-0.4991,-0.8665,0.8665,-0.4991,560.9738,564.6973)"
                 fill="#473467"
                 width="1.123"
                 height="1.125"
                 id="rect153" /><rect
                 x="445.07401"
                 y="118.537"
                 transform="matrix(-0.4998,-0.8661,0.8661,-0.4998,565.2006,564.6095)"
                 fill="#473467"
                 width="1.124"
                 height="1.124"
                 id="rect155" /><rect
                 x="447.01999"
                 y="117.413"
                 transform="matrix(-0.5004,-0.8658,0.8658,-0.5004,569.4291,564.5183)"
                 fill="#473467"
                 width="1.124"
                 height="1.123"
                 id="rect157" /><rect
                 x="448.965"
                 y="116.289"
                 transform="matrix(-0.5004,-0.8658,0.8658,-0.5004,573.3209,564.5163)"
                 fill="#473467"
                 width="1.124"
                 height="1.123"
                 id="rect159" /><rect
                 x="450.91299"
                 y="115.166"
                 transform="matrix(-0.5004,-0.8658,0.8658,-0.5004,577.2156,564.5161)"
                 fill="#473467"
                 width="1.124"
                 height="1.123"
                 id="rect161" /><rect
                 x="452.85901"
                 y="114.041"
                 transform="matrix(-0.4998,-0.8661,0.8661,-0.4998,580.7701,564.6109)"
                 fill="#473467"
                 width="1.124"
                 height="1.124"
                 id="rect163" /><polygon
                 fill="#473467"
                 points="424.13,125.676 423.568,124.703 421.621,125.826 422.746,127.772 423.719,127.211 424.281,128.184 429.146,125.375 428.022,123.428 "
                 id="polygon165" /><path
                 fill="#473467"
                 d="m 474.365,107.053 0.973,-0.562 -6.742,-11.678 -0.974,0.562 -1.124,-1.946 -14.598,8.428 1.123,1.947 -31.141,17.979 -0.562,-0.973 1.947,-1.124 -0.563,-0.973 4.866,-2.81 0.562,0.973 2.92,-1.686 -2.81,-4.866 -2.92,1.686 0.563,0.973 -5.136,2.965 c -0.672,-0.385 -1.519,-0.42 -2.238,-0.005 -0.718,0.415 -1.112,1.167 -1.115,1.941 l -7.082,4.089 -0.562,-0.973 -3.893,2.248 2.81,4.866 3.893,-2.248 -0.562,-0.972 4.866,-2.81 0.562,0.973 -1.946,1.124 0.562,0.973 4.783,-2.761 -14.515,8.38 1.686,2.919 -23.357,13.485 -1.124,-1.946 -1.946,1.124 -1.123,-1.946 0.972,-0.562 -1.124,-1.947 -4.866,2.81 1.124,1.946 0.974,-0.562 1.123,1.946 1.124,1.947 3.371,5.839 25.304,-14.609 0.562,0.974 2.919,-1.686 1.124,1.946 6.813,-3.933 1.124,1.946 0.973,-0.562 0.563,0.974 0.365,-0.21 c -0.021,0.148 -0.046,0.296 -0.046,0.451 0,0.255 0.036,0.501 0.092,0.739 l -20.593,43.368 h -2.167 v 2.248 h 1.259 l 2.112,-1.567 0.31,-0.769 h 0.951 l 19.702,-41.183 c 0.126,0.072 0.251,0.143 0.388,0.198 v 33.629 h -1.125 v 2.248 h 1.125 2.247 1.124 v -2.248 h -1.124 v -33.57 c 0.107,-0.035 0.213,-0.067 0.315,-0.113 l 18.896,41.038 h 0.869 l 0.283,0.769 2.111,1.567 h 1.125 v -2.248 h -1.953 l -19.613,-42.967 c 0.133,-0.356 0.215,-0.737 0.215,-1.14 0,-0.101 -0.021,-0.197 -0.029,-0.295 l 1.66,-0.958 -1.125,-1.947 0.975,-0.562 -0.563,-0.973 3.893,-2.248 -0.563,-0.973 0.975,-0.562 -1.125,-1.946 26.277,-15.17 1.123,1.946 14.594,-8.428 z m -65.846,18.553 -1.125,-1.946 0.974,-0.562 1.124,1.946 z m 19.313,-13.746 1.123,1.946 -0.973,0.562 -1.125,-1.946 z m -7.635,7.003 v 0 0 l -7.787,4.495 -0.562,-0.973 6.813,-3.933 c -0.31,-0.538 -0.126,-1.225 0.411,-1.535 0.538,-0.311 1.225,-0.126 1.535,0.411 l 4.866,-2.809 0.562,0.973 z m -36.228,33.893 -0.563,-0.973 0.974,-0.562 -0.562,-0.973 -0.974,0.562 26.276,-15.17 1.123,1.947 z m 38.967,-13.415 -1.685,-2.92 0.972,-0.562 1.66,2.875 c -0.048,0.046 -0.097,0.093 -0.143,0.142 z m 32.787,-24.12 -0.561,-0.973 -0.974,0.562 0.563,0.973 -0.974,0.562 -0.563,-0.973 -0.973,0.562 0.563,0.973 -0.974,0.562 -0.562,-0.974 -0.975,0.562 0.563,0.973 -0.973,0.562 -0.563,-0.973 -0.973,0.562 0.561,0.973 -0.972,0.562 -0.562,-0.973 -0.974,0.562 0.562,0.973 -0.973,0.562 -0.563,-0.973 -0.973,0.562 0.562,0.974 -0.974,0.562 -0.563,-0.973 -0.973,0.562 0.563,0.973 -0.973,0.562 -0.563,-0.973 -0.973,0.562 0.562,0.973 -0.974,0.562 -0.563,-0.973 -0.973,0.562 0.563,0.973 -0.974,0.562 -0.562,-0.974 -0.975,0.562 0.563,0.973 -0.973,0.562 -0.563,-0.973 -0.973,0.562 0.563,0.973 -0.974,0.562 -0.562,-0.973 -0.974,0.562 0.562,0.973 -0.973,0.562 -0.563,-0.973 -0.973,0.562 0.563,0.973 -0.975,0.562 -0.561,-0.973 -0.975,0.562 0.563,0.973 -0.973,0.562 -0.563,-0.974 -0.973,0.562 0.562,0.973 -0.973,0.562 -0.563,-0.973 -0.972,0.562 0.562,0.974 -0.973,0.562 -0.563,-0.973 -0.972,0.562 0.561,0.973 -0.973,0.562 -0.562,-0.973 -0.974,0.562 0.563,0.974 -0.972,0.562 -0.563,-0.973 -0.973,0.562 0.561,0.973 -0.973,0.562 -0.562,-0.974 -0.973,0.562 0.562,0.974 -0.974,0.562 -0.561,-0.973 -0.973,0.562 0.562,0.973 -0.974,0.562 -0.561,-0.974 -0.974,0.562 0.563,0.973 v 0 l -4.496,-7.785 42.821,-24.723 1.124,1.946 -20.438,11.799 0.563,0.973 20.436,-11.799 1.686,2.919 -0.973,0.562 0.563,0.974 0.973,-0.562 0.563,0.973 z m 7.937,-1.987 -0.563,-0.973 -0.973,0.562 0.561,0.973 -0.973,0.562 -0.562,-0.973 0.974,-0.562 -0.563,-0.974 -0.973,0.562 0.031,0.054 -0.911,-1.577 0.317,0.55 0.974,-0.562 -0.562,-0.973 -0.975,0.562 -0.561,-0.973 0.973,-0.562 -0.563,-0.973 -0.973,0.562 -1.686,-2.92 0.974,-0.562 -0.562,-0.973 -0.975,0.562 -0.561,-0.973 0.973,-0.562 -0.563,-0.974 -0.973,0.562 10.705,-6.181 6.742,11.678 z"
                 id="path167" /></g></g></g></g></g></g></g><g
   style="display:inline"
   id="layer5"
   transform="translate(-0.57932694)"><g
     id="filet_1_categorie"><path
       fill="none"
       stroke="#473467"
       stroke-width="2"
       stroke-miterlimit="10"
       d="m 613.646,615.039 -26.793,46.406 c -9.047,15.669 -31.127,28.416 -49.221,28.416 H 312.695 c -18.093,0 -40.172,-12.747 -49.218,-28.416 L 236.956,615.51"
       id="path180" /><g
       id="g186"><path
         fill="none"
         stroke="#473467"
         stroke-width="2"
         stroke-miterlimit="10"
         d="m 495.48,149.588 h 42.152 c 18.094,0 40.176,12.749 49.221,28.421 l 23.39,40.511"
         id="path182" /><path
         fill="none"
         stroke="#473467"
         stroke-width="2"
         stroke-miterlimit="10"
         d="m 239.451,219.624 24.026,-41.614 c 9.045,-15.672 31.125,-28.421 49.218,-28.421 h 42.738"
         id="path184" /></g></g></g><g
   style="display:inline"
   id="layer4"
   transform="translate(-0.57932694)"><g
     id="filet_2_categorie"><path
       opacity="0.2"
       fill="none"
       stroke="#009eb9"
       stroke-width="27"
       stroke-miterlimit="10"
       d="m 777.906,417.349 c -0.049,4.907 -0.525,10.207 -1.412,13.588 L 739.465,583.07 c -0.713,2.703 -4.98,6.897 -7.497,7.364 L 438.24,650.245 c -3.306,0.608 -8.155,0.962 -13.248,0.962 v 0 c -5.091,0 -9.94,-0.354 -13.248,-0.962 L 118.016,590.433 c -2.515,-0.467 -6.783,-4.661 -7.498,-7.364 L 73.491,430.937 c -0.887,-3.381 -1.362,-8.681 -1.411,-13.588 v 0 c 0.049,-4.907 0.524,-10.208 1.411,-13.589 l 37.028,-152.134 c 0.714,-2.703 4.983,-6.898 7.498,-7.364 L 411.745,184.45 c 3.308,-0.608 8.157,-0.961 13.248,-0.961 v 0 c 5.093,0 9.942,0.353 13.248,0.961 l 293.728,59.812 c 2.517,0.466 6.784,4.661 7.497,7.364 l 37.029,152.134 c 0.886,3.381 1.362,8.681 1.411,13.589 z"
       id="path189" /></g></g><g
   style="display:inline"
   id="layer3"
   transform="translate(-0.57932694)"><g
     id="filet_3_posture"><path
       fill="none"
       stroke="#009eb9"
       stroke-width="3"
       stroke-miterlimit="10"
       d="m 778.218,417.349 c -0.048,4.907 -0.524,10.207 -1.412,13.588 L 739.778,583.07 c -0.714,2.703 -4.982,6.897 -7.498,7.364 l -293.727,59.811 c -3.307,0.609 -8.156,0.963 -13.25,0.963 v 0 c -5.091,0 -9.939,-0.354 -13.247,-0.963 L 118.327,590.434 c -2.514,-0.467 -6.783,-4.661 -7.497,-7.364 L 73.802,430.937 c -0.886,-3.381 -1.362,-8.681 -1.411,-13.588 v 0 c 0.048,-4.907 0.524,-10.208 1.411,-13.589 l 37.029,-152.134 c 0.713,-2.704 4.982,-6.898 7.497,-7.364 l 293.729,-59.811 c 3.308,-0.61 8.156,-0.961 13.247,-0.961 v 0 c 5.093,0 9.943,0.352 13.25,0.961 l 293.727,59.811 c 2.516,0.466 6.784,4.661 7.498,7.364 l 37.028,152.134 c 0.886,3.381 1.363,8.681 1.411,13.589 z"
       id="path192" /></g></g><g
   id="texte_posture"
   transform="translate(-0.57932694)">
	<g
   id="g24">
		<path
   id="path2"
   d="m 311.246,706.251 v 18.96 c 0,2.96 -0.86,5.268 -2.58,6.92 -1.72,1.654 -4.087,2.48 -7.1,2.48 -3.814,0 -7.027,-1.494 -9.641,-4.48 l 3.28,-4.76 c 2,2.08 3.96,3.12 5.88,3.12 2,0 3,-1.146 3,-3.44 v -13.039 h -9.6 v -5.761 z"
   fill="#473467" />
		<path
   id="path4"
   d="m 323.165,717.211 h -5.199 v -10.92 h 5.199 z"
   fill="#473467" />
		<path
   id="path6"
   d="m 348.966,729.131 h -12.24 l -2.04,5.16 h -7.32 l 12.08,-28 h 7.32 l 11.8,28 h -7.6 z m -2.08,-5.401 -4,-10.359 -4.08,10.359 z"
   fill="#473467" />
		<path
   id="path8"
   d="m 370.285,734.291 h -7.12 v -28 h 7.12 z"
   fill="#473467" />
		<path
   id="path10"
   d="m 407.766,729.131 h -12.24 l -2.04,5.16 h -7.32 l 12.08,-28 h 7.32 l 11.8,28 h -7.6 z m -2.08,-5.401 -4,-10.359 -4.08,10.359 z"
   fill="#473467" />
		<path
   id="path12"
   d="m 432.604,705.971 c 4.187,0 7.866,1.041 11.04,3.12 l -2.68,5.56 c -1.467,-0.853 -3.04,-1.553 -4.72,-2.1 -1.681,-0.546 -3.094,-0.82 -4.24,-0.82 -2.054,0 -3.08,0.681 -3.08,2.041 0,0.879 0.507,1.586 1.521,2.119 1.013,0.534 2.246,0.994 3.699,1.381 1.453,0.387 2.906,0.854 4.36,1.399 1.453,0.547 2.687,1.435 3.7,2.66 1.013,1.228 1.52,2.774 1.52,4.64 0,2.693 -1.054,4.794 -3.16,6.301 -2.106,1.506 -4.786,2.26 -8.039,2.26 -2.32,0 -4.614,-0.4 -6.881,-1.2 -2.267,-0.8 -4.239,-1.894 -5.92,-3.28 l 2.761,-5.48 c 1.413,1.228 3.079,2.234 5,3.021 1.92,0.787 3.626,1.181 5.119,1.181 1.146,0 2.04,-0.207 2.681,-0.621 0.64,-0.412 0.96,-1.02 0.96,-1.819 0,-0.772 -0.367,-1.42 -1.101,-1.94 -0.733,-0.52 -1.646,-0.906 -2.739,-1.16 -1.094,-0.252 -2.28,-0.593 -3.561,-1.02 -1.28,-0.426 -2.467,-0.893 -3.56,-1.4 -1.094,-0.506 -2.007,-1.313 -2.74,-2.42 -0.733,-1.105 -1.1,-2.433 -1.1,-3.979 0,-2.56 1.02,-4.606 3.06,-6.14 2.04,-1.534 4.741,-2.304 8.1,-2.304 z"
   fill="#473467" />
		<path
   id="path14"
   d="m 460.364,705.971 c 4.187,0 7.866,1.041 11.04,3.12 l -2.68,5.56 c -1.467,-0.853 -3.04,-1.553 -4.72,-2.1 -1.681,-0.546 -3.094,-0.82 -4.24,-0.82 -2.054,0 -3.08,0.681 -3.08,2.041 0,0.879 0.507,1.586 1.521,2.119 1.013,0.534 2.246,0.994 3.699,1.381 1.453,0.387 2.906,0.854 4.36,1.399 1.453,0.547 2.687,1.435 3.7,2.66 1.013,1.228 1.52,2.774 1.52,4.64 0,2.693 -1.054,4.794 -3.16,6.301 -2.106,1.506 -4.786,2.26 -8.039,2.26 -2.32,0 -4.614,-0.4 -6.881,-1.2 -2.267,-0.8 -4.239,-1.894 -5.92,-3.28 l 2.761,-5.48 c 1.413,1.228 3.079,2.234 5,3.021 1.92,0.787 3.626,1.181 5.119,1.181 1.146,0 2.04,-0.207 2.681,-0.621 0.64,-0.412 0.96,-1.02 0.96,-1.819 0,-0.772 -0.367,-1.42 -1.101,-1.94 -0.733,-0.52 -1.646,-0.906 -2.739,-1.16 -1.094,-0.252 -2.28,-0.593 -3.561,-1.02 -1.28,-0.426 -2.467,-0.893 -3.56,-1.4 -1.094,-0.506 -2.007,-1.313 -2.74,-2.42 -0.733,-1.105 -1.1,-2.433 -1.1,-3.979 0,-2.56 1.02,-4.606 3.06,-6.14 2.04,-1.534 4.741,-2.304 8.1,-2.304 z"
   fill="#473467" />
		<path
   id="path16"
   d="m 484.484,734.291 h -7.12 v -28 h 7.12 z"
   fill="#473467" />
		<path
   id="path18"
   d="m 502.845,705.971 c 4.187,0 7.866,1.041 11.04,3.12 l -2.68,5.56 c -1.467,-0.853 -3.04,-1.553 -4.72,-2.1 -1.681,-0.546 -3.094,-0.82 -4.24,-0.82 -2.054,0 -3.08,0.681 -3.08,2.041 0,0.879 0.507,1.586 1.521,2.119 1.013,0.534 2.246,0.994 3.699,1.381 1.453,0.387 2.906,0.854 4.36,1.399 1.453,0.547 2.687,1.435 3.7,2.66 1.013,1.228 1.52,2.774 1.52,4.64 0,2.693 -1.054,4.794 -3.16,6.301 -2.106,1.506 -4.786,2.26 -8.039,2.26 -2.32,0 -4.614,-0.4 -6.881,-1.2 -2.267,-0.8 -4.239,-1.894 -5.92,-3.28 l 2.761,-5.48 c 1.413,1.228 3.079,2.234 5,3.021 1.92,0.787 3.626,1.181 5.119,1.181 1.146,0 2.04,-0.207 2.681,-0.621 0.64,-0.412 0.96,-1.02 0.96,-1.819 0,-0.772 -0.367,-1.42 -1.101,-1.94 -0.733,-0.52 -1.646,-0.906 -2.739,-1.16 -1.094,-0.252 -2.28,-0.593 -3.561,-1.02 -1.28,-0.426 -2.467,-0.893 -3.56,-1.4 -1.094,-0.506 -2.007,-1.313 -2.74,-2.42 -0.733,-1.105 -1.1,-2.433 -1.1,-3.979 0,-2.56 1.02,-4.606 3.06,-6.14 2.04,-1.534 4.74,-2.304 8.1,-2.304 z"
   fill="#473467" />
		<path
   id="path20"
   d="m 541.245,712.012 h -8.44 v 22.279 h -7.12 v -22.279 h -8.359 v -5.761 h 23.92 v 5.761 z"
   fill="#473467" />
		<path
   id="path22"
   d="m 568.204,711.891 h -14.8 v 5.561 h 13.36 v 5.6 h -13.36 v 5.641 h 15.24 v 5.6 h -22.36 v -28 h 21.92 z m -3.84,-12.56 -5.2,4.521 h -5.279 l 4.239,-6.721 z"
   fill="#473467" />
	</g>
</g>












<g
   style="display:inline"
   id="layer1"
   transform="translate(-0.57932694)"><g
     id="picto_titre_badge"><g
       id="g232"><path
         fill="#009eb9"
         d="m 214.803,332.398 c 6.839,6.564 15.278,11.789 25.084,15.523 9.802,3.74 21.308,5.637 34.201,5.637 12.717,0 24.182,-1.896 34.066,-5.637 9.893,-3.734 18.375,-8.957 25.211,-15.523 6.844,-6.576 12.201,-14.363 15.922,-23.143 1.627,-3.848 2.979,-7.93 4.021,-12.15 h -50.094 c -1.32,2.273 -2.652,4.158 -4.064,5.75 -5.457,6.156 -13.889,9.281 -25.063,9.281 -13.572,0 -17.241,-0.455 -25.19,-9.275 -1.438,-1.588 -2.755,-3.426 -4.119,-5.756 h -49.921 c 1.038,4.203 2.393,8.287 4.034,12.148 3.72,8.792 9.074,16.577 15.912,23.145 z"
         id="path228" /><path
         fill="#009eb9"
         d="m 355.691,442.689 c -0.521,-9.941 -2.678,-19.449 -6.404,-28.25 -3.719,-8.766 -9.072,-16.498 -15.916,-22.979 -6.834,-6.471 -15.322,-11.697 -25.223,-15.527 -9.898,-3.822 -21.357,-5.76 -34.063,-5.76 -12.875,0 -24.381,1.938 -34.193,5.758 -9.814,3.834 -18.259,9.061 -25.095,15.529 -6.838,6.471 -12.189,14.203 -15.906,22.979 -3.729,8.787 -5.888,18.293 -6.412,28.256 -0.363,7.871 -0.524,33.045 -0.524,41.285 0,0.611 0.008,1.197 0.017,1.785 l 0.004,0.184 h 46.763 l -0.006,-0.35 c -0.011,-0.715 -0.024,-1.426 -0.024,-2.158 0,-3.904 0.047,-25.1 0.142,-29.027 0.095,-4.07 0.311,-7.518 0.657,-10.537 0.357,-4.543 1.316,-8.836 2.848,-12.723 1.539,-3.896 3.748,-7.334 6.569,-10.221 2.821,-2.893 6.362,-5.203 10.516,-6.865 4.151,-1.662 9.077,-2.506 14.646,-2.506 5.568,0 10.498,0.844 14.648,2.506 4.145,1.662 7.686,3.971 10.523,6.863 2.813,2.893 5.02,6.328 6.559,10.221 1.527,3.881 2.484,8.174 2.848,12.76 0.18,3.105 0.355,6.586 0.537,10.479 0.17,3.943 0.254,25.145 0.254,29.051 0,0.643 -0.018,1.268 -0.035,1.893 -0.006,0.207 -0.012,0.41 -0.018,0.615 h 46.805 l 0.002,-0.236 c 0.01,-0.568 0.018,-1.137 0.018,-1.732 -0.002,-8.859 -0.182,-33.587 -0.537,-41.293 z"
         id="path230" /></g></g></g><g
   style="display:inline"
   id="layer2"
   transform="translate(-0.57932694)"><g
     id="texte_titre_badge"><g
       id="g225"><path
         fill="#009eb9"
         d="m 386.13,416.014 2.844,0.36 v 4.571 h -11.878 v -4.571 l 2.844,-0.36 v -14.722 h -3.636 l -0.54,3.563 h -4.607 l 0.18,-8.675 h 23.397 l 0.18,8.675 h -4.607 l -0.54,-3.563 h -3.636 v 14.722 z"
         id="path195" /><path
         fill="#009eb9"
         d="m 396.608,420.945 v -4.571 l 2.844,-0.36 v -14.866 l -2.844,-0.396 v -4.572 h 11.878 v 4.572 l -2.844,0.396 v 14.866 l 2.844,0.36 v 4.571 z"
         id="path197" /><path
         fill="#009eb9"
         d="m 425.118,416.014 2.844,0.36 v 4.571 h -11.878 v -4.571 l 2.844,-0.36 v -14.722 h -3.636 l -0.54,3.563 h -4.607 l 0.18,-8.675 h 23.396 l 0.181,8.675 h -4.607 l -0.54,-3.563 h -3.636 v 14.722 z"
         id="path199" /><path
         fill="#009eb9"
         d="m 452.334,420.945 -4.535,-8.675 h -3.168 v 3.744 l 3.636,0.36 v 4.571 h -12.671 v -4.571 l 2.844,-0.36 v -14.866 l -2.844,-0.396 v -4.572 h 13.463 c 5.039,0 8.494,2.844 8.494,7.631 0,4.067 -1.691,5.687 -4.066,6.983 v 0.18 c 0,0 0.396,0.288 0.684,0.792 l 2.483,4.248 3.168,0.36 v 4.571 z m -4.823,-13.499 c 2.628,0 3.779,-1.043 3.779,-3.275 0,-1.944 -1.403,-2.879 -3.779,-2.879 h -2.88 v 6.155 h 2.88 z"
         id="path201" /><path
         fill="#009eb9"
         d="m 461.264,420.945 v -4.571 l 2.809,-0.36 v -14.902 l -2.809,-0.36 v -4.572 h 20.41 l 0.144,8.675 h -4.607 l -0.54,-3.563 h -6.406 v 4.787 h 5.363 v 4.932 h -5.363 v 4.823 h 6.334 l 0.541,-3.563 h 4.607 l -0.252,8.675 h -20.231 z"
         id="path203" /><path
         fill="#009eb9"
         d="m 491.396,420.945 v -4.571 l 2.844,-0.36 v -14.902 l -2.844,-0.36 v -4.572 h 12.13 c 6.119,0 12.131,3.24 12.131,12.203 0,9.827 -5.939,12.563 -11.555,12.563 h -12.706 z m 11.23,-5.112 c 4.212,0 6.767,-1.62 6.767,-7.451 0,-4.967 -2.663,-7.091 -7.234,-7.091 h -1.729 v 14.542 z"
         id="path205" /><path
         fill="#009eb9"
         d="m 534.882,401.147 -2.844,-0.396 v -4.572 h 11.519 v 4.572 l -2.844,0.396 v 10.69 c 0,6.263 -3.744,9.359 -10.367,9.359 -6.623,0 -10.51,-3.096 -10.51,-9.359 v -10.69 l -2.844,-0.396 v -4.572 h 11.879 v 4.572 l -2.844,0.396 v 10.294 c 0,1.944 0.791,4.572 4.318,4.572 2.88,0 4.536,-2.052 4.536,-4.392 v -10.474 z"
         id="path207" /><path
         fill="#009eb9"
         d="m 552.271,420.945 v -4.571 l 2.844,-0.36 v -14.902 l -2.844,-0.36 v -4.572 h 10.295 c 7.091,0 10.654,1.728 10.654,6.659 0,4.212 -2.664,5.003 -3.635,5.292 v 0.288 c 1.764,0.216 5.398,1.188 5.398,5.759 0,4.248 -2.483,6.767 -10.043,6.767 z m 12.059,-14.722 c 1.656,0 2.627,-0.972 2.627,-2.448 0,-1.764 -1.403,-2.483 -2.987,-2.483 h -2.663 v 4.931 z m -3.023,4.643 v 4.967 h 3.924 c 2.52,0 3.49,-0.684 3.49,-2.448 0,-1.584 -1.223,-2.52 -2.986,-2.52 h -4.428 z"
         id="path209" /><path
         fill="#009eb9"
         d="m 599.969,416.014 2.52,0.36 v 4.571 H 591.33 v -4.571 l 2.699,-0.36 -0.9,-2.376 h -8.387 l -0.9,2.376 2.7,0.36 v 4.571 h -10.979 v -4.571 l 2.52,-0.36 5.651,-14.902 -3.168,-0.18 v -4.751 h 11.879 z m -10.151,-11.195 c -0.252,-0.648 -0.793,-2.196 -0.793,-2.196 h -0.18 c 0,0 -0.54,1.548 -0.792,2.196 l -1.548,4.104 h 4.859 z"
         id="path211" /><path
         fill="#009eb9"
         d="m 603.822,420.945 v -4.571 l 2.844,-0.36 v -14.902 l -2.844,-0.36 v -4.572 h 12.131 c 6.119,0 12.131,3.24 12.131,12.203 0,9.827 -5.939,12.563 -11.555,12.563 h -12.707 z m 11.231,-5.112 c 4.212,0 6.768,-1.62 6.768,-7.451 0,-4.967 -2.664,-7.091 -7.234,-7.091 h -1.729 v 14.542 z"
         id="path213" /><path
         fill="#009eb9"
         d="m 651.664,412.27 c 0,3.708 -2.052,8.927 -10.402,8.927 -6.804,0 -11.051,-3.923 -11.051,-12.67 0,-8.675 4.283,-12.563 11.051,-12.563 8.351,0 10.402,4.355 10.402,7.487 0,1.116 -0.252,1.872 -0.252,1.872 l -5.867,0.54 c 0,0 0.145,-0.54 0.145,-1.296 0,-1.476 -0.937,-3.456 -4.104,-3.456 -2.844,0 -5.111,1.8 -5.111,7.523 0,5.651 2.482,7.379 5.326,7.379 2.736,0 3.744,-1.188 3.852,-3.204 l -3.491,-0.36 v -4.211 h 9.503 v 4.032 z"
         id="path215" /><path
         fill="#009eb9"
         d="m 654.15,420.945 v -4.571 l 2.808,-0.36 v -14.902 l -2.808,-0.36 v -4.572 h 20.409 l 0.144,8.675 h -4.607 l -0.539,-3.563 h -6.407 v 4.787 h 5.363 v 4.932 h -5.363 v 4.823 h 6.335 l 0.54,-3.563 h 4.607 l -0.252,8.675 h -20.23 z"
         id="path217" /><path
         fill="#009eb9"
         d="m 684.281,420.945 v -4.571 l 2.844,-0.36 v -14.866 l -2.844,-0.396 v -4.572 h 11.879 v 4.572 l -2.844,0.396 v 14.866 l 2.844,0.36 v 4.571 z"
         id="path219" /><path
         fill="#009eb9"
         d="m 713.764,412.198 v -0.684 l 5.976,1.224 v 0.612 c 0,3.276 -2.088,7.847 -10.583,7.847 -6.695,0 -10.87,-3.923 -10.87,-12.67 0,-8.675 4.283,-12.563 11.05,-12.563 8.352,0 10.403,4.788 10.403,8.207 0,1.116 -0.252,1.872 -0.252,1.872 l -5.867,0.72 c 0,0 0.144,-0.612 0.144,-1.476 0,-1.764 -0.936,-4.175 -4.104,-4.175 -2.844,0 -5.111,1.8 -5.111,7.523 0,5.651 2.412,7.379 5.147,7.379 3.095,0 4.067,-1.44 4.067,-3.816 z"
         id="path221" /><path
         fill="#009eb9"
         d="m 722.045,420.945 v -4.571 l 2.844,-0.36 v -14.866 l -2.844,-0.396 v -4.572 h 11.879 v 4.572 l -2.844,0.396 v 14.866 l 2.844,0.36 v 4.571 z"
         id="path223" /></g></g></g></svg>
