<?xml version="1.0" encoding="UTF-8" standalone="no"?>
<svg xmlns:dc="http://purl.org/dc/elements/1.1/"
  xmlns:cc="http://creativecommons.org/ns#"
  xmlns:rdf="http://www.w3.org/1999/02/22-rdf-syntax-ns#"
  xmlns:svg="http://www.w3.org/2000/svg"
  xmlns="http://www.w3.org/2000/svg" version="1.1" x="0px" y="0px" width="100%" height="100%" viewBox="0 0 850.00002 849.99999" enable-background="new 0 0 850.394 841.89" xml:space="preserve" id="svg235">
  <metadata id="metadata241">
    <rdf:RDF>
      <cc:Work rdf:about="">
        <dc:format>image/svg+xml</dc:format>
        <dc:type rdf:resource="http://purl.org/dc/dcmitype/StillImage" />
        <dc:title></dc:title>
      </cc:Work>
    </rdf:RDF>
  </metadata>
  <defs id="defs239">
    <pattern id="EMFhbasepattern" patternUnits="userSpaceOnUse" width="6" height="6" x="0" y="0" />
  </defs>
  <g id="layer14">
      <path transform="translate(-1.0793268)" id="path140-9" d="m 778.718,423.063 c -0.048,4.906 -0.524,10.207 -1.412,13.588 l -37.028,152.133 c -0.714,2.703 -4.982,6.898 -7.498,7.365 L 439.053,655.96 c -3.307,0.609 -8.156,0.961 -13.25,0.961 v 0 c -5.09,0 -9.939,-0.352 -13.247,-0.961 L 118.827,596.149 c -2.514,-0.467 -6.783,-4.662 -7.497,-7.365 L 74.302,436.651 c -0.886,-3.381 -1.362,-8.682 -1.411,-13.588 v 0 c 0.048,-4.907 0.524,-10.209 1.411,-13.59 L 111.331,257.34 c 0.713,-2.703 4.982,-6.897 7.497,-7.363 l 293.729,-59.812 c 3.308,-0.609 8.157,-0.962 13.247,-0.962 v 0 c 5.093,0 9.943,0.353 13.25,0.962 l 293.727,59.812 c 2.516,0.466 6.784,4.66 7.498,7.363 l 37.028,152.133 c 0.886,3.381 1.363,8.683 1.411,13.59 z" stroke-miterlimit="10" stroke-width="6" stroke="#009eb9" fill="none" style="fill:#ffffff;stroke:none" />
  </g>
  <g id="layer13" style="display:inline">
    <g id="texte_posture" transform="translate(-1.0793268)">
      <g id="g34">
        <g id="g32">
          <path fill="#473467" d="m 244.607,710.826 v 18.961 c 0,2.959 -0.86,5.267 -2.58,6.92 -1.72,1.653 -4.087,2.479 -7.1,2.479 -3.814,0 -7.027,-1.493 -9.641,-4.479 l 3.28,-4.76 c 2,2.08 3.96,3.119 5.88,3.119 2,0 3,-1.146 3,-3.439 v -13.04 h -9.6 v -5.761 z" id="path2" />
          <path fill="#473467" d="m 256.526,721.787 h -5.199 v -10.92 h 5.199 z" id="path4" />
          <path fill="#473467" d="m 282.327,733.707 h -12.24 l -2.04,5.16 h -7.32 l 12.08,-28 h 7.32 l 11.8,28 h -7.6 z m -2.08,-5.4 -4,-10.359 -4.08,10.359 z" id="path6" />
          <path fill="#473467" d="m 303.646,738.867 h -7.12 v -28 h 7.12 z" id="path8" />
          <path fill="#473467" d="m 344.446,716.467 h -14.8 v 5.561 h 13.36 v 5.6 h -13.36 v 5.64 h 15.24 v 5.601 h -22.36 v -28 h 21.92 z" id="path10" />
          <path fill="#473467" d="m 367.727,724.227 10.04,14.641 h -8.521 l -6.04,-8.92 -6.039,8.92 h -8.28 l 10,-14.32 -9.36,-13.68 h 8.28 l 5.399,8.16 5.4,-8.16 h 8.36 z" id="path12" />
          <path fill="#473467" d="m 382.846,710.867 h 12.2 c 3.573,0 6.347,0.846 8.32,2.539 1.973,1.694 2.96,4.101 2.96,7.221 0,3.279 -0.987,5.826 -2.96,7.64 -1.974,1.813 -4.747,2.72 -8.32,2.72 h -5.08 v 7.881 h -7.12 z m 7.12,5.6 v 8.92 h 4.72 c 1.573,0 2.786,-0.387 3.641,-1.16 0.853,-0.773 1.279,-1.893 1.279,-3.359 0,-1.44 -0.427,-2.533 -1.279,-3.28 -0.854,-0.747 -2.067,-1.12 -3.641,-1.12 h -4.72 z" id="path14" />
          <path fill="#473467" d="m 433.966,716.467 h -14.8 v 5.561 h 13.36 v 5.6 h -13.36 v 5.64 h 15.24 v 5.601 h -22.36 v -28 h 21.92 z m -3.84,-12.561 -5.2,4.521 h -5.279 l 4.239,-6.72 z" id="path16" />
          <path fill="#473467" d="m 457.886,738.867 -4.16,-7.881 h -0.199 -5.4 v 7.881 h -7.12 v -28 h 12.521 c 3.706,0 6.573,0.846 8.6,2.539 2.026,1.694 3.04,4.101 3.04,7.221 0,4.32 -1.693,7.32 -5.08,9 l 5.88,9.24 z m -9.76,-13.48 h 5.4 c 1.546,0 2.746,-0.387 3.6,-1.16 0.854,-0.773 1.28,-1.893 1.28,-3.359 0,-1.44 -0.427,-2.533 -1.28,-3.28 -0.853,-0.747 -2.054,-1.12 -3.6,-1.12 h -5.4 z" id="path18" />
          <path fill="#473467" d="m 479.086,738.867 h -7.12 v -28 h 7.12 z" id="path20" />
          <path fill="#473467" d="m 517.445,738.867 h -6.279 l -0.04,-18.201 -6.721,15.4 h -4.64 l -6.72,-15.4 v 18.201 h -6.36 v -28.041 h 7.8 l 7.601,16.681 7.6,-16.681 h 7.76 v 28.041 z" id="path22" />
          <path fill="#473467" d="m 547.005,716.467 h -14.8 v 5.561 h 13.36 v 5.6 h -13.36 v 5.64 h 15.24 v 5.601 h -22.36 v -28 h 21.92 z" id="path24" />
          <path fill="#473467" d="m 579.885,738.867 h -6.279 l -12.88,-17.24 v 17.24 h -6.681 v -28 h 6.28 l 12.92,17.279 v -17.279 h 6.64 z" id="path26" />
          <path fill="#473467" d="m 608.885,716.587 h -8.44 v 22.28 h -7.12 v -22.28 h -8.359 v -5.761 h 23.92 v 5.761 z" id="path28" />
          <path fill="#473467" d="m 635.844,716.467 h -14.8 v 5.561 h 13.36 v 5.6 h -13.36 v 5.64 h 15.24 v 5.601 h -22.36 v -28 h 21.92 z m -3.84,-12.561 -5.2,4.521 h -5.279 l 4.239,-6.72 z" id="path30" />
        </g>
      </g>
    </g>
  </g>
  <g id="layer12" style="display:inline">
    <g style="display:inline" id="filet_separation_theme" transform="translate(-1.0793268)">
      <line id="line37" y2="615.03998" x2="422.46899" y1="577.25702" x1="422.46899" stroke-miterlimit="10" stroke-width="2" stroke="#000000" fill="none" />
    </g>
  </g>
  <g id="layer11" style="display:inline">
    <g style="display:inline" id="picto_theme" transform="translate(-1.0793268)">
      <g id="g44">
        <path id="path40" d="m 481.994,573.654 c 2.246,2.157 5.02,3.875 8.242,5.102 3.221,1.229 7.002,1.853 11.238,1.853 4.178,0 7.945,-0.623 11.193,-1.853 3.25,-1.227 6.039,-2.943 8.285,-5.102 2.249,-2.159 4.01,-4.719 5.231,-7.604 0.534,-1.265 0.978,-2.605 1.321,-3.992 h -16.461 c -0.434,0.747 -0.871,1.367 -1.334,1.889 -1.795,2.023 -4.565,3.05 -8.236,3.05 -4.46,0 -5.666,-0.149 -8.277,-3.048 -0.473,-0.521 -0.906,-1.125 -1.354,-1.891 h -16.404 c 0.342,1.382 0.787,2.724 1.326,3.991 1.223,2.889 2.982,5.448 5.23,7.605 z" stroke-miterlimit="10" stroke-width="2" stroke="#000000" fill="none" />
        <path id="path42" d="m 528.289,609.896 c -0.172,-3.267 -0.881,-6.391 -2.105,-9.282 -1.221,-2.881 -2.98,-5.422 -5.229,-7.551 -2.245,-2.127 -5.034,-3.843 -8.288,-5.102 -3.252,-1.256 -7.018,-1.894 -11.191,-1.894 -4.231,0 -8.013,0.638 -11.236,1.893 -3.225,1.26 -6,2.977 -8.246,5.103 -2.247,2.127 -4.006,4.668 -5.227,7.551 -1.226,2.889 -1.935,6.011 -2.107,9.284 -0.119,2.587 -0.172,10.858 -0.172,13.566 0,0.202 0.002,0.393 0.006,0.587 l 10e-4,0.061 h 15.365 l -0.001,-0.116 c -0.004,-0.233 -0.008,-0.467 -0.008,-0.709 0,-1.283 0.014,-8.247 0.045,-9.537 0.031,-1.337 0.103,-2.471 0.217,-3.463 0.117,-1.493 0.433,-2.904 0.936,-4.181 0.506,-1.28 1.231,-2.41 2.16,-3.358 0.926,-0.949 2.09,-1.709 3.453,-2.256 1.365,-0.546 2.984,-0.823 4.814,-0.823 1.828,0 3.448,0.277 4.813,0.823 1.361,0.546 2.525,1.306 3.457,2.255 0.925,0.951 1.65,2.08 2.156,3.358 0.501,1.276 0.816,2.687 0.936,4.194 0.059,1.02 0.117,2.163 0.176,3.441 0.057,1.296 0.084,8.262 0.084,9.546 0,0.212 -0.006,0.418 -0.012,0.624 -0.002,0.066 -0.004,0.133 -0.006,0.201 h 15.379 l 0.002,-0.078 c 0.003,-0.187 0.006,-0.373 0.006,-0.569 -0.002,-2.91 -0.063,-11.035 -0.178,-13.568 z" stroke-miterlimit="10" stroke-width="2" stroke="#000000" fill="none" />
      </g>
    </g>
  </g>
  <g id="layer10" style="display:inline">
    <g style="display:inline" id="texte_picto_theme" transform="translate(-1.0793268)">
      <g id="g67">
        <path id="path47" d="m 448.629,541.128 h -3.799 v 10.026 h -3.203 v -10.026 h -3.763 v -2.593 h 10.765 z" />
        <path id="path49" d="m 459.86,541.074 h -6.66 v 2.502 h 6.013 v 2.52 H 453.2 v 2.538 h 6.858 v 2.521 h -10.063 v -12.601 h 9.864 v 2.52 z" />
        <path id="path51" d="m 469.436,544.566 4.519,6.588 h -3.834 l -2.718,-4.015 -2.719,4.015 h -3.726 l 4.5,-6.444 -4.212,-6.156 h 3.727 l 2.43,3.672 2.43,-3.672 h 3.762 z" />
        <path id="path53" d="m 484.971,541.128 h -3.799 v 10.026 h -3.203 v -10.026 h -3.763 v -2.593 h 10.765 z" />
        <path id="path55" d="m 496.202,541.074 h -6.66 v 2.502 h 6.013 v 2.52 h -6.013 v 2.538 h 6.858 v 2.521 h -10.063 v -12.601 h 9.864 v 2.52 z" />
        <path id="path57" d="m 512.275,541.128 h -3.798 v 10.026 h -3.204 v -10.026 h -3.762 v -2.593 h 10.764 z" />
        <path id="path59" d="m 525.271,551.154 h -3.203 v -4.896 h -5.221 v 4.896 h -3.204 v -12.601 h 3.204 v 5.185 h 5.221 v -5.185 h 3.203 z" />
        <path id="path61" d="m 537.656,541.074 h -6.66 v 2.502 h 6.012 v 2.52 h -6.012 v 2.538 h 6.857 v 2.521 H 527.79 v -12.601 h 9.865 v 2.52 z m -3.312,-3.619 h -2.376 l -2.34,-2.033 2.808,-0.99 z" />
        <path id="path63" d="m 553.766,551.154 h -2.826 l -0.018,-8.19 -3.024,6.931 h -2.088 l -3.024,-6.931 v 8.19 h -2.861 v -12.619 h 3.51 l 3.42,7.507 3.42,-7.507 h 3.492 v 12.619 z" />
        <path id="path65" d="m 566.168,541.074 h -6.66 v 2.502 h 6.012 v 2.52 h -6.012 v 2.538 h 6.857 v 2.521 h -10.063 v -12.601 h 9.865 v 2.52 z" />
      </g>
    </g>
  </g>
  <g id="layer9" style="display:inline">
    <g style="display:inline" id="picto_categorie" transform="translate(-1.0793268)">
      <g id="g78">
        <path id="path70" d="m 321.219,582.015 c 0,-14.545 13.305,-20.858 21.761,-20.858 8.456,0 21.31,7.668 21.31,20.634 0,12.966 -21.422,38.898 -21.422,38.898 0,0 -21.649,-28.415 -21.649,-38.674 z" stroke-miterlimit="10" stroke-linecap="round" stroke-width="2" stroke="#000000" fill="none" />
        <polygon id="polygon72" points="338.391,577.233 342.642,568.62 346.892,577.233 356.397,578.615 349.52,585.318 351.143,594.786 342.642,590.315 334.14,594.786 335.764,585.318 328.886,578.615 " stroke-miterlimit="10" stroke-linejoin="round" stroke-linecap="round" stroke-width="2" stroke="#000000" fill="none" />
        <ellipse id="ellipse74" ry="1.854" rx="1.13" cy="581.84399" cx="344.802" stroke-miterlimit="10" stroke-linejoin="round" stroke-linecap="round" stroke-width="2" stroke="#000000" fill="none" />
        <ellipse id="ellipse76" ry="1.854" rx="1.13" cy="581.84399" cx="340.33899" stroke-miterlimit="10" stroke-linejoin="round" stroke-linecap="round" stroke-width="2" stroke="#000000" fill="none" />
      </g>
    </g>
  </g>
  <g id="layer8" style="display:inline">
    <g style="display:inline" id="texte_picto_categorie" transform="translate(-1.0793268)">
      <g id="g101">
        <path id="path81" d="m 290.465,541.074 h -6.66 v 2.502 h 6.012 v 2.52 h -6.012 v 2.538 h 6.858 v 2.521 h -10.062 v -12.601 h 9.864 z" />
        <path id="path83" d="m 300.041,544.566 4.518,6.588 h -3.834 l -2.718,-4.015 -2.718,4.015 h -3.726 l 4.5,-6.444 -4.212,-6.156 h 3.726 l 2.43,3.672 2.43,-3.672 h 3.762 z" />
        <path id="path85" d="m 305.944,538.554 h 5.49 c 1.608,0 2.856,0.382 3.744,1.144 0.888,0.762 1.332,1.845 1.332,3.248 0,1.477 -0.444,2.623 -1.332,3.438 -0.888,0.816 -2.136,1.224 -3.744,1.224 h -2.286 v 3.547 h -3.204 z m 3.204,2.52 v 4.014 h 2.124 c 0.708,0 1.254,-0.174 1.638,-0.521 0.384,-0.349 0.576,-0.853 0.576,-1.513 0,-0.647 -0.192,-1.14 -0.576,-1.476 -0.384,-0.336 -0.93,-0.504 -1.638,-0.504 z" />
        <path id="path87" d="m 328.048,541.074 h -6.66 v 2.502 h 6.012 v 2.52 h -6.012 v 2.538 h 6.858 v 2.521 h -10.062 v -12.601 h 9.864 z m -1.728,-5.652 -2.34,2.033 h -2.376 l 1.908,-3.023 z" />
        <path id="path89" d="m 337.912,551.154 -1.872,-3.547 h -0.09 -2.43 v 3.547 h -3.204 v -12.601 h 5.634 c 1.668,0 2.958,0.382 3.87,1.144 0.912,0.762 1.368,1.845 1.368,3.248 0,1.944 -0.762,3.295 -2.286,4.051 l 2.646,4.158 z m -4.392,-6.066 h 2.43 c 0.696,0 1.236,-0.174 1.62,-0.521 0.384,-0.349 0.576,-0.853 0.576,-1.513 0,-0.647 -0.192,-1.14 -0.576,-1.476 -0.384,-0.336 -0.924,-0.504 -1.62,-0.504 h -2.43 z" />
        <path id="path91" d="m 346.552,551.154 h -3.204 v -12.601 h 3.204 z" />
        <path id="path93" d="m 358.936,541.074 h -6.66 v 2.502 h 6.012 v 2.52 h -6.012 v 2.538 h 6.858 v 2.521 h -10.062 v -12.601 h 9.864 z" />
        <path id="path95" d="m 372.832,551.154 h -2.826 l -5.796,-7.758 v 7.758 h -3.006 v -12.601 h 2.826 l 5.814,7.776 v -7.776 h 2.988 z" />
        <path id="path97" d="m 381.256,538.445 c 0.936,0 1.857,0.192 2.763,0.576 0.906,0.385 1.677,0.9 2.313,1.549 l -1.854,2.195 c -0.408,-0.504 -0.897,-0.902 -1.467,-1.197 -0.57,-0.293 -1.137,-0.44 -1.701,-0.44 -0.996,0 -1.83,0.351 -2.502,1.053 -0.672,0.702 -1.008,1.569 -1.008,2.601 0,1.057 0.336,1.938 1.008,2.646 0.672,0.709 1.506,1.063 2.502,1.063 0.528,0 1.077,-0.133 1.647,-0.396 0.569,-0.264 1.077,-0.623 1.521,-1.08 l 1.872,1.98 c -0.684,0.695 -1.491,1.254 -2.421,1.674 -0.93,0.42 -1.857,0.63 -2.781,0.63 -1.896,0 -3.474,-0.618 -4.734,-1.854 -1.26,-1.235 -1.89,-2.777 -1.89,-4.625 0,-1.813 0.642,-3.328 1.926,-4.545 1.284,-1.22 2.886,-1.83 4.806,-1.83 z" />
        <path id="path99" d="m 397.671,541.074 h -6.66 v 2.502 h 6.012 v 2.52 h -6.012 v 2.538 h 6.858 v 2.521 h -10.062 v -12.601 h 9.864 z" />
      </g>
    </g>
  </g>
  <g id="layer7" style="display:inline">
    <g style="display:inline" id="fond_categorie" transform="translate(-1.0793268)">
      <path id="path104" d="m 122.631,516.497 h 606.346 l 19.441,-88.216 c 0.112,-0.708 0.309,-2.563 0.348,-4.929 -0.039,-2.367 -0.235,-4.221 -0.348,-4.928 L 714.726,280.002 433.927,222.822 c -1.096,-0.182 -3.97,-0.479 -8.124,-0.479 -4.151,0 -7.025,0.297 -8.123,0.479 l -280.797,57.18 -33.692,138.422 c -0.112,0.707 -0.31,2.561 -0.349,4.928 0.039,2.366 0.236,4.221 0.349,4.929 z" fill="#b7d5e2" />
    </g>
  </g>
  <g id="layer6" style="display:inline">
    <g style="display:inline" id="picto_posture" transform="translate(-1.0793268)">
      <g id="g119">
        <g id="g117">
          <g id="g115">
            <path id="path107" d="m 460.965,136.323 c 0,15.014 -0.006,30.028 0.011,45.043 10e-4,1.178 -0.343,2.128 -1.239,2.902 -1.297,1.123 -2.57,2.274 -3.843,3.426 -0.622,0.563 -1.315,0.916 -2.175,0.938 -0.951,0.024 -1.902,0.133 -2.854,0.133 -16.35,-0.004 -32.698,-0.012 -49.047,-0.045 -1.282,-0.002 -2.571,-0.133 -3.839,-0.322 -1.273,-0.19 -1.512,-0.527 -1.564,-1.796 -0.033,-0.81 -0.031,-1.62 -0.031,-2.431 0.016,-26.264 0.028,-52.527 0.056,-78.79 0.003,-2.956 0.111,-5.909 0.142,-8.864 0.013,-1.301 0.365,-2.375 1.43,-3.246 1.03,-0.842 1.955,-1.818 2.87,-2.787 0.666,-0.705 1.441,-1.07 2.389,-1.107 1.047,-0.043 2.096,-0.1 3.143,-0.102 17.208,-0.031 34.414,-0.056 51.621,-0.076 2.752,-0.004 2.801,0.027 2.804,2.796 0.013,14.776 0.005,29.552 0.005,44.329 0.041,-0.001 0.081,-0.001 0.121,-0.001 z m -7.254,50.393 c 0,-30.33 0,-60.42 0,-90.66 -18.584,0 -37.05,0 -55.434,0 0,30.232 0,60.414 0,90.66 18.568,0 36.939,0 55.434,0 z" fill="#473467" />
            <path id="path109" d="m 427.678,125.856 c 1.691,0 3.357,-0.012 5.022,0.002 1.647,0.015 1.989,0.36 1.993,2.035 0.018,8.293 0.032,16.586 0.039,24.877 0.002,1.92 -0.411,2.357 -2.357,2.357 -4.051,-0.002 -8.101,-0.037 -12.152,-0.082 -1.487,-0.018 -1.641,-0.137 -1.854,-1.574 -0.161,-1.08 -0.262,-2.178 -0.278,-3.268 -0.048,-3.193 -0.04,-6.386 -0.054,-9.578 0,-0.049 -0.015,-0.102 0,-0.143 0.604,-1.652 -0.357,-2.882 -1.084,-4.203 -1.724,-3.128 -3.383,-6.291 -5.099,-9.422 -0.412,-0.754 -0.453,-1.394 0.083,-2.107 0.887,-1.18 1.708,-2.408 2.571,-3.607 0.447,-0.621 1.067,-0.891 1.841,-0.914 2.19,-0.072 4.38,-0.165 6.569,-0.282 1.092,-0.06 1.757,0.401 2.247,1.38 0.763,1.529 1.653,2.996 2.513,4.529 z m -1.256,11.709 c -2.271,-4.021 -4.46,-7.895 -6.591,-11.668 -2.236,0 -4.312,0 -6.583,0 0.516,0.918 0.967,1.684 1.382,2.467 1.517,2.859 3.027,5.723 4.523,8.594 0.303,0.58 0.593,1.04 1.383,0.975 1.888,-0.155 3.779,-0.24 5.886,-0.368 z m 2.269,-10.086 c 0.191,0.996 0.549,1.59 1.568,1.605 0.601,0.01 0.93,0.43 0.982,1.033 0.027,0.332 0.052,0.664 0.055,0.998 0.064,6.141 0.126,12.283 0.186,18.425 0.003,0.237 0.003,0.478 -0.025,0.712 -0.084,0.717 -0.455,1.105 -1.219,1.109 -2.523,0.015 -5.047,0.048 -7.57,0.077 -0.67,0.009 -1.157,-0.237 -1.541,-0.829 -0.399,-0.616 -0.925,-1.151 -1.43,-1.763 0,1.626 0,3.165 0,4.722 4.488,0 8.841,0 13.312,0 0,-8.74 0,-17.376 0,-26.09 -1.438,0.001 -2.804,0.001 -4.318,0.001 z m 0.487,22.274 c -2.008,-3.38 -2.572,-6.935 -2.533,-10.459 -2.359,0 -4.537,0 -6.797,0 -0.528,3.648 0.237,6.904 1.958,9.961 0.146,0.258 0.609,0.469 0.932,0.475 2.037,0.042 4.078,0.023 6.44,0.023 z m -8.08,-25.014 c 2.055,3.584 4.047,7.057 6.121,10.67 0.516,-1.529 0.979,-2.902 1.386,-4.105 -1.745,-3.234 -3.407,-6.311 -5.152,-9.544 -0.85,1.075 -1.627,2.059 -2.355,2.979 z m 8.629,8.492 c -1.801,4.578 -2.121,9.149 0,13.727 0,-4.576 0,-9.15 0,-13.727 z" fill="#473467" />
            <path id="path111" d="m 421.79,108.337 c 0.026,-3.469 2.832,-6.206 6.335,-6.184 3.442,0.021 6.275,2.886 6.244,6.314 -0.029,3.377 -2.754,6.262 -6.056,6.141 -4.42,-0.158 -6.553,-2.968 -6.523,-6.271 z m 3.208,3.303 c 1.594,1.936 4.154,1.646 5.846,0.268 1.713,-1.396 2.133,-3.596 0.959,-5.545 -2.248,1.743 -4.485,3.477 -6.805,5.277 z m 5.728,-6.63 c -2.032,-1.444 -4.376,-1.237 -5.908,0.406 -1.396,1.497 -1.61,3.571 -0.457,5.058" fill="#473467" />
            <path id="path113" d="m 428.375,177.932 c -3.772,0.026 -6.535,-2.515 -6.584,-6.05 -0.047,-3.534 2.768,-6.408 6.278,-6.408 3.424,0 6.293,2.86 6.301,6.282 0.007,3.403 -2.661,6.151 -5.995,6.176 z m 3.473,-8.271 c -2.33,1.816 -4.555,3.549 -6.786,5.287 1.508,1.691 3.598,1.85 5.52,0.496 1.884,-1.324 2.422,-3.539 1.266,-5.783 z m -1.137,-1.281 c -1.846,-1.463 -4.118,-1.342 -5.737,0.225 -1.535,1.486 -1.817,3.693 -0.622,5.219 2.116,-1.811 4.229,-3.622 6.359,-5.444 z" fill="#473467" />
          </g>
        </g>
      </g>
    </g>
  </g>
  <g id="layer5" style="display:inline">
    <g style="display:inline" id="filet_1_categorie" transform="translate(-1.0793268)">
      <g id="g126">
        <path id="path122" d="m 495.548,155.647 h 42.585 c 18.094,0 40.176,12.748 49.221,28.421 l 23.39,40.511" stroke-miterlimit="10" stroke-width="2" stroke="#473467" fill="none" />
        <path id="path124" d="m 239.951,225.683 24.026,-41.614 c 9.045,-15.673 31.125,-28.421 49.218,-28.421 h 42.678" stroke-miterlimit="10" stroke-width="2" stroke="#473467" fill="none" />
      </g>
      <path id="path128" d="m 614.146,619.097 -26.793,46.406 c -9.047,15.668 -31.127,28.416 -49.221,28.416 H 313.195 c -18.093,0 -40.172,-12.748 -49.218,-28.416 l -26.521,-45.934" fill="none" />
      <path id="path130" d="m 616.584,619.511 -26.793,46.406 c -9.047,15.668 -31.127,28.416 -49.221,28.416" stroke-miterlimit="10" stroke-width="2" stroke="#473467" fill="none" />
      <path id="path132" d="m 315.633,694.333 c -18.093,0 -40.172,-12.748 -49.218,-28.416 l -26.521,-45.936" stroke-miterlimit="10" stroke-width="2" stroke="#473467" fill="none" />
      <line id="line134" y2="694.33301" x2="315.771" y1="694.33301" x1="540.70697" stroke-miterlimit="10" stroke-width="2" stroke="#473467" fill="none" />
    </g>
  </g>
  <g id="layer4" style="display:inline">
    <g id="filet_2_categorie" style="display:inline" transform="translate(-1.0793268)">
      <path opacity="0.2" fill="none" stroke="#009eb9" stroke-width="27" stroke-miterlimit="10" d="m 778.406,423.063 c -0.049,4.906 -0.524,10.207 -1.412,13.588 l -37.028,152.133 c -0.714,2.703 -4.981,6.898 -7.498,7.365 L 438.74,655.96 c -3.306,0.609 -8.155,0.961 -13.248,0.961 v 0 c -5.091,0 -9.94,-0.352 -13.248,-0.961 L 118.516,596.149 c -2.515,-0.467 -6.783,-4.662 -7.498,-7.365 L 73.991,436.651 c -0.887,-3.381 -1.362,-8.682 -1.411,-13.588 v 0 c 0.049,-4.907 0.524,-10.209 1.411,-13.59 L 111.019,257.34 c 0.714,-2.703 4.983,-6.897 7.498,-7.363 l 293.728,-59.812 c 3.308,-0.608 8.157,-0.962 13.248,-0.962 v 0 c 5.093,0 9.942,0.354 13.248,0.962 l 293.728,59.812 c 2.517,0.466 6.784,4.66 7.498,7.363 l 37.028,152.133 c 0.887,3.381 1.362,8.683 1.411,13.59 z" id="path137" />
    </g>
  </g>
  <g id="layer3" style="display:inline">
    <g style="display:inline" id="filet_3_posture" transform="translate(-1.0793268)">
      <path id="path140" d="m 778.718,423.063 c -0.048,4.906 -0.524,10.207 -1.412,13.588 l -37.028,152.133 c -0.714,2.703 -4.982,6.898 -7.498,7.365 L 439.053,655.96 c -3.307,0.609 -8.156,0.961 -13.25,0.961 v 0 c -5.09,0 -9.939,-0.352 -13.247,-0.961 L 118.827,596.149 c -2.514,-0.467 -6.783,-4.662 -7.497,-7.365 L 74.302,436.651 c -0.886,-3.381 -1.362,-8.682 -1.411,-13.588 v 0 c 0.048,-4.907 0.524,-10.209 1.411,-13.59 L 111.331,257.34 c 0.713,-2.703 4.982,-6.897 7.497,-7.363 l 293.729,-59.812 c 3.308,-0.609 8.157,-0.962 13.247,-0.962 v 0 c 5.093,0 9.943,0.353 13.25,0.962 l 293.727,59.812 c 2.516,0.466 6.784,4.66 7.498,7.363 l 37.028,152.133 c 0.886,3.381 1.363,8.683 1.411,13.59 z" stroke-miterlimit="10" stroke-width="6" stroke="#009eb9" fill="none" />
    </g>
  </g>












  <g id="layer1" style="display:inline">
    <g style="display:inline" id="picto_titre_badge" transform="translate(-1.0793268)">
      <g id="g180">
        <path id="path176" d="m 214.803,332.398 c 6.839,6.564 15.278,11.789 25.084,15.523 9.802,3.74 21.308,5.637 34.201,5.637 12.717,0 24.182,-1.896 34.066,-5.637 9.893,-3.734 18.375,-8.957 25.211,-15.523 6.844,-6.576 12.201,-14.363 15.922,-23.143 1.627,-3.848 2.979,-7.93 4.021,-12.15 h -50.094 c -1.32,2.273 -2.652,4.158 -4.064,5.75 -5.457,6.156 -13.889,9.281 -25.063,9.281 -13.572,0 -17.241,-0.455 -25.19,-9.275 -1.438,-1.588 -2.755,-3.426 -4.119,-5.756 h -49.921 c 1.038,4.203 2.393,8.287 4.034,12.148 3.72,8.792 9.074,16.577 15.912,23.145 z" fill="#009eb9" />
        <path id="path178" d="m 355.691,442.689 c -0.521,-9.941 -2.678,-19.449 -6.404,-28.25 -3.719,-8.766 -9.072,-16.498 -15.916,-22.979 -6.834,-6.471 -15.322,-11.697 -25.223,-15.527 -9.898,-3.822 -21.357,-5.76 -34.063,-5.76 -12.875,0 -24.381,1.938 -34.193,5.758 -9.814,3.834 -18.259,9.061 -25.095,15.529 -6.838,6.471 -12.189,14.203 -15.906,22.979 -3.729,8.787 -5.888,18.293 -6.412,28.256 -0.363,7.871 -0.524,33.045 -0.524,41.285 0,0.611 0.008,1.197 0.017,1.785 l 0.004,0.184 h 46.763 l -0.006,-0.35 c -0.011,-0.715 -0.024,-1.426 -0.024,-2.158 0,-3.904 0.047,-25.1 0.142,-29.027 0.095,-4.07 0.311,-7.518 0.657,-10.537 0.357,-4.543 1.316,-8.836 2.848,-12.723 1.539,-3.896 3.748,-7.334 6.569,-10.221 2.821,-2.893 6.362,-5.203 10.516,-6.865 4.151,-1.662 9.077,-2.506 14.646,-2.506 5.568,0 10.498,0.844 14.648,2.506 4.145,1.662 7.686,3.971 10.523,6.863 2.813,2.893 5.02,6.328 6.559,10.221 1.527,3.881 2.484,8.174 2.848,12.76 0.18,3.105 0.355,6.586 0.537,10.479 0.17,3.943 0.254,25.145 0.254,29.051 0,0.643 -0.018,1.268 -0.035,1.893 -0.006,0.207 -0.012,0.41 -0.018,0.615 h 46.805 l 0.002,-0.236 c 0.01,-0.568 0.018,-1.137 0.018,-1.732 -0.002,-8.859 -0.182,-33.587 -0.537,-41.293 z" fill="#009eb9" />
      </g>
    </g>
  </g>
  <g id="layer2" style="display:inline">
    <g style="display:inline" id="texte_titre_badge" transform="translate(-1.0793268)">
      <g id="g173">
        <path id="path143" d="m 386.13,416.014 2.844,0.36 v 4.571 h -11.878 v -4.571 l 2.844,-0.36 v -14.722 h -3.636 l -0.54,3.563 h -4.607 l 0.18,-8.675 h 23.397 l 0.18,8.675 h -4.607 l -0.54,-3.563 h -3.636 v 14.722 z" fill="#009eb9" />
        <path id="path145" d="m 396.608,420.945 v -4.571 l 2.844,-0.36 v -14.866 l -2.844,-0.396 v -4.572 h 11.878 v 4.572 l -2.844,0.396 v 14.866 l 2.844,0.36 v 4.571 z" fill="#009eb9" />
        <path id="path147" d="m 425.118,416.014 2.844,0.36 v 4.571 h -11.878 v -4.571 l 2.844,-0.36 v -14.722 h -3.636 l -0.54,3.563 h -4.607 l 0.18,-8.675 h 23.396 l 0.181,8.675 h -4.607 l -0.54,-3.563 h -3.636 v 14.722 z" fill="#009eb9" />
        <path id="path149" d="m 452.334,420.945 -4.535,-8.675 h -3.168 v 3.744 l 3.636,0.36 v 4.571 h -12.671 v -4.571 l 2.844,-0.36 v -14.866 l -2.844,-0.396 v -4.572 h 13.463 c 5.039,0 8.494,2.844 8.494,7.631 0,4.067 -1.691,5.687 -4.066,6.983 v 0.18 c 0,0 0.396,0.288 0.684,0.792 l 2.483,4.248 3.168,0.36 v 4.571 z m -4.823,-13.499 c 2.628,0 3.779,-1.043 3.779,-3.275 0,-1.944 -1.403,-2.879 -3.779,-2.879 h -2.88 v 6.155 h 2.88 z" fill="#009eb9" />
        <path id="path151" d="m 461.264,420.945 v -4.571 l 2.809,-0.36 v -14.902 l -2.809,-0.36 v -4.572 h 20.41 l 0.144,8.675 h -4.607 l -0.54,-3.563 h -6.406 v 4.787 h 5.363 v 4.932 h -5.363 v 4.823 h 6.334 l 0.541,-3.563 h 4.607 l -0.252,8.675 h -20.231 z" fill="#009eb9" />
        <path id="path153" d="m 491.396,420.945 v -4.571 l 2.844,-0.36 v -14.902 l -2.844,-0.36 v -4.572 h 12.13 c 6.119,0 12.131,3.24 12.131,12.203 0,9.827 -5.939,12.563 -11.555,12.563 h -12.706 z m 11.23,-5.112 c 4.212,0 6.767,-1.62 6.767,-7.451 0,-4.967 -2.663,-7.091 -7.234,-7.091 h -1.729 v 14.542 z" fill="#009eb9" />
        <path id="path155" d="m 534.882,401.147 -2.844,-0.396 v -4.572 h 11.519 v 4.572 l -2.844,0.396 v 10.69 c 0,6.263 -3.744,9.359 -10.367,9.359 -6.623,0 -10.51,-3.096 -10.51,-9.359 v -10.69 l -2.844,-0.396 v -4.572 h 11.879 v 4.572 l -2.844,0.396 v 10.294 c 0,1.944 0.791,4.572 4.318,4.572 2.88,0 4.536,-2.052 4.536,-4.392 v -10.474 z" fill="#009eb9" />
        <path id="path157" d="m 552.271,420.945 v -4.571 l 2.844,-0.36 v -14.902 l -2.844,-0.36 v -4.572 h 10.295 c 7.091,0 10.654,1.728 10.654,6.659 0,4.212 -2.664,5.003 -3.635,5.292 v 0.288 c 1.764,0.216 5.398,1.188 5.398,5.759 0,4.248 -2.483,6.767 -10.043,6.767 z m 12.059,-14.722 c 1.656,0 2.627,-0.972 2.627,-2.448 0,-1.764 -1.403,-2.483 -2.987,-2.483 h -2.663 v 4.931 z m -3.023,4.643 v 4.967 h 3.924 c 2.52,0 3.49,-0.684 3.49,-2.448 0,-1.584 -1.223,-2.52 -2.986,-2.52 h -4.428 z" fill="#009eb9" />
        <path id="path159" d="m 599.969,416.014 2.52,0.36 v 4.571 H 591.33 v -4.571 l 2.699,-0.36 -0.9,-2.376 h -8.387 l -0.9,2.376 2.7,0.36 v 4.571 h -10.979 v -4.571 l 2.52,-0.36 5.651,-14.902 -3.168,-0.18 v -4.751 h 11.879 z m -10.151,-11.195 c -0.252,-0.648 -0.793,-2.196 -0.793,-2.196 h -0.18 c 0,0 -0.54,1.548 -0.792,2.196 l -1.548,4.104 h 4.859 z" fill="#009eb9" />
        <path id="path161" d="m 603.822,420.945 v -4.571 l 2.844,-0.36 v -14.902 l -2.844,-0.36 v -4.572 h 12.131 c 6.119,0 12.131,3.24 12.131,12.203 0,9.827 -5.939,12.563 -11.555,12.563 h -12.707 z m 11.231,-5.112 c 4.212,0 6.768,-1.62 6.768,-7.451 0,-4.967 -2.664,-7.091 -7.234,-7.091 h -1.729 v 14.542 z" fill="#009eb9" />
        <path id="path163" d="m 651.664,412.27 c 0,3.708 -2.052,8.927 -10.402,8.927 -6.804,0 -11.051,-3.923 -11.051,-12.67 0,-8.675 4.283,-12.563 11.051,-12.563 8.351,0 10.402,4.355 10.402,7.487 0,1.116 -0.252,1.872 -0.252,1.872 l -5.867,0.54 c 0,0 0.145,-0.54 0.145,-1.296 0,-1.476 -0.937,-3.456 -4.104,-3.456 -2.844,0 -5.111,1.8 -5.111,7.523 0,5.651 2.482,7.379 5.326,7.379 2.736,0 3.744,-1.188 3.852,-3.204 l -3.491,-0.36 v -4.211 h 9.503 v 4.032 z" fill="#009eb9" />
        <path id="path165" d="m 654.15,420.945 v -4.571 l 2.808,-0.36 v -14.902 l -2.808,-0.36 v -4.572 h 20.409 l 0.144,8.675 h -4.607 l -0.539,-3.563 h -6.407 v 4.787 h 5.363 v 4.932 h -5.363 v 4.823 h 6.335 l 0.54,-3.563 h 4.607 l -0.252,8.675 h -20.23 z" fill="#009eb9" />
        <path id="path167" d="m 684.281,420.945 v -4.571 l 2.844,-0.36 v -14.866 l -2.844,-0.396 v -4.572 h 11.879 v 4.572 l -2.844,0.396 v 14.866 l 2.844,0.36 v 4.571 z" fill="#009eb9" />
        <path id="path169" d="m 713.764,412.198 v -0.684 l 5.976,1.224 v 0.612 c 0,3.276 -2.088,7.847 -10.583,7.847 -6.695,0 -10.87,-3.923 -10.87,-12.67 0,-8.675 4.283,-12.563 11.05,-12.563 8.352,0 10.403,4.788 10.403,8.207 0,1.116 -0.252,1.872 -0.252,1.872 l -5.867,0.72 c 0,0 0.144,-0.612 0.144,-1.476 0,-1.764 -0.936,-4.175 -4.104,-4.175 -2.844,0 -5.111,1.8 -5.111,7.523 0,5.651 2.412,7.379 5.147,7.379 3.095,0 4.067,-1.44 4.067,-3.816 z" fill="#009eb9" />
        <path id="path171" d="m 722.045,420.945 v -4.571 l 2.844,-0.36 v -14.866 l -2.844,-0.396 v -4.572 h 11.879 v 4.572 l -2.844,0.396 v 14.866 l 2.844,0.36 v 4.571 z" fill="#009eb9" />
      </g>
    </g>
  </g>
</svg>
