<?xml version="1.0" encoding="UTF-8" standalone="no"?>
<svg xmlns:dc="http://purl.org/dc/elements/1.1/"
  xmlns:cc="http://creativecommons.org/ns#"
  xmlns:rdf="http://www.w3.org/1999/02/22-rdf-syntax-ns#"
  xmlns:svg="http://www.w3.org/2000/svg"
  xmlns="http://www.w3.org/2000/svg"
  xmlns:xlink="http://www.w3.org/1999/xlink" version="1.1" x="0px" y="0px" width="100%" height="100%" viewBox="0 0 850.00002 849.99999" enable-background="new 0 0 850.394 841.89" xml:space="preserve" id="svg235">
  <metadata id="metadata241">
    <rdf:RDF>
      <cc:Work rdf:about="">
        <dc:format>image/svg+xml</dc:format>
        <dc:type rdf:resource="http://purl.org/dc/dcmitype/StillImage" />
        <dc:title></dc:title>
      </cc:Work>
    </rdf:RDF>
  </metadata>
  <defs id="defs239">
    <pattern id="EMFhbasepattern" patternUnits="userSpaceOnUse" width="6" height="6" x="0" y="0" />
    <clipPath id="SVGID_2_">
      <use height="100%" width="100%" y="0" x="0" xlink:href="#SVGID_1_" overflow="visible" id="use124" />
    </clipPath>
    <clipPath id="SVGID_4_">
      <use height="100%" width="100%" y="0" x="0" xlink:href="#SVGID_3_" overflow="visible" id="use136" />
    </clipPath>
    <path id="SVGID_1_" d="m 401.931,117.11 c 1.172,3.438 3.038,6.251 4.835,8.438 l -19.805,17.313 c -3.164,-1.836 -6.133,-4.258 -8.673,-7.97 l -13.157,3.746 c 0,0 -1.5,20.817 0.125,20.817 1.625,0 20.75,-1.5 22,-1.5 1.25,0 37.625,-22.125 37.625,-22.125 l 13.875,-38 c 0,0 -0.625,-12.085 -1,-12.292 -0.375,-0.208 -36.375,17.006 -36.375,17.006 z" />
    <path id="SVGID_3_" d="m 450.742,148.542 c 1.949,-1.783 5.012,-5.446 6.637,-8.562 l 18.715,21.805 0.873,1.116 c -2.836,3.092 -6.361,5.284 -9.527,6.562 l 4.691,17.243 13.125,9.75 0.375,-10.625 c 0,0 -5.125,-47.875 -5.375,-48.25 -0.25,-0.375 -24.334,-23.75 -24.334,-23.75 0,0 -13.166,1.125 -13.166,1.5 0,0.375 -9.506,10 -9.506,10 l 5.664,19.625 z" />
    <clipPath id="SVGID_2_-6">
      <use id="use124-3" overflow="visible" xlink:href="#SVGID_1_" x="0" y="0" width="100%" height="100%" />
    </clipPath>
    <clipPath id="SVGID_4_-4">
      <use id="use136-6" overflow="visible" xlink:href="#SVGID_3_" x="0" y="0" width="100%" height="100%" />
    </clipPath>
    <path d="m 401.931,117.11 c 1.172,3.438 3.038,6.251 4.835,8.438 l -19.805,17.313 c -3.164,-1.836 -6.133,-4.258 -8.673,-7.97 l -13.157,3.746 c 0,0 -1.5,20.817 0.125,20.817 1.625,0 20.75,-1.5 22,-1.5 1.25,0 37.625,-22.125 37.625,-22.125 l 13.875,-38 c 0,0 -0.625,-12.085 -1,-12.292 -0.375,-0.208 -36.375,17.006 -36.375,17.006 z" id="path946" />
    <path d="m 450.742,148.542 c 1.949,-1.783 5.012,-5.446 6.637,-8.562 l 18.715,21.805 0.873,1.116 c -2.836,3.092 -6.361,5.284 -9.527,6.562 l 4.691,17.243 13.125,9.75 0.375,-10.625 c 0,0 -5.125,-47.875 -5.375,-48.25 -0.25,-0.375 -24.334,-23.75 -24.334,-23.75 0,0 -13.166,1.125 -13.166,1.5 0,0.375 -9.506,10 -9.506,10 l 5.664,19.625 z" id="path954" />
  </defs>
  <!-- <g id="layer14">
    <g style="display:inline;fill:#ffffff;stroke:none" id="filet_3_posture" transform="translate(-0.57932694)">
      <path id="path164-1" d="m 778.218,422.853 c -0.049,4.906 -0.523,10.207 -1.412,13.588 l -37.027,152.133 c -0.715,2.703 -4.982,6.898 -7.498,7.365 L 438.552,655.75 c -3.307,0.609 -8.154,0.963 -13.249,0.963 v 0 c -5.091,0 -9.938,-0.354 -13.247,-0.963 L 118.327,595.939 c -2.515,-0.467 -6.783,-4.662 -7.497,-7.365 L 73.803,436.441 c -0.887,-3.383 -1.362,-8.682 -1.411,-13.59 v 0 c 0.049,-4.906 0.524,-10.207 1.411,-13.588 L 110.831,257.13 c 0.714,-2.703 4.982,-6.898 7.497,-7.364 l 293.729,-59.812 c 3.309,-0.609 8.156,-0.961 13.247,-0.961 v 0 c 5.094,0 9.942,0.352 13.249,0.961 l 293.729,59.812 c 2.516,0.466 6.783,4.661 7.498,7.364 l 37.027,152.133 c 0.886,3.382 1.362,8.682 1.411,13.59 z" stroke-miterlimit="10" stroke-width="12" stroke="#009eb9" fill="none" style="fill:#ffffff;stroke:none" />
    </g>
  </g> -->
  <g id="layer13" style="display:inline">
    <g id="texte_posture" transform="translate(-0.57932694)">
      <g enable-background="new    " id="g28">
        <path fill="#473467" d="m 266.807,718.11 v 18.96 c 0,2.96 -0.86,5.267 -2.58,6.92 -1.72,1.654 -4.087,2.48 -7.1,2.48 -3.813,0 -7.027,-1.493 -9.64,-4.48 l 3.28,-4.76 c 2,2.08 3.96,3.12 5.88,3.12 2,0 3,-1.146 3,-3.44 v -13.04 h -9.6 v -5.76 z" id="path2" />
        <path fill="#473467" d="m 276.006,718.11 c 0.906,0 1.68,0.294 2.32,0.88 0.64,0.587 0.96,1.387 0.96,2.4 0,0.906 -0.294,1.787 -0.88,2.64 l -2.92,4.24 h -3.28 l 1.8,-4.24 c -0.88,-0.613 -1.32,-1.479 -1.32,-2.6 0,-0.986 0.313,-1.786 0.94,-2.4 0.627,-0.613 1.42,-0.92 2.38,-0.92 z" id="path4" />
        <path fill="#473467" d="m 304.166,740.99 h -12.24 l -2.04,5.16 h -7.32 l 12.08,-28 h 7.32 l 11.8,28 h -7.6 z m -2.08,-5.4 -4,-10.36 -4.08,10.36 z" id="path6" />
        <path fill="#473467" d="m 325.486,746.15 h -7.12 v -28 h 7.12 z" id="path8" />
        <path fill="#473467" d="m 357.485,717.91 c 2.08,0 4.126,0.427 6.14,1.28 2.013,0.854 3.726,2 5.14,3.44 l -4.12,4.88 c -0.907,-1.12 -1.994,-2.007 -3.26,-2.66 -1.266,-0.653 -2.527,-0.98 -3.78,-0.98 -2.214,0 -4.067,0.78 -5.56,2.34 -1.494,1.561 -2.24,3.487 -2.24,5.78 0,2.347 0.746,4.307 2.24,5.88 1.493,1.574 3.346,2.36 5.56,2.36 1.173,0 2.393,-0.293 3.66,-0.88 1.266,-0.587 2.393,-1.387 3.38,-2.4 l 4.16,4.4 c -1.52,1.547 -3.314,2.787 -5.38,3.72 -2.067,0.934 -4.127,1.4 -6.18,1.4 -4.214,0 -7.72,-1.373 -10.52,-4.12 -2.8,-2.746 -4.2,-6.173 -4.2,-10.28 0,-4.026 1.426,-7.393 4.28,-10.1 2.854,-2.707 6.414,-4.06 10.68,-4.06 z" id="path10" />
        <path fill="#473467" d="m 386.845,717.91 c 4.346,0 7.96,1.354 10.84,4.061 2.88,2.707 4.32,6.087 4.32,10.14 0,4.08 -1.447,7.494 -4.34,10.24 -2.894,2.747 -6.5,4.12 -10.82,4.12 -4.32,0 -7.92,-1.366 -10.8,-4.101 -2.88,-2.732 -4.32,-6.153 -4.32,-10.26 0,-4.08 1.44,-7.466 4.32,-10.16 2.88,-2.694 6.48,-4.04 10.8,-4.04 z m 0.08,5.96 c -2.187,0 -4.054,0.794 -5.6,2.38 -1.547,1.587 -2.32,3.554 -2.32,5.9 0,2.346 0.78,4.327 2.34,5.94 1.56,1.613 3.42,2.42 5.58,2.42 2.16,0 3.993,-0.807 5.5,-2.42 1.506,-1.613 2.26,-3.594 2.26,-5.94 0,-2.346 -0.754,-4.313 -2.26,-5.9 -1.507,-1.586 -3.34,-2.38 -5.5,-2.38 z" id="path12" />
        <path fill="#473467" d="m 433.605,746.15 h -6.28 l -12.88,-17.24 v 17.24 h -6.68 v -28 h 6.28 l 12.919,17.28 v -17.28 h 6.641 z" id="path14" />
        <path fill="#473467" d="m 462.605,723.87 h -8.441 v 22.28 h -7.119 v -22.28 h -8.36 v -5.76 h 23.921 v 5.76 z" id="path16" />
        <path fill="#473467" d="m 484.525,746.15 -4.16,-7.88 h -0.201 -5.399 v 7.88 h -7.12 v -28 h 12.52 c 3.707,0 6.574,0.847 8.601,2.54 2.027,1.693 3.04,4.1 3.04,7.22 0,4.32 -1.693,7.32 -5.08,9 l 5.88,9.24 z m -9.761,-13.481 h 5.399 c 1.547,0 2.747,-0.386 3.601,-1.159 0.853,-0.773 1.28,-1.894 1.28,-3.36 0,-1.44 -0.428,-2.533 -1.28,-3.28 -0.854,-0.746 -2.054,-1.12 -3.601,-1.12 h -5.399 z" id="path18" />
        <path fill="#473467" d="m 505.724,746.15 h -7.12 v -28 h 7.12 z" id="path20" />
        <path fill="#473467" d="m 513.324,718.15 h 13.24 c 3.146,0 5.646,0.634 7.5,1.9 1.854,1.266 2.779,2.967 2.779,5.1 0,1.467 -0.426,2.754 -1.279,3.86 -0.853,1.106 -2.027,1.873 -3.52,2.3 1.76,0.347 3.16,1.16 4.199,2.439 1.04,1.28 1.561,2.827 1.561,4.641 0,2.373 -0.967,4.26 -2.9,5.66 -1.934,1.399 -4.554,2.1 -7.859,2.1 h -13.721 z m 7.08,5.44 v 5.76 h 5.76 c 1.041,0 1.867,-0.26 2.48,-0.78 0.613,-0.52 0.92,-1.233 0.92,-2.14 0,-0.88 -0.307,-1.573 -0.92,-2.08 -0.613,-0.507 -1.439,-0.76 -2.48,-0.76 z m 0,10.88 v 6.199 h 5.76 c 1.334,0 2.381,-0.279 3.141,-0.84 0.76,-0.56 1.14,-1.333 1.14,-2.319 0,-0.934 -0.38,-1.674 -1.14,-2.221 -0.76,-0.546 -1.807,-0.819 -3.141,-0.819 z" id="path22" />
        <path fill="#473467" d="m 569.125,718.15 v 16.24 c 0,3.707 -1.146,6.646 -3.441,8.819 -2.293,2.174 -5.398,3.261 -9.318,3.261 -3.947,0 -7.088,-1.087 -9.42,-3.261 -2.334,-2.173 -3.501,-5.112 -3.501,-8.819 v -16.24 h 7.12 v 16.24 c 0,1.866 0.541,3.354 1.619,4.46 1.08,1.106 2.486,1.66 4.221,1.66 1.707,0 3.074,-0.547 4.1,-1.641 1.027,-1.093 1.541,-2.586 1.541,-4.479 v -16.24 z" id="path24" />
        <path fill="#473467" d="m 598.164,723.75 h -14.801 v 5.561 h 13.361 v 5.6 h -13.361 v 5.641 h 15.24 v 5.6 h -22.359 v -28 h 21.92 z m -3.84,-12.56 -5.201,4.52 h -5.279 l 4.24,-6.72 z" id="path26" />
      </g>
    </g>
  </g>
  <g id="layer12" style="display:inline">
    <g id="filet_separation_theme" style="display:inline;stroke:#000000" transform="translate(-0.57932694)">
      <path d="m 425.54199,575.35101 v 37.78296" style="fill:none;stroke:#000000;stroke-miterlimit:10" id="line31" />
    </g>
  </g>
  <g id="layer11" style="display:inline">
    <g style="display:inline" id="picto_theme" transform="translate(-0.57932694)">
      <g id="g38">
        <path id="path34" d="m 485.068,571.75 c 2.246,2.156 5.02,3.875 8.24,5.102 3.223,1.229 7.002,1.854 11.238,1.854 4.18,0 7.945,-0.623 11.195,-1.854 3.25,-1.227 6.037,-2.943 8.283,-5.102 2.25,-2.16 4.01,-4.719 5.23,-7.605 0.535,-1.264 0.98,-2.604 1.322,-3.99 h -16.461 c -0.436,0.746 -0.871,1.365 -1.336,1.889 -1.793,2.023 -4.564,3.049 -8.236,3.049 -4.459,0 -5.664,-0.148 -8.275,-3.047 -0.473,-0.521 -0.904,-1.125 -1.354,-1.891 H 478.51 c 0.34,1.381 0.785,2.723 1.324,3.99 1.226,2.888 2.986,5.446 5.234,7.605 z" stroke-miterlimit="10" stroke-width="2" stroke="#000000" fill="none" />
        <path id="path36" d="m 531.363,607.99 c -0.174,-3.268 -0.881,-6.391 -2.105,-9.281 -1.223,-2.881 -2.98,-5.422 -5.229,-7.551 -2.246,-2.127 -5.035,-3.844 -8.289,-5.104 -3.252,-1.256 -7.018,-1.893 -11.191,-1.893 -4.23,0 -8.012,0.637 -11.234,1.893 -3.227,1.26 -6,2.977 -8.246,5.104 -2.248,2.127 -4.006,4.668 -5.229,7.551 -1.225,2.889 -1.934,6.01 -2.105,9.283 -0.119,2.588 -0.174,10.857 -0.174,13.566 0,0.201 0.004,0.393 0.006,0.586 l 0.002,0.063 h 15.365 l -0.002,-0.117 c -0.004,-0.232 -0.008,-0.467 -0.008,-0.709 0,-1.283 0.016,-8.246 0.047,-9.537 0.031,-1.336 0.102,-2.471 0.217,-3.463 0.117,-1.492 0.432,-2.904 0.936,-4.18 0.506,-1.281 1.23,-2.41 2.158,-3.359 0.928,-0.949 2.09,-1.709 3.455,-2.256 1.363,-0.545 2.982,-0.822 4.813,-0.822 1.832,0 3.449,0.277 4.814,0.822 1.361,0.547 2.523,1.307 3.457,2.256 0.924,0.951 1.648,2.08 2.154,3.357 0.502,1.275 0.816,2.688 0.936,4.193 0.061,1.021 0.119,2.164 0.178,3.441 0.055,1.297 0.084,8.262 0.084,9.547 0,0.211 -0.006,0.418 -0.012,0.623 -0.002,0.066 -0.004,0.133 -0.006,0.201 h 15.379 v -0.078 c 0.004,-0.188 0.006,-0.373 0.006,-0.568 -0.003,-2.91 -0.06,-11.035 -0.177,-13.568 z" stroke-miterlimit="10" stroke-width="2" stroke="#000000" fill="none" />
      </g>
    </g>
  </g>
  <g id="layer10" style="display:inline">
    <g id="texte_picto_theme" style="display:inline" transform="translate(-0.57932694)">
      <g enable-background="new    " id="g61">
        <path d="m 451.702,539.221 h -3.798 v 10.026 H 444.7 v -10.026 h -3.763 v -2.592 h 10.765 z" id="path41" />
        <path d="m 456.148,539.438 c 1.68,0 2.942,0.516 3.788,1.548 0.847,1.032 1.216,2.447 1.107,4.248 h -6.822 c 0.155,0.575 0.433,1.02 0.828,1.332 0.396,0.312 0.882,0.468 1.458,0.468 0.888,0 1.662,-0.33 2.322,-0.99 l 1.638,1.603 c -1.044,1.14 -2.454,1.71 -4.229,1.71 -1.572,0 -2.824,-0.45 -3.754,-1.351 -0.93,-0.899 -1.395,-2.094 -1.395,-3.582 0,-1.5 0.465,-2.706 1.395,-3.618 0.93,-0.912 2.151,-1.368 3.664,-1.368 z m -1.981,4.121 h 3.888 c 0,-0.587 -0.171,-1.062 -0.513,-1.422 -0.342,-0.359 -0.795,-0.54 -1.359,-0.54 -0.527,0 -0.972,0.178 -1.332,0.531 -0.359,0.355 -0.588,0.831 -0.684,1.431 z" id="path43" />
        <path d="m 466.425,542.335 1.729,-2.79 h 3.401 l -3.078,4.716 3.294,4.986 h -3.582 l -1.764,-3.042 -1.98,3.042 h -3.42 l 3.313,-4.968 -3.096,-4.734 h 3.563 z" id="path45" />
        <path d="m 478.755,546.566 0.611,2.159 c -0.756,0.444 -1.619,0.666 -2.592,0.666 -0.96,0 -1.736,-0.267 -2.33,-0.801 -0.595,-0.533 -0.892,-1.293 -0.892,-2.276 v -4.284 h -1.351 v -2.034 h 1.351 v -2.7 h 3.097 v 2.683 h 2.537 v 2.052 h -2.537 v 3.798 c 0,0.372 0.074,0.646 0.225,0.819 0.151,0.173 0.375,0.255 0.675,0.242 0.288,-10e-4 0.691,-0.108 1.206,-0.324 z" id="path47" />
        <path d="m 485.127,539.438 c 1.68,0 2.942,0.516 3.788,1.548 0.847,1.032 1.216,2.447 1.107,4.248 H 483.2 c 0.156,0.575 0.433,1.02 0.828,1.332 0.396,0.312 0.883,0.468 1.459,0.468 0.887,0 1.661,-0.33 2.321,-0.99 l 1.638,1.603 c -1.043,1.14 -2.453,1.71 -4.229,1.71 -1.572,0 -2.823,-0.45 -3.753,-1.351 -0.93,-0.899 -1.395,-2.094 -1.395,-3.582 0,-1.5 0.465,-2.706 1.395,-3.618 0.93,-0.912 2.151,-1.368 3.663,-1.368 z m -1.98,4.121 h 3.888 c 0,-0.587 -0.17,-1.062 -0.513,-1.422 -0.342,-0.359 -0.795,-0.54 -1.358,-0.54 -0.528,0 -0.973,0.178 -1.332,0.531 -0.361,0.355 -0.588,0.831 -0.685,1.431 z" id="path49" />
        <path d="m 501.542,546.566 0.612,2.159 c -0.756,0.444 -1.62,0.666 -2.592,0.666 -0.96,0 -1.737,-0.267 -2.331,-0.801 -0.594,-0.533 -0.891,-1.293 -0.891,-2.276 v -4.284 h -1.351 v -2.034 h 1.351 v -2.7 h 3.096 v 2.683 h 2.538 v 2.052 h -2.538 v 3.798 c 0,0.372 0.074,0.646 0.225,0.819 0.151,0.173 0.375,0.255 0.676,0.242 0.288,-10e-4 0.69,-0.108 1.205,-0.324 z" id="path51" />
        <path d="m 510.183,539.402 c 1.068,0 1.926,0.339 2.574,1.017 0.647,0.678 0.972,1.581 0.972,2.709 v 6.12 h -3.114 v -5.256 c 0,-0.564 -0.152,-1.011 -0.459,-1.341 -0.306,-0.33 -0.723,-0.495 -1.251,-0.495 -0.601,0 -1.079,0.216 -1.44,0.647 -0.359,0.433 -0.539,0.984 -0.539,1.656 v 4.788 h -3.114 v -13.356 h 3.114 v 5.257 c 0.683,-1.141 1.769,-1.723 3.257,-1.746 z" id="path53" />
        <path d="m 520.173,539.438 c 1.68,0 2.942,0.516 3.788,1.548 0.847,1.032 1.216,2.447 1.107,4.248 h -6.822 c 0.155,0.575 0.433,1.02 0.828,1.332 0.396,0.312 0.882,0.468 1.458,0.468 0.888,0 1.662,-0.33 2.322,-0.99 l 1.638,1.603 c -1.044,1.14 -2.454,1.71 -4.229,1.71 -1.572,0 -2.824,-0.45 -3.754,-1.351 -0.93,-0.899 -1.395,-2.094 -1.395,-3.582 0,-1.5 0.465,-2.706 1.395,-3.618 0.93,-0.912 2.152,-1.368 3.664,-1.368 z m -0.865,-0.99 -2.34,-2.034 2.809,-0.99 1.908,3.024 z m -1.115,5.111 h 3.888 c 0,-0.587 -0.171,-1.062 -0.513,-1.422 -0.342,-0.359 -0.795,-0.54 -1.359,-0.54 -0.527,0 -0.972,0.178 -1.332,0.531 -0.36,0.355 -0.588,0.831 -0.684,1.431 z" id="path55" />
        <path d="m 539.72,539.402 c 1.068,0 1.918,0.339 2.547,1.017 0.631,0.678 0.945,1.581 0.945,2.709 v 6.12 h -3.096 v -5.256 c 0,-0.576 -0.15,-1.029 -0.45,-1.359 -0.3,-0.33 -0.708,-0.495 -1.224,-0.495 -0.576,0.013 -1.035,0.231 -1.377,0.657 -0.342,0.426 -0.514,0.976 -0.514,1.647 v 4.806 h -3.113 v -5.256 c 0,-0.576 -0.147,-1.029 -0.441,-1.359 -0.295,-0.33 -0.699,-0.495 -1.215,-0.495 -0.588,0.013 -1.057,0.234 -1.404,0.666 -0.348,0.433 -0.521,0.979 -0.521,1.639 v 4.806 h -3.096 v -9.702 h 3.096 v 1.603 c 0.66,-1.141 1.728,-1.723 3.203,-1.746 0.78,0 1.455,0.195 2.025,0.585 0.57,0.39 0.975,0.927 1.215,1.61 0.637,-1.441 1.776,-2.174 3.42,-2.197 z" id="path57" />
        <path d="m 549.675,539.438 c 1.68,0 2.942,0.516 3.788,1.548 0.847,1.032 1.216,2.447 1.107,4.248 h -6.822 c 0.155,0.575 0.433,1.02 0.828,1.332 0.396,0.312 0.882,0.468 1.458,0.468 0.888,0 1.662,-0.33 2.322,-0.99 l 1.638,1.603 c -1.044,1.14 -2.454,1.71 -4.229,1.71 -1.572,0 -2.824,-0.45 -3.754,-1.351 -0.93,-0.899 -1.395,-2.094 -1.395,-3.582 0,-1.5 0.465,-2.706 1.395,-3.618 0.93,-0.912 2.152,-1.368 3.664,-1.368 z m -1.98,4.121 h 3.888 c 0,-0.587 -0.171,-1.062 -0.513,-1.422 -0.342,-0.359 -0.795,-0.54 -1.359,-0.54 -0.527,0 -0.972,0.178 -1.332,0.531 -0.36,0.355 -0.588,0.831 -0.684,1.431 z" id="path59" />
      </g>
    </g>
  </g>
  <g id="layer9" style="display:inline">
    <g style="display:inline" id="picto_categorie" transform="translate(-0.57932694)">
      <g id="g72">
        <path id="path64" d="m 320.038,579.808 c 0,-14.545 13.305,-20.857 21.761,-20.857 8.456,0 21.311,7.668 21.311,20.633 0,12.967 -21.423,38.898 -21.423,38.898 0,0 -21.649,-28.414 -21.649,-38.674 z" stroke-miterlimit="10" stroke-linecap="round" stroke-width="2" stroke="#000000" fill="none" />
        <polygon id="polygon66" points="327.704,576.408 337.209,575.027 341.46,566.414 345.71,575.027 355.216,576.408 348.338,583.111 349.961,592.58 341.46,588.109 332.958,592.58 334.582,583.111 " stroke-miterlimit="10" stroke-linejoin="round" stroke-linecap="round" stroke-width="2" stroke="#000000" fill="none" />
        <ellipse id="ellipse68" ry="1.854" rx="1.13" cy="579.63702" cx="343.621" stroke-miterlimit="10" stroke-linejoin="round" stroke-linecap="round" stroke-width="2" stroke="#000000" fill="none" />
        <ellipse id="ellipse70" ry="1.854" rx="1.13" cy="579.63702" cx="339.15701" stroke-miterlimit="10" stroke-linejoin="round" stroke-linecap="round" stroke-width="2" stroke="#000000" fill="none" />
      </g>
    </g>
  </g>
  <g id="layer8" style="display:inline">
    <g style="display:inline" id="texte_picto_categorie" transform="translate(-0.57932694)">
      <g id="g95" enable-background="new    ">
        <path id="path75" d="m 286.992,539.438 c 1.68,0 2.943,0.516 3.789,1.548 0.846,1.032 1.215,2.447 1.107,4.248 h -6.822 c 0.156,0.575 0.432,1.02 0.828,1.332 0.396,0.312 0.882,0.468 1.458,0.468 0.888,0 1.662,-0.33 2.322,-0.99 l 1.638,1.603 c -1.044,1.14 -2.454,1.71 -4.23,1.71 -1.572,0 -2.823,-0.45 -3.753,-1.351 -0.93,-0.899 -1.395,-2.094 -1.395,-3.582 0,-1.5 0.465,-2.706 1.395,-3.618 0.93,-0.912 2.151,-1.368 3.663,-1.368 z m -1.98,4.121 h 3.888 c 0,-0.587 -0.171,-1.062 -0.513,-1.422 -0.342,-0.359 -0.795,-0.54 -1.359,-0.54 -0.528,0 -0.972,0.178 -1.332,0.531 -0.36,0.355 -0.588,0.831 -0.684,1.431 z" />
        <path id="path77" d="m 297.27,542.335 1.728,-2.79 h 3.402 l -3.078,4.716 3.294,4.986 h -3.582 l -1.764,-3.042 -1.98,3.042 h -3.42 l 3.312,-4.968 -3.096,-4.734 h 3.564 z" />
        <path id="path79" d="m 310.05,539.438 c 1.368,0 2.469,0.459 3.303,1.377 0.834,0.918 1.251,2.127 1.251,3.627 0,1.476 -0.408,2.664 -1.224,3.563 -0.816,0.9 -1.902,1.351 -3.258,1.351 -1.272,0 -2.262,-0.469 -2.97,-1.404 v 4.788 h -3.114 v -13.194 h 3.114 v 1.278 c 0.72,-0.924 1.685,-1.386 2.898,-1.386 z m -0.757,7.451 c 0.648,0 1.173,-0.236 1.575,-0.711 0.402,-0.474 0.603,-1.082 0.603,-1.827 0,-0.743 -0.201,-1.35 -0.603,-1.817 -0.402,-0.468 -0.927,-0.702 -1.575,-0.702 -0.624,0 -1.137,0.234 -1.539,0.702 -0.402,0.468 -0.603,1.074 -0.603,1.817 0,0.757 0.198,1.368 0.594,1.837 0.397,0.468 0.912,0.701 1.548,0.701 z" />
        <path id="path81" d="m 320.526,539.438 c 1.68,0 2.943,0.516 3.789,1.548 0.846,1.032 1.215,2.447 1.107,4.248 H 318.6 c 0.156,0.575 0.432,1.02 0.828,1.332 0.396,0.312 0.882,0.468 1.458,0.468 0.888,0 1.662,-0.33 2.322,-0.99 l 1.638,1.603 c -1.044,1.14 -2.454,1.71 -4.23,1.71 -1.572,0 -2.823,-0.45 -3.753,-1.351 -0.93,-0.899 -1.395,-2.094 -1.395,-3.582 0,-1.5 0.465,-2.706 1.395,-3.618 0.929,-0.912 2.151,-1.368 3.663,-1.368 z m -1.981,4.121 h 3.888 c 0,-0.587 -0.171,-1.062 -0.513,-1.422 -0.342,-0.359 -0.795,-0.54 -1.359,-0.54 -0.528,0 -0.972,0.178 -1.332,0.531 -0.359,0.355 -0.587,0.831 -0.684,1.431 z m 2.719,-5.111 h -2.376 l 1.908,-3.024 2.808,0.99 z" />
        <path id="path83" d="m 330.227,539.545 v 1.638 c 0.684,-1.163 1.734,-1.758 3.15,-1.781 v 2.808 c -0.888,-0.084 -1.614,0.063 -2.178,0.441 -0.564,0.378 -0.888,0.915 -0.972,1.61 v 4.986 h -3.114 v -9.702 z" />
        <path id="path85" d="m 335.186,535.577 c 0.306,-0.306 0.699,-0.459 1.179,-0.459 0.479,0 0.873,0.153 1.179,0.459 0.306,0.306 0.459,0.699 0.459,1.179 0,0.48 -0.153,0.876 -0.459,1.188 -0.306,0.312 -0.699,0.468 -1.179,0.468 -0.48,0 -0.873,-0.156 -1.179,-0.468 -0.306,-0.313 -0.459,-0.708 -0.459,-1.188 0,-0.48 0.153,-0.874 0.459,-1.179 z m 2.709,13.671 h -3.096 v -9.702 h 3.096 z" />
        <path id="path87" d="m 344.645,539.438 c 1.68,0 2.943,0.516 3.789,1.548 0.846,1.032 1.215,2.447 1.107,4.248 h -6.822 c 0.156,0.575 0.432,1.02 0.828,1.332 0.396,0.312 0.882,0.468 1.458,0.468 0.888,0 1.662,-0.33 2.322,-0.99 l 1.638,1.603 c -1.044,1.14 -2.454,1.71 -4.23,1.71 -1.572,0 -2.823,-0.45 -3.753,-1.351 -0.93,-0.899 -1.395,-2.094 -1.395,-3.582 0,-1.5 0.465,-2.706 1.395,-3.618 0.93,-0.912 2.151,-1.368 3.663,-1.368 z m -1.98,4.121 h 3.888 c 0,-0.587 -0.171,-1.062 -0.513,-1.422 -0.342,-0.359 -0.795,-0.54 -1.359,-0.54 -0.528,0 -0.972,0.178 -1.332,0.531 -0.36,0.355 -0.588,0.831 -0.684,1.431 z" />
        <path id="path89" d="m 357.587,539.402 c 1.068,0 1.926,0.339 2.574,1.017 0.648,0.678 0.972,1.581 0.972,2.709 v 6.12 h -3.096 v -5.256 c 0,-0.564 -0.153,-1.011 -0.459,-1.341 -0.306,-0.33 -0.723,-0.495 -1.251,-0.495 -0.552,0 -1.005,0.18 -1.359,0.54 -0.354,0.359 -0.561,0.834 -0.621,1.422 v 5.13 h -3.114 v -9.702 h 3.114 v 1.584 c 0.684,-1.129 1.764,-1.705 3.24,-1.728 z" />
        <path id="path91" d="m 367.577,539.438 c 0.96,0 1.815,0.188 2.565,0.566 0.75,0.378 1.334,0.915 1.755,1.611 l -2.232,1.35 c -0.48,-0.672 -1.134,-1.008 -1.962,-1.008 -0.6,0 -1.089,0.225 -1.467,0.675 -0.378,0.45 -0.567,1.041 -0.567,1.773 0,0.744 0.186,1.341 0.558,1.791 0.372,0.45 0.864,0.675 1.476,0.675 0.912,0 1.572,-0.366 1.98,-1.098 l 2.268,1.332 c -0.396,0.72 -0.975,1.274 -1.737,1.665 -0.762,0.39 -1.653,0.585 -2.673,0.585 -1.5,0 -2.709,-0.453 -3.627,-1.359 -0.918,-0.906 -1.377,-2.097 -1.377,-3.573 0,-1.487 0.465,-2.69 1.395,-3.608 0.929,-0.918 2.144,-1.377 3.645,-1.377 z" />
        <path id="path93" d="m 377.441,539.438 c 1.68,0 2.943,0.516 3.789,1.548 0.846,1.032 1.215,2.447 1.107,4.248 h -6.822 c 0.156,0.575 0.432,1.02 0.828,1.332 0.396,0.312 0.882,0.468 1.458,0.468 0.888,0 1.662,-0.33 2.322,-0.99 l 1.638,1.603 c -1.044,1.14 -2.454,1.71 -4.23,1.71 -1.572,0 -2.823,-0.45 -3.753,-1.351 -0.93,-0.899 -1.395,-2.094 -1.395,-3.582 0,-1.5 0.465,-2.706 1.395,-3.618 0.93,-0.912 2.151,-1.368 3.663,-1.368 z m -1.981,4.121 h 3.888 c 0,-0.587 -0.171,-1.062 -0.513,-1.422 -0.342,-0.359 -0.795,-0.54 -1.359,-0.54 -0.528,0 -0.972,0.178 -1.332,0.531 -0.359,0.355 -0.587,0.831 -0.684,1.431 z" />
      </g>
    </g>
  </g>
  <g id="layer7" style="display:inline">
    <g style="display:inline" id="fond_categorie" transform="translate(-0.57932694)">
      <path id="path98" d="m 122.131,516.287 h 606.345 l 19.441,-88.217 c 0.113,-0.707 0.309,-2.563 0.35,-4.93 -0.041,-2.365 -0.236,-4.22 -0.35,-4.927 L 714.226,279.791 433.427,222.612 c -1.096,-0.182 -3.971,-0.479 -8.124,-0.479 -4.15,0 -7.024,0.297 -8.123,0.479 l -280.797,57.179 -33.692,138.422 c -0.112,0.707 -0.31,2.562 -0.349,4.927 0.039,2.367 0.236,4.223 0.349,4.93 z" fill="#b7d5e2" />
    </g>
  </g>
  <g id="layer6" style="display:inline">
    <g style="display:inline" id="picto_posture" transform="translate(-0.57932694)">
      <g id="g147">
        <g id="g145">
          <path id="path101" d="m 433.396,92.805 3.143,4.403 c 0.354,0.495 0.344,1.114 -0.023,1.376 l -2.1,1.431 c -0.367,0.262 -0.957,0.07 -1.311,-0.425 l -3.143,-4.403 c -0.354,-0.495 -0.344,-1.114 0.023,-1.376 l 2.1,-1.431 c 0.368,-0.262 0.957,-0.07 1.311,0.425 z" stroke-miterlimit="10" stroke-width="2" stroke="#473467" fill="none" />
          <path id="path103" d="m 410.934,94.702 c -1.612,-3.481 8.644,-11.284 11.874,-8.619 7.239,5.97 13.196,14.52 17.659,24.327 1.469,3.23 -8.715,11.254 -11.875,8.619 -7.77,-6.482 -13.368,-15.068 -17.658,-24.327 z" fill="currentColor" />
          <path id="path105" d="m 408.152,122.412 c 0,0 2.666,1.488 4.156,4.104 1.493,2.617 1.526,4.763 -0.794,8.426 -2.318,3.663 -7.265,5.86 -8.669,4.579 -1.403,-1.282 -2.563,-3.969 0.916,-7.021 3.479,-3.053 4.604,-3.846 3.156,-6.228 -1.447,-2.381 -1.898,-1.343 -4.664,-8.608 0,0 -2.149,-3.346 -4.659,-4.091 -2.508,-0.744 -3.602,0.122 -4.028,0.916 -0.428,0.794 -1.038,2.616 -2.076,2.621 -1.037,0.005 -3.174,0.005 -4.151,0.981 -0.977,0.977 -1.387,2.138 -1.282,3.357 0.105,1.22 -1.465,2.198 -2.563,2.504 -1.101,0.305 -3.053,1.232 -3.298,2.967 -0.244,1.734 0.55,3.383 -0.609,4.115 -1.16,0.732 -2.748,2.075 -1.894,3.785 0.854,1.709 2.626,3.979 4.396,5.255 1.771,1.277 5.459,4.443 7.509,3.903 2.052,-0.541 2.861,-2.564 2.861,-2.564 0,0 1.99,1.434 3.977,0.435 1.987,-0.999 2.442,-3.548 2.442,-3.548 0,0 -3.968,-2.992 -6.105,-6.411" stroke-miterlimit="10" stroke-width="2" stroke="#473467" fill="none" />
          <path id="path107" d="m 388.87,136.773 c 0,0 2.923,2.823 3.657,5.075" stroke-miterlimit="10" stroke-width="2" stroke="#473467" fill="none" />
          <path id="path109" d="m 397.107,126.022 c 0,0 2.991,4.646 6.654,6.478" stroke-miterlimit="10" stroke-width="2" stroke="#473467" fill="none" />
          <path id="path111" d="m 398.878,138.301 c 0,0 0.247,0.763 3.023,0" stroke-miterlimit="10" stroke-width="2" stroke="#473467" fill="none" />
          <path id="path113" d="m 463.117,157.229 c -2.613,3.069 -6.979,5.448 -6.979,5.448 0,0 0.078,2.588 1.896,3.867 1.818,1.279 3.998,0.152 3.998,0.152 0,0 0.506,2.121 2.455,2.955 1.947,0.835 6.061,-1.757 8,-2.761 1.938,-1.005 4.02,-2.989 5.115,-4.556 1.098,-1.567 -0.275,-3.127 -1.316,-4.021 -1.041,-0.895 -0.014,-2.409 -0.002,-4.16 0.012,-1.752 -1.785,-2.955 -2.826,-3.418 -1.043,-0.463 -2.453,-1.66 -2.172,-2.852 0.283,-1.191 0.047,-2.4 -0.775,-3.51 -0.822,-1.108 -2.938,-1.422 -3.965,-1.578 -1.023,-0.156 -1.361,-2.049 -1.668,-2.896 -0.307,-0.847 -1.262,-1.864 -3.854,-1.495 -2.592,0.369 -5.207,3.364 -5.207,3.364 -3.801,6.782 -4.096,5.689 -5.873,7.834 -1.779,2.144 -0.785,3.093 2.211,6.622 2.996,3.528 1.455,6.017 -0.121,7.079 -1.578,1.063 -6.311,-1.768 -7.906,-5.799 -1.516,-3.822 -1.148,-7.108 2.127,-9.804 3.273,-2.695 5.9,-3.217 5.9,-3.217" stroke-miterlimit="10" stroke-width="2" stroke="#473467" fill="none" />
          <path id="path115" d="m 466.263,162.633 c 0,0 -3.305,2.364 -4.359,4.484" stroke-miterlimit="10" stroke-width="2" stroke="#473467" fill="none" />
          <path id="path117" d="m 459.689,150.791 c 0,0 -3.641,4.158 -7.531,5.435" stroke-miterlimit="10" stroke-width="2" stroke="#473467" fill="none" />
          <path id="path119" d="m 456.138,162.678 c 0,0 -0.354,0.719 -2.988,-0.442" stroke-miterlimit="10" stroke-width="2" stroke="#473467" fill="none" />
          <g id="g131">
            <g id="g129">
              <defs id="defs122">
                <path d="m 401.931,117.11 c 1.172,3.438 3.038,6.251 4.835,8.438 l -19.805,17.313 c -3.164,-1.836 -6.133,-4.258 -8.673,-7.97 l -13.157,3.746 c 0,0 -1.5,20.817 0.125,20.817 1.625,0 20.75,-1.5 22,-1.5 1.25,0 37.625,-22.125 37.625,-22.125 l 13.875,-38 c 0,0 -0.625,-12.085 -1,-12.292 -0.375,-0.208 -36.375,17.006 -36.375,17.006 z" id="path1263" />
              </defs>
              <clipPath id="clipPath420">
                <use id="use418" overflow="visible" xlink:href="#SVGID_1_" x="0" y="0" width="100%" height="100%" />
              </clipPath>
              <path id="path127" d="m 369.039,153.377 c 0.236,0.317 0.881,0.373 1.188,0.113 l 57.447,-48.384 -4.095,-4.922 -57.145,48.171 c -0.432,0.363 -0.479,0.885 -0.127,1.356 z" stroke-miterlimit="10" stroke-width="2" stroke="#473467" fill="none" clip-path="url(#SVGID_2_-6)" />
            </g>
          </g>
          <g id="g143">
            <g id="g141">
              <defs id="defs134">
                <path d="m 450.742,148.542 c 1.949,-1.783 5.012,-5.446 6.637,-8.562 l 18.715,21.805 0.873,1.116 c -2.836,3.092 -6.361,5.284 -9.527,6.562 l 4.691,17.243 13.125,9.75 0.375,-10.625 c 0,0 -5.125,-47.875 -5.375,-48.25 -0.25,-0.375 -24.334,-23.75 -24.334,-23.75 0,0 -13.166,1.125 -13.166,1.5 0,0.375 -9.506,10 -9.506,10 l 5.664,19.625 z" id="path1271" />
              </defs>
              <clipPath id="clipPath429">
                <use id="use427" overflow="visible" xlink:href="#SVGID_3_" x="0" y="0" width="100%" height="100%" />
              </clipPath>
              <path id="path139" d="m 484.656,189.342 -7.441,-6.126 -38.289,-58.557 c -0.275,-0.423 4.486,-4.469 4.824,-3.953 l 38.754,59.202 2.621,9.141 z" fill="currentColor" clip-path="url(#SVGID_4_-4)" />
            </g>
          </g>
        </g>
      </g>
    </g>
  </g>
  <g id="layer5" style="display:inline">
    <g style="display:inline" id="filet_1_categorie" transform="translate(-0.57932694)">
      <g id="g156">
        <g id="g154">
          <path id="path150" d="m 503.593,154.074 h 34.039 c 18.096,0 40.176,12.748 49.223,28.42 l 23.389,40.512" stroke-miterlimit="10" stroke-width="2" stroke="#473467" fill="none" />
          <path id="path152" d="m 239.451,224.109 24.026,-41.615 c 9.045,-15.672 31.124,-28.42 49.218,-28.42 h 32.082" stroke-miterlimit="10" stroke-width="2" stroke="#473467" fill="none" />
        </g>
      </g>
      <path id="path158" d="m 613.646,619.523 -26.793,46.406 c -9.047,15.668 -31.125,28.416 -49.221,28.416 H 312.695 c -18.093,0 -40.172,-12.748 -49.218,-28.416 l -26.521,-45.936" stroke-miterlimit="10" stroke-width="2" stroke="#473467" fill="none" />
    </g>
  </g>
  <g id="layer4" style="display:inline">
    <g style="display:inline" id="filet_2_categorie" transform="translate(-0.57932694)">
      <path id="path161" d="m 777.906,422.99 c -0.047,4.906 -0.523,10.207 -1.412,13.588 L 739.466,588.71 c -0.715,2.703 -4.98,6.898 -7.498,7.365 l -293.727,59.811 c -3.309,0.609 -8.156,0.961 -13.25,0.961 v 0 c -5.091,0 -9.939,-0.352 -13.247,-0.961 L 118.015,596.075 c -2.515,-0.467 -6.783,-4.662 -7.497,-7.365 L 73.491,436.578 c -0.887,-3.381 -1.362,-8.682 -1.411,-13.588 v 0 c 0.049,-4.908 0.524,-10.209 1.411,-13.59 l 37.028,-152.133 c 0.714,-2.703 4.982,-6.898 7.497,-7.364 l 293.729,-59.812 c 3.308,-0.608 8.156,-0.961 13.247,-0.961 v 0 c 5.093,0 9.941,0.353 13.25,0.961 l 293.727,59.812 c 2.518,0.466 6.783,4.661 7.498,7.364 L 776.494,409.4 c 0.888,3.381 1.365,8.682 1.412,13.59 z" enable-background="new    " stroke-miterlimit="10" stroke-width="27" stroke="#009eb9" fill="none" opacity="0.2" />
    </g>
  </g>
  <g id="layer3" style="display:inline">
    <g style="display:inline" id="filet_3_posture" transform="translate(-0.57932694)">
      <path id="path164" d="m 778.218,422.853 c -0.049,4.906 -0.523,10.207 -1.412,13.588 l -37.027,152.133 c -0.715,2.703 -4.982,6.898 -7.498,7.365 L 438.552,655.75 c -3.307,0.609 -8.154,0.963 -13.249,0.963 v 0 c -5.091,0 -9.938,-0.354 -13.247,-0.963 L 118.327,595.939 c -2.515,-0.467 -6.783,-4.662 -7.497,-7.365 L 73.803,436.441 c -0.887,-3.383 -1.362,-8.682 -1.411,-13.59 v 0 c 0.049,-4.906 0.524,-10.207 1.411,-13.588 L 110.831,257.13 c 0.714,-2.703 4.982,-6.898 7.497,-7.364 l 293.729,-59.812 c 3.309,-0.609 8.156,-0.961 13.247,-0.961 v 0 c 5.094,0 9.942,0.352 13.249,0.961 l 293.729,59.812 c 2.516,0.466 6.783,4.661 7.498,7.364 l 37.027,152.133 c 0.886,3.382 1.362,8.682 1.411,13.59 z" stroke-miterlimit="10" stroke-width="12" stroke="#009eb9" fill="none" />
    </g>
  </g>












  <g id="layer1" style="display:inline">
    <g id="picto_titre_badge" style="display:inline" transform="translate(-0.57932694)">
      <g id="g204">
        <path fill="#009eb9" d="m 214.803,332.398 c 6.839,6.564 15.278,11.789 25.084,15.523 9.802,3.74 21.308,5.637 34.201,5.637 12.717,0 24.182,-1.896 34.066,-5.637 9.893,-3.734 18.375,-8.957 25.211,-15.523 6.844,-6.576 12.201,-14.363 15.922,-23.143 1.627,-3.848 2.979,-7.93 4.021,-12.15 h -50.094 c -1.32,2.273 -2.652,4.158 -4.063,5.75 -5.458,6.156 -13.89,9.281 -25.063,9.281 -13.572,0 -17.241,-0.455 -25.19,-9.275 -1.438,-1.588 -2.755,-3.426 -4.119,-5.756 h -49.921 c 1.038,4.203 2.393,8.287 4.034,12.148 3.719,8.792 9.073,16.577 15.911,23.145 z" id="path200" />
        <path fill="#009eb9" d="m 355.691,442.689 c -0.521,-9.941 -2.679,-19.449 -6.404,-28.25 -3.719,-8.766 -9.072,-16.498 -15.916,-22.979 -6.834,-6.471 -15.322,-11.697 -25.223,-15.527 -9.898,-3.822 -21.357,-5.76 -34.063,-5.76 -12.875,0 -24.381,1.938 -34.193,5.758 -9.814,3.834 -18.259,9.061 -25.095,15.529 -6.838,6.471 -12.189,14.203 -15.906,22.979 -3.729,8.787 -5.888,18.293 -6.412,28.256 -0.363,7.871 -0.524,33.045 -0.524,41.285 0,0.611 0.008,1.197 0.017,1.785 l 0.004,0.184 h 46.763 l -0.006,-0.35 c -0.011,-0.715 -0.024,-1.426 -0.024,-2.158 0,-3.904 0.047,-25.1 0.142,-29.027 0.095,-4.07 0.311,-7.518 0.657,-10.537 0.357,-4.543 1.316,-8.836 2.848,-12.723 1.539,-3.896 3.748,-7.334 6.569,-10.221 2.821,-2.893 6.362,-5.203 10.516,-6.865 4.151,-1.662 9.077,-2.506 14.646,-2.506 5.568,0 10.498,0.844 14.648,2.506 4.145,1.662 7.686,3.971 10.523,6.863 2.813,2.893 5.021,6.328 6.56,10.221 1.526,3.881 2.483,8.174 2.848,12.76 0.18,3.105 0.355,6.586 0.537,10.479 0.17,3.943 0.254,25.146 0.254,29.053 0,0.643 -0.018,1.268 -0.035,1.893 -0.006,0.207 -0.012,0.41 -0.018,0.615 h 46.805 l 0.002,-0.236 c 0.01,-0.568 0.018,-1.137 0.018,-1.732 -0.003,-8.861 -0.183,-33.59 -0.538,-41.295 z" id="path202" />
      </g>
    </g>
  </g>
  <g id="layer2" style="display:inline">
    <g style="display:inline" id="texte_titre_badge" transform="translate(-0.57932694)">
      <g id="g197">
        <path id="path167" d="m 386.13,416.014 2.844,0.36 v 4.571 h -11.878 v -4.571 l 2.845,-0.36 v -14.722 h -3.637 l -0.54,3.563 h -4.606 l 0.18,-8.675 h 23.397 l 0.18,8.675 h -4.607 l -0.54,-3.563 h -3.636 z" fill="#009eb9" />
        <path id="path169" d="m 396.608,420.945 v -4.571 l 2.844,-0.36 v -14.866 l -2.844,-0.396 v -4.572 h 11.878 v 4.572 l -2.845,0.396 v 14.866 l 2.845,0.36 v 4.571 z" fill="#009eb9" />
        <path id="path171" d="m 425.118,416.014 2.844,0.36 v 4.571 h -11.878 v -4.571 l 2.844,-0.36 v -14.722 h -3.636 l -0.54,3.563 h -4.606 l 0.18,-8.675 h 23.395 l 0.182,8.675 h -4.607 l -0.539,-3.563 h -3.636 z" fill="#009eb9" />
        <path id="path173" d="m 452.333,420.945 -4.535,-8.675 h -3.168 v 3.744 l 3.637,0.36 v 4.571 h -12.672 v -4.571 l 2.846,-0.36 v -14.866 l -2.846,-0.396 v -4.572 h 13.463 c 5.039,0 8.494,2.844 8.494,7.631 0,4.067 -1.689,5.687 -4.064,6.983 v 0.18 c 0,0 0.395,0.288 0.684,0.792 l 2.482,4.248 3.168,0.36 v 4.571 z m -4.822,-13.499 c 2.627,0 3.779,-1.043 3.779,-3.275 0,-1.944 -1.404,-2.879 -3.779,-2.879 h -2.881 v 6.155 h 2.881 z" fill="#009eb9" />
        <path id="path175" d="m 461.263,420.945 v -4.571 l 2.811,-0.36 v -14.902 l -2.811,-0.36 v -4.572 h 20.41 l 0.145,8.675 h -4.607 l -0.539,-3.563 h -6.406 v 4.787 h 5.363 v 4.932 h -5.363 v 4.823 h 6.334 l 0.541,-3.563 h 4.607 l -0.252,8.675 z" fill="#009eb9" />
        <path id="path177" d="m 491.396,420.945 v -4.571 l 2.844,-0.36 v -14.902 l -2.844,-0.36 v -4.572 h 12.131 c 6.117,0 12.131,3.24 12.131,12.203 0,9.827 -5.939,12.563 -11.557,12.563 z m 11.23,-5.112 c 4.211,0 6.766,-1.62 6.766,-7.451 0,-4.967 -2.662,-7.091 -7.232,-7.091 h -1.73 v 14.542 z" fill="#009eb9" />
        <path id="path179" d="m 534.882,401.147 -2.844,-0.396 v -4.572 h 11.518 v 4.572 l -2.844,0.396 v 10.69 c 0,6.263 -3.744,9.359 -10.367,9.359 -6.623,0 -10.51,-3.096 -10.51,-9.359 v -10.69 l -2.844,-0.396 v -4.572 h 11.879 v 4.572 l -2.844,0.396 v 10.294 c 0,1.944 0.791,4.572 4.318,4.572 2.879,0 4.535,-2.052 4.535,-4.392 v -10.474 z" fill="#009eb9" />
        <path id="path181" d="m 552.271,420.945 v -4.571 l 2.844,-0.36 v -14.902 l -2.844,-0.36 v -4.572 h 10.295 c 7.092,0 10.654,1.728 10.654,6.659 0,4.212 -2.664,5.003 -3.635,5.292 v 0.288 c 1.764,0.216 5.398,1.188 5.398,5.759 0,4.248 -2.484,6.767 -10.043,6.767 z m 12.059,-14.722 c 1.656,0 2.627,-0.972 2.627,-2.448 0,-1.764 -1.402,-2.483 -2.986,-2.483 h -2.664 v 4.931 z m -3.024,4.643 v 4.967 h 3.926 c 2.52,0 3.488,-0.684 3.488,-2.448 0,-1.584 -1.223,-2.52 -2.984,-2.52 z" fill="#009eb9" />
        <path id="path183" d="m 599.968,416.014 2.521,0.36 v 4.571 h -11.16 v -4.571 l 2.699,-0.36 -0.9,-2.376 h -8.387 l -0.9,2.376 2.701,0.36 v 4.571 h -10.98 v -4.571 l 2.521,-0.36 5.65,-14.902 -3.168,-0.18 v -4.751 h 11.879 z m -10.15,-11.195 c -0.252,-0.648 -0.793,-2.196 -0.793,-2.196 h -0.18 c 0,0 -0.541,1.548 -0.793,2.196 l -1.547,4.104 h 4.859 z" fill="#009eb9" />
        <path id="path185" d="m 603.822,420.945 v -4.571 l 2.844,-0.36 v -14.902 l -2.844,-0.36 v -4.572 h 12.131 c 6.119,0 12.131,3.24 12.131,12.203 0,9.827 -5.939,12.563 -11.555,12.563 z m 11.23,-5.112 c 4.213,0 6.77,-1.62 6.77,-7.451 0,-4.967 -2.664,-7.091 -7.234,-7.091 h -1.729 v 14.542 z" fill="#009eb9" />
        <path id="path187" d="m 651.664,412.27 c 0,3.708 -2.051,8.927 -10.402,8.927 -6.803,0 -11.051,-3.923 -11.051,-12.67 0,-8.675 4.283,-12.563 11.051,-12.563 8.352,0 10.402,4.355 10.402,7.487 0,1.116 -0.252,1.872 -0.252,1.872 l -5.867,0.54 c 0,0 0.146,-0.54 0.146,-1.296 0,-1.476 -0.938,-3.456 -4.105,-3.456 -2.844,0 -5.111,1.8 -5.111,7.523 0,5.651 2.482,7.379 5.326,7.379 2.736,0 3.744,-1.188 3.854,-3.204 l -3.492,-0.36 v -4.211 h 9.504 v 4.032 z" fill="#009eb9" />
        <path id="path189" d="m 654.15,420.945 v -4.571 l 2.809,-0.36 v -14.902 l -2.809,-0.36 v -4.572 h 20.408 l 0.145,8.675 h -4.607 l -0.539,-3.563 h -6.406 v 4.787 h 5.363 v 4.932 h -5.363 v 4.823 h 6.336 l 0.539,-3.563 h 4.607 l -0.252,8.675 z" fill="#009eb9" />
        <path id="path191" d="m 684.281,420.945 v -4.571 l 2.844,-0.36 v -14.866 l -2.844,-0.396 v -4.572 h 11.879 v 4.572 l -2.844,0.396 v 14.866 l 2.844,0.36 v 4.571 z" fill="#009eb9" />
        <path id="path193" d="m 713.763,412.198 v -0.684 l 5.977,1.224 v 0.612 c 0,3.276 -2.088,7.847 -10.582,7.847 -6.695,0 -10.871,-3.923 -10.871,-12.67 0,-8.675 4.283,-12.563 11.051,-12.563 8.352,0 10.402,4.788 10.402,8.207 0,1.116 -0.252,1.872 -0.252,1.872 l -5.867,0.72 c 0,0 0.145,-0.612 0.145,-1.476 0,-1.764 -0.936,-4.175 -4.104,-4.175 -2.844,0 -5.111,1.8 -5.111,7.523 0,5.651 2.412,7.379 5.146,7.379 3.095,0 4.066,-1.44 4.066,-3.816 z" fill="#009eb9" />
        <path id="path195" d="m 722.044,420.945 v -4.571 l 2.844,-0.36 v -14.866 l -2.844,-0.396 v -4.572 h 11.879 v 4.572 l -2.844,0.396 v 14.866 l 2.844,0.36 v 4.571 z" fill="#009eb9" />
      </g>
    </g>
  </g>
</svg>
