<?xml version="1.0" encoding="UTF-8" standalone="no"?>
<svg
   xmlns:dc="http://purl.org/dc/elements/1.1/"
   xmlns:cc="http://creativecommons.org/ns#"
   xmlns:rdf="http://www.w3.org/1999/02/22-rdf-syntax-ns#"
   xmlns:svg="http://www.w3.org/2000/svg"
   xmlns="http://www.w3.org/2000/svg"
   xmlns:xlink="http://www.w3.org/1999/xlink"
   version="1.1"
   x="0px"
   y="0px"
   width="100%"
   height="100%"
   viewBox="0 0 850.00002 849.99999"
   enable-background="new 0 0 850.394 841.89"
   xml:space="preserve"
   id="svg235"><metadata
   id="metadata241"><rdf:RDF><cc:Work
       rdf:about=""><dc:format>image/svg+xml</dc:format><dc:type
         rdf:resource="http://purl.org/dc/dcmitype/StillImage" /><dc:title></dc:title></cc:Work></rdf:RDF></metadata><defs
   id="defs239"><pattern
     id="EMFhbasepattern"
     patternUnits="userSpaceOnUse"
     width="6"
     height="6"
     x="0"
     y="0" /><clipPath
     id="SVGID_2_"><use
       height="100%"
       width="100%"
       y="0"
       x="0"
       xlink:href="#SVGID_1_"
       overflow="visible"
       id="use124" /></clipPath><clipPath
     id="SVGID_4_"><use
       height="100%"
       width="100%"
       y="0"
       x="0"
       xlink:href="#SVGID_3_"
       overflow="visible"
       id="use136" /></clipPath><path
     id="SVGID_1_"
     d="m 401.931,117.11 c 1.172,3.438 3.038,6.251 4.835,8.438 l -19.805,17.313 c -3.164,-1.836 -6.133,-4.258 -8.673,-7.97 l -13.157,3.746 c 0,0 -1.5,20.817 0.125,20.817 1.625,0 20.75,-1.5 22,-1.5 1.25,0 37.625,-22.125 37.625,-22.125 l 13.875,-38 c 0,0 -0.625,-12.085 -1,-12.292 -0.375,-0.208 -36.375,17.006 -36.375,17.006 z" /><path
     id="SVGID_3_"
     d="m 450.742,148.542 c 1.949,-1.783 5.012,-5.446 6.637,-8.562 l 18.715,21.805 0.873,1.116 c -2.836,3.092 -6.361,5.284 -9.527,6.562 l 4.691,17.243 13.125,9.75 0.375,-10.625 c 0,0 -5.125,-47.875 -5.375,-48.25 -0.25,-0.375 -24.334,-23.75 -24.334,-23.75 0,0 -13.166,1.125 -13.166,1.5 0,0.375 -9.506,10 -9.506,10 l 5.664,19.625 z" /><clipPath
     id="SVGID_2_-6"><use
       id="use124-3"
       overflow="visible"
       xlink:href="#SVGID_1_"
       x="0"
       y="0"
       width="100%"
       height="100%" /></clipPath><clipPath
     id="SVGID_4_-4"><use
       id="use136-6"
       overflow="visible"
       xlink:href="#SVGID_3_"
       x="0"
       y="0"
       width="100%"
       height="100%" /></clipPath><path
     d="m 401.931,117.11 c 1.172,3.438 3.038,6.251 4.835,8.438 l -19.805,17.313 c -3.164,-1.836 -6.133,-4.258 -8.673,-7.97 l -13.157,3.746 c 0,0 -1.5,20.817 0.125,20.817 1.625,0 20.75,-1.5 22,-1.5 1.25,0 37.625,-22.125 37.625,-22.125 l 13.875,-38 c 0,0 -0.625,-12.085 -1,-12.292 -0.375,-0.208 -36.375,17.006 -36.375,17.006 z"
     id="path946" /><path
     d="m 450.742,148.542 c 1.949,-1.783 5.012,-5.446 6.637,-8.562 l 18.715,21.805 0.873,1.116 c -2.836,3.092 -6.361,5.284 -9.527,6.562 l 4.691,17.243 13.125,9.75 0.375,-10.625 c 0,0 -5.125,-47.875 -5.375,-48.25 -0.25,-0.375 -24.334,-23.75 -24.334,-23.75 0,0 -13.166,1.125 -13.166,1.5 0,0.375 -9.506,10 -9.506,10 l 5.664,19.625 z"
     id="path954" /></defs>
<g
   id="layer14"><g
     style="display:inline;fill:#ffffff;stroke:#000000"
     id="filet_3_posture-6"
     transform="translate(-0.66132694)"><path
       id="path162-3"
       d="m 778.137,412.707 c -0.049,4.906 -0.525,10.205 -1.412,13.586 l -37.029,152.133 c -0.713,2.703 -4.98,6.898 -7.498,7.365 l -293.727,59.811 c -3.307,0.609 -8.156,0.963 -13.249,0.963 v 0 c -5.091,0 -9.939,-0.354 -13.247,-0.963 L 118.246,585.791 c -2.515,-0.467 -6.783,-4.662 -7.497,-7.365 L 73.721,426.293 c -0.887,-3.381 -1.362,-8.68 -1.411,-13.586 v 0 c 0.049,-4.908 0.524,-10.209 1.411,-13.59 l 37.028,-152.133 c 0.714,-2.703 4.982,-6.898 7.497,-7.365 l 293.729,-59.811 c 3.308,-0.609 8.156,-0.961 13.247,-0.961 v 0 c 5.092,0 9.942,0.352 13.249,0.961 l 293.727,59.811 c 2.518,0.467 6.785,4.662 7.498,7.365 l 37.029,152.133 c 0.886,3.381 1.363,8.682 1.412,13.59 z"
       stroke-miterlimit="10"
       stroke-width="18"
       stroke="#009eb9"
       fill="none"
       style="fill:#ffffff;stroke:#000000" /></g></g><g
   id="layer13"
   style="display:inline"><g
     style="display:inline"
     id="texte_posture"
     transform="translate(-0.66132694)"><g
       id="g26"><path
         id="path2"
         d="m 278.962,710.582 v 18.96 c 0,2.96 -0.86,5.267 -2.58,6.92 -1.72,1.653 -4.087,2.479 -7.1,2.479 -3.814,0 -7.027,-1.492 -9.641,-4.479 l 3.28,-4.76 c 2,2.08 3.96,3.12 5.88,3.12 2,0 3,-1.146 3,-3.44 v -13.04 h -9.6 v -5.76 z"
         fill="#473467" /><path
         id="path4"
         d="m 290.881,721.542 h -5.199 v -10.92 h 5.199 z"
         fill="#473467" /><path
         id="path6"
         d="m 316.682,733.462 h -12.24 l -2.04,5.16 h -7.32 l 12.08,-28 h 7.32 l 11.8,28 h -7.6 z m -2.08,-5.399 -4,-10.36 -4.08,10.36 z"
         fill="#473467" /><path
         id="path8"
         d="m 338.001,738.622 h -7.12 v -28 h 7.12 z"
         fill="#473467" /><path
         id="path10"
         d="m 370,710.382 c 2.08,0 4.126,0.427 6.14,1.28 2.014,0.853 3.727,2 5.141,3.439 l -4.12,4.881 c -0.907,-1.12 -1.994,-2.007 -3.26,-2.66 -1.268,-0.653 -2.527,-0.98 -3.78,-0.98 -2.214,0 -4.067,0.78 -5.56,2.34 -1.494,1.561 -2.24,3.487 -2.24,5.78 0,2.347 0.746,4.308 2.24,5.88 1.492,1.574 3.346,2.36 5.56,2.36 1.173,0 2.394,-0.293 3.66,-0.88 1.266,-0.586 2.393,-1.387 3.38,-2.4 l 4.16,4.4 c -1.521,1.547 -3.314,2.787 -5.38,3.72 -2.067,0.934 -4.127,1.399 -6.181,1.399 -4.214,0 -7.72,-1.373 -10.52,-4.119 -2.8,-2.746 -4.2,-6.174 -4.2,-10.28 0,-4.026 1.427,-7.394 4.28,-10.101 2.853,-2.705 6.413,-4.059 10.68,-4.059 z"
         fill="#473467" /><path
         id="path12"
         d="m 399.36,710.382 c 4.346,0 7.96,1.354 10.84,4.06 2.88,2.707 4.32,6.088 4.32,10.141 0,4.08 -1.447,7.494 -4.34,10.24 -2.895,2.746 -6.5,4.119 -10.82,4.119 -4.32,0 -7.92,-1.365 -10.8,-4.1 -2.88,-2.732 -4.32,-6.152 -4.32,-10.26 0,-4.08 1.44,-7.467 4.32,-10.16 2.88,-2.693 6.48,-4.04 10.8,-4.04 z m 0.08,5.96 c -2.188,0 -4.054,0.794 -5.601,2.381 -1.547,1.586 -2.319,3.553 -2.319,5.899 0,2.346 0.779,4.327 2.34,5.94 1.56,1.613 3.42,2.42 5.58,2.42 2.16,0 3.993,-0.807 5.5,-2.42 1.506,-1.613 2.26,-3.594 2.26,-5.94 0,-2.346 -0.754,-4.313 -2.26,-5.899 -1.506,-1.587 -3.339,-2.381 -5.5,-2.381 z"
         fill="#473467" /><path
         id="path14"
         d="m 430.239,728.542 h -10.56 v -4.36 h 10.56 z"
         fill="#473467" /><path
         id="path16"
         d="m 450.359,710.382 c 2.08,0 4.126,0.427 6.14,1.28 2.014,0.853 3.727,2 5.141,3.439 l -4.12,4.881 c -0.907,-1.12 -1.994,-2.007 -3.26,-2.66 -1.268,-0.653 -2.527,-0.98 -3.78,-0.98 -2.214,0 -4.067,0.78 -5.56,2.34 -1.494,1.561 -2.24,3.487 -2.24,5.78 0,2.347 0.746,4.308 2.24,5.88 1.492,1.574 3.346,2.36 5.56,2.36 1.173,0 2.394,-0.293 3.66,-0.88 1.266,-0.586 2.393,-1.387 3.38,-2.4 l 4.16,4.4 c -1.521,1.547 -3.314,2.787 -5.38,3.72 -2.067,0.934 -4.127,1.399 -6.181,1.399 -4.214,0 -7.72,-1.373 -10.52,-4.119 -2.8,-2.746 -4.2,-6.174 -4.2,-10.28 0,-4.026 1.427,-7.394 4.28,-10.101 2.853,-2.705 6.414,-4.059 10.68,-4.059 z"
         fill="#473467" /><path
         id="path18"
         d="m 479.719,710.382 c 4.346,0 7.96,1.354 10.84,4.06 2.88,2.707 4.32,6.088 4.32,10.141 0,4.08 -1.447,7.494 -4.34,10.24 -2.895,2.746 -6.5,4.119 -10.82,4.119 -4.32,0 -7.92,-1.365 -10.8,-4.1 -2.88,-2.732 -4.32,-6.152 -4.32,-10.26 0,-4.08 1.44,-7.467 4.32,-10.16 2.88,-2.693 6.479,-4.04 10.8,-4.04 z m 0.08,5.96 c -2.188,0 -4.054,0.794 -5.601,2.381 -1.547,1.586 -2.319,3.553 -2.319,5.899 0,2.346 0.779,4.327 2.34,5.94 1.56,1.613 3.42,2.42 5.58,2.42 2.16,0 3.993,-0.807 5.5,-2.42 1.506,-1.613 2.26,-3.594 2.26,-5.94 0,-2.346 -0.754,-4.313 -2.26,-5.899 -1.507,-1.587 -3.34,-2.381 -5.5,-2.381 z"
         fill="#473467" /><path
         id="path20"
         d="M 526.479,738.622 H 520.2 l -12.88,-17.24 v 17.24 h -6.681 v -28 h 6.28 l 12.92,17.28 v -17.28 h 6.64 z"
         fill="#473467" /><path
         id="path22"
         d="m 554.359,729.422 4.16,4.4 c -2.667,2.746 -5.867,4.4 -9.601,4.96 l -0.96,1.88 c 0.826,0.213 1.486,0.606 1.98,1.18 0.493,0.573 0.74,1.26 0.74,2.061 0,1.253 -0.467,2.253 -1.4,3 -0.934,0.746 -2.134,1.119 -3.6,1.119 -1.308,0 -2.574,-0.413 -3.801,-1.239 l 1.28,-2.841 c 0.586,0.533 1.24,0.801 1.96,0.801 0.507,0 0.913,-0.141 1.22,-0.42 0.307,-0.28 0.46,-0.634 0.46,-1.061 0,-0.427 -0.159,-0.773 -0.479,-1.039 -0.32,-0.268 -0.773,-0.4 -1.36,-0.4 -0.319,0 -0.8,0.053 -1.439,0.16 l 1.52,-3.16 c -3.733,-0.426 -6.8,-1.973 -9.2,-4.641 -2.399,-2.666 -3.6,-5.879 -3.6,-9.64 0,-4.026 1.427,-7.394 4.28,-10.101 2.853,-2.705 6.413,-4.06 10.68,-4.06 2.08,0 4.126,0.427 6.14,1.28 2.014,0.853 3.727,2 5.141,3.439 l -4.12,4.881 c -0.907,-1.12 -1.994,-2.007 -3.26,-2.66 -1.268,-0.653 -2.527,-0.98 -3.78,-0.98 -2.214,0 -4.067,0.78 -5.56,2.34 -1.494,1.561 -2.24,3.487 -2.24,5.78 0,2.347 0.746,4.308 2.24,5.88 1.492,1.574 3.346,2.36 5.56,2.36 1.173,0 2.394,-0.293 3.66,-0.88 1.265,-0.585 2.392,-1.385 3.379,-2.399 z"
         fill="#473467" /><path
         id="path24"
         d="m 588.959,710.622 v 16.24 c 0,3.706 -1.146,6.646 -3.44,8.819 -2.293,2.174 -5.399,3.26 -9.319,3.26 -3.947,0 -7.087,-1.086 -9.42,-3.26 -2.334,-2.173 -3.5,-5.113 -3.5,-8.819 v -16.24 h 7.12 v 16.24 c 0,1.866 0.54,3.354 1.619,4.46 1.08,1.106 2.486,1.66 4.221,1.66 1.706,0 3.073,-0.547 4.1,-1.641 1.026,-1.093 1.54,-2.586 1.54,-4.479 v -16.24 z"
         fill="#473467" /></g></g></g><g
   id="layer12"
   style="display:inline"><g
     style="stroke:#000000"
     id="filet_separation_theme"
     transform="translate(-0.66132694)"><line
       style="stroke:#000000"
       fill="none"
       stroke="#1b3761"
       stroke-miterlimit="10"
       x1="425.185"
       y1="565.125"
       x2="425.185"
       y2="602.90802"
       id="line29" /></g></g><g
   id="layer11"
   style="display:inline"><g
     style="display:inline"
     id="picto_theme"
     transform="translate(-0.66132694)"><g
       id="g36"><path
         id="path32"
         d="m 484.71,561.521 c 2.247,2.158 5.021,3.875 8.242,5.102 3.221,1.23 7.001,1.854 11.237,1.854 4.18,0 7.946,-0.623 11.195,-1.854 3.25,-1.227 6.037,-2.943 8.284,-5.102 2.249,-2.158 4.009,-4.719 5.231,-7.604 0.535,-1.264 0.979,-2.605 1.321,-3.992 h -16.461 c -0.434,0.748 -0.871,1.367 -1.335,1.889 -1.794,2.023 -4.564,3.051 -8.236,3.051 -4.459,0 -5.664,-0.15 -8.276,-3.049 -0.473,-0.521 -0.905,-1.125 -1.354,-1.891 h -16.403 c 0.34,1.383 0.785,2.725 1.324,3.992 1.224,2.89 2.984,5.448 5.231,7.604 z"
         stroke-miterlimit="10"
         stroke-width="2"
         stroke="#000000"
         fill="none" /><path
         id="path34"
         d="m 531.005,597.764 c -0.173,-3.268 -0.881,-6.391 -2.105,-9.283 -1.222,-2.881 -2.98,-5.422 -5.229,-7.551 -2.245,-2.127 -5.034,-3.842 -8.288,-5.102 -3.252,-1.256 -7.017,-1.893 -11.192,-1.893 -4.23,0 -8.012,0.637 -11.235,1.893 -3.226,1.26 -5.999,2.977 -8.246,5.102 -2.247,2.127 -4.005,4.668 -5.228,7.551 -1.225,2.889 -1.934,6.012 -2.105,9.285 -0.12,2.586 -0.174,10.857 -0.174,13.566 0,0.201 0.003,0.393 0.006,0.586 l 0.002,0.061 h 15.365 l -0.002,-0.115 c -0.004,-0.234 -0.008,-0.467 -0.008,-0.709 0,-1.283 0.016,-8.248 0.047,-9.537 0.031,-1.338 0.102,-2.471 0.217,-3.463 0.117,-1.494 0.432,-2.904 0.935,-4.182 0.506,-1.279 1.231,-2.41 2.159,-3.357 0.927,-0.949 2.09,-1.709 3.455,-2.256 1.363,-0.547 2.982,-0.824 4.813,-0.824 1.831,0 3.449,0.277 4.813,0.824 1.362,0.545 2.525,1.305 3.457,2.254 0.925,0.951 1.649,2.08 2.155,3.359 0.502,1.275 0.816,2.686 0.936,4.193 0.06,1.02 0.118,2.164 0.178,3.441 0.055,1.297 0.083,8.262 0.083,9.547 0,0.211 -0.006,0.418 -0.012,0.623 -0.002,0.066 -0.004,0.133 -0.005,0.201 h 15.379 V 611.9 c 0.004,-0.186 0.006,-0.373 0.006,-0.568 -0.002,-2.91 -0.061,-11.035 -0.177,-13.568 z"
         stroke-miterlimit="10"
         stroke-width="2"
         stroke="#000000"
         fill="none" /></g></g></g><g
   id="layer10"
   style="display:inline"><g
     style="display:inline"
     id="texte_picto_theme"
     transform="translate(-0.66132694)"><g
       id="g59"><path
         id="path39"
         d="m 451.344,528.996 h -3.798 v 10.025 h -3.204 v -10.025 h -3.762 v -2.593 h 10.764 z" /><path
         id="path41"
         d="m 462.576,528.941 h -6.66 v 2.502 h 6.012 v 2.52 h -6.012 v 2.539 h 6.857 v 2.52 h -10.062 v -12.6 h 9.864 v 2.519 z" /><path
         id="path43"
         d="m 472.152,532.434 4.518,6.588 h -3.834 l -2.718,-4.014 -2.718,4.014 h -3.727 l 4.5,-6.443 -4.212,-6.156 h 3.726 l 2.431,3.672 2.43,-3.672 h 3.763 z" /><path
         id="path45"
         d="m 487.686,528.996 h -3.798 v 10.025 h -3.204 v -10.025 h -3.762 v -2.593 h 10.764 z" /><path
         id="path47"
         d="m 498.918,528.941 h -6.66 v 2.502 h 6.012 v 2.52 h -6.012 v 2.539 h 6.857 v 2.52 h -10.062 v -12.6 h 9.864 v 2.519 z" /><path
         id="path49"
         d="m 514.992,528.996 h -3.799 v 10.025 h -3.203 v -10.025 h -3.763 v -2.593 h 10.765 z" /><path
         id="path51"
         d="m 527.988,539.021 h -3.205 v -4.896 h -5.22 v 4.896 h -3.204 v -12.6 h 3.204 v 5.184 h 5.22 v -5.184 h 3.205 z" /><path
         id="path53"
         d="m 540.371,528.941 h -6.66 v 2.502 h 6.013 v 2.52 h -6.013 v 2.539 h 6.858 v 2.52 h -10.062 v -12.6 h 9.863 v 2.519 z m -3.311,-3.618 h -2.376 l -2.34,-2.034 2.808,-0.99 z" /><path
         id="path55"
         d="m 556.481,539.021 h -2.826 l -0.019,-8.189 -3.023,6.93 h -2.088 l -3.023,-6.93 v 8.189 h -2.863 v -12.618 h 3.511 l 3.42,7.507 3.42,-7.507 h 3.492 v 12.618 z" /><path
         id="path57"
         d="m 568.883,528.941 h -6.66 v 2.502 h 6.013 v 2.52 h -6.013 v 2.539 h 6.858 v 2.52 H 559.02 v -12.6 h 9.863 z" /></g></g></g><g
   id="layer9"
   style="display:inline"><g
     style="display:inline"
     id="picto_categorie"
     transform="translate(-0.66132694)"><g
       id="g70"><path
         id="path62"
         d="m 320.535,570.077 c 0,-14.545 13.305,-20.858 21.761,-20.858 8.456,0 21.31,7.668 21.31,20.634 0,12.966 -21.422,38.898 -21.422,38.898 0,0 -21.649,-28.414 -21.649,-38.674 z"
         stroke-miterlimit="10"
         stroke-linecap="round"
         stroke-width="2"
         stroke="#000000"
         fill="none" /><polygon
         id="polygon64"
         points="337.707,565.296 341.958,556.683 346.208,565.296 355.713,566.678 348.835,573.381 350.459,582.849 341.958,578.378 333.456,582.849 335.08,573.381 328.202,566.678 "
         stroke-miterlimit="10"
         stroke-linejoin="round"
         stroke-linecap="round"
         stroke-width="2"
         stroke="#000000"
         fill="none" /><ellipse
         id="ellipse66"
         ry="1.854"
         rx="1.13"
         cy="569.90601"
         cx="344.11801"
         stroke-miterlimit="10"
         stroke-linejoin="round"
         stroke-linecap="round"
         stroke-width="2"
         stroke="#000000"
         fill="none" /><ellipse
         id="ellipse68"
         ry="1.854"
         rx="1.13"
         cy="569.90601"
         cx="339.655"
         stroke-miterlimit="10"
         stroke-linejoin="round"
         stroke-linecap="round"
         stroke-width="2"
         stroke="#000000"
         fill="none" /></g></g></g><g
   id="layer8"
   style="display:inline"><g
     style="display:inline"
     id="texte_picto_categorie"
     transform="translate(-0.66132694)"><g
       id="g93"><path
         id="path73"
         d="m 293.269,528.941 h -6.66 v 2.502 h 6.012 v 2.52 h -6.012 v 2.539 h 6.858 v 2.52 h -10.062 v -12.6 h 9.864 z" /><path
         id="path75"
         d="m 302.844,532.434 4.518,6.588 h -3.834 l -2.718,-4.014 -2.718,4.014 h -3.726 l 4.5,-6.443 -4.212,-6.156 h 3.726 l 2.43,3.672 2.43,-3.672 h 3.762 z" /><path
         id="path77"
         d="m 308.748,526.422 h 5.49 c 1.608,0 2.856,0.381 3.744,1.143 0.888,0.762 1.332,1.846 1.332,3.249 0,1.476 -0.444,2.622 -1.332,3.438 -0.888,0.816 -2.136,1.224 -3.744,1.224 h -2.286 v 3.546 h -3.204 z m 3.204,2.519 v 4.014 h 2.124 c 0.708,0 1.254,-0.174 1.638,-0.521 0.384,-0.348 0.576,-0.852 0.576,-1.512 0,-0.648 -0.192,-1.141 -0.576,-1.477 -0.384,-0.336 -0.93,-0.504 -1.638,-0.504 z" /><path
         id="path79"
         d="m 330.852,528.941 h -6.66 v 2.502 h 6.012 v 2.52 h -6.012 v 2.539 h 6.858 v 2.52 h -10.062 v -12.6 h 9.864 z m -1.728,-5.652 -2.34,2.034 h -2.376 l 1.908,-3.024 z" /><path
         id="path81"
         d="m 340.716,539.021 -1.872,-3.546 h -0.09 -2.43 v 3.546 h -3.204 v -12.6 h 5.634 c 1.668,0 2.958,0.381 3.87,1.143 0.912,0.762 1.368,1.846 1.368,3.249 0,1.944 -0.762,3.294 -2.286,4.05 l 2.646,4.158 z m -4.392,-6.066 h 2.43 c 0.696,0 1.236,-0.174 1.62,-0.521 0.384,-0.348 0.576,-0.852 0.576,-1.512 0,-0.648 -0.192,-1.141 -0.576,-1.477 -0.384,-0.336 -0.924,-0.504 -1.62,-0.504 h -2.43 z" /><path
         id="path83"
         d="m 349.356,539.021 h -3.204 v -12.6 h 3.204 z" /><path
         id="path85"
         d="m 361.74,528.941 h -6.66 v 2.502 h 6.012 v 2.52 h -6.012 v 2.539 h 6.858 v 2.52 h -10.062 v -12.6 h 9.864 z" /><path
         id="path87"
         d="m 375.636,539.021 h -2.826 l -5.796,-7.758 v 7.758 h -3.006 v -12.6 h 2.826 l 5.814,7.775 v -7.775 h 2.988 z" /><path
         id="path89"
         d="m 384.06,526.313 c 0.936,0 1.857,0.192 2.763,0.576 0.906,0.384 1.677,0.899 2.313,1.548 l -1.854,2.195 c -0.408,-0.504 -0.897,-0.902 -1.467,-1.196 -0.57,-0.294 -1.137,-0.44 -1.701,-0.44 -0.996,0 -1.83,0.351 -2.502,1.053 -0.672,0.701 -1.008,1.568 -1.008,2.601 0,1.056 0.336,1.938 1.008,2.646 0.672,0.709 1.506,1.063 2.502,1.063 0.528,0 1.077,-0.132 1.647,-0.396 0.569,-0.264 1.077,-0.623 1.521,-1.08 l 1.872,1.98 c -0.684,0.696 -1.491,1.254 -2.421,1.674 -0.93,0.42 -1.857,0.631 -2.781,0.631 -1.896,0 -3.474,-0.619 -4.734,-1.854 -1.26,-1.235 -1.89,-2.778 -1.89,-4.626 0,-1.813 0.642,-3.327 1.926,-4.545 1.284,-1.218 2.886,-1.83 4.806,-1.83 z" /><path
         id="path91"
         d="m 400.475,528.941 h -6.66 v 2.502 h 6.012 v 2.52 h -6.012 v 2.539 h 6.858 v 2.52 h -10.062 v -12.6 h 9.864 z" /></g></g></g><g
   id="layer7"
   style="display:inline"><g
     style="display:inline"
     id="fond_categorie"
     transform="translate(-0.66132694)"><path
       id="path96"
       d="m 122.049,506.139 h 606.345 l 19.441,-88.215 c 0.113,-0.707 0.309,-2.563 0.35,-4.93 -0.041,-2.365 -0.236,-4.221 -0.35,-4.928 L 714.144,269.644 433.345,212.466 c -1.096,-0.182 -3.971,-0.479 -8.124,-0.479 -4.151,0 -7.025,0.297 -8.123,0.479 L 136.301,269.644 102.61,408.066 c -0.112,0.707 -0.31,2.563 -0.349,4.928 0.039,2.367 0.236,4.223 0.349,4.93 z"
       fill="#b7d5e2" /></g></g><g
   id="layer6"
   style="display:inline"><g
     style="display:inline"
     id="picto_posture"
     transform="translate(-0.66132694)"><g
       id="g145"><g
         id="g143"><g
           id="g101"><path
             id="path99"
             d="m 419.609,169.621 -0.515,-0.873 c 0,0 -0.009,-0.002 -0.014,-0.002 l -0.728,0.703 -1.834,-1.068 0.255,-0.982 -0.008,-0.01 -1.013,-0.018 -0.54,-2.053 0.875,-0.514 0.001,-0.006 -0.706,-0.73 1.068,-1.83 0.983,0.254 0.008,-0.006 0.017,-1.02 2.052,-0.539 0.517,0.877 h 0.01 l 0.732,-0.707 1.833,1.068 -0.256,0.988 0.002,0.004 1.02,0.016 0.543,2.053 -0.88,0.518 -0.001,0.006 0.707,0.732 -1.068,1.834 -0.985,-0.256 -0.007,0.006 -0.017,1.016 z m -0.827,-3.021 0.309,0.104 c 0.176,0.059 0.359,0.086 0.543,0.074 l 0.314,-0.016 0.289,-0.146 c 0.166,-0.082 0.313,-0.193 0.438,-0.33 l 0.212,-0.234 0.101,-0.305 c 0.059,-0.178 0.083,-0.359 0.074,-0.543 l -0.016,-0.318 -0.145,-0.285 c -0.083,-0.166 -0.194,-0.313 -0.33,-0.436 l -0.234,-0.213 -0.308,-0.102 c -0.176,-0.059 -0.352,-0.078 -0.541,-0.074 l -0.319,0.016 -0.284,0.143 c -0.167,0.084 -0.314,0.197 -0.439,0.334 l -0.211,0.232 -0.102,0.307 c -0.058,0.176 -0.082,0.355 -0.073,0.539 l 0.016,0.318 0.144,0.287 c 0.082,0.164 0.194,0.313 0.332,0.438 z"
             fill="#473467" /></g><g
           id="g105"><path
             id="path103"
             d="m 433.939,115.369 0.145,1.662 h 0.91 l 0.127,-1.654 c 0.207,-0.008 0.414,-0.023 0.619,-0.041 l 0.387,1.609 0.9,-0.137 -0.119,-1.639 c 0.313,-0.061 0.623,-0.131 0.93,-0.215 l 0.656,1.494 0.861,-0.293 -0.4,-1.564 c 0.207,-0.08 0.412,-0.164 0.613,-0.252 l 0.863,1.357 0.807,-0.422 -0.623,-1.461 c 0.23,-0.129 0.457,-0.266 0.678,-0.41 l 1.049,1.176 0.729,-0.545 -0.832,-1.313 c 0.199,-0.16 0.395,-0.326 0.586,-0.498 l 1.195,0.975 0.633,-0.654 -1.008,-1.141 c 0.148,-0.162 0.293,-0.33 0.434,-0.502 l 1.301,0.77 0.529,-0.74 -1.143,-0.959 c 0.113,-0.17 0.223,-0.344 0.33,-0.521 l 1.4,0.5 0.395,-0.773 -1.23,-0.783 c 0.094,-0.201 0.184,-0.404 0.268,-0.609 l 1.432,0.279 0.273,-0.826 -1.309,-0.574 c 0.076,-0.258 0.145,-0.516 0.203,-0.775 l 1.42,0.041 0.137,-0.857 -1.35,-0.348 c 0.033,-0.258 0.059,-0.518 0.074,-0.777 l 1.373,-0.178 V 102.9 l -1.357,-0.127 c -0.008,-0.225 -0.021,-0.449 -0.041,-0.672 l 1.305,-0.375 -0.129,-0.859 -1.336,0.076 c -0.063,-0.338 -0.139,-0.672 -0.23,-1.004 l 1.186,-0.582 -0.281,-0.822 -1.264,0.303 c -0.086,-0.225 -0.178,-0.445 -0.275,-0.664 l 1.07,-0.746 -0.402,-0.77 -1.191,0.484 c -0.141,-0.248 -0.289,-0.492 -0.447,-0.73 l 0.92,-0.893 -0.52,-0.695 -1.082,0.66 c -0.174,-0.213 -0.354,-0.422 -0.543,-0.623 l 0.758,-1.016 -0.625,-0.604 -0.955,0.816 c -0.176,-0.158 -0.357,-0.311 -0.545,-0.459 l 0.594,-1.109 -0.707,-0.504 -0.82,0.947 c -0.193,-0.125 -0.389,-0.246 -0.592,-0.361 l 0.422,-1.178 -0.777,-0.393 -0.668,1.053 c -0.225,-0.102 -0.449,-0.195 -0.676,-0.283 l 0.238,-1.232 -0.824,-0.273 -0.504,1.148 c -0.279,-0.078 -0.561,-0.146 -0.842,-0.203 l 0.037,-1.262 -0.857,-0.137 -0.314,1.225 c -0.275,-0.029 -0.551,-0.049 -0.824,-0.059 l -0.164,-1.264 h -0.869 l -0.119,1.273 c -0.232,0.014 -0.467,0.035 -0.697,0.063 l -0.357,-1.242 -0.859,0.129 0.074,1.299 c -0.34,0.072 -0.678,0.158 -1.012,0.26 l -0.58,-1.182 -0.824,0.279 0.309,1.291 c -0.215,0.09 -0.428,0.186 -0.639,0.285 l -0.768,-1.1 -0.771,0.4 0.51,1.254 c -0.234,0.141 -0.465,0.289 -0.691,0.447 l -0.955,-0.982 -0.695,0.52 0.72,1.182 c -0.197,0.168 -0.388,0.342 -0.575,0.523 l -1.124,-0.838 -0.604,0.623 0.921,1.078 c -0.139,0.164 -0.274,0.334 -0.406,0.506 l -1.266,-0.678 -0.505,0.709 1.099,0.951 c -0.111,0.18 -0.218,0.363 -0.32,0.551 l -1.359,-0.553 -0.413,0.811 1.267,0.777 c -0.092,0.213 -0.177,0.428 -0.256,0.643 l -1.453,-0.348 -0.285,0.863 1.393,0.586 c -0.068,0.264 -0.129,0.527 -0.18,0.791 l -1.522,-0.111 -0.144,0.898 1.503,0.361 c -0.024,0.256 -0.039,0.512 -0.047,0.766 l -1.555,0.135 0.001,0.91 1.574,0.121 c 0.014,0.215 0.033,0.428 0.059,0.641 l -1.547,0.371 0.138,0.9 1.603,-0.117 c 0.068,0.316 0.148,0.629 0.242,0.938 l -1.491,0.654 0.294,0.861 1.59,-0.406 c 0.082,0.199 0.17,0.398 0.262,0.594 l -1.388,0.881 0.421,0.807 1.521,-0.646 c 0.13,0.219 0.268,0.434 0.412,0.645 l -1.24,1.105 0.545,0.729 1.41,-0.893 c 0.155,0.186 0.316,0.367 0.484,0.543 l -1.058,1.299 0.653,0.633 1.259,-1.111 c 0.152,0.133 0.311,0.262 0.471,0.389 l -0.857,1.449 0.742,0.529 1.084,-1.293 c 0.162,0.104 0.328,0.203 0.496,0.301 l -0.639,1.57 0.811,0.414 0.885,-1.445 c 0.195,0.088 0.391,0.17 0.588,0.248 l -0.393,1.643 0.863,0.287 0.652,-1.553 c 0.244,0.07 0.49,0.131 0.736,0.186 l -0.123,1.674 0.898,0.145 0.391,-1.625 c 0.24,0.025 0.482,0.044 0.724,0.058 z m -0.437,-2.607 1.092,-6.289 c 1.076,-0.027 2.109,-0.617 2.654,-1.635 l -0.281,0.527 5.572,2.982 c -1.953,3.157 -5.514,4.794 -9.037,4.415 z m 9.562,-5.387 -5.576,-2.984 -0.24,0.447 c 0.543,-1.014 0.463,-2.193 -0.104,-3.104 l 4.67,-4.35 c 2.249,2.743 2.831,6.624 1.25,9.991 z m -9.664,-4.598 c 0.33,-0.615 1.096,-0.846 1.713,-0.518 0.615,0.33 0.846,1.096 0.518,1.713 -0.33,0.615 -1.096,0.846 -1.713,0.518 -0.615,-0.33 -0.846,-1.095 -0.518,-1.713 z m 5.571,-7.724 c 0.783,0.42 1.482,0.934 2.094,1.52 l -4.664,4.342 c -0.131,-0.1 -0.271,-0.191 -0.422,-0.271 -0.686,-0.367 -1.445,-0.449 -2.148,-0.289 l -2.613,-5.822 c 2.45,-0.916 5.266,-0.812 7.753,0.52 z m -12.777,3.867 c 0.941,-1.76 2.361,-3.098 4.011,-3.943 l 2.607,5.809 c -0.42,0.275 -0.777,0.654 -1.029,1.127 -0.221,0.41 -0.338,0.848 -0.361,1.285 l -6.311,0.99 c -0.154,-1.764 0.184,-3.592 1.083,-5.268 z m 3.867,12.777 c -2.57,-1.375 -4.243,-3.77 -4.79,-6.416 l 6.286,-0.986 c 0.232,0.75 0.748,1.412 1.496,1.813 0.146,0.078 0.295,0.145 0.447,0.197 l -1.088,6.273 c -0.801,-0.183 -1.592,-0.474 -2.351,-0.881 z"
             fill="#473467" /></g><g
           id="g109"><path
             id="path107"
             d="m 423.168,124.629 c 0.466,0.08 0.945,0.094 1.431,0.027 l 0.827,0.955 c 0.232,-0.059 0.456,-0.131 0.683,-0.217 0.224,-0.09 0.442,-0.191 0.649,-0.303 l -0.037,-1.266 c 0.396,-0.283 0.742,-0.619 1.029,-0.99 l 1.264,0.086 c 0.244,-0.412 0.434,-0.85 0.572,-1.309 l -0.924,-0.867 c 0.074,-0.467 0.09,-0.947 0.029,-1.426 l 0.953,-0.83 c -0.061,-0.229 -0.131,-0.457 -0.217,-0.68 -0.09,-0.227 -0.193,-0.441 -0.305,-0.648 l -1.264,0.041 c -0.281,-0.398 -0.617,-0.742 -0.988,-1.031 l 0.088,-1.264 c -0.413,-0.24 -0.85,-0.434 -1.306,-0.57 l -0.873,0.92 c -0.463,-0.078 -0.943,-0.092 -1.428,-0.027 l -0.832,-0.953 c -0.224,0.059 -0.456,0.131 -0.68,0.217 -0.226,0.088 -0.44,0.191 -0.651,0.303 l 0.046,1.264 c -0.404,0.285 -0.746,0.617 -1.033,0.994 l -1.263,-0.086 c -0.243,0.408 -0.435,0.85 -0.574,1.305 l 0.924,0.869 c -0.08,0.467 -0.09,0.943 -0.026,1.428 l -0.955,0.828 c 0.06,0.229 0.13,0.455 0.219,0.682 0.088,0.225 0.191,0.439 0.302,0.646 l 1.264,-0.039 c 0.279,0.395 0.614,0.74 0.99,1.029 l -0.089,1.262 c 0.412,0.244 0.852,0.436 1.311,0.572 z m -2.84,-4.84 c 0.085,-2.014 1.788,-3.578 3.803,-3.494 2.015,0.086 3.579,1.789 3.493,3.803 -0.084,2.016 -1.787,3.58 -3.802,3.494 -2.016,-0.086 -3.579,-1.787 -3.494,-3.803 z"
             fill="#473467" /></g><g
           id="g113"><path
             id="path111"
             d="m 417.045,175.096 1.255,0.229 0.74,-1.592 c 0.395,0.02 0.788,0.012 1.18,-0.023 l 0.802,1.563 1.246,-0.275 0.063,-1.756 c 0.336,-0.123 0.664,-0.266 0.982,-0.43 l 1.33,1.146 1.05,-0.727 -0.603,-1.648 c 0.29,-0.262 0.564,-0.545 0.818,-0.852 l 1.689,0.551 0.686,-1.076 -1.215,-1.297 c 0.154,-0.328 0.285,-0.66 0.393,-0.998 l 1.75,-0.131 0.229,-1.256 -1.592,-0.74 c 0.02,-0.395 0.012,-0.789 -0.023,-1.18 l 1.563,-0.801 -0.275,-1.246 -1.756,-0.064 c -0.123,-0.334 -0.266,-0.662 -0.43,-0.98 l 1.146,-1.332 -0.727,-1.049 -1.648,0.602 c -0.262,-0.289 -0.545,-0.563 -0.852,-0.818 l 0.55,-1.688 -1.076,-0.686 -1.297,1.213 c -0.327,-0.152 -0.66,-0.283 -0.998,-0.391 l -0.131,-1.75 -1.255,-0.23 -0.74,1.594 c -0.395,-0.021 -0.789,-0.012 -1.18,0.023 l -0.802,-1.564 -1.246,0.277 -0.063,1.756 c -0.336,0.121 -0.664,0.264 -0.982,0.428 l -1.331,-1.145 -1.049,0.725 0.602,1.648 c -0.289,0.262 -0.563,0.547 -0.818,0.852 l -1.688,-0.549 -0.685,1.076 1.214,1.297 c -0.153,0.326 -0.284,0.66 -0.393,0.998 l -1.75,0.131 -0.229,1.256 1.593,0.74 c -0.021,0.395 -0.012,0.789 0.023,1.18 l -1.563,0.801 0.277,1.246 1.756,0.063 c 0.121,0.336 0.264,0.664 0.428,0.982 l -1.146,1.33 0.726,1.051 1.648,-0.602 c 0.262,0.289 0.546,0.563 0.852,0.816 l -0.55,1.689 1.077,0.686 1.296,-1.215 c 0.327,0.154 0.661,0.285 0.999,0.393 z m -4.796,-10.047 c 0.169,-3.988 3.539,-7.084 7.527,-6.916 3.988,0.17 7.083,3.539 6.914,7.527 -0.167,3.988 -3.539,7.084 -7.526,6.916 -3.989,-0.17 -7.084,-3.539 -6.915,-7.527 z"
             fill="#473467" /></g><g
           id="g117"><path
             id="path115"
             d="m 427.447,157.988 1.947,0.678 1.576,-2.357 c 0.625,0.131 1.256,0.215 1.889,0.256 l 0.891,2.695 2.057,-0.133 0.537,-2.785 c 0.566,-0.111 1.125,-0.258 1.674,-0.439 l 1.838,2.16 1.855,-0.898 -0.549,-2.779 c 0.527,-0.346 1.033,-0.73 1.518,-1.156 l 2.557,1.299 1.361,-1.549 -1.615,-2.369 c 0.328,-0.484 0.619,-0.984 0.875,-1.496 l 2.826,0.227 0.678,-1.945 -2.357,-1.578 c 0.131,-0.625 0.215,-1.256 0.256,-1.889 l 2.693,-0.889 -0.131,-2.057 -2.787,-0.539 c -0.109,-0.564 -0.256,-1.125 -0.438,-1.674 l 2.158,-1.838 -0.896,-1.855 -2.781,0.551 c -0.344,-0.527 -0.729,-1.035 -1.154,-1.518 l 1.299,-2.559 -1.549,-1.359 -2.371,1.613 c -0.482,-0.326 -0.982,-0.617 -1.494,-0.873 l 0.227,-2.826 -1.947,-0.678 -1.576,2.355 c -0.625,-0.129 -1.256,-0.215 -1.889,-0.254 l -0.891,-2.695 -2.057,0.133 -0.537,2.785 c -0.564,0.111 -1.125,0.256 -1.674,0.439 l -1.838,-2.16 -1.856,0.896 0.551,2.781 c -0.526,0.346 -1.034,0.73 -1.518,1.156 l -2.558,-1.299 -1.361,1.547 1.615,2.371 c -0.327,0.484 -0.618,0.984 -0.875,1.496 l -2.825,-0.227 -0.678,1.945 2.356,1.578 c -0.13,0.623 -0.215,1.254 -0.256,1.889 l -2.694,0.889 0.132,2.057 2.787,0.539 c 0.109,0.564 0.256,1.123 0.438,1.674 l -2.159,1.838 0.896,1.855 2.78,-0.551 c 0.346,0.527 0.73,1.033 1.155,1.518 l -1.298,2.557 1.548,1.361 2.37,-1.613 c 0.485,0.326 0.985,0.617 1.497,0.873 z M 424.25,141.15 c 1.047,-5.24 6.144,-8.643 11.386,-7.596 5.242,1.047 8.643,6.145 7.596,11.387 -1.047,5.242 -6.145,8.643 -11.387,7.596 -5.242,-1.047 -8.641,-6.144 -7.595,-11.387 z"
             fill="#473467" /></g><g
           id="g121"><path
             id="path119"
             d="m 412.692,155.502 0.854,1.346 1.161,-0.35 -0.026,-1.596 c 0.533,-0.291 1.014,-0.68 1.413,-1.15 l 1.56,0.348 0.575,-1.068 -1.15,-1.111 c 0.177,-0.605 0.234,-1.217 0.185,-1.813 l 1.351,-0.857 -0.348,-1.16 -1.603,0.025 c -0.291,-0.531 -0.678,-1.01 -1.147,-1.408 l 0.35,-1.563 -1.068,-0.576 -1.112,1.152 c -0.606,-0.178 -1.222,-0.236 -1.817,-0.186 l -0.855,-1.35 -1.162,0.35 0.027,1.598 c -0.534,0.293 -1.015,0.682 -1.414,1.154 l -1.555,-0.348 -0.575,1.066 1.146,1.109 c -0.177,0.604 -0.233,1.215 -0.186,1.809 l -1.344,0.854 0.349,1.16 1.59,-0.027 c 0.292,0.537 0.682,1.02 1.154,1.422 l -0.347,1.553 1.067,0.574 1.106,-1.143 c 0.608,0.178 1.223,0.237 1.821,0.186 z m -1.869,-5.047 c 0.033,-0.807 0.715,-1.432 1.521,-1.398 0.807,0.035 1.432,0.717 1.398,1.521 -0.035,0.807 -0.716,1.434 -1.521,1.398 -0.806,-0.033 -1.433,-0.714 -1.398,-1.521 z"
             fill="#473467" /></g><g
           id="g125"><path
             id="path123"
             d="m 404.647,143 0.107,1.709 0.919,0.021 0.173,-1.701 c 0.215,-0.006 0.43,-0.018 0.643,-0.033 l 0.363,1.668 0.91,-0.119 -0.086,-1.697 c 0.252,-0.045 0.502,-0.096 0.749,-0.156 l 0.624,1.578 0.88,-0.264 -0.356,-1.65 c 0.232,-0.08 0.461,-0.168 0.688,-0.262 l 0.86,1.449 0.827,-0.4 -0.609,-1.561 c 0.184,-0.098 0.365,-0.201 0.544,-0.309 l 1.058,1.293 0.758,-0.518 -0.826,-1.438 c 0.258,-0.191 0.509,-0.393 0.751,-0.604 l 1.253,1.072 0.654,-0.646 -1.05,-1.246 c 0.153,-0.162 0.303,-0.33 0.448,-0.5 l 1.379,0.857 0.55,-0.736 -1.207,-1.057 c 0.152,-0.219 0.298,-0.441 0.436,-0.67 l 1.47,0.611 0.424,-0.816 -1.332,-0.83 c 0.111,-0.232 0.216,-0.469 0.313,-0.709 l 1.516,0.363 0.289,-0.873 -1.417,-0.596 c 0.063,-0.213 0.121,-0.43 0.173,-0.646 l 1.522,0.129 0.155,-0.904 -1.46,-0.371 c 0.029,-0.205 0.053,-0.412 0.072,-0.621 l 1.492,-0.158 0.02,-0.877 -1.462,-0.172 c -0.002,-0.225 -0.01,-0.449 -0.023,-0.672 l 1.423,-0.375 -0.112,-0.869 -1.441,0.051 c -0.043,-0.268 -0.096,-0.533 -0.155,-0.795 l 1.309,-0.584 -0.252,-0.84 -1.379,0.275 c -0.083,-0.25 -0.175,-0.496 -0.273,-0.74 l 1.172,-0.764 -0.383,-0.791 -1.288,0.48 c -0.106,-0.201 -0.218,-0.398 -0.334,-0.594 l 1.024,-0.914 -0.496,-0.723 -1.18,0.654 c -0.206,-0.279 -0.423,-0.551 -0.65,-0.813 l 0.822,-1.049 -0.616,-0.625 -1.018,0.83 c -0.176,-0.166 -0.356,-0.328 -0.541,-0.484 l 0.646,-1.146 -0.703,-0.525 -0.871,0.963 c -0.236,-0.164 -0.479,-0.318 -0.728,-0.467 l 0.445,-1.215 -0.778,-0.404 -0.694,1.074 c -0.25,-0.119 -0.506,-0.229 -0.766,-0.33 l 0.243,-1.256 -0.833,-0.275 -0.51,1.162 c -0.229,-0.066 -0.462,-0.125 -0.697,-0.178 l 0.054,-1.27 -0.865,-0.148 -0.33,1.221 c -0.229,-0.029 -0.462,-0.053 -0.695,-0.068 l -0.134,-1.256 -0.877,-0.02 -0.146,1.25 c -0.248,0.006 -0.494,0.02 -0.738,0.039 l -0.323,-1.225 -0.87,0.111 0.045,1.266 c -0.288,0.051 -0.573,0.113 -0.854,0.186 l -0.52,-1.164 -0.84,0.252 0.249,1.25 c -0.262,0.094 -0.521,0.197 -0.774,0.309 l -0.703,-1.078 -0.79,0.383 0.45,1.211 c -0.206,0.113 -0.409,0.234 -0.608,0.361 l -0.868,-0.975 -0.725,0.496 0.637,1.148 c -0.278,0.215 -0.548,0.441 -0.807,0.68 l -1.047,-0.82 -0.625,0.615 0.847,1.039 c -0.157,0.176 -0.31,0.355 -0.457,0.539 l -1.181,-0.664 -0.524,0.703 1.013,0.916 c -0.152,0.232 -0.297,0.469 -0.433,0.711 l -1.3,-0.477 -0.404,0.779 1.173,0.758 c -0.104,0.238 -0.203,0.482 -0.293,0.729 l -1.391,-0.27 -0.276,0.832 1.312,0.576 c -0.055,0.211 -0.104,0.424 -0.147,0.639 l -1.449,-0.061 -0.148,0.865 1.416,0.383 c -0.021,0.213 -0.038,0.428 -0.05,0.645 l -1.478,0.092 -0.021,0.918 1.493,0.152 c 0.01,0.232 0.026,0.465 0.049,0.695 l -1.474,0.32 0.119,0.912 1.523,-0.078 c 0.053,0.27 0.113,0.535 0.184,0.797 l -1.434,0.568 0.264,0.879 1.525,-0.33 c 0.09,0.244 0.188,0.482 0.293,0.717 l -1.355,0.805 0.4,0.826 1.485,-0.578 c 0.106,0.188 0.218,0.373 0.333,0.555 l -1.243,1.018 0.52,0.758 1.406,-0.809 c 0.201,0.256 0.411,0.506 0.631,0.746 l -1.069,1.25 0.646,0.654 1.268,-1.068 c 0.162,0.146 0.329,0.289 0.499,0.426 l -0.877,1.41 0.736,0.549 1.101,-1.256 c 0.215,0.143 0.435,0.277 0.658,0.406 l -0.644,1.549 0.814,0.424 0.892,-1.43 c 0.223,0.1 0.449,0.193 0.68,0.281 l -0.394,1.645 0.872,0.289 0.657,-1.563 c 0.198,0.053 0.398,0.104 0.601,0.146 l -0.145,1.695 0.905,0.154 0.419,-1.65 c 0.189,0.028 0.384,0.045 0.579,0.059 z m -8.968,-12.484 c 0.23,-5.438 4.825,-9.658 10.262,-9.428 5.438,0.23 9.658,4.824 9.428,10.262 -0.23,5.438 -4.825,9.658 -10.262,9.428 -5.438,-0.231 -9.658,-4.827 -9.428,-10.262 z"
             fill="#473467" /></g><g
           id="g129"><path
             id="path127"
             d="m 403.959,137.215 0.81,0.146 0.478,-1.025 c 0.254,0.012 0.509,0.006 0.761,-0.016 l 0.517,1.008 0.804,-0.18 0.04,-1.131 c 0.217,-0.078 0.428,-0.17 0.634,-0.275 l 0.858,0.738 0.676,-0.469 -0.388,-1.063 c 0.187,-0.17 0.363,-0.352 0.527,-0.549 l 1.089,0.354 0.441,-0.693 -0.782,-0.836 c 0.099,-0.211 0.184,-0.426 0.253,-0.645 l 1.129,-0.084 0.146,-0.809 -1.025,-0.479 c 0.012,-0.254 0.007,-0.508 -0.016,-0.76 l 1.008,-0.518 -0.179,-0.803 -1.132,-0.041 c -0.078,-0.217 -0.171,-0.428 -0.276,-0.633 l 0.739,-0.859 -0.469,-0.676 -1.063,0.389 c -0.169,-0.188 -0.352,-0.363 -0.55,-0.527 l 0.354,-1.09 -0.693,-0.441 -0.836,0.783 c -0.211,-0.1 -0.426,-0.184 -0.645,-0.254 l -0.084,-1.127 -0.81,-0.148 -0.478,1.027 c -0.254,-0.014 -0.508,-0.008 -0.76,0.014 l -0.517,-1.008 -0.804,0.18 -0.041,1.131 c -0.216,0.078 -0.428,0.172 -0.633,0.277 l -0.858,-0.74 -0.677,0.469 0.389,1.063 c -0.188,0.17 -0.363,0.352 -0.528,0.551 l -1.089,-0.355 -0.441,0.693 0.783,0.836 c -0.1,0.211 -0.184,0.428 -0.253,0.645 l -1.129,0.084 -0.147,0.811 1.026,0.477 c -0.013,0.254 -0.007,0.508 0.016,0.76 l -1.009,0.518 0.18,0.803 1.132,0.041 c 0.078,0.217 0.17,0.428 0.276,0.633 l -0.739,0.859 0.468,0.676 1.063,-0.389 c 0.169,0.188 0.352,0.363 0.55,0.529 l -0.355,1.088 0.694,0.441 0.836,-0.783 c 0.211,0.1 0.426,0.184 0.644,0.254 z m -2.863,-6.469 c 0.104,-2.445 2.17,-4.344 4.615,-4.24 2.444,0.104 4.342,2.17 4.238,4.615 -0.104,2.443 -2.169,4.342 -4.614,4.238 -2.444,-0.103 -4.342,-2.17 -4.239,-4.613 z"
             fill="#473467" /></g><g
           id="g133"><path
             id="path131"
             d="m 454.605,137.014 0.102,1.16 h 0.635 l 0.088,-1.154 c 0.145,-0.006 0.289,-0.016 0.432,-0.029 l 0.271,1.123 0.627,-0.096 -0.084,-1.143 c 0.219,-0.041 0.436,-0.092 0.65,-0.15 l 0.457,1.043 0.602,-0.205 -0.279,-1.092 c 0.145,-0.055 0.287,-0.113 0.428,-0.176 l 0.602,0.947 0.563,-0.293 -0.434,-1.02 c 0.16,-0.09 0.318,-0.186 0.473,-0.287 l 0.732,0.822 0.508,-0.381 -0.58,-0.918 c 0.139,-0.109 0.275,-0.227 0.408,-0.346 l 0.834,0.68 0.441,-0.455 -0.701,-0.797 c 0.104,-0.113 0.203,-0.23 0.301,-0.352 l 0.908,0.537 0.369,-0.516 -0.797,-0.67 c 0.078,-0.119 0.156,-0.24 0.23,-0.363 l 0.977,0.348 0.275,-0.539 -0.859,-0.545 c 0.066,-0.141 0.129,-0.283 0.188,-0.426 l 0.998,0.193 0.191,-0.576 -0.912,-0.4 c 0.053,-0.18 0.1,-0.359 0.141,-0.541 l 0.99,0.029 0.096,-0.6 -0.941,-0.242 c 0.023,-0.18 0.041,-0.361 0.053,-0.541 l 0.959,-0.125 -0.002,-0.607 -0.945,-0.088 c -0.006,-0.156 -0.016,-0.313 -0.029,-0.469 l 0.91,-0.262 -0.09,-0.6 -0.932,0.053 c -0.045,-0.234 -0.098,-0.469 -0.162,-0.699 l 0.828,-0.406 -0.197,-0.574 -0.881,0.211 c -0.061,-0.156 -0.125,-0.311 -0.193,-0.463 l 0.748,-0.521 -0.281,-0.537 -0.83,0.338 c -0.1,-0.172 -0.203,-0.342 -0.314,-0.508 l 0.643,-0.623 -0.363,-0.486 -0.754,0.461 c -0.121,-0.148 -0.246,-0.295 -0.379,-0.436 l 0.529,-0.707 -0.436,-0.422 -0.666,0.568 c -0.125,-0.109 -0.25,-0.215 -0.381,-0.318 l 0.414,-0.775 -0.494,-0.352 -0.572,0.66 c -0.135,-0.086 -0.271,-0.17 -0.412,-0.25 l 0.293,-0.822 -0.539,-0.275 -0.467,0.734 c -0.156,-0.07 -0.313,-0.137 -0.471,-0.197 l 0.166,-0.859 -0.576,-0.191 -0.352,0.801 c -0.193,-0.055 -0.391,-0.102 -0.586,-0.141 l 0.025,-0.881 -0.598,-0.096 -0.221,0.854 c -0.191,-0.02 -0.383,-0.033 -0.574,-0.041 l -0.115,-0.881 h -0.605 L 454.6,120 c -0.162,0.01 -0.324,0.023 -0.486,0.043 l -0.25,-0.867 -0.598,0.092 0.051,0.906 c -0.238,0.051 -0.475,0.109 -0.705,0.18 l -0.406,-0.824 -0.574,0.195 0.215,0.9 c -0.15,0.063 -0.299,0.129 -0.445,0.199 l -0.535,-0.768 -0.539,0.279 0.355,0.875 c -0.164,0.1 -0.324,0.203 -0.482,0.313 l -0.666,-0.686 -0.486,0.363 0.504,0.824 c -0.137,0.117 -0.271,0.238 -0.402,0.365 l -0.783,-0.586 -0.422,0.436 0.643,0.752 c -0.098,0.115 -0.191,0.232 -0.283,0.354 l -0.883,-0.473 -0.354,0.494 0.768,0.664 c -0.078,0.125 -0.152,0.254 -0.225,0.385 l -0.947,-0.385 -0.289,0.564 0.885,0.543 c -0.064,0.148 -0.125,0.297 -0.18,0.447 l -1.014,-0.242 -0.199,0.602 0.973,0.41 c -0.049,0.184 -0.09,0.367 -0.127,0.551 l -1.063,-0.076 -0.1,0.627 1.049,0.252 c -0.016,0.178 -0.027,0.355 -0.033,0.533 l -1.084,0.096 v 0.635 l 1.1,0.084 c 0.01,0.148 0.023,0.299 0.041,0.445 l -1.08,0.26 0.096,0.629 1.119,-0.082 c 0.047,0.221 0.104,0.439 0.168,0.654 l -1.039,0.457 0.203,0.602 1.111,-0.285 c 0.057,0.141 0.117,0.279 0.182,0.414 l -0.969,0.615 0.295,0.563 1.061,-0.451 c 0.092,0.152 0.188,0.303 0.289,0.451 l -0.867,0.77 0.381,0.51 0.984,-0.623 c 0.107,0.129 0.221,0.256 0.338,0.379 l -0.738,0.906 0.457,0.441 0.877,-0.775 c 0.107,0.094 0.217,0.184 0.33,0.271 l -0.598,1.012 0.516,0.369 0.756,-0.902 c 0.113,0.072 0.23,0.143 0.348,0.209 l -0.445,1.096 0.564,0.289 0.619,-1.008 c 0.135,0.061 0.271,0.119 0.408,0.174 l -0.273,1.146 0.604,0.199 0.455,-1.084 c 0.17,0.049 0.342,0.092 0.514,0.129 l -0.086,1.17 0.627,0.1 0.273,-1.135 c 0.164,0.019 0.334,0.033 0.501,0.043 z m -0.304,-1.819 0.762,-4.389 c 0.752,-0.02 1.471,-0.43 1.852,-1.141 l -0.197,0.367 3.889,2.082 c -1.363,2.202 -3.847,3.345 -6.306,3.081 z m 6.672,-3.759 -3.891,-2.082 -0.168,0.313 c 0.379,-0.707 0.324,-1.531 -0.072,-2.166 l 3.258,-3.035 c 1.568,1.911 1.976,4.62 0.873,6.97 z m -6.743,-3.207 c 0.229,-0.43 0.764,-0.592 1.193,-0.361 0.429,0.231 0.592,0.764 0.361,1.193 -0.231,0.429 -0.764,0.592 -1.193,0.361 -0.429,-0.229 -0.591,-0.764 -0.361,-1.193 z m 3.887,-5.391 c 0.545,0.293 1.033,0.65 1.459,1.061 l -3.254,3.029 c -0.09,-0.07 -0.189,-0.133 -0.293,-0.189 -0.479,-0.256 -1.01,-0.314 -1.5,-0.203 l -1.824,-4.063 c 1.711,-0.637 3.676,-0.565 5.412,0.365 z m -8.916,2.697 c 0.656,-1.227 1.646,-2.16 2.799,-2.75 l 1.818,4.053 c -0.291,0.191 -0.541,0.457 -0.717,0.785 -0.154,0.287 -0.236,0.594 -0.254,0.896 l -4.402,0.691 c -0.107,-1.23 0.129,-2.505 0.756,-3.675 z m 2.697,8.916 c -1.793,-0.959 -2.959,-2.629 -3.342,-4.477 l 4.385,-0.688 c 0.164,0.523 0.523,0.984 1.045,1.264 0.102,0.055 0.207,0.102 0.313,0.137 l -0.76,4.379 c -0.559,-0.127 -1.111,-0.33 -1.641,-0.615 z"
             fill="#473467" /></g><g
           id="g137"><path
             id="path135"
             d="m 437.582,168.387 c 0.344,-0.24 0.65,-0.533 0.914,-0.875 l 1.113,0.082 c 0.109,-0.184 0.203,-0.367 0.291,-0.563 0.084,-0.195 0.158,-0.396 0.217,-0.596 l -0.813,-0.768 c 0.072,-0.424 0.078,-0.852 0.027,-1.262 l 0.844,-0.734 c -0.105,-0.41 -0.26,-0.801 -0.459,-1.178 l -1.119,0.035 c -0.244,-0.338 -0.535,-0.648 -0.871,-0.91 l 0.078,-1.115 c -0.18,-0.104 -0.365,-0.203 -0.559,-0.289 -0.197,-0.084 -0.396,-0.156 -0.594,-0.217 l -0.768,0.814 c -0.424,-0.072 -0.848,-0.078 -1.26,-0.027 l -0.734,-0.846 c -0.408,0.107 -0.803,0.26 -1.174,0.457 l 0.029,1.121 c -0.34,0.24 -0.648,0.531 -0.912,0.875 l -1.115,-0.078 c -0.104,0.176 -0.203,0.365 -0.289,0.559 -0.086,0.197 -0.156,0.396 -0.219,0.596 l 0.818,0.764 c -0.076,0.43 -0.082,0.852 -0.027,1.266 l -0.844,0.734 c 0.102,0.406 0.258,0.803 0.455,1.174 l 1.119,-0.033 c 0.242,0.342 0.533,0.646 0.875,0.91 l -0.082,1.115 c 0.182,0.105 0.367,0.203 0.563,0.289 0.196,0.086 0.396,0.156 0.592,0.217 l 0.768,-0.813 c 0.42,0.072 0.846,0.08 1.262,0.025 l 0.732,0.846 c 0.41,-0.104 0.803,-0.26 1.176,-0.461 z m -4.795,-1.256 c -1.203,-1.314 -1.115,-3.355 0.199,-4.559 1.314,-1.204 3.355,-1.113 4.559,0.199 1.203,1.314 1.113,3.355 -0.199,4.559 -1.315,1.203 -3.356,1.115 -4.559,-0.199 z"
             fill="#473467" /></g><g
           id="g141"><path
             id="path139"
             d="m 403.515,116.061 0.505,0.092 0.298,-0.641 c 0.159,0.008 0.317,0.004 0.475,-0.01 l 0.322,0.629 0.501,-0.111 0.026,-0.707 c 0.135,-0.049 0.267,-0.105 0.395,-0.172 l 0.536,0.461 0.422,-0.291 -0.242,-0.664 c 0.116,-0.105 0.227,-0.219 0.329,-0.342 l 0.68,0.221 0.275,-0.434 -0.488,-0.521 c 0.062,-0.131 0.114,-0.266 0.157,-0.402 l 0.704,-0.051 0.093,-0.506 -0.641,-0.299 c 0.008,-0.158 0.004,-0.316 -0.01,-0.475 l 0.629,-0.322 -0.111,-0.5 -0.707,-0.025 c -0.049,-0.135 -0.105,-0.268 -0.172,-0.396 l 0.461,-0.535 -0.292,-0.422 -0.663,0.242 c -0.105,-0.117 -0.22,-0.227 -0.343,-0.328 l 0.222,-0.68 -0.434,-0.275 -0.521,0.488 c -0.132,-0.063 -0.266,-0.115 -0.401,-0.158 l -0.053,-0.705 -0.505,-0.092 -0.299,0.641 c -0.158,-0.008 -0.316,-0.004 -0.475,0.01 l -0.322,-0.629 -0.501,0.111 -0.025,0.707 c -0.135,0.049 -0.267,0.105 -0.395,0.172 l -0.536,-0.461 -0.422,0.293 0.242,0.662 c -0.116,0.105 -0.227,0.219 -0.329,0.344 l -0.679,-0.223 -0.276,0.434 0.488,0.521 c -0.062,0.131 -0.114,0.266 -0.157,0.402 l -0.705,0.053 -0.092,0.504 0.641,0.299 c -0.008,0.158 -0.005,0.316 0.01,0.475 l -0.629,0.322 0.111,0.5 0.706,0.025 c 0.05,0.137 0.106,0.268 0.173,0.396 l -0.461,0.535 0.292,0.422 0.663,-0.242 c 0.105,0.117 0.22,0.227 0.343,0.33 l -0.222,0.68 0.434,0.275 0.521,-0.49 c 0.132,0.063 0.266,0.115 0.401,0.158 z m -1.433,-4.022 c 0.057,-1.33 1.181,-2.363 2.511,-2.307 1.331,0.057 2.363,1.18 2.308,2.51 -0.057,1.332 -1.181,2.363 -2.512,2.307 -1.331,-0.055 -2.363,-1.18 -2.307,-2.51 z"
             fill="#473467" /></g></g></g></g></g><g
   id="layer5"
   style="display:inline"><g
     style="display:inline"
     id="filet_1_categorie"
     transform="translate(-0.66132694)"><g
       id="g154"><g
         id="g152"><path
           id="path148"
           d="m 484.803,144.932 h 53.105 c 18.096,0 40.176,12.75 49.221,28.422 l 23.391,40.51"
           stroke-miterlimit="10"
           stroke-width="2"
           stroke="#473467"
           fill="none" /><path
           id="path150"
           d="m 239.727,214.967 24.026,-41.613 c 9.045,-15.672 31.124,-28.422 49.218,-28.422 h 58.488"
           stroke-miterlimit="10"
           stroke-width="2"
           stroke="#473467"
           fill="none" /></g></g><path
       id="path156"
       d="m 613.922,610.381 -26.793,46.406 c -9.045,15.67 -31.125,28.418 -49.221,28.418 H 312.971 c -18.093,0 -40.172,-12.748 -49.218,-28.418 l -26.521,-45.934"
       stroke-miterlimit="10"
       stroke-width="2"
       stroke="#473467"
       fill="none" /></g></g><g
   id="layer4"
   style="display:inline"><g
     style="display:inline"
     id="filet_2_categorie"
     transform="translate(-0.66132694)"><path
       id="path159"
       d="m 777.988,412.707 c -0.049,4.906 -0.525,10.205 -1.412,13.586 l -37.029,152.133 c -0.713,2.703 -4.98,6.898 -7.498,7.365 l -293.727,59.811 c -3.307,0.609 -8.156,0.963 -13.249,0.963 v 0 c -5.091,0 -9.939,-0.354 -13.247,-0.963 L 118.097,585.791 c -2.515,-0.467 -6.783,-4.662 -7.497,-7.365 L 73.573,426.293 c -0.887,-3.381 -1.362,-8.68 -1.411,-13.586 v 0 c 0.049,-4.908 0.524,-10.209 1.411,-13.59 l 37.028,-152.133 c 0.714,-2.703 4.982,-6.898 7.497,-7.365 l 293.729,-59.811 c 3.308,-0.609 8.156,-0.961 13.247,-0.961 v 0 c 5.092,0 9.942,0.352 13.249,0.961 l 293.727,59.811 c 2.518,0.467 6.785,4.662 7.498,7.365 l 37.029,152.133 c 0.886,3.381 1.362,8.682 1.411,13.59 z"
       stroke-miterlimit="10"
       stroke-width="27"
       stroke="#009eb9"
       fill="none"
       opacity="0.2" /></g></g><g
   id="layer3"
   style="display:inline"><g
     style="display:inline"
     id="filet_3_posture"
     transform="translate(-0.66132694)"><path
       id="path162"
       d="m 778.137,412.707 c -0.049,4.906 -0.525,10.205 -1.412,13.586 l -37.029,152.133 c -0.713,2.703 -4.98,6.898 -7.498,7.365 l -293.727,59.811 c -3.307,0.609 -8.156,0.963 -13.249,0.963 v 0 c -5.091,0 -9.939,-0.354 -13.247,-0.963 L 118.246,585.791 c -2.515,-0.467 -6.783,-4.662 -7.497,-7.365 L 73.721,426.293 c -0.887,-3.381 -1.362,-8.68 -1.411,-13.586 v 0 c 0.049,-4.908 0.524,-10.209 1.411,-13.59 l 37.028,-152.133 c 0.714,-2.703 4.982,-6.898 7.497,-7.365 l 293.729,-59.811 c 3.308,-0.609 8.156,-0.961 13.247,-0.961 v 0 c 5.092,0 9.942,0.352 13.249,0.961 l 293.727,59.811 c 2.518,0.467 6.785,4.662 7.498,7.365 l 37.029,152.133 c 0.886,3.381 1.363,8.682 1.412,13.59 z"
       stroke-miterlimit="10"
       stroke-width="18"
       stroke="#009eb9"
       fill="none" /></g></g>












<g
   id="layer1"
   style="display:inline"><g
     style="display:inline"
     id="picto_titre_badge"
     transform="translate(-0.66132694)"><g
       id="g202"><path
         id="path198"
         d="m 214.803,332.398 c 6.839,6.564 15.278,11.789 25.084,15.523 9.802,3.74 21.308,5.637 34.201,5.637 12.717,0 24.182,-1.896 34.066,-5.637 9.893,-3.734 18.375,-8.957 25.211,-15.523 6.844,-6.576 12.201,-14.363 15.922,-23.143 1.627,-3.848 2.979,-7.93 4.021,-12.15 h -50.094 c -1.32,2.273 -2.652,4.158 -4.064,5.75 -5.457,6.156 -13.889,9.281 -25.063,9.281 -13.572,0 -17.241,-0.455 -25.19,-9.275 -1.438,-1.588 -2.755,-3.426 -4.119,-5.756 h -49.921 c 1.038,4.203 2.393,8.287 4.034,12.148 3.72,8.792 9.074,16.577 15.912,23.145 z"
         fill="#009eb9" /><path
         id="path200"
         d="m 355.691,442.689 c -0.521,-9.941 -2.678,-19.449 -6.404,-28.25 -3.719,-8.766 -9.072,-16.498 -15.916,-22.979 -6.834,-6.471 -15.322,-11.697 -25.223,-15.527 -9.898,-3.822 -21.357,-5.76 -34.063,-5.76 -12.875,0 -24.381,1.938 -34.193,5.758 -9.814,3.834 -18.259,9.061 -25.095,15.529 -6.838,6.471 -12.189,14.203 -15.906,22.979 -3.729,8.787 -5.888,18.293 -6.412,28.256 -0.363,7.871 -0.524,33.045 -0.524,41.285 0,0.611 0.008,1.197 0.017,1.785 l 0.004,0.184 h 46.763 l -0.006,-0.35 c -0.011,-0.715 -0.024,-1.426 -0.024,-2.158 0,-3.904 0.047,-25.1 0.142,-29.027 0.095,-4.07 0.311,-7.518 0.657,-10.537 0.357,-4.543 1.316,-8.836 2.848,-12.723 1.539,-3.896 3.748,-7.334 6.569,-10.221 2.821,-2.893 6.362,-5.203 10.516,-6.865 4.151,-1.662 9.077,-2.506 14.646,-2.506 5.568,0 10.498,0.844 14.648,2.506 4.145,1.662 7.686,3.971 10.523,6.863 2.813,2.893 5.02,6.328 6.559,10.221 1.527,3.881 2.484,8.174 2.848,12.76 0.18,3.105 0.355,6.586 0.537,10.479 0.17,3.943 0.254,25.145 0.254,29.051 0,0.643 -0.018,1.268 -0.035,1.893 -0.006,0.207 -0.012,0.41 -0.018,0.615 h 46.805 l 0.002,-0.236 c 0.01,-0.568 0.018,-1.137 0.018,-1.732 -0.002,-8.859 -0.182,-33.587 -0.537,-41.293 z"
         fill="#009eb9" /></g></g></g><g
   id="layer2"
   style="display:inline"><g
     style="display:inline"
     id="texte_titre_badge"
     transform="translate(-0.66132694)"><g
       id="g195"><path
         id="path165"
         d="m 386.13,416.014 2.844,0.36 v 4.571 h -11.878 v -4.571 l 2.844,-0.36 v -14.722 h -3.636 l -0.54,3.563 h -4.607 l 0.18,-8.675 h 23.397 l 0.18,8.675 h -4.607 l -0.54,-3.563 h -3.636 v 14.722 z"
         fill="#009eb9" /><path
         id="path167"
         d="m 396.608,420.945 v -4.571 l 2.844,-0.36 v -14.866 l -2.844,-0.396 v -4.572 h 11.878 v 4.572 l -2.844,0.396 v 14.866 l 2.844,0.36 v 4.571 z"
         fill="#009eb9" /><path
         id="path169"
         d="m 425.118,416.014 2.844,0.36 v 4.571 h -11.878 v -4.571 l 2.844,-0.36 v -14.722 h -3.636 l -0.54,3.563 h -4.607 l 0.18,-8.675 h 23.396 l 0.181,8.675 h -4.607 l -0.54,-3.563 h -3.636 v 14.722 z"
         fill="#009eb9" /><path
         id="path171"
         d="m 452.334,420.945 -4.535,-8.675 h -3.168 v 3.744 l 3.636,0.36 v 4.571 h -12.671 v -4.571 l 2.844,-0.36 v -14.866 l -2.844,-0.396 v -4.572 h 13.463 c 5.039,0 8.494,2.844 8.494,7.631 0,4.067 -1.691,5.687 -4.066,6.983 v 0.18 c 0,0 0.396,0.288 0.684,0.792 l 2.483,4.248 3.168,0.36 v 4.571 z m -4.823,-13.499 c 2.628,0 3.779,-1.043 3.779,-3.275 0,-1.944 -1.403,-2.879 -3.779,-2.879 h -2.88 v 6.155 h 2.88 z"
         fill="#009eb9" /><path
         id="path173"
         d="m 461.264,420.945 v -4.571 l 2.809,-0.36 v -14.902 l -2.809,-0.36 v -4.572 h 20.41 l 0.144,8.675 h -4.607 l -0.54,-3.563 h -6.406 v 4.787 h 5.363 v 4.932 h -5.363 v 4.823 h 6.334 l 0.541,-3.563 h 4.607 l -0.252,8.675 h -20.231 z"
         fill="#009eb9" /><path
         id="path175"
         d="m 491.396,420.945 v -4.571 l 2.844,-0.36 v -14.902 l -2.844,-0.36 v -4.572 h 12.13 c 6.119,0 12.131,3.24 12.131,12.203 0,9.827 -5.939,12.563 -11.555,12.563 h -12.706 z m 11.23,-5.112 c 4.212,0 6.767,-1.62 6.767,-7.451 0,-4.967 -2.663,-7.091 -7.234,-7.091 h -1.729 v 14.542 z"
         fill="#009eb9" /><path
         id="path177"
         d="m 534.882,401.147 -2.844,-0.396 v -4.572 h 11.519 v 4.572 l -2.844,0.396 v 10.69 c 0,6.263 -3.744,9.359 -10.367,9.359 -6.623,0 -10.51,-3.096 -10.51,-9.359 v -10.69 l -2.844,-0.396 v -4.572 h 11.879 v 4.572 l -2.844,0.396 v 10.294 c 0,1.944 0.791,4.572 4.318,4.572 2.88,0 4.536,-2.052 4.536,-4.392 v -10.474 z"
         fill="#009eb9" /><path
         id="path179"
         d="m 552.271,420.945 v -4.571 l 2.844,-0.36 v -14.902 l -2.844,-0.36 v -4.572 h 10.295 c 7.091,0 10.654,1.728 10.654,6.659 0,4.212 -2.664,5.003 -3.635,5.292 v 0.288 c 1.764,0.216 5.398,1.188 5.398,5.759 0,4.248 -2.483,6.767 -10.043,6.767 z m 12.059,-14.722 c 1.656,0 2.627,-0.972 2.627,-2.448 0,-1.764 -1.403,-2.483 -2.987,-2.483 h -2.663 v 4.931 z m -3.023,4.643 v 4.967 h 3.924 c 2.52,0 3.49,-0.684 3.49,-2.448 0,-1.584 -1.223,-2.52 -2.986,-2.52 h -4.428 z"
         fill="#009eb9" /><path
         id="path181"
         d="m 599.969,416.014 2.52,0.36 v 4.571 H 591.33 v -4.571 l 2.699,-0.36 -0.9,-2.376 h -8.387 l -0.9,2.376 2.7,0.36 v 4.571 h -10.979 v -4.571 l 2.52,-0.36 5.651,-14.902 -3.168,-0.18 v -4.751 h 11.879 z m -10.151,-11.195 c -0.252,-0.648 -0.793,-2.196 -0.793,-2.196 h -0.18 c 0,0 -0.54,1.548 -0.792,2.196 l -1.548,4.104 h 4.859 z"
         fill="#009eb9" /><path
         id="path183"
         d="m 603.822,420.945 v -4.571 l 2.844,-0.36 v -14.902 l -2.844,-0.36 v -4.572 h 12.131 c 6.119,0 12.131,3.24 12.131,12.203 0,9.827 -5.939,12.563 -11.555,12.563 h -12.707 z m 11.231,-5.112 c 4.212,0 6.768,-1.62 6.768,-7.451 0,-4.967 -2.664,-7.091 -7.234,-7.091 h -1.729 v 14.542 z"
         fill="#009eb9" /><path
         id="path185"
         d="m 651.664,412.27 c 0,3.708 -2.052,8.927 -10.402,8.927 -6.804,0 -11.051,-3.923 -11.051,-12.67 0,-8.675 4.283,-12.563 11.051,-12.563 8.351,0 10.402,4.355 10.402,7.487 0,1.116 -0.252,1.872 -0.252,1.872 l -5.867,0.54 c 0,0 0.145,-0.54 0.145,-1.296 0,-1.476 -0.937,-3.456 -4.104,-3.456 -2.844,0 -5.111,1.8 -5.111,7.523 0,5.651 2.482,7.379 5.326,7.379 2.736,0 3.744,-1.188 3.852,-3.204 l -3.491,-0.36 v -4.211 h 9.503 v 4.032 z"
         fill="#009eb9" /><path
         id="path187"
         d="m 654.15,420.945 v -4.571 l 2.808,-0.36 v -14.902 l -2.808,-0.36 v -4.572 h 20.409 l 0.144,8.675 h -4.607 l -0.539,-3.563 h -6.407 v 4.787 h 5.363 v 4.932 h -5.363 v 4.823 h 6.335 l 0.54,-3.563 h 4.607 l -0.252,8.675 h -20.23 z"
         fill="#009eb9" /><path
         id="path189"
         d="m 684.281,420.945 v -4.571 l 2.844,-0.36 v -14.866 l -2.844,-0.396 v -4.572 h 11.879 v 4.572 l -2.844,0.396 v 14.866 l 2.844,0.36 v 4.571 z"
         fill="#009eb9" /><path
         id="path191"
         d="m 713.764,412.198 v -0.684 l 5.976,1.224 v 0.612 c 0,3.276 -2.088,7.847 -10.583,7.847 -6.695,0 -10.87,-3.923 -10.87,-12.67 0,-8.675 4.283,-12.563 11.05,-12.563 8.352,0 10.403,4.788 10.403,8.207 0,1.116 -0.252,1.872 -0.252,1.872 l -5.867,0.72 c 0,0 0.144,-0.612 0.144,-1.476 0,-1.764 -0.936,-4.175 -4.104,-4.175 -2.844,0 -5.111,1.8 -5.111,7.523 0,5.651 2.412,7.379 5.147,7.379 3.095,0 4.067,-1.44 4.067,-3.816 z"
         fill="#009eb9" /><path
         id="path193"
         d="m 722.045,420.945 v -4.571 l 2.844,-0.36 v -14.866 l -2.844,-0.396 v -4.572 h 11.879 v 4.572 l -2.844,0.396 v 14.866 l 2.844,0.36 v 4.571 z"
         fill="#009eb9" /></g></g></g></svg>
