<?xml version="1.0" encoding="UTF-8" standalone="no"?>
<svg xmlns:dc="http://purl.org/dc/elements/1.1/"
  xmlns:cc="http://creativecommons.org/ns#"
  xmlns:rdf="http://www.w3.org/1999/02/22-rdf-syntax-ns#"
  xmlns:svg="http://www.w3.org/2000/svg"
  xmlns="http://www.w3.org/2000/svg" id="svg2303" xml:space="preserve" enable-background="new 0 0 850.394 841.89" viewBox="0 0 850.00002 849.99999" height="100%" width="100%" y="0px" x="0px" version="1.1">
  <metadata id="metadata2309">
    <rdf:RDF>
      <cc:Work rdf:about="">
        <dc:format>image/svg+xml</dc:format>
        <dc:type rdf:resource="http://purl.org/dc/dcmitype/StillImage" />
        <dc:title></dc:title>
      </cc:Work>
    </rdf:RDF>
  </metadata>

  <g id="layer1">
    
      <path transform="translate(-0.78332694)" fill="none" stroke="#009eb9" stroke-width="27" stroke-miterlimit="10" d="m 778.11,436.625 c -0.049,4.906 -0.525,10.207 -1.412,13.588 l -37.029,152.133 c -0.713,2.703 -4.98,6.898 -7.498,7.365 l -293.727,59.811 c -3.307,0.609 -8.156,0.961 -13.248,0.961 v 0 c -5.092,0 -9.939,-0.352 -13.248,-0.961 L 118.22,609.711 c -2.514,-0.467 -6.783,-4.662 -7.496,-7.365 L 73.694,450.213 c -0.887,-3.381 -1.361,-8.682 -1.41,-13.588 v 0 c 0.049,-4.908 0.523,-10.209 1.41,-13.59 l 37.029,-152.133 c 0.713,-2.703 4.982,-6.898 7.496,-7.363 l 293.729,-59.813 c 3.309,-0.607 8.156,-0.961 13.248,-0.961 v 0 c 5.092,0 9.941,0.354 13.248,0.961 l 293.727,59.813 c 2.518,0.465 6.785,4.66 7.498,7.363 l 37.029,152.133 c 0.887,3.381 1.364,8.682 1.412,13.59 z" id="path2260-0" style="fill:#ffffff;stroke:none" />
    
  </g>
  <g style="display:inline" id="layer26">
    <g id="texte_posture" transform="translate(-0.78332694)">
      <g id="g2142">
        <path fill="#473467" d="m 281.436,731.115 v 18.96 c 0,2.96 -0.86,5.267 -2.58,6.92 -1.72,1.653 -4.087,2.479 -7.1,2.479 -3.814,0 -7.027,-1.492 -9.641,-4.479 l 3.28,-4.76 c 2,2.08 3.96,3.12 5.88,3.12 2,0 3,-1.146 3,-3.44 v -13.04 h -9.6 v -5.76 z" id="path2118" />
        <path fill="#473467" d="m 290.635,731.115 c 0.906,0 1.68,0.294 2.32,0.88 0.64,0.587 0.96,1.388 0.96,2.4 0,0.907 -0.294,1.786 -0.88,2.64 l -2.92,4.24 h -3.28 l 1.8,-4.24 c -0.88,-0.613 -1.32,-1.48 -1.32,-2.6 0,-0.986 0.313,-1.787 0.94,-2.4 0.626,-0.613 1.42,-0.92 2.38,-0.92 z" id="path2120" />
        <path fill="#473467" d="m 318.795,753.995 h -12.24 l -2.04,5.16 h -7.32 l 12.08,-28 h 7.32 l 11.8,28 h -7.6 z m -2.08,-5.399 -4,-10.36 -4.08,10.36 z" id="path2122" />
        <path fill="#473467" d="m 340.114,759.155 h -7.12 v -28 h 7.12 z" id="path2124" />
        <path fill="#473467" d="m 372.274,730.915 c 4.346,0 7.96,1.354 10.84,4.06 2.88,2.707 4.32,6.088 4.32,10.141 0,4.08 -1.447,7.494 -4.34,10.24 -2.895,2.746 -6.5,4.119 -10.82,4.119 -4.32,0 -7.92,-1.365 -10.8,-4.1 -2.88,-2.732 -4.32,-6.152 -4.32,-10.26 0,-4.08 1.44,-7.467 4.32,-10.16 2.88,-2.693 6.48,-4.04 10.8,-4.04 z m 0.08,5.96 c -2.188,0 -4.054,0.794 -5.601,2.381 -1.547,1.586 -2.319,3.553 -2.319,5.899 0,2.346 0.779,4.327 2.34,5.94 1.56,1.613 3.42,2.42 5.58,2.42 2.16,0 3.993,-0.807 5.5,-2.42 1.506,-1.613 2.26,-3.594 2.26,-5.94 0,-2.346 -0.754,-4.313 -2.26,-5.899 -1.506,-1.587 -3.339,-2.381 -5.5,-2.381 z" id="path2126" />
        <path fill="#473467" d="m 410.073,759.155 -4.16,-7.88 h -0.199 -5.4 v 7.88 h -7.12 v -28 h 12.521 c 3.706,0 6.573,0.847 8.6,2.54 2.027,1.693 3.04,4.1 3.04,7.22 0,4.32 -1.693,7.32 -5.08,9 l 5.88,9.24 z m -9.76,-13.479 h 5.4 c 1.546,0 2.746,-0.387 3.6,-1.16 0.854,-0.773 1.28,-1.894 1.28,-3.36 0,-1.44 -0.427,-2.533 -1.28,-3.28 -0.854,-0.746 -2.054,-1.119 -3.6,-1.119 h -5.4 z" id="path2128" />
        <path fill="#473467" d="m 442.754,744.915 h 6.159 v 10.921 c -1.52,1.066 -3.354,1.939 -5.5,2.619 -2.146,0.68 -4.193,1.02 -6.14,1.02 -4.267,0 -7.827,-1.365 -10.68,-4.1 -2.854,-2.732 -4.28,-6.14 -4.28,-10.22 0,-4.054 1.466,-7.44 4.4,-10.16 2.933,-2.72 6.612,-4.08 11.04,-4.08 2.08,0 4.146,0.374 6.199,1.12 2.054,0.747 3.801,1.76 5.24,3.04 l -4,4.84 c -1.014,-0.933 -2.187,-1.673 -3.52,-2.22 -1.334,-0.547 -2.654,-0.82 -3.96,-0.82 -2.294,0 -4.221,0.794 -5.78,2.381 -1.561,1.586 -2.34,3.553 -2.34,5.899 0,2.374 0.786,4.36 2.359,5.96 1.573,1.6 3.521,2.4 5.841,2.4 1.493,0 3.146,-0.453 4.96,-1.36 v -7.24 z" id="path2130" />
        <path fill="#473467" d="m 474.474,753.995 h -12.24 l -2.04,5.16 h -7.32 l 12.08,-28 h 7.32 l 11.8,28 h -7.6 z m -2.08,-5.399 -4,-10.36 -4.08,10.36 z" id="path2132" />
        <path fill="#473467" d="m 514.513,759.155 h -6.279 l -12.88,-17.24 v 17.24 h -6.681 v -28 h 6.28 l 12.92,17.28 v -17.28 h 6.64 z" id="path2134" />
        <path fill="#473467" d="m 529.232,759.155 h -7.12 v -28 h 7.12 z" id="path2136" />
        <path fill="#473467" d="m 547.592,730.836 c 4.187,0 7.866,1.039 11.04,3.119 l -2.68,5.561 c -1.467,-0.854 -3.04,-1.554 -4.72,-2.101 -1.681,-0.546 -3.094,-0.819 -4.24,-0.819 -2.054,0 -3.08,0.68 -3.08,2.039 0,0.881 0.507,1.588 1.521,2.121 1.013,0.533 2.246,0.993 3.699,1.379 1.453,0.387 2.906,0.854 4.36,1.4 1.453,0.547 2.687,1.434 3.7,2.66 1.013,1.227 1.52,2.773 1.52,4.641 0,2.693 -1.054,4.793 -3.16,6.299 -2.106,1.508 -4.786,2.261 -8.039,2.261 -2.32,0 -4.614,-0.4 -6.881,-1.2 -2.267,-0.8 -4.239,-1.893 -5.92,-3.28 l 2.761,-5.479 c 1.413,1.227 3.079,2.233 5,3.02 1.92,0.787 3.626,1.18 5.119,1.18 1.146,0 2.04,-0.205 2.681,-0.619 0.64,-0.414 0.96,-1.021 0.96,-1.82 0,-0.773 -0.367,-1.42 -1.101,-1.939 -0.733,-0.521 -1.646,-0.906 -2.739,-1.16 -1.094,-0.254 -2.28,-0.594 -3.561,-1.021 -1.281,-0.427 -2.467,-0.894 -3.56,-1.399 -1.094,-0.507 -2.007,-1.313 -2.74,-2.42 -0.733,-1.107 -1.1,-2.434 -1.1,-3.98 0,-2.561 1.02,-4.606 3.06,-6.141 2.04,-1.536 4.74,-2.302 8.1,-2.302 z" id="path2138" />
        <path fill="#473467" d="m 586.512,736.756 h -14.8 v 5.56 h 13.36 v 5.6 h -13.36 v 5.64 h 15.24 v 5.601 h -22.36 v -28 h 21.92 z m -3.84,-12.561 -5.2,4.52 h -5.279 l 4.239,-6.72 z" id="path2140" />
      </g>
    </g>
  </g>
  <g style="display:inline" id="layer25">
    <g id="filet_separation_theme" transform="translate(-0.78332694)">
      <line fill="none" stroke="#1b3761" stroke-miterlimit="10" x1="427.03299" y1="587.729" x2="427.03299" y2="625.51202" id="line2145" />
    </g>
  </g>
  <g style="display:inline" id="layer24">
    <g id="picto_theme" transform="translate(-0.78332694)">
      <g id="g2152">
        <path fill="none" stroke="#000000" stroke-width="2" stroke-miterlimit="10" d="m 486.558,584.127 c 2.247,2.156 5.021,3.875 8.242,5.102 3.221,1.229 7.002,1.852 11.238,1.852 4.179,0 7.945,-0.623 11.194,-1.852 3.25,-1.227 6.038,-2.943 8.284,-5.102 2.25,-2.16 4.01,-4.719 5.232,-7.604 0.534,-1.266 0.978,-2.605 1.32,-3.992 h -16.461 c -0.434,0.746 -0.871,1.367 -1.334,1.889 -1.795,2.023 -4.564,3.049 -8.236,3.049 -4.459,0 -5.665,-0.148 -8.277,-3.047 -0.473,-0.521 -0.905,-1.125 -1.354,-1.891 h -16.403 c 0.341,1.381 0.786,2.723 1.325,3.99 1.224,2.889 2.983,5.448 5.23,7.606 z" id="path2148" />
        <path fill="none" stroke="#000000" stroke-width="2" stroke-miterlimit="10" d="m 532.853,620.367 c -0.172,-3.266 -0.881,-6.391 -2.105,-9.281 -1.221,-2.881 -2.98,-5.422 -5.229,-7.551 -2.246,-2.127 -5.035,-3.844 -8.289,-5.102 -3.252,-1.256 -7.017,-1.895 -11.191,-1.895 -4.23,0 -8.012,0.639 -11.236,1.893 -3.225,1.26 -5.999,2.977 -8.246,5.104 -2.246,2.127 -4.005,4.668 -5.227,7.551 -1.225,2.889 -1.934,6.01 -2.106,9.283 -0.12,2.588 -0.173,10.859 -0.173,13.566 0,0.203 0.002,0.393 0.006,0.588 l 0.002,0.061 h 15.365 l -0.002,-0.117 c -0.004,-0.232 -0.008,-0.467 -0.008,-0.709 0,-1.283 0.015,-8.246 0.046,-9.537 0.031,-1.336 0.103,-2.471 0.217,-3.463 0.117,-1.492 0.433,-2.904 0.935,-4.18 0.506,-1.279 1.232,-2.41 2.16,-3.359 0.926,-0.949 2.09,-1.709 3.454,-2.256 1.364,-0.545 2.983,-0.822 4.813,-0.822 1.829,0 3.449,0.277 4.813,0.822 1.362,0.547 2.525,1.307 3.457,2.256 0.926,0.951 1.65,2.08 2.156,3.357 0.502,1.277 0.816,2.688 0.936,4.195 0.059,1.02 0.117,2.162 0.177,3.441 0.056,1.295 0.083,8.262 0.083,9.545 0,0.213 -0.006,0.418 -0.012,0.625 -0.002,0.066 -0.004,0.133 -0.005,0.201 h 15.379 l 10e-4,-0.078 c 0.004,-0.188 0.006,-0.373 0.006,-0.57 -0.002,-2.91 -0.061,-11.035 -0.177,-13.568 z" id="path2150" />
      </g>
    </g>
  </g>
  <g style="display:inline" id="layer23">
    <g id="texte_picto_theme" transform="translate(-0.78332694)">
      <g id="g2175">
        <path d="m 453.192,551.6 h -3.798 v 10.025 H 446.19 V 551.6 h -3.763 v -2.592 h 10.765 z" id="path2155" />
        <path d="m 464.424,551.545 h -6.66 v 2.502 h 6.013 v 2.521 h -6.013 v 2.538 h 6.858 v 2.52 H 454.56 v -12.6 h 9.863 v 2.519 z" id="path2157" />
        <path d="m 474,555.037 4.518,6.588 h -3.834 l -2.717,-4.014 -2.719,4.014 h -3.727 l 4.5,-6.443 -4.211,-6.156 h 3.726 l 2.431,3.672 2.43,-3.672 h 3.762 z" id="path2159" />
        <path d="m 489.534,551.6 h -3.798 v 10.025 h -3.204 V 551.6 h -3.763 v -2.592 h 10.765 z" id="path2161" />
        <path d="m 500.766,551.545 h -6.66 v 2.502 h 6.013 v 2.521 h -6.013 v 2.538 h 6.858 v 2.52 h -10.062 v -12.6 h 9.863 v 2.519 z" id="path2163" />
        <path d="m 516.84,551.6 h -3.799 v 10.025 h -3.203 V 551.6 h -3.762 v -2.592 h 10.764 z" id="path2165" />
        <path d="m 529.836,561.625 h -3.204 v -4.896 h -5.22 v 4.896 h -3.205 v -12.6 h 3.205 v 5.184 h 5.22 v -5.184 h 3.204 z" id="path2167" />
        <path d="m 542.22,551.545 h -6.66 v 2.502 h 6.013 v 2.521 h -6.013 v 2.538 h 6.858 v 2.52 h -10.063 v -12.6 h 9.864 v 2.519 z m -3.312,-3.617 h -2.377 l -2.34,-2.034 2.809,-0.99 z" id="path2169" />
        <path d="m 558.33,561.625 h -2.826 l -0.019,-8.189 -3.024,6.93 h -2.088 l -3.023,-6.93 v 8.189 h -2.862 v -12.617 h 3.511 l 3.42,7.506 3.42,-7.506 h 3.492 v 12.617 z" id="path2171" />
        <path d="m 570.731,551.545 h -6.66 v 2.502 h 6.013 v 2.521 h -6.013 v 2.538 h 6.858 v 2.52 h -10.063 v -12.6 h 9.864 v 2.519 z" id="path2173" />
      </g>
    </g>
  </g>
  <g style="display:inline" id="layer22">
    <g id="picto_categorie" transform="translate(-0.78332694)">
      <g id="g2186">
        <path fill="none" stroke="#000000" stroke-width="2" stroke-linecap="round" stroke-miterlimit="10" d="m 320.155,593.937 c 0,-14.545 13.305,-20.858 21.762,-20.858 8.455,0 21.309,7.668 21.309,20.634 0,12.966 -21.422,38.898 -21.422,38.898 0,0 -21.649,-28.415 -21.649,-38.674 z" id="path2178" />
        <polygon fill="none" stroke="#000000" stroke-width="2" stroke-linecap="round" stroke-linejoin="round" stroke-miterlimit="10" points="334.7,597.24 327.821,590.537 337.327,589.155 341.577,580.542 345.828,589.155 355.333,590.537 348.456,597.24 350.079,606.708 341.577,602.237 333.076,606.708 " id="polygon2180" />
        <ellipse fill="none" stroke="#000000" stroke-width="2" stroke-linecap="round" stroke-linejoin="round" stroke-miterlimit="10" cx="343.73801" cy="593.76599" rx="1.13" ry="1.854" id="ellipse2182" />
        <ellipse fill="none" stroke="#000000" stroke-width="2" stroke-linecap="round" stroke-linejoin="round" stroke-miterlimit="10" cx="339.27499" cy="593.76599" rx="1.13" ry="1.854" id="ellipse2184" />
      </g>
    </g>
  </g>
  <g style="display:inline" id="layer21">
    <g id="texte_picto_categorie" transform="translate(-0.78332694)">
      <g id="g2209">
        <path d="m 293.117,551.545 h -6.66 v 2.502 h 6.012 v 2.521 h -6.012 v 2.538 h 6.858 v 2.52 h -10.062 v -12.6 h 9.864 z" id="path2189" />
        <path d="m 302.692,555.037 4.518,6.588 h -3.834 l -2.718,-4.014 -2.718,4.014 h -3.726 l 4.5,-6.443 -4.212,-6.156 h 3.726 l 2.43,3.672 2.43,-3.672 h 3.762 z" id="path2191" />
        <path d="m 308.596,549.025 h 5.49 c 1.608,0 2.856,0.381 3.744,1.143 0.888,0.763 1.332,1.846 1.332,3.25 0,1.476 -0.444,2.621 -1.332,3.438 -0.888,0.816 -2.136,1.225 -3.744,1.225 H 311.8 v 3.545 h -3.204 z m 3.204,2.52 v 4.015 h 2.124 c 0.708,0 1.254,-0.174 1.638,-0.522 0.384,-0.348 0.576,-0.852 0.576,-1.512 0,-0.648 -0.192,-1.14 -0.576,-1.477 -0.384,-0.335 -0.93,-0.504 -1.638,-0.504 z" id="path2193" />
        <path d="m 330.7,551.545 h -6.66 v 2.502 h 6.012 v 2.521 h -6.012 v 2.538 h 6.858 v 2.52 h -10.062 v -12.6 h 9.864 z m -1.728,-5.651 -2.34,2.034 h -2.376 l 1.908,-3.024 z" id="path2195" />
        <path d="m 340.564,561.625 -1.872,-3.545 h -0.09 -2.43 v 3.545 h -3.204 v -12.6 h 5.634 c 1.668,0 2.958,0.381 3.87,1.143 0.912,0.763 1.368,1.846 1.368,3.25 0,1.943 -0.762,3.293 -2.286,4.049 l 2.646,4.158 z m -4.392,-6.065 h 2.43 c 0.696,0 1.236,-0.174 1.62,-0.522 0.384,-0.348 0.576,-0.852 0.576,-1.512 0,-0.648 -0.192,-1.14 -0.576,-1.477 -0.384,-0.335 -0.924,-0.504 -1.62,-0.504 h -2.43 z" id="path2197" />
        <path d="M 349.204,561.625 H 346 v -12.6 h 3.204 z" id="path2199" />
        <path d="m 361.588,551.545 h -6.66 v 2.502 h 6.012 v 2.521 h -6.012 v 2.538 h 6.858 v 2.52 h -10.062 v -12.6 h 9.864 z" id="path2201" />
        <path d="m 375.484,561.625 h -2.826 l -5.796,-7.758 v 7.758 h -3.006 v -12.6 h 2.826 l 5.814,7.775 v -7.775 h 2.988 z" id="path2203" />
        <path d="m 383.908,548.918 c 0.936,0 1.857,0.191 2.763,0.576 0.906,0.383 1.677,0.899 2.313,1.547 l -1.854,2.196 c -0.408,-0.504 -0.897,-0.903 -1.467,-1.196 -0.57,-0.295 -1.137,-0.441 -1.701,-0.441 -0.996,0 -1.83,0.352 -2.502,1.053 -0.672,0.702 -1.008,1.569 -1.008,2.602 0,1.056 0.336,1.938 1.008,2.646 0.672,0.708 1.506,1.062 2.502,1.062 0.528,0 1.077,-0.131 1.647,-0.396 0.569,-0.264 1.077,-0.624 1.521,-1.08 l 1.872,1.979 c -0.684,0.697 -1.491,1.255 -2.421,1.675 -0.93,0.42 -1.857,0.63 -2.781,0.63 -1.896,0 -3.474,-0.618 -4.734,-1.854 -1.26,-1.236 -1.89,-2.778 -1.89,-4.627 0,-1.812 0.642,-3.326 1.926,-4.545 1.284,-1.218 2.886,-1.827 4.806,-1.827 z" id="path2205" />
        <path d="m 400.323,551.545 h -6.66 v 2.502 h 6.012 v 2.521 h -6.012 v 2.538 h 6.858 v 2.52 h -10.062 v -12.6 h 9.864 z" id="path2207" />
      </g>
    </g>
  </g>
  <g style="display:inline" id="layer20">
    <g id="fond_categorie" transform="translate(-0.78332694)">
      <path fill="#b7d5e2" d="m 122.022,530.059 h 606.346 l 19.441,-88.217 c 0.113,-0.707 0.309,-2.563 0.35,-4.928 -0.041,-2.367 -0.236,-4.221 -0.35,-4.928 L 714.118,293.564 433.319,236.384 c -1.096,-0.182 -3.971,-0.479 -8.123,-0.479 -4.152,0 -7.025,0.297 -8.123,0.479 l -280.797,57.18 -33.693,138.422 c -0.111,0.707 -0.309,2.561 -0.348,4.928 0.039,2.365 0.236,4.221 0.348,4.928 z" id="path2212" />
    </g>
  </g>
  <g style="display:inline" id="layer19">
    <g id="picto_posture" transform="translate(-0.78332694)">

      <polygon opacity="0.2" fill="currentColor" points="420.563,124.895 420.563,115.521 257.767,82.734 257.767,150.9 " id="polygon2222" />

      <polygon opacity="0.2" fill="currentColor" points="431.767,124.895 431.767,115.521 594.563,82.734 594.563,150.9 " id="polygon2231" />
      <path fill="#473467" d="m 440.589,195.883 h -2.137 v -2.137 h -1.068 l -3.205,-60.902 c 1.18,0 2.137,-0.957 2.137,-2.137 v -4.273 c 0,-1.18 -0.957,-2.137 -2.137,-2.137 h -2.137 v -8.549 h 2.137 1.068 v -2.137 h -1.068 -1.068 v -1.068 h -2.137 v -1.068 h -2.137 v -1.068 h -2.139 v -1.068 h -2.137 v 1.068 h -2.137 v 1.068 h -2.137 v 1.068 h -2.137 v 1.068 h -1.068 -1.068 v 2.137 h 1.068 2.137 v 8.549 h -2.137 c -1.18,0 -2.137,0.957 -2.137,2.137 v 4.273 c 0,1.18 0.957,2.137 2.137,2.137 l -3.205,60.902 h -1.068 v 2.137 h -2.137 l -4.273,4.273 h 38.463 z m -19.233,-79.067 h 8.549 v 5.344 h -3.207 v -1.068 h 1.07 v -2.137 h -2.139 v 2.137 1.068 h -4.273 z m -5.002,70.518 h 18.553 l 0.225,4.275 H 416.13 Z m 2.475,-47.012 h 13.604 l 0.395,7.48 h -14.391 z m 0.225,-4.273 0.057,-1.068 h 13.041 l 0.057,1.068 z m -0.844,16.027 h 14.842 l 0.393,7.479 h -15.627 z m 15.459,11.754 0.395,7.479 h -16.865 l 0.395,-7.479 z m 0.619,11.752 0.393,7.479 h -18.1 l 0.393,-7.479 z m 0.959,24.041 h -3.205 v -2.139 c 0,-0.885 0.717,-1.602 1.602,-1.602 0.885,0 1.604,0.717 1.604,1.602 v 2.139 z" id="path2233" />
    </g>
  </g>
  <g style="display:inline" id="layer18">
    <g id="filet_1_categorie" transform="translate(-0.78332694)">
      <g id="g2242">
        <g id="g2240">
          <path fill="none" stroke="#473467" stroke-width="2" stroke-miterlimit="10" d="m 458.558,169.721 h 79.324 c 18.096,0 40.176,12.748 49.221,28.42 l 23.391,40.512" id="path2236" />
          <path fill="none" stroke="#473467" stroke-width="2" stroke-miterlimit="10" d="m 239.7,239.756 24.027,-41.615 c 9.045,-15.672 31.123,-28.42 49.217,-28.42 h 79.879" id="path2238" />
        </g>
      </g>
      <path fill="none" stroke="#473467" stroke-width="2" stroke-miterlimit="10" d="m 613.896,633.166 -26.793,46.406 c -9.045,15.668 -31.125,28.418 -49.221,28.418 H 312.944 c -18.092,0 -40.172,-12.75 -49.217,-28.418 l -26.521,-45.934" id="path2244" />
      <g id="g2252">
        <g id="g2250">
          <path fill="none" stroke="#473467" stroke-width="2" stroke-miterlimit="10" d="m 458.558,169.721 h 79.324 c 18.096,0 40.176,12.748 49.221,28.42 l 23.391,40.512" id="path2246" />
          <path fill="none" stroke="#473467" stroke-width="2" stroke-miterlimit="10" d="m 239.7,239.756 24.027,-41.615 c 9.045,-15.672 31.123,-28.42 49.217,-28.42 h 79.879" id="path2248" />
        </g>
      </g>
      <path fill="none" stroke="#473467" stroke-width="2" stroke-miterlimit="10" d="m 613.896,633.166 -26.793,46.406 c -9.045,15.668 -31.125,28.418 -49.221,28.418 H 312.944 c -18.092,0 -40.172,-12.75 -49.217,-28.418 l -26.521,-45.934" id="path2254" />
    </g>
  </g>
  <g style="display:inline" id="layer17">
    <g id="filet_2_categorie" transform="translate(-0.78332694)">
      <path opacity="0.2" fill="none" stroke="#009eb9" stroke-width="27" stroke-miterlimit="10" d="m 778.11,436.625 c -0.049,4.906 -0.525,10.207 -1.412,13.588 l -37.029,152.133 c -0.713,2.703 -4.98,6.898 -7.498,7.365 l -293.727,59.811 c -3.307,0.609 -8.156,0.961 -13.248,0.961 v 0 c -5.092,0 -9.939,-0.352 -13.248,-0.961 L 118.22,609.711 c -2.514,-0.467 -6.783,-4.662 -7.496,-7.365 L 73.694,450.213 c -0.887,-3.381 -1.361,-8.682 -1.41,-13.588 v 0 c 0.049,-4.908 0.523,-10.209 1.41,-13.59 l 37.029,-152.133 c 0.713,-2.703 4.982,-6.898 7.496,-7.363 l 293.729,-59.813 c 3.309,-0.607 8.156,-0.961 13.248,-0.961 v 0 c 5.092,0 9.941,0.354 13.248,0.961 l 293.727,59.813 c 2.518,0.465 6.785,4.66 7.498,7.363 l 37.029,152.133 c 0.887,3.381 1.364,8.682 1.412,13.59 z" id="path2257" />
    </g>
  </g>












  <g style="display:inline" id="layer16">
    <g id="filet_3_posture" transform="translate(-0.78332694)">
      <path fill="none" stroke="#009eb9" stroke-width="27" stroke-miterlimit="10" d="m 778.11,436.625 c -0.049,4.906 -0.525,10.207 -1.412,13.588 l -37.029,152.133 c -0.713,2.703 -4.98,6.898 -7.498,7.365 l -293.727,59.811 c -3.307,0.609 -8.156,0.961 -13.248,0.961 v 0 c -5.092,0 -9.939,-0.352 -13.248,-0.961 L 118.22,609.711 c -2.514,-0.467 -6.783,-4.662 -7.496,-7.365 L 73.694,450.213 c -0.887,-3.381 -1.361,-8.682 -1.41,-13.588 v 0 c 0.049,-4.908 0.523,-10.209 1.41,-13.59 l 37.029,-152.133 c 0.713,-2.703 4.982,-6.898 7.496,-7.363 l 293.729,-59.813 c 3.309,-0.607 8.156,-0.961 13.248,-0.961 v 0 c 5.092,0 9.941,0.354 13.248,0.961 l 293.727,59.813 c 2.518,0.465 6.785,4.66 7.498,7.363 l 37.029,152.133 c 0.887,3.381 1.364,8.682 1.412,13.59 z" id="path2260" />
    </g>
  </g>
  <g style="display:inline" id="layer15">
    <g id="texte_titre_badge" transform="translate(-0.78332694)">
      <g id="g2293">
        <path fill="#009eb9" d="m 386.13,416.014 2.844,0.36 v 4.571 h -11.878 v -4.571 l 2.844,-0.36 v -14.722 h -3.636 l -0.54,3.563 h -4.607 l 0.18,-8.675 h 23.397 l 0.18,8.675 h -4.607 l -0.54,-3.563 h -3.636 v 14.722 z" id="path2263" />
        <path fill="#009eb9" d="m 396.608,420.945 v -4.571 l 2.844,-0.36 v -14.866 l -2.844,-0.396 v -4.572 h 11.878 v 4.572 l -2.844,0.396 v 14.866 l 2.844,0.36 v 4.571 z" id="path2265" />
        <path fill="#009eb9" d="m 425.118,416.014 2.844,0.36 v 4.571 h -11.878 v -4.571 l 2.844,-0.36 v -14.722 h -3.636 l -0.54,3.563 h -4.607 l 0.18,-8.675 h 23.396 l 0.181,8.675 h -4.607 l -0.54,-3.563 h -3.636 v 14.722 z" id="path2267" />
        <path fill="#009eb9" d="m 452.334,420.945 -4.535,-8.675 h -3.168 v 3.744 l 3.636,0.36 v 4.571 h -12.671 v -4.571 l 2.844,-0.36 v -14.866 l -2.844,-0.396 v -4.572 h 13.463 c 5.039,0 8.494,2.844 8.494,7.631 0,4.067 -1.691,5.687 -4.066,6.983 v 0.18 c 0,0 0.396,0.288 0.684,0.792 l 2.483,4.248 3.168,0.36 v 4.571 z m -4.823,-13.499 c 2.628,0 3.779,-1.043 3.779,-3.275 0,-1.944 -1.403,-2.879 -3.779,-2.879 h -2.88 v 6.155 h 2.88 z" id="path2269" />
        <path fill="#009eb9" d="m 461.264,420.945 v -4.571 l 2.809,-0.36 v -14.902 l -2.809,-0.36 v -4.572 h 20.41 l 0.144,8.675 h -4.607 l -0.54,-3.563 h -6.406 v 4.787 h 5.363 v 4.932 h -5.363 v 4.823 h 6.334 l 0.541,-3.563 h 4.607 l -0.252,8.675 h -20.231 z" id="path2271" />
        <path fill="#009eb9" d="m 491.396,420.945 v -4.571 l 2.844,-0.36 v -14.902 l -2.844,-0.36 v -4.572 h 12.13 c 6.119,0 12.131,3.24 12.131,12.203 0,9.827 -5.939,12.563 -11.555,12.563 h -12.706 z m 11.23,-5.112 c 4.212,0 6.767,-1.62 6.767,-7.451 0,-4.967 -2.663,-7.091 -7.234,-7.091 h -1.729 v 14.542 z" id="path2273" />
        <path fill="#009eb9" d="m 534.882,401.147 -2.844,-0.396 v -4.572 h 11.519 v 4.572 l -2.844,0.396 v 10.69 c 0,6.263 -3.744,9.359 -10.367,9.359 -6.623,0 -10.51,-3.096 -10.51,-9.359 v -10.69 l -2.844,-0.396 v -4.572 h 11.879 v 4.572 l -2.844,0.396 v 10.294 c 0,1.944 0.791,4.572 4.318,4.572 2.88,0 4.536,-2.052 4.536,-4.392 v -10.474 z" id="path2275" />
        <path fill="#009eb9" d="m 552.271,420.945 v -4.571 l 2.844,-0.36 v -14.902 l -2.844,-0.36 v -4.572 h 10.295 c 7.091,0 10.654,1.728 10.654,6.659 0,4.212 -2.664,5.003 -3.635,5.292 v 0.288 c 1.764,0.216 5.398,1.188 5.398,5.759 0,4.248 -2.483,6.767 -10.043,6.767 z m 12.059,-14.722 c 1.656,0 2.627,-0.972 2.627,-2.448 0,-1.764 -1.403,-2.483 -2.987,-2.483 h -2.663 v 4.931 z m -3.023,4.643 v 4.967 h 3.924 c 2.52,0 3.49,-0.684 3.49,-2.448 0,-1.584 -1.223,-2.52 -2.986,-2.52 h -4.428 z" id="path2277" />
        <path fill="#009eb9" d="m 599.969,416.014 2.52,0.36 v 4.571 H 591.33 v -4.571 l 2.699,-0.36 -0.9,-2.376 h -8.387 l -0.9,2.376 2.7,0.36 v 4.571 h -10.979 v -4.571 l 2.52,-0.36 5.651,-14.902 -3.168,-0.18 v -4.751 h 11.879 z m -10.151,-11.195 c -0.252,-0.648 -0.793,-2.196 -0.793,-2.196 h -0.18 c 0,0 -0.54,1.548 -0.792,2.196 l -1.548,4.104 h 4.859 z" id="path2279" />
        <path fill="#009eb9" d="m 603.822,420.945 v -4.571 l 2.844,-0.36 v -14.902 l -2.844,-0.36 v -4.572 h 12.131 c 6.119,0 12.131,3.24 12.131,12.203 0,9.827 -5.939,12.563 -11.555,12.563 h -12.707 z m 11.231,-5.112 c 4.212,0 6.768,-1.62 6.768,-7.451 0,-4.967 -2.664,-7.091 -7.234,-7.091 h -1.729 v 14.542 z" id="path2281" />
        <path fill="#009eb9" d="m 651.664,412.27 c 0,3.708 -2.052,8.927 -10.402,8.927 -6.804,0 -11.051,-3.923 -11.051,-12.67 0,-8.675 4.283,-12.563 11.051,-12.563 8.351,0 10.402,4.355 10.402,7.487 0,1.116 -0.252,1.872 -0.252,1.872 l -5.867,0.54 c 0,0 0.145,-0.54 0.145,-1.296 0,-1.476 -0.937,-3.456 -4.104,-3.456 -2.844,0 -5.111,1.8 -5.111,7.523 0,5.651 2.482,7.379 5.326,7.379 2.736,0 3.744,-1.188 3.852,-3.204 l -3.491,-0.36 v -4.211 h 9.503 v 4.032 z" id="path2283" />
        <path fill="#009eb9" d="m 654.15,420.945 v -4.571 l 2.808,-0.36 v -14.902 l -2.808,-0.36 v -4.572 h 20.409 l 0.144,8.675 h -4.607 l -0.539,-3.563 h -6.407 v 4.787 h 5.363 v 4.932 h -5.363 v 4.823 h 6.335 l 0.54,-3.563 h 4.607 l -0.252,8.675 h -20.23 z" id="path2285" />
        <path fill="#009eb9" d="m 684.281,420.945 v -4.571 l 2.844,-0.36 v -14.866 l -2.844,-0.396 v -4.572 h 11.879 v 4.572 l -2.844,0.396 v 14.866 l 2.844,0.36 v 4.571 z" id="path2287" />
        <path fill="#009eb9" d="m 713.764,412.198 v -0.684 l 5.976,1.224 v 0.612 c 0,3.276 -2.088,7.847 -10.583,7.847 -6.695,0 -10.87,-3.923 -10.87,-12.67 0,-8.675 4.283,-12.563 11.05,-12.563 8.352,0 10.403,4.788 10.403,8.207 0,1.116 -0.252,1.872 -0.252,1.872 l -5.867,0.72 c 0,0 0.144,-0.612 0.144,-1.476 0,-1.764 -0.936,-4.175 -4.104,-4.175 -2.844,0 -5.111,1.8 -5.111,7.523 0,5.651 2.412,7.379 5.147,7.379 3.095,0 4.067,-1.44 4.067,-3.816 z" id="path2289" />
        <path fill="#009eb9" d="m 722.045,420.945 v -4.571 l 2.844,-0.36 v -14.866 l -2.844,-0.396 v -4.572 h 11.879 v 4.572 l -2.844,0.396 v 14.866 l 2.844,0.36 v 4.571 z" id="path2291" />
      </g>
    </g>
  </g>
  <g style="display:inline" id="layer14">
    <g id="picto_titre_badge" transform="translate(-0.78332694)">
      <g id="g2300">
        <path fill="#009eb9" d="m 214.803,341.398 c 6.839,6.564 15.278,11.789 25.084,15.523 9.802,3.74 21.308,5.637 34.201,5.637 12.717,0 24.182,-1.896 34.066,-5.637 9.893,-3.734 18.375,-8.957 25.211,-15.523 6.844,-6.576 12.201,-14.363 15.922,-23.143 1.627,-3.848 2.979,-7.93 4.021,-12.15 h -50.094 c -1.32,2.273 -2.652,4.158 -4.064,5.75 -5.457,6.156 -13.889,9.281 -25.063,9.281 -13.572,0 -17.241,-0.455 -25.19,-9.275 -1.438,-1.588 -2.755,-3.426 -4.119,-5.756 h -49.921 c 1.038,4.203 2.393,8.287 4.034,12.148 3.72,8.792 9.074,16.577 15.912,23.145 z" id="path2296" />
        <path fill="#009eb9" d="m 355.691,451.689 c -0.521,-9.941 -2.678,-19.449 -6.404,-28.25 -3.719,-8.766 -9.072,-16.498 -15.916,-22.979 -6.834,-6.471 -15.322,-11.697 -25.223,-15.527 -9.898,-3.822 -21.357,-5.76 -34.063,-5.76 -12.875,0 -24.381,1.938 -34.193,5.758 -9.814,3.834 -18.259,9.061 -25.095,15.529 -6.838,6.471 -12.189,14.203 -15.906,22.979 -3.729,8.787 -5.888,18.293 -6.412,28.256 -0.363,7.871 -0.524,33.045 -0.524,41.285 0,0.611 0.008,1.197 0.017,1.785 l 0.004,0.184 h 46.763 l -0.006,-0.35 c -0.011,-0.715 -0.024,-1.426 -0.024,-2.158 0,-3.904 0.047,-25.1 0.142,-29.027 0.095,-4.07 0.311,-7.518 0.657,-10.537 0.357,-4.543 1.316,-8.836 2.848,-12.723 1.539,-3.896 3.748,-7.334 6.569,-10.221 2.821,-2.893 6.362,-5.203 10.516,-6.865 4.151,-1.662 9.077,-2.506 14.646,-2.506 5.568,0 10.498,0.844 14.648,2.506 4.145,1.662 7.686,3.971 10.523,6.863 2.813,2.893 5.02,6.328 6.559,10.221 1.527,3.881 2.484,8.174 2.848,12.76 0.18,3.105 0.355,6.586 0.537,10.479 0.17,3.943 0.254,25.145 0.254,29.051 0,0.643 -0.018,1.268 -0.035,1.893 -0.006,0.207 -0.012,0.41 -0.018,0.615 h 46.805 l 0.002,-0.236 c 0.01,-0.568 0.018,-1.137 0.018,-1.732 -0.002,-8.859 -0.182,-33.587 -0.537,-41.293 z" id="path2298" />
      </g>
    </g>
  </g>
</svg>
